<svg aria-hidden="true" focusable="false" data-prefix="fas" data-icon="code-branch" class="svg-inline--fa fa-code-branch fa-w-12" role="img" xmlns="http://www.w3.org/2000/svg" viewBox="0 0 384 512">
<path fill="currentColor" d="M377,144c0-40.3-32.7-73-73-73s-73,32.7-73,73c0,30.2,18.4,56.2,44.6,67.3c-0.7,2.4-1.5,4.8-2.4,7.2 c-16,44.9-43.4,68-81.6,68.8c-46,1-75.4,20.2-94.1,42.9V150.9C129.4,143,153,114.3,153,80c0-40.3-32.7-73-73-73S7,39.7,7,80 c0,34.3,23.6,63,55.5,70.9v210.3C30.6,369,7,397.7,7,432c0,40.3,32.7,73,73,73s73-32.7,73-73c0-27.9-15.7-52.1-38.7-64.4 c16.2-29.4,42.3-44.6,78-45.3c30.1-0.6,55.8-11.1,76.5-31c15.9-15.3,28.6-36.2,37.6-62c1.5-4.2,2.8-8.4,4-12.6 C347.8,213.4,377,182.1,377,144z M42,80c0-21,17-38,38-38s38,17,38,38c0,21-17,38-38,38S42,101,42,80z M80,470c-21,0-38-17-38-38 s17-38,38-38s38,17,38,38S101,470,80,470z M304,182c-21,0-38-17-38-38c0-21,17-38,38-38c21,0,38,17,38,38C342,165,325,182,304,182z"></path>
</svg>