<svg xmlns="http://www.w3.org/2000/svg" 
	xmlns:xlink="http://www.w3.org/1999/xlink" x="0px" y="0px" data-icon="meh" viewBox="0 0 512 512" xml:space="preserve">
	<path fill="currentColor" d="M256,512c-68.4,0-132.7-26.6-181-75C26.6,388.7,0,324.4,0,256S26.6,123.3,75,75C123.3,26.6,187.6,0,256,0s132.7,26.6,181,75
	c48.3,48.3,75,112.6,75,181s-26.6,132.7-75,181C388.7,485.4,324.4,512,256,512z M256,32C132.5,32,32,132.5,32,256
	c0,123.5,100.5,224,224,224c123.5,0,224-100.5,224-224C480,132.5,379.5,32,256,32z M396.8,209.8c7.9-6,9.4-17.3,3.4-25.2l-0.1-0.1
	c-34.6-45.3-87.1-71.2-144-71.2c-57,0-109.5,26-144,71.2l-0.1,0.1c-6.1,7.9-4.6,19.2,3.3,25.2c7.9,6.1,19.2,4.6,25.2-3.3l0.1-0.2
	c27.7-36.3,69.8-57.1,115.4-57.1s87.7,20.8,115.4,57.1l0.1,0.1c3.5,4.6,8.9,7.1,14.3,7.1C389.7,213.5,393.5,212.3,396.8,209.8z
	 M163.5,370.7c-22.6,0-40.9-18.4-40.9-40.9s18.4-40.9,40.9-40.9s40.9,18.4,40.9,40.9S186.1,370.7,163.5,370.7z M391.5,329.8
	c0-9.9-8.1-18-18-18h-53.3c-9.9,0-18,8.1-18,18s8.1,18,18,18h53.3C383.4,347.8,391.5,339.7,391.5,329.8z" />
</svg>