<svg xmlns="http://www.w3.org/2000/svg" 
	xmlns:xlink="http://www.w3.org/1999/xlink" x="0px" y="0px" data-icon="mystery-customer" viewBox="0 0 100 100" xml:space="preserve">
	<path fill="currentColor" d="M100,89.3v8.2c0,1.4-1.1,2.5-2.5,2.5h-95C1.1,100,0,98.9,0,97.5v-8.2C0,75.1,9.3,63.1,22.2,59
	c1.1-0.3,2.3-0.1,3.1,0.6C31.9,65.4,40.5,69,50,69s18.1-3.5,24.7-9.3c0.9-0.7,2-1,3.1-0.6C90.7,63.1,100,75.1,100,89.3z M50,0
	C33,0,19.2,13.8,19.2,30.8S33,61.5,50,61.5s30.8-13.8,30.8-30.8S67,0,50,0z M56,49.1c0,3.5-2.8,6.3-6.3,6.3s-6.3-2.8-6.3-6.3
	s2.8-6.3,6.3-6.3S56,45.6,56,49.1z M66.5,21c0,11.1-11.3,11.2-11.3,15.3v2c0,0.5-0.4,0.8-0.8,0.8H45c-0.4,0-0.8-0.4-0.8-0.8v-2.4
	c0-5.9,4.2-8.3,7.5-10.2c2.7-1.6,4.4-2.7,4.4-4.9c0-2.8-3.4-4.7-6.2-4.7c-4,0-5.6,2.2-8.3,5.8c-0.3,0.4-0.8,0.4-1.1,0.2
	c-1.4-1.1-4.7-3.8-6-4.8c-0.3-0.3-0.4-0.7-0.2-1.1c3.8-6.3,8.6-9.9,16.3-9.9C58.3,6.3,66.5,12.6,66.5,21z" />
</svg>