<svg id="Layer_1" data-name="Layer 1" xmlns="http://www.w3.org/2000/svg" viewBox="0 0 1891 2243"><defs><style>.cls-1{fill:#21213a;}</style></defs><title>pair-icons-wireframe</title><path class="cls-1" d="M192.11,97.89l2.66,100.5,1.32,49.75c.41,15.58.35,31.32,4.11,46.54l5.42-1.49q-2.38-9.31-4.78-18.62c-.89-3.5-6.31-2-5.41,1.49l4.77,18.62c.9,3.5,6.28,2,5.42-1.49-3.88-15.67-3.57-32-4-48l-1.28-48.75-2.61-98.51c-.09-3.6-5.71-3.62-5.62,0Z"/><path class="cls-1" d="M200,103.32c-1.36-2.67,25.65-9.72,28.45-10.54,9.36-2.75,19.07-6.41,28.94-6.23C277,86.9,288.91,104.92,296,121c3.82,8.7,7.14,17.64,10.64,26.47C310,156,313,164.4,309.4,173.33c-7.27,18.3-28.37,23.13-46,23.75A167.86,167.86,0,0,1,230,195.31C221.78,194,207.44,192,205.59,182l-3.45,3.45,5.11,1.51c3.48,1,5-4.39,1.5-5.41l-5.12-1.51a2.84,2.84,0,0,0-3.46,3.45c1.7,9.17,11,13.18,19.12,15.29,11.77,3,24,3.94,36.15,4,20.68.1,44.63-2.83,56.5-22.12,5.39-8.76,5.86-18.45,2.6-28.06-3.77-11.09-8.41-22.09-13-32.85-8.11-18.9-22.15-39-45-38.85-13.76.06-27.68,5.9-40.72,9.73-6.07,1.78-26.06,4.82-20.63,15.51,1.63,3.22,6.48.38,4.85-2.84Z"/><path class="cls-1" d="M328.26,191A424.7,424.7,0,0,1,302,295.34c-1.15,2.94,3.87,5.09,5.13,2.17,14.72-34.22,15.52-73.68,34.35-106.2,4.67-8.07,11.4-18.9,20.52-22.35s20-.15,27.85,4.63c18.18,11,25.58,32.24,24.38,52.7-1.51,25.72-15.12,48.45-28.67,69.6l5.13.67-4.32-13.18c-1.12-3.42-6.55-1.95-5.42,1.49l4.33,13.18a2.84,2.84,0,0,0,5.13.67c13-20.27,25.64-41.67,28.81-66,2.77-21.2-2.39-43.88-18.95-58.41-14.43-12.67-36.75-18-51.24-2.74-13.83,14.59-21.4,33.85-26.77,52.9-6.6,23.39-10.32,47.72-20,70.16l5.13,2.17A430.61,430.61,0,0,0,333.88,191c.43-3.58-5.19-3.55-5.62,0Z"/><path class="cls-1" d="M327,231.31c34,.87,68.11-9.06,101.89-2.16l.74-5.51-7.79-1c-3.57-.48-3.53,5.14,0,5.61l7.79,1c3.13.42,3.83-4.88.75-5.51-34.37-7-68.84,2.83-103.38,1.95-3.62-.09-3.62,5.53,0,5.62Z"/><path class="cls-1" d="M448.46,182.35a590.27,590.27,0,0,1-7.35,101.11h5.42q-1.3-5.28-2.62-10.55c-.87-3.5-6.28-2-5.41,1.5L441.11,285c.63,2.55,5,2.81,5.42,0a599.49,599.49,0,0,0,7.55-102.6c-.05-3.61-5.66-3.62-5.62,0Z"/><path class="cls-1" d="M424.67,179a283.3,283.3,0,0,0,98.86,1.79l-3.17-4.13a8.07,8.07,0,0,1-6.2,4.57c-3.54.68-2,6.1,1.49,5.42a13.2,13.2,0,0,0,9.56-7.15A2.85,2.85,0,0,0,522,175.4a275.26,275.26,0,0,1-95.88-1.78c-3.53-.69-5,4.72-1.49,5.41Z"/><path class="cls-1" d="M416.82,302.86a1296.94,1296.94,0,0,1,130.29-5.72v-5.62l-6.37.11c-3.61.06-3.62,5.68,0,5.61l6.37-.1c3.61-.07,3.62-5.6,0-5.62a1302.89,1302.89,0,0,0-130.29,5.72c-3.57.34-3.6,6,0,5.62Z"/><path class="cls-1" d="M540.17,189.4a297.89,297.89,0,0,1-6.09,110.84l5.52.75a27.9,27.9,0,0,0-3.51-14.83c-1.72-3.18-6.57-.35-4.85,2.83A22.3,22.3,0,0,1,534,301c-.12,3.16,4.76,3.81,5.52.74a302.05,302.05,0,0,0,6.28-112.33c-.47-3.53-6.09-3.58-5.61,0Z"/><path class="cls-1" d="M541.84,182c13.41-15.76,36.13-11.76,50.41.49,3.5,3,6.91,6.47,8.6,10.84,2.2,5.7,0,11.43-3.45,16.12-5.49,7.43-13.73,12.63-22.35,15.66A75.93,75.93,0,0,1,549.81,229c-6.28,0-10.16,4.38-6.22,10.21,1.91,2.83,4.76,4.34,7.63,6q5.84,3.33,11.38,7.12a172.92,172.92,0,0,1,21,16.8A177.21,177.21,0,0,1,620,317.42l1.68-4.13-2.5-1.36c-1.48-3.29-6.32-.44-4.85,2.84a7.15,7.15,0,0,0,8.84,3.94,2.85,2.85,0,0,0,1.68-4.13,180.86,180.86,0,0,0-54.92-64q-5.41-3.95-11.14-7.46c-2-1.25-4.08-2.4-6.13-3.6-1.52-.9-6.66-3.64-3.62-5,1.37-.6,4.49,0,6-.07q3.4-.16,6.78-.62A73.44,73.44,0,0,0,575.12,231a56.13,56.13,0,0,0,22.15-13c6-5.91,11.27-14,9.9-22.8s-8.92-15.69-15.89-20.56c-16.17-11.31-39.74-12.72-53.41,3.35-2.33,2.74,1.63,6.73,4,4Z"/><path class="cls-1" d="M818,102c-8.74,11.68-4.84,26.68-5,40.13-.11,8.89-1.78,17.65-2.87,26.45a213.89,213.89,0,0,0-1.5,25.93c-.11,34.75,5.79,70.1-3.46,104.21-.58,2.17,2.08,4.7,4.13,3.17,4.68-3.48,7.23-8.5,6.44-14.41-.47-3.53-6.1-3.58-5.62,0,.51,3.76-.48,7.2-3.66,9.56l4.13,3.17c8.89-32.79,4.13-66.69,3.68-100.13a245.64,245.64,0,0,1,.79-25c.74-8.49,2.34-16.88,3.13-25.36,1.33-14.27-4.56-32.54,4.67-44.88,2.16-2.9-2.71-5.7-4.85-2.83Z"/><path class="cls-1" d="M752.21,127c-3.9-7.81,31.46-15,36.28-16.16a331.78,331.78,0,0,1,42.82-7.38,409.31,409.31,0,0,1,41-1.86c13.21-.06,26.49-.54,39.08-4.92,2.81-1,2.6-5.76-.75-5.52l-6.22.45c-3.58.25-3.61,5.87,0,5.61l6.22-.44-.75-5.52c-15.36,5.35-31.54,4.56-47.56,4.77a344.07,344.07,0,0,0-46.68,3.82,336.36,336.36,0,0,0-46.81,10.48c-7.81,2.34-27.6,7.21-21.46,19.5,1.62,3.24,6.46.4,4.85-2.83Z"/><path class="cls-1" d="M762.78,288.89c25.27,3,50.69,7,76.1,8.5,11.6.7,23-.45,34.48-1.48,12.07-1.07,24.54-1.63,35.92,3.25,2.24,1,4.69-.61,4.13-3.17a7.5,7.5,0,0,0-9.54-5.73c-3.5.89-2,6.31,1.5,5.42l2.62,1.8,4.13-3.17c-22.18-9.5-46.28-1.48-69.42-2.34-12.91-.48-25.77-2.36-38.58-3.86l-41.34-4.83c-3.59-.42-3.56,5.2,0,5.61Z"/><path class="cls-1" d="M960.42,200.79c-5.63-6.38-15.59-3.88-22.47-1.15A57.79,57.79,0,0,0,916.77,215c-11.62,12.92-23.49,32.9-15.93,50.53,6.3,14.69,23,22.69,38,25.07,15.87,2.51,33.78.19,47-9.49,6-4.37,13.4-12,14-19.81.27-3.49-1.31-6.93-5-7.65a5.51,5.51,0,0,0-6.7,4c-.83,3.52,4.59,5,5.41,1.49-.08.36.58,1.83.5,2.49a9.23,9.23,0,0,1-1.17,3.05,31.78,31.78,0,0,1-2,3.37,34.54,34.54,0,0,1-5.94,6.6,44.11,44.11,0,0,1-15.92,8.5,64.39,64.39,0,0,1-34.72.74c-11.43-3-23.93-9.57-28.61-21.08-5.47-13.48,3.06-28.49,11-39.09a60.66,60.66,0,0,1,17.33-16c5.32-3.13,17.19-8.83,22.34-3,2.4,2.71,6.36-1.27,4-4Z"/><path class="cls-1" d="M1047.3,217.67c-6.69-7.77-18.38-7.28-27.13-3.66-9.34,3.86-16.73,11.42-21.86,20-5.52,9.24-9.39,20.57-7.1,31.37,2,9.54,8.61,17.6,16.64,22.88,18.55,12.17,41.38,6.65,57.62-6.71,8.4-6.9,15.86-16.11,19.85-26.28,4.47-11.41,2.23-22.09-5.19-31.62-15.32-19.65-41.68-37.18-66.82-24.79-3.24,1.59-.4,6.44,2.83,4.85,18.92-9.33,39.05,1.85,52.44,15.39,7.24,7.34,14.81,15.92,13.41,27-1.22,9.55-7.37,18.35-13.8,25.23-11.8,12.62-29.8,22-47.33,16.86a36.57,36.57,0,0,1-20-14.38c-5.43-8.17-5.69-17.39-2.54-26.53,3.25-9.42,9.12-18.51,17.33-24.35,7.52-5.35,20.62-9.45,27.69-1.25,2.36,2.74,6.32-1.25,4-4Z"/><path class="cls-1" d="M1089.32,231.43a74.22,74.22,0,0,1-7.78,61.05l5.23,1.41c-.74-10.27,1.12-20.23,3.87-30.1,2.55-9.17,5.14-18.68,9.13-27.35,7.41-16.12,23.39-26.87,41.55-23.3,17.18,3.37,29.33,19.72,28.76,37-.34,10.32-4.26,20.24-7.61,29.88s-6.71,19.31-10.07,29l5.13-.67-2.91-6.53c-1.48-3.3-6.32-.44-4.85,2.83l2.92,6.53c1.07,2.4,4.42,1.38,5.13-.67q4.71-13.57,9.43-27.14c3.07-8.83,6.47-17.66,7.84-26.95,2.15-14.48-2.3-28.9-13.28-38.84a41.05,41.05,0,0,0-37.65-9.33c-14.49,3.6-24.47,14.18-30.2,27.61-3.87,9.08-6.67,18.77-9.23,28.29-2.61,9.74-4.31,19.69-3.58,29.8a2.84,2.84,0,0,0,5.24,1.42,79.82,79.82,0,0,0,8.35-65.37c-1.07-3.44-6.49-2-5.42,1.49Z"/><path class="cls-1" d="M1256.43,225.72c14-17.57-22.49-28.28-33.62-30-9.75-1.55-16.9.95-23.07,8.74A65.46,65.46,0,0,0,1186.93,232c-.76,3.82-1.35,7.81.71,11.35,2.27,3.91,6.49,7.1,9.8,10.09,6.83,6.16,14.5,12,23.53,14.4a42.3,42.3,0,0,0,13.42,1c5.42-.3,11.6-.69,15.17,4.21,6,8.18.83,18.83-7.07,23.22-20.61,11.48-48.33-2.06-60.31-19.9-2-3-6.87-.18-4.85,2.83a59.7,59.7,0,0,0,42.15,26.1c14.72,1.78,35-3.09,37.83-20.26,1-6.38-.63-13.6-5.65-18-6.86-6-15.79-3.17-24-3.73-10.23-.72-18.94-7.22-26.29-13.85-3.32-3-9.41-7.2-9.63-12-.26-5.48,2.58-12.36,4.8-17.22a53.28,53.28,0,0,1,9.61-14.84c5-5.25,10.93-5.23,17.66-3.94,6,1.15,37.06,9.58,28.6,20.21-2.23,2.8,1.72,6.8,4,4Z"/><path class="cls-1" d="M177.06,528l-.68-.81c-1.63-1.95-4.75-.29-4.79,2l-.81,46.44c-.07,3.62,5.47,3.6,5.61,0l.24-5.75c.15-3.61-5.47-3.6-5.62,0l-.23,5.75h5.61l.81-46.44-4.79,2,.68.81c2.33,2.77,6.28-1.22,4-4Z"/><path class="cls-1" d="M161.4,534.18l1.43.92-2.8,2.81a88,88,0,0,0,30.32-8.32c3.26-1.56.41-6.41-2.84-4.85A79.79,79.79,0,0,1,160,532.29a2.89,2.89,0,0,0-2.81,2.81c-.2,3.32,2.59,5.22,5.68,4.49,3.51-.83,2-6.24-1.5-5.41Z"/><path class="cls-1" d="M164.91,575.45c-3.25,1.18-4.88,3.88-4,7.3a2.86,2.86,0,0,0,3.46,2l29.21-6.85c3.52-.83,2-6.25-1.49-5.42l-29.21,6.86,3.45,2,0-.39c3.37-1.23,1.92-6.66-1.49-5.42Z"/><path class="cls-1" d="M196.55,561.22l2.21-7-5.51-.74.24,24.28h5.62c-.25-8.24-.42-17.52,5.92-23.69l-4.7-1.24a135.46,135.46,0,0,0,13.3,28.85c1.36,2.23,4.26,1.51,5.13-.67a55.79,55.79,0,0,0,2.38-34.3c-.68-2.79-4.62-2.55-5.42,0a5.42,5.42,0,0,0,2.54,6.6c3.05,2,5.87-2.89,2.83-4.85l0-.26h-5.42a50.78,50.78,0,0,1-2.37,31.32l5.13-.67a129.2,129.2,0,0,1-12.73-27.52,2.84,2.84,0,0,0-4.69-1.24c-7.48,7.28-7.86,17.86-7.57,27.67.1,3.61,5.65,3.63,5.62,0l-.25-24.28a2.82,2.82,0,0,0-5.51-.75l-2.22,7c-1.09,3.45,4.33,4.93,5.42,1.49Z"/><path class="cls-1" d="M228.72,554.38l2.49-6.69-5.42-1.49a92.12,92.12,0,0,0-2.54,31.16,2.88,2.88,0,0,0,2.81,2.81,34.62,34.62,0,0,0,21-6.43c2.92-2.07.12-6.94-2.84-4.85a29.54,29.54,0,0,1-18.19,5.66l2.8,2.81a87.47,87.47,0,0,1,2.35-29.67c.9-3.56-4.18-4.84-5.42-1.49l-2.48,6.69c-1.26,3.39,4.16,4.85,5.41,1.49Z"/><path class="cls-1" d="M255,549.75a41.94,41.94,0,0,0-2.87,26.85c.51,2.36,4,2.73,5.13.67a11,11,0,0,0,.1-11.07c-1.67-3.2-6.52-.37-4.85,2.84a4.71,4.71,0,0,1-.1,5.4l5.13.67a35.54,35.54,0,0,1,2.31-22.52c1.47-3.27-3.37-6.13-4.85-2.84Z"/><path class="cls-1" d="M249.75,548l-3.23-2.69L245.28,550l11.79-2.75L262.5,546l2.72-.63q3.07.17,1-1.61l1.39-2.42-.55.4c-2.87,2.13-.07,7,2.84,4.85,3.35-2.48,2-7.21-2.36-7.34-3.53-.11-7.64,1.61-11,2.4l-12.69,3c-1.94.45-2.86,3.34-1.24,4.69l3.23,2.69c2.76,2.29,6.76-1.66,4-4Z"/><path class="cls-1" d="M244,574.41a7.21,7.21,0,0,0-3.39,6.37,2.84,2.84,0,0,0,3.55,2.71q13.92-2.82,27.91-5.2c3.55-.6,2-6-1.5-5.41q-14,2.37-27.9,5.2l3.56,2.7.61-1.52c2.88-2.12.08-7-2.84-4.85Z"/><path class="cls-1" d="M279.56,557.21l2.06-3.2-5.13-2.16a141.09,141.09,0,0,0-5.65,24.06c-.5,3.47,4.56,5.1,5.41,1.49l3.92-16.6c.28-1.19.32-3.35,1-4.26s0-1.09,1,0,1.42,4.45,2.12,6c3.17,7.23,10,13.63,18.48,12.34,19-2.87,10.9-30.2,5.27-40.65a2.87,2.87,0,0,0-3.85-1,4.79,4.79,0,0,0-2.82,4.84c.07,3.61,5.69,3.62,5.61,0h0l-3.84-1c4,7.39,8,17.69,5.14,26.16-1.59,4.74-5.75,7.35-10.71,5.66s-7.68-6.71-9.27-11.47c-1.44-4.29-5.37-11.78-10.62-6.24-2.36,2.49-2.66,6.82-3.4,10l-3.48,14.76,5.41,1.49a142.07,142.07,0,0,1,5.66-24.06c1-3.13-3.47-4.75-5.14-2.16l-2.06,3.2c-2,3,2.89,5.86,4.85,2.83Z"/><path class="cls-1" d="M322.89,541.19c-4,0-5.57,3.33-6.06,6.86-1,7.06-1.12,14.34-1.66,21.45h5.61l.21-6.67c.11-3.62-5.51-3.61-5.62,0l-.2,6.67c-.11,3.64,5.34,3.56,5.61,0,.15-2,1.2-22.69,2.11-22.69,3.61,0,3.62-5.63,0-5.62Z"/><path class="cls-1" d="M318.53,544.7c.1.24,24.32-7.83,26.7-7.05l-2-2,.19-.56,2.42-1.39-.71.08c-3.55.4-3.59,6,0,5.61,2.78-.31,5.19-3.09,3.23-5.9-2.75-3.95-10-.36-13.45.53-5.76,1.52-25.68,3.35-21.27,13.47,1.43,3.31,6.27.45,4.85-2.83Z"/><path class="cls-1" d="M322.1,552.69l-2.25,1.91c-2.47,2.09.7,6,3.4,4.41a19,19,0,0,1,14.27-2.24c3.52.82,5-4.6,1.5-5.41a24.91,24.91,0,0,0-18.6,2.8l3.4,4.41,2.25-1.91c2.76-2.34-1.22-6.3-4-4Z"/><path class="cls-1" d="M320.55,568.54a4.24,4.24,0,0,0-1.52,8.13c2.65,1.24,6.42.38,9.2.19l14.53-1c3.59-.24,3.61-5.86,0-5.62l-10.9.72-5.45.36-1.82.12q-2.89-.47-4,2.67c3.57-.33,3.6-5.95,0-5.62Z"/><path class="cls-1" d="M397,531.08l-4.55-3.31-2.16,5.13c1.41.5-.25,10.57-.38,11.37-.65,3.75-1.65,7.43-2.65,11.1-1.64,6-4.55,13.19-4,19.49.33,3.88,3.15,6,6.88,4.84,7.05-2.29,14-6.71,20.69-9.93L407,565.93l.06-.14c-3.38-1.29-4.84,4.14-1.49,5.41a4.9,4.9,0,0,0,6.28-2.44,2.83,2.83,0,0,0-3.84-3.84l-9.92,4.79c-2.48,1.19-6.35,4.09-9.1,4.38-1.05.44-1.11.52-.17.24a20.29,20.29,0,0,1,.34-2.9c.22-1.44.52-2.88.84-4.31.78-3.45,1.75-6.85,2.68-10.26,1.6-5.85,3.14-11.79,3.5-17.87.26-4.43.51-9.79-4.39-11.5-3.22-1.12-4.55,3.39-2.16,5.13l4.55,3.31c2.92,2.13,5.73-2.74,2.83-4.85Z"/><path class="cls-1" d="M419.4,544.77l.34-.18a2.88,2.88,0,0,0,1.29-3.17A3.11,3.11,0,0,0,419.2,539a2.92,2.92,0,0,0-3.41.44c-2.89,2.63-2.24,8.5-2.62,12.05q-.94,9-1.79,18.06l5.51-.75L415.61,561c-.58-3.55-6-2.05-5.41,1.5l1.28,7.82c.54,3.34,5.24,2.16,5.51-.75q.63-6.66,1.3-13.31l.6-5.7c.14-1.3-.09-6.25.87-7.13l-3.4.44-.74-.91,1.29-3.17-.35.18c-3.2,1.68-.36,6.53,2.84,4.85Z"/><path class="cls-1" d="M411.43,548.36c1.1-4.28,7.06-4.71,10.65-5.37q6.89-1.26,13.81-2.24c3.56-.51,2.05-5.92-1.49-5.41-6.5.93-13.53,1.52-19.79,3.57-4.07,1.34-7.48,3.63-8.59,8-.91,3.51,4.51,5,5.41,1.5Z"/><path class="cls-1" d="M419.78,553.76a42.57,42.57,0,0,0,14.88-7.16h-2.84l.5-3.3c-3.51.86-2,6.27,1.49,5.42,3.18-.78,4-5.53.85-7a2.83,2.83,0,0,0-2.84,0,38.5,38.5,0,0,1-13.53,6.6c-3.49.92-2,6.34,1.49,5.41Z"/><path class="cls-1" d="M416.45,562.13a6.17,6.17,0,0,0,1.74,6.33,2.94,2.94,0,0,0,3.41.44,42.44,42.44,0,0,1,19.72-3.26c3.61.23,3.6-5.39,0-5.62a48.56,48.56,0,0,0-22.56,4l3.4.44-.29-.87c.85-3.51-4.57-5-5.42-1.49Z"/><path class="cls-1" d="M449.91,544.84l.72-.6-4.13-3.17a127.21,127.21,0,0,0-2,33.11c.18,2.52,3.94,4.14,5.23,1.42a9.28,9.28,0,0,0-.26-9.39c-1.81-3.12-6.67-.3-4.85,2.84l.26,3.71,5.24,1.42a121.05,121.05,0,0,1,1.81-31.62,2.85,2.85,0,0,0-4.13-3.17,6.61,6.61,0,0,0-3.29,4c-1.3,3.37,4.13,4.83,5.41,1.49Z"/><path class="cls-1" d="M446.46,543.69c-.65-.45,2.3-1.38,2.8-1.53a29.71,29.71,0,0,1,5.23-.76c3-.32,6.06-.46,9.11-.48,3.61,0,3.62-5.65,0-5.62a95.3,95.3,0,0,0-11.2.73c-2.82.36-6,.59-8.41,2.19a6.12,6.12,0,0,0-.37,10.32c3,2.07,5.79-2.8,2.84-4.85Z"/><path class="cls-1" d="M447.92,551.15l-.51-.11a2.83,2.83,0,0,0-2.73.72c-2.56,2.89-.65,6.09,3,6.42,6.23.55,13.16-.72,19.41-1.08,3.6-.21,3.62-5.83,0-5.62l-10.23.6c-1.87.11-7.51,1.31-9.12.34l1.39,2.43-.44.88-2.73.73.5.1c3.53.74,5-4.67,1.5-5.41Z"/><path class="cls-1" d="M478.09,546.37l-3.24,27.15c-.43,3.58,5.19,3.55,5.62,0l3.23-27.15c.43-3.58-5.19-3.55-5.61,0Z"/><path class="cls-1" d="M463.64,543.34l-.09.38,2.7-2.06h-.57l2.43,1.39-.31-.43v2.84c.1-.14,5.28-.75,6.45-1l9.41-1.7,17.89-3.24c3.13-.56,2.38-5.6-.75-5.51l-7.87.23c-3.61.11-3.62,5.72,0,5.62l7.87-.24-.75-5.51-21.65,3.91c-4.63.84-12.45.52-15.45,4.56a2.71,2.71,0,0,0,0,2.84,3.5,3.5,0,0,0,3.3,1.8,2.85,2.85,0,0,0,2.71-2.06l.09-.38c.85-3.51-4.56-5-5.41-1.49Z"/><path class="cls-1" d="M680.05,679.22l-3.7-3.17c-1.6-1.38-5.14-.67-4.79,2a536.91,536.91,0,0,1,4.54,65.22l5.23-1.42a14.31,14.31,0,0,1-3.06-9.09c0-3.61-5.6-3.62-5.62,0a19.11,19.11,0,0,0,3.84,11.93c1.55,2.09,5.25,1.6,5.23-1.42A536.92,536.92,0,0,0,677.17,678l-4.79,2,3.7,3.17c2.73,2.35,6.72-1.61,4-4Z"/><path class="cls-1" d="M657.14,692.61l45-35.5-4-4-5.7,6.55c-2.37,2.71,1.59,6.7,4,4l5.7-6.55a2.81,2.81,0,0,0-4-4l-45,35.5c-2.84,2.23,1.16,6.18,4,4Z"/><path class="cls-1" d="M653.56,761c-.48,4.58,3.73,7.62,8.06,6.93,6.07-1,12.08-7,17-10.43q19.17-13.34,38.13-27a2.81,2.81,0,0,0-2.83-4.85l-5.54,2.48c-3.29,1.47-.44,6.31,2.84,4.85l5.53-2.48-2.83-4.85q-13,9.39-26.17,18.63-6.37,4.49-12.77,8.93-3.19,2.22-6.4,4.43c-.44.31-9.75,6.63-9.41,3.36.37-3.59-5.24-3.56-5.61,0Z"/><path class="cls-1" d="M726.72,670.41l10.77-10.13c2.69-2.53-1.22-6.2-4-4A81.11,81.11,0,0,0,709.74,688c-4.89,11.7-8.14,26-4.76,38.54,3.3,12.22,14,19.17,26.37,19.32,13.62.16,27.77-7.86,38.42-15.73,4.72-3.48,8.93-8.6,7.87-14.82-.88-5.12-4.78-9.54-10.26-9.17-3.58.24-3.61,5.86,0,5.61,3.24-.21,5.07,3,4.84,6-.29,3.61-3.75,6.45-6.48,8.36A114.81,114.81,0,0,1,748.48,736c-12.09,5.6-30.1,7.19-36.73-7.25-5.22-11.35-1.81-26,2.54-37.14a76.4,76.4,0,0,1,23.2-31.35l-4-4-10.77,10.12c-2.64,2.49,1.34,6.45,4,4Z"/><path class="cls-1" d="M771.94,660.6h2.14a2.81,2.81,0,1,0,0-5.61h-2.14a2.81,2.81,0,1,0,0,5.61Z"/><path class="cls-1" d="M779.57,657.83l11-7.28c1.35-.89,2.06-3.21.57-4.41-7.28-5.82-16.57,3.67-21.7,8.56-7.31,7-13.29,15.82-15.06,25.9-3.18,18.25,7.6,35,26.37,37.27,39.35,4.79,71.27-44.35,45.91-76.74-12.75-16.28-37.65-19.13-53.2-5.19a2.84,2.84,0,0,0,.57,4.41,32.64,32.64,0,0,0,12.11,5c3.53.7,5-4.71,1.49-5.42a28.45,28.45,0,0,1-10.77-4.47l.57,4.41c11.37-10.19,29.59-9.61,40.88.44S833,667.59,828,681.72a48.08,48.08,0,0,1-32.63,29.64C780.7,715,763.83,710,760.13,693.78c-2-8.73.36-17.78,5.06-25.22a53.65,53.65,0,0,1,9.46-11c1.76-1.6,9.81-9.66,12.57-7.46l.56-4.41-11,7.28c-3,2-.19,6.84,2.83,4.85Z"/><path class="cls-1" d="M839.25,633.37c1.79-3.16,3.37,5.79,3.47,6.51.24,1.9.45,3.81.68,5.72l1.6,13.34,3.2,26.69,5.23-1.41c-8.9-19.16-19-42.52-6.44-62.48h-4.85q12.18,21.36,24.35,42.71c5.93,10.37,14.42,18.61,27,13,25.22-11.33,23.47-47.67,14.36-68.83-6.35-14.78-16.73-27.35-28.05-38.6a2.84,2.84,0,0,0-4,0l-5.37,6.45c-2.3,2.76,1.66,6.75,4,4l5.37-6.45h-4C897,595,917.25,625.87,905,656.81c-2.67,6.73-7.67,13.13-14.58,15.86-8.24,3.25-13.81-2.12-17.78-8.84-8.78-14.83-17.09-30-25.62-44.92a2.84,2.84,0,0,0-4.85,0c-13.7,21.84-3.34,47.09,6.44,68.14,1.14,2.45,5.56,1.33,5.23-1.42q-2.68-22.39-5.36-44.8c-.52-4.33-.64-10.18-5-12.63a6.56,6.56,0,0,0-9.06,2.34c-1.78,3.15,3.07,6,4.85,2.83Z"/><path class="cls-1" d="M637.89,553.92v234.4c0,3.62,5.61,3.62,5.61,0V553.92c0-3.61-5.61-3.62-5.61,0Z"/><path class="cls-1" d="M707.92,796.3H921.64c3.61,0,3.62-5.61,0-5.61H707.92c-3.62,0-3.62,5.61,0,5.61Z"/><path class="cls-1" d="M927.45,572.88V786.6c0,3.61,5.61,3.62,5.61,0V572.88c0-3.62-5.61-3.62-5.61,0Z"/><path class="cls-1" d="M735.49,536H930.26c3.61,0,3.62-5.61,0-5.61H735.49c-3.61,0-3.62,5.61,0,5.61Z"/><path class="cls-1" d="M655.74,536.53c7.24-2.2,15.45-1.22,22.93-1.2l22.62.06,46.25.13c3.61,0,3.62-5.61,0-5.62l-48.21-.13-23.62-.06c-7.12,0-14.56-.69-21.46,1.4-3.45,1-2,6.47,1.49,5.42Z"/><path class="cls-1" d="M647.6,794.81a551.61,551.61,0,0,1,75.5,2.05l-.75-5.51L717.71,793c-3.38,1.19-1.93,6.62,1.49,5.42l4.64-1.64a2.82,2.82,0,0,0-.74-5.51,548.45,548.45,0,0,0-75.5-2c-3.6.15-3.62,5.76,0,5.61Z"/><path class="cls-1" d="M1074.09,658.83c9.8,3.48,14.09,14,17,23.14,3.84,12,7.07,24.26,10.58,36.38q11,38.1,22,76.21l4.12-3.18a9,9,0,0,1-4.34-5.06c-1.22-3.38-6.65-1.92-5.41,1.49a15.18,15.18,0,0,0,6.92,8.42,2.84,2.84,0,0,0,4.13-3.17q-12.14-41.91-24.25-83.82c-3.53-12.22-6.32-25-11.31-36.75-3.61-8.5-9-15.89-18-19.07-3.42-1.21-4.88,4.21-1.5,5.41Z"/><path class="cls-1" d="M1017,684.74l108.19-31.87,53.61-15.79c4.47-1.32,9-2.59,13.41-4,2.16-.66,4.5-1.34,5.71-3.42,2.38-4.1-1.94-8-5.86-6.12-3.27,1.54-.42,6.38,2.84,4.85l.78-.36h-2.84c-2.76-1.23-7.76,1.3-10.74,2.17l-11.49,3.39-21.06,6.2-45,13.26-89,26.23c-3.46,1-2,6.44,1.49,5.41Z"/><path class="cls-1" d="M1217.25,637a649.29,649.29,0,0,1,31.36,143.8,2.85,2.85,0,0,0,4.79,2,15.34,15.34,0,0,0,2.47-20.83c-2.16-2.84-7,0-4.85,2.84a9.89,9.89,0,0,1-1.59,14l4.79,2a655.08,655.08,0,0,0-31.56-145.3c-1.16-3.4-6.58-1.94-5.41,1.5Z"/><path class="cls-1" d="M1215.56,635.35q44-9.74,87.06-22.91l-3.55-2.7-.36.19c-3.57.51-2,5.92,1.49,5.41a5.11,5.11,0,0,0,4.48-5.6,2.84,2.84,0,0,0-3.55-2.71q-43.07,13.15-87.07,22.9c-3.52.78-2,6.2,1.5,5.42Z"/><path class="cls-1" d="M1226.31,721.39a722.26,722.26,0,0,0,121-43.71c3.27-1.52.42-6.37-2.84-4.85A713.9,713.9,0,0,1,1224.82,716c-3.49.92-2,6.34,1.49,5.42Z"/><path class="cls-1" d="M1249,761.86c2.35,10.47,16.23,5.24,22.61,2.88q20.19-7.46,40-15.94a843.73,843.73,0,0,0,79.27-39c3.16-1.76.33-6.62-2.83-4.85q-32.85,18.34-67.21,33.74-17.28,7.71-34.89,14.62c-3.9,1.54-29.92,14.15-31.51,7.06-.8-3.52-6.21-2-5.42,1.5Z"/><path class="cls-1" d="M1458.76,579.59l-88.92,139.55h4.85a15.78,15.78,0,0,1-2.47-13.95c1-3.48-4.44-5-5.41-1.49a21.1,21.1,0,0,0,3,18.27,2.84,2.84,0,0,0,4.85,0l88.92-139.55c2-3-2.91-5.87-4.85-2.83Z"/><path class="cls-1" d="M1359.34,611.69c31.62,39.95,64.34,80.73,108.91,106.89,2.68,1.57,5.89-2.29,3.41-4.41l-8.84-7.54c-2.73-2.34-6.72,1.62-4,4l8.84,7.55,3.4-4.42c-44.13-25.9-76.47-66.46-107.78-106-2.24-2.83-6.19,1.16-4,4Z"/><path class="cls-1" d="M1513.8,577.68c-.44-1.79.36-3,2.38-3.64l-3.46-2c3.56,10.35,4.17,21.12,4.28,32,.13,11.49.06,23-.11,34.47q-.53,34.77-2.65,69.47h5.61a34.29,34.29,0,0,0-5.16-17.64c-1.89-3.08-6.75-.26-4.85,2.83a28.47,28.47,0,0,1,4.4,14.81c.08,3.63,5.4,3.59,5.61,0q2.18-35.7,2.68-71.45c.16-11.43.24-22.86.07-34.29-.17-10.73-.95-21.46-4.46-31.68a2.88,2.88,0,0,0-3.46-2,8.44,8.44,0,0,0-6.5,9.06c.31,3.57,5.93,3.61,5.62,0Z"/><path class="cls-1" d="M1487.39,604.39a191.57,191.57,0,0,1,107.13-52.59c3.87-.54,9.56-1.27,10.09-6.2.4-3.73-3-7-6.65-5.76-3.39,1.17-1.93,6.6,1.5,5.41-4.9,1.69-10.7,1.7-15.79,2.68-5.37,1-10.71,2.29-16,3.78a200.27,200.27,0,0,0-30.64,11.48,197.79,197.79,0,0,0-53.64,37.23c-2.6,2.53,1.37,6.5,4,4Z"/><path class="cls-1" d="M1000.28,540.08v-1.72a2.81,2.81,0,1,0-5.61,0v1.72a2.81,2.81,0,1,0,5.61,0Z"/><path class="cls-1" d="M999.84,560.77V784.83c0,3.61,5.61,3.62,5.61,0V560.77c0-3.62-5.61-3.62-5.61,0Z"/><path class="cls-1" d="M1069.87,789.36h586c3.61,0,3.62-5.62,0-5.62h-586c-3.62,0-3.62,5.62,0,5.62Z"/><path class="cls-1" d="M1667.3,738.29V536.64c0-3.62-5.61-3.62-5.61,0V738.29c0,3.62,5.61,3.62,5.61,0Z"/><path class="cls-1" d="M1667.94,535.55H995.75c-3.61,0-3.62,5.62,0,5.62h672.19c3.62,0,3.62-5.62,0-5.62Z"/><path class="cls-1" d="M1665.18,736.59a82.16,82.16,0,0,1-10.49,40.63c-1.77,3.16,3.08,6,4.84,2.84a88.23,88.23,0,0,0,11.27-43.47c0-3.61-5.63-3.62-5.62,0Z"/><path class="cls-1" d="M1016.36,786.65a419.29,419.29,0,0,1,67.33.64c3.59.32,3.57-5.29,0-5.62a420.45,420.45,0,0,0-67.33-.64c-3.58.25-3.61,5.87,0,5.62Z"/><path class="cls-1" d="M160.54,1045.54l-.68-.81c-1.63-2-4.75-.29-4.79,2l-.81,46.45c-.06,3.62,5.47,3.6,5.62,0l.23-5.75c.15-3.61-5.47-3.6-5.61,0l-.24,5.75h5.62l.81-46.45-4.8,2,.68.81c2.33,2.77,6.28-1.22,4-4Z"/><path class="cls-1" d="M144.89,1051.73l1.43.92-2.81,2.81a87.79,87.79,0,0,0,30.32-8.33c3.26-1.56.41-6.4-2.83-4.84a79.78,79.78,0,0,1-27.49,7.55,2.9,2.9,0,0,0-2.81,2.81c-.2,3.32,2.6,5.22,5.68,4.49,3.52-.83,2-6.25-1.49-5.41Z"/><path class="cls-1" d="M148.39,1093c-3.25,1.18-4.87,3.88-4,7.3a2.85,2.85,0,0,0,3.45,2l29.22-6.86c3.51-.82,2-6.24-1.5-5.41l-29.21,6.86,3.45,2,0-.39c3.37-1.23,1.91-6.66-1.5-5.42Z"/><path class="cls-1" d="M180,1078.77l2.22-7-5.52-.75.24,24.29h5.62c-.24-8.24-.42-17.52,5.92-23.69l-4.69-1.24a135.16,135.16,0,0,0,13.29,28.85c1.36,2.23,4.26,1.51,5.13-.67a55.79,55.79,0,0,0,2.38-34.3c-.67-2.79-4.62-2.55-5.41,0a5.42,5.42,0,0,0,2.53,6.6c3,2,5.87-2.9,2.84-4.85l0-.26h-5.41a50.78,50.78,0,0,1-2.38,31.32l5.13-.67a129.2,129.2,0,0,1-12.73-27.52,2.84,2.84,0,0,0-4.69-1.24c-7.47,7.28-7.85,17.86-7.57,27.67.11,3.61,5.65,3.63,5.62,0l-.24-24.29c0-3.21-4.56-3.75-5.52-.74l-2.21,7c-1.1,3.45,4.32,4.93,5.41,1.49Z"/><path class="cls-1" d="M212.2,1071.93l2.49-6.69-5.42-1.5a92.45,92.45,0,0,0-2.54,31.17,2.89,2.89,0,0,0,2.81,2.81,34.62,34.62,0,0,0,21-6.43c2.93-2.07.12-6.94-2.84-4.85a29.52,29.52,0,0,1-18.19,5.66l2.81,2.81a87.46,87.46,0,0,1,2.34-29.67c.9-3.56-4.18-4.84-5.42-1.5l-2.48,6.69c-1.26,3.4,4.17,4.86,5.41,1.5Z"/><path class="cls-1" d="M238.45,1067.3a42,42,0,0,0-2.87,26.85c.52,2.36,4,2.73,5.13.67a11,11,0,0,0,.1-11.07c-1.67-3.2-6.52-.37-4.85,2.83a4.71,4.71,0,0,1-.1,5.41l5.14.67a35.54,35.54,0,0,1,2.3-22.52c1.47-3.27-3.36-6.13-4.85-2.84Z"/><path class="cls-1" d="M233.24,1065.55l-3.24-2.69-1.24,4.69,11.79-2.75,5.44-1.27,2.72-.63q3.06.16.95-1.61l1.39-2.42-.55.4c-2.87,2.13-.07,7,2.84,4.85,3.35-2.48,2-7.21-2.36-7.34-3.52-.11-7.64,1.61-11,2.4l-12.69,3c-1.94.45-2.86,3.34-1.24,4.69l3.24,2.69c2.76,2.29,6.75-1.66,4-4Z"/><path class="cls-1" d="M227.44,1092a7.23,7.23,0,0,0-3.39,6.37,2.85,2.85,0,0,0,3.56,2.71q13.9-2.82,27.9-5.2c3.55-.6,2.05-6-1.49-5.41q-14,2.37-27.91,5.2l3.56,2.7.61-1.52c2.88-2.12.09-7-2.84-4.85Z"/><path class="cls-1" d="M263,1074.76l2.06-3.2L260,1069.4a142.78,142.78,0,0,0-5.65,24.06c-.5,3.47,4.57,5.1,5.42,1.49l3.91-16.6c.28-1.19.32-3.35,1-4.26s0-1.09,1,0,1.41,4.45,2.11,6c3.17,7.23,10,13.62,18.48,12.34,19-2.87,10.9-30.2,5.27-40.65a2.86,2.86,0,0,0-3.84-1,4.8,4.8,0,0,0-2.83,4.84c.07,3.61,5.69,3.62,5.62,0h0l-3.84-1c4,7.39,8,17.69,5.15,26.16-1.6,4.74-5.76,7.35-10.72,5.66s-7.67-6.71-9.27-11.47c-1.44-4.29-5.36-11.78-10.61-6.24-2.37,2.49-2.67,6.81-3.41,10l-3.48,14.76,5.42,1.49a141.09,141.09,0,0,1,5.65-24.06c1-3.13-3.46-4.75-5.13-2.16l-2.07,3.19c-2,3,2.89,5.87,4.85,2.84Z"/><path class="cls-1" d="M306.37,1058.74c-4,0-5.57,3.33-6.06,6.86-1,7.06-1.12,14.34-1.66,21.45h5.62l.2-6.67c.11-3.62-5.51-3.61-5.62,0l-.2,6.67c-.11,3.64,5.34,3.56,5.62,0,.15-2,1.19-22.69,2.1-22.69,3.61,0,3.62-5.63,0-5.62Z"/><path class="cls-1" d="M302,1062.25c.11.24,24.32-7.83,26.7-7l-2-2,.19-.56,2.42-1.39-.71.08c-3.55.4-3.59,6,0,5.61,2.78-.31,5.2-3.09,3.23-5.9-2.75-3.95-10-.36-13.45.53-5.76,1.52-25.67,3.35-21.27,13.47,1.44,3.31,6.28.45,4.85-2.83Z"/><path class="cls-1" d="M305.59,1070.24l-2.26,1.91c-2.46,2.09.71,6,3.4,4.41a19,19,0,0,1,14.28-2.24c3.51.82,5-4.6,1.49-5.42a25,25,0,0,0-18.6,2.81l3.4,4.41,2.26-1.91c2.76-2.34-1.23-6.3-4-4Z"/><path class="cls-1" d="M304,1086.09a4.24,4.24,0,0,0-1.51,8.13c2.64,1.24,6.42.38,9.19.19l14.53-1c3.59-.24,3.61-5.86,0-5.62l-10.9.72-5.45.36-1.81.12q-2.91-.46-4.05,2.67c3.57-.33,3.6-6,0-5.62Z"/><path class="cls-1" d="M379.89,1035.31l.43-.44-2.74.73c-1.32-.3-.23,5.83-.16,6.49.24,2.6.47,5.19.66,7.8.33,4.54.56,9.09.57,13.64,0,9.3-2,18.5-1.74,27.76a2.83,2.83,0,0,0,5.23,1.42,8,8,0,0,0,1.28-6.77c-.69-3.55-6.1-2-5.41,1.49l-.72,2.45,5.24,1.41c-.19-6.69,1.18-13.29,1.55-20a164.38,164.38,0,0,0-.32-20.46c-.22-3.25-.51-6.5-.82-9.74-.24-2.5,0-5.88-.9-8.25-1-2.71-4-3.72-6.12-1.53-2.52,2.59,1.45,6.56,4,4Z"/><path class="cls-1" d="M380.43,1036.34l-.13-.65-1.39,2.43c4.14-2.31,9.09-4.71,13.69-2.22,3.65,2,5.5,6.33,5.34,10.32-.37,9.16-8.57,15-16,18.57-3,1.46-.8,5.75,2.17,5.14,5.49-1.14,10.16,3,14.17,6.12,1.85,1.45,3.68,2.92,5.52,4.38,1.19,1,4.42,2.69,4.61,4.44l2.8-2.81-.74-.31c-2.45-2.67-6.41,1.31-4,4a5.5,5.5,0,0,0,4.71,2c1.4-.07,3-1.24,2.81-2.81-.7-6.53-9.06-10.72-13.78-14.38-5.29-4.1-10.74-7.41-17.63-6l2.17,5.13c11.65-5.64,24.72-19.24,16.35-33a15,15,0,0,0-14.86-7.31c-4.72.63-14.51,3.52-10.66,9.81,1.88,3.08,6.74.26,4.85-2.83Z"/><path class="cls-1" d="M423.24,1060.2l1.08-2.53-5.23-1.42a128.76,128.76,0,0,1-1.2,27.74l5.14-.67-.89-3c0-3.61-5.59-3.62-5.61,0a9.74,9.74,0,0,0,1.65,5.82c1.16,1.83,4.74,1.87,5.13-.67a135.52,135.52,0,0,0,1.39-29.23,2.83,2.83,0,0,0-5.23-1.42,10.12,10.12,0,0,0-1.85,5.37c-.34,3.6,5.28,3.57,5.62,0Z"/><path class="cls-1" d="M411,1057.07q-3.37,2.34-.83,1.92l2.79-.06c1.86,0,3.72,0,5.58.11a108.18,108.18,0,0,1,12.18,1.3c3.53.57,5.06-4.84,1.49-5.42-3.92-.63-7.85-1.14-11.82-1.39-3.76-.24-8.79-1-12.45,0-4.91,1.44-3.7,6.51.23,8.34,3.25,1.51,6.11-3.33,2.83-4.85Z"/><path class="cls-1" d="M412.42,1085a225.69,225.69,0,0,1,27,1.47c3.59.41,3.56-5.21,0-5.62a223.62,223.62,0,0,0-27-1.46c-3.62,0-3.62,5.63,0,5.61Z"/><path class="cls-1" d="M453.46,1059.31a11,11,0,0,0,2.38-4.64,2.84,2.84,0,0,0-4.13-3.17c-7.78,4.45-15.18,12.15-16,21.49-.77,8.26,5.27,15.93,13.91,15.06,6.79-.67,18-7.61,19.1-15a5.41,5.41,0,0,0-4.32-6.42c-2-.33-4,.71-5.85,1.27a84.12,84.12,0,0,1-10,2.33c-3.55.62-2,6,1.5,5.42,2.76-.49,5.5-1.06,8.21-1.81.84-.23,2.76-1.23,3.58-1.09,1.37.24,1-.5.26,1.18-2,4.52-10.71,9.47-15.43,8.26-6.49-1.67-6.12-9.54-3.62-14.4a28.73,28.73,0,0,1,11.57-11.48l-4.13-3.17-.93,2.16c-2.25,2.8,1.7,6.79,4,4Z"/><path class="cls-1" d="M472.52,1053.62a113.71,113.71,0,0,0-3.79,33.4c.12,3.6,5.69,3.63,5.61,0l0-2.1c-.08-3.61-5.7-3.62-5.62,0l.05,2.1h5.61a108.67,108.67,0,0,1,3.59-31.91c.93-3.5-4.48-5-5.41-1.49Z"/><path class="cls-1" d="M488.5,1051.55l-.24-.25v4l.36-.32-4.41-.57c.5.67-.94,5.76-1.08,6.77q-.51,3.76-.93,7.54c-.62,5.51-1.06,11-1.38,16.56h5.61l0-2c.06-3.62-5.56-3.62-5.62,0l0,2c-.06,3.64,5.41,3.59,5.61,0,.38-6.51.93-13,1.72-19.48.41-3.31.94-6.6,1.39-9.9.22-1.62.56-2.93-.48-4.32a2.86,2.86,0,0,0-4.41-.57l-.36.32a2.85,2.85,0,0,0,0,4l.24.25c2.51,2.61,6.48-1.37,4-4Z"/><path class="cls-1" d="M467,1073.09a148.69,148.69,0,0,0,20.35-3c3.53-.78,2-6.19-1.49-5.41a138,138,0,0,1-18.86,2.84c-3.58.29-3.61,5.91,0,5.62Z"/><path class="cls-1" d="M503.22,1050.35l-6,32h5.41l-.75-2.74c-.95-3.48-6.36-2-5.41,1.5l.75,2.73c.69,2.53,4.89,2.81,5.41,0l5.95-32c.66-3.53-4.75-5-5.41-1.49Z"/><path class="cls-1" d="M491.4,1051.33l-1.3-1.77-1.67,4.12c6.71-1.33,13.67.26,20.44.22a97.26,97.26,0,0,0,18.72-2c3.54-.71,2-6.13-1.49-5.42a88.94,88.94,0,0,1-21,1.77c-6.13-.23-12-1.16-18.13,0-1.95.38-2.35,2.6-1.67,4.12a5.87,5.87,0,0,0,2.16,2.91c2.72,2.35,6.71-1.6,4-4Z"/><path class="cls-1" d="M1398,1195.67l-3.7-3.18c-1.6-1.37-5.14-.66-4.79,2a534.76,534.76,0,0,1,4.54,65.22l5.24-1.42a14.33,14.33,0,0,1-3.07-9.09c0-3.61-5.6-3.62-5.62,0a19.14,19.14,0,0,0,3.84,11.92c1.55,2.1,5.26,1.61,5.23-1.41a536.77,536.77,0,0,0-4.54-65.22l-4.8,2,3.7,3.18c2.73,2.35,6.72-1.61,4-4Z"/><path class="cls-1" d="M1375.1,1209.05l45-35.49-4-4-5.7,6.55c-2.37,2.71,1.59,6.7,4,4l5.71-6.55a2.81,2.81,0,0,0-4-4l-44.95,35.49c-2.84,2.24,1.16,6.19,4,4Z"/><path class="cls-1" d="M1371.52,1277.45c-.47,4.58,3.73,7.62,8.06,6.93,6.07-1,12.08-7,17-10.43q19.18-13.34,38.13-27a2.81,2.81,0,0,0-2.83-4.85l-5.53,2.48c-3.3,1.47-.44,6.31,2.83,4.85l5.53-2.48-2.83-4.85q-13,9.39-26.17,18.63-6.37,4.49-12.76,8.93l-6.41,4.43c-.44.31-9.74,6.63-9.41,3.36.38-3.59-5.24-3.56-5.61,0Z"/><path class="cls-1" d="M1444.69,1186.85l10.76-10.12c2.69-2.53-1.22-6.2-4-4a81,81,0,0,0-23.77,31.68c-4.9,11.7-8.15,26-4.77,38.53,3.3,12.23,14,19.18,26.38,19.33,13.62.16,27.76-7.86,38.42-15.73,4.71-3.49,8.93-8.6,7.86-14.83-.88-5.12-4.78-9.53-10.25-9.16-3.59.24-3.62,5.86,0,5.61,3.23-.22,5.07,3,4.83,6-.28,3.61-3.74,6.44-6.48,8.36a114.81,114.81,0,0,1-17.26,9.89c-12.09,5.6-30.1,7.19-36.73-7.25-5.21-11.35-1.81-26,2.54-37.14a76.4,76.4,0,0,1,23.2-31.35l-4-4-10.76,10.12c-2.64,2.48,1.33,6.45,4,4Z"/><path class="cls-1" d="M1489.9,1177.05H1492a2.81,2.81,0,0,0,0-5.62h-2.14a2.81,2.81,0,0,0,0,5.62Z"/><path class="cls-1" d="M1497.54,1174.28l11-7.28c1.36-.89,2.07-3.21.57-4.41-7.28-5.82-16.57,3.67-21.7,8.56-7.31,6.95-13.29,15.82-15,25.9-3.19,18.25,7.59,35,26.37,37.27,39.35,4.79,71.26-44.36,45.9-76.74-12.75-16.28-37.64-19.14-53.2-5.19a2.84,2.84,0,0,0,.57,4.41,32.64,32.64,0,0,0,12.11,5c3.53.7,5-4.72,1.49-5.42a28.61,28.61,0,0,1-10.77-4.47l.57,4.41c11.38-10.2,29.6-9.61,40.88.44,11.43,10.18,14.67,27.23,9.63,41.37a48,48,0,0,1-32.63,29.63c-14.66,3.68-31.53-1.35-35.23-17.58-2-8.72.36-17.77,5.06-25.21a53.39,53.39,0,0,1,9.46-11c1.76-1.61,9.81-9.66,12.57-7.46l.57-4.41-11,7.28c-3,2-.19,6.84,2.84,4.85Z"/><path class="cls-1" d="M1557.21,1149.82c1.79-3.16,3.38,5.79,3.47,6.5.25,1.91.46,3.82.68,5.72l1.6,13.35,3.2,26.69,5.23-1.41c-8.9-19.16-19-42.52-6.44-62.48h-4.85q12.18,21.36,24.35,42.71c5.93,10.37,14.42,18.61,27,13,25.22-11.33,23.47-47.67,14.37-68.83-6.36-14.78-16.74-27.35-28.06-38.6a2.83,2.83,0,0,0-4,0l-5.37,6.45c-2.29,2.76,1.66,6.75,4,4l5.37-6.45h-4c21.18,21,41.43,51.92,29.15,82.86-2.67,6.73-7.67,13.13-14.58,15.86-8.24,3.25-13.8-2.12-17.78-8.84-8.78-14.83-17.08-30-25.62-44.92a2.84,2.84,0,0,0-4.85,0c-13.69,21.84-3.33,47.09,6.44,68.14,1.14,2.45,5.56,1.32,5.23-1.42q-2.67-22.39-5.36-44.8c-.52-4.33-.64-10.18-5-12.64a6.56,6.56,0,0,0-9.05,2.34c-1.79,3.16,3.06,6,4.84,2.84Z"/><path class="cls-1" d="M1355.85,1070.37v234.4c0,3.62,5.62,3.62,5.62,0v-234.4c0-3.62-5.62-3.62-5.62,0Z"/><path class="cls-1" d="M1425.88,1312.75H1639.6c3.61,0,3.62-5.61,0-5.61H1425.88c-3.62,0-3.62,5.61,0,5.61Z"/><path class="cls-1" d="M1645.41,1089.33v213.72c0,3.61,5.62,3.62,5.62,0V1089.33c0-3.62-5.62-3.62-5.62,0Z"/><path class="cls-1" d="M1453.46,1052.49h194.76c3.61,0,3.62-5.61,0-5.61H1453.46c-3.62,0-3.62,5.61,0,5.61Z"/><path class="cls-1" d="M1373.7,1053c7.24-2.19,15.45-1.21,22.93-1.19l22.63.06,46.24.13c3.61,0,3.62-5.61,0-5.62l-48.21-.13-23.61-.07c-7.13,0-14.57-.68-21.47,1.41-3.45,1-2,6.46,1.49,5.41Z"/><path class="cls-1" d="M1365.56,1311.26a550,550,0,0,1,75.5,2l-.75-5.51-4.64,1.63c-3.38,1.19-1.92,6.62,1.5,5.41l4.63-1.63a2.82,2.82,0,0,0-.74-5.51,550,550,0,0,0-75.5-2.06c-3.6.15-3.61,5.77,0,5.62Z"/><path class="cls-1" d="M697.49,1180.79c9.8,3.47,14.09,14,17,23.14,3.83,12,7.06,24.26,10.57,36.38q11,38.1,22,76.2l4.12-3.17a9,9,0,0,1-4.34-5.07c-1.22-3.37-6.65-1.92-5.41,1.49a15.16,15.16,0,0,0,6.92,8.43,2.84,2.84,0,0,0,4.13-3.17q-12.13-41.93-24.25-83.83c-3.53-12.21-6.32-25-11.3-36.74-3.62-8.51-9-15.9-18-19.08-3.42-1.21-4.88,4.22-1.5,5.42Z"/><path class="cls-1" d="M640.4,1206.7l108.19-31.87L802.2,1159c4.47-1.31,8.95-2.59,13.41-4,2.16-.66,4.5-1.33,5.71-3.42,2.38-4.1-1.94-8-5.86-6.11-3.27,1.53-.42,6.38,2.84,4.85l.78-.37h-2.84c-2.76-1.22-7.76,1.3-10.74,2.18L794,1155.59,773,1161.8l-45,13.25-89,26.23c-3.46,1-2,6.44,1.49,5.42Z"/><path class="cls-1" d="M840.65,1158.94A649.5,649.5,0,0,1,872,1302.75a2.85,2.85,0,0,0,4.79,2,15.33,15.33,0,0,0,2.47-20.82c-2.16-2.85-7-.05-4.85,2.83a9.89,9.89,0,0,1-1.59,14l4.79,2a655,655,0,0,0-31.56-145.3c-1.15-3.41-6.58-1.94-5.41,1.49Z"/><path class="cls-1" d="M839,1157.3q44-9.73,87.06-22.9l-3.55-2.71-.36.19c-3.57.51-2.05,5.93,1.49,5.42a5.12,5.12,0,0,0,4.48-5.61,2.84,2.84,0,0,0-3.55-2.71q-43.06,13.17-87.07,22.91c-3.52.78-2,6.19,1.5,5.41Z"/><path class="cls-1" d="M849.71,1243.34a722.26,722.26,0,0,0,121-43.71c3.27-1.52.42-6.36-2.84-4.85a713.93,713.93,0,0,1-119.66,43.15c-3.49.92-2,6.33,1.49,5.41Z"/><path class="cls-1" d="M872.36,1283.81c2.35,10.47,16.23,5.24,22.61,2.89q20.19-7.46,40-15.94a843.81,843.81,0,0,0,79.27-39c3.16-1.76.33-6.61-2.83-4.85q-32.85,18.34-67.21,33.74-17.28,7.72-34.89,14.63c-3.9,1.53-29.92,14.15-31.51,7.06-.8-3.53-6.21-2-5.42,1.49Z"/><path class="cls-1" d="M1082.16,1101.54l-88.92,139.55h4.85a15.76,15.76,0,0,1-2.47-13.94c1-3.49-4.44-5-5.41-1.5a21.13,21.13,0,0,0,3,18.28,2.85,2.85,0,0,0,4.85,0L1087,1104.38c2-3.06-2.91-5.88-4.85-2.84Z"/><path class="cls-1" d="M982.74,1133.64c31.62,39.95,64.34,80.73,108.91,106.9,2.68,1.57,5.89-2.29,3.41-4.41l-8.84-7.55c-2.73-2.33-6.72,1.62-4,4l8.84,7.55,3.4-4.41c-44.13-25.91-76.47-66.47-107.78-106-2.24-2.83-6.19,1.17-4,4Z"/><path class="cls-1" d="M1137.2,1099.63c-.44-1.79.36-3,2.38-3.64l-3.46-2c3.56,10.35,4.17,21.13,4.29,32,.12,11.49,0,23-.12,34.48q-.52,34.76-2.65,69.46h5.62a34.4,34.4,0,0,0-5.17-17.64c-1.89-3.07-6.75-.25-4.85,2.84a28.44,28.44,0,0,1,4.4,14.8c.08,3.64,5.4,3.59,5.62,0q2.16-35.68,2.67-71.45c.16-11.42.24-22.86.07-34.29-.17-10.73-1-21.45-4.46-31.67a2.87,2.87,0,0,0-3.46-2,8.43,8.43,0,0,0-6.5,9.05c.31,3.58,5.93,3.61,5.62,0Z"/><path class="cls-1" d="M1110.79,1126.35a191.72,191.72,0,0,1,107.13-52.6c3.87-.54,9.56-1.27,10.09-6.19.4-3.73-3-7-6.64-5.77-3.4,1.18-1.94,6.6,1.49,5.42-4.9,1.69-10.7,1.7-15.79,2.67-5.37,1-10.71,2.3-16,3.79a198.09,198.09,0,0,0-84.28,48.71c-2.6,2.52,1.37,6.49,4,4Z"/><path class="cls-1" d="M623.68,1062v-1.73a2.81,2.81,0,1,0-5.61,0V1062a2.81,2.81,0,0,0,5.61,0Z"/><path class="cls-1" d="M623.24,1082.72v224.06c0,3.62,5.61,3.62,5.61,0V1082.72c0-3.61-5.61-3.62-5.61,0Z"/><path class="cls-1" d="M693.27,1311.31h586c3.61,0,3.62-5.61,0-5.61h-586c-3.62,0-3.62,5.61,0,5.61Z"/><path class="cls-1" d="M1290.7,1260.25V1058.59c0-3.61-5.61-3.62-5.61,0v201.66c0,3.61,5.61,3.62,5.61,0Z"/><path class="cls-1" d="M1291.34,1057.5H619.15c-3.61,0-3.62,5.62,0,5.62h672.19c3.62,0,3.62-5.62,0-5.62Z"/><path class="cls-1" d="M1288.58,1258.55a82.22,82.22,0,0,1-10.49,40.63c-1.77,3.16,3.08,6,4.85,2.83a88.29,88.29,0,0,0,11.26-43.46c0-3.62-5.63-3.62-5.62,0Z"/><path class="cls-1" d="M639.76,1308.6a420.45,420.45,0,0,1,67.33.64c3.59.33,3.57-5.29,0-5.61a420.45,420.45,0,0,0-67.33-.65c-3.58.26-3.61,5.87,0,5.62Z"/><path class="cls-1" d="M1047.84,1711l-3.7-3.18c-1.6-1.38-5.14-.66-4.79,2a536.6,536.6,0,0,1,4.54,65.21l5.24-1.41a14.3,14.3,0,0,1-3.07-9.09c0-3.62-5.6-3.62-5.62,0a19.08,19.08,0,0,0,3.84,11.92c1.55,2.1,5.25,1.6,5.23-1.42a536.61,536.61,0,0,0-4.55-65.21l-4.79,2,3.7,3.18c2.73,2.34,6.72-1.61,4-4Z"/><path class="cls-1" d="M1024.93,1724.4l45-35.49-4-4-5.7,6.55c-2.37,2.71,1.59,6.7,4,4l5.7-6.55a2.81,2.81,0,0,0-4-4l-45,35.49c-2.84,2.24,1.16,6.19,4,4Z"/><path class="cls-1" d="M1021.35,1792.8c-.48,4.57,3.73,7.62,8.06,6.93,6.07-1,12.08-7,17-10.43q19.17-13.33,38.13-27a2.81,2.81,0,0,0-2.83-4.85l-5.54,2.48c-3.29,1.47-.44,6.31,2.84,4.84l5.53-2.47-2.83-4.85q-13,9.39-26.17,18.63-6.37,4.49-12.77,8.92c-2.13,1.49-4.26,3-6.4,4.44-.44.31-9.74,6.63-9.41,3.36.37-3.59-5.24-3.57-5.61,0Z"/><path class="cls-1" d="M1094.52,1702.2l10.76-10.12c2.69-2.53-1.22-6.2-4-4a81.09,81.09,0,0,0-23.77,31.69c-4.9,11.69-8.15,26-4.77,38.53,3.3,12.23,14,19.18,26.37,19.32,13.63.17,27.77-7.85,38.42-15.73,4.72-3.48,8.93-8.59,7.87-14.82-.88-5.12-4.78-9.54-10.25-9.17-3.59.25-3.62,5.86,0,5.62,3.23-.22,5.07,3,4.83,6-.29,3.61-3.75,6.44-6.48,8.35a114,114,0,0,1-17.26,9.9c-12.09,5.6-30.1,7.19-36.73-7.25-5.22-11.35-1.81-26.06,2.54-37.14a76.4,76.4,0,0,1,23.2-31.35l-4-4-10.77,10.13c-2.63,2.48,1.34,6.45,4,4Z"/><path class="cls-1" d="M1139.73,1692.4h2.14a2.81,2.81,0,1,0,0-5.62h-2.14a2.81,2.81,0,1,0,0,5.62Z"/><path class="cls-1" d="M1147.37,1689.62l11-7.27c1.35-.9,2.07-3.22.57-4.41-7.28-5.82-16.57,3.67-21.7,8.55-7.31,7-13.29,15.83-15.06,25.91-3.18,18.25,7.6,35,26.38,37.27,39.35,4.79,71.26-44.36,45.9-76.75-12.75-16.28-37.65-19.13-53.2-5.18a2.84,2.84,0,0,0,.57,4.41,32.78,32.78,0,0,0,12.11,5c3.53.7,5-4.71,1.49-5.41a28.78,28.78,0,0,1-10.77-4.47l.57,4.41c11.37-10.2,29.59-9.61,40.88.44s14.67,27.23,9.63,41.36a48.06,48.06,0,0,1-32.63,29.64c-14.66,3.67-31.53-1.36-35.23-17.58-2-8.72.36-17.77,5.06-25.22a53.92,53.92,0,0,1,9.46-11c1.76-1.6,9.81-9.65,12.57-7.45l.56-4.41-11,7.27c-3,2-.19,6.85,2.84,4.85Z"/><path class="cls-1" d="M1207,1665.17c1.79-3.16,3.37,5.79,3.47,6.5.24,1.91.45,3.82.68,5.72l1.6,13.35,3.2,26.69,5.23-1.42c-8.9-19.16-19-42.51-6.44-62.47h-4.85q12.18,21.35,24.35,42.7c5.93,10.37,14.42,18.62,27,13,25.22-11.34,23.47-47.68,14.36-68.84-6.35-14.77-16.73-27.34-28.05-38.59a2.83,2.83,0,0,0-4,0l-5.37,6.45c-2.3,2.75,1.66,6.75,4,4l5.37-6.45h-4c21.17,21,41.43,51.92,29.15,82.86-2.67,6.73-7.67,13.13-14.58,15.85-8.24,3.25-13.81-2.12-17.78-8.84-8.78-14.82-17.09-29.95-25.62-44.92a2.84,2.84,0,0,0-4.85,0c-13.7,21.84-3.34,47.09,6.44,68.15,1.14,2.45,5.56,1.32,5.23-1.42q-2.68-22.41-5.36-44.8c-.52-4.33-.64-10.18-5-12.64a6.56,6.56,0,0,0-9.06,2.34c-1.78,3.15,3.07,6,4.85,2.84Z"/><path class="cls-1" d="M1005.68,1585.71v234.41c0,3.61,5.62,3.62,5.62,0V1585.71c0-3.61-5.62-3.62-5.62,0Z"/><path class="cls-1" d="M1075.71,1828.1h213.72c3.61,0,3.62-5.62,0-5.62H1075.71c-3.62,0-3.62,5.62,0,5.62Z"/><path class="cls-1" d="M1295.24,1604.67V1818.4c0,3.61,5.61,3.62,5.61,0V1604.67c0-3.61-5.61-3.62-5.61,0Z"/><path class="cls-1" d="M1103.28,1567.84h194.77c3.61,0,3.62-5.62,0-5.62H1103.28c-3.61,0-3.62,5.62,0,5.62Z"/><path class="cls-1" d="M1023.53,1568.32c7.24-2.19,15.45-1.22,22.93-1.2l22.63.07,46.24.13c3.61,0,3.62-5.61,0-5.62l-48.21-.13-23.62-.07c-7.12,0-14.56-.68-21.46,1.4-3.45,1-2,6.47,1.49,5.42Z"/><path class="cls-1" d="M1015.39,1826.61a550,550,0,0,1,75.5,2.05l-.75-5.52-4.64,1.64c-3.38,1.19-1.93,6.62,1.5,5.41l4.63-1.63a2.82,2.82,0,0,0-.74-5.52,550,550,0,0,0-75.5-2c-3.6.15-3.62,5.77,0,5.62Z"/><path class="cls-1" d="M885.79,2014.37c9.8,3.47,14.09,14,17,23.14,3.83,12,7.06,24.26,10.57,36.38q11,38.1,22,76.2l4.12-3.17a8.94,8.94,0,0,1-4.34-5.07c-1.22-3.37-6.65-1.91-5.41,1.5a15.18,15.18,0,0,0,6.92,8.42,2.84,2.84,0,0,0,4.13-3.17q-12.14-41.91-24.25-83.82c-3.53-12.22-6.32-25-11.3-36.75-3.62-8.5-9-15.89-18-19.07-3.42-1.21-4.88,4.21-1.5,5.41Z"/><path class="cls-1" d="M828.7,2040.28l108.19-31.87,53.61-15.79c4.47-1.32,9-2.59,13.41-3.95,2.16-.66,4.5-1.34,5.71-3.42,2.38-4.1-1.94-8-5.86-6.12-3.27,1.54-.42,6.38,2.84,4.85l.78-.37h-2.84c-2.76-1.22-7.76,1.3-10.74,2.18l-11.49,3.39-21.06,6.2-45,13.26-89,26.23c-3.46,1-2,6.44,1.49,5.41Z"/><path class="cls-1" d="M1029,1992.52a649.5,649.5,0,0,1,31.36,143.81,2.85,2.85,0,0,0,4.79,2,15.34,15.34,0,0,0,2.47-20.83c-2.16-2.84-7,0-4.85,2.84a9.89,9.89,0,0,1-1.59,14l4.79,2a655.08,655.08,0,0,0-31.56-145.3c-1.16-3.4-6.58-1.94-5.41,1.49Z"/><path class="cls-1" d="M1027.26,1990.89q44-9.73,87.06-22.91l-3.55-2.7-.36.19c-3.57.51-2.05,5.92,1.49,5.41a5.11,5.11,0,0,0,4.48-5.6,2.84,2.84,0,0,0-3.55-2.71q-43.07,13.15-87.07,22.9c-3.52.78-2,6.2,1.5,5.42Z"/><path class="cls-1" d="M1038,2076.93a722.26,722.26,0,0,0,121-43.71c3.27-1.52.42-6.37-2.84-4.85a713.9,713.9,0,0,1-119.66,43.14c-3.49.92-2,6.34,1.49,5.42Z"/><path class="cls-1" d="M1060.66,2117.4c2.35,10.47,16.23,5.24,22.61,2.88q20.19-7.46,40-15.94a843.73,843.73,0,0,0,79.27-39c3.16-1.76.33-6.62-2.83-4.85q-32.85,18.33-67.21,33.74-17.28,7.71-34.89,14.62c-3.9,1.54-29.92,14.15-31.51,7.06-.8-3.52-6.21-2-5.42,1.5Z"/><path class="cls-1" d="M1270.46,1935.13l-88.92,139.55h4.85a15.78,15.78,0,0,1-2.47-13.95c1-3.49-4.44-5-5.41-1.49a21.1,21.1,0,0,0,3,18.27,2.85,2.85,0,0,0,4.85,0L1275.31,1938c2-3.06-2.91-5.88-4.85-2.83Z"/><path class="cls-1" d="M1171,1967.23c31.62,40,64.34,80.73,108.91,106.89,2.68,1.57,5.89-2.29,3.41-4.41l-8.84-7.54c-2.73-2.34-6.72,1.62-4,4l8.84,7.54,3.4-4.41c-44.13-25.9-76.47-66.46-107.78-106-2.24-2.84-6.19,1.16-4,4Z"/><path class="cls-1" d="M1325.5,1933.22c-.44-1.79.36-3,2.38-3.64l-3.46-2c3.56,10.35,4.17,21.12,4.29,32,.12,11.49,0,23-.12,34.47q-.52,34.76-2.65,69.46h5.62a34.36,34.36,0,0,0-5.17-17.63c-1.89-3.08-6.75-.26-4.85,2.83a28.47,28.47,0,0,1,4.4,14.8c.08,3.64,5.4,3.59,5.62,0q2.16-35.69,2.67-71.44c.16-11.43.24-22.86.07-34.29-.17-10.73-1-21.46-4.46-31.68a2.87,2.87,0,0,0-3.46-2,8.44,8.44,0,0,0-6.5,9.06c.31,3.57,5.93,3.61,5.62,0Z"/><path class="cls-1" d="M1299.09,1959.93a191.57,191.57,0,0,1,107.13-52.59c3.87-.54,9.56-1.27,10.09-6.2.4-3.73-3-7-6.64-5.76-3.4,1.17-1.94,6.6,1.49,5.41-4.9,1.69-10.7,1.7-15.79,2.68-5.37,1-10.71,2.29-16,3.78a200.27,200.27,0,0,0-30.64,11.48,197.79,197.79,0,0,0-53.64,37.23c-2.6,2.52,1.37,6.49,4,4Z"/><path class="cls-1" d="M812,1895.62v-1.72a2.81,2.81,0,1,0-5.61,0v1.72a2.81,2.81,0,1,0,5.61,0Z"/><path class="cls-1" d="M811.54,1916.3v224.07c0,3.61,5.61,3.62,5.61,0V1916.3c0-3.61-5.61-3.62-5.61,0Z"/><path class="cls-1" d="M881.57,2144.9h586c3.61,0,3.62-5.62,0-5.62h-586c-3.62,0-3.62,5.62,0,5.62Z"/><path class="cls-1" d="M1479,2093.83V1892.17c0-3.61-5.61-3.62-5.61,0v201.66c0,3.62,5.61,3.62,5.61,0Z"/><path class="cls-1" d="M1479.64,1891.09H807.45c-3.61,0-3.62,5.62,0,5.62h672.19c3.62,0,3.62-5.62,0-5.62Z"/><path class="cls-1" d="M1476.88,2092.13a82.19,82.19,0,0,1-10.49,40.63c-1.77,3.16,3.08,6,4.84,2.84a88.23,88.23,0,0,0,11.27-43.47c0-3.61-5.63-3.62-5.62,0Z"/><path class="cls-1" d="M828.06,2142.18a420.45,420.45,0,0,1,67.33.65c3.59.32,3.57-5.3,0-5.62a420.45,420.45,0,0,0-67.33-.64c-3.58.25-3.61,5.87,0,5.61Z"/><path class="cls-1" d="M167.12,1586l3.75-2.28a2.84,2.84,0,0,0,0-4.85c-5.29-2.81-11.58-5.59-17.36-2.35a9.28,9.28,0,0,0-4.1,11.76c2.49,6.39,8.87,11,12.43,16.84,2.44,4,6.17,10,.28,13a8,8,0,0,1-11.51-6.39c-.46-3.53-6.08-3.58-5.61,0,.82,6.32,4.94,11.86,11.61,12.74,5.8.76,12.64-2.51,14.38-8.44,1.87-6.38-4.49-14.5-8.09-19.19-2.33-3-6.82-6.33-8.05-10-3.23-9.54,9.56-5,13.18-3.08v-4.85l-3.74,2.28c-3.09,1.87-.27,6.73,2.83,4.85Z"/><path class="cls-1" d="M186.39,1596.49l.32-2-5.52-.75q.69,12.9,1.18,25.81a2.81,2.81,0,0,0,5.62,0,34.37,34.37,0,0,0-.72-8.1c-.73-3.53-6.14-2-5.42,1.5a25.78,25.78,0,0,1,.52,6.6H188q-.5-12.91-1.18-25.81c-.16-3-5-4-5.52-.74l-.32,2c-.59,3.54,4.83,5.06,5.42,1.49Z"/><path class="cls-1" d="M174.59,1596.48c-2.19-3.78-6.29-4.81-10.13-2.91-2.4,1.2-1.36,5.56,1.42,5.24q13.65-1.57,27.18-3.91c3.56-.61,2.05-6-1.49-5.41q-12.8,2.21-25.69,3.7l1.41,5.23,2.45.89c1.81,3.13,6.67.31,4.85-2.83Z"/><path class="cls-1" d="M203.12,1597.83c-1.23-.22-2.57,10.47-2.87,12-.89,4.39-1.94,8.75-3.1,13.08l5.51.75a65.79,65.79,0,0,1,2.24-16.87c.78-2.84,4.32-17.49,9.69-13.24,1.52,1.21,2.18,5.29,2.62,7.16a43.54,43.54,0,0,1,1,8.43c.09,2.58,0,5.15-.16,7.72-.06,1,.06,6.52-.41,7l2.73-.72-.54-.22,2,3.45.13-.57-2,2,.57-.13c3.52-.79,2-6.21-1.49-5.42l-.58.13a2.79,2.79,0,0,0-2,2l-.13.58a2.91,2.91,0,0,0,2,3.45l.55.22a2.78,2.78,0,0,0,2.73-.72c2.22-2,1.71-6.44,1.93-9.2a75.09,75.09,0,0,0,0-13.66c-.6-5.55-2.2-15.91-8.27-18.32-6.89-2.74-10.8,5.32-12.88,10.29a70.43,70.43,0,0,0-5.36,26.77c0,3.16,4.69,3.82,5.51.74a212.51,212.51,0,0,0,4.64-21.58c.52-3.29,2.28-9.51-2.58-10.37-3.54-.63-5.06,4.78-1.5,5.41Z"/><path class="cls-1" d="M203.76,1608.47l-2.1-1.3-.67,5.13a42.32,42.32,0,0,1,16.49-2.18c3.61.22,3.59-5.39,0-5.62a46.38,46.38,0,0,0-18,2.39,2.84,2.84,0,0,0-.67,5.13l2.11,1.3c3.08,1.91,5.91-3,2.83-4.85Z"/><path class="cls-1" d="M243.42,1594l.26.15a2.86,2.86,0,0,0,3.84-1l.22-.33c.93-1.36.13-3-1-3.84-4.32-3.31-12.71,3.16-15.37,6.32a19,19,0,0,0-3.24,19.41c5.49,13.83,23.54,16.63,33.26,5.49,2.37-2.72-1.59-6.7-4-4-6.51,7.46-18.27,7.15-23.28-1.82a13.56,13.56,0,0,1-.28-12.88,15,15,0,0,1,5-5.44c.7-.47,4.56-2.64,5.05-2.26l-1-3.84-.22.33,3.84-1-.26-.15c-3.11-1.84-5.94,3-2.83,4.85Z"/><path class="cls-1" d="M266,1589c-1.78,11.68-3.15,22.81-1.38,34.6.46,3.09,5.87,2.4,5.51-.75l-.21-1.92c-.4-3.55-6-3.59-5.62,0l.22,1.92,5.51-.75c-1.61-10.71-.23-21,1.39-31.61.54-3.53-4.87-5.06-5.42-1.49Z"/><path class="cls-1" d="M281.91,1586.06a64.3,64.3,0,0,1-10.4,14.7c-2.68,2.9-6,6.32-5.58,10.61.33,3.59,3,5.63,5.9,7.26,2.47,1.38,5,2.62,7.43,4.06,1.53.91,6.34,5,8.1,4.52-3.49.92-2,6.34,1.5,5.42a5,5,0,0,0,3.36-6.85c-1.73-4.13-8-6.75-11.63-8.82-2.12-1.21-5.25-2.13-7-3.78-4-3.73.67-7.06,3.1-9.68a65.06,65.06,0,0,0,10.09-14.61c1.63-3.21-3.21-6.06-4.85-2.83Z"/><path class="cls-1" d="M299,1593.69a117.5,117.5,0,0,0-1.57,25.61c.17,3.59,5.71,3.63,5.61,0l-.05-2c-.1-3.61-5.72-3.62-5.62,0l.06,2h5.61a112,112,0,0,1,1.37-24.12c.6-3.53-4.81-5-5.41-1.49Z"/><path class="cls-1" d="M295.56,1597.45l-1.69-2.17-1.23,4.69q13.64-5.35,27.7-9.51c3.46-1,2-6.44-1.49-5.42q-14.07,4.17-27.71,9.52a2.86,2.86,0,0,0-1.24,4.69l1.69,2.17c2.21,2.85,6.16-1.15,4-4Z"/><path class="cls-1" d="M300.45,1601.79a7.08,7.08,0,0,0-2.25,4.81c-.22,1.85,2,3.14,3.56,2.7l14.88-4.11c3.48-1,2-6.38-1.49-5.41l-14.88,4.11,3.55,2.71.6-.84c2.64-2.48-1.34-6.45-4-4Z"/><path class="cls-1" d="M297.52,1623.81c1.78,3.84,6.25,4.15,10,4.26a42.25,42.25,0,0,0,16.44-3c3.33-1.29,1.89-6.72-1.49-5.41a39.09,39.09,0,0,1-10.14,2.6c-2,.21-8.84,1.12-10-1.3-1.52-3.28-6.36-.43-4.85,2.83Z"/><path class="cls-1" d="M327.71,1600.07l-1,20.85c-.16,3.61,5.46,3.6,5.62,0l.95-20.85c.17-3.61-5.45-3.6-5.61,0Z"/><path class="cls-1" d="M331.23,1596.23c-2.19-1.37,1.64-3.34,3.08-3.65a12,12,0,0,1,3.44,0,70.12,70.12,0,0,1,8.28,1.14c4.12.85,6,3,5.21,7.27a45.75,45.75,0,0,1-2,6.48c-3.33,9.34-12,22.64-23.85,17.37-3.27-1.46-6.13,3.38-2.83,4.85,8.47,3.76,17.88.86,24-5.92a41.72,41.72,0,0,0,7.54-13.25c1.64-4.31,3.65-9.32,2.89-14a9.22,9.22,0,0,0-6.41-7.48,46.23,46.23,0,0,0-15.89-2.16c-3.78.19-7.52,1.62-9,5.33a7,7,0,0,0,2.76,8.86c3.07,1.93,5.89-2.93,2.83-4.85Z"/></svg>