<svg id="Layer_1" data-name="Layer 1" xmlns="http://www.w3.org/2000/svg" viewBox="0 0 442.93 223.88"><defs><style>.cls-1{fill:#7f2629;}</style></defs><path class="cls-1" d="M163.1,150.64l-32.56,35.15-.36-.45q-1-1.2-1.89-2.43l-.25-.34,29.57-31.93Zm9.47,0L139,195.23l.31.3c.72.72,1.45,1.44,2.2,2.14l.4.38,35.69-47.41Zm-27.91,0-23.9,21,.21.36c.53.88,1.06,1.76,1.61,2.62l.32.5,27.85-24.51ZM194,224.38h4.11l15-73.74H209Zm-1.61-73.74-32.76,61.07.39.25c.86.53,1.73,1.06,2.61,1.58l.44.26,33.88-63.16Zm-79.09,0-1.92,1.27.14.37c.36,1,.73,1.94,1.12,2.9l.23.57,7.75-5.11Zm19.09,0-16.06,12.84.18.36c.46.92.94,1.84,1.42,2.75l.28.54,20.63-16.49Zm-10,0-8.94,6.54.16.37c.4.95.82,1.9,1.25,2.84l.26.56,14.08-10.31Zm185,0h-6.45l21.24,17,.29-.53c.48-.91,1-1.83,1.42-2.75l.18-.36-16.55-13.23Zm3.18,0,14.74,10.79.25-.55c.44-.94.86-1.89,1.27-2.84l.16-.37-9.61-7Zm-21.57,0,28.42,25,.32-.49q.82-1.29,1.62-2.61l.22-.36-24.48-21.54Zm37.47,0h-7.31l8.44,5.56.23-.56c.39-1,.76-1.93,1.13-2.9l.14-.37Zm-49.81,0,33,35.66.37-.45c.64-.8,1.27-1.61,1.89-2.42l.26-.34-30.05-32.45Zm-33.84,0,34.09,63.54.45-.26q1.31-.76,2.61-1.56l.4-.24-33-61.48Zm-16.44,0,11.34,73.74h4.07l-11.34-73.74Zm40.81,0h-5l36.06,47.89.4-.38c.75-.7,1.48-1.4,2.21-2.12l.31-.3-33.79-44.89ZM260.31,46.38l-3-2.18-7.21,9.93,3,2.18Zm11.08,37.06,11.67-3.79-1.14-3.52-11.68,3.79ZM235.86,34.65l-3.62-.77-2.56,12,3.62.77Zm12.84,4.58-3.38-1.5-5,11.21,3.39,1.51Zm18.54,34L277.87,67,276,63.83,265.39,70ZM261.05,64l9.12-8.21L267.7,53l-9.12,8.21ZM222.34,32.84h-3.7V45.12h3.7ZM175.59,70,165,63.83,163.11,67l10.63,6.14ZM211.3,45.89l-2.55-12-3.62.77,2.55,12ZM261,83.73l.12.33h3.92l-.22-.66a46.69,46.69,0,0,0-88.7,0l-.22.66h3.92l.12-.33a43,43,0,0,1,81.06,0Zm-90.28-3.81-11.67-3.79-1.15,3.52,11.67,3.79Zm29.92-31-5-11.21-3.38,1.5,5,11.22Zm-9.77,5.19-7.22-9.93-3,2.18,7.21,9.93Zm-8.48,7.12L173.29,53l-2.48,2.75L179.93,64Z"/><path class="cls-1" d="M131.71,75.27l7.44-13.34-4.82-2.69-1.59,2.84,2.4,1.34-2.94,5.27-4.43-2.47,3.37-6-2.43-1.36-3.37,6L121,62.44l2.9-5.19,2.3,1.28,1.57-2.82L123,53.08l-7.38,13.23,2.42,1.35,1.21-2.16,11.2,6.25-1.21,2.16Zm11.66-19.59,5.56-5.75-2-1.93-1.67,1.74-1.13-2.44,5.25-5.42,2.47,1-1.68,1.73,2,1.93,5.74-5.92-2-1.93-1.53,1.59L138.77,34l-5.23,5.4,2,1.93,1.75-1.8,5.6,12.66-1.51,1.56Zm-.48-11.09-3.12-6.76,6.88,2.88Zm27-11.35c3.14-1.92,5.27-4.74,3.17-8.16-3.65-6-11,1-13-2.37-.88-1.44.4-2.83,1.92-3.75a17.25,17.25,0,0,1,2.31-1.14l1.29,2.12,2.73-1.67-2.35-3.84a19.58,19.58,0,0,0-5.51,2.21c-3.09,1.89-5.1,4.85-3.08,8.14,3.52,5.77,10.76-1.31,12.95,2.27.94,1.54-.38,2.91-2,3.94a13.4,13.4,0,0,1-2.91,1.31l-1.25-2-2.68,1.63,2.39,3.92A26.61,26.61,0,0,0,169.84,33.24Zm16.54-8.57,8.5-2.73L194,19.3l-2.58.83L187.53,7.92l3.28-1,.86,2.67,3-1L193,3.26l-15.92,5.1,1.71,5.32,3-1L180.93,10l3.27-1,3.92,12.21-2.59.83Zm37.2-6.06,8.9.7.21-2.77-2.7-.21,1-12.78,3.43.27-.22,2.79,3.16.25.43-5.56L221.12,0l-.43,5.56,3.15.25.22-2.8,3.43.27-1,12.78-2.71-.21Zm20.58,2.67,14.47,4.87,1.76-5.24-3.09-1-.87,2.61-5.72-1.93,1.61-4.8,6.55,2.2.89-2.63-6.55-2.2L254.8,8.4l5.63,1.9-.84,2.48,3.06,1,1.72-5.12L250,3.86l-.88,2.63,2.34.79-4.09,12.16-2.34-.79Zm21.59,8.07,6.83,4.49,1.47-2.24-1.91-1.26,5.4-1.68.52,5.57-2-1.29-1.48,2.24,7,4.62,1.47-2.24-1.66-1.09-.95-8.71,7.75-2.3L290,26.57l1.51-2.29-6.75-4.44-1.48,2.24,1.92,1.26-4.95,1.55-.47-5.11,2,1.29,1.47-2.24-7-4.59-1.49,2.27,1.69,1.11.86,8.14L269,28.21l-1.71-1.13Zm21.28,15,5.25,6,2.09-1.82-1.58-1.83,2.52-.91,4.95,5.69L299,53.92l-1.58-1.83-2.1,1.83,5.41,6.22,2.09-1.83-1.44-1.66,7.64-15L304.09,36,302,37.8l1.64,1.89-13.09,4.5-1.42-1.64Zm11.09.48,7-2.53-3.46,6.61Zm9,27.82c1.64,3.29,4.27,5.66,7.86,3.88,6.27-3.12,0-11,3.5-12.76C320,63,321.21,64.43,322,66a17.68,17.68,0,0,1,.92,2.41l-2.21,1.1,1.42,2.86,4-2a19.81,19.81,0,0,0-1.72-5.69c-1.61-3.24-4.39-5.5-7.84-3.78-6.05,3,.37,10.84-3.39,12.71-1.62.8-2.87-.63-3.74-2.39a13.56,13.56,0,0,1-1.06-3l2.16-1.07-1.4-2.81-4.11,2A26.91,26.91,0,0,0,307.08,72.67Z"/><path class="cls-1" d="M21.44,105.6l-9,.12,0,3.55.05,3.56,1,0-.07-4.9,7.91-.11Zm7.28,4.84,1.13,0,0-1.12L29.74,102l0-1.76h1.05l.16,12.4-5.32.07v0l-1.13,0-1.85,0-.05-2.17h.05ZM.45,130l0-1.08L5,128.81h.08c0-2.93-.08-5.42-.11-7.73v-.65c-.06-4-.11-7.54-.18-12.08V108c0-.6,0-1.23,0-1.87v-.3h0c0-.36,0-.71,0-1.08l-2.49,0h0l-2.17,0h0l0-1.26c0-.65,0-1.23,0-1.83l0-2.13c11.43-.17,17.15-.25,28.58-.39l0,1.64c0,3,.06,5,.11,8.51h-.08l-3.84,0h-.24l-1.93,0,0-1.89v-.16l0-2.88-11.21.15,0,1.07h0c0,3.07.07,4.92.11,8.29l2.18,0h0l10.85-.15v1.08h0c0,1.43,0,2.45.06,4.14l-13,.18c0,1.19,0,2.19,0,3.12v.36c0,.44,0,.87,0,1.3,0,1.43,0,2.85.07,4.75l2.17,0h0l9.12-.12H23c0-2.07,0-3.1-.06-5.17l6.13-.08,0,1.08h0c0,2.28.05,3.95.07,5.91,0,1,0,2.1.05,3.39h-.08c-10.92.14-16.65.21-27.11.37l-1.55,0c0-.7,0-1.28,0-1.83v-.89l0-1.42Zm31,7-1.12,0c-11.49.15-17.24.22-28.74.39l-1.12,0,0-2.2H.52l28.74-.4h1.13l0-1.13-.07-5.5-.05-3.81H31.3ZM23,122.28H21.84v.09l-8.07.11.07,5.07-1.05,0-.08-5.66,0-1.62,11.89-.16,1.13,0,0-1.12,0-2.61,0-1.54h1.05l.1,7.39ZM3.66,108l-3.61.06,0-2.2H.09l3.54,0Zm37.44-2.69-3.54,0h-.08l0,2.2,3.61,0Zm27.53,31.23H67.51c-11.41.12-17.11.18-28.52.32H37.87l0-2.2h.08c11.4-.14,17.1-.2,28.51-.32h1.12v-1.13l-.05-5.4,0-4.3H68.5Zm-30.76-5.79c0-.72,0-1.45,0-2.41l4.66-.06,0-2.41c0-.87,0-1.72,0-2.53v-.08c-.07-5.82-.12-10.13-.2-16.41l0-1.61h0v-1.07l-2.81,0h-.1l-.94,0h-.82c0-2.08,0-3.13-.06-5.21,6.72-.09,10.08-.12,16.8-.2v1.07h0c0,1.44,0,2.45,0,4.15h0l-5.52.06v1.08h0c.09,7.48.14,12.09.22,18.84,0,.59,0,1.2,0,1.83s0,1.51,0,2.32v0l11.12-.12h.07c0-.36,0-.68,0-1,0-.46,0-.89,0-1.31v-.08c0-1,0-1.89,0-3.17l6.09-.06v1.07h0c0,1.12,0,2.09,0,3v.74l0,1v1.79c0,.25,0,.51,0,.78l0,1.35v1h-.07c-11.36.11-17.07.18-28.45.32h0C37.89,132.47,37.88,131.64,37.87,130.79ZM54.35,105.2l1.12,0v-1.12l0-2.61,0-1.54h1.06l.08,7.47-5.52.06.22,19.66-1,0v-.92L50,105.25ZM77.16,105l-3.54,0h-.07l0,2.19,3.61,0Zm9,10.85L86,104.88l4,0h.18c5.3,0,8.57,2,9.91,6a7.13,7.13,0,0,0-.82-1.06c-1.78-1.88-4.58-2.72-8.19-2.79l-4,0,.18,19.66H86.21Zm24.85,2c.08,11.5-7.23,18.43-19.56,18.53l-17.54.17,0-2.2h.06c6.57-.07,9.85-.1,16.42-.15.77,0,1.52,0,2.25-.1,6.26-.3,10.82-2.45,13.46-6.27,2.54-3.08,3.89-7.19,3.85-12.17a20.92,20.92,0,0,0-1.51-8A20,20,0,0,1,111,117.83Zm-37.35-14h0l2.18,0h0l2.48,0,.23,24.12h-.07l-4.59,0,0,5.22,16.42-.15c12.16-.11,18.14-6.75,18.43-16.45,0-.31,0-.63,0-.95v0c0-.33,0-.65,0-1,0-.11,0-.21,0-.31s0-.44,0-.66l0-.35c0-.2,0-.4-.07-.59s0-.24,0-.36l-.09-.57c0-.11,0-.23-.07-.34s-.07-.38-.11-.56,0-.22-.08-.33-.09-.37-.14-.55l-.09-.31c-.06-.18-.11-.37-.17-.55s-.07-.19-.1-.28-.13-.37-.21-.56a2.6,2.6,0,0,0-.1-.25c-.07-.19-.16-.38-.24-.56l-.1-.22c-.09-.19-.19-.38-.29-.57l-.1-.19c-.11-.2-.22-.39-.34-.58a.64.64,0,0,0-.08-.14c-.13-.21-.27-.42-.41-.62l-.05-.08c-3-4.22-8.19-6.71-15.73-6.64l-16.45.15,0,5.22Zm11.27-.11,5.17,0c3.84,0,6.67.94,8.62,2.76a8.45,8.45,0,0,1,.77.81v0a8.47,8.47,0,0,1,.65.89l0,0a9.61,9.61,0,0,1,.52,1l0,.09a10.38,10.38,0,0,1,.4,1l.06.15c.11.32.21.66.3,1l.06.22c.08.32.14.66.2,1a2.93,2.93,0,0,1,0,.29c0,.34.09.69.12,1,0,.11,0,.21,0,.32,0,.46,0,.94.06,1.42h0c0,.36,0,.7,0,1s0,.47,0,.7c-.49,6.45-4.13,10.33-11.66,10.39l-4.5,0h-.67c-.08-9.28-.12-14.11-.2-23h0Zm52.43,2.09v-1.34l-9,0,0,7.11h1.06l0-4.91,7.9,0ZM147.1,136H146c-11.5.06-17.25.09-28.74.17h-1.13l0-2.2h.07c11.49-.08,17.24-.11,28.74-.17H146v-1.13l0-3.21,0-6.11H147Zm-2.55-26.57h1.12v-1.13l0-9.08h1.07l.06,12.41-5.33,0v0h-3v-2.17h.06ZM115.92,100c0-.51,0-1,0-1.7,11.43-.08,17.15-.12,28.58-.17v1.06h0c0,.81,0,1.54,0,2.24v1.47c0,.42,0,.84,0,1.26,0,1.22,0,2.51,0,4.12h0l-3.9,0h-2.19v-1.84l0-3.09-11.21.06v1.07h0c0,2.38,0,4,0,6.24v.32c0,.52,0,1.08,0,1.68v0h2.19l10.84-.06v1.07h0V118l-13,.07c0,2.37,0,4,0,5.81,0,1.1,0,2.28,0,3.73l11.37-.07h0v-1.17c0-1,0-1.86,0-2.92h0v-1.06l6.14,0v1.07h0c0,2.45,0,4.2,0,6.35,0,.42,0,.86,0,1.32v1.65c-10.74,0-16.47.08-26.55.15h0l-2.19,0v-5.22l4.66,0c0-2.71,0-5,0-7.19,0-.45,0-.9,0-1.34,0-4.94-.06-9.21-.1-15.59l-4.66,0h0c0-.62,0-1.15,0-1.64v-.69C115.93,100.79,115.92,100.4,115.92,100Zm3.59,6.81-3.6,0,0-2.2H116l3.54,0Zm19.18,14.39h-1.12v.07l-8.06,0,0,5.09h-1.06l0-7.28,11.89-.07h1.13v-5.28h1.06l0,7.4Zm73.5-2.62h-5.36v7.62h1.08v-5.42h5.36a7.56,7.56,0,0,1,4.52,1.14l.18.16C217.71,119.05,214.28,118.58,212.19,118.58Zm-17.65-16.72v1.32h4.67v1.06h0c0,3.44,0,6.26,0,9v3.06c0,.37,0,.75,0,1.13,0,2.94,0,6,0,9.89h-4.66c0,2.09,0,3.13,0,5.22h1.69l16.26,0c8.17,0,12.72-3.35,13.14-8.52,0-.26,0-.52,0-.78h0c0-.27,0-.53,0-.79l0-.22c0-.19,0-.37-.07-.55s0-.16-.05-.24a4.87,4.87,0,0,0-.12-.52l-.06-.22c-.06-.17-.12-.35-.19-.52l-.06-.18-.27-.58-.05-.09a7.53,7.53,0,0,0-1.47-1.9h0a8.09,8.09,0,0,0-.77-.63h0a10.66,10.66,0,0,0-2.37-1.31h0a15,15,0,0,0-2-.65c4.19-1.28,6-3.75,6.44-6.53h0a8,8,0,0,0,.1-1.3c0-.27,0-.52,0-.78,0,0,0-.09,0-.14,0-.25-.06-.49-.1-.72l0-.12c-.05-.23-.1-.45-.17-.67v0c-.07-.23-.16-.45-.25-.67a1.17,1.17,0,0,1-.05-.11c-.09-.21-.2-.42-.31-.63l0-.06c-.12-.2-.24-.4-.38-.59l0,0c-.14-.19-.29-.38-.45-.56l-.06-.08c-.17-.18-.34-.36-.52-.53h0c-2.26-2.12-5.94-3.26-10.48-3.26l-17.25,0c0,1.09,0,1.89,0,2.71Zm17.25,1.24c2.48,0,4.39.66,5.45,1.92a3.36,3.36,0,0,1,.35.49l.06.09.11.23.08.17a1.8,1.8,0,0,0,.08.21c0,.12.08.25.11.38l0,.15.06.32s0,.1,0,.15a3.91,3.91,0,0,1,0,.49h0c0,.22,0,.43,0,.64,0,0,0,0,0,0a5.41,5.41,0,0,1-.12.58h0c-.61,2.26-3,3.5-6.66,3.5H205.7v-9.36Zm6.49,16.63.06.08c.06.09.12.18.17.27l.06.1a3.87,3.87,0,0,1,.25.55.36.36,0,0,1,0,.09c0,.07,0,.14.07.21l.06.25a1.42,1.42,0,0,1,0,.2c0,.1,0,.2.05.3a1,1,0,0,1,0,.17,4.07,4.07,0,0,1,0,.5h0c0,.22,0,.44,0,.64v0a5.59,5.59,0,0,1-.11.59c-.61,2.36-3,3.62-6.6,3.62h-6.65v-1.11c0-.27,0-.53,0-.79v-8h6.48c2.81,0,4.77.74,5.88,2h0ZM225.83,107a9.24,9.24,0,0,0-.45-2.91,8.79,8.79,0,0,1,1.53,5.09,8.42,8.42,0,0,1-3.37,6.94,11.2,11.2,0,0,0-2.07-1.3,6.65,6.65,0,0,0,2-1.8A8.43,8.43,0,0,0,225.83,107Zm-19,.83v-3.56h5c1.92,0,5.09.44,5.23,3.28l-.16-.13a7.1,7.1,0,0,0-4-1h-5v4.92h-1.08Zm21.1,17.58c0,6.53-5.35,10.43-14.3,10.44-7.18,0-10.77,0-18,0h-1.13v-2.19h.05c7.18,0,10.77,0,17.95,0,.8,0,1.58,0,2.33-.1,4.34-.2,7.5-1.44,9.24-3.57a9.08,9.08,0,0,0,2.74-6.76,9.59,9.59,0,0,0-.47-3A8.86,8.86,0,0,1,227.92,125.37Zm-29.84-18.88h-3.59V104.3h3.59Zm39-2.2H233.5v2.18h3.58Zm8.84,7.13v-7.11l9,0v2.18l-7.88,0v4.93Zm13,2.21H260l0,7.4h-5v.07h-8v5.09H245.9v-7.28l11.89,0h1.13v-5.29Zm5.55,9.6,0,12.64h-1.12c-11.5,0-17.25-.05-28.74-.06h-1.13v-2.19h.05c11.5,0,17.24,0,28.74.06h1.12V123.23Zm-2.4-14h1.13v-6l0-4.27h1.08l0,12.41H256v-2.18h0Zm-28.55-6.12V99h0V97.94c11.44,0,17.15,0,28.58.06v1.65c0,3,0,5,0,8.5H256c0-1.59,0-2.54,0-3.88h0V103.2l-11.21,0v1.06h0v.37c0,2.58,0,4.34,0,7v.89h1.6l11.43,0v1.06h0c0,1.44,0,2.46,0,4.16h0l-13,0v3.92c0,1.5,0,2.9,0,4.73v.88H247l9.16,0v-1.69c0-1.12,0-2,0-3.48l6.14,0v1.06h0c0,1.25,0,2.31,0,3.34v.33c0,.72,0,1.42,0,2.17,0,1,0,2.15,0,3.48-11.49,0-17.24,0-28.74-.05h0v-.79c0-1.6,0-2.63,0-4.43h4.65c0-9.64,0-14.47,0-24.11h-4.66ZM329,132.89V134h-1.12L312,133.9h0v2.19l18.15.12.05-7.47H329Zm15.08-23.54a11.47,11.47,0,0,0-.75-4.1,11.17,11.17,0,0,1,1.83,6.29,10.43,10.43,0,0,1-6.46,9.72l-1.11-2a8.78,8.78,0,0,0,3.53-2.6A10.33,10.33,0,0,0,344.07,109.35Zm-28.41-2.57-3.57,0v-2.18h0l3.54,0Zm14.24,16.77-4.41,0,0,3h-1.09l0-4.33v-.86l4.41,0,1.2,2.18Zm4-17.36a3.84,3.84,0,0,1,1.17,2.29l-.09-.11c-1-1-2.7-1.48-4.94-1.5l-4.45,0-.05,7.14h-1.09l0-4,0-5.38,4.45,0C331.22,104.7,332.89,105.21,333.92,106.19ZM347.5,130l-.06,6.34-10.53-.08-1.08-2.19h.66l8.75.07h1.12V133l0-2.61v-1.56h1.08Zm-9.84,3,7.59.06c0-1.23,0-2.11,0-3.05v-1.12c0-.33,0-.66,0-1l-3.11,0H341l-.93-1.67c-1.3-2.32-2.23-4-3.59-6.42l-.63-1.14a9.51,9.51,0,0,0,6.95-7.78h0a11.18,11.18,0,0,0,.12-1.42,11.49,11.49,0,0,0-.18-2v0a9.78,9.78,0,0,0-3.14-5.55h0c-2.24-2-5.7-3.37-10.7-3.41l-16.74-.11c0,1.43,0,2.38,0,3.5,0,.52,0,1.06,0,1.71h4.67c0,1.08,0,2.09,0,3.06,0,.5,0,1,0,1.5l0,4.81c0,4.6-.06,8.76-.1,14.75h0l-4.62,0c0,.49,0,.91,0,1.31,0,1.3,0,2.32,0,3.91h2.22l13.69.1c0-1.51,0-2.5,0-3.71,0-.46,0-.94,0-1.51l-2.43,0h-2.22c0-.89,0-1.64,0-2.34,0-1.35,0-2.52,0-4,0-.33,0-.68,0-1l6.19,0,.62,1.12.65,1.18.34.61,3.62,6.56.08.15,1.7,3.09Zm-8.75-17.83-5.58,0c0-1.53,0-2.82,0-4v-.17c0-1,0-2,0-3,0-.33,0-.68,0-1,0-.74,0-1.5,0-2.35v-1l5.58,0c3,0,4.83.87,5.95,2.1a5,5,0,0,1,1,1.75h0a6.11,6.11,0,0,1,.23,1,7,7,0,0,1,.08,1,6.14,6.14,0,0,1-.13,1.21h0C335.69,113.11,333.67,115.17,328.91,115.13Zm27.88-9.35v-.86l-3.54,0h0l0,2.18,3.57,0Zm14.68-6-.07,7.47-4.67,0-.19,19.68h-1.1l.11-10.94.1-10.92,3.54,0h1.13v-1.13l0-2.6V99.75Zm-1.39,29.32,1.1,0-.08,7.47L353,136.39l0-2.17h0l15.9.15H370v-1.13Zm-17.07,4V131.8c0-1,0-1.84,0-2.88h0v-1l4.66,0c.05-4.59.08-8.09.11-11.55V114c0-.37,0-.75,0-1.13,0-1.25,0-2.53,0-3.9v-.41c0-1.46,0-3,.05-4.74l-2.44,0h0l-2.23,0v-1c0-1.46,0-2.48,0-4.2l15.94.15c0,.38,0,.72,0,1h0c0,.86,0,1.57,0,2.37v.49c0,.4,0,.83,0,1.31h0l-4.64,0c0,2.43,0,4.54-.06,6.51l0,1.71v1.1c0,1,0,2.08,0,3.12s0,2.11,0,3.2,0,2,0,3.09l0,1.81c0,1.13,0,2.31,0,3.58l2.22,0h0l2.43,0v1h0v.67c0,.64,0,1.22,0,1.87,0,.49,0,1,0,1.63h0l-13.66-.13h-.13ZM402.59,120h-1.12l-11.89-.14,0,3.64-.05,3.64h1.11l.06-5.11,8,.1v-.06h1.12l3.88.05.09-7.41-1.1,0-.05,4.18ZM389.7,108.81l0-3.55,9,.1,0,1.34v.84l-7.85-.1-.05,4.94h-1.11ZM407,124.34h1.11L408,137h-1.13c-11.49-.14-17.24-.21-28.73-.33H377l0-2.18h0c11.49.12,17.24.19,28.73.33l1.13,0v-1.13l.07-5.19Zm-26.17-17-3.56,0,0-2.18h0l3.54,0Zm25,3,1.13,0v-1.13l.12-9.1h1.1l-.15,12.4-8.34-.1,0-2.17h0Zm-28.77,23h0l.05-5.22,4.66,0c.11-9.65.16-14.47.27-24.12l-4.67-.05.05-5.22L406,99.1c0,.76,0,1.45,0,2.09,0,2.54-.06,4.4-.09,7.19v.88h0l-5.13-.07h-.94v-1.11c0-1.31,0-2.26,0-3.82l-11.21-.13v1h0c0,3.07-.06,4.93-.1,8.31l13,.15,0,1.05h0c0,.61,0,1.15,0,1.69,0,.32,0,.65,0,1s0,.93,0,1.49h0l-13-.15,0,2.85V122c0,.36,0,.72,0,1.07v1.89c0,1,0,2,0,3.3h0l11.35.13c0-.85,0-1.53,0-2.17l0-1.94h0v-1l6.14.07,0,1.12v.71c0,1.68,0,3.05-.06,4.54v1c0,.92,0,1.91,0,3.06h0c-10.75-.14-16.47-.2-26.58-.31Zm40.36-.17h0a44.55,44.55,0,0,0,10,1.47c6.55.09,12.46-2,13.19-8.6h0s0,0,0-.08,0-.32,0-.49,0-.42,0-.63c0-.39,0-.77,0-1.13v-.08a9.47,9.47,0,0,0-.13-1,.77.77,0,0,0,0-.15c-.05-.28-.12-.56-.19-.83l-.06-.2a7.21,7.21,0,0,0-.25-.7c0-.09-.07-.17-.1-.25s-.19-.4-.29-.59-.1-.19-.16-.28a3.88,3.88,0,0,0-.3-.48l-.23-.33-.19-.23c-.14-.17-.28-.34-.43-.5l-.07-.07c-.2-.21-.4-.4-.62-.59h0c-3.66-3.21-9.7-3.9-13-5.87l-.32-.21-.18-.12-.31-.24-.12-.1-.31-.29,0,0a3.73,3.73,0,0,1-.93-1.65h0a3.64,3.64,0,0,1-.11-1c0-3.18,3.47-4.1,6.83-4a35.12,35.12,0,0,1,4.83.52c0,1.87,0,2.8-.07,4.66l1.49,0h.35l4.19.06c0-1,0-1.78,0-2.55,0-1,0-1.83,0-2.76v0c0-.93,0-1.92.05-3.12a37.06,37.06,0,0,0-11-2c-6.83-.1-13,2.6-13.11,9.86a11.34,11.34,0,0,0,.08,1.47c0,.11,0,.21,0,.31,0,.29.1.57.16.84l.06.25a8.88,8.88,0,0,0,.54,1.45l.1.19c.13.24.26.47.41.7l.1.15a7.67,7.67,0,0,0,.94,1.11.57.57,0,0,0,.11.11c.21.21.43.4.66.59l.07,0c4.35,3.44,11.77,3.69,14.25,6.84a1,1,0,0,1,.15.2c.07.1.13.2.19.3l.12.22c.06.12.11.25.16.38a.88.88,0,0,0,.05.15,4.54,4.54,0,0,1,.12.53s0,.09,0,.13a4.36,4.36,0,0,1,0,.63h0a3.71,3.71,0,0,1-.19,1.19h0c-.77,2.41-3.81,3.06-7,3a24,24,0,0,1-3.72-.35h0c-.89-.15-1.64-.33-2.21-.46h0l0-1.28c0-.77,0-1.42,0-2.21h0v-1l-5.91-.08,0,1.05h0c0,2.79-.05,4.5-.1,7.58h0C415.92,132.78,416.67,133,417.44,133.16ZM440,110.34l1.13,0,0-1.13v-.3l.11-7.16.34.12.76.27-.15,10.38-8.28-.12,0-2.17h0Zm-10.79-5.26a26.91,26.91,0,0,1,3.71.35v.36l0,1.68a24,24,0,0,0-2.6-.21c-2.19-.08-5.6.32-5.68,2.89a2.61,2.61,0,0,1-1.09-2.13,2.29,2.29,0,0,1,.41-1.31,8.26,8.26,0,0,1,4.57-1.63h.71Zm13.75,22c-.1,6.95-5.19,10.91-14,10.91h-.42A50.52,50.52,0,0,1,416,135.86l-.84-.23,0-1.89a49.87,49.87,0,0,0,12.26,2h.43c.68,0,1.33,0,2-.08,3.37-.1,6.95-.91,9.05-3.37a10.07,10.07,0,0,0,3-7.46,11.78,11.78,0,0,0-.59-4.08A10.6,10.6,0,0,1,442.93,127Zm-20.59-1v-1l1.11,0,0,2.79c-.41-.07-.78-.15-1.1-.22Zm5.18-3.55c-4.27-1.39-9.39-3-11-8,2.24,3.28,6.4,4.64,10,5.79,4.15,1.35,6.71,2.31,6.78,4.71C432.09,124,430.11,123.34,427.52,122.5ZM295.46,132.68c-1.47-2.64-2.55-4.59-3.65-6.58l-.05-.08c-.85-1.52-1.7-3.07-2.76-5l-.59-1.06-6.19,0c0,1.61,0,2.79,0,4v.31c0,.93,0,1.9,0,3.12h4.66v1.08c0,1.43,0,2.45,0,4.14h0l-13.69,0h-2.21c0-2.09,0-3.13,0-5.22l4.65,0v0c0-5.73,0-9.76.06-14.11v-.33c0-2.6,0-5.32,0-8.6,0-.35,0-.69,0-1.06H271v-.91c0-1.53,0-2.55,0-4.31l16.73.06c8.29,0,12.38,3.74,13.64,7.94v0c0,.15.09.3.13.46v0l.09.43s0,0,0,.07.05.27.07.41,0,.06,0,.09,0,.26,0,.39,0,.08,0,.12l0,.35a.76.76,0,0,0,0,.15v.5c0,.22,0,.43,0,.64l-.06.62h0a9.5,9.5,0,0,1-7,8l1.88,3.35.27.47c.2.36.4.72.61,1.08l.17.3.52.94.59,1,.93,1.66.21.37h4.26c0,.88,0,1.57,0,2.23,0,.91,0,1.78,0,3h0l-7.59,0Zm-.4-22.31h0c0-.2.06-.4.09-.61h0c0-.21,0-.42,0-.62s0-.36,0-.54l0-.24,0-.27-.06-.32c0-.06,0-.12,0-.18s-.07-.24-.1-.36a.5.5,0,0,1,0-.13l-.15-.37,0-.09c-.06-.13-.13-.26-.2-.39l0,0c-.08-.13-.16-.26-.25-.39l0,0a4.16,4.16,0,0,0-.32-.39c-1.12-1.24-3-2.07-6-2.09l-5.58,0-.05,11.57h0l5.57,0C292.56,114.91,294.58,112.86,295.06,110.37Zm-20.51-6H271v2.19h3.58Zm25.39,12.12A9,9,0,0,1,296.5,119l1.11,2a10.42,10.42,0,0,0,6.43-9.74,11.19,11.19,0,0,0-1.75-6.13,11.31,11.31,0,0,1,.67,3.95A10.38,10.38,0,0,1,299.94,116.5Zm-12,15v2.23h-1.12l-15.91-.06h0v2.18L289,136l0-7.47H288Zm17.4-3,0,4.17v1.12H304.2l-8.75-.05h-.79l1.21,2.18,10.53.06,0-7.47Zm-17.49-24.13-4.45,0,0,4.66,0,4.66h1.09l0-7.14,4.45,0c2.24,0,3.9.51,4.94,1.49a.94.94,0,0,1,.1.1,3.89,3.89,0,0,0-1.17-2.29C291.76,105,290.1,104.45,287.86,104.44ZM289,123.31l-1.22-2.19-4.41,0v5.18h1.09v-3l4.14,0Zm-118.7-19-4.46,0v.83l0,8.49h1.07l0-7.13,4.46,0h0A7.09,7.09,0,0,1,176.3,108l.12.12C176,105.66,173.93,104.36,170.27,104.36ZM157,106.6l-3.6,0v-2.19h.06l3.54,0Zm14.66,21.81,0,7.47-18.14.07v-2.19h0l15.9-.06h1.13v-5.28Zm13.77-19.54a11.42,11.42,0,0,0-.69-3.9,11.15,11.15,0,0,1,1.77,6.09,10.41,10.41,0,0,1-6.33,9.78l-1.13-2a8.85,8.85,0,0,0,3.58-2.71A10.33,10.33,0,0,0,185.4,108.87Zm-27.32-5.59c0,3.51,0,6.38,0,9.08v.44c0,4.54,0,8.65.06,14.6h-.06l-4.6,0,0,4.37v.85h1.22l14.62-.06h.06v-4.15h0v-1.07l-3.72,0h-.94c0-2.6,0-4.06,0-6.37h0v-1.06l6.2,0,3.94,7,.08.15,3.12,5.53h8.75v-.84c0-1.57,0-2.59,0-4.38h-4.26c-2.1-3.68-3.15-5.51-5.26-9.18a9.46,9.46,0,0,0,6.95-8.58c0-.23,0-.45,0-.68h0c0-.17,0-.33,0-.5v-.11l0-.38s0-.06,0-.08,0-.28-.05-.42a.13.13,0,0,1,0-.06c0-.15,0-.3-.08-.44h0c-.9-4.61-5-8.89-14-8.86l-16.74.06c0,2.09,0,3.13,0,5.22Zm18.52,2.4,0,0c.09.12.17.25.25.38a.21.21,0,0,0,0,.06l.19.37s0,.07,0,.11a3.65,3.65,0,0,1,.14.35.88.88,0,0,1,.05.15c0,.11.07.22.1.33a1.77,1.77,0,0,1,0,.2,1.59,1.59,0,0,1,.06.3,2.54,2.54,0,0,1,0,.29l0,.22c0,.18,0,.35,0,.53h0q0,.31,0,.63v0c0,.21-.05.41-.09.62-.48,2.47-2.48,4.51-7.2,4.52l-5.57,0h0c0-3.1,0-5.16,0-7.58V105.1c0-.58,0-1.19,0-1.84l5.58,0c3,0,4.91.82,6,2.06h0Zm-5.24,17.55-4.41,0v3h-1.07v-5.18l4.42,0,1.23,2.19h-.16ZM189,135.84l-10.53,0-1.24-2.19h.82l8.74,0H188v-5.28H189Z"/></svg>