<svg id="Layer_1" data-name="Layer 1"
  xmlns="http://www.w3.org/2000/svg" viewBox="0 0 60.21 62.31">
  <path class="cls-1" d="m55.38,18.08c-2.72-.49-7.37.25-8.96.94.79-1.12,4.69-2.86,8.07-3.2-9.32-21.1-39.45-21.09-48.77,0,3.38.34,7,1.79,8.1,3.2-1.59-.69-6.28-1.36-8.99-.94S0,20.92,0,24.01c0,7.03,1.88,12.46,5.57,16.23,9.34,10.54,24.53,22.07,24.53,22.07,0,0,14.52-10.87,24.73-22.27.04-.04.07-.08.1-.12.06-.07.12-.13.18-.2,0,0,0,0-.01,0,3.38-3.74,5.1-9,5.1-15.72,0-3.08-2.1-5.44-4.83-5.93ZM2.45,24.01c0-2.01,1.32-3.56,3.34-3.56,17.15,0,22.39,13.66,22.39,20.57,0,2.91-1.4,2.91-3.79,2.91-7.25,0-21.94-.88-21.94-19.92Zm31.17,29.35c-3.22,1.14-6.35.7-7.93-1.34-1.31-1.69-.58-2.74-.58-2.74,0,0,1.23,1.01,2.33,1.16,2.76.37,7.92.04,8.09,1.29.06.43-.78,1.23-1.91,1.63Zm2.21-9.43c-2.38,0-3.79,0-3.79-2.91,0-6.91,5.24-20.57,22.39-20.57,2.01,0,3.34,1.55,3.34,3.56,0,19.04-14.69,19.92-21.94,19.92Z"/>
</svg>