<svg xmlns="http://www.w3.org/2000/svg" viewBox="0 0 514.23 521.36">
  <g class="cls-1">
    <g id="Isolation_Mode" data-name="Isolation Mode">
      <g class="cls-5">
        <g>
          <g>
            <path class="cls-4" d="m91.8,250.89c-2.17,0-4.14.17-5.9.52-1.76.34-3.34.74-4.75,1.17l-.19-1.43c.59-.2,1.4-.45,2.43-.73,1.02-.28,2.26-.53,3.69-.75s3.03-.33,4.79-.33c1,0,2,.03,2.99.08.99.06,1.93.17,2.8.35.88.18,1.65.45,2.33.81.68.36,1.21.84,1.6,1.45.38.61.57,1.38.57,2.3,0,.84-.18,1.55-.54,2.12s-.86,1.03-1.51,1.38c-.65.35-1.41.62-2.29.81-.88.19-1.84.32-2.89.39s-2.14.11-3.28.11c-2.14,0-3.96-.17-5.46-.52-1.49-.34-2.71-.86-3.65-1.56-.94-.69-1.62-1.57-2.05-2.63s-.64-2.3-.64-3.74c0-1.3.21-2.41.63-3.33.42-.92,1.01-1.69,1.77-2.31.76-.62,1.64-1.11,2.65-1.47,1.01-.36,2.11-.61,3.31-.76s2.44-.22,3.74-.22c1.08,0,2.18.05,3.31.15s2.22.24,3.27.42c1.06.18,2.01.38,2.85.6l-.38,1.81c-.84-.2-1.75-.39-2.71-.57-.96-.18-1.97-.32-3.03-.43-1.06-.11-2.16-.16-3.32-.16-1.55,0-2.94.1-4.18.29-1.24.2-2.29.53-3.16,1-.87.47-1.54,1.11-2.01,1.94s-.7,1.86-.7,3.11c0,1.13.16,2.1.48,2.93.32.83.85,1.51,1.58,2.05.73.54,1.73.94,2.99,1.21,1.26.27,2.82.4,4.68.4,1.44,0,2.69-.04,3.74-.13,1.06-.09,1.93-.25,2.62-.48.69-.23,1.2-.56,1.52-.97.33-.41.49-.95.49-1.61s-.16-1.2-.47-1.62c-.31-.42-.81-.75-1.48-1-.67-.24-1.53-.41-2.56-.51-1.03-.09-2.28-.14-3.73-.14Z"/>
            <path class="cls-4" d="m130.23,250.87c0,1.49-.28,2.75-.83,3.8-.56,1.05-1.36,1.9-2.4,2.56-1.05.66-2.31,1.14-3.8,1.44s-3.17.46-5.04.46-3.54-.15-5.03-.46c-1.49-.3-2.76-.79-3.81-1.44-1.05-.66-1.85-1.51-2.39-2.56-.55-1.05-.82-2.31-.82-3.8s.27-2.75.82-3.8,1.35-1.9,2.39-2.56c1.05-.66,2.32-1.14,3.81-1.44,1.49-.3,3.17-.46,5.03-.46s3.56.15,5.04.46,2.75.79,3.8,1.44c1.05.66,1.85,1.51,2.4,2.56.56,1.05.83,2.31.83,3.8Zm-2.14,0c0-1.59-.39-2.86-1.17-3.79-.78-.93-1.91-1.6-3.39-2.02s-3.27-.62-5.38-.62-3.87.21-5.36.62c-1.49.41-2.63,1.09-3.41,2.02-.78.93-1.17,2.19-1.17,3.79s.39,2.86,1.17,3.79c.78.93,1.92,1.6,3.41,2.02,1.49.41,3.28.62,5.36.62s3.91-.21,5.38-.62c1.48-.41,2.61-1.09,3.39-2.02.78-.93,1.17-2.19,1.17-3.79Z"/>
          </g>
          <g>
            <path class="cls-4" d="m363.88,283.09c-2.17,0-4.14.17-5.9.52-1.76.34-3.34.74-4.75,1.17l-.19-1.43c.59-.2,1.4-.45,2.43-.73,1.02-.28,2.26-.53,3.69-.75s3.03-.33,4.79-.33c1,0,2,.03,2.99.08.99.06,1.93.17,2.8.35.88.18,1.65.45,2.33.81.68.36,1.21.84,1.6,1.45.38.61.57,1.38.57,2.3,0,.84-.18,1.55-.54,2.12s-.86,1.03-1.51,1.38c-.65.35-1.41.62-2.29.81-.88.19-1.84.32-2.89.39s-2.14.11-3.28.11c-2.14,0-3.96-.17-5.46-.52-1.49-.34-2.71-.86-3.65-1.56-.94-.69-1.62-1.57-2.05-2.63s-.64-2.3-.64-3.74c0-1.3.21-2.41.63-3.33.42-.92,1.01-1.69,1.77-2.31.76-.62,1.64-1.11,2.65-1.47,1.01-.36,2.11-.61,3.31-.76s2.44-.22,3.74-.22c1.08,0,2.18.05,3.31.15s2.22.24,3.27.42c1.06.18,2.01.38,2.85.6l-.38,1.81c-.84-.2-1.75-.39-2.71-.57-.96-.18-1.97-.32-3.03-.43-1.06-.11-2.16-.16-3.32-.16-1.55,0-2.94.1-4.18.29-1.24.2-2.29.53-3.16,1-.87.47-1.54,1.11-2.01,1.94s-.7,1.86-.7,3.11c0,1.13.16,2.1.48,2.93.32.83.85,1.51,1.58,2.05.73.54,1.73.94,2.99,1.21,1.26.27,2.82.4,4.68.4,1.44,0,2.69-.04,3.74-.13,1.06-.09,1.93-.25,2.62-.48.69-.23,1.2-.56,1.52-.97.33-.41.49-.95.49-1.61s-.16-1.2-.47-1.62c-.31-.42-.81-.75-1.48-1-.67-.24-1.53-.41-2.56-.51-1.03-.09-2.28-.14-3.73-.14Z"/>
            <path class="cls-4" d="m402.31,283.06c0,1.49-.28,2.75-.83,3.8-.56,1.05-1.36,1.9-2.4,2.56-1.05.66-2.31,1.14-3.8,1.44s-3.17.46-5.04.46-3.54-.15-5.03-.46c-1.49-.3-2.76-.79-3.81-1.44-1.05-.66-1.85-1.51-2.39-2.56-.55-1.05-.82-2.31-.82-3.8s.27-2.75.82-3.8c.55-1.05,1.35-1.9,2.39-2.56,1.05-.66,2.32-1.14,3.81-1.44,1.49-.3,3.17-.46,5.03-.46s3.56.15,5.04.46,2.75.79,3.8,1.44c1.05.66,1.85,1.51,2.4,2.56.56,1.05.83,2.31.83,3.8Zm-2.14,0c0-1.59-.39-2.86-1.17-3.79-.78-.93-1.91-1.6-3.39-2.02s-3.27-.62-5.38-.62-3.87.21-5.36.62c-1.49.41-2.63,1.09-3.41,2.02-.78.93-1.17,2.19-1.17,3.79s.39,2.86,1.17,3.79c.78.93,1.92,1.6,3.41,2.02,1.49.41,3.28.62,5.36.62s3.91-.21,5.38-.62c1.48-.41,2.61-1.09,3.39-2.02.78-.93,1.17-2.19,1.17-3.79Z"/>
          </g>
          <g>
            <path class="cls-4" d="m148.14,336.81l-6.75,2.45v-1.85l6.06-2.4.69,1.81Zm1.26,13.8h-2.06v-11.67c0-.3,0-.62.02-.94.01-.32.03-.61.05-.88.01-.27.05-.56.09-.88l-.05-1.24h1.94v15.6Z"/>
            <path class="cls-4" d="m173.03,339.83c0-.88-.31-1.57-.93-2.05-.62-.48-1.51-.81-2.69-.98-1.17-.17-2.6-.26-4.28-.26-1.24,0-2.44.05-3.6.14-1.17.09-2.28.21-3.34.36-1.06.15-2.05.3-2.98.47l-.25-1.76c.98-.2,2.04-.37,3.19-.52,1.15-.15,2.31-.26,3.47-.35,1.16-.09,2.24-.14,3.25-.14,2.24,0,4.12.15,5.64.46,1.52.31,2.66.8,3.43,1.5.77.69,1.16,1.66,1.16,2.89,0,.98-.24,1.78-.72,2.4-.48.63-1.17,1.16-2.06,1.6s-1.96.88-3.19,1.33l-11.69,4.6-.07-.37c.44-.05.96-.08,1.54-.11.59-.03,1.2-.07,1.85-.1.65-.04,1.29-.06,1.93-.08.64-.01,1.24-.02,1.78-.02h10.66v1.78h-20.27v-1.81l14.55-5.56c.84-.35,1.52-.68,2.06-.98.53-.3.93-.64,1.18-1.02.25-.37.38-.84.38-1.41Z"/>
            <path class="cls-4" d="m199.13,346.67c0,.75-.17,1.39-.5,1.92-.33.53-.9.97-1.68,1.3-.79.34-1.85.58-3.18.73s-2.99.23-4.98.23c-.67,0-1.43-.01-2.29-.05-.85-.03-1.73-.08-2.64-.15s-1.8-.16-2.66-.26c-.87-.11-1.67-.24-2.4-.39l.23-1.76c.84.12,1.79.25,2.85.38,1.06.13,2.18.24,3.36.32,1.18.08,2.39.13,3.63.13,2,0,3.59-.07,4.79-.22,1.2-.14,2.07-.41,2.61-.81s.81-.97.81-1.72-.19-1.37-.56-1.78c-.37-.41-.97-.7-1.78-.86s-1.9-.24-3.24-.24h-9.4v-1.46h9.29c1.34,0,2.42-.06,3.24-.19.82-.13,1.41-.37,1.78-.73.37-.36.56-.87.56-1.52,0-.81-.27-1.43-.8-1.86-.53-.43-1.39-.73-2.57-.89-1.18-.16-2.76-.24-4.72-.24-1.21,0-2.38.03-3.51.1-1.14.07-2.2.15-3.2.25-1,.1-1.9.21-2.71.33l-.23-1.74c.7-.12,1.48-.23,2.32-.32s1.71-.17,2.58-.24c.88-.07,1.7-.12,2.48-.15.78-.03,1.46-.05,2.04-.05,2.59,0,4.65.15,6.17.45s2.6.78,3.25,1.45c.65.67.97,1.56.97,2.65,0,.84-.19,1.51-.58,2.01-.39.5-.96.88-1.7,1.14s-1.66.46-2.75.59v-.5c.78.05,1.48.16,2.12.35s1.17.45,1.62.78c.45.33.8.74,1.04,1.24.24.5.37,1.09.37,1.77Z"/>
          </g>
          <g>
            <path class="cls-4" d="m242.88,394.31h-2.78l10.73-11.98c.46-.5.92-.96,1.37-1.39.45-.43.93-.83,1.44-1.2-.67.03-1.39.06-2.14.07-.76.02-1.51.02-2.24.02h-14.97v-1.87h21.8v1.7l-13.2,14.64Z"/>
            <path class="cls-4" d="m259.91,384.71l10.71.05c2.09.02,3.83.16,5.21.42,1.38.26,2.42.74,3.1,1.44.69.7,1.03,1.67,1.03,2.93,0,.83-.16,1.56-.47,2.2-.31.64-.86,1.17-1.64,1.58s-1.88.73-3.29.93-3.23.31-5.45.31c-.78,0-1.62-.02-2.5-.05-.89-.03-1.8-.08-2.73-.16s-1.84-.16-2.73-.26c-.89-.1-1.71-.23-2.48-.37l.29-1.75c1.34.22,2.91.42,4.72.59,1.8.17,3.7.25,5.68.25,1.74,0,3.17-.06,4.27-.19,1.11-.13,1.97-.33,2.59-.61.61-.28,1.04-.62,1.28-1.03s.36-.89.36-1.45c0-.83-.26-1.47-.77-1.93-.51-.45-1.31-.77-2.4-.96-1.09-.18-2.51-.28-4.29-.28l-10.97-.05-.24-.24,1.6-8.12h1.99l-1.56,8-1.32-1.27Zm18.88-4.96h-17.41v-1.77h17.41v1.77Z"/>
          </g>
          <g>
            <path class="cls-4" d="m242.88,94.07h-2.78l10.73-11.98c.46-.5.92-.96,1.37-1.39.45-.43.93-.83,1.44-1.2-.67.03-1.39.06-2.14.07-.76.02-1.51.02-2.24.02h-14.97v-1.87h21.8v1.7l-13.2,14.64Z"/>
            <path class="cls-4" d="m259.91,84.47l10.71.05c2.09.02,3.83.16,5.21.42,1.38.26,2.42.74,3.1,1.44.69.7,1.03,1.67,1.03,2.93,0,.83-.16,1.56-.47,2.2-.31.64-.86,1.17-1.64,1.58s-1.88.73-3.29.93-3.23.31-5.45.31c-.78,0-1.62-.02-2.5-.05-.89-.03-1.8-.08-2.73-.16s-1.84-.16-2.73-.26c-.89-.1-1.71-.23-2.48-.37l.29-1.75c1.34.22,2.91.42,4.72.59,1.8.17,3.7.25,5.68.25,1.74,0,3.17-.06,4.27-.19,1.11-.13,1.97-.33,2.59-.61.61-.28,1.04-.62,1.28-1.03s.36-.89.36-1.45c0-.83-.26-1.47-.77-1.93-.51-.45-1.31-.77-2.4-.96-1.09-.18-2.51-.28-4.29-.28l-10.97-.05-.24-.24,1.6-8.12h1.99l-1.56,8-1.32-1.27Zm18.88-4.96h-17.41v-1.77h17.41v1.77Z"/>
          </g>
        </g>
        <g>
          <line class="cls-2" x1="257.12" y1="273.08" x2="257.12" y2="360.63"/>
          <line class="cls-2" x1="257.12" x2="257.12" y2="62.91"/>
          <line class="cls-3" x1="257.12" y1="106.76" x2="257.12" y2="160.67"/>
          <line class="cls-2" x1="71.76" y1="251.37" y2="251.37"/>
          <line class="cls-2" x1="514.23" y1="283.31" x2="408.45" y2="283.31"/>
          <polyline class="cls-2" points="343.18 283.31 250.97 283.31 232.83 271.39 186 271.39 151.68 251.37 137.75 251.37"/>
          <polyline class="cls-2" points="187.83 324.47 206.57 305.73 206.57 253.99 217.3 243.27"/>
          <polyline class="cls-2" points="49.79 431.29 106.49 375.78 136.52 375.78 149.44 363.86"/>
          <line class="cls-2" x1="257.12" y1="409.49" x2="257.12" y2="521.36"/>
        </g>
      </g>
    </g>
  </g>
</svg>