<?xml version="1.0" encoding="UTF-8"?>
<svg id="Layer_1" data-name="Layer 1"
  xmlns="http://www.w3.org/2000/svg" viewBox="0 0 55.78 17.3">
  <path class="cls-1" d="M0,.26h5.02c.9,0,1.6.1,2.1.31s.83.46,1,.77c.17.31.26.65.26,1.01s-.11.72-.32,1.03c-.21.31-.56.53-1.04.65h0c.42.08.76.21,1.02.4.26.19.45.41.56.65.11.25.17.5.17.76,0,.47-.1.88-.31,1.21-.2.34-.57.6-1.1.8-.53.2-1.25.3-2.17.3H0V.26ZM5.83,3.36c.19-.06.33-.16.41-.28.08-.12.13-.27.13-.44,0-.16-.05-.3-.14-.42-.1-.12-.25-.21-.46-.28-.21-.07-.49-.1-.83-.1h-2.63v1.62h2.77c.31,0,.56-.03.76-.1ZM5.98,6.47c.22-.08.38-.18.47-.32.09-.14.14-.31.14-.51,0-.15-.05-.29-.14-.41-.1-.12-.25-.22-.47-.3-.22-.08-.5-.11-.83-.11h-2.83v1.78h2.78c.38,0,.67-.04.89-.11Z"/>
  <path class="cls-1" d="M8.98.26h4.97c.94,0,1.7.09,2.27.28.57.19.97.45,1.21.8.24.34.36.76.36,1.26,0,.44-.11.83-.33,1.16-.22.33-.59.57-1.1.73v.02c.39.09.69.23.89.43.2.2.33.43.4.68.06.25.1.55.1.88v1.66h-2.3v-1.66c0-.28-.04-.51-.12-.68s-.21-.3-.4-.38c-.19-.08-.45-.13-.77-.13h-2.86v2.84h-2.3V.26ZM14.95,3.84c.23-.08.39-.2.5-.35s.16-.34.16-.55c0-.2-.06-.37-.17-.52-.11-.14-.3-.26-.56-.34-.26-.08-.6-.12-1.03-.12h-2.57v2h2.77c.37,0,.67-.04.89-.13Z"/>
  <path class="cls-1" d="M20.16,8.15h-2.38L23.29,0l5.83,8.15h-2.68l-3.14-4.99-3.13,4.99ZM20.79,6.63l.68-1.34h3.78l.68,1.34h-5.15Z"/>
  <path class="cls-1" d="M9.96,17.15h-2.38l5.5-8.15,5.83,8.15h-2.68l-3.14-4.99-3.13,4.99ZM10.59,15.63l.68-1.34h3.78l.68,1.34h-5.15Z"/>
  <path class="cls-1" d="M29.14.26h4.02c1.19,0,2.15.17,2.89.5s1.26.8,1.58,1.39c.32.59.49,1.27.49,2.06,0,.86-.15,1.59-.46,2.17-.31.58-.8,1.03-1.48,1.33-.68.3-1.57.45-2.66.45h-4.37V.26ZM34.8,6.19c.35-.17.61-.42.77-.75.16-.33.24-.74.24-1.24,0-.44-.08-.83-.25-1.16-.17-.33-.44-.6-.82-.79-.38-.2-.87-.29-1.46-.29h-1.84v4.49h1.99c.56,0,1.02-.09,1.37-.26Z"/>
  <path class="cls-1" d="M38.32.26h7.46v1.7h-5.16v1.55h3.96v1.34h-3.96v1.6h5.28v1.7h-7.58V.26Z"/>
  <path class="cls-1" d="M46.1.26h3.22l4.21,4.75h.01V.26h2.23v7.9h-2.28l-5.15-5.81h-.01v5.81h-2.23V.26Z"/>
  <path class="cls-1" d="M0,9.26h7.46v1.7H2.3v1.55h3.96v1.34h-3.96v1.6h5.28v1.7H0v-7.9Z"/>
  <path class="cls-1" d="M19.63,16.86c-.67-.29-1.11-.64-1.32-1.04-.21-.4-.32-.84-.32-1.3h0s2.06-.01,2.06-.01c0,.25.07.46.22.64s.4.32.76.42c.36.1.86.16,1.49.16.66,0,1.17-.04,1.53-.12s.6-.19.72-.33c.12-.14.19-.31.19-.51s-.07-.36-.2-.45c-.14-.09-.41-.16-.83-.21-.42-.05-1.14-.1-2.17-.16-.96-.05-1.72-.16-2.27-.32-.55-.17-.95-.4-1.18-.69-.24-.29-.35-.67-.35-1.15,0-.5.17-.96.5-1.36.33-.4.84-.72,1.52-.95.68-.24,1.52-.35,2.53-.35,1.18,0,2.1.12,2.75.37s1.09.56,1.31.95c.23.39.34.86.34,1.4h-2.06c0-.25-.08-.46-.25-.62-.16-.17-.42-.3-.77-.38s-.79-.13-1.33-.13-.95.04-1.28.11c-.33.07-.58.18-.73.31-.16.14-.23.3-.23.49s.06.34.17.43c.12.1.39.17.81.23.42.06,1.12.11,2.09.17.98.06,1.75.16,2.32.31.57.15.98.37,1.24.67.26.29.38.68.38,1.16s-.12.93-.37,1.33c-.25.4-.72.73-1.42,1-.7.26-1.68.4-2.95.4s-2.22-.15-2.89-.44Z"/>
  <path class="cls-1" d="M29.89,10.96h-3.11v-1.7h8.52v1.7h-3.11v6.19h-2.3v-6.19Z"/>
</svg>