<svg id="Layer_1" data-name="Layer 1" xmlns="http://www.w3.org/2000/svg" viewBox="0 0 1486.7 262.98"><defs><style>.cls-1{fill:#00083a;}.cls-2{fill:#5768ff;}</style></defs><path class="cls-1" d="M424.12,114.54c-4.7,5.17-14.65,4.56-17.72-2.72C399.21,98.06,393.15,87.91,381,82.56c-7.29-3.29-19.41-2.46-27.56-2.53v62.62H365.9q7.62,0,10.88-3t6.29-12.09c1.44-4.44,4.14-6.46,8.46-6.53q7,0,8.59,6.65l9.43,38.45c1.34,5.27,0,8.49-4.72,10.4-5,1.72-8.69-.06-12-4.36-4.24-5.74-7.29-9.64-13.66-11.48-5.3-1.69-19.59-.94-25.75-1.09v45.58a9.14,9.14,0,0,0,1.39,5.14,7.23,7.23,0,0,0,4.78,2.84l7.25,1.57a9.41,9.41,0,0,1,5.56,3c2.28,2.77,2.5,9.58-.85,12.09Q369,232,363.73,232h-73c-6.12.05-10.26-2.36-10.4-8.22-.09-12.93,17-6.86,17.05-18.62V89.58c0-4.29-2.2-6.41-6.16-8l-4.6-1.69q-6.29-2.43-6.29-9a7.55,7.55,0,0,1,2.54-6c1.7-1.45,4.31-2.17,7.86-2.17h87.53c6.43.1,11.11-1.33,16.51-2.84,4.77-1.47,11.9-1.37,15.05,1.93q2.9,2.85,4.84,9.61l10.63,36.76A6.38,6.38,0,0,1,424.12,114.54Zm69.69,103-2.66-1.21a4.8,4.8,0,0,1-2.54-2.84,22.48,22.48,0,0,1-.72-6.83V60.32a11,11,0,0,0-2.9-7.8c-6.87-6.3-16.81-1.69-25.63,1.51l-26.84,10.4c-4.85,2.08-7.32,3.08-7.5,8s3.38,6.1,7.5,7.25c3.59,1.26,4,3.48,4.11,7.74V206.61c-.22,4.77.18,7.76-3.27,9.67-2.16.95-5.61,2.35-6.65,4.23-1.88,2.7-1.57,7.49,1,9.55q2.18,1.94,7,1.94h55.13c3.23,0,5.56-.65,7-1.94C500.79,226.38,499.22,219.31,493.81,217.49Zm78.78,0-2.66-1.21a4.77,4.77,0,0,1-2.54-2.84,22.48,22.48,0,0,1-.72-6.83V122.7a10.89,10.89,0,0,0-2.91-7.79c-6.86-6.3-16.8-1.69-25.63,1.51l-26.84,10.39c-4.85,2.09-7.32,3.08-7.49,8s3.38,6.1,7.49,7.26c3.59,1.25,4,3.48,4.11,7.74v56.82a22.48,22.48,0,0,1-.72,6.83c-.68,2.38-3.23,3.15-5.2,4.05-3.43,1.49-5.16,3.7-5.2,7.25.13,5.33,3.61,7.27,9.19,7.26H568.6q4.83,0,7-1.94C579.57,226.39,578,219.31,572.59,217.49ZM517,94.9q7.85,6.28,21.39,6.28c15.92.11,29.2-7.27,29.26-23.45s-13.44-23.17-29.26-23.09c-15.81-.09-29.17,7-29.25,23.09Q509.12,88.61,517,94.9Zm215.7,122.59L730,216.28a4.8,4.8,0,0,1-2.54-2.84,22.48,22.48,0,0,1-.72-6.83v-56.1q0-17.28-9.92-28t-26.11-10.7c-16.42.45-30.43,9.53-44.73,22V122.7c0-6.53-4.24-11-11.13-10.88-6.46.14-10.37,2-17.41,4.6l-26.84,10.39q-4.35,1.69-5.92,3.39c-1.93,1.89-2.1,6.42-.42,8.58,1,1.73,4.29,2.65,6.34,3.27,3.59,1.25,4,3.49,4.12,7.74v56.82a22.41,22.41,0,0,1-.73,6.83c-.68,2.38-3.23,3.15-5.2,4.05-3.43,1.49-5.16,3.7-5.2,7.25.13,5.33,3.62,7.27,9.19,7.26h53.56q9.32,0,9.31-7.74a7.27,7.27,0,0,0-4-6.65l-2.42-1.33c-3.46-2.17-3-4.74-3.26-9.67V148.36c6.58-5.9,19.47-9.07,25.93-2.2q3.57,3.87,3.57,11.61v48.84c-.23,4.94.19,7.49-3.27,9.67l-2.42,1.33a7.27,7.27,0,0,0-4,6.65q0,7.74,9.31,7.74h53.56c3.23,0,5.56-.65,7-1.94C739.67,226.39,738.08,219.31,732.68,217.49Zm99.48-26.6c-4.35,0-5.84,4.21-7.8,7.56a18.87,18.87,0,0,1-4,5.26Q817.9,206,813.3,206c-9.41-.25-11.62-8.67-11.73-18V132.62H817q10.28,0,14.75-3.15c4.39-2.83,6.41-9.07,2.24-12.39a9.93,9.93,0,0,0-6-1.63H801.57V91q0-4.35-2-6.65c-6-5.83-14.3.34-19.52,5.56l-19.71,20c-6.48,6.65-7.87,5.5-16.08,5.56a9.55,9.55,0,0,0-6.1,1.87c-2.68,1.92-3.17,6.9-1,9.49,1.33,2.06,5.51,3.36,7.86,4.36,3.92,1.81,5.3,3.25,5.32,7.86v58.15q0,19.22,10.76,28.71c11.57,11.13,39,12.24,54.16,4.54a41.17,41.17,0,0,0,16.32-13.36,31.68,31.68,0,0,0,5.93-18.68C837.47,193.91,836.29,191.07,832.16,190.89ZM935.69,159.4q-11.73-6.22-34.21-10-7.62-1.32-11.12-3.14t-4.48-4.05c-1.77-4.09-1.22-9,2.48-12q3.45-3,10.58-3c14.72.41,26.28,8,35.66,21.76a19.58,19.58,0,0,0,5.93,5.86c3.49,2.22,10.08-.35,11.06-4.47.61-2.05.55-5.14-.18-9.25l-3.75-20.67c-.56-3.15-1.45-5.36-2.66-6.65-2.38-2.73-6.88-2.31-9.55-.43q-2.18,1.52-4.41,3c-3.48,2.32-8.41,1.71-12.33,0a55.36,55.36,0,0,0-24-4.54c-24.69-.55-51,13.42-50.66,40.14a43.22,43.22,0,0,0,4.47,20.13c8.4,14.93,23.89,19.83,42.68,23.52a94.64,94.64,0,0,1,15.17,3.68q5,1.89,6.65,4.18A10,10,0,0,1,910.61,217c-6,4.41-18.35,3.54-25.76.36a43.32,43.32,0,0,1-12.57-8A73.71,73.71,0,0,1,860.73,196a14.24,14.24,0,0,0-5.56-5.32c-3.76-1.86-10.63.51-11.36,5.26Q843,199.6,844.9,206l6.28,21.4a17.88,17.88,0,0,0,2.84,6.23c1.93,2.44,7.24,2.14,9.49.3,2.79-1.94,4.9-4.49,8.71-4.35a15.11,15.11,0,0,1,6,1.45,61.65,61.65,0,0,0,8.83,2.9c17.27,4,44.91-.07,55.25-9.73,14.23-10.52,17.5-34.38,9.43-50.11Q947.42,165.63,935.69,159.4Zm118.92,31.49c-4.35,0-5.84,4.21-7.8,7.56a18.87,18.87,0,0,1-4,5.26q-2.47,2.29-7.07,2.29c-9.41-.25-11.62-8.67-11.73-18V132.62h15.47q10.27,0,14.75-3.15c4.39-2.83,6.41-9.07,2.24-12.39a9.93,9.93,0,0,0-6-1.63H1024V91q0-4.35-2-6.65c-6-5.83-14.3.34-19.52,5.56l-19.71,20c-6.48,6.65-7.87,5.5-16.08,5.56a9.55,9.55,0,0,0-6.1,1.87c-2.68,1.92-3.17,6.9-1,9.49,1.33,2.06,5.51,3.36,7.86,4.36,3.91,1.81,5.3,3.25,5.32,7.86v58.15q0,19.22,10.76,28.71c11.57,11.13,39,12.24,54.16,4.54A41.17,41.17,0,0,0,1054,217.07a31.68,31.68,0,0,0,5.93-18.68C1059.92,193.91,1058.74,191.07,1054.61,190.89Zm138.1-49.45q8.52,14,8.52,32.65c.38,37.17-34.07,62.35-70.24,61.29-24.91.13-47.23-9.41-59.79-29.86-11.17-17.91-11.71-45.83.43-63.77,13.19-20.19,36.12-30.09,61.29-29.93C1157.81,111.73,1180.14,121,1192.71,141.44ZM1150.94,196c-.67-15.95-7.31-52.91-19.23-63.71-5.76-5.38-13.46-3.73-16.56,3.5-6.17,14.07,2.54,50.86,8.58,65.59,4,9,9,18.07,18,16.5C1150.07,215.47,1151,205.56,1150.94,196Zm204.24,21.52-2.66-1.21a4.8,4.8,0,0,1-2.54-2.84,22.48,22.48,0,0,1-.72-6.83v-56.1q0-17.28-9.91-28t-26.12-10.7c-16.42.45-30.43,9.53-44.73,22V122.7c0-6.53-4.24-11-11.13-10.88-6.46.14-10.37,2-17.4,4.6l-26.84,10.39c-2.91,1.13-4.88,2.26-5.93,3.39-1.93,1.89-2.1,6.42-.42,8.58,1,1.73,4.29,2.65,6.35,3.27,3.59,1.25,4,3.49,4.11,7.74v56.82a22.41,22.41,0,0,1-.73,6.83c-.68,2.38-3.23,3.15-5.2,4.05-3.43,1.49-5.16,3.7-5.2,7.25.13,5.33,3.62,7.27,9.19,7.26h53.56q9.32,0,9.31-7.74a7.27,7.27,0,0,0-4-6.65l-2.42-1.33c-3.46-2.17-3-4.74-3.26-9.67V148.36c6.58-5.9,19.47-9.07,25.93-2.2Q1298,150,1298,157.77v48.84c-.23,4.94.19,7.49-3.27,9.67l-2.41,1.33a7.27,7.27,0,0,0-4,6.65q0,7.74,9.3,7.74h53.56q4.85,0,7-1.94C1362.17,226.39,1360.58,219.31,1355.18,217.49Zm129.88-28.9c3.18,8.39-.43,18.69-6.16,26.06-11.64,14.48-30.64,20.83-50.6,20.73-34.17.7-65.88-22.59-65.16-58.39q0-19.71,7.85-34.34c11.82-21.6,33.65-30.9,59.25-30.83,30.68-.61,56.58,15,56.46,46.67,0,11.27-6.43,17.84-17.78,17.77h-58.38c5.64,22.17,28.82,28,49.32,22.61a32.73,32.73,0,0,0,12.81-7.37C1476.67,188,1481.88,183.07,1485.06,188.59Zm-76.71-30.34c0,1.88.06,3.69.17,5.44h21q6.65,0,6.65-6.29c-.11-13-1.53-27.61-12.82-28.29C1410.68,129.72,1408.35,146.66,1408.35,158.25Z"/><path class="cls-2" d="M102.32,153.63l47.12-15.72a34.85,34.85,0,0,1,44.09,22l7.8,23.39A48,48,0,0,1,171,244.05l-12.35,4.12a65.51,65.51,0,0,1-82.87-41.42A42,42,0,0,1,102.32,153.63Zm48.84-74.08-22-16.16A67.39,67.39,0,0,0,35,77.77h0a40.1,40.1,0,0,0-2.89,43c25.78-10.11,57-3.46,76.58,15.46l36.2-12.08a49.29,49.29,0,0,1,14.76-2.53A31.85,31.85,0,0,0,151.16,79.55ZM62,211.35A56.59,56.59,0,0,1,92.69,141.8a59.41,59.41,0,0,0-49.12-9.46c-6.66,1.38-18.32,7.37-24.68,10.08a32,32,0,0,0-16,42.38l11,24.51A67.62,67.62,0,0,0,87.35,248.1,80,80,0,0,1,62,211.35ZM240,107.24,224.26,79.29,208.5,107.24,180.55,123l27.95,15.75,15.76,27.95L240,138.74,268,123ZM204,65.37l27.95-15.75L204,33.87,188.21,5.92,172.46,33.87l-28,15.75,28,15.75,15.75,27.95Z"/></svg>