<svg xmlns="http://www.w3.org/2000/svg" xmlns:xlink="http://www.w3.org/1999/xlink" viewBox="0 0 432 432"><defs><clipPath id="a"><rect width="432" height="432" style="fill:none"/></clipPath></defs><title>fish-icons</title><rect x="-962.32" y="-135.48" width="2776.7" height="1737.39" style="fill:#fff"/><g style="clip-path:url(#a)"><path d="M607,452H0V401.46a35.73,35.73,0,0,0,50.54,0h0a35.73,35.73,0,0,0,50.54,0h0a35.73,35.73,0,0,0,50.54,0h0a35.73,35.73,0,0,0,50.54,0,35.73,35.73,0,0,0,50.54,0h0a35.73,35.73,0,0,0,50.54,0h0a35.73,35.73,0,0,0,50.54,0,35.74,35.74,0,0,0,50.55,0c.16.17.34.32.51.49v-.49a35.14,35.14,0,0,0,50,0h0l.25.24.26-.24h0a35.14,35.14,0,0,0,50,0h0V402l.51-.49h0a35.73,35.73,0,0,0,50.54,0h0a35.73,35.73,0,0,0,50.54,0Z" style="fill:#fc3"/></g><path d="M123.49,96a20,20,0,1,1-20-20A20,20,0,0,1,123.49,96Zm-20-24.62A24.62,24.62,0,1,0,128.13,96,24.62,24.62,0,0,0,103.52,71.39Zm6.88,24.47a6.55,6.55,0,1,1-6.55-6.54A6.55,6.55,0,0,1,110.4,95.86Zm-6.55-3.47a3.48,3.48,0,1,0,3.48,3.47A3.48,3.48,0,0,0,103.85,92.39Zm-6.24,8.09a7.84,7.84,0,0,1-.92-1.59.66.66,0,0,0-.93-.3l-8.69,5a.66.66,0,0,0-.27.87,17.93,17.93,0,0,0,1,1.76.68.68,0,0,0,.9.21l8.68-5A.66.66,0,0,0,97.61,100.48ZM101.87,78v9.57a.66.66,0,0,0,.76.66,8.25,8.25,0,0,1,1.22-.1,5.49,5.49,0,0,1,.58,0,.67.67,0,0,0,.73-.67V78a.67.67,0,0,0-.62-.67q-.51,0-1,0t-1,0A.68.68,0,0,0,101.87,78ZM96.61,93.05a7.88,7.88,0,0,1,.87-1.62.67.67,0,0,0-.23-.94l-8.53-4.92a.68.68,0,0,0-.9.2,19.18,19.18,0,0,0-1,1.76.68.68,0,0,0,.27.88l8.6,5A.65.65,0,0,0,96.61,93.05Zm30.66-8.86,4.46-2.58a.66.66,0,0,0,.24-.91L131,79a.67.67,0,0,0-.91-.24l-4.46,2.58a.66.66,0,0,0-.23.93c.34.53.65,1.08.95,1.64A.67.67,0,0,0,127.27,84.19Zm-22.11,29.86v-9.77a.67.67,0,0,0-.73-.67,5.49,5.49,0,0,1-.58,0,8.25,8.25,0,0,1-1.22-.1.66.66,0,0,0-.76.65v9.86a.67.67,0,0,0,.63.67q.5,0,1,0t1,0A.66.66,0,0,0,105.16,114.05Zm-25.4-6.22L75.3,110.4a.66.66,0,0,0-.24.91L76,113a.66.66,0,0,0,.91.24l4.47-2.57a.67.67,0,0,0,.22-.94c-.33-.53-.65-1.08-.95-1.63A.66.66,0,0,0,79.76,107.83Zm23.76,14-.94,0a.67.67,0,0,0-.71.67v5.14a.67.67,0,0,0,.67.67h1.95a.67.67,0,0,0,.67-.67V122.5a.66.66,0,0,0-.7-.67Zm22.11-11.18,4.46,2.57A.66.66,0,0,0,131,113l1-1.69a.66.66,0,0,0-.24-.91l-4.46-2.57a.66.66,0,0,0-.92.27c-.3.55-.61,1.1-.95,1.63A.67.67,0,0,0,125.63,110.67Zm-14.75-11.5a7.83,7.83,0,0,1-1,1.56.66.66,0,0,0,.2,1l8.2,4.74a.68.68,0,0,0,.9-.21,19,19,0,0,0,1-1.75.68.68,0,0,0-.27-.89l-8.15-4.7A.66.66,0,0,0,110.88,99.17Zm-.83-8a7.88,7.88,0,0,1,.93,1.59.66.66,0,0,0,.93.29l8-4.65a.67.67,0,0,0,.27-.88,19.18,19.18,0,0,0-1-1.76.68.68,0,0,0-.9-.2l-8,4.65A.65.65,0,0,0,110.05,91.18Zm-6.53-21,.94,0a.66.66,0,0,0,.7-.66V64.38a.67.67,0,0,0-.67-.67h-1.95a.67.67,0,0,0-.67.67v5.14a.67.67,0,0,0,.71.66ZM81.41,81.35l-4.47-2.58A.67.67,0,0,0,76,79l-1,1.69a.66.66,0,0,0,.24.91l4.46,2.58a.67.67,0,0,0,.92-.27c.3-.56.62-1.11.95-1.64A.66.66,0,0,0,81.41,81.35Z" style="fill:#071e1f"/><path d="M233,106.49l-2.82,8.36a1.52,1.52,0,0,0-.21,0,2.94,2.94,0,0,0-1.93.73l-5.48-2.79a1.66,1.66,0,0,0,0-.22,2.94,2.94,0,0,0-.51-1.66l5.07-10.2a3,3,0,0,0,2.13-1.37l3.18,0a3,3,0,0,0,1.51,1.66ZM212,74.17a.88.88,0,0,0-.47,1.09l.12.45a.8.8,0,0,0,.91.69l2.67-.79a.88.88,0,0,0,.47-1.09l-.12-.45a.79.79,0,0,0-.91-.68Zm2.57-4.1-2.72.59a.88.88,0,0,0-.54,1.06l.08.46c.09.49.48.83.86.74l2.72-.59a.88.88,0,0,0,.54-1.06l-.08-.45C215.3,70.32,214.92,70,214.53,70.07Zm4.93,21.43a3,3,0,0,1,.45,1.56v.08l4.8,2.39a3,3,0,0,1,1.77-.76l1.88-9.22a3.06,3.06,0,0,1-.74-.65l-3.41.6a3,3,0,0,1-2.82,2h-.09l0,.08Zm-5.92-10.75a3,3,0,0,1,2-.77,3.05,3.05,0,0,1,1.14.23l2.09-2.41a23.57,23.57,0,0,0-9.62.73Zm22.85,20.34-1.08,6.09-3,8.86a3,3,0,0,1,.55,1.34,23.52,23.52,0,0,0,6.43-16.18c0-.58,0-1.16-.07-1.73l-1.24,0A3,3,0,0,1,236.39,101.09Zm-29.25.49a2.22,2.22,0,0,1,1.34.15l6-7a2.9,2.9,0,0,1-.5-1.65,2.59,2.59,0,0,1,.09-.68l-2.89-2a2.92,2.92,0,0,1-1.78.6,3,3,0,0,1-2.4-1.22l-4.75,1a2.94,2.94,0,0,1-.59,1.2Zm9.43,11c0-.14,0-.27,0-.41l-7.67-5a3,3,0,0,1-1.48.41,2.94,2.94,0,0,1-2.06-.84l-4.87,1.52a3,3,0,0,1-.76,1.84l7.59,10.15a2.93,2.93,0,0,1,1.35-.33,3,3,0,0,1,1.47.4l6.69-6.44A3,3,0,0,1,216.57,112.54Zm7.16-14.77-4.89-2.43a2.94,2.94,0,0,1-1.91.71,2.58,2.58,0,0,1-.39,0l-6.3,7.43a3,3,0,0,1,.15,1.7l7.51,4.91a3,3,0,0,1,1.66-.5,2.71,2.71,0,0,1,.4,0l4.78-9.63A3,3,0,0,1,223.73,97.77Zm-24.1,8.14,4.86-1.51a2.94,2.94,0,0,1,.54-1.59l-5.58-9.76h-.15a3,3,0,0,1-2.39-1.2l-1.31.28a3,3,0,0,1-.51,1.28l2.35,11.66.12,0A3,3,0,0,1,199.63,105.91Zm12.72-18c0,.08,0,.15,0,.23l3.19,2.26a2.9,2.9,0,0,1,1.41-.37,2.31,2.31,0,0,1,.46,0l1.7-3.71a2.85,2.85,0,0,1-.58-1.12l-.85-.25a2.94,2.94,0,0,1-3.22.7l-2.14,1.68A3.17,3.17,0,0,1,212.35,88Zm-17.17,18.3L192.92,95a23.53,23.53,0,0,0,.2,13l1.5-.5A2.94,2.94,0,0,1,195.18,106.26Zm6.54-17.92,4.72-1c0-.09.06-.17.08-.25L200.72,83a23.21,23.21,0,0,0-2.12,2l.79,2.16A3,3,0,0,1,201.72,88.34Zm-4.59-.3-.35-1a24,24,0,0,0-1.71,2.66l1.3-.28A2.93,2.93,0,0,1,197.13,88Zm29.81,29.77v-.06l-5.59-2.84a2.93,2.93,0,0,1-1.79.61,3.11,3.11,0,0,1-.81-.12l-7.12,6.86a2.78,2.78,0,0,1,.06.58,3.06,3.06,0,0,1-.18,1l1.58.8a22.45,22.45,0,0,0,2.61.15,23.44,23.44,0,0,0,10.41-2.42l1.66-2.51A3,3,0,0,1,226.94,117.81Zm-21.14,4.37L197.46,111a3,3,0,0,1-2.22-1.11l-1.3.43a23.73,23.73,0,0,0,11.8,12.24C205.76,122.45,205.77,122.31,205.8,122.18ZM237.88,97h1a23.32,23.32,0,0,0-3.7-9.08l1.23,7.69A3,3,0,0,1,237.88,97Zm-8.32-.14,3.05,0A3,3,0,0,1,234,95.63l-1.73-10.76a2.94,2.94,0,0,1-1.46,1l-2,9.73A3,3,0,0,1,229.56,96.87ZM224,83.06l3-.53a3,3,0,0,1,.8-1.6,23.38,23.38,0,0,0-3-1.51l-1.3,3A3.35,3.35,0,0,1,224,83.06ZM206.52,62.77a5.94,5.94,0,1,1,5.94,5.94A5.94,5.94,0,0,1,206.52,62.77Zm3.25.66a2.69,2.69,0,1,0,2.69-2.69A2.68,2.68,0,0,0,209.77,63.43ZM209.36,85a2.93,2.93,0,0,1,1.55.45L212.72,84a3.13,3.13,0,0,1-.19-1L206,79.69a23.52,23.52,0,0,0-3.19,1.76l5.35,3.78A3.05,3.05,0,0,1,209.36,85Zm9.12-2.23.44.13a3,3,0,0,1,2.28-1.29l1.28-3-1-.26L218.34,82A3,3,0,0,1,218.48,82.74Z" style="fill:#071e1f"/><path d="M341.86,99.6l7.31.4a3.24,3.24,0,0,0,.44,0,23.65,23.65,0,0,1-3.15,8.51c-1.08-.77-2.22-1.47-3.28-2.11a24.07,24.07,0,0,1-4.31-3c-.3-.3-.57-.6-.82-.9a13.1,13.1,0,0,0,1.37-4A3.73,3.73,0,0,0,341.86,99.6Zm-3-17.24a20.29,20.29,0,0,1-3.44,4A13.43,13.43,0,0,1,339.24,93a3.75,3.75,0,0,1,3.06-1.35l7.27.4A23.68,23.68,0,0,0,342.52,79,8.09,8.09,0,0,0,338.86,82.36Zm-2.22,42.36c3.79-1.5,13.2-3,13.45-8.29.27-5.88-8.91-8.57-12.3-12-1.67-1.71-3.39-4.08-2.88-6.61.28-1.37,2.68-4.27,2.68-4.27a12,12,0,0,0-1.12-2.79c-2.14,2.41-4.5,5.39-4.12,8.82.36,3.25,2.79,6,5.19,8,2.19,1.85,12.38,6.28,9.38,10-1.84,2.31-6.69,3.13-9.3,4.07-2.34.85-5.19,1.68-6.89,3.62a5.9,5.9,0,0,0-1.1,4.1c.78-.09,1.55-.21,2.32-.35a3.54,3.54,0,0,1,.07-.91C332.53,126.16,334.94,125.39,336.64,124.72ZM343,112.88c-1.25-.9-1.71-1-3.66-2.35a61,61,0,0,1-4.89-3.82,13.31,13.31,0,0,1-6.18,2.68,4.14,4.14,0,0,1,1.81,3.16l.27,4.79a4,4,0,0,1-.52,2.23A23.62,23.62,0,0,0,343,112.88Zm-5.42-35.5c-2.8,2.76-3.82,6.68-7.78,8.26a21.1,21.1,0,0,1-6.76.85c-2.13-.11-3-.25-3-.25a14.39,14.39,0,0,0-2.34,2c8.29,1.8,15.11.53,19.86-6.75,1.62-2.5,3.49-4.25,6.58-4.5,3.33-.27,5.05,1,2.43,3.8.51.68,1,1.39,1.44,2.12C355.87,75,342.89,72.14,337.59,77.38ZM323.06,62.07c-3.84,2.52-10,4.53-13.92,5.37-7.22,1.54-7.35,9.56-3.55,13.74.5-.68,1-1.35,1.6-2a6.48,6.48,0,0,1-1.11-6.4c1.05-3.09,4.34-3.45,6.75-3.92A44.1,44.1,0,0,0,327.65,62c-.61,0-1.23-.06-1.85-.06C324.88,62,324,62,323.06,62.07Zm7,19.44a4,4,0,0,1-.54,1.65c.38.1.76.21,1.13.34a13.66,13.66,0,0,0,3.17-3.68,22.11,22.11,0,0,1,2.75-3.52,10,10,0,0,1,1.11-.92,23.41,23.41,0,0,0-7.4-2.58,4.3,4.3,0,0,1,.45,2.36Zm-7.73-7.23a4.13,4.13,0,0,1,.49-1.57,23.68,23.68,0,0,0-19.89,19.38,3.75,3.75,0,0,1,1.3-.24h6.15a4,4,0,0,1,2.86,1.22,13.41,13.41,0,0,1,9.09-9.73,4.22,4.22,0,0,1-.67-2.71Zm1.44,35A13.4,13.4,0,0,1,313.08,98.7a4,4,0,0,1-2.74,1.11h-6.15a3.89,3.89,0,0,1-1.41-.28,23.71,23.71,0,0,0,19.82,20,4.05,4.05,0,0,1-.52-1.76L321.8,113A4.16,4.16,0,0,1,323.73,109.31Z" style="fill:#071e1f"/><path d="M342.56,196.07l-12,.79a.73.73,0,0,1-.78-.73v-1.84a.73.73,0,0,1,.68-.73l11.86-.78a.73.73,0,0,1,.76.84,4.36,4.36,0,0,0,0,.51,3.73,3.73,0,0,0,.14,1A.72.72,0,0,1,342.56,196.07Zm-31.12.64a3,3,0,0,1,0,.52.73.73,0,0,0,.77.84l10.57-.7a.72.72,0,0,0,.68-.72V194.8a.72.72,0,0,0-.77-.72l-10.71.7a.72.72,0,0,0-.64.93A3.66,3.66,0,0,1,311.44,196.71Zm16.09-7.06h-1.84a.73.73,0,0,0-.72.73v36a.72.72,0,0,0,.72.72h1.84a.72.72,0,0,0,.73-.72v-36A.73.73,0,0,0,327.53,189.65Zm20.61,25.52c-2.81-4.22-5.6-5.43-5.6-5.43l.13,5.71s-.19,4.7-1.92,7.39c-1.16,1.79-4.74,3.74-7,4.83a15.69,15.69,0,0,1-3.66,1.26h0a16.42,16.42,0,0,1-6.91,0h0a15.69,15.69,0,0,1-3.66-1.26c-2.26-1.09-5.84-3-7-4.83-1.73-2.69-1.92-7.39-1.92-7.39l.13-5.71s-2.79,1.21-5.6,5.43a44.34,44.34,0,0,0-2.91,6.23l4.59-3a26.67,26.67,0,0,0,2.63,8.4c2.13,3.64,4.17,5.27,9.36,6.39s7.84,6.33,7.84,6.33,3.66-5.44,7.83-6.33,8-3.81,9.36-6.39a31.86,31.86,0,0,0,2.63-8.4l4.59,3A44.34,44.34,0,0,0,348.14,215.17Zm-21.5-31.76a2.64,2.64,0,1,0-2.65-2.64A2.64,2.64,0,0,0,326.64,183.41Zm-5.83-2a5.83,5.83,0,1,1,5.83,5.83A5.83,5.83,0,0,1,320.81,181.42Zm-15.2,15.29a2.15,2.15,0,1,0,2.14-2.15A2.14,2.14,0,0,0,305.61,196.71Zm41.17-.41a2.17,2.17,0,1,1,2.17-2.17A2.17,2.17,0,0,1,346.78,196.3Z" style="fill:#071e1f"/><path d="M98.67,201.84a4.88,4.88,0,0,1-2.09-1.49L83.15,184.12l-1.65-2a.81.81,0,0,0-.59-.3l-.75-.05c-.52,0-3.22-.84-3.44-1.65s.66-2.3,2.78-3.28c2.67-1.24,3.5-2.1,4.76-.58s0,2.94-.1,3.47a4,4,0,0,1-.21.63l2.59,3.14,15.09,18.24a.6.6,0,0,1-.67.94Zm13.8,17.87a12.46,12.46,0,0,1-5.23-3.72l-2.84-3.42a.39.39,0,0,0-.69.32l.41,2.41a10.57,10.57,0,0,0,2.27,4.94l15,18.1a4.84,4.84,0,0,0,5.91,1.24l3.26-1.64a4.85,4.85,0,0,0,1.55-7.41l-4.22-5.1M73.63,194c-.21-.49.07-2.42-1.65-3.05s-2.13.47-3.83,2.88c-1.34,1.9-1.31,3.69-.76,4.23s3.34-.05,3.8-.29l.67-.34a.87.87,0,0,1,.67,0l2.42.9,26.85,10a2,2,0,0,0,1.48-.05l1.4-.64a.79.79,0,0,0-.05-1.46L77.58,196l-3.81-1.41A3,3,0,0,0,73.63,194Zm39.51,24,22,8.19a4.85,4.85,0,0,0,5.74-1.88l2-3a4.85,4.85,0,0,0-2.36-7.2l-19.95-7.42a10.49,10.49,0,0,0-5.41-.51l-6.8,1.14a4.39,4.39,0,0,0-1,.32l-2.45,1.12a.78.78,0,0,0-.28,1.2l4.11,4.95A10.5,10.5,0,0,0,113.14,217.92Zm2.12-7.48a.27.27,0,0,1,.09-.52c1.85,0,5.81.53,12.82,3.14,3.93,1.46,5.64,2.87,6.38,3.73a.33.33,0,0,1-.37.52Z" style="fill:#071e1f"/><path d="M218.48,201.72a6,6,0,0,0,1.07,1.79c1-1,1.84-1.79,2.59-2.54s1.38-1.4,2-2,1.11-1.19,1.63-1.77l.76-.86a9,9,0,0,1,.9-1,35,35,0,0,0,4.33-4.9,26,26,0,0,0,1.8-2.82,17.55,17.55,0,0,0,1.42-3.17,37.13,37.13,0,0,0-6.22,2.45,54.39,54.39,0,0,0-5.51,3.1,14.2,14.2,0,0,0-1.54,1.05,10.14,10.14,0,0,0-3.34,4.89,9.19,9.19,0,0,0-.35,3.86A8.51,8.51,0,0,0,218.48,201.72Zm13.91-16.15a1.18,1.18,0,1,1-1.16,1.2A1.18,1.18,0,0,1,232.39,185.57Zm-3,1.68a1.5,1.5,0,1,1,0,3,1.51,1.51,0,0,1-1.52-1.48A1.5,1.5,0,0,1,229.37,187.25Zm-3.84,2.34a2,2,0,1,1-2,2A2,2,0,0,1,225.53,189.59Zm-3.86,4.33a2.76,2.76,0,1,1-2.72,2.8A2.75,2.75,0,0,1,221.67,193.92Zm-10.5,14.74a8.77,8.77,0,0,0,1.63-3.24,31.69,31.69,0,0,1-6.14,1.18,19.1,19.1,0,0,1-2.61,0c-.41,0-.81-.07-1.21-.12l-1.32-.22a17.41,17.41,0,0,0-6.47.16,15,15,0,0,0-3.23,1.1,11.15,11.15,0,0,0-3.15,2.11,15.58,15.58,0,0,0,3.19,1.94,17.77,17.77,0,0,0,3.1,1.11,20,20,0,0,0,6.2.59c.45-.05,1.2-.05,1.84-.13a12.7,12.7,0,0,0,1.95-.39,12,12,0,0,0,3.5-1.61A11.65,11.65,0,0,0,211.17,208.66Zm-19.45,1.54a1.13,1.13,0,1,1-.15-1.58A1.12,1.12,0,0,1,191.72,210.2Zm4.07.4a1.42,1.42,0,1,1-.18-2A1.42,1.42,0,0,1,195.79,210.6Zm5.33.39a1.9,1.9,0,1,1-.25-2.67A1.9,1.9,0,0,1,201.12,211Zm6.9,0a2.62,2.62,0,1,1-.34-3.69A2.63,2.63,0,0,1,208,211Zm32.83,1.06a18.67,18.67,0,0,0-2.2-2.45,20.16,20.16,0,0,0-5.16-3.47c-.43-.17-1.09-.53-1.69-.76a11.6,11.6,0,0,0-1.9-.59,12.18,12.18,0,0,0-3.84-.25,11.72,11.72,0,0,0-3.59.92,8.65,8.65,0,0,0-3,2.07,32.64,32.64,0,0,1,5.82,1.82,2.74,2.74,0,0,1-.21-.42,2.62,2.62,0,1,1,3.4,1.47,2.42,2.42,0,0,1-.82.18l.08,0c.35.22.69.45,1,.68s.58.45,1.06.82a17.6,17.6,0,0,0,5.77,2.94,15.13,15.13,0,0,0,3.36.58,11.69,11.69,0,0,0,3.77-.36A14.77,14.77,0,0,0,240.85,212.09Zm-6.8-.62a1.9,1.9,0,1,1,1.07-2.47A1.9,1.9,0,0,1,234.05,211.47Zm3.65,2a1.42,1.42,0,1,1,.79-1.84A1.41,1.41,0,0,1,237.7,213.46Zm2.67,1.73a1.12,1.12,0,1,1,.63-1.45A1.11,1.11,0,0,1,240.37,215.19Zm-22.58-3.1a8.59,8.59,0,0,0-2.23-2.85A32.27,32.27,0,0,1,214,215.3a19.25,19.25,0,0,1-1.09,2.37c-.2.36-.41.71-.62,1s-.41.6-.76,1.1a17.47,17.47,0,0,0-2.61,5.93,15.51,15.51,0,0,0-.39,3.39,11.36,11.36,0,0,0,.57,3.74,15.24,15.24,0,0,0,3.11-2.05,17.74,17.74,0,0,0,2.33-2.34,19.79,19.79,0,0,0,3.17-5.35c.16-.43.48-1.11.67-1.73a11.72,11.72,0,0,0,.48-1.92,12.21,12.21,0,0,0,0-3.86A11.75,11.75,0,0,0,217.79,212.09Zm-7.1,19.52a1.12,1.12,0,1,1,.56-1.48A1.11,1.11,0,0,1,210.69,231.61Zm1.52-3.08a1.43,1.43,0,1,1,.71-1.88A1.42,1.42,0,0,1,212.21,228.53Zm2.46-4a1.9,1.9,0,1,1,1-2.52A1.91,1.91,0,0,1,214.67,224.55Zm2.7-5.23a2.62,2.62,0,1,1,1.31-3.47A2.62,2.62,0,0,1,217.37,219.32ZM203.49,194c.19.41.44,1.12.74,1.7a12.56,12.56,0,0,0,3.69,4.47,12.13,12.13,0,0,0,3.28,1.72,8.63,8.63,0,0,0,3.6.46,32.89,32.89,0,0,1-3.17-5.4,19.22,19.22,0,0,1-.89-2.45c-.11-.4-.21-.79-.29-1.18s-.13-.72-.24-1.31A17.25,17.25,0,0,0,207.9,186a15,15,0,0,0-2.1-2.68,11.66,11.66,0,0,0-3-2.27,14.84,14.84,0,0,0-.77,3.65,17.34,17.34,0,0,0,0,3.3A19.71,19.71,0,0,0,203.49,194Zm6.07.26a2.62,2.62,0,1,1-3.42,1.45A2.62,2.62,0,0,1,209.56,194.25ZM208.07,192a1.9,1.9,0,1,1-1-2.48A1.9,1.9,0,0,1,208.07,192Zm-1.83-4.34a1.42,1.42,0,1,1-.79-1.85A1.41,1.41,0,0,1,206.24,187.68Zm-3.48-4.37a1.12,1.12,0,1,1,2.08.84,1.13,1.13,0,0,1-1.46.62A1.11,1.11,0,0,1,202.76,183.31Z" style="fill:#071e1f"/><path d="M120.68,310.75c.34-2.66,1.5-6.06,1.21-8.71A73.74,73.74,0,0,1,111,303.57c-1.71.09-3.79.48-5.42-.19-.79-.33-1.81-2.14-1.07-3.12l0,0a.19.19,0,0,1,0-.07c-3.11.38-5.61.6-6.36.32,0,.65-.14,1.61.35,2.12.29.31.81.15,1.17.6a8.69,8.69,0,0,1,.37,2.75c-.37.63-.6.46-1.41.42.46,5.29,2.63,14.13-2.19,18.08A16.37,16.37,0,0,1,88,328.29c-1.39.12-7.62-.75-7,1.65.24.9,2.57,2,3.33,2.28a17.64,17.64,0,0,0,4.44,1.28,16.12,16.12,0,0,0,6.24-.34c1.46-.32,3.54-1.4,3.52.14,0,1.38-5.64,1.54-7.39,1.7-2.75.14-1.76,1.5-2.45,1.46-2.83-.18-7.57-1.19-9.45-3.37,2.7,3.14,10.09,4.78,9.43,6.25.69.74,9.85,2.69,15.42,2.06,2.91-.32,5.13-1.77,7.65-3.12s5.22-2.15,7.75-3.41c1.44-.72,1.18-1.21.89-2.74-.25-1.26-.48-2.53-.69-3.79a29.17,29.17,0,0,1-.18-8.29Q120.09,315.4,120.68,310.75Zm-12.21-2.16c-.08,1.3.18,1-1.08,1.15-.64.08-1.86,0-2-.79l2.5.33c0-.09.14-.93,0-1a5.48,5.48,0,0,1-2.4-.53c-.51-.55-.37-1.52-.42-2.24.64.07,2.56-.07,3,.4S108.5,308,108.47,308.59Zm3.89-11.18c.41,0,.94-.09.92-.71a.86.86,0,0,0-.91-.91c-1.07-.07-2.14-.19-3.2-.19a39.83,39.83,0,0,0-8.29.87,16.74,16.74,0,0,0-2.35.81.63.63,0,0,0-.32.49c0,.15.27.32.45.37a2.94,2.94,0,0,0,1,.17c1.91-.09,3.82-.2,5.72-.3C105.34,298,110,297.64,112.36,297.41ZM87.92,342.32c.21.19,7.67,3.83,13,3.81,7.31.16,10.77-3.72,12-4.46a1.29,1.29,0,0,1,1.72,0,1.09,1.09,0,0,0,.87.27c1.45-.48,2.9-1,4.31-1.57,1.07-.44,1.23-1,.85-2.1-.79.31-1.49.58-2.86,1.07-3,1.19-4.89,2.29-8,3.73-1.25.6-3.91,1.5-8.85,1.71A33.31,33.31,0,0,1,88,342.18Zm10.76-36.49.84.17-.1-1-.63-.09C98.75,305.2,98.72,305.48,98.68,305.83Zm6-5.67s0,0,0,.07,0-.06,0-.09h0c7.11-.86,17.5-2.55,17.58-.79a72.23,72.23,0,0,1-9.34,1.56C110.68,301.11,106.36,302.1,104.71,300.16Z" style="fill:#071e1f"/><path d="M304,305.53a42,42,0,0,0,6.6,1.86l.55.11a78,78,0,0,0,19.5,15.58c4.89,2.82,8.17,3.7,10.36,3.72l-.65,7.43a3.29,3.29,0,0,1-1.46,2.45,28.06,28.06,0,0,1-30.94,0,3.26,3.26,0,0,1-1.46-2.45l-2.5-28.7Zm38.66-.06c-2.67,1.46-6.75,2.35-12.16,2.85a105.22,105.22,0,0,1-14.15.24l-1-.15A79.35,79.35,0,0,0,331.86,321c4.52,2.6,7.59,3.43,9.36,3.4l.46-5.3h0v0c.05,0,2.27,1,2.21,2.66a2.76,2.76,0,0,1-.94,2,3.27,3.27,0,0,1-1.7.65h.05a4.35,4.35,0,0,0,3.83-1.63c1.38-2-.38-4.68-3.19-6.65l.92-10.67Zm14.37,34c.31,1.6-2.56,3.49-6.41,4.23-3.33.64-6.3.21-7.24-.95l-2.93,3.39-1.29-6.71,4,2.06c.44-1.42,3-2.93,6.37-3.57C353.35,337.17,356.72,337.87,357,339.46Zm-47.75-36.6a12.73,12.73,0,0,1,1.87-3.25,8.22,8.22,0,0,0-3.66-2.31,2.8,2.8,0,0,0-2.61.5c-1.4,1.21-1.08,3.64.7,6.14l.22.33,3.23-.66A6,6,0,0,1,309.28,302.86Zm18.38-2.42c1.12-1.24,2.46-2,3.77-1.67a2.45,2.45,0,0,1,.45.17,2.51,2.51,0,0,1,1.27,1.42,24.77,24.77,0,0,0-3,2c-.11.1-.3.27-.5.47A17.39,17.39,0,0,0,327.66,300.44Zm15.11,3.38-4,.6a10.78,10.78,0,0,1-1.33.51,36.53,36.53,0,0,1-8.9,1.35,10.73,10.73,0,0,1,2.45-2.82,12.19,12.19,0,0,1,1.49-1.08,7.8,7.8,0,0,1,3-1.15l.91-4.86Zm-23.2-1.74a11.5,11.5,0,0,1-1.62,2.8,11.9,11.9,0,0,1-1.23,1.36l-1.18-.06h-.09c-1.17-.07-2.26-.15-3.26-.25h-.06l-.8-.09-.34,0-.68-.09-.36,0c-.48-.06-.93-.13-1.34-.2h-.05l1.68-.39a7.59,7.59,0,0,1,.73-2.43,12.65,12.65,0,0,1,1.31-2.12c1.73-2.24,4.35-4.07,6.31-3.11a2.57,2.57,0,0,1,.41.26C320.13,298.53,320.29,300.18,319.57,302.08Zm9,1.79a9.21,9.21,0,0,0-1.71,2.44c-.68,0-.57,0-1.28.05h-.32l-2.25,0h0l-2.16,0h-.21l-2-.05h0c.15-.17.31-.33.46-.51a12.05,12.05,0,0,0,2.13-3.76,7.17,7.17,0,0,0,.22-.71,9.45,9.45,0,0,1,3.35-.85l.16,0C325.8,300.72,327.55,302.56,328.59,303.87Z" style="fill:#071e1f"/><path d="M217.74,285.23l-1.11-1.11-1.11,1.11h0a1.58,1.58,0,0,0-.46,1.11,1.6,1.6,0,0,0,.46,1.11l1.11,1.11,1.11-1.11h0a1.6,1.6,0,0,0,.46-1.11,1.58,1.58,0,0,0-.46-1.11,2.12,2.12,0,0,0-.24-.2A2.31,2.31,0,0,1,217.74,285.23Zm-1.11-.46Zm13.77,47.84,7.65,12.91a1,1,0,0,1-.63,1.43,76.39,76.39,0,0,1-41.59,0,1,1,0,0,1-.64-1.41l5.83-9.76,2.49,2.49.67.83,1.47-1.46,3.7,3.7,5.14-5.14,1.35,1.34,3.2-3.2,7.06,7.06,3.62-3.62-.32-4.15Zm2.7-23.51v4.84c0-1.71-7.37-3.1-16.47-3.1s-16.47,1.39-16.47,3.1V309.1c0-.87,1.92-1.65,5-2.22l.82-.14a71.11,71.11,0,0,1,10.64-.73C225.73,306,233.1,307.4,233.1,309.1Zm-23.75,30.18,5.14-5.14,1.35,1.34,3.2-3.2,7.06,7.07,2.52-2.52-1.88-24a49.66,49.66,0,0,0-20.22,0v.54l-1.85,23.15,1-1Zm-1.16-23.15c0-.14.18-.25.38-.26s.41.12.41.27l-.68,14.95c0,.14-.17.26-.38.26l-.55,0c-.23,0-.42-.11-.4-.27Zm9.33-17.08,8.31,1.94v4.23a76.29,76.29,0,0,0-8.35-.77h.05v-5.4ZM207.44,301l8.3-1.94v5.4s-6.28.54-8.31.77Zm8.3-3.77-8.3,2.2v-3.54l4.08-1.52,4.22-1.5Zm10.09,2.2-8.31-2.2v-4.36l4.23,1.51,4.08,1.51Zm-8.09-13.65Zm10.12,9.36L216.63,291l-11.23,4.18a13.45,13.45,0,0,1,1.18-2.05l10-3.74,10.05,3.74A13.45,13.45,0,0,1,227.86,295.13Z" style="fill:#071e1f"/></svg>