<svg id="Layer_1" data-name="Layer 1" xmlns="http://www.w3.org/2000/svg" viewBox="0 0 216 216"><defs><style>.cls-1{fill:#f4ae62;}.cls-2{fill:#a82f2c;}</style></defs><rect class="cls-1" width="216" height="216"/><path class="cls-2" d="M42,122.24h-.6v5.63h1.75a3.3,3.3,0,0,0,3.58-3.24h.23v3.45h-9.6v-.21h1.49V116.79H37.32v-.21h9.44v3.14h-.23a3.16,3.16,0,0,0-3.25-2.93H41.36V122H42a2.09,2.09,0,0,0,2-1.73h.24v3.76h-.24A2.17,2.17,0,0,0,42,122.24Zm9,5.84v-.21H52.5V116.79H51v-.21h5.54v.21H55.06v11.08h1.7c2.44,0,3.33-1.29,3.58-3.24h.23v3.45Zm13.5,0v-.21H66V116.79H64.51v-.21h5.3c3.94,0,6.3,2.33,6.3,5.75s-2.52,5.75-6.3,5.75Zm4-11.29v11.08h1.26c2.55,0,3.38-2.52,3.38-5.54s-1-5.54-3.38-5.54Zm16.12,5.45h-.6v5.63h1.76a3.29,3.29,0,0,0,3.57-3.24h.24v3.45H80v-.21h1.49V116.79H80v-.21h9.44v3.14h-.23A3.16,3.16,0,0,0,86,116.79H84.07V122h.6a2.09,2.09,0,0,0,2-1.73h.24v3.76h-.24A2.17,2.17,0,0,0,84.67,122.24Zm10.71,5.63V116.79H93.72v-.21h5.8c2.75,0,4.64.84,4.64,2.84,0,1.77-1.36,2.6-3.71,2.76,3.38,0,3.85,3.43,4.89,5.59a5.32,5.32,0,0,0,4.78,3h0V131h-2.78c-6.11,0-4.24-8.68-8.32-8.68H97.93v5.59h1.66v.21H93.72v-.21Zm2.55-11.08v5.28h1.16c1.59,0,2.42-.83,2.42-2.65s-.83-2.63-2.42-2.63Zm11.31,11.29v-.21h1.49V116.79h-1.49v-.21h5.63c2.75,0,4.47.84,4.47,2.84,0,1.59-1.07,2.48-3.11,2.74,2.09.18,3.61,1,3.61,2.85,0,2.23-1.72,3.07-4.64,3.07Zm4-11.29v5.28h1.26c1.18,0,2.15-.68,2.15-2.5s-1-2.78-2.15-2.78Zm0,5.49v5.59h1.43c1.34,0,2.32-1.19,2.32-3s-1-2.58-2.32-2.58Zm15.12,0h-.59v5.63h1.75a3.3,3.3,0,0,0,3.58-3.24h.23v3.45h-9.61v-.21h1.5V116.79h-1.5v-.21h9.45v3.14H133a3.14,3.14,0,0,0-3.24-2.93h-1.92V122h.59a2.1,2.1,0,0,0,2-1.73h.23v3.76h-.23A2.18,2.18,0,0,0,128.4,122.24Zm10.72,5.63V116.79h-1.66v-.21h5.8c2.75,0,4.64.84,4.64,2.84,0,1.77-1.36,2.6-3.71,2.76,5.46.06,2.17,5.69,4.27,5.69h.6v.21h-1.83c-4.35,0-.39-5.8-4.47-5.8h-1.09v5.59h1.65v.21h-5.86v-.21Zm2.55-11.08v5.28h1.16c1.59,0,2.42-.83,2.42-2.65s-.83-2.63-2.42-2.63Zm13,11.08V116.79H153v-.21h5.8c2.74,0,4.63.84,4.63,2.84,0,1.77-1.36,2.59-3.71,2.76,5.39,0,2.14,5.69,4.18,5.69a2.32,2.32,0,0,0,.86-.19l.06.22a5.41,5.41,0,0,1-2,.3c-4.52,0-.4-5.92-4.48-5.92h-1.15v5.59h1.65v.21H153v-.21Zm2.56-11.08v5.28h1.15c1.59,0,2.42-.83,2.42-2.65s-.83-2.63-2.42-2.63Zm14.44,11.08v-5.31L168,116.79h-1.16v-.21h5.8v.21H171l3.12,5.13,3-5.13H175.2v-.21h3.48v.21h-1.32l-3.15,5.42v5.66h1.66v.21h-5.73v-.21ZM97.63,104h-1.8v-.81h4.61V104h-1.8v4.33h-1Zm10-.81v5.14h-1v-2.2h-2.81v2.2h-1v-5.14h1v2.12h2.81v-2.12Zm7.09,4.34v.8H110.6v-5.14h4v.8h-3v1.34h2.62v.78h-2.62v1.42ZM55.05,137.37l-3,9.14H50.71l-2.44-7.3-2.44,7.3H44.46l-3-9.14h1.32l2.42,7.43,2.52-7.43H48.9l2.47,7.47,2.47-7.47Zm3.7,0H60v9.14H58.75Zm13.81,0v9.14h-1l-5.37-6.82v6.82H64.86v-9.14h1l5.37,6.82v-6.82Zm11.33,8v1.13h-6.5v-9.14h6.32v1.13h-5v2.81h4.49v1.11H78.67v3ZM93,141.94a4.58,4.58,0,0,1,4.75-4.68,4.38,4.38,0,0,1,3.4,1.43l-.83.82a3.29,3.29,0,0,0-2.52-1.08,3.51,3.51,0,1,0,0,7,3.3,3.3,0,0,0,2.52-1.09l.83.82a4.4,4.4,0,0,1-3.41,1.44A4.58,4.58,0,0,1,93,141.94Zm11.2,0a4.76,4.76,0,1,1,4.77,4.68A4.6,4.6,0,0,1,104.15,141.94Zm8.24,0a3.48,3.48,0,1,0-3.47,3.51A3.4,3.4,0,0,0,112.39,141.94Zm13.69,4.57,0-6.66-3.24,5.55h-.58L119,139.89v6.62h-1.23v-9.14h1l3.74,6.42,3.68-6.42h1.05v9.14Zm13.28-5.95c0,2-1.41,3.18-3.74,3.18h-2.21v2.77h-1.28v-9.14h3.49C138,137.37,139.36,138.57,139.36,140.56Zm-1.28,0c0-1.31-.86-2.06-2.5-2.06h-2.17v4.11h2.17C137.22,142.61,138.08,141.86,138.08,140.56Zm10.56,3.67h-4.76l-1,2.28h-1.32l4.06-9.14h1.27l4.07,9.14h-1.35Zm-.45-1-1.93-4.48-1.93,4.48Zm13.95-5.81v9.14h-1l-5.37-6.82v6.82h-1.28v-9.14h1.05l5.37,6.82v-6.82Zm8.26,6v3.16h-1.27v-3.19l-3.56-5.95h1.37l2.87,4.82,2.88-4.82H174Z"/><path class="cls-2" d="M89.15,157.28c11.42,4.53,20.61-3.38,32,4.35C110.67,158.86,97.32,166.09,89.15,157.28Z"/><path class="cls-2" d="M117,44.59a25.92,25.92,0,1,0,11.26,34.89A26,26,0,0,0,117,44.59Zm10.85,34.68A25.46,25.46,0,1,1,116.77,45,25.51,25.51,0,0,1,127.83,79.27ZM116.3,45.92a24.42,24.42,0,1,0-12.47,46.13H104a23.73,23.73,0,0,0,2.53,0h0a24.42,24.42,0,0,0,9.7-46.12ZM102.82,89.16,96.74,83.5l1.14,0,4.65,4.42v-.56a5.4,5.4,0,0,1,.34-1.83l.58-1.52.78.32-.57,1.49a4.74,4.74,0,0,0-.1,3s0,0,0,.07a4.75,4.75,0,0,0,1.07,1.81l.27.29.14-.36A6.42,6.42,0,0,1,107,88l5.87-4.79h1.32l-6.65,5.44a5.44,5.44,0,0,0-1.4,1.72l-.34.63,8.9-4a4.71,4.71,0,0,0,1.73-1.32l4.33-6.57.42.82-3.61,5.79,2.62.51-.88.69-2.43-.49-.09.1A5.51,5.51,0,0,1,115,87.78l-8.5,3.78H104L95.5,87.78a5.51,5.51,0,0,1-1.75-1.23l-.09-.1-2.43.49-.88-.69L93,85.74,89.39,80l.39-.86,4.35,6.6A4.72,4.72,0,0,0,95.84,87l7.22,3.21Zm16-1.8a24,24,0,0,1-10.88,4.1l7.27-3.23A6,6,0,0,0,117,87Zm-27.26,0L93.49,87a6.09,6.09,0,0,0,1.81,1.24l7.27,3.25A23.73,23.73,0,0,1,94.25,89,22.5,22.5,0,0,1,91.56,87.38Zm34.93-8.8a23.78,23.78,0,0,1-5.74,7.29l-2.41-.48L121.71,80l-.93-1.84L116,85.41a4.39,4.39,0,0,1-1.54,1.16L107,89.9a4.9,4.9,0,0,1,.86-.9l7.72-6.32h-2.88l-6,4.91A7,7,0,0,0,104.77,90a4.1,4.1,0,0,1-.7-1.32l0-.09a4.24,4.24,0,0,1,.09-2.68l.74-1.93-1.69-.71-.76,2a5.57,5.57,0,0,0-.34,1.45l-4-3.81-2.52.11,6.76,6.29L96,86.57a4.32,4.32,0,0,1-1.52-1.14l-4.81-7.32L88.83,80l3.35,5.36-2.56.5a24,24,0,0,1-5.78-29.15c.15-.28.3-.56.46-.84l4.64,2.69.4-.34-4.8-2.77a25,25,0,0,1,2.1-3L92,57l.6-.14L87,52.09a24.65,24.65,0,0,1,2.6-2.61l3.88,4.63q.11-.24.24-.48l-3.75-4.46a23,23,0,0,1,3-2.11l2.73,4.73a3.71,3.71,0,0,1,.46-.19l-2.77-4.79a23.43,23.43,0,0,1,3.33-1.56L99,51.49a4.62,4.62,0,0,1,.6.19l-2.4-6.6a24.17,24.17,0,0,1,3.55-1l.93,5.27a4.7,4.7,0,0,1,.44-.34l-.88-5a24.77,24.77,0,0,1,3.66-.33V48l.5,0V43.7a24,24,0,0,1,21.12,34.88ZM114.4,51.64l-.27-.06,2.76-4.78.42.25-2.69,4.66Zm-3.33.31c-.09-.19-.19-.37-.29-.54l2.3-6.34.47.17-2.44,6.69Zm5.82,1.31,3.44-4.09.38.31-3.53,4.2C117.09,53.54,117,53.4,116.89,53.26ZM108.66,49l-.45-.29L109,44l.49.09Zm12.48,9.13,4.6-2.65.24.42-4.42,2.56Zm-3.22-1.53,5.39-4.53.32.38-5.32,4.47-.41-.08C117.91,56.78,117.91,56.7,117.92,56.62Zm8,5.57-.14-.25-.22.2a13.66,13.66,0,0,0-2.94,16.94l.13.23.21-.16.08-.06C127.81,75.32,129.11,67.77,125.91,62.19ZM123.14,78.4l1.94-11.78-.46-.08-1.93,11.72a13.21,13.21,0,0,1,3-15.58C128.47,67.88,127.35,74.74,123.14,78.4ZM84.9,62.14l-.22-.2-.14.25c-3.2,5.58-1.9,13.13,2.88,16.9l.08.06.21.16.13-.23A13.66,13.66,0,0,0,84.9,62.14Zm2.86,16.12L85.82,66.54l-.45.08L87.31,78.4C83.1,74.74,82,67.88,84.8,62.68A13.21,13.21,0,0,1,87.76,78.26ZM107.06,65a3.2,3.2,0,0,1,.69,4.47,3.27,3.27,0,0,1-1.12,1,3.19,3.19,0,0,1-4-4.73,3.11,3.11,0,0,1,1.12-1A3.21,3.21,0,0,1,107.06,65Zm-12.5,8.12a2.57,2.57,0,0,1-3.11-.42,2,2,0,0,1,.74-2.9l.24-.14a2.58,2.58,0,0,1,3.12.42,1.73,1.73,0,0,1,.24.38v0l2.56-.82.14.45-2.56.82,0,0A2.15,2.15,0,0,1,94.81,73,2,2,0,0,1,94.56,73.12ZM102.67,71a2.54,2.54,0,0,0-1.53-.46A4.9,4.9,0,0,0,99,71.1a9,9,0,0,0-3,2.67c-2,2.75-2.29,6-.62,7.21a2.51,2.51,0,0,0,1.53.47A4.78,4.78,0,0,0,99,80.87a8.92,8.92,0,0,0,3-2.67,8.51,8.51,0,0,0,1.7-4.23A3.23,3.23,0,0,0,102.67,71Zm.6,2.94a8,8,0,0,1-1.61,4,8.44,8.44,0,0,1-2.85,2.52,4.29,4.29,0,0,1-1.92.53,2.11,2.11,0,0,1-1.26-.38A2.86,2.86,0,0,1,94.76,78a8,8,0,0,1,1.6-4,8.48,8.48,0,0,1,2.86-2.53,4.29,4.29,0,0,1,1.9-.52,2.28,2.28,0,0,1,.8.13l.28.1L99.44,75l.37.28,2.77-3.78.18.24A3.26,3.26,0,0,1,103.27,73.93Zm11-.1c-1.44-2-3.46-3.28-5.15-3.28a2.71,2.71,0,0,0-1.22.28,1.75,1.75,0,0,0-.29.18,3.19,3.19,0,0,0-1.09,3,8.46,8.46,0,0,0,1.66,4.24c1.44,2,3.46,3.28,5.16,3.28h0a2.66,2.66,0,0,0,1.21-.27c.1,0,.2-.12.3-.18a3.25,3.25,0,0,0,1.09-3A8.55,8.55,0,0,0,114.29,73.83Zm.3,6.84-.23.14a2.09,2.09,0,0,1-1,.22c-1.56,0-3.44-1.21-4.79-3.08A8.11,8.11,0,0,1,107,74a3.37,3.37,0,0,1,.53-2.2l.19-.23,2.74,3.8.38-.27-2.74-3.81.29-.1a2.45,2.45,0,0,1,.74-.11c1.55,0,3.43,1.21,4.78,3.08a8,8,0,0,1,1.58,4A2.88,2.88,0,0,1,114.59,80.67ZM121,62.52c-.43-1.33-2-2.15-4.17-2.15a9.71,9.71,0,0,0-2.87.46,10.37,10.37,0,0,0-1.49.62c-2.43,1.24-3.77,3.24-3.25,4.85.42,1.32,2,2.15,4.16,2.15h0a9.68,9.68,0,0,0,2.87-.47,9.46,9.46,0,0,0,1.5-.62C120.14,66.12,121.48,64.13,121,62.52ZM117.49,67a9.38,9.38,0,0,1-1.42.58,8.8,8.8,0,0,1-2.72.45,6.5,6.5,0,0,1-1.57-.18,3.33,3.33,0,0,1-1.93-1.18l-.16-.25,4.48-1.44-.14-.44-4.49,1.44v-.31c0-1.3,1.19-2.77,3.1-3.75a9.87,9.87,0,0,1,1.42-.59,9.17,9.17,0,0,1,2.73-.45,6.14,6.14,0,0,1,1.57.19,2.84,2.84,0,0,1,2.15,1.64C121,64,119.68,65.83,117.49,67Zm-6.56-7.53a2.14,2.14,0,0,1-.33-2.33A2.91,2.91,0,0,1,112,55.55a2.09,2.09,0,0,1,1.5-.21,2,2,0,0,1,1.11,2.78,3,3,0,0,1-1.38,1.55,2.14,2.14,0,0,1-1.5.2,1.84,1.84,0,0,1-.41-.16L109.49,62l-.36-.29Zm-5.76,3.95h0a2.34,2.34,0,0,0,1.11-.28c1.58-.81,2.65-3.18,2.66-5.9a8.51,8.51,0,0,0-1.12-4.42A3.23,3.23,0,0,0,105.21,51a2.4,2.4,0,0,0-1.1.28c-1.59.81-2.66,3.18-2.67,5.9a8.51,8.51,0,0,0,1.12,4.42A3.21,3.21,0,0,0,105.17,63.37Zm-.85-11.68a1.93,1.93,0,0,1,.89-.23h0A2.89,2.89,0,0,1,107.43,53a8.06,8.06,0,0,1,1,4.17c0,2.51-1,4.77-2.41,5.49l-.36.14-.29.08V58.2H105l0,4.71-.29-.08a3.29,3.29,0,0,1-1.7-1.48,8,8,0,0,1-1-4.17C101.92,54.66,102.91,52.41,104.32,51.69ZM97,68.39h0a6,6,0,0,0,2.7-.57,2.75,2.75,0,0,0,1.43-1.55,3.21,3.21,0,0,0-.86-3,8.58,8.58,0,0,0-3.85-2.46,9.44,9.44,0,0,0-2.92-.48,5.87,5.87,0,0,0-2.69.57,2.72,2.72,0,0,0-1.44,1.54,3.23,3.23,0,0,0,.87,3.05A8.45,8.45,0,0,0,94.1,67.9,9.46,9.46,0,0,0,97,68.39Zm-6.4-3.24a2.89,2.89,0,0,1-.78-2.6A2.25,2.25,0,0,1,91,61.27a5.46,5.46,0,0,1,2.47-.52,8.88,8.88,0,0,1,2.79.47c2.61.86,4.55,2.74,4.49,4.37v.3l-4.45-1.47-.15.45,4.46,1.47-.17.24a2.51,2.51,0,0,1-1,.82,5.51,5.51,0,0,1-2.48.52,9.09,9.09,0,0,1-2.78-.46A8.05,8.05,0,0,1,90.62,65.15Zm16.32,14.16a2.69,2.69,0,0,1-1.1,3.06l-.16.07a2,2,0,0,1-2.56-1.56,2.7,2.7,0,0,1,1.11-3.06l.16-.07a1.46,1.46,0,0,1,.41-.11l.11-3,.47,0-.11,2.93A2.19,2.19,0,0,1,106.94,79.31Zm12.48-7.5a1.74,1.74,0,0,1-1,1.66,2.59,2.59,0,0,1-1.3.26,2.64,2.64,0,0,1-2.56-2.21,1.67,1.67,0,0,1,0-.5l-2.75-1,.16-.44,2.76,1a2,2,0,0,1,.78-.72,2.57,2.57,0,0,1,1.3-.25A2.63,2.63,0,0,1,119.42,71.81Zm-23.35-16a1.64,1.64,0,0,1,.64-.59,2.15,2.15,0,0,1,2.34.39,2.63,2.63,0,0,1,.78,3.29,2,2,0,0,1-.39.42l.07-.05,1.63,2.5-.39.25-1.63-2.49.06,0a2.18,2.18,0,0,1-2.34-.4A2.62,2.62,0,0,1,96.07,55.77Z"/></svg>