<svg id="Layer_1" data-name="Layer 1" xmlns="http://www.w3.org/2000/svg" viewBox="0 0 648 432"><rect width="648" height="432" fill="#fff"/><path d="M430.08,234.76h-7.31a2.19,2.19,0,0,1-2.18-2.19v-24.3H337.51v24.3a2.19,2.19,0,0,1-2.18,2.19H328a2.19,2.19,0,0,1-2.18-2.19V198.78a2.19,2.19,0,0,1,2.18-2.19H430.08a2.18,2.18,0,0,1,2.18,2.19v33.79A2.18,2.18,0,0,1,430.08,234.76Zm47.77,13.48v-7.31a2.19,2.19,0,0,0-2.18-2.18H217.4a2.19,2.19,0,0,0-2.19,2.18v7.31a2.19,2.19,0,0,0,2.19,2.19H475.67A2.19,2.19,0,0,0,477.85,248.24ZM215.21,198.78v33.79a2.19,2.19,0,0,0,2.19,2.19H319.47a2.19,2.19,0,0,0,2.18-2.19V198.78a2.19,2.19,0,0,0-2.18-2.19h-7.32a2.19,2.19,0,0,0-2.18,2.19v24.3H226.89v-24.3a2.19,2.19,0,0,0-2.18-2.19H217.4A2.19,2.19,0,0,0,215.21,198.78Zm-45.06-15v7.31a2.19,2.19,0,0,0,2.18,2.18H430.08a2.18,2.18,0,0,0,2.18-2.18v-7.31a2.18,2.18,0,0,0-2.18-2.19H172.33A2.19,2.19,0,0,0,170.15,183.76Z" fill="#0d141a"/></svg>