<svg id="svg" xmlns="http://www.w3.org/2000/svg" xmlns:xlink="http://www.w3.org/1999/xlink" width="400" height="581.0852713178294" viewBox="0, 0, 400,581.0852713178294"><g id="svgg"><path id="path0" d="M28.527 290.543 C 28.527 443.178,28.690 568.062,28.888 568.062 C 29.237 568.062,43.499 555.317,52.443 547.013 C 54.852 544.776,59.155 540.853,62.005 538.295 C 64.855 535.736,69.582 531.451,72.508 528.772 C 75.435 526.093,79.783 522.126,82.171 519.955 C 84.558 517.785,90.558 512.292,95.504 507.748 C 100.450 503.204,105.656 498.520,107.074 497.340 C 108.491 496.160,112.966 492.124,117.018 488.372 C 121.070 484.620,127.027 479.161,130.255 476.241 C 133.483 473.320,141.008 466.502,146.977 461.089 C 152.946 455.675,160.481 448.868,163.721 445.962 C 166.961 443.056,171.586 438.851,173.998 436.618 C 176.410 434.385,180.596 430.554,183.300 428.103 C 186.004 425.653,190.820 421.241,194.001 418.299 C 199.018 413.658,199.922 413.054,200.822 413.736 C 201.393 414.169,203.969 416.488,206.545 418.889 C 209.122 421.291,213.447 425.257,216.157 427.704 C 218.868 430.150,223.602 434.476,226.679 437.316 C 229.755 440.157,234.918 444.841,238.151 447.726 C 241.385 450.611,250.017 458.425,257.333 465.091 C 264.650 471.756,273.297 479.581,276.549 482.481 C 279.802 485.380,284.729 489.845,287.499 492.403 C 290.268 494.961,294.862 499.147,297.707 501.705 C 300.552 504.264,305.266 508.536,308.184 511.200 C 311.101 513.863,315.581 517.947,318.140 520.274 C 320.698 522.601,325.047 526.562,327.805 529.075 C 330.562 531.587,335.149 535.736,337.998 538.295 C 340.846 540.853,345.148 544.776,347.557 547.013 C 356.501 555.317,370.763 568.062,371.112 568.062 C 371.310 568.062,371.473 443.178,371.473 290.543 L 371.473 13.023 200.000 13.023 L 28.527 13.023 28.527 290.543 M365.891 287.193 L 365.891 555.782 362.016 552.475 C 359.884 550.657,354.490 545.815,350.030 541.716 C 345.570 537.617,336.367 529.240,329.578 523.101 C 314.927 509.850,302.259 498.361,283.743 481.529 C 276.251 474.719,267.181 466.507,263.588 463.281 C 259.994 460.054,253.398 454.054,248.930 449.947 C 244.461 445.841,235.410 437.597,228.817 431.628 C 222.223 425.659,213.598 417.845,209.650 414.264 C 205.702 410.682,201.872 407.244,201.140 406.624 C 199.820 405.506,199.742 405.557,192.448 412.205 C 188.400 415.896,179.400 424.078,172.448 430.388 C 165.496 436.698,155.990 445.349,151.323 449.612 C 139.198 460.690,119.123 478.919,70.128 523.344 C 63.504 529.350,54.435 537.617,49.973 541.716 C 45.511 545.815,40.116 550.657,37.984 552.475 L 34.109 555.782 34.109 287.193 L 34.109 18.605 200.000 18.605 L 365.891 18.605 365.891 287.193 M45.271 280.435 L 45.271 532.965 47.597 530.789 C 48.876 529.593,52.846 525.978,56.419 522.757 C 59.992 519.535,66.840 513.271,71.638 508.837 C 76.435 504.403,82.982 498.403,86.187 495.504 C 89.391 492.605,95.659 486.864,100.115 482.746 C 104.571 478.628,115.054 469.028,123.411 461.411 C 150.515 436.706,165.001 423.467,177.035 412.403 C 193.146 397.591,199.484 391.938,199.983 391.938 C 200.215 391.938,205.634 396.752,212.026 402.636 C 218.419 408.519,229.491 418.663,236.631 425.177 C 243.771 431.690,258.124 444.788,268.527 454.283 C 278.930 463.777,290.372 474.211,293.953 477.470 C 297.535 480.729,304.398 487.027,309.206 491.465 C 324.552 505.633,350.628 529.418,352.714 531.150 L 354.730 532.825 354.574 280.521 L 354.419 28.217 199.845 28.061 L 45.271 27.905 45.271 280.435 M325.306 167.652 C 316.404 179.322,289.194 198.897,266.357 210.060 C 261.328 212.518,255.028 216.327,249.612 220.186 C 205.774 251.418,166.104 273.707,141.069 281.171 C 139.917 281.515,139.672 280.941,138.121 274.261 C 128.998 234.975,109.082 198.391,88.527 183.162 C 84.014 179.818,84.996 179.622,91.318 182.605 C 156.201 213.213,196.915 221.848,240.720 214.293 C 252.399 212.278,251.289 212.819,261.430 204.208 C 285.345 183.902,299.044 175.393,320.169 167.722 C 327.276 165.141,327.221 165.141,325.306 167.652 " stroke="none" fill="#000000" fill-rule="evenodd"></path></g></svg>