<svg id="Layer_1" data-name="Layer 1" xmlns="http://www.w3.org/2000/svg" viewBox="0 0 1080 720"><defs><style>.cls-1{fill:#f4f3e9;}.cls-2{fill:#ff0;}</style></defs><rect class="cls-1" width="1080" height="720"/><path class="cls-2" d="M207.64,392.11l19-18a44.13,44.13,0,0,0,29.8,11.81c11.81,0,17.46-5.65,17.46-10.27,0-3.08-3.08-3.6-14.89-6.68-20-5.14-35.45-9.25-35.45-28.25,0-21.58,19-38,47.78-38,15.92,0,30.3,5.14,40.58,14.9l-17.47,19.52c-8.73-7.19-19-9.76-25.68-9.76-10.28,0-15.41,5.65-15.41,10.27,0,3.6,3.59,4.63,14.89,7.2,24.15,5.65,34.93,11.3,34.93,27.74,0,23.11-21.57,38-49.31,38C235.38,410.6,218.42,403.41,207.64,392.11Zm104.79-34.42c0-31.85,31.34-60.62,65.24-60.62,18,0,32.88,8.22,41.1,19l-24.15,17.46c-3.08-5.65-9.76-9.76-18.49-9.76-17.47,0-33.9,16.44-33.9,33.39,0,13.36,9.76,21.07,20,21.07,7.71,0,18-4.63,24.14-11.31l18.5,20.55C393.6,397.76,375.1,405,359.69,405,334,404.43,312.43,383.89,312.43,357.69ZM536.92,252.38,515.34,356.66H486.06l8.22-40.07h-38l-8.22,40.07H418.77l21.57-104.28h29.28l-7.7,38h38l7.71-38Zm-87.33,116.1h31.33v60.1l32.88-60.1h31.85l7.19,60.1,25.69-60.1h32.36L560.55,472.76h-29.8l-9.24-60.11-34.93,60.11h-29.8Zm123.8-116.1h29.28L581.1,356.66H551.82Zm82.71,85.27L653,352.55h49.32l-5.65,26.2H646.85l-7.71,37H609.86l21.58-104.28h83.73l-5.65,26.19Zm74-38H699.25l5.65-26.2h90.92l-5.65,26.2H759.35l-16.44,78.08H713.63Zm64.21,81.68L768.6,311.46h27.22l15.93,44.17,32.87-44.17H877.5l-54.45,69.86-7.71,34.42H786.06Z"/><path d="M202.5,387l19-18A44.09,44.09,0,0,0,251.3,380.8c11.82,0,17.47-5.65,17.47-10.27,0-3.08-3.09-3.6-14.9-6.68-20-5.13-35.45-9.24-35.45-28.25,0-21.58,19-38,47.78-38,15.92,0,30.31,5.13,40.58,14.89L289.32,332c-8.74-7.19-19-9.76-25.69-9.76-10.27,0-15.41,5.65-15.41,10.28,0,3.59,3.6,4.62,14.9,7.19,24.14,5.65,34.93,11.3,34.93,27.74,0,23.12-21.58,38-49.32,38C230.24,405.46,213.29,398.27,202.5,387ZM307.29,352c0-31.85,31.34-60.62,65.24-60.62,18,0,32.88,8.22,41.1,19l-24.14,17.46c-3.09-5.65-9.76-9.76-18.5-9.76-17.46,0-33.9,16.44-33.9,33.39,0,13.36,9.76,21.07,20,21.07,7.71,0,18-4.63,24.15-11.31l18.49,20.55c-11.3,10.28-29.79,17.47-45.21,17.47A47.14,47.14,0,0,1,307.29,352Zm224.49-104.8L510.21,351.52H480.92l8.22-40.06h-38l-8.22,40.06H413.63l21.58-104.28h29.28l-7.71,38h38l7.71-38Zm-87.33,116.1h31.34v60.1l32.87-60.1h31.85l7.2,60.1,25.68-60.1h32.36L555.41,467.62H525.62l-9.25-60.1-34.93,60.1h-29.8Zm123.8-116.1h29.28L576,351.52H546.68ZM651,332.52l-3.08,14.89h49.31l-5.65,26.2H641.71l-7.7,37H604.73L626.3,306.32H710l-5.65,26.2Zm74-38H694.11l5.65-26.2h90.92L785,294.5H754.21l-16.44,78.09H708.49Zm64.21,81.68-25.68-69.86h27.22l15.93,44.18,32.88-44.18h32.87l-54.45,69.86-7.7,34.42H780.92Z"/></svg>