<?xml version="1.0" encoding="utf-8"?>
<!-- Generator: Adobe Illustrator 24.3.0, SVG Export Plug-In . SVG Version: 6.00 Build 0)  -->
<svg version="1.1" id="Layer_1" xmlns="http://www.w3.org/2000/svg" xmlns:xlink="http://www.w3.org/1999/xlink" x="0px" y="0px"
	 viewBox="0 0 216 144" style="enable-background:new 0 0 216 144;" xml:space="preserve">
<style type="text/css">
	.st0{fill:#FFFFFF;}
	.st1{fill:#FFFF00;}
</style>
<rect x="-3.3" y="-2.2" class="st0" width="222.5" height="148.3"/>
<path class="st1" d="M43.9,77.7l3.7-3.5c1.7,1.6,3.9,2.3,5.8,2.3c2.3,0,3.4-1.1,3.4-2c0-0.6-0.6-0.7-2.9-1.3c-3.9-1-6.9-1.8-6.9-5.5
	c0-4.2,3.7-7.4,9.3-7.4c3.1,0,5.9,1,7.9,2.9L60.8,67c-1.7-1.4-3.7-1.9-5-1.9c-2,0-3,1.1-3,2c0,0.7,0.7,0.9,2.9,1.4
	c4.7,1.1,6.8,2.2,6.8,5.4c0,4.5-4.2,7.4-9.6,7.4C49.3,81.3,46,79.9,43.9,77.7z M64.3,71c0-6.2,6.1-11.8,12.7-11.8
	c3.5,0,6.4,1.6,8,3.7l-4.7,3.4c-0.6-1.1-1.9-1.9-3.6-1.9c-3.4,0-6.6,3.2-6.6,6.5c0,2.6,1.9,4.1,3.9,4.1c1.5,0,3.5-0.9,4.7-2.2l3.6,4
	c-2.2,2-5.8,3.4-8.8,3.4C68.5,80.1,64.3,76.1,64.3,71z M108,50.5l-4.2,20.3h-5.7l1.6-7.8h-7.4l-1.6,7.8H85l4.2-20.3h5.7l-1.5,7.4
	h7.4l1.5-7.4H108z M91,73.1h6.1v11.7l6.4-11.7h6.2l1.4,11.7l5-11.7h6.3l-9.8,20.3h-5.8L105,81.7l-6.8,11.7h-5.8L91,73.1z
	 M115.1,50.5h5.7l-4.2,20.3h-5.7L115.1,50.5z M131.2,67.1l-0.6,2.9h9.6l-1.1,5.1h-9.7l-1.5,7.2h-5.7l4.2-20.3h16.3l-1.1,5.1H131.2z
	 M145.6,59.7h-6l1.1-5.1h17.7l-1.1,5.1h-6l-3.2,15.2h-5.7L145.6,59.7z M158.1,75.6l-5-13.6h5.3l3.1,8.6l6.4-8.6h6.4l-10.6,13.6
	l-1.5,6.7h-5.7L158.1,75.6z"/>
<path d="M42.9,76.7l3.7-3.5c1.7,1.6,3.9,2.3,5.8,2.3c2.3,0,3.4-1.1,3.4-2c0-0.6-0.6-0.7-2.9-1.3c-3.9-1-6.9-1.8-6.9-5.5
	c0-4.2,3.7-7.4,9.3-7.4c3.1,0,5.9,1,7.9,2.9L59.8,66c-1.7-1.4-3.7-1.9-5-1.9c-2,0-3,1.1-3,2c0,0.7,0.7,0.9,2.9,1.4
	c4.7,1.1,6.8,2.2,6.8,5.4c0,4.5-4.2,7.4-9.6,7.4C48.3,80.3,45,78.9,42.9,76.7z M63.3,69.9c0-6.2,6.1-11.8,12.7-11.8
	c3.5,0,6.4,1.6,8,3.7l-4.7,3.4c-0.6-1.1-1.9-1.9-3.6-1.9c-3.4,0-6.6,3.2-6.6,6.5c0,2.6,1.9,4.1,3.9,4.1c1.5,0,3.5-0.9,4.7-2.2l3.6,4
	c-2.2,2-5.8,3.4-8.8,3.4C67.5,79.1,63.3,75.1,63.3,69.9z M107,49.5l-4.2,20.3h-5.7l1.6-7.8h-7.4l-1.6,7.8H84l4.2-20.3h5.7l-1.5,7.4
	h7.4l1.5-7.4H107z M90,72.1h6.1v11.7l6.4-11.7h6.2l1.4,11.7l5-11.7h6.3l-9.8,20.3h-5.8L104,80.7l-6.8,11.7h-5.8L90,72.1z
	 M114.1,49.5h5.7l-4.2,20.3h-5.7L114.1,49.5z M130.2,66.1l-0.6,2.9h9.6l-1.1,5.1h-9.7l-1.5,7.2h-5.7l4.2-20.3h16.3l-1.1,5.1H130.2z
	 M144.6,58.7h-6l1.1-5.1h17.7l-1.1,5.1h-6l-3.2,15.2h-5.7L144.6,58.7z M157.1,74.6l-5-13.6h5.3l3.1,8.6l6.4-8.6h6.4l-10.6,13.6
	l-1.5,6.7h-5.7L157.1,74.6z"/>
</svg>
