<svg id="Layer_1" data-name="Layer 1" xmlns="http://www.w3.org/2000/svg" viewBox="0 0 648 432"><rect width="648" height="432" fill="#fff"/><path d="M283.47,208.67a14.9,14.9,0,0,0-7-2.46v-.74a21.07,21.07,0,0,0,6.09-2.75,13.81,13.81,0,0,0,4.53-5.06,16.89,16.89,0,0,0,1.73-8.11,20.74,20.74,0,0,0-2.53-10.18,18.22,18.22,0,0,0-7.7-7.33q-5.16-2.73-13.13-2.73H238.8V245.5h27.52q9,0,14.63-2.68a18,18,0,0,0,8.22-7.26,20.5,20.5,0,0,0,2.6-10.3,20.21,20.21,0,0,0-2.38-10.19A17.83,17.83,0,0,0,283.47,208.67ZM248,177.5h17.41q7.59,0,11.09,3.51a11.65,11.65,0,0,1,3.49,8.54,12.23,12.23,0,0,1-2,7,13.2,13.2,0,0,1-5.35,4.61,16.92,16.92,0,0,1-7.54,1.64H248Zm31.16,56.3q-3.81,3.51-12.86,3.51H248V210.83h18.75a17.72,17.72,0,0,1,8.63,2A14.4,14.4,0,0,1,281,218.1a13.71,13.71,0,0,1,2,7.16A11.2,11.2,0,0,1,279.18,233.8Zm28.35-65.12a5.72,5.72,0,0,1,0,8.41,6.46,6.46,0,0,1-8.82,0,5.72,5.72,0,0,1,0-8.41,6.43,6.43,0,0,1,8.82,0Zm-8.88,19.68h8.78V245.5h-8.78Zm56.59,9.07h-.89q-1-1.49-2.73-3.81a16.21,16.21,0,0,0-5.06-4.17,18.29,18.29,0,0,0-8.87-1.84A22.8,22.8,0,0,0,325,191.2a24,24,0,0,0-8.59,10.12,35.45,35.45,0,0,0-3.09,15.31,33.19,33.19,0,0,0,3.18,15.18,22.81,22.81,0,0,0,8.67,9.52,23.77,23.77,0,0,0,12.41,3.27,18.8,18.8,0,0,0,8.87-1.76,15.6,15.6,0,0,0,5.06-4.06,45.06,45.06,0,0,0,2.73-3.85H355v11.61q0,7.14-4.5,10.49A18.64,18.64,0,0,1,339,260.38a19.59,19.59,0,0,1-8.36-1.51,15.6,15.6,0,0,1-5-3.53c-1.21-1.36-2.22-2.55-3-3.59l-7,4.91a23,23,0,0,0,12.43,9.84A32.9,32.9,0,0,0,339,268.11a34.09,34.09,0,0,0,12.44-2.17,19.35,19.35,0,0,0,8.93-6.81q3.33-4.63,3.33-12V188.36h-8.49Zm-2,29.91a15,15,0,0,1-5.54,7,15.84,15.84,0,0,1-8.93,2.42A15,15,0,0,1,323.94,227a27.45,27.45,0,0,1-1.88-10.51,29.19,29.19,0,0,1,1.84-10.56,17,17,0,0,1,5.55-7.59,16.54,16.54,0,0,1,18.28-.15,16.32,16.32,0,0,1,5.51,7.4,29.6,29.6,0,0,1,1.86,10.9A28.14,28.14,0,0,1,353.2,227.34Zm29.89,10h35.42v8.19H373.86V169.31h9.23Zm49.15-68.63a5.72,5.72,0,0,1,0,8.41,6.46,6.46,0,0,1-8.82,0,5.72,5.72,0,0,1,0-8.41,6.43,6.43,0,0,1,8.82,0Zm-8.87,19.68h8.78V245.5h-8.78Zm54.74,31.41a13.41,13.41,0,0,1,3.75,9.81,14.48,14.48,0,0,1-2.81,8.77,18.89,18.89,0,0,1-7.83,6.11,28.63,28.63,0,0,1-11.68,2.23q-8.75,0-14.47-3.8a16.78,16.78,0,0,1-7.25-11.08l8.33-2.09a11.5,11.5,0,0,0,4.52,6.92,15,15,0,0,0,8.72,2.31q6.15,0,9.77-2.62t3.63-6.31a6.7,6.7,0,0,0-2.09-5,13.42,13.42,0,0,0-6.4-3l-9.52-2.24q-7.84-1.86-11.51-5.78a13.84,13.84,0,0,1-3.67-9.84,14.11,14.11,0,0,1,2.74-8.56,18.31,18.31,0,0,1,7.48-5.84,26.16,26.16,0,0,1,10.76-2.12q8.49,0,13.34,3.72a20.08,20.08,0,0,1,6.9,9.82l-7.88,2.24a15.38,15.38,0,0,0-2.18-3.85,10.89,10.89,0,0,0-3.89-3.11,14,14,0,0,0-6.29-1.23,15,15,0,0,0-8.72,2.4,7.16,7.16,0,0,0-3.48,6.08,6.29,6.29,0,0,0,2.38,5.18A20.12,20.12,0,0,0,458.2,212l8.49,2.08Q474.34,216,478.11,219.77Zm35.23,25.43a20.6,20.6,0,0,1-2.49.69,19.75,19.75,0,0,1-4.06.35,17.48,17.48,0,0,1-7.27-1.6,14.28,14.28,0,0,1-5.88-4.87,13.92,13.92,0,0,1-2.32-8.26V195.8h-8.63v-7.44h8.63V174.67h8.78v13.69h12.2v7.44H500.1v33.33a11.14,11.14,0,0,0,1.09,5.56,5.43,5.43,0,0,0,2.83,2.46,10.91,10.91,0,0,0,3.67.61,14,14,0,0,0,2.38-.17l1.48-.28ZM191.75,163.88h-34.6A28.08,28.08,0,0,0,129.07,192v34.6a28.08,28.08,0,0,0,28.08,28.08h34.6a28.08,28.08,0,0,0,28.08-28.08V192A28.08,28.08,0,0,0,191.75,163.88Zm19.35,62.68a19.37,19.37,0,0,1-19.35,19.35h-34.6a19.37,19.37,0,0,1-19.35-19.35V192a19.37,19.37,0,0,1,19.35-19.35h34.6A19.37,19.37,0,0,1,211.1,192Z"/></svg>