<svg xmlns="http://www.w3.org/2000/svg" xmlns:xlink="http://www.w3.org/1999/xlink" viewBox="0 0 432 432"><defs><clipPath id="a"><rect x="504" width="432" height="432" style="fill:none"/></clipPath></defs><title>judes-icon</title><rect x="-643.54" y="-141.11" width="2240.39" height="1814.65" style="fill:#fff"/><path d="M1596.35-140.61V1673H-643V-140.61H1596.35m1-1H-644V1674H1597.35V-141.61Z"/><path d="M195.38,172.61a39.92,39.92,0,0,1-10.28-19.34c-2.16-10.76.43-21.88,4.53-31.86a135.21,135.21,0,0,1,14-25.11c.44,9.35,2.53,18.69,4.53,27.8,1.93,8.78,4.08,17.52,6.38,26.21.47,1.77.94,3.55,1.43,5.32,2.06-4.76,3.86-9.64,5.53-14.54,3.27-9.58,6.1-19.47,7.26-29.54.58-5,.79-10.3-.41-15.25a61,61,0,0,1,15.5,21.75A55.68,55.68,0,0,1,248,139.91a58,58,0,0,1-3.5,19.12,40.6,40.6,0,0,1-7.61,13.32c-5.66,6.25-9.59,13.9-12.45,21.78-.61,1.69-1.17,3.4-1.65,5.13a19.82,19.82,0,0,0-.86,4,15.27,15.27,0,0,0,.54,4.51c.12.49.55,2.72,1.33,2.66.49-.05,1-1.43,1.19-1.82a19.76,19.76,0,0,1,1.32-1.92,37.91,37.91,0,0,1,3.28-3.66c2.82-2.84,5.78-5.53,8.44-8.53,9.13-10.31,14.3-23.29,17.66-36.5q1-3.84,1.76-7.71c7.3,12.72,13.1,27.19,12.57,42.11a52.08,52.08,0,0,1-10.47,29c-5.63,7.66-12.82,14-20.21,19.88-3.23,2.58-6.52,5.09-9.71,7.72-1.37,1.12-2.72,2.27-4,3.48-.89.84-2.1,1.72-2.5,2.92a27.18,27.18,0,0,0-.9,5.46c-.28,2.65-.47,5.31-.64,8-.28,4.42-.48,8.84-.63,13.26,0,.25,0,.5,0,.75a25.06,25.06,0,0,1,7-12.12c3.71-3.75,8.08-6.79,12.28-9.95A121.59,121.59,0,0,0,255,248a89.82,89.82,0,0,0,14.79-20.65,137.39,137.39,0,0,0,11.81-33.31c.4-1.76.77-3.52,1.13-5.28a144.88,144.88,0,0,1,7.07,29.1,90.71,90.71,0,0,1,.08,23.74,70,70,0,0,1-5.4,19.13,71.15,71.15,0,0,1-9.37,15.29,92.79,92.79,0,0,1-11.82,12.21,158.47,158.47,0,0,1-12.76,9.88c-4,2.84-8.12,5.55-12.18,8.32a114,114,0,0,0-10.1,7.52,27.63,27.63,0,0,0-6.49,7.47,33,33,0,0,0-2.5,7.37c-1.05,4-2,8-2.82,12-.15.73-.31,1.46-.46,2.19-.5-2.66-1.06-5.31-1.66-7.95a70.85,70.85,0,0,0-3.29-11.75,19.9,19.9,0,0,0-5.42-7,74.76,74.76,0,0,0-9.13-6.69c-3.81-2.49-7.7-4.86-11.52-7.34-4.27-2.77-8.46-5.66-12.46-8.81a96.43,96.43,0,0,1-12-11.08,72.22,72.22,0,0,1-17-32.62,93.78,93.78,0,0,1-2.19-23.21,143.45,143.45,0,0,1,3.87-28.79q.93-4,2-8.07a124.65,124.65,0,0,0,10.64,32.56A94,94,0,0,0,172.82,244a106,106,0,0,0,16,14c4.55,3.28,9.32,6.24,13.95,9.41,3.17,2.18,6.66,4.56,8.71,7.91a10.11,10.11,0,0,1,.56,1c.12-3.9.15-7.81,0-11.71a59.12,59.12,0,0,0-.51-7.52,6.45,6.45,0,0,0-.56-2.15,6.3,6.3,0,0,0-1.3-1.33c-5-4.48-11.1-7.72-16.73-11.34-6.87-4.41-13.54-9.28-18.9-15.5a49.89,49.89,0,0,1-11.61-25.51c-2-13.87,1-28.12,5.33-41.26.72-2.14,1.47-4.26,2.27-6.37,3.41,12.22,8,24.77,16.38,34.53a64.32,64.32,0,0,0,8.24,7.84c2.55,2.06,5.19,4,7.57,6.29a31.6,31.6,0,0,1,6.87,9.46A114.8,114.8,0,0,0,207,199.68a84.86,84.86,0,0,0-6-18.33A34.6,34.6,0,0,0,195.38,172.61Zm171.7,38.81a160.12,160.12,0,0,0-5-38.11,143.07,143.07,0,0,0-14.55-35.82,140.49,140.49,0,0,0-23.27-30.1,142.67,142.67,0,0,0-32-23.7,127.43,127.43,0,0,0-34.9-13.14c-1.69-.34-3.38-.65-5.08-.91,14.42,8.76,28.21,19,40,31.19a171.81,171.81,0,0,1,16.09,18.73,177.26,177.26,0,0,1,13.41,21.65A145.42,145.42,0,0,1,336.59,189a166.59,166.59,0,0,1,1,37A112.39,112.39,0,0,1,323.5,271.3c-1.05,1.85-2.16,3.66-3.31,5.44a141.92,141.92,0,0,0,9-39.64,136.05,136.05,0,0,0-1.66-36.93,118.47,118.47,0,0,0-12.54-35A163.22,163.22,0,0,0,292.5,133.9a339.83,339.83,0,0,0-28.21-27l-4-3.51c4,9.13,9.2,17.71,14.09,26.36s9.77,17.45,14,26.48a177.71,177.71,0,0,1,10.74,27.7,123,123,0,0,1,4.37,29.42c.64,19.7-2.18,39.63-9.6,58a127,127,0,0,1-13.44,24.93,116.87,116.87,0,0,1-8.64,11A66,66,0,0,1,261,316.41a119.59,119.59,0,0,1-10.13,6.44c-3.91,2.25-8,4.23-11.84,6.58-7.66,4.66-15.78,10.21-20.4,18.1a21.47,21.47,0,0,0-2.58,6.63c-1.87-9.3-10.05-16.09-17.48-21.18A142.16,142.16,0,0,0,186,325.42c-3.07-1.67-6.16-3.26-9.12-5.14A108.91,108.91,0,0,1,165,311.7a66.9,66.9,0,0,1-9.58-10.25,124.25,124.25,0,0,1-14.65-24,129.17,129.17,0,0,1-9.35-28.12,157.24,157.24,0,0,1-3-30.07,126.11,126.11,0,0,1,2.91-29.32A154.12,154.12,0,0,1,141,161.85c3.93-8.91,8.52-17.51,13.22-26,4.81-8.71,10-17.24,14.49-26.13,1.05-2.09,2.07-4.19,3-6.33-10,8.76-19.89,17.48-29.07,27.09A161.92,161.92,0,0,0,119,161.57a125.32,125.32,0,0,0-13.68,34.21,131.32,131.32,0,0,0-2.93,36.45A145.35,145.35,0,0,0,110,271.85q.85,2.46,1.81,4.89a111.16,111.16,0,0,1-16.73-45.12,159.14,159.14,0,0,1-.41-36.11,146.67,146.67,0,0,1,12.87-48.72,169.86,169.86,0,0,1,12.36-21.93,171.12,171.12,0,0,1,15.46-19.43c11.32-12.56,24.75-23.19,38.9-32.38,1.79-1.17,3.61-2.3,5.45-3.41-13.87,2.12-27.28,7.2-39.58,13.84a143,143,0,0,0-34.62,26.14A137.89,137.89,0,0,0,80.87,144.1a149,149,0,0,0-13.32,39.83,167.45,167.45,0,0,0-2.19,42.53,124.19,124.19,0,0,0,10.19,40.72,122.78,122.78,0,0,0,23,34.49,138.49,138.49,0,0,0,31.88,25,149.41,149.41,0,0,0,40.95,15.85c6.1,1.43,12.24,2.73,18.3,4.31,7,1.84,14.7,3.82,20.78,8,2.62,1.8,5,4.3,5.57,7.53.7-3.73,3.66-6.42,6.76-8.29a52,52,0,0,1,11-4.72c8-2.6,16.17-4.3,24.31-6.2A192.69,192.69,0,0,0,276.74,338a142.43,142.43,0,0,0,57.88-37.57,123.56,123.56,0,0,0,23.94-38.31c5.64-14.37,8.1-29.51,8.52-44.88C367.13,215.3,367.1,213.36,367.08,211.42Z" style="fill:#c7b299"/><g style="clip-path:url(#a)"><path d="M537.86,57A57.84,57.84,0,0,1,523,29c-3.13-15.59.62-31.7,6.56-46.15C534.82-30,542-42,549.86-53.48c.63,13.54,3.66,27.07,6.55,40.27,2.79,12.72,5.91,25.36,9.24,38q1,3.86,2.07,7.71c3-6.89,5.59-14,8-21.06,4.73-13.87,8.83-28.19,10.51-42.78.83-7.29,1.15-14.91-.6-22.09A88.42,88.42,0,0,1,608.1-22,80.83,80.83,0,0,1,614,9.69,83.89,83.89,0,0,1,609,37.38c-2.54,6.93-6,13.78-11,19.29-8.19,9-13.88,20.12-18,31.54-.88,2.45-1.69,4.92-2.38,7.42a28.69,28.69,0,0,0-1.25,5.84,22.24,22.24,0,0,0,.78,6.54c.18.7.8,3.93,1.93,3.84.71-.06,1.39-2.07,1.72-2.63a31.24,31.24,0,0,1,1.91-2.79,54,54,0,0,1,4.75-5.29c4.09-4.11,8.38-8,12.22-12.35,13.23-14.94,20.72-33.73,25.58-52.87q1.41-5.55,2.54-11.17c10.59,18.43,19,39.38,18.22,61-.54,15.32-6.13,29.73-15.17,42-8.16,11.1-18.57,20.25-29.27,28.81-4.68,3.73-9.44,7.36-14.06,11.16-2,1.63-3.93,3.3-5.8,5.05-1.3,1.21-3,2.49-3.62,4.23a39.13,39.13,0,0,0-1.31,7.91c-.41,3.84-.69,7.69-.93,11.54-.41,6.39-.7,12.8-.91,19.2,0,.36,0,.72,0,1.09a36.47,36.47,0,0,1,10.09-17.56c5.37-5.43,11.7-9.83,17.79-14.41a176.73,176.73,0,0,0,21.55-18.5,130.39,130.39,0,0,0,21.41-29.9c8-15.16,13.3-31.6,17.1-48.25q.87-3.81,1.64-7.65a210,210,0,0,1,10.25,42.15,131.82,131.82,0,0,1,.11,34.37,101.55,101.55,0,0,1-7.82,27.71,102.87,102.87,0,0,1-13.57,22.15,134.86,134.86,0,0,1-17.11,17.68,230.07,230.07,0,0,1-18.48,14.31c-5.82,4.11-11.77,8-17.65,12a163.42,163.42,0,0,0-14.62,10.88c-3.61,3.11-7.11,6.6-9.4,10.82-1.79,3.3-2.67,7.08-3.62,10.69-1.52,5.74-2.84,11.53-4.09,17.34-.22,1.06-.45,2.11-.67,3.17-.72-3.86-1.53-7.69-2.4-11.51-1.28-5.69-2.5-11.63-4.76-17-1.67-4-4.67-7.24-7.85-10.07a110.29,110.29,0,0,0-13.23-9.69c-5.52-3.6-11.14-7-16.68-10.63-6.18-4-12.26-8.2-18-12.76a139.06,139.06,0,0,1-17.3-16,107,107,0,0,1-14.69-20.7,105.72,105.72,0,0,1-9.95-26.54,134.6,134.6,0,0,1-3.18-33.61,208.73,208.73,0,0,1,5.6-41.69q1.35-5.88,2.95-11.68A181.12,181.12,0,0,0,483.6,129a136.25,136.25,0,0,0,21.59,31.47,153.15,153.15,0,0,0,23.09,20.22c6.59,4.76,13.51,9,20.21,13.64,4.59,3.15,9.64,6.6,12.62,11.45a15.11,15.11,0,0,1,.81,1.47c.17-5.64.21-11.3.07-16.95a86.24,86.24,0,0,0-.74-10.89,9.29,9.29,0,0,0-.81-3.11,8.64,8.64,0,0,0-1.89-1.93c-7.25-6.5-16.07-11.18-24.22-16.42-10-6.39-19.61-13.45-27.38-22.45a72.28,72.28,0,0,1-16.8-36.94c-2.94-20.1,1.38-40.73,7.72-59.76q1.54-4.65,3.28-9.22c4.93,17.69,11.58,35.87,23.71,50a91.69,91.69,0,0,0,11.95,11.36c3.69,3,7.51,5.83,11,9.11a45.48,45.48,0,0,1,9.94,13.71,167.2,167.2,0,0,0-3-17.49A122.93,122.93,0,0,0,546.1,69.7,49.79,49.79,0,0,0,537.86,57Zm248.67,56.21a232,232,0,0,0-7.2-55.2A208,208,0,0,0,758.26,6.17a203.13,203.13,0,0,0-33.71-43.58,206.34,206.34,0,0,0-46.37-34.33,184.67,184.67,0,0,0-50.55-19q-3.64-.76-7.34-1.33c20.88,12.69,40.85,27.57,57.88,45.17a247.69,247.69,0,0,1,23.29,27.14,254.06,254.06,0,0,1,19.43,31.35,210.44,210.44,0,0,1,21.47,69.26,240.83,240.83,0,0,1,1.4,53.6A162.48,162.48,0,0,1,723.4,200q-2.28,4-4.78,7.88a205.46,205.46,0,0,0,13.09-57.41A196.53,196.53,0,0,0,729.3,97,171.49,171.49,0,0,0,711.15,46.3,237.08,237.08,0,0,0,678.52,1c-12.74-14-26.6-26.74-40.86-39.17l-5.82-5.08c5.77,13.21,13.32,25.64,20.4,38.18s14.16,25.26,20.34,38.33a256.77,256.77,0,0,1,15.55,40.13,178.44,178.44,0,0,1,6.33,42.6c.93,28.54-3.16,57.4-13.9,83.94A183.79,183.79,0,0,1,661.09,236a170.83,170.83,0,0,1-12.51,15.88c-4.56,5.12-10.2,9.41-15.75,13.39a169.83,169.83,0,0,1-14.67,9.33c-5.68,3.26-11.55,6.14-17.16,9.54-11.08,6.74-22.84,14.78-29.54,26.21a31.25,31.25,0,0,0-3.74,9.6c-2.7-13.46-14.55-23.3-25.31-30.68a208.46,208.46,0,0,0-18.15-10.94c-4.45-2.42-8.91-4.73-13.2-7.45a158,158,0,0,1-17.21-12.43A96.61,96.61,0,0,1,480,243.63a180.12,180.12,0,0,1-21.21-34.8,186.37,186.37,0,0,1-13.54-40.72,227.33,227.33,0,0,1-4.33-43.55,183.09,183.09,0,0,1,4.21-42.47c3.19-14,8.22-27.49,14-40.63,5.69-12.91,12.34-25.36,19.15-37.71,7-12.62,14.49-25,21-37.85,1.52-3,3-6.06,4.36-9.16C489.16-30.58,474.81-17.95,461.52-4c-13,13.57-24.92,28.76-34.23,45.08A181.63,181.63,0,0,0,407.47,90.6a190.68,190.68,0,0,0-4.24,52.79,210.14,210.14,0,0,0,11,57.37c.82,2.38,1.7,4.75,2.62,7.09a161.1,161.1,0,0,1-24.23-65.34c-2.37-17.25-2.19-35-.59-52.3,2.23-24.22,8.27-48.51,18.64-70.56a244.72,244.72,0,0,1,17.91-31.76,245.37,245.37,0,0,1,22.38-28.14c16.39-18.19,35.84-33.59,56.33-46.9,2.6-1.69,5.24-3.33,7.89-4.94C495.08-89,475.67-81.66,457.84-72A207.56,207.56,0,0,0,407.7-34.19,200.31,200.31,0,0,0,372,15.76a215.91,215.91,0,0,0-19.29,57.68A243,243,0,0,0,349.56,135a180,180,0,0,0,14.76,59,177.87,177.87,0,0,0,33.27,49.93,200.61,200.61,0,0,0,46.16,36.24,216.78,216.78,0,0,0,59.31,22.95c8.84,2.06,17.72,3.95,26.5,6.24,10.21,2.66,21.29,5.53,30.1,11.57,3.79,2.6,7.18,6.23,8.06,10.9,1-5.4,5.3-9.29,9.79-12A76.63,76.63,0,0,1,593.38,313c11.53-3.77,23.41-6.22,35.2-9a279.38,279.38,0,0,0,27.11-7.45,203.57,203.57,0,0,0,32.93-14.65,201.51,201.51,0,0,0,50.9-39.76,179.28,179.28,0,0,0,34.67-55.49c8.17-20.8,11.72-42.73,12.33-65C786.6,118.87,786.56,116.06,786.53,113.25Z" style="fill:#c7b299"/></g></svg>