<svg xmlns="http://www.w3.org/2000/svg" viewBox="0 0 432 432"><title>judes-seal</title><rect x="-1651.54" y="-141.11" width="2240.39" height="1814.65" style="fill:#fff"/><path d="M588.35-140.61V1673H-1651V-140.61H588.35m1-1H-1652V1674H589.35V-141.61Z"/><path d="M195.53,172.93a39.72,39.72,0,0,1-10.2-19.2c-2.15-10.68.42-21.73,4.49-31.63a134.88,134.88,0,0,1,13.94-24.94c.43,9.29,2.51,18.56,4.49,27.61,1.91,8.72,4.05,17.38,6.33,26q.71,2.66,1.42,5.29c2.05-4.73,3.83-9.57,5.5-14.44,3.24-9.51,6.05-19.32,7.2-29.33.58-5,.79-10.21-.41-15.14a60.51,60.51,0,0,1,15.39,21.59,55.54,55.54,0,0,1,4.07,21.71,57.68,57.68,0,0,1-3.48,19,40.34,40.34,0,0,1-7.56,13.23c-5.61,6.2-9.52,13.79-12.36,21.62-.6,1.68-1.16,3.37-1.63,5.09a19.68,19.68,0,0,0-.86,4,15.08,15.08,0,0,0,.54,4.48c.12.49.55,2.7,1.32,2.64.48-.05.95-1.42,1.18-1.81a22.27,22.27,0,0,1,1.31-1.91,38.61,38.61,0,0,1,3.25-3.63c2.81-2.81,5.75-5.48,8.38-8.46,9.07-10.24,14.2-23.13,17.53-36.24q1-3.81,1.75-7.66c7.26,12.63,13,27,12.49,41.81a51.73,51.73,0,0,1-10.4,28.8c-5.59,7.6-12.73,13.88-20.07,19.74-3.2,2.56-6.47,5.05-9.63,7.66-1.36,1.11-2.7,2.26-4,3.46-.89.83-2.09,1.7-2.48,2.89a27,27,0,0,0-.9,5.43c-.28,2.63-.47,5.27-.64,7.91q-.42,6.57-.62,13.16c0,.25,0,.5,0,.75a24.93,24.93,0,0,1,6.91-12c3.68-3.72,8-6.74,12.2-9.87a122.34,122.34,0,0,0,14.77-12.69,89,89,0,0,0,14.67-20.5,136,136,0,0,0,11.73-33.07c.39-1.74.77-3.49,1.12-5.25a143.73,143.73,0,0,1,7,28.9,90.21,90.21,0,0,1,.08,23.56,69.44,69.44,0,0,1-5.36,19,71,71,0,0,1-9.3,15.18A94,94,0,0,1,263,287.74a159.81,159.81,0,0,1-12.67,9.81c-4,2.81-8.07,5.5-12.1,8.26a113.66,113.66,0,0,0-10,7.46,27.5,27.5,0,0,0-6.44,7.41,33.18,33.18,0,0,0-2.49,7.33c-1,3.93-1.94,7.91-2.8,11.89-.15.72-.31,1.44-.46,2.17-.49-2.64-1.05-5.27-1.64-7.89a70.16,70.16,0,0,0-3.27-11.67,19.91,19.91,0,0,0-5.38-6.91,75.47,75.47,0,0,0-9.06-6.64c-3.79-2.47-7.65-4.83-11.44-7.29-4.24-2.75-8.4-5.61-12.37-8.74a95.77,95.77,0,0,1-11.86-11,73.52,73.52,0,0,1-10.07-14.2,72.49,72.49,0,0,1-6.83-18.19,92.38,92.38,0,0,1-2.17-23,143.61,143.61,0,0,1,3.83-28.59q.93-4,2-8a124.62,124.62,0,0,0,10.56,32.33,93.53,93.53,0,0,0,14.81,21.57A104.91,104.91,0,0,0,189,257.67c4.52,3.27,9.25,6.2,13.85,9.35,3.15,2.16,6.61,4.53,8.65,7.85a9.87,9.87,0,0,1,.55,1c.12-3.87.15-7.75,0-11.62a58.18,58.18,0,0,0-.5-7.46,6.33,6.33,0,0,0-.56-2.14,6,6,0,0,0-1.29-1.32c-5-4.45-11-7.66-16.61-11.26-6.82-4.38-13.44-9.22-18.77-15.39a49.54,49.54,0,0,1-11.51-25.32c-2-13.77.95-27.92,5.29-41,.7-2.13,1.46-4.23,2.25-6.33,3.38,12.13,7.94,24.59,16.25,34.28a64.1,64.1,0,0,0,8.19,7.78c2.53,2.05,5.15,4,7.52,6.25a31.11,31.11,0,0,1,6.81,9.39,113.08,113.08,0,0,0-2-12,84.21,84.21,0,0,0-5.92-18.2A34.07,34.07,0,0,0,195.53,172.93ZM366,211.45a158.8,158.8,0,0,0-4.93-37.83,142.87,142.87,0,0,0-14.44-35.57,139.88,139.88,0,0,0-23.11-29.87,141.58,141.58,0,0,0-31.79-23.54,126.54,126.54,0,0,0-34.65-13c-1.67-.35-3.35-.65-5-.91,14.31,8.69,28,18.9,39.67,31a170.29,170.29,0,0,1,16,18.6A174.72,174.72,0,0,1,321,141.75a144.32,144.32,0,0,1,14.72,47.48,164.78,164.78,0,0,1,.95,36.74,111.29,111.29,0,0,1-13.95,44.93c-1,1.84-2.14,3.63-3.28,5.4a140.64,140.64,0,0,0,9-39.35,135,135,0,0,0-1.66-36.67,117.37,117.37,0,0,0-12.44-34.72A162,162,0,0,0,292,134.5a334.86,334.86,0,0,0-28-26.85l-4-3.48c4,9,9.14,17.57,14,26.17s9.7,17.32,13.94,26.28a175.15,175.15,0,0,1,10.66,27.5,122.29,122.29,0,0,1,4.34,29.21c.64,19.56-2.17,39.35-9.53,57.54A126,126,0,0,1,280,295.62a116.85,116.85,0,0,1-8.58,10.88,64.52,64.52,0,0,1-10.8,9.18,118.39,118.39,0,0,1-10,6.39c-3.89,2.24-7.92,4.21-11.76,6.54-7.6,4.62-15.66,10.14-20.25,18a21.32,21.32,0,0,0-2.57,6.58c-1.85-9.23-10-16-17.35-21a142.49,142.49,0,0,0-12.44-7.5c-3.05-1.66-6.11-3.24-9.05-5.1a108.48,108.48,0,0,1-11.8-8.53,65.92,65.92,0,0,1-9.51-10.17A123,123,0,0,1,141.31,277,127.78,127.78,0,0,1,132,249.06a155.83,155.83,0,0,1-3-29.85A125.39,125.39,0,0,1,132,190.1a152.69,152.69,0,0,1,9.61-27.86c3.9-8.85,8.45-17.38,13.12-25.85,4.78-8.65,9.94-17.12,14.39-25.94,1-2.07,2.06-4.16,3-6.28-9.91,8.69-19.75,17.35-28.86,26.89A160.27,160.27,0,0,0,119.74,162a124.48,124.48,0,0,0-13.59,34,131.34,131.34,0,0,0-2.91,36.19,144.38,144.38,0,0,0,7.53,39.32c.57,1.64,1.16,3.26,1.8,4.86A110.39,110.39,0,0,1,96,231.51a158,158,0,0,1-.41-35.85,145.61,145.61,0,0,1,12.78-48.37,168.06,168.06,0,0,1,12.27-21.77A169.56,169.56,0,0,1,136,106.23c11.23-12.47,24.57-23,38.61-32.15,1.79-1.16,3.6-2.28,5.41-3.38-13.76,2.1-27.07,7.14-39.29,13.73a142.33,142.33,0,0,0-34.37,26,137.28,137.28,0,0,0-24.46,34.23,148.14,148.14,0,0,0-13.22,39.54,166.39,166.39,0,0,0-2.18,42.22,121.6,121.6,0,0,0,32.92,74.67A137.68,137.68,0,0,0,131,325.88a148.84,148.84,0,0,0,40.66,15.74c6.06,1.41,12.15,2.71,18.17,4.28,7,1.82,14.59,3.78,20.62,7.92,2.61,1.79,4.93,4.28,5.53,7.48.7-3.7,3.63-6.37,6.71-8.23a52.42,52.42,0,0,1,10.88-4.69c7.9-2.58,16-4.26,24.13-6.15,6.27-1.47,12.48-3,18.59-5.11a141.39,141.39,0,0,0,57.46-37.3,123,123,0,0,0,23.77-38c5.6-14.26,8-29.29,8.45-44.55C366,215.31,366,213.38,366,211.45Z" style="fill:#c7b299;opacity:0.32"/><path d="M66,259.27,71.4,243a10.73,10.73,0,0,0,5.11,1.35c2.71,0,4.71-2,4.71-6.52V184.44h21.61v53.64c0,14.57-8.76,24-22.91,24C74.6,262.06,69.49,261.13,66,259.27Z" style="fill:#736357"/><ellipse cx="92.03" cy="168.45" rx="12.2" ry="11.62" style="fill:#736357"/><path d="M165.83,184.44V241H145.32V235.6A20.93,20.93,0,0,1,129.78,242c-11,0-22-8-22-26.36V184.44h21.62v27.18c0,8.06,2.7,10.75,7.12,10.75,3.91,0,7.72-3,7.72-11.37V184.44Z" style="fill:#736357"/><path d="M229.22,164.28V241H208.71v-4.66c-3.31,3.83-8.22,5.69-15,5.69-14.34,0-25.41-10-25.41-29.3,0-19,11.07-29.31,25.41-29.31,6,0,10.63,1.55,13.93,4.86v-24ZM208,212.65c0-7.33-3.91-11.06-8.93-11.06s-9.68,2.76-9.68,11.12c0,8.52,4.67,11.11,9.68,11.11S208,220,208,212.65Z" style="fill:#736357"/><path d="M274.41,220.61l11.66,12.3c-5.34,6-12.95,9.1-23.62,9.1-19.87,0-31.1-13.21-31.1-29.3a29.2,29.2,0,0,1,29.42-29.31c15.71,0,29.36,10.13,29.36,28.94l-37,7.45c1.78,3.51,5.15,5,10,5S270.85,223.4,274.41,220.61Zm-22.74-11.88,17.3-3.52a8.24,8.24,0,0,0-8.1-5.89C255.83,199.32,252.36,202.32,251.67,208.73Z" style="fill:#736357"/><path d="M313.11,192.5c0,2.79-.19,5.37-3.63,13l-5.21,11.68h-13l3.53-13.64c-3.9-2-6.23-5.89-6.23-11.06,0-7.55,5.21-12.71,12.28-12.71S313.11,185,313.11,192.5Z" style="fill:#736357"/><path d="M312.78,236.43,319,221a38.78,38.78,0,0,0,19.15,5.06c5.51,0,7-1,7-2.69,0-5.78-31.59,2-31.59-20.67,0-10.64,9.63-19.33,28.08-19.33,8,0,16.54,1.55,22.35,4.65l-6.21,15.41A31.68,31.68,0,0,0,342,199.32c-5.82,0-7.42,1.34-7.42,2.69,0,5.89,31.48-1.76,31.48,20.88,0,10.23-9.32,19.12-28.37,19.12C328.22,242,318.4,239.73,312.78,236.43Z" style="fill:#736357"/><text transform="translate(365.9 194.43)" style="font-size:15.184670448303223px;fill:#736357;font-family:Montserrat-Bold, Montserrat;font-weight:700">™</text><text transform="translate(106.33 260.92) scale(0.99 1)" style="font-size:15.852899551391602px;fill:#534741;font-family:Montserrat-Medium, Montserrat;font-weight:500;letter-spacing:0.2145474681877313em">H<tspan x="16.27" y="0" style="letter-spacing:0.19899153226924726em">E</tspan><tspan x="30.05" y="0" style="letter-spacing:0.21460969193140525em">A</tspan><tspan x="46.14" y="0" style="letter-spacing:0.14616357389007562em">L</tspan><tspan x="57.87" y="0" style="letter-spacing:0.2195875914253201em">T</tspan><tspan x="70.66" y="0" style="letter-spacing:0.2279877968213015em">H &amp; </tspan><tspan x="117.39" y="0" style="letter-spacing:0.21193407095342595em">J</tspan><tspan x="128.88" y="0" style="letter-spacing:0.1903424318985702em">AV</tspan><tspan x="158.89" y="0" style="letter-spacing:0.2279255730776275em">A </tspan><tspan x="183.06" y="0" style="letter-spacing:0.22108096127349458em">H</tspan><tspan x="199.44" y="0" style="letter-spacing:0.219649815168994em">O</tspan><tspan x="216.24" y="0" style="letter-spacing:0.21479636316242703em">U</tspan><tspan x="232.18" y="0" style="letter-spacing:0.22188986994125573em">S</tspan><tspan x="245.55" y="0" style="letter-spacing:0.2279877968213015em">E</tspan></text></svg>