<svg xmlns="http://www.w3.org/2000/svg" xmlns:xlink="http://www.w3.org/1999/xlink" viewBox="0 0 432 432"><defs><clipPath id="a"><rect x="504" y="-504" width="432" height="432" style="fill:none"/></clipPath></defs><title>judes-pattern-1</title><rect x="-643.54" y="-645.11" width="2240.39" height="1814.65" style="fill:#fff"/><path d="M1596.35-644.61V1169H-643V-644.61H1596.35m1-1H-644V1170H1597.35V-645.61Z"/><path d="M33.12-14.28C35.32-8.06,57.57-5.17,48.87,20,45.07,1,34.58,2.49,33.13-3.94c0,0,.2,6.68.66,7.18,4,4.35,18.09,10.07,8.63,26.54-2.37-11.58-7-12.2-8.45-15.19-.27-.57-.68,1.25-.57,1.87a18.26,18.26,0,0,0,3.73,7.65C40,27.19,42.64,36.57,35,43.52c1.23-5.05-3.14-15.09-3.14-15.09S29,39,28.75,43.52c-7.42-10.78-5-16.33-2.11-19.41,2.54-2.72,3.37-8.94,3.49-10-2.23,4.77-6.66,3-9.94,14.78C13,9.77,26.48,7.29,30.55,3.24c.48-.47.32-5.52.32-5.52-1.73,3.65-13.24,5.1-16.47,22-7.27-26.46,14-28.23,16.25-34a39.64,39.64,0,0,0,1.24-5S32.6-15.76,33.12-14.28Z" style="fill:#c7b299"/><path d="M89.78-14.28C92-8.06,114.22-5.17,105.52,20,101.72,1,91.23,2.49,89.78-3.94c0,0,.2,6.68.66,7.18,4,4.35,18.09,10.07,8.63,26.54-2.36-11.58-7-12.2-8.45-15.19-.27-.57-.68,1.25-.57,1.87a18.26,18.26,0,0,0,3.73,7.65c2.89,3.08,5.51,12.46-2.09,19.41,1.22-5.05-3.15-15.09-3.15-15.09S85.61,39,85.4,43.52c-7.42-10.78-5-16.33-2.11-19.41,2.55-2.72,3.38-8.94,3.49-10-2.23,4.77-6.66,3-9.94,14.78C69.61,9.77,83.13,7.29,87.2,3.24c.48-.47.32-5.52.32-5.52-1.73,3.65-13.23,5.1-16.47,22C63.78-6.71,85-8.48,87.3-14.28a39.64,39.64,0,0,0,1.24-5S89.25-15.76,89.78-14.28Z" style="fill:#c7b299"/><path d="M146.43-14.28c2.19,6.22,24.44,9.11,15.74,34.27-3.79-19-14.29-17.5-15.74-23.93,0,0,.2,6.68.66,7.18,4,4.35,18.09,10.07,8.63,26.54-2.36-11.58-7-12.2-8.44-15.19-.28-.57-.69,1.25-.57,1.87a18.11,18.11,0,0,0,3.72,7.65c2.89,3.08,5.51,12.46-2.09,19.41,1.22-5.05-3.15-15.09-3.15-15.09S142.26,39,142.05,43.52c-7.42-10.78-5-16.33-2.11-19.41,2.55-2.72,3.38-8.94,3.49-10-2.23,4.77-6.66,3-9.94,14.78-7.23-19.16,6.3-21.64,10.37-25.69.47-.47.31-5.52.31-5.52-1.73,3.65-13.23,5.1-16.47,22-7.26-26.46,14-28.23,16.25-34a39.64,39.64,0,0,0,1.24-5S145.9-15.76,146.43-14.28Z" style="fill:#c7b299"/><path d="M203.08-14.28c2.19,6.22,24.44,9.11,15.74,34.27C215,1,204.54,2.49,203.09-3.94c0,0,.19,6.68.65,7.18,4,4.35,18.09,10.07,8.64,26.54-2.37-11.58-7-12.2-8.45-15.19-.27-.57-.68,1.25-.57,1.87a18.14,18.14,0,0,0,3.73,7.65c2.89,3.08,5.51,12.46-2.1,19.41,1.23-5.05-3.15-15.09-3.15-15.09S198.91,39,198.7,43.52c-7.42-10.78-5-16.33-2.11-19.41,2.55-2.72,3.38-8.94,3.49-10-2.23,4.77-6.66,3-9.93,14.78-7.24-19.16,6.29-21.64,10.36-25.69.47-.47.31-5.52.31-5.52-1.73,3.65-13.23,5.1-16.47,22-7.26-26.46,14-28.23,16.25-34a39.64,39.64,0,0,0,1.24-5S202.55-15.76,203.08-14.28Z" style="fill:#c7b299"/><path d="M259.73-14.28c2.19,6.22,24.44,9.11,15.74,34.27-3.79-19-14.28-17.5-15.73-23.93,0,0,.19,6.68.65,7.18,4,4.35,18.09,10.07,8.64,26.54-2.37-11.58-7-12.2-8.45-15.19-.27-.57-.68,1.25-.57,1.87a18.14,18.14,0,0,0,3.73,7.65c2.89,3.08,5.51,12.46-2.1,19.41,1.23-5.05-3.15-15.09-3.15-15.09S255.56,39,255.35,43.52c-7.42-10.78-5-16.33-2.1-19.41,2.54-2.72,3.37-8.94,3.48-10-2.23,4.77-6.66,3-9.93,14.78-7.24-19.16,6.29-21.64,10.36-25.69.47-.47.31-5.52.31-5.52-1.73,3.65-13.23,5.1-16.46,22-7.27-26.46,13.94-28.23,16.24-34a39.64,39.64,0,0,0,1.24-5S259.2-15.76,259.73-14.28Z" style="fill:#c7b299"/><path d="M316.38-14.28c2.2,6.22,24.44,9.11,15.74,34.27-3.79-19-14.28-17.5-15.73-23.93,0,0,.2,6.68.65,7.18,4,4.35,18.09,10.07,8.64,26.54-2.37-11.58-7-12.2-8.45-15.19-.27-.57-.68,1.25-.57,1.87a18.14,18.14,0,0,0,3.73,7.65c2.89,3.08,5.51,12.46-2.1,19.41,1.23-5.05-3.15-15.09-3.15-15.09S312.22,39,312,43.52c-7.43-10.78-5-16.33-2.11-19.41,2.54-2.72,3.37-8.94,3.48-10-2.23,4.77-6.66,3-9.93,14.78-7.24-19.16,6.29-21.64,10.36-25.69.47-.47.31-5.52.31-5.52-1.73,3.65-13.23,5.1-16.46,22-7.27-26.46,13.95-28.23,16.25-34a39,39,0,0,0,1.23-5S315.86-15.76,316.38-14.28Z" style="fill:#c7b299"/><path d="M373-14.28c2.2,6.22,24.44,9.11,15.74,34.27C385,1,374.49,2.49,373-3.94c0,0,.2,6.68.66,7.18,4,4.35,18.09,10.07,8.63,26.54-2.37-11.58-7-12.2-8.45-15.19-.27-.57-.68,1.25-.57,1.87A18.14,18.14,0,0,0,377,24.11c2.89,3.08,5.51,12.46-2.1,19.41,1.23-5.05-3.14-15.09-3.14-15.09S368.87,39,368.66,43.52c-7.42-10.78-5-16.33-2.11-19.41,2.54-2.72,3.37-8.94,3.49-10-2.23,4.77-6.66,3-9.94,14.78-7.24-19.16,6.29-21.64,10.36-25.69.47-.47.31-5.52.31-5.52-1.73,3.65-13.23,5.1-16.46,22-7.27-26.46,13.95-28.23,16.25-34a39.64,39.64,0,0,0,1.24-5S372.51-15.76,373-14.28Z" style="fill:#c7b299"/><path d="M429.68-14.28c2.2,6.22,24.45,9.11,15.75,34.27-3.8-19-14.29-17.5-15.74-23.93,0,0,.2,6.68.66,7.18,4,4.35,18.09,10.07,8.63,26.54-2.37-11.58-7-12.2-8.45-15.19-.27-.57-.68,1.25-.57,1.87a18.26,18.26,0,0,0,3.73,7.65c2.89,3.08,5.51,12.46-2.09,19.41,1.22-5.05-3.15-15.09-3.15-15.09S425.52,39,425.31,43.52c-7.42-10.78-5-16.33-2.11-19.41,2.54-2.72,3.38-8.94,3.49-10-2.23,4.77-6.66,3-9.94,14.78C409.52,9.77,423,7.29,427.11,3.24c.48-.47.32-5.52.32-5.52-1.73,3.65-13.23,5.1-16.47,22-7.27-26.46,14-28.23,16.25-34a39.64,39.64,0,0,0,1.24-5S429.16-15.76,429.68-14.28Z" style="fill:#c7b299"/><path d="M4.8,73.4C7,67.18,29.24,64.29,20.54,39.13c-3.79,19-14.28,17.5-15.73,23.94,0,0,.19-6.69.65-7.18,4-4.36,18.09-10.08,8.64-26.54-2.37,11.58-7,12.19-8.45,15.19-.27.56-.68-1.25-.57-1.87A18,18,0,0,1,8.81,35c2.88-3.09,5.51-12.46-2.1-19.41,1.23,5-3.15,15.09-3.15,15.09S.63,20.14.42,15.61C-7,26.38-4.57,31.93-1.69,35,.86,37.74,1.69,44,1.8,45c-2.23-4.77-6.66-3-9.93-14.79-7.24,19.17,6.29,21.64,10.36,25.7.47.47.31,5.51.31,5.51-1.73-3.65-13.23-5.1-16.47-22C-21.19,65.83,0,67.6,2.32,73.4a40.07,40.07,0,0,1,1.24,5S4.27,74.89,4.8,73.4Z" style="fill:#c7b299"/><path d="M61.45,73.4c2.19-6.22,24.44-9.11,15.74-34.27-3.79,19-14.28,17.5-15.73,23.94,0,0,.19-6.69.65-7.18,4-4.36,18.09-10.08,8.64-26.54-2.37,11.58-7,12.19-8.45,15.19-.27.56-.68-1.25-.57-1.87A18,18,0,0,1,65.46,35c2.89-3.09,5.51-12.46-2.1-19.41,1.23,5-3.15,15.09-3.15,15.09s-2.93-10.56-3.14-15.09C49.65,26.38,52.08,31.93,55,35c2.54,2.72,3.37,8.94,3.48,10-2.23-4.77-6.66-3-9.93-14.79-7.24,19.17,6.29,21.64,10.36,25.7.47.47.31,5.51.31,5.51-1.73-3.65-13.23-5.1-16.46-22C35.46,65.83,56.67,67.6,59,73.4a40.07,40.07,0,0,1,1.24,5S60.92,74.89,61.45,73.4Z" style="fill:#c7b299"/><path d="M118.1,73.4c2.2-6.22,24.44-9.11,15.74-34.27-3.79,19-14.28,17.5-15.73,23.94,0,0,.2-6.69.65-7.18,4-4.36,18.09-10.08,8.64-26.54-2.37,11.58-7,12.19-8.45,15.19-.27.56-.68-1.25-.57-1.87A18,18,0,0,1,122.11,35c2.89-3.09,5.51-12.46-2.1-19.41,1.23,5-3.15,15.09-3.15,15.09s-2.92-10.56-3.14-15.09c-7.42,10.77-5,16.32-2.1,19.41,2.54,2.72,3.37,8.94,3.48,10-2.23-4.77-6.66-3-9.93-14.79-7.24,19.17,6.29,21.64,10.36,25.7.47.47.31,5.51.31,5.51-1.73-3.65-13.23-5.1-16.46-22-7.27,26.46,13.94,28.23,16.25,34a39.47,39.47,0,0,1,1.23,5S117.58,74.89,118.1,73.4Z" style="fill:#c7b299"/><path d="M174.75,73.4c2.2-6.22,24.44-9.11,15.74-34.27-3.79,19-14.28,17.5-15.73,23.94,0,0,.2-6.69.66-7.18,4-4.36,18.09-10.08,8.63-26.54-2.37,11.58-7,12.19-8.45,15.19-.27.56-.68-1.25-.57-1.87A18,18,0,0,1,178.76,35c2.89-3.09,5.51-12.46-2.1-19.41,1.23,5-3.15,15.09-3.15,15.09s-2.92-10.56-3.13-15.09c-7.43,10.77-5,16.32-2.11,19.41,2.54,2.72,3.37,8.94,3.49,10-2.23-4.77-6.66-3-9.94-14.79-7.24,19.17,6.29,21.64,10.36,25.7.47.47.31,5.51.31,5.51-1.73-3.65-13.23-5.1-16.46-22-7.27,26.46,13.95,28.23,16.25,34a39.47,39.47,0,0,1,1.23,5S174.23,74.89,174.75,73.4Z" style="fill:#c7b299"/><path d="M231.4,73.4c2.2-6.22,24.45-9.11,15.75-34.27-3.8,19-14.29,17.5-15.74,23.94,0,0,.2-6.69.66-7.18,4-4.36,18.09-10.08,8.63-26.54-2.37,11.58-7,12.19-8.45,15.19-.27.56-.68-1.25-.57-1.87A18.15,18.15,0,0,1,235.41,35c2.89-3.09,5.51-12.46-2.09-19.41,1.22,5-3.15,15.09-3.15,15.09S227.24,20.14,227,15.61c-7.42,10.77-5,16.32-2.11,19.41,2.54,2.72,3.37,8.94,3.49,10-2.23-4.77-6.66-3-9.94-14.79-7.23,19.17,6.29,21.64,10.36,25.7.48.47.32,5.51.32,5.51-1.73-3.65-13.23-5.1-16.47-22-7.27,26.46,13.95,28.23,16.25,34a40.07,40.07,0,0,1,1.24,5S230.88,74.89,231.4,73.4Z" style="fill:#c7b299"/><path d="M288.06,73.4c2.19-6.22,24.44-9.11,15.74-34.27-3.79,19-14.29,17.5-15.74,23.94,0,0,.2-6.69.66-7.18,4-4.36,18.09-10.08,8.63-26.54-2.36,11.58-7,12.19-8.45,15.19-.27.56-.68-1.25-.57-1.87A18.15,18.15,0,0,1,292.06,35c2.89-3.09,5.51-12.46-2.09-19.41,1.22,5-3.15,15.09-3.15,15.09s-2.93-10.56-3.14-15.09c-7.42,10.77-5,16.32-2.11,19.41,2.55,2.72,3.38,8.94,3.49,10-2.23-4.77-6.66-3-9.94-14.79-7.23,19.17,6.3,21.64,10.36,25.7.48.47.32,5.51.32,5.51-1.73-3.65-13.23-5.1-16.47-22-7.27,26.46,13.95,28.23,16.25,34a40.07,40.07,0,0,1,1.24,5S287.53,74.89,288.06,73.4Z" style="fill:#c7b299"/><path d="M344.71,73.4c2.19-6.22,24.44-9.11,15.74-34.27-3.79,19-14.29,17.5-15.74,23.94,0,0,.2-6.69.66-7.18,4-4.36,18.09-10.08,8.64-26.54-2.37,11.58-7,12.19-8.45,15.19-.28.56-.69-1.25-.57-1.87A18.12,18.12,0,0,1,348.71,35c2.89-3.09,5.51-12.46-2.09-19.41,1.23,5-3.15,15.09-3.15,15.09s-2.93-10.56-3.14-15.09c-7.42,10.77-5,16.32-2.11,19.41,2.55,2.72,3.38,8.94,3.49,10-2.23-4.77-6.66-3-9.94-14.79-7.23,19.17,6.3,21.64,10.37,25.7.47.47.31,5.51.31,5.51-1.73-3.65-13.23-5.1-16.47-22-7.26,26.46,13.95,28.23,16.25,34a40.07,40.07,0,0,1,1.24,5S344.18,74.89,344.71,73.4Z" style="fill:#c7b299"/><path d="M401.36,73.4c2.19-6.22,24.44-9.11,15.74-34.27-3.79,19-14.28,17.5-15.73,23.94,0,0,.19-6.69.65-7.18,4-4.36,18.09-10.08,8.64-26.54-2.37,11.58-7,12.19-8.45,15.19-.27.56-.68-1.25-.57-1.87A18,18,0,0,1,405.37,35c2.89-3.09,5.51-12.46-2.1-19.41,1.23,5-3.15,15.09-3.15,15.09S397.19,20.14,397,15.61c-7.42,10.77-5,16.32-2.1,19.41,2.54,2.72,3.37,8.94,3.48,10-2.23-4.77-6.66-3-9.93-14.79-7.24,19.17,6.29,21.64,10.36,25.7.47.47.31,5.51.31,5.51-1.73-3.65-13.23-5.1-16.46-22-7.27,26.46,13.94,28.23,16.24,34a40.07,40.07,0,0,1,1.24,5S400.83,74.89,401.36,73.4Z" style="fill:#c7b299"/><path d="M33.12,60.42c2.2,6.21,24.45,9.1,15.75,34.26-3.8-19-14.29-17.49-15.74-23.93,0,0,.2,6.68.66,7.18,4,4.35,18.09,10.08,8.63,26.54-2.37-11.58-7-12.2-8.45-15.19-.27-.56-.68,1.25-.57,1.87a18.26,18.26,0,0,0,3.73,7.65c2.89,3.09,5.51,12.46-2.1,19.41,1.23-5-3.14-15.09-3.14-15.09S29,113.67,28.75,118.21c-7.42-10.78-5-16.32-2.11-19.41,2.54-2.72,3.37-8.94,3.49-10-2.23,4.77-6.66,3-9.94,14.79C13,84.46,26.48,82,30.55,77.93c.48-.47.32-5.51.32-5.51-1.73,3.65-13.24,5.09-16.47,22-7.27-26.46,14-28.22,16.25-34a40.07,40.07,0,0,0,1.24-5S32.6,58.93,33.12,60.42Z" style="fill:#c7b299"/><path d="M89.78,60.42c2.19,6.21,24.44,9.1,15.74,34.26-3.8-19-14.29-17.49-15.74-23.93,0,0,.2,6.68.66,7.18,4,4.35,18.09,10.08,8.63,26.54-2.36-11.58-7-12.2-8.45-15.19-.27-.56-.68,1.25-.57,1.87a18.26,18.26,0,0,0,3.73,7.65c2.89,3.09,5.51,12.46-2.09,19.41,1.22-5-3.15-15.09-3.15-15.09s-2.93,10.55-3.14,15.09c-7.42-10.78-5-16.32-2.11-19.41,2.55-2.72,3.38-8.94,3.49-10-2.23,4.77-6.66,3-9.94,14.79C69.61,84.46,83.13,82,87.2,77.93c.48-.47.32-5.51.32-5.51-1.73,3.65-13.23,5.09-16.47,22C63.78,68,85,66.22,87.3,60.42a40.07,40.07,0,0,0,1.24-5S89.25,58.93,89.78,60.42Z" style="fill:#c7b299"/><path d="M146.43,60.42c2.19,6.21,24.44,9.1,15.74,34.26-3.79-19-14.29-17.49-15.74-23.93,0,0,.2,6.68.66,7.18,4,4.35,18.09,10.08,8.63,26.54-2.36-11.58-7-12.2-8.44-15.19-.28-.56-.69,1.25-.57,1.87a18.11,18.11,0,0,0,3.72,7.65c2.89,3.09,5.51,12.46-2.09,19.41,1.22-5-3.15-15.09-3.15-15.09s-2.93,10.55-3.14,15.09c-7.42-10.78-5-16.32-2.11-19.41,2.55-2.72,3.38-8.94,3.49-10-2.23,4.77-6.66,3-9.94,14.79-7.23-19.17,6.3-21.64,10.37-25.7.47-.47.31-5.51.31-5.51-1.73,3.65-13.23,5.09-16.47,22-7.26-26.46,14-28.22,16.25-34a40.07,40.07,0,0,0,1.24-5S145.9,58.93,146.43,60.42Z" style="fill:#c7b299"/><path d="M203.08,60.42c2.19,6.21,24.44,9.1,15.74,34.26-3.79-19-14.28-17.49-15.73-23.93,0,0,.19,6.68.65,7.18,4,4.35,18.09,10.08,8.64,26.54-2.37-11.58-7-12.2-8.45-15.19-.27-.56-.68,1.25-.57,1.87a18.14,18.14,0,0,0,3.73,7.65c2.89,3.09,5.51,12.46-2.1,19.41,1.23-5-3.15-15.09-3.15-15.09s-2.93,10.55-3.14,15.09c-7.42-10.78-5-16.32-2.11-19.41,2.55-2.72,3.38-8.94,3.49-10-2.23,4.77-6.66,3-9.93,14.79-7.24-19.17,6.29-21.64,10.36-25.7.47-.47.31-5.51.31-5.51-1.73,3.65-13.23,5.09-16.47,22-7.26-26.46,14-28.22,16.25-34a40.07,40.07,0,0,0,1.24-5S202.55,58.93,203.08,60.42Z" style="fill:#c7b299"/><path d="M259.73,60.42c2.19,6.21,24.44,9.1,15.74,34.26-3.79-19-14.28-17.49-15.73-23.93,0,0,.19,6.68.65,7.18,4,4.35,18.09,10.08,8.64,26.54-2.37-11.58-7-12.2-8.45-15.19-.27-.56-.68,1.25-.57,1.87a18.14,18.14,0,0,0,3.73,7.65c2.89,3.09,5.51,12.46-2.1,19.41,1.23-5-3.15-15.09-3.15-15.09s-2.93,10.55-3.14,15.09c-7.42-10.78-5-16.32-2.1-19.41,2.54-2.72,3.37-8.94,3.48-10-2.23,4.77-6.66,3-9.93,14.79-7.24-19.17,6.29-21.64,10.36-25.7.47-.47.31-5.51.31-5.51-1.73,3.65-13.23,5.09-16.46,22C233.74,68,255,66.22,257.25,60.42a40.07,40.07,0,0,0,1.24-5S259.2,58.93,259.73,60.42Z" style="fill:#c7b299"/><path d="M316.38,60.42c2.2,6.21,24.44,9.1,15.74,34.26-3.79-19-14.28-17.49-15.73-23.93,0,0,.2,6.68.65,7.18,4,4.35,18.09,10.08,8.64,26.54-2.37-11.58-7-12.2-8.45-15.19-.27-.56-.68,1.25-.57,1.87a18.14,18.14,0,0,0,3.73,7.65c2.89,3.09,5.51,12.46-2.1,19.41,1.23-5-3.15-15.09-3.15-15.09s-2.92,10.55-3.13,15.09c-7.43-10.78-5-16.32-2.11-19.41,2.54-2.72,3.37-8.94,3.48-10-2.23,4.77-6.66,3-9.93,14.79-7.24-19.17,6.29-21.64,10.36-25.7.47-.47.31-5.51.31-5.51-1.73,3.65-13.23,5.09-16.46,22-7.27-26.46,13.95-28.22,16.25-34a39.47,39.47,0,0,0,1.23-5S315.86,58.93,316.38,60.42Z" style="fill:#c7b299"/><path d="M373,60.42c2.2,6.21,24.44,9.1,15.74,34.26C385,75.72,374.49,77.19,373,70.75c0,0,.2,6.68.66,7.18,4,4.35,18.09,10.08,8.63,26.54-2.37-11.58-7-12.2-8.45-15.19-.27-.56-.68,1.25-.57,1.87A18.14,18.14,0,0,0,377,98.8c2.89,3.09,5.51,12.46-2.1,19.41,1.23-5-3.14-15.09-3.14-15.09s-2.93,10.55-3.14,15.09c-7.42-10.78-5-16.32-2.11-19.41,2.54-2.72,3.37-8.94,3.49-10-2.23,4.77-6.66,3-9.94,14.79-7.24-19.17,6.29-21.64,10.36-25.7.47-.47.31-5.51.31-5.51-1.73,3.65-13.23,5.09-16.46,22C347,68,368.26,66.22,370.56,60.42a40.07,40.07,0,0,0,1.24-5S372.51,58.93,373,60.42Z" style="fill:#c7b299"/><path d="M429.68,60.42c2.2,6.21,24.45,9.1,15.75,34.26-3.8-19-14.29-17.49-15.74-23.93,0,0,.2,6.68.66,7.18,4,4.35,18.09,10.08,8.63,26.54-2.37-11.58-7-12.2-8.45-15.19-.27-.56-.68,1.25-.57,1.87a18.26,18.26,0,0,0,3.73,7.65c2.89,3.09,5.51,12.46-2.09,19.41,1.22-5-3.15-15.09-3.15-15.09s-2.93,10.55-3.14,15.09c-7.42-10.78-5-16.32-2.11-19.41,2.54-2.72,3.38-8.94,3.49-10-2.23,4.77-6.66,3-9.94,14.79C409.52,84.46,423,82,427.11,77.93c.48-.47.32-5.51.32-5.51-1.73,3.65-13.23,5.09-16.47,22-7.27-26.46,14-28.22,16.25-34a40.07,40.07,0,0,0,1.24-5S429.16,58.93,429.68,60.42Z" style="fill:#c7b299"/><path d="M4.8,148.09C7,141.88,29.24,139,20.54,113.83c-3.79,19-14.28,17.49-15.73,23.93,0,0,.19-6.69.65-7.18,4-4.36,18.09-10.08,8.64-26.54-2.37,11.58-7,12.19-8.45,15.19-.27.56-.68-1.25-.57-1.87a18,18,0,0,1,3.73-7.65c2.88-3.09,5.51-12.46-2.1-19.41,1.23,5-3.15,15.09-3.15,15.09S.63,94.83.42,90.3c-7.42,10.77-5,16.32-2.11,19.41,2.55,2.72,3.38,8.94,3.49,10-2.23-4.77-6.66-3-9.93-14.79-7.24,19.17,6.29,21.64,10.36,25.7.47.47.31,5.51.31,5.51-1.73-3.65-13.23-5.09-16.47-22-7.26,26.46,14,28.23,16.25,34a40.07,40.07,0,0,1,1.24,5S4.27,149.58,4.8,148.09Z" style="fill:#c7b299"/><path d="M61.45,148.09c2.19-6.21,24.44-9.1,15.74-34.26-3.79,19-14.28,17.49-15.73,23.93,0,0,.19-6.69.65-7.18,4-4.36,18.09-10.08,8.64-26.54-2.37,11.58-7,12.19-8.45,15.19-.27.56-.68-1.25-.57-1.87a18,18,0,0,1,3.73-7.65c2.89-3.09,5.51-12.46-2.1-19.41,1.23,5-3.15,15.09-3.15,15.09S57.28,94.83,57.07,90.3c-7.42,10.77-5,16.32-2.1,19.41,2.54,2.72,3.37,8.94,3.48,10-2.23-4.77-6.66-3-9.93-14.79-7.24,19.17,6.29,21.64,10.36,25.7.47.47.31,5.51.31,5.51-1.73-3.65-13.23-5.09-16.46-22-7.27,26.46,13.94,28.23,16.24,34a40.07,40.07,0,0,1,1.24,5S60.92,149.58,61.45,148.09Z" style="fill:#c7b299"/><path d="M118.1,148.09c2.2-6.21,24.44-9.1,15.74-34.26-3.79,19-14.28,17.49-15.73,23.93,0,0,.2-6.69.65-7.18,4-4.36,18.09-10.08,8.64-26.54-2.37,11.58-7,12.19-8.45,15.19-.27.56-.68-1.25-.57-1.87a18,18,0,0,1,3.73-7.65c2.89-3.09,5.51-12.46-2.1-19.41,1.23,5-3.15,15.09-3.15,15.09s-2.92-10.56-3.14-15.09c-7.42,10.77-5,16.32-2.1,19.41,2.54,2.72,3.37,8.94,3.48,10-2.23-4.77-6.66-3-9.93-14.79-7.24,19.17,6.29,21.64,10.36,25.7.47.47.31,5.51.31,5.51-1.73-3.65-13.23-5.09-16.46-22-7.27,26.46,13.94,28.23,16.25,34a39.47,39.47,0,0,1,1.23,5S117.58,149.58,118.1,148.09Z" style="fill:#c7b299"/><path d="M174.75,148.09c2.2-6.21,24.44-9.1,15.74-34.26-3.79,19-14.28,17.49-15.73,23.93,0,0,.2-6.69.66-7.18,4-4.36,18.09-10.08,8.63-26.54-2.37,11.58-7,12.19-8.45,15.19-.27.56-.68-1.25-.57-1.87a18,18,0,0,1,3.73-7.65c2.89-3.09,5.51-12.46-2.1-19.41,1.23,5-3.15,15.09-3.15,15.09s-2.92-10.56-3.13-15.09c-7.43,10.77-5,16.32-2.11,19.41,2.54,2.72,3.37,8.94,3.49,10-2.23-4.77-6.66-3-9.94-14.79-7.24,19.17,6.29,21.64,10.36,25.7.47.47.31,5.51.31,5.51-1.73-3.65-13.23-5.09-16.46-22-7.27,26.46,13.95,28.23,16.25,34a39.47,39.47,0,0,1,1.23,5S174.23,149.58,174.75,148.09Z" style="fill:#c7b299"/><path d="M231.4,148.09c2.2-6.21,24.45-9.1,15.75-34.26-3.8,19-14.29,17.49-15.74,23.93,0,0,.2-6.69.66-7.18,4-4.36,18.09-10.08,8.63-26.54-2.37,11.58-7,12.19-8.45,15.19-.27.56-.68-1.25-.57-1.87a18.15,18.15,0,0,1,3.73-7.65c2.89-3.09,5.51-12.46-2.09-19.41,1.22,5-3.15,15.09-3.15,15.09S227.24,94.83,227,90.3c-7.42,10.77-5,16.32-2.11,19.41,2.54,2.72,3.37,8.94,3.49,10-2.23-4.77-6.66-3-9.94-14.79-7.23,19.17,6.29,21.64,10.36,25.7.48.47.32,5.51.32,5.51-1.73-3.65-13.23-5.09-16.47-22-7.27,26.46,13.95,28.23,16.25,34a40.07,40.07,0,0,1,1.24,5S230.88,149.58,231.4,148.09Z" style="fill:#c7b299"/><path d="M288.06,148.09c2.19-6.21,24.44-9.1,15.74-34.26-3.79,19-14.29,17.49-15.74,23.93,0,0,.2-6.69.66-7.18,4-4.36,18.09-10.08,8.63-26.54-2.36,11.58-7,12.19-8.45,15.19-.27.56-.68-1.25-.57-1.87a18.15,18.15,0,0,1,3.73-7.65c2.89-3.09,5.51-12.46-2.09-19.41,1.22,5-3.15,15.09-3.15,15.09s-2.93-10.56-3.14-15.09c-7.42,10.77-5,16.32-2.11,19.41,2.55,2.72,3.38,8.94,3.49,10-2.23-4.77-6.66-3-9.94-14.79-7.23,19.17,6.3,21.64,10.36,25.7.48.47.32,5.51.32,5.51-1.73-3.65-13.23-5.09-16.47-22-7.27,26.46,13.95,28.23,16.25,34a40.07,40.07,0,0,1,1.24,5S287.53,149.58,288.06,148.09Z" style="fill:#c7b299"/><path d="M344.71,148.09c2.19-6.21,24.44-9.1,15.74-34.26-3.79,19-14.29,17.49-15.74,23.93,0,0,.2-6.69.66-7.18,4-4.36,18.09-10.08,8.64-26.54-2.37,11.58-7,12.19-8.45,15.19-.28.56-.69-1.25-.57-1.87a18.12,18.12,0,0,1,3.72-7.65c2.89-3.09,5.51-12.46-2.09-19.41,1.23,5-3.15,15.09-3.15,15.09s-2.93-10.56-3.14-15.09c-7.42,10.77-5,16.32-2.11,19.41,2.55,2.72,3.38,8.94,3.49,10-2.23-4.77-6.66-3-9.94-14.79-7.23,19.17,6.3,21.64,10.37,25.7.47.47.31,5.51.31,5.51-1.73-3.65-13.23-5.09-16.47-22-7.26,26.46,13.95,28.23,16.25,34a40.07,40.07,0,0,1,1.24,5S344.18,149.58,344.71,148.09Z" style="fill:#c7b299"/><path d="M401.36,148.09c2.19-6.21,24.44-9.1,15.74-34.26-3.79,19-14.28,17.49-15.73,23.93,0,0,.19-6.69.65-7.18,4-4.36,18.09-10.08,8.64-26.54-2.37,11.58-7,12.19-8.45,15.19-.27.56-.68-1.25-.57-1.87a18,18,0,0,1,3.73-7.65c2.89-3.09,5.51-12.46-2.1-19.41,1.23,5-3.15,15.09-3.15,15.09S397.19,94.83,397,90.3c-7.42,10.77-5,16.32-2.1,19.41,2.54,2.72,3.37,8.94,3.48,10-2.23-4.77-6.66-3-9.93-14.79-7.24,19.17,6.29,21.64,10.36,25.7.47.47.31,5.51.31,5.51-1.73-3.65-13.23-5.09-16.46-22-7.27,26.46,13.94,28.23,16.24,34a40.07,40.07,0,0,1,1.24,5S400.83,149.58,401.36,148.09Z" style="fill:#c7b299"/><path d="M33.12,135.11c2.2,6.21,24.45,9.1,15.75,34.26-3.8-19-14.29-17.49-15.74-23.93,0,0,.2,6.69.66,7.18,4,4.35,18.09,10.08,8.63,26.54C40.05,167.58,35.42,167,34,164c-.27-.56-.68,1.25-.57,1.87a18.2,18.2,0,0,0,3.73,7.65C40,176.58,42.64,186,35,192.9c1.23-5-3.14-15.09-3.14-15.09S29,188.37,28.75,192.9c-7.42-10.77-5-16.32-2.11-19.41,2.54-2.72,3.37-8.94,3.49-10-2.23,4.77-6.66,3.05-9.94,14.79-7.23-19.17,6.29-21.64,10.36-25.7.48-.47.32-5.51.32-5.51-1.73,3.65-13.24,5.09-16.47,22-7.27-26.46,14-28.23,16.25-34a40.07,40.07,0,0,0,1.24-5S32.6,133.62,33.12,135.11Z" style="fill:#c7b299"/><path d="M89.78,135.11c2.19,6.21,24.44,9.1,15.74,34.26-3.8-19-14.29-17.49-15.74-23.93,0,0,.2,6.69.66,7.18,4,4.35,18.09,10.08,8.63,26.54-2.36-11.58-7-12.2-8.45-15.19-.27-.56-.68,1.25-.57,1.87a18.2,18.2,0,0,0,3.73,7.65c2.89,3.09,5.51,12.46-2.09,19.41,1.22-5-3.15-15.09-3.15-15.09s-2.93,10.56-3.14,15.09c-7.42-10.77-5-16.32-2.11-19.41,2.55-2.72,3.38-8.94,3.49-10-2.23,4.77-6.66,3.05-9.94,14.79-7.23-19.17,6.29-21.64,10.36-25.7.48-.47.32-5.51.32-5.51-1.73,3.65-13.23,5.09-16.47,22-7.27-26.46,14-28.23,16.25-34a40.07,40.07,0,0,0,1.24-5S89.25,133.62,89.78,135.11Z" style="fill:#c7b299"/><path d="M146.43,135.11c2.19,6.21,24.44,9.1,15.74,34.26-3.79-19-14.29-17.49-15.74-23.93,0,0,.2,6.69.66,7.18,4,4.35,18.09,10.08,8.63,26.54-2.36-11.58-7-12.2-8.44-15.19-.28-.56-.69,1.25-.57,1.87a18.05,18.05,0,0,0,3.72,7.65c2.89,3.09,5.51,12.46-2.09,19.41,1.22-5-3.15-15.09-3.15-15.09s-2.93,10.56-3.14,15.09c-7.42-10.77-5-16.32-2.11-19.41,2.55-2.72,3.38-8.94,3.49-10-2.23,4.77-6.66,3.05-9.94,14.79-7.23-19.17,6.3-21.64,10.37-25.7.47-.47.31-5.51.31-5.51-1.73,3.65-13.23,5.09-16.47,22-7.26-26.46,14-28.23,16.25-34a40.07,40.07,0,0,0,1.24-5S145.9,133.62,146.43,135.11Z" style="fill:#c7b299"/><path d="M203.08,135.11c2.19,6.21,24.44,9.1,15.74,34.26-3.79-19-14.28-17.49-15.73-23.93,0,0,.19,6.69.65,7.18,4,4.35,18.09,10.08,8.64,26.54-2.37-11.58-7-12.2-8.45-15.19-.27-.56-.68,1.25-.57,1.87a18.08,18.08,0,0,0,3.73,7.65C210,176.58,212.6,186,205,192.9c1.23-5-3.15-15.09-3.15-15.09s-2.93,10.56-3.14,15.09c-7.42-10.77-5-16.32-2.11-19.41,2.55-2.72,3.38-8.94,3.49-10-2.23,4.77-6.66,3.05-9.93,14.79-7.24-19.17,6.29-21.64,10.36-25.7.47-.47.31-5.51.31-5.51-1.73,3.65-13.23,5.09-16.47,22-7.26-26.46,14-28.23,16.25-34a40.07,40.07,0,0,0,1.24-5S202.55,133.62,203.08,135.11Z" style="fill:#c7b299"/><path d="M259.73,135.11c2.19,6.21,24.44,9.1,15.74,34.26-3.79-19-14.28-17.49-15.73-23.93,0,0,.19,6.69.65,7.18,4,4.35,18.09,10.08,8.64,26.54-2.37-11.58-7-12.2-8.45-15.19-.27-.56-.68,1.25-.57,1.87a18.08,18.08,0,0,0,3.73,7.65c2.89,3.09,5.51,12.46-2.1,19.41,1.23-5-3.15-15.09-3.15-15.09s-2.93,10.56-3.14,15.09c-7.42-10.77-5-16.32-2.1-19.41,2.54-2.72,3.37-8.94,3.48-10-2.23,4.77-6.66,3.05-9.93,14.79-7.24-19.17,6.29-21.64,10.36-25.7.47-.47.31-5.51.31-5.51-1.73,3.65-13.23,5.09-16.46,22-7.27-26.46,13.94-28.23,16.24-34a40.07,40.07,0,0,0,1.24-5S259.2,133.62,259.73,135.11Z" style="fill:#c7b299"/><path d="M316.38,135.11c2.2,6.21,24.44,9.1,15.74,34.26-3.79-19-14.28-17.49-15.73-23.93,0,0,.2,6.69.65,7.18,4,4.35,18.09,10.08,8.64,26.54-2.37-11.58-7-12.2-8.45-15.19-.27-.56-.68,1.25-.57,1.87a18.08,18.08,0,0,0,3.73,7.65c2.89,3.09,5.51,12.46-2.1,19.41,1.23-5-3.15-15.09-3.15-15.09s-2.92,10.56-3.13,15.09c-7.43-10.77-5-16.32-2.11-19.41,2.54-2.72,3.37-8.94,3.48-10-2.23,4.77-6.66,3.05-9.93,14.79-7.24-19.17,6.29-21.64,10.36-25.7.47-.47.31-5.51.31-5.51-1.73,3.65-13.23,5.09-16.46,22-7.27-26.46,13.95-28.23,16.25-34a39.47,39.47,0,0,0,1.23-5S315.86,133.62,316.38,135.11Z" style="fill:#c7b299"/><path d="M373,135.11c2.2,6.21,24.44,9.1,15.74,34.26-3.79-19-14.28-17.49-15.73-23.93,0,0,.2,6.69.66,7.18,4,4.35,18.09,10.08,8.63,26.54-2.37-11.58-7-12.2-8.45-15.19-.27-.56-.68,1.25-.57,1.87a18.08,18.08,0,0,0,3.73,7.65c2.89,3.09,5.51,12.46-2.1,19.41,1.23-5-3.14-15.09-3.14-15.09s-2.93,10.56-3.14,15.09c-7.42-10.77-5-16.32-2.11-19.41,2.54-2.72,3.37-8.94,3.49-10-2.23,4.77-6.66,3.05-9.94,14.79-7.24-19.17,6.29-21.64,10.36-25.7.47-.47.31-5.51.31-5.51-1.73,3.65-13.23,5.09-16.46,22-7.27-26.46,13.95-28.23,16.25-34a40.07,40.07,0,0,0,1.24-5S372.51,133.62,373,135.11Z" style="fill:#c7b299"/><path d="M429.68,135.11c2.2,6.21,24.45,9.1,15.75,34.26-3.8-19-14.29-17.49-15.74-23.93,0,0,.2,6.69.66,7.18,4,4.35,18.09,10.08,8.63,26.54-2.37-11.58-7-12.2-8.45-15.19-.27-.56-.68,1.25-.57,1.87a18.2,18.2,0,0,0,3.73,7.65c2.89,3.09,5.51,12.46-2.09,19.41,1.22-5-3.15-15.09-3.15-15.09s-2.93,10.56-3.14,15.09c-7.42-10.77-5-16.32-2.11-19.41,2.54-2.72,3.38-8.94,3.49-10-2.23,4.77-6.66,3.05-9.94,14.79-7.23-19.17,6.29-21.64,10.36-25.7.48-.47.32-5.51.32-5.51-1.73,3.65-13.23,5.09-16.47,22-7.27-26.46,14-28.23,16.25-34a40.07,40.07,0,0,0,1.24-5S429.16,133.62,429.68,135.11Z" style="fill:#c7b299"/><path d="M4.8,222.78c2.19-6.21,24.44-9.1,15.74-34.26-3.79,19-14.28,17.49-15.73,23.93,0,0,.19-6.69.65-7.18,4-4.35,18.09-10.08,8.64-26.54-2.37,11.58-7,12.2-8.45,15.19-.27.56-.68-1.25-.57-1.87a18.08,18.08,0,0,1,3.73-7.65c2.88-3.09,5.51-12.46-2.1-19.41,1.23,5-3.15,15.09-3.15,15.09S.63,169.52.42,165c-7.42,10.78-5,16.32-2.11,19.41,2.55,2.72,3.38,8.94,3.49,10-2.23-4.77-6.66-3.05-9.93-14.79-7.24,19.17,6.29,21.64,10.36,25.7.47.47.31,5.51.31,5.51-1.73-3.65-13.23-5.09-16.47-22-7.26,26.47,14,28.23,16.25,34a40.07,40.07,0,0,1,1.24,5S4.27,224.27,4.8,222.78Z" style="fill:#c7b299"/><path d="M61.45,222.78c2.19-6.21,24.44-9.1,15.74-34.26-3.79,19-14.28,17.49-15.73,23.93,0,0,.19-6.69.65-7.18,4-4.35,18.09-10.08,8.64-26.54-2.37,11.58-7,12.2-8.45,15.19-.27.56-.68-1.25-.57-1.87a18.08,18.08,0,0,1,3.73-7.65c2.89-3.09,5.51-12.46-2.1-19.41,1.23,5-3.15,15.09-3.15,15.09S57.28,169.52,57.07,165c-7.42,10.78-5,16.32-2.1,19.41,2.54,2.72,3.37,8.94,3.48,10-2.23-4.77-6.66-3.05-9.93-14.79-7.24,19.17,6.29,21.64,10.36,25.7.47.47.31,5.51.31,5.51-1.73-3.65-13.23-5.09-16.46-22C35.46,215.22,56.67,217,59,222.78a40.07,40.07,0,0,1,1.24,5S60.92,224.27,61.45,222.78Z" style="fill:#c7b299"/><path d="M118.1,222.78c2.2-6.21,24.44-9.1,15.74-34.26-3.79,19-14.28,17.49-15.73,23.93,0,0,.2-6.69.65-7.18,4-4.35,18.09-10.08,8.64-26.54-2.37,11.58-7,12.2-8.45,15.19-.27.56-.68-1.25-.57-1.87a18.08,18.08,0,0,1,3.73-7.65c2.89-3.09,5.51-12.46-2.1-19.41,1.23,5-3.15,15.09-3.15,15.09s-2.92-10.56-3.14-15.09c-7.42,10.78-5,16.32-2.1,19.41,2.54,2.72,3.37,8.94,3.48,10-2.23-4.77-6.66-3.05-9.93-14.79-7.24,19.17,6.29,21.64,10.36,25.7.47.47.31,5.51.31,5.51-1.73-3.65-13.23-5.09-16.46-22-7.27,26.47,13.94,28.23,16.25,34a39.47,39.47,0,0,1,1.23,5S117.58,224.27,118.1,222.78Z" style="fill:#c7b299"/><path d="M174.75,222.78c2.2-6.21,24.44-9.1,15.74-34.26-3.79,19-14.28,17.49-15.73,23.93,0,0,.2-6.69.66-7.18,4-4.35,18.09-10.08,8.63-26.54-2.37,11.58-7,12.2-8.45,15.19-.27.56-.68-1.25-.57-1.87a18.08,18.08,0,0,1,3.73-7.65c2.89-3.09,5.51-12.46-2.1-19.41,1.23,5-3.15,15.09-3.15,15.09s-2.92-10.56-3.13-15.09c-7.43,10.78-5,16.32-2.11,19.41,2.54,2.72,3.37,8.94,3.49,10-2.23-4.77-6.66-3.05-9.94-14.79-7.24,19.17,6.29,21.64,10.36,25.7.47.47.31,5.51.31,5.51-1.73-3.65-13.23-5.09-16.46-22-7.27,26.47,13.95,28.23,16.25,34a39.47,39.47,0,0,1,1.23,5S174.23,224.27,174.75,222.78Z" style="fill:#c7b299"/><path d="M231.4,222.78c2.2-6.21,24.45-9.1,15.75-34.26-3.8,19-14.29,17.49-15.74,23.93,0,0,.2-6.69.66-7.18,4-4.35,18.09-10.08,8.63-26.54-2.37,11.58-7,12.2-8.45,15.19-.27.56-.68-1.25-.57-1.87a18.2,18.2,0,0,1,3.73-7.65c2.89-3.09,5.51-12.46-2.09-19.41,1.22,5-3.15,15.09-3.15,15.09S227.24,169.52,227,165c-7.42,10.78-5,16.32-2.11,19.41,2.54,2.72,3.37,8.94,3.49,10-2.23-4.77-6.66-3.05-9.94-14.79-7.23,19.17,6.29,21.64,10.36,25.7.48.47.32,5.51.32,5.51-1.73-3.65-13.23-5.09-16.47-22-7.27,26.47,13.95,28.23,16.25,34a40.07,40.07,0,0,1,1.24,5S230.88,224.27,231.4,222.78Z" style="fill:#c7b299"/><path d="M288.06,222.78c2.19-6.21,24.44-9.1,15.74-34.26-3.79,19-14.29,17.49-15.74,23.93,0,0,.2-6.69.66-7.18,4-4.35,18.09-10.08,8.63-26.54-2.36,11.58-7,12.2-8.45,15.19-.27.56-.68-1.25-.57-1.87a18.2,18.2,0,0,1,3.73-7.65c2.89-3.09,5.51-12.46-2.09-19.41,1.22,5-3.15,15.09-3.15,15.09s-2.93-10.56-3.14-15.09c-7.42,10.78-5,16.32-2.11,19.41,2.55,2.72,3.38,8.94,3.49,10-2.23-4.77-6.66-3.05-9.94-14.79-7.23,19.17,6.3,21.64,10.36,25.7.48.47.32,5.51.32,5.51-1.73-3.65-13.23-5.09-16.47-22-7.27,26.47,13.95,28.23,16.25,34a40.07,40.07,0,0,1,1.24,5S287.53,224.27,288.06,222.78Z" style="fill:#c7b299"/><path d="M344.71,222.78c2.19-6.21,24.44-9.1,15.74-34.26-3.79,19-14.29,17.49-15.74,23.93,0,0,.2-6.69.66-7.18,4-4.35,18.09-10.08,8.64-26.54-2.37,11.58-7,12.2-8.45,15.19-.28.56-.69-1.25-.57-1.87a18.17,18.17,0,0,1,3.72-7.65c2.89-3.09,5.51-12.46-2.09-19.41,1.23,5-3.15,15.09-3.15,15.09s-2.93-10.56-3.14-15.09c-7.42,10.78-5,16.32-2.11,19.41,2.55,2.72,3.38,8.94,3.49,10-2.23-4.77-6.66-3.05-9.94-14.79-7.23,19.17,6.3,21.64,10.37,25.7.47.47.31,5.51.31,5.51-1.73-3.65-13.23-5.09-16.47-22-7.26,26.47,13.95,28.23,16.25,34a40.07,40.07,0,0,1,1.24,5S344.18,224.27,344.71,222.78Z" style="fill:#c7b299"/><path d="M401.36,222.78c2.19-6.21,24.44-9.1,15.74-34.26-3.79,19-14.28,17.49-15.73,23.93,0,0,.19-6.69.65-7.18,4-4.35,18.09-10.08,8.64-26.54-2.37,11.58-7,12.2-8.45,15.19-.27.56-.68-1.25-.57-1.87a18.08,18.08,0,0,1,3.73-7.65c2.89-3.09,5.51-12.46-2.1-19.41,1.23,5-3.15,15.09-3.15,15.09S397.19,169.52,397,165c-7.42,10.78-5,16.32-2.1,19.41,2.54,2.72,3.37,8.94,3.48,10-2.23-4.77-6.66-3.05-9.93-14.79-7.24,19.17,6.29,21.64,10.36,25.7.47.47.31,5.51.31,5.51-1.73-3.65-13.23-5.09-16.46-22-7.27,26.47,13.94,28.23,16.24,34a40.07,40.07,0,0,1,1.24,5S400.83,224.27,401.36,222.78Z" style="fill:#c7b299"/><path d="M33.12,209.8c2.2,6.22,24.45,9.11,15.75,34.27-3.8-19-14.29-17.5-15.74-23.94,0,0,.2,6.69.66,7.18,4,4.36,18.09,10.08,8.63,26.54-2.37-11.58-7-12.19-8.45-15.19-.27-.56-.68,1.25-.57,1.87a18.15,18.15,0,0,0,3.73,7.65c2.89,3.09,5.51,12.46-2.1,19.41,1.23-5-3.14-15.09-3.14-15.09S29,263.06,28.75,267.59c-7.42-10.77-5-16.32-2.11-19.41,2.54-2.72,3.37-8.94,3.49-10C27.9,243,23.47,241.27,20.19,253c-7.23-19.17,6.29-21.64,10.36-25.7.48-.47.32-5.51.32-5.51-1.73,3.65-13.24,5.09-16.47,22-7.27-26.46,14-28.23,16.25-34a40.07,40.07,0,0,0,1.24-5S32.6,208.31,33.12,209.8Z" style="fill:#c7b299"/><path d="M89.78,209.8c2.19,6.22,24.44,9.11,15.74,34.27-3.8-19-14.29-17.5-15.74-23.94,0,0,.2,6.69.66,7.18,4,4.36,18.09,10.08,8.63,26.54-2.36-11.58-7-12.19-8.45-15.19-.27-.56-.68,1.25-.57,1.87a18.15,18.15,0,0,0,3.73,7.65c2.89,3.09,5.51,12.46-2.09,19.41,1.22-5-3.15-15.09-3.15-15.09s-2.93,10.56-3.14,15.09c-7.42-10.77-5-16.32-2.11-19.41,2.55-2.72,3.38-8.94,3.49-10-2.23,4.77-6.66,3.05-9.94,14.79-7.23-19.17,6.29-21.64,10.36-25.7.48-.47.32-5.51.32-5.51-1.73,3.65-13.23,5.09-16.47,22-7.27-26.46,14-28.23,16.25-34a40.07,40.07,0,0,0,1.24-5S89.25,208.31,89.78,209.8Z" style="fill:#c7b299"/><path d="M146.43,209.8c2.19,6.22,24.44,9.11,15.74,34.27-3.79-19-14.29-17.5-15.74-23.94,0,0,.2,6.69.66,7.18,4,4.36,18.09,10.08,8.63,26.54-2.36-11.58-7-12.19-8.44-15.19-.28-.56-.69,1.25-.57,1.87a18,18,0,0,0,3.72,7.65c2.89,3.09,5.51,12.46-2.09,19.41,1.22-5-3.15-15.09-3.15-15.09s-2.93,10.56-3.14,15.09c-7.42-10.77-5-16.32-2.11-19.41,2.55-2.72,3.38-8.94,3.49-10-2.23,4.77-6.66,3.05-9.94,14.79-7.23-19.17,6.3-21.64,10.37-25.7.47-.47.31-5.51.31-5.51-1.73,3.65-13.23,5.09-16.47,22-7.26-26.46,14-28.23,16.25-34a40.07,40.07,0,0,0,1.24-5S145.9,208.31,146.43,209.8Z" style="fill:#c7b299"/><path d="M203.08,209.8c2.19,6.22,24.44,9.11,15.74,34.27-3.79-19-14.28-17.5-15.73-23.94,0,0,.19,6.69.65,7.18,4,4.36,18.09,10.08,8.64,26.54-2.37-11.58-7-12.19-8.45-15.19-.27-.56-.68,1.25-.57,1.87a18,18,0,0,0,3.73,7.65c2.89,3.09,5.51,12.46-2.1,19.41,1.23-5-3.15-15.09-3.15-15.09s-2.93,10.56-3.14,15.09c-7.42-10.77-5-16.32-2.11-19.41,2.55-2.72,3.38-8.94,3.49-10-2.23,4.77-6.66,3.05-9.93,14.79-7.24-19.17,6.29-21.64,10.36-25.7.47-.47.31-5.51.31-5.51-1.73,3.65-13.23,5.09-16.47,22-7.26-26.46,14-28.23,16.25-34a40.07,40.07,0,0,0,1.24-5S202.55,208.31,203.08,209.8Z" style="fill:#c7b299"/><path d="M259.73,209.8c2.19,6.22,24.44,9.11,15.74,34.27-3.79-19-14.28-17.5-15.73-23.94,0,0,.19,6.69.65,7.18,4,4.36,18.09,10.08,8.64,26.54-2.37-11.58-7-12.19-8.45-15.19-.27-.56-.68,1.25-.57,1.87a18,18,0,0,0,3.73,7.65c2.89,3.09,5.51,12.46-2.1,19.41,1.23-5-3.15-15.09-3.15-15.09s-2.93,10.56-3.14,15.09c-7.42-10.77-5-16.32-2.1-19.41,2.54-2.72,3.37-8.94,3.48-10-2.23,4.77-6.66,3.05-9.93,14.79-7.24-19.17,6.29-21.64,10.36-25.7.47-.47.31-5.51.31-5.51-1.73,3.65-13.23,5.09-16.46,22-7.27-26.46,13.94-28.23,16.24-34a40.07,40.07,0,0,0,1.24-5S259.2,208.31,259.73,209.8Z" style="fill:#c7b299"/><path d="M316.38,209.8c2.2,6.22,24.44,9.11,15.74,34.27-3.79-19-14.28-17.5-15.73-23.94,0,0,.2,6.69.65,7.18,4,4.36,18.09,10.08,8.64,26.54-2.37-11.58-7-12.19-8.45-15.19-.27-.56-.68,1.25-.57,1.87a18,18,0,0,0,3.73,7.65c2.89,3.09,5.51,12.46-2.1,19.41,1.23-5-3.15-15.09-3.15-15.09s-2.92,10.56-3.13,15.09c-7.43-10.77-5-16.32-2.11-19.41,2.54-2.72,3.37-8.94,3.48-10-2.23,4.77-6.66,3.05-9.93,14.79-7.24-19.17,6.29-21.64,10.36-25.7.47-.47.31-5.51.31-5.51-1.73,3.65-13.23,5.09-16.46,22-7.27-26.46,13.95-28.23,16.25-34a39.47,39.47,0,0,0,1.23-5S315.86,208.31,316.38,209.8Z" style="fill:#c7b299"/><path d="M373,209.8c2.2,6.22,24.44,9.11,15.74,34.27-3.79-19-14.28-17.5-15.73-23.94,0,0,.2,6.69.66,7.18,4,4.36,18.09,10.08,8.63,26.54-2.37-11.58-7-12.19-8.45-15.19-.27-.56-.68,1.25-.57,1.87a18,18,0,0,0,3.73,7.65c2.89,3.09,5.51,12.46-2.1,19.41,1.23-5-3.14-15.09-3.14-15.09s-2.93,10.56-3.14,15.09c-7.42-10.77-5-16.32-2.11-19.41,2.54-2.72,3.37-8.94,3.49-10-2.23,4.77-6.66,3.05-9.94,14.79-7.24-19.17,6.29-21.64,10.36-25.7.47-.47.31-5.51.31-5.51-1.73,3.65-13.23,5.09-16.46,22-7.27-26.46,13.95-28.23,16.25-34a40.07,40.07,0,0,0,1.24-5S372.51,208.31,373,209.8Z" style="fill:#c7b299"/><path d="M429.68,209.8c2.2,6.22,24.45,9.11,15.75,34.27-3.8-19-14.29-17.5-15.74-23.94,0,0,.2,6.69.66,7.18,4,4.36,18.09,10.08,8.63,26.54-2.37-11.58-7-12.19-8.45-15.19-.27-.56-.68,1.25-.57,1.87a18.15,18.15,0,0,0,3.73,7.65c2.89,3.09,5.51,12.46-2.09,19.41,1.22-5-3.15-15.09-3.15-15.09s-2.93,10.56-3.14,15.09c-7.42-10.77-5-16.32-2.11-19.41,2.54-2.72,3.38-8.94,3.49-10-2.23,4.77-6.66,3.05-9.94,14.79-7.23-19.17,6.29-21.64,10.36-25.7.48-.47.32-5.51.32-5.51-1.73,3.65-13.23,5.09-16.47,22-7.27-26.46,14-28.23,16.25-34a40.07,40.07,0,0,0,1.24-5S429.16,208.31,429.68,209.8Z" style="fill:#c7b299"/><path d="M4.8,297.48c2.19-6.22,24.44-9.11,15.74-34.27-3.79,19-14.28,17.5-15.73,23.93,0,0,.19-6.68.65-7.18,4-4.35,18.09-10.07,8.64-26.54-2.37,11.58-7,12.2-8.45,15.19-.27.56-.68-1.25-.57-1.87a18.14,18.14,0,0,1,3.73-7.65c2.88-3.09,5.51-12.46-2.1-19.41,1.23,5-3.15,15.09-3.15,15.09S.63,244.22.42,239.68C-7,250.46-4.57,256-1.69,259.09c2.55,2.72,3.38,8.94,3.49,10-2.23-4.77-6.66-3.05-9.93-14.79-7.24,19.17,6.29,21.65,10.36,25.7.47.47.31,5.51.31,5.51-1.73-3.65-13.23-5.09-16.47-22-7.26,26.46,14,28.23,16.25,34a39.62,39.62,0,0,1,1.24,4.95S4.27,299,4.8,297.48Z" style="fill:#c7b299"/><path d="M61.45,297.48c2.19-6.22,24.44-9.11,15.74-34.27-3.79,19-14.28,17.5-15.73,23.93,0,0,.19-6.68.65-7.18,4-4.35,18.09-10.07,8.64-26.54-2.37,11.58-7,12.2-8.45,15.19-.27.56-.68-1.25-.57-1.87a18.14,18.14,0,0,1,3.73-7.65c2.89-3.09,5.51-12.46-2.1-19.41,1.23,5-3.15,15.09-3.15,15.09s-2.93-10.55-3.14-15.09c-7.42,10.78-5,16.32-2.1,19.41,2.54,2.72,3.37,8.94,3.48,10-2.23-4.77-6.66-3.05-9.93-14.79-7.24,19.17,6.29,21.65,10.36,25.7.47.47.31,5.51.31,5.51-1.73-3.65-13.23-5.09-16.46-22-7.27,26.46,13.94,28.23,16.24,34a39.62,39.62,0,0,1,1.24,4.95S60.92,299,61.45,297.48Z" style="fill:#c7b299"/><path d="M118.1,297.48c2.2-6.22,24.44-9.11,15.74-34.27-3.79,19-14.28,17.5-15.73,23.93,0,0,.2-6.68.65-7.18,4-4.35,18.09-10.07,8.64-26.54-2.37,11.58-7,12.2-8.45,15.19-.27.56-.68-1.25-.57-1.87a18.14,18.14,0,0,1,3.73-7.65c2.89-3.09,5.51-12.46-2.1-19.41,1.23,5-3.15,15.09-3.15,15.09s-2.92-10.55-3.14-15.09c-7.42,10.78-5,16.32-2.1,19.41,2.54,2.72,3.37,8.94,3.48,10-2.23-4.77-6.66-3.05-9.93-14.79-7.24,19.17,6.29,21.65,10.36,25.7.47.47.31,5.51.31,5.51-1.73-3.65-13.23-5.09-16.46-22-7.27,26.46,13.94,28.23,16.25,34a39,39,0,0,1,1.23,4.95S117.58,299,118.1,297.48Z" style="fill:#c7b299"/><path d="M174.75,297.48c2.2-6.22,24.44-9.11,15.74-34.27-3.79,19-14.28,17.5-15.73,23.93,0,0,.2-6.68.66-7.18,4-4.35,18.09-10.07,8.63-26.54-2.37,11.58-7,12.2-8.45,15.19-.27.56-.68-1.25-.57-1.87a18.14,18.14,0,0,1,3.73-7.65c2.89-3.09,5.51-12.46-2.1-19.41,1.23,5-3.15,15.09-3.15,15.09s-2.92-10.55-3.13-15.09c-7.43,10.78-5,16.32-2.11,19.41,2.54,2.72,3.37,8.94,3.49,10-2.23-4.77-6.66-3.05-9.94-14.79-7.24,19.17,6.29,21.65,10.36,25.7.47.47.31,5.51.31,5.51-1.73-3.65-13.23-5.09-16.46-22-7.27,26.46,13.95,28.23,16.25,34a39,39,0,0,1,1.23,4.95S174.23,299,174.75,297.48Z" style="fill:#c7b299"/><path d="M231.4,297.48c2.2-6.22,24.45-9.11,15.75-34.27-3.8,19-14.29,17.5-15.74,23.93,0,0,.2-6.68.66-7.18,4-4.35,18.09-10.07,8.63-26.54-2.37,11.58-7,12.2-8.45,15.19-.27.56-.68-1.25-.57-1.87a18.26,18.26,0,0,1,3.73-7.65c2.89-3.09,5.51-12.46-2.09-19.41,1.22,5-3.15,15.09-3.15,15.09s-2.93-10.55-3.14-15.09c-7.42,10.78-5,16.32-2.11,19.41,2.54,2.72,3.37,8.94,3.49,10-2.23-4.77-6.66-3.05-9.94-14.79-7.23,19.17,6.29,21.65,10.36,25.7.48.47.32,5.51.32,5.51-1.73-3.65-13.23-5.09-16.47-22-7.27,26.46,13.95,28.23,16.25,34a39.62,39.62,0,0,1,1.24,4.95S230.88,299,231.4,297.48Z" style="fill:#c7b299"/><path d="M288.06,297.48c2.19-6.22,24.44-9.11,15.74-34.27-3.79,19-14.29,17.5-15.74,23.93,0,0,.2-6.68.66-7.18,4-4.35,18.09-10.07,8.63-26.54-2.36,11.58-7,12.2-8.45,15.19-.27.56-.68-1.25-.57-1.87a18.26,18.26,0,0,1,3.73-7.65c2.89-3.09,5.51-12.46-2.09-19.41,1.22,5-3.15,15.09-3.15,15.09s-2.93-10.55-3.14-15.09c-7.42,10.78-5,16.32-2.11,19.41,2.55,2.72,3.38,8.94,3.49,10-2.23-4.77-6.66-3.05-9.94-14.79-7.23,19.17,6.3,21.65,10.36,25.7.48.47.32,5.51.32,5.51-1.73-3.65-13.23-5.09-16.47-22-7.27,26.46,13.95,28.23,16.25,34a39.62,39.62,0,0,1,1.24,4.95S287.53,299,288.06,297.48Z" style="fill:#c7b299"/><path d="M344.71,297.48c2.19-6.22,24.44-9.11,15.74-34.27-3.79,19-14.29,17.5-15.74,23.93,0,0,.2-6.68.66-7.18,4-4.35,18.09-10.07,8.64-26.54-2.37,11.58-7,12.2-8.45,15.19-.28.56-.69-1.25-.57-1.87a18.23,18.23,0,0,1,3.72-7.65c2.89-3.09,5.51-12.46-2.09-19.41,1.23,5-3.15,15.09-3.15,15.09s-2.93-10.55-3.14-15.09c-7.42,10.78-5,16.32-2.11,19.41,2.55,2.72,3.38,8.94,3.49,10-2.23-4.77-6.66-3.05-9.94-14.79-7.23,19.17,6.3,21.65,10.37,25.7.47.47.31,5.51.31,5.51-1.73-3.65-13.23-5.09-16.47-22-7.26,26.46,13.95,28.23,16.25,34a39.62,39.62,0,0,1,1.24,4.95S344.18,299,344.71,297.48Z" style="fill:#c7b299"/><path d="M401.36,297.48c2.19-6.22,24.44-9.11,15.74-34.27-3.79,19-14.28,17.5-15.73,23.93,0,0,.19-6.68.65-7.18,4-4.35,18.09-10.07,8.64-26.54-2.37,11.58-7,12.2-8.45,15.19-.27.56-.68-1.25-.57-1.87a18.14,18.14,0,0,1,3.73-7.65c2.89-3.09,5.51-12.46-2.1-19.41,1.23,5-3.15,15.09-3.15,15.09s-2.93-10.55-3.14-15.09c-7.42,10.78-5,16.32-2.1,19.41,2.54,2.72,3.37,8.94,3.48,10-2.23-4.77-6.66-3.05-9.93-14.79-7.24,19.17,6.29,21.65,10.36,25.7.47.47.31,5.51.31,5.51-1.73-3.65-13.23-5.09-16.46-22-7.27,26.46,13.94,28.23,16.24,34a39.62,39.62,0,0,1,1.24,4.95S400.83,299,401.36,297.48Z" style="fill:#c7b299"/><path d="M33.12,284.49c2.2,6.22,24.45,9.11,15.75,34.27-3.8-19-14.29-17.5-15.74-23.94,0,0,.2,6.69.66,7.19,4,4.35,18.09,10.07,8.63,26.53-2.37-11.58-7-12.19-8.45-15.19-.27-.56-.68,1.25-.57,1.87a18.15,18.15,0,0,0,3.73,7.65C40,326,42.64,335.33,35,342.29c1.23-5.05-3.14-15.1-3.14-15.1s-2.93,10.56-3.14,15.1c-7.42-10.78-5-16.33-2.11-19.42,2.54-2.72,3.37-8.94,3.49-10-2.23,4.77-6.66,3-9.94,14.79C13,308.53,26.48,306.06,30.55,302c.48-.48.32-5.52.32-5.52-1.73,3.65-13.24,5.1-16.47,22-7.27-26.46,14-28.23,16.25-34a39.64,39.64,0,0,0,1.24-5S32.6,283,33.12,284.49Z" style="fill:#c7b299"/><path d="M89.78,284.49c2.19,6.22,24.44,9.11,15.74,34.27-3.8-19-14.29-17.5-15.74-23.94,0,0,.2,6.69.66,7.19,4,4.35,18.09,10.07,8.63,26.53-2.36-11.58-7-12.19-8.45-15.19-.27-.56-.68,1.25-.57,1.87a18.15,18.15,0,0,0,3.73,7.65c2.89,3.09,5.51,12.46-2.09,19.42,1.22-5.05-3.15-15.1-3.15-15.1s-2.93,10.56-3.14,15.1c-7.42-10.78-5-16.33-2.11-19.42,2.55-2.72,3.38-8.94,3.49-10-2.23,4.77-6.66,3-9.94,14.79C69.61,308.53,83.13,306.06,87.2,302c.48-.48.32-5.52.32-5.52-1.73,3.65-13.23,5.1-16.47,22-7.27-26.46,14-28.23,16.25-34a39.64,39.64,0,0,0,1.24-5S89.25,283,89.78,284.49Z" style="fill:#c7b299"/><path d="M146.43,284.49c2.19,6.22,24.44,9.11,15.74,34.27-3.79-19-14.29-17.5-15.74-23.94,0,0,.2,6.69.66,7.19,4,4.35,18.09,10.07,8.63,26.53-2.36-11.58-7-12.19-8.44-15.19-.28-.56-.69,1.25-.57,1.87a18,18,0,0,0,3.72,7.65c2.89,3.09,5.51,12.46-2.09,19.42,1.22-5.05-3.15-15.1-3.15-15.1s-2.93,10.56-3.14,15.1c-7.42-10.78-5-16.33-2.11-19.42,2.55-2.72,3.38-8.94,3.49-10-2.23,4.77-6.66,3-9.94,14.79-7.23-19.17,6.3-21.64,10.37-25.69.47-.48.31-5.52.31-5.52-1.73,3.65-13.23,5.1-16.47,22-7.26-26.46,14-28.23,16.25-34a39.64,39.64,0,0,0,1.24-5S145.9,283,146.43,284.49Z" style="fill:#c7b299"/><path d="M203.08,284.49c2.19,6.22,24.44,9.11,15.74,34.27-3.79-19-14.28-17.5-15.73-23.94,0,0,.19,6.69.65,7.19,4,4.35,18.09,10.07,8.64,26.53-2.37-11.58-7-12.19-8.45-15.19-.27-.56-.68,1.25-.57,1.87a18,18,0,0,0,3.73,7.65c2.89,3.09,5.51,12.46-2.1,19.42,1.23-5.05-3.15-15.1-3.15-15.1s-2.93,10.56-3.14,15.1c-7.42-10.78-5-16.33-2.11-19.42,2.55-2.72,3.38-8.94,3.49-10-2.23,4.77-6.66,3-9.93,14.79-7.24-19.17,6.29-21.64,10.36-25.69.47-.48.31-5.52.31-5.52-1.73,3.65-13.23,5.1-16.47,22-7.26-26.46,14-28.23,16.25-34a39.64,39.64,0,0,0,1.24-5S202.55,283,203.08,284.49Z" style="fill:#c7b299"/><path d="M259.73,284.49c2.19,6.22,24.44,9.11,15.74,34.27-3.79-19-14.28-17.5-15.73-23.94,0,0,.19,6.69.65,7.19,4,4.35,18.09,10.07,8.64,26.53-2.37-11.58-7-12.19-8.45-15.19-.27-.56-.68,1.25-.57,1.87a18,18,0,0,0,3.73,7.65c2.89,3.09,5.51,12.46-2.1,19.42,1.23-5.05-3.15-15.1-3.15-15.1s-2.93,10.56-3.14,15.1c-7.42-10.78-5-16.33-2.1-19.42,2.54-2.72,3.37-8.94,3.48-10-2.23,4.77-6.66,3-9.93,14.79-7.24-19.17,6.29-21.64,10.36-25.69.47-.48.31-5.52.31-5.52-1.73,3.65-13.23,5.1-16.46,22-7.27-26.46,13.94-28.23,16.24-34a39.64,39.64,0,0,0,1.24-5S259.2,283,259.73,284.49Z" style="fill:#c7b299"/><path d="M316.38,284.49c2.2,6.22,24.44,9.11,15.74,34.27-3.79-19-14.28-17.5-15.73-23.94,0,0,.2,6.69.65,7.19,4,4.35,18.09,10.07,8.64,26.53-2.37-11.58-7-12.19-8.45-15.19-.27-.56-.68,1.25-.57,1.87a18,18,0,0,0,3.73,7.65c2.89,3.09,5.51,12.46-2.1,19.42,1.23-5.05-3.15-15.1-3.15-15.1s-2.92,10.56-3.13,15.1c-7.43-10.78-5-16.33-2.11-19.42,2.54-2.72,3.37-8.94,3.48-10-2.23,4.77-6.66,3-9.93,14.79-7.24-19.17,6.29-21.64,10.36-25.69.47-.48.31-5.52.31-5.52-1.73,3.65-13.23,5.1-16.46,22-7.27-26.46,13.95-28.23,16.25-34a39,39,0,0,0,1.23-5S315.86,283,316.38,284.49Z" style="fill:#c7b299"/><path d="M373,284.49c2.2,6.22,24.44,9.11,15.74,34.27-3.79-19-14.28-17.5-15.73-23.94,0,0,.2,6.69.66,7.19,4,4.35,18.09,10.07,8.63,26.53-2.37-11.58-7-12.19-8.45-15.19-.27-.56-.68,1.25-.57,1.87a18,18,0,0,0,3.73,7.65c2.89,3.09,5.51,12.46-2.1,19.42,1.23-5.05-3.14-15.1-3.14-15.1s-2.93,10.56-3.14,15.1c-7.42-10.78-5-16.33-2.11-19.42,2.54-2.72,3.37-8.94,3.49-10-2.23,4.77-6.66,3-9.94,14.79-7.24-19.17,6.29-21.64,10.36-25.69.47-.48.31-5.52.31-5.52-1.73,3.65-13.23,5.1-16.46,22-7.27-26.46,13.95-28.23,16.25-34a39.64,39.64,0,0,0,1.24-5S372.51,283,373,284.49Z" style="fill:#c7b299"/><path d="M429.68,284.49c2.2,6.22,24.45,9.11,15.75,34.27-3.8-19-14.29-17.5-15.74-23.94,0,0,.2,6.69.66,7.19,4,4.35,18.09,10.07,8.63,26.53-2.37-11.58-7-12.19-8.45-15.19-.27-.56-.68,1.25-.57,1.87a18.15,18.15,0,0,0,3.73,7.65c2.89,3.09,5.51,12.46-2.09,19.42,1.22-5.05-3.15-15.1-3.15-15.1s-2.93,10.56-3.14,15.1c-7.42-10.78-5-16.33-2.11-19.42,2.54-2.72,3.38-8.94,3.49-10-2.23,4.77-6.66,3-9.94,14.79-7.23-19.17,6.29-21.64,10.36-25.69.48-.48.32-5.52.32-5.52-1.73,3.65-13.23,5.1-16.47,22-7.27-26.46,14-28.23,16.25-34a39.64,39.64,0,0,0,1.24-5S429.16,283,429.68,284.49Z" style="fill:#c7b299"/><path d="M4.8,372.17C7,366,29.24,363.06,20.54,337.9c-3.79,19-14.28,17.5-15.73,23.94,0,0,.19-6.69.65-7.19,4-4.35,18.09-10.07,8.64-26.54-2.37,11.58-7,12.2-8.45,15.19-.27.57-.68-1.24-.57-1.86a18.12,18.12,0,0,1,3.73-7.66c2.88-3.08,5.51-12.46-2.1-19.41,1.23,5.05-3.15,15.09-3.15,15.09S.63,318.91.42,314.37c-7.42,10.78-5,16.33-2.11,19.41,2.55,2.72,3.38,8.94,3.49,10C-.43,339-4.86,340.69-8.13,329c-7.24,19.16,6.29,21.64,10.36,25.69.47.47.31,5.52.31,5.52-1.73-3.65-13.23-5.1-16.47-22-7.26,26.46,14,28.23,16.25,34a39.64,39.64,0,0,1,1.24,5S4.27,373.65,4.8,372.17Z" style="fill:#c7b299"/><path d="M61.45,372.17c2.19-6.22,24.44-9.11,15.74-34.27-3.79,19-14.28,17.5-15.73,23.94,0,0,.19-6.69.65-7.19,4-4.35,18.09-10.07,8.64-26.54-2.37,11.58-7,12.2-8.45,15.19-.27.57-.68-1.24-.57-1.86a18.12,18.12,0,0,1,3.73-7.66c2.89-3.08,5.51-12.46-2.1-19.41,1.23,5.05-3.15,15.09-3.15,15.09s-2.93-10.55-3.14-15.09c-7.42,10.78-5,16.33-2.1,19.41,2.54,2.72,3.37,8.94,3.48,10-2.23-4.77-6.66-3.05-9.93-14.78-7.24,19.16,6.29,21.64,10.36,25.69.47.47.31,5.52.31,5.52-1.73-3.65-13.23-5.1-16.46-22-7.27,26.46,13.94,28.23,16.24,34a39.64,39.64,0,0,1,1.24,5S60.92,373.65,61.45,372.17Z" style="fill:#c7b299"/><path d="M118.1,372.17c2.2-6.22,24.44-9.11,15.74-34.27-3.79,19-14.28,17.5-15.73,23.94,0,0,.2-6.69.65-7.19,4-4.35,18.09-10.07,8.64-26.54-2.37,11.58-7,12.2-8.45,15.19-.27.57-.68-1.24-.57-1.86a18.12,18.12,0,0,1,3.73-7.66c2.89-3.08,5.51-12.46-2.1-19.41,1.23,5.05-3.15,15.09-3.15,15.09s-2.92-10.55-3.14-15.09c-7.42,10.78-5,16.33-2.1,19.41,2.54,2.72,3.37,8.94,3.48,10-2.23-4.77-6.66-3.05-9.93-14.78-7.24,19.16,6.29,21.64,10.36,25.69.47.47.31,5.52.31,5.52-1.73-3.65-13.23-5.1-16.46-22-7.27,26.46,13.94,28.23,16.25,34a39,39,0,0,1,1.23,5S117.58,373.65,118.1,372.17Z" style="fill:#c7b299"/><path d="M174.75,372.17c2.2-6.22,24.44-9.11,15.74-34.27-3.79,19-14.28,17.5-15.73,23.94,0,0,.2-6.69.66-7.19,4-4.35,18.09-10.07,8.63-26.54-2.37,11.58-7,12.2-8.45,15.19-.27.57-.68-1.24-.57-1.86a18.12,18.12,0,0,1,3.73-7.66c2.89-3.08,5.51-12.46-2.1-19.41,1.23,5.05-3.15,15.09-3.15,15.09s-2.92-10.55-3.13-15.09c-7.43,10.78-5,16.33-2.11,19.41,2.54,2.72,3.37,8.94,3.49,10-2.23-4.77-6.66-3.05-9.94-14.78-7.24,19.16,6.29,21.64,10.36,25.69.47.47.31,5.52.31,5.52-1.73-3.65-13.23-5.1-16.46-22-7.27,26.46,13.95,28.23,16.25,34a39,39,0,0,1,1.23,5S174.23,373.65,174.75,372.17Z" style="fill:#c7b299"/><path d="M231.4,372.17c2.2-6.22,24.45-9.11,15.75-34.27-3.8,19-14.29,17.5-15.74,23.94,0,0,.2-6.69.66-7.19,4-4.35,18.09-10.07,8.63-26.54-2.37,11.58-7,12.2-8.45,15.19-.27.57-.68-1.24-.57-1.86a18.24,18.24,0,0,1,3.73-7.66c2.89-3.08,5.51-12.46-2.09-19.41,1.22,5.05-3.15,15.09-3.15,15.09s-2.93-10.55-3.14-15.09c-7.42,10.78-5,16.33-2.11,19.41,2.54,2.72,3.37,8.94,3.49,10-2.23-4.77-6.66-3.05-9.94-14.78-7.23,19.16,6.29,21.64,10.36,25.69.48.47.32,5.52.32,5.52-1.73-3.65-13.23-5.1-16.47-22-7.27,26.46,13.95,28.23,16.25,34a39.64,39.64,0,0,1,1.24,5S230.88,373.65,231.4,372.17Z" style="fill:#c7b299"/><path d="M288.06,372.17c2.19-6.22,24.44-9.11,15.74-34.27-3.79,19-14.29,17.5-15.74,23.94,0,0,.2-6.69.66-7.19,4-4.35,18.09-10.07,8.63-26.54-2.36,11.58-7,12.2-8.45,15.19-.27.57-.68-1.24-.57-1.86a18.24,18.24,0,0,1,3.73-7.66c2.89-3.08,5.51-12.46-2.09-19.41,1.22,5.05-3.15,15.09-3.15,15.09s-2.93-10.55-3.14-15.09c-7.42,10.78-5,16.33-2.11,19.41,2.55,2.72,3.38,8.94,3.49,10-2.23-4.77-6.66-3.05-9.94-14.78-7.23,19.16,6.3,21.64,10.36,25.69.48.47.32,5.52.32,5.52-1.73-3.65-13.23-5.1-16.47-22-7.27,26.46,13.95,28.23,16.25,34a39.64,39.64,0,0,1,1.24,5S287.53,373.65,288.06,372.17Z" style="fill:#c7b299"/><path d="M344.71,372.17c2.19-6.22,24.44-9.11,15.74-34.27-3.79,19-14.29,17.5-15.74,23.94,0,0,.2-6.69.66-7.19,4-4.35,18.09-10.07,8.64-26.54-2.37,11.58-7,12.2-8.45,15.19-.28.57-.69-1.24-.57-1.86a18.2,18.2,0,0,1,3.72-7.66c2.89-3.08,5.51-12.46-2.09-19.41,1.23,5.05-3.15,15.09-3.15,15.09s-2.93-10.55-3.14-15.09c-7.42,10.78-5,16.33-2.11,19.41,2.55,2.72,3.38,8.94,3.49,10-2.23-4.77-6.66-3.05-9.94-14.78-7.23,19.16,6.3,21.64,10.37,25.69.47.47.31,5.52.31,5.52-1.73-3.65-13.23-5.1-16.47-22-7.26,26.46,13.95,28.23,16.25,34a39.64,39.64,0,0,1,1.24,5S344.18,373.65,344.71,372.17Z" style="fill:#c7b299"/><path d="M401.36,372.17c2.19-6.22,24.44-9.11,15.74-34.27-3.79,19-14.28,17.5-15.73,23.94,0,0,.19-6.69.65-7.19,4-4.35,18.09-10.07,8.64-26.54-2.37,11.58-7,12.2-8.45,15.19-.27.57-.68-1.24-.57-1.86a18.12,18.12,0,0,1,3.73-7.66c2.89-3.08,5.51-12.46-2.1-19.41,1.23,5.05-3.15,15.09-3.15,15.09s-2.93-10.55-3.14-15.09c-7.42,10.78-5,16.33-2.1,19.41,2.54,2.72,3.37,8.94,3.48,10-2.23-4.77-6.66-3.05-9.93-14.78-7.24,19.16,6.29,21.64,10.36,25.69.47.47.31,5.52.31,5.52-1.73-3.65-13.23-5.1-16.46-22-7.27,26.46,13.94,28.23,16.24,34a39.64,39.64,0,0,1,1.24,5S400.83,373.65,401.36,372.17Z" style="fill:#c7b299"/><path d="M33.12,359.18c2.2,6.22,24.45,9.11,15.75,34.27-3.8-19-14.29-17.5-15.74-23.94,0,0,.2,6.69.66,7.19,4,4.35,18.09,10.07,8.63,26.54-2.37-11.59-7-12.2-8.45-15.2-.27-.56-.68,1.25-.57,1.87a18.15,18.15,0,0,0,3.73,7.65C40,400.65,42.64,410,35,417c1.23-5.05-3.14-15.1-3.14-15.1S29,412.44,28.75,417c-7.42-10.78-5-16.33-2.11-19.42,2.54-2.72,3.37-8.93,3.49-9.95-2.23,4.77-6.66,3-9.94,14.78C13,383.22,26.48,380.75,30.55,376.7c.48-.47.32-5.52.32-5.52-1.73,3.65-13.24,5.1-16.47,22-7.27-26.46,14-28.23,16.25-34a39.64,39.64,0,0,0,1.24-5S32.6,357.69,33.12,359.18Z" style="fill:#c7b299"/><path d="M89.78,359.18c2.19,6.22,24.44,9.11,15.74,34.27-3.8-19-14.29-17.5-15.74-23.94,0,0,.2,6.69.66,7.19,4,4.35,18.09,10.07,8.63,26.54-2.36-11.59-7-12.2-8.45-15.2-.27-.56-.68,1.25-.57,1.87a18.15,18.15,0,0,0,3.73,7.65c2.89,3.09,5.51,12.46-2.09,19.42,1.22-5.05-3.15-15.1-3.15-15.1S85.61,412.44,85.4,417c-7.42-10.78-5-16.33-2.11-19.42,2.55-2.72,3.38-8.93,3.49-9.95-2.23,4.77-6.66,3-9.94,14.78-7.23-19.17,6.29-21.64,10.36-25.69.48-.47.32-5.52.32-5.52-1.73,3.65-13.23,5.1-16.47,22-7.27-26.46,14-28.23,16.25-34a39.64,39.64,0,0,0,1.24-5S89.25,357.69,89.78,359.18Z" style="fill:#c7b299"/><path d="M146.43,359.18c2.19,6.22,24.44,9.11,15.74,34.27-3.79-19-14.29-17.5-15.74-23.94,0,0,.2,6.69.66,7.19,4,4.35,18.09,10.07,8.63,26.54-2.36-11.59-7-12.2-8.44-15.2-.28-.56-.69,1.25-.57,1.87a18,18,0,0,0,3.72,7.65c2.89,3.09,5.51,12.46-2.09,19.42,1.22-5.05-3.15-15.1-3.15-15.1s-2.93,10.56-3.14,15.1c-7.42-10.78-5-16.33-2.11-19.42,2.55-2.72,3.38-8.93,3.49-9.95-2.23,4.77-6.66,3-9.94,14.78-7.23-19.17,6.3-21.64,10.37-25.69.47-.47.31-5.52.31-5.52-1.73,3.65-13.23,5.1-16.47,22-7.26-26.46,14-28.23,16.25-34a39.64,39.64,0,0,0,1.24-5S145.9,357.69,146.43,359.18Z" style="fill:#c7b299"/><path d="M203.08,359.18c2.19,6.22,24.44,9.11,15.74,34.27-3.79-19-14.28-17.5-15.73-23.94,0,0,.19,6.69.65,7.19,4,4.35,18.09,10.07,8.64,26.54-2.37-11.59-7-12.2-8.45-15.2-.27-.56-.68,1.25-.57,1.87a18,18,0,0,0,3.73,7.65C210,400.65,212.6,410,205,417c1.23-5.05-3.15-15.1-3.15-15.1s-2.93,10.56-3.14,15.1c-7.42-10.78-5-16.33-2.11-19.42,2.55-2.72,3.38-8.93,3.49-9.95-2.23,4.77-6.66,3-9.93,14.78-7.24-19.17,6.29-21.64,10.36-25.69.47-.47.31-5.52.31-5.52-1.73,3.65-13.23,5.1-16.47,22-7.26-26.46,14-28.23,16.25-34a39.64,39.64,0,0,0,1.24-5S202.55,357.69,203.08,359.18Z" style="fill:#c7b299"/><path d="M259.73,359.18c2.19,6.22,24.44,9.11,15.74,34.27-3.79-19-14.28-17.5-15.73-23.94,0,0,.19,6.69.65,7.19,4,4.35,18.09,10.07,8.64,26.54-2.37-11.59-7-12.2-8.45-15.2-.27-.56-.68,1.25-.57,1.87a18,18,0,0,0,3.73,7.65c2.89,3.09,5.51,12.46-2.1,19.42,1.23-5.05-3.15-15.1-3.15-15.1s-2.93,10.56-3.14,15.1c-7.42-10.78-5-16.33-2.1-19.42,2.54-2.72,3.37-8.93,3.48-9.95-2.23,4.77-6.66,3-9.93,14.78-7.24-19.17,6.29-21.64,10.36-25.69.47-.47.31-5.52.31-5.52-1.73,3.65-13.23,5.1-16.46,22-7.27-26.46,13.94-28.23,16.24-34a39.64,39.64,0,0,0,1.24-5S259.2,357.69,259.73,359.18Z" style="fill:#c7b299"/><path d="M316.38,359.18c2.2,6.22,24.44,9.11,15.74,34.27-3.79-19-14.28-17.5-15.73-23.94,0,0,.2,6.69.65,7.19,4,4.35,18.09,10.07,8.64,26.54-2.37-11.59-7-12.2-8.45-15.2-.27-.56-.68,1.25-.57,1.87a18,18,0,0,0,3.73,7.65c2.89,3.09,5.51,12.46-2.1,19.42,1.23-5.05-3.15-15.1-3.15-15.1S312.22,412.44,312,417c-7.43-10.78-5-16.33-2.11-19.42,2.54-2.72,3.37-8.93,3.48-9.95-2.23,4.77-6.66,3-9.93,14.78-7.24-19.17,6.29-21.64,10.36-25.69.47-.47.31-5.52.31-5.52-1.73,3.65-13.23,5.1-16.46,22-7.27-26.46,13.95-28.23,16.25-34a39,39,0,0,0,1.23-5S315.86,357.69,316.38,359.18Z" style="fill:#c7b299"/><path d="M373,359.18c2.2,6.22,24.44,9.11,15.74,34.27-3.79-19-14.28-17.5-15.73-23.94,0,0,.2,6.69.66,7.19,4,4.35,18.09,10.07,8.63,26.54-2.37-11.59-7-12.2-8.45-15.2-.27-.56-.68,1.25-.57,1.87a18,18,0,0,0,3.73,7.65c2.89,3.09,5.51,12.46-2.1,19.42,1.23-5.05-3.14-15.1-3.14-15.1s-2.93,10.56-3.14,15.1c-7.42-10.78-5-16.33-2.11-19.42,2.54-2.72,3.37-8.93,3.49-9.95-2.23,4.77-6.66,3-9.94,14.78-7.24-19.17,6.29-21.64,10.36-25.69.47-.47.31-5.52.31-5.52-1.73,3.65-13.23,5.1-16.46,22-7.27-26.46,13.95-28.23,16.25-34a39.64,39.64,0,0,0,1.24-5S372.51,357.69,373,359.18Z" style="fill:#c7b299"/><path d="M429.68,359.18c2.2,6.22,24.45,9.11,15.75,34.27-3.8-19-14.29-17.5-15.74-23.94,0,0,.2,6.69.66,7.19,4,4.35,18.09,10.07,8.63,26.54-2.37-11.59-7-12.2-8.45-15.2-.27-.56-.68,1.25-.57,1.87a18.15,18.15,0,0,0,3.73,7.65c2.89,3.09,5.51,12.46-2.09,19.42,1.22-5.05-3.15-15.1-3.15-15.1s-2.93,10.56-3.14,15.1c-7.42-10.78-5-16.33-2.11-19.42,2.54-2.72,3.38-8.93,3.49-9.95-2.23,4.77-6.66,3-9.94,14.78-7.23-19.17,6.29-21.64,10.36-25.69.48-.47.32-5.52.32-5.52-1.73,3.65-13.23,5.1-16.47,22-7.27-26.46,14-28.23,16.25-34a39.64,39.64,0,0,0,1.24-5S429.16,357.69,429.68,359.18Z" style="fill:#c7b299"/><path d="M4.8,446.86c2.19-6.22,24.44-9.11,15.74-34.27-3.79,19-14.28,17.5-15.73,23.94,0,0,.19-6.69.65-7.19,4-4.35,18.09-10.07,8.64-26.54-2.37,11.58-7,12.2-8.45,15.2-.27.56-.68-1.25-.57-1.87a18,18,0,0,1,3.73-7.65c2.88-3.09,5.51-12.46-2.1-19.42,1.23,5.05-3.15,15.1-3.15,15.1S.63,393.6.42,389.06c-7.42,10.78-5,16.33-2.11,19.42,2.55,2.71,3.38,8.93,3.49,9.95-2.23-4.77-6.66-3-9.93-14.78-7.24,19.16,6.29,21.64,10.36,25.69.47.47.31,5.52.31,5.52-1.73-3.65-13.23-5.1-16.47-22-7.26,26.46,14,28.23,16.25,34a39.64,39.64,0,0,1,1.24,5S4.27,448.35,4.8,446.86Z" style="fill:#c7b299"/><path d="M61.45,446.86c2.19-6.22,24.44-9.11,15.74-34.27-3.79,19-14.28,17.5-15.73,23.94,0,0,.19-6.69.65-7.19,4-4.35,18.09-10.07,8.64-26.54-2.37,11.58-7,12.2-8.45,15.2-.27.56-.68-1.25-.57-1.87a18,18,0,0,1,3.73-7.65c2.89-3.09,5.51-12.46-2.1-19.42,1.23,5.05-3.15,15.1-3.15,15.1s-2.93-10.56-3.14-15.1c-7.42,10.78-5,16.33-2.1,19.42,2.54,2.71,3.37,8.93,3.48,9.95-2.23-4.77-6.66-3-9.93-14.78-7.24,19.16,6.29,21.64,10.36,25.69.47.47.31,5.52.31,5.52-1.73-3.65-13.23-5.1-16.46-22-7.27,26.46,13.94,28.23,16.24,34a39.64,39.64,0,0,1,1.24,5S60.92,448.35,61.45,446.86Z" style="fill:#c7b299"/><path d="M118.1,446.86c2.2-6.22,24.44-9.11,15.74-34.27-3.79,19-14.28,17.5-15.73,23.94,0,0,.2-6.69.65-7.19,4-4.35,18.09-10.07,8.64-26.54C125,414.38,120.4,415,119,418c-.27.56-.68-1.25-.57-1.87a18,18,0,0,1,3.73-7.65c2.89-3.09,5.51-12.46-2.1-19.42,1.23,5.05-3.15,15.1-3.15,15.1s-2.92-10.56-3.14-15.1c-7.42,10.78-5,16.33-2.1,19.42,2.54,2.71,3.37,8.93,3.48,9.95-2.23-4.77-6.66-3-9.93-14.78-7.24,19.16,6.29,21.64,10.36,25.69.47.47.31,5.52.31,5.52-1.73-3.65-13.23-5.1-16.46-22-7.27,26.46,13.94,28.23,16.25,34a39,39,0,0,1,1.23,5S117.58,448.35,118.1,446.86Z" style="fill:#c7b299"/><path d="M174.75,446.86c2.2-6.22,24.44-9.11,15.74-34.27-3.79,19-14.28,17.5-15.73,23.94,0,0,.2-6.69.66-7.19,4-4.35,18.09-10.07,8.63-26.54-2.37,11.58-7,12.2-8.45,15.2-.27.56-.68-1.25-.57-1.87a18,18,0,0,1,3.73-7.65c2.89-3.09,5.51-12.46-2.1-19.42,1.23,5.05-3.15,15.1-3.15,15.1s-2.92-10.56-3.13-15.1c-7.43,10.78-5,16.33-2.11,19.42,2.54,2.71,3.37,8.93,3.49,9.95-2.23-4.77-6.66-3-9.94-14.78-7.24,19.16,6.29,21.64,10.36,25.69.47.47.31,5.52.31,5.52-1.73-3.65-13.23-5.1-16.46-22-7.27,26.46,13.95,28.23,16.25,34a39,39,0,0,1,1.23,5S174.23,448.35,174.75,446.86Z" style="fill:#c7b299"/><path d="M231.4,446.86c2.2-6.22,24.45-9.11,15.75-34.27-3.8,19-14.29,17.5-15.74,23.94,0,0,.2-6.69.66-7.19,4-4.35,18.09-10.07,8.63-26.54-2.37,11.58-7,12.2-8.45,15.2-.27.56-.68-1.25-.57-1.87a18.15,18.15,0,0,1,3.73-7.65c2.89-3.09,5.51-12.46-2.09-19.42,1.22,5.05-3.15,15.1-3.15,15.1s-2.93-10.56-3.14-15.1c-7.42,10.78-5,16.33-2.11,19.42,2.54,2.71,3.37,8.93,3.49,9.95-2.23-4.77-6.66-3-9.94-14.78-7.23,19.16,6.29,21.64,10.36,25.69.48.47.32,5.52.32,5.52-1.73-3.65-13.23-5.1-16.47-22-7.27,26.46,13.95,28.23,16.25,34a39.64,39.64,0,0,1,1.24,5S230.88,448.35,231.4,446.86Z" style="fill:#c7b299"/><path d="M288.06,446.86c2.19-6.22,24.44-9.11,15.74-34.27-3.79,19-14.29,17.5-15.74,23.94,0,0,.2-6.69.66-7.19,4-4.35,18.09-10.07,8.63-26.54-2.36,11.58-7,12.2-8.45,15.2-.27.56-.68-1.25-.57-1.87a18.15,18.15,0,0,1,3.73-7.65c2.89-3.09,5.51-12.46-2.09-19.42,1.22,5.05-3.15,15.1-3.15,15.1s-2.93-10.56-3.14-15.1c-7.42,10.78-5,16.33-2.11,19.42,2.55,2.71,3.38,8.93,3.49,9.95-2.23-4.77-6.66-3-9.94-14.78-7.23,19.16,6.3,21.64,10.36,25.69.48.47.32,5.52.32,5.52-1.73-3.65-13.23-5.1-16.47-22-7.27,26.46,13.95,28.23,16.25,34a39.64,39.64,0,0,1,1.24,5S287.53,448.35,288.06,446.86Z" style="fill:#c7b299"/><path d="M344.71,446.86c2.19-6.22,24.44-9.11,15.74-34.27-3.79,19-14.29,17.5-15.74,23.94,0,0,.2-6.69.66-7.19,4-4.35,18.09-10.07,8.64-26.54-2.37,11.58-7,12.2-8.45,15.2-.28.56-.69-1.25-.57-1.87a18.12,18.12,0,0,1,3.72-7.65c2.89-3.09,5.51-12.46-2.09-19.42,1.23,5.05-3.15,15.1-3.15,15.1s-2.93-10.56-3.14-15.1c-7.42,10.78-5,16.33-2.11,19.42,2.55,2.71,3.38,8.93,3.49,9.95-2.23-4.77-6.66-3-9.94-14.78-7.23,19.16,6.3,21.64,10.37,25.69.47.47.31,5.52.31,5.52-1.73-3.65-13.23-5.1-16.47-22-7.26,26.46,13.95,28.23,16.25,34a39.64,39.64,0,0,1,1.24,5S344.18,448.35,344.71,446.86Z" style="fill:#c7b299"/><path d="M401.36,446.86c2.19-6.22,24.44-9.11,15.74-34.27-3.79,19-14.28,17.5-15.73,23.94,0,0,.19-6.69.65-7.19,4-4.35,18.09-10.07,8.64-26.54-2.37,11.58-7,12.2-8.45,15.2-.27.56-.68-1.25-.57-1.87a18,18,0,0,1,3.73-7.65c2.89-3.09,5.51-12.46-2.1-19.42,1.23,5.05-3.15,15.1-3.15,15.1s-2.93-10.56-3.14-15.1c-7.42,10.78-5,16.33-2.1,19.42,2.54,2.71,3.37,8.93,3.48,9.95-2.23-4.77-6.66-3-9.93-14.78-7.24,19.16,6.29,21.64,10.36,25.69.47.47.31,5.52.31,5.52-1.73-3.65-13.23-5.1-16.46-22-7.27,26.46,13.94,28.23,16.24,34a39.64,39.64,0,0,1,1.24,5S400.83,448.35,401.36,446.86Z" style="fill:#c7b299"/></svg>