<svg xmlns="http://www.w3.org/2000/svg" viewBox="0 0 432 432"><title>judes-wordmark</title><rect x="-139.54" y="-1149.11" width="2240.39" height="1814.65" style="fill:#fff"/><path d="M2100.35-1148.61V665H-139V-1148.61H2100.35m1-1H-140V666H2101.35V-1149.61Z"/><path d="M66,259.27,71.4,243a10.73,10.73,0,0,0,5.11,1.35c2.71,0,4.71-2,4.71-6.52V184.44h21.61v53.64c0,14.57-8.76,24-22.91,24C74.6,262.06,69.49,261.13,66,259.27Z" style="fill:#736357"/><ellipse cx="92.03" cy="168.45" rx="12.2" ry="11.62" style="fill:#736357"/><path d="M165.83,184.44V241H145.32V235.6A20.93,20.93,0,0,1,129.78,242c-11,0-22-8-22-26.36V184.44h21.62v27.18c0,8.06,2.7,10.75,7.12,10.75,3.91,0,7.72-3,7.72-11.37V184.44Z" style="fill:#736357"/><path d="M229.22,164.28V241H208.71v-4.66c-3.31,3.83-8.22,5.69-15,5.69-14.34,0-25.41-10-25.41-29.3,0-19,11.07-29.31,25.41-29.31,6,0,10.63,1.55,13.93,4.86v-24ZM208,212.65c0-7.33-3.91-11.06-8.93-11.06s-9.68,2.76-9.68,11.12c0,8.52,4.67,11.11,9.68,11.11S208,220,208,212.65Z" style="fill:#736357"/><path d="M274.41,220.61l11.66,12.3c-5.34,6-12.95,9.1-23.62,9.1-19.87,0-31.1-13.21-31.1-29.3a29.2,29.2,0,0,1,29.42-29.31c15.71,0,29.36,10.13,29.36,28.94l-37,7.45c1.78,3.51,5.15,5,10,5S270.85,223.4,274.41,220.61Zm-22.74-11.88,17.3-3.52a8.24,8.24,0,0,0-8.1-5.89C255.83,199.32,252.36,202.32,251.67,208.73Z" style="fill:#736357"/><path d="M313.11,192.5c0,2.79-.19,5.37-3.63,13l-5.21,11.68h-13l3.53-13.64c-3.9-2-6.23-5.89-6.23-11.06,0-7.55,5.21-12.71,12.28-12.71S313.11,185,313.11,192.5Z" style="fill:#736357"/><path d="M312.78,236.43,319,221a38.78,38.78,0,0,0,19.15,5.06c5.51,0,7-1,7-2.69,0-5.78-31.59,2-31.59-20.67,0-10.64,9.63-19.33,28.08-19.33,8,0,16.54,1.55,22.35,4.65l-6.21,15.41A31.68,31.68,0,0,0,342,199.32c-5.82,0-7.42,1.34-7.42,2.69,0,5.89,31.48-1.76,31.48,20.88,0,10.23-9.32,19.12-28.37,19.12C328.22,242,318.4,239.73,312.78,236.43Z" style="fill:#736357"/><text transform="translate(365.9 194.43)" style="font-size:15.184670448303223px;fill:#736357;font-family:Montserrat-Bold, Montserrat;font-weight:700">™</text><text transform="translate(106.33 260.92) scale(0.99 1)" style="font-size:15.852899551391602px;fill:#534741;font-family:Montserrat-Medium, Montserrat;font-weight:500;letter-spacing:0.2145474681877313em">H<tspan x="16.27" y="0" style="letter-spacing:0.19899153226924726em">E</tspan><tspan x="30.05" y="0" style="letter-spacing:0.21460969193140525em">A</tspan><tspan x="46.14" y="0" style="letter-spacing:0.14616357389007562em">L</tspan><tspan x="57.87" y="0" style="letter-spacing:0.2195875914253201em">T</tspan><tspan x="70.66" y="0" style="letter-spacing:0.2279877968213015em">H &amp; </tspan><tspan x="117.39" y="0" style="letter-spacing:0.21193407095342595em">J</tspan><tspan x="128.88" y="0" style="letter-spacing:0.1903424318985702em">AV</tspan><tspan x="158.89" y="0" style="letter-spacing:0.2279255730776275em">A </tspan><tspan x="183.06" y="0" style="letter-spacing:0.22108096127349458em">H</tspan><tspan x="199.44" y="0" style="letter-spacing:0.219649815168994em">O</tspan><tspan x="216.24" y="0" style="letter-spacing:0.21479636316242703em">U</tspan><tspan x="232.18" y="0" style="letter-spacing:0.22188986994125573em">S</tspan><tspan x="245.55" y="0" style="letter-spacing:0.2279877968213015em">E</tspan></text></svg>