<svg xmlns="http://www.w3.org/2000/svg" viewBox="0 0 432 432"><title>judes-inline</title><rect x="-139.54" y="-645.11" width="2240.39" height="1814.65" style="fill:#fff"/><path d="M2100.35-644.61V1169H-139V-644.61H2100.35m1-1H-140V1170H2101.35V-645.61Z"/><path d="M176.52,242.28l3-9.06a6.06,6.06,0,0,0,2.86.75c1.51,0,2.63-1.09,2.63-3.63V200.51h12.06v29.94c0,8.14-4.89,13.39-12.79,13.39A17.36,17.36,0,0,1,176.52,242.28Z" style="fill:#736357"/><ellipse cx="191.06" cy="191.59" rx="6.81" ry="6.48" style="fill:#736357"/><path d="M232.25,200.51v31.56H220.8v-3a11.67,11.67,0,0,1-8.67,3.57c-6.16,0-12.29-4.44-12.29-14.7V200.51H211.9v15.18c0,4.49,1.51,6,4,6,2.18,0,4.3-1.68,4.3-6.35V200.51Z" style="fill:#736357"/><path d="M267.62,189.27v42.8H256.18v-2.6c-1.85,2.14-4.59,3.17-8.4,3.17-8,0-14.18-5.56-14.18-16.35,0-10.62,6.18-16.35,14.18-16.35,3.36,0,5.93.86,7.78,2.71V189.27Zm-11.84,27c0-4.09-2.18-6.17-5-6.17s-5.4,1.54-5.4,6.2,2.61,6.2,5.4,6.2S255.78,220.36,255.78,216.26Z" style="fill:#736357"/><path d="M292.84,220.7l6.51,6.87c-3,3.34-7.22,5.07-13.18,5.07-11.09,0-17.36-7.37-17.36-16.35a16.3,16.3,0,0,1,16.42-16.35c8.77,0,16.39,5.65,16.39,16.15L281,220.24c1,2,2.87,2.77,5.57,2.77A9,9,0,0,0,292.84,220.7Zm-12.68-6.63,9.65-2a4.6,4.6,0,0,0-4.52-3.29C282.47,208.82,280.54,210.49,280.16,214.07Z" style="fill:#736357"/><path d="M314.44,205c0,1.56-.1,3-2,7.27l-2.91,6.52h-7.27l2-7.61a6.54,6.54,0,0,1-3.47-6.18,6.85,6.85,0,1,1,13.7,0Z" style="fill:#736357"/><path d="M314.26,229.53l3.47-8.59a21.71,21.71,0,0,0,10.69,2.82c3.07,0,3.91-.58,3.91-1.5,0-3.23-17.62,1.1-17.62-11.54,0-5.94,5.37-10.78,15.66-10.78,4.48,0,9.24.86,12.48,2.59l-3.47,8.6a17.66,17.66,0,0,0-8.84-2.31c-3.24,0-4.14.75-4.14,1.5,0,3.29,17.57-1,17.57,11.65,0,5.71-5.2,10.67-15.83,10.67C322.88,232.64,317.39,231.38,314.26,229.53Z" style="fill:#736357"/><text transform="translate(343.97 207.88)" style="font-size:10.508919715881348px;fill:#736357;font-family:Montserrat-Bold, Montserrat;font-weight:700">™</text><path d="M205,237v6.2h-.88v-2.76h-3.52v2.76h-.88V237h.88v2.67h3.52V237Z" style="fill:#534741"/><path d="M213.35,242.38v.77H208.9V237h4.33v.77h-3.45v1.9h3.07v.76h-3.07v2Z" style="fill:#534741"/><path d="M221.88,239.67v3.48H221v-1.71h-3.54v1.71h-.86v-3.48A2.64,2.64,0,1,1,221.88,239.67Zm-.87,1v-1.08a1.77,1.77,0,1,0-3.54,0v1.08Z" style="fill:#534741"/><path d="M225.69,237h.88v5.43h3.32v.77h-4.2Z" style="fill:#534741"/><path d="M233.57,237.72h-2.1V237h5.07v.77h-2.1v5.43h-.87Z" style="fill:#534741"/><path d="M244.84,237v6.2H244v-2.76h-3.52v2.76h-.88V237h.88v2.67H244V237Z" style="fill:#534741"/><path d="M257.51,243.25l-.81-.83a2.88,2.88,0,0,1-3.77.2c-1.08-1.11,0-2.33,1.06-2.92-1.24-1.25-.61-3.12,1.31-2.76a1.26,1.26,0,0,1,1.13,1.25c0,.79-.69,1.27-1.3,1.62l1.51,1.52a3.88,3.88,0,0,0,.38-1.12l.67.22a4.12,4.12,0,0,1-.53,1.42l.82.83Zm-1.31-1.32-1.75-1.76c-.64.37-1.58,1.12-.91,1.92S255.59,242.53,256.2,241.93ZM254,238.27c0,.32.13.55.62,1.06.48-.27,1.47-.86.94-1.55A.91.91,0,0,0,254,238.27Z" style="fill:#534741"/><path d="M264.39,242.32l.5-.6c.76,1.09,2.33.95,2.33-.52v-3.48H265V237h3.08v4.21a1.88,1.88,0,0,1-1.09,1.93A2.27,2.27,0,0,1,264.39,242.32Z" style="fill:#534741"/><path d="M277.09,239.67v3.48h-.87v-1.71h-3.54v1.71h-.86v-3.48A2.64,2.64,0,1,1,277.09,239.67Zm-.87,1v-1.08a1.77,1.77,0,1,0-3.54,0v1.08Z" style="fill:#534741"/><path d="M286,237l-2.69,6.2h-.87l-2.69-6.2h.94l2.21,5.09,2.22-5.09Z" style="fill:#534741"/><path d="M294,239.67v3.48h-.87v-1.71h-3.54v1.71h-.86v-3.48A2.64,2.64,0,1,1,294,239.67Zm-.87,1v-1.08a1.77,1.77,0,1,0-3.54,0v1.08Z" style="fill:#534741"/><path d="M307.39,237v6.2h-.87v-2.76H303v2.76h-.88V237H303v2.67h3.52V237Z" style="fill:#534741"/><path d="M310.81,240.05c0-4.12,6.52-4.13,6.52,0S310.81,244.17,310.81,240.05Zm5.64,0c0-3.11-4.76-3.07-4.76,0S316.45,243.16,316.45,240.05Z" style="fill:#534741"/><path d="M320.68,240.47V237h.88v3.49a1.74,1.74,0,1,0,3.46,0V237h.85v3.52A2.6,2.6,0,1,1,320.68,240.47Z" style="fill:#534741"/><path d="M329.13,242.44l.32-.69c.65.59,4,1.34,3.51-.43-.22-.83-1.67-.86-2.33-1.09a1.65,1.65,0,0,1-1.2-2.3c.69-1.42,3.07-1.26,4.16-.5l-.29.71c-.67-.44-3.85-.92-3.1.78.34.77,1.77.77,2.45,1a1.58,1.58,0,0,1,.94,2.38C332.71,243.67,330.16,243.41,329.13,242.44Z" style="fill:#534741"/><path d="M341.66,242.38v.77h-4.45V237h4.33v.77h-3.45v1.9h3.07v.76h-3.07v2Z" style="fill:#534741"/><path d="M122.85,248.54c2.61-7.4,29.08-10.84,18.73-40.78-4.51,22.56-17,20.82-18.72,28.48,0,0,.24-8,.78-8.54,4.79-5.18,21.53-12,10.28-31.58-2.82,13.78-8.33,14.51-10.06,18.08-.32.66-.81-1.49-.68-2.23a21.55,21.55,0,0,1,4.44-9.1c3.44-3.68,6.56-14.83-2.49-23.1,1.46,6-3.75,18-3.75,18s-3.48-12.56-3.73-18c-8.83,12.82-6,19.42-2.51,23.1,3,3.23,4,10.63,4.15,11.84-2.66-5.67-7.93-3.62-11.83-17.59-8.6,22.81,7.49,25.75,12.33,30.58.57.56.38,6.56.38,6.56-2.06-4.35-15.75-6.07-19.6-26.21-8.64,31.48,16.6,33.59,19.34,40.49a47,47,0,0,1,1.47,5.9S122.23,250.31,122.85,248.54Z" style="fill:#c7b299"/><path d="M121.38,260.3a6,6,0,0,0-.51-1.8,2.74,2.74,0,0,0-1.22-1.14,17.85,17.85,0,0,0-3.49-1.15c-2.46-.61-5-1.13-7.49-1.72a44.4,44.4,0,0,1-15-6.09,39.83,39.83,0,0,1-12-11.71,36.68,36.68,0,0,1-5.77-16.09,50,50,0,0,1,1-16.66,44.32,44.32,0,0,1,2.7-7.95,43.76,43.76,0,0,1,4.18-7.25A43.05,43.05,0,0,1,95.67,177.5a39.25,39.25,0,0,1,14.72-5.8c-8.89,5.36-16.09,12.49-20.58,20.81a44.47,44.47,0,0,0-4.6,13.18,49,49,0,0,0-.75,7,50.55,50.55,0,0,0,.18,7,36,36,0,0,0,1.36,6.6,34,34,0,0,0,2.67,6.21,40,40,0,0,0,8.88,10.68,51.15,51.15,0,0,0,12.31,7.79c2.35,1.06,4.71,2.11,7,3.32a15.68,15.68,0,0,1,3.41,2.22,3.6,3.6,0,0,1,1.1,1.85A5.52,5.52,0,0,1,121.38,260.3Z" style="fill:#c7b299"/><path d="M121.38,260.3a6.59,6.59,0,0,0-1.09-2.71,7.94,7.94,0,0,0-2.05-1.87,24.9,24.9,0,0,0-5.26-2.31q-1.4-.47-2.82-.87c-.92-.28-2-.58-3-.94a28.77,28.77,0,0,1-5.93-2.95A28.42,28.42,0,0,1,92,238.8a37.9,37.9,0,0,1-4.36-12.56,43.41,43.41,0,0,1-.31-13.13,34.85,34.85,0,0,1,1.52-6.5A32.34,32.34,0,0,1,90,203.49c.46-1,.93-2,1.46-2.94A51.43,51.43,0,0,1,99,190.33a113.65,113.65,0,0,1,9-8.43,61.61,61.61,0,0,1-2.86,5.47l-3,5.29a77.69,77.69,0,0,0-5,10.54c-2.66,7-2.84,14.33-1.68,21.72a39.58,39.58,0,0,0,3,10.42,27.5,27.5,0,0,0,6.2,8.62,31.48,31.48,0,0,0,4.39,3.37,26.78,26.78,0,0,0,2.51,1.46c.92.49,1.84,1,2.74,1.55a21.77,21.77,0,0,1,5.06,4,8,8,0,0,1,1.71,2.83A6.41,6.41,0,0,1,121.38,260.3Z" style="fill:#c7b299"/><path d="M121.38,260.3a3.14,3.14,0,0,1,.38-1.95,6.82,6.82,0,0,1,1.24-1.63,17.45,17.45,0,0,1,3.22-2.43,63.92,63.92,0,0,1,7-3.52,51.1,51.1,0,0,0,12.2-7.83,39.6,39.6,0,0,0,8.76-10.7,33,33,0,0,0,2.62-6.2,34.82,34.82,0,0,0,1.32-6.59,50.21,50.21,0,0,0,.15-7,48.63,48.63,0,0,0-.77-6.94,44.48,44.48,0,0,0-4.61-13.13A49.81,49.81,0,0,0,144.27,181a62,62,0,0,0-11.9-9.26A39.37,39.37,0,0,1,147,177.47a42.76,42.76,0,0,1,11.83,11.18,43.35,43.35,0,0,1,4.19,7.2,45.17,45.17,0,0,1,2.72,7.92A49.2,49.2,0,0,1,167,212a48.71,48.71,0,0,1-.16,8.35,36.76,36.76,0,0,1-5.64,16.07,39.74,39.74,0,0,1-11.82,11.78,44.21,44.21,0,0,1-14.93,6.18c-2.5.58-5,1.1-7.34,1.84a19,19,0,0,0-3.42,1.39A4.1,4.1,0,0,0,121.38,260.3Z" style="fill:#c7b299"/><path d="M121.38,260.3a4.43,4.43,0,0,1,.85-3,14,14,0,0,1,2-2.44,33.73,33.73,0,0,1,4.87-3.94c.85-.59,1.72-1.15,2.59-1.69a22.61,22.61,0,0,0,2.31-1.64,32.76,32.76,0,0,0,4-3.74,38.3,38.3,0,0,0,9.2-19.29,48.59,48.59,0,0,0,.52-10.9A35.92,35.92,0,0,0,145.48,203a78.42,78.42,0,0,0-4.94-10.45l-2.93-5.25c-1-1.76-2-3.54-2.83-5.43a117.46,117.46,0,0,1,8.95,8.36,51.7,51.7,0,0,1,7.48,10.12c.54.92,1,1.93,1.46,2.9s.87,2,1.19,3.09a34.41,34.41,0,0,1,1.55,6.43,42.48,42.48,0,0,1-.21,13.08,37.21,37.21,0,0,1-4.52,12.43,34.33,34.33,0,0,1-8.6,9.94,30.07,30.07,0,0,1-5.59,3.43c-1,.46-2,.86-3,1.2s-1.85.68-2.76,1.05a47.62,47.62,0,0,0-5.34,2.42A17,17,0,0,0,123,258,4.33,4.33,0,0,0,121.38,260.3Z" style="fill:#c7b299"/><path d="M121.38,260.3a4.1,4.1,0,0,0-2.32-2.67,19,19,0,0,0-3.42-1.39c-2.37-.74-4.84-1.26-7.34-1.84a44.21,44.21,0,0,1-14.93-6.18,39.74,39.74,0,0,1-11.82-11.78,36.76,36.76,0,0,1-5.64-16.07,48.71,48.71,0,0,1-.16-8.35A49.2,49.2,0,0,1,77,203.77a45.17,45.17,0,0,1,2.72-7.92,43.35,43.35,0,0,1,4.19-7.2,42.76,42.76,0,0,1,11.83-11.18,39.37,39.37,0,0,1,14.67-5.77A61.67,61.67,0,0,0,98.49,181a49.81,49.81,0,0,0-8.64,11.46,44.48,44.48,0,0,0-4.61,13.13,50.13,50.13,0,0,0-.78,6.94,51.8,51.8,0,0,0,.16,7A34.82,34.82,0,0,0,85.94,226a33,33,0,0,0,2.62,6.2,39.6,39.6,0,0,0,8.76,10.7,51.1,51.1,0,0,0,12.2,7.83,63.92,63.92,0,0,1,7,3.52,17.45,17.45,0,0,1,3.22,2.43,6.82,6.82,0,0,1,1.24,1.63A3.14,3.14,0,0,1,121.38,260.3Z" style="fill:#c7b299"/><path d="M121.38,260.3a4.33,4.33,0,0,0-1.62-2.34,17,17,0,0,0-2.4-1.61,47.62,47.62,0,0,0-5.34-2.42c-.91-.37-1.83-.71-2.76-1.05s-2-.74-3-1.2a30.07,30.07,0,0,1-5.59-3.43,34.33,34.33,0,0,1-8.6-9.94,37.21,37.21,0,0,1-4.52-12.43,42.8,42.8,0,0,1-.22-13.08,35.25,35.25,0,0,1,1.56-6.43c.32-1.08.78-2.07,1.18-3.09s.93-2,1.47-2.9A51.7,51.7,0,0,1,99,190.26a117.46,117.46,0,0,1,9-8.36c-.83,1.89-1.85,3.67-2.83,5.43l-2.93,5.25A77.19,77.19,0,0,0,97.28,203,35.93,35.93,0,0,0,95,213.65a49.79,49.79,0,0,0,.52,10.9,38.4,38.4,0,0,0,9.21,19.29,32.76,32.76,0,0,0,4,3.74,22.61,22.61,0,0,0,2.31,1.64c.87.54,1.74,1.1,2.59,1.69a33.11,33.11,0,0,1,4.86,3.94,13.64,13.64,0,0,1,2,2.44A4.49,4.49,0,0,1,121.38,260.3Z" style="fill:#c7b299"/><path d="M121.38,260.3a5.52,5.52,0,0,1,0-2,3.6,3.6,0,0,1,1.1-1.85,15.68,15.68,0,0,1,3.41-2.22c2.34-1.21,4.69-2.26,7-3.32a51,51,0,0,0,12.32-7.79,40,40,0,0,0,8.88-10.68,34,34,0,0,0,2.67-6.21,36,36,0,0,0,1.36-6.6,52.17,52.17,0,0,0,.18-7,49,49,0,0,0-.75-7,44.47,44.47,0,0,0-4.6-13.18c-4.49-8.32-11.69-15.45-20.58-20.81a39.25,39.25,0,0,1,14.72,5.8,43.05,43.05,0,0,1,11.85,11.24,43.76,43.76,0,0,1,4.18,7.25,44.32,44.32,0,0,1,2.7,7.95,50,50,0,0,1,1,16.66,36.68,36.68,0,0,1-5.77,16.09,39.83,39.83,0,0,1-12,11.71,44.4,44.4,0,0,1-15,6.09c-2.5.59-5,1.11-7.49,1.72a17.85,17.85,0,0,0-3.49,1.15,2.74,2.74,0,0,0-1.22,1.14A6,6,0,0,0,121.38,260.3Z" style="fill:#c7b299"/><path d="M121.38,260.3a6.41,6.41,0,0,1,.19-3.15,8,8,0,0,1,1.71-2.83,21.77,21.77,0,0,1,5.06-4c.9-.54,1.82-1.06,2.74-1.55a26.78,26.78,0,0,0,2.51-1.46A31.48,31.48,0,0,0,138,244a27.5,27.5,0,0,0,6.2-8.62,39.58,39.58,0,0,0,3-10.42c1.16-7.39,1-14.75-1.68-21.72a77.69,77.69,0,0,0-4.95-10.54l-3-5.29a61.61,61.61,0,0,1-2.86-5.47,115.41,115.41,0,0,1,9,8.43,51.43,51.43,0,0,1,7.51,10.22c.53.95,1,1.94,1.46,2.94a32.34,32.34,0,0,1,1.18,3.12,34.85,34.85,0,0,1,1.52,6.5,43.41,43.41,0,0,1-.31,13.13,37.9,37.9,0,0,1-4.36,12.56,28.42,28.42,0,0,1-9.21,9.85,29,29,0,0,1-5.93,2.95c-1,.36-2.13.66-3.05.94s-1.89.56-2.82.87a24.9,24.9,0,0,0-5.26,2.31,7.94,7.94,0,0,0-2,1.87A6.59,6.59,0,0,0,121.38,260.3Z" style="fill:#c7b299"/></svg>