<svg xmlns="http://www.w3.org/2000/svg" xmlns:xlink="http://www.w3.org/1999/xlink" viewBox="0 0 432 432"><defs><clipPath id="a"><rect width="432" height="432" style="fill:none"/></clipPath></defs><title>judes-pattern-3</title><rect x="-1147.54" y="-141.11" width="2240.39" height="1814.65" style="fill:#fff"/><path d="M1092.35-140.61V1673H-1147V-140.61H1092.35m1-1H-1148V1674H1093.35V-141.61Z"/><g style="clip-path:url(#a)"><path d="M33.86,57A57.84,57.84,0,0,1,19,29c-3.13-15.59.62-31.7,6.56-46.15C30.82-30,38-42,45.86-53.48c.63,13.54,3.66,27.07,6.55,40.27,2.79,12.72,5.91,25.36,9.24,38q1,3.86,2.07,7.71c3-6.89,5.59-14,8-21.06C76.47-2.48,80.57-16.8,82.25-31.39c.83-7.29,1.15-14.91-.6-22.09A88.42,88.42,0,0,1,104.1-22,80.83,80.83,0,0,1,110,9.69,83.89,83.89,0,0,1,105,37.38c-2.54,6.93-6,13.78-11,19.29-8.19,9-13.88,20.12-18,31.54-.88,2.45-1.69,4.92-2.38,7.42a28.69,28.69,0,0,0-1.25,5.84,22.24,22.24,0,0,0,.78,6.54c.18.7.8,3.93,1.93,3.84.71-.06,1.39-2.07,1.72-2.63a31.24,31.24,0,0,1,1.91-2.79,54,54,0,0,1,4.75-5.29c4.09-4.11,8.38-8,12.22-12.35,13.23-14.94,20.72-33.73,25.58-52.87q1.41-5.55,2.54-11.17c10.59,18.43,19,39.38,18.22,61-.54,15.32-6.13,29.73-15.17,42-8.16,11.1-18.57,20.25-29.27,28.81-4.68,3.73-9.44,7.36-14.06,11.16-2,1.63-3.93,3.3-5.8,5.05C76.32,174,74.57,175.26,74,177a39.13,39.13,0,0,0-1.31,7.91c-.41,3.84-.69,7.69-.93,11.54-.41,6.39-.7,12.8-.91,19.2,0,.36,0,.72,0,1.09A36.47,36.47,0,0,1,80.9,199.18c5.37-5.43,11.7-9.83,17.79-14.41a176.73,176.73,0,0,0,21.55-18.5,130.39,130.39,0,0,0,21.41-29.9c8-15.16,13.3-31.6,17.1-48.25q.87-3.81,1.64-7.65a210,210,0,0,1,10.25,42.15,131.82,131.82,0,0,1,.11,34.37,101.55,101.55,0,0,1-7.82,27.71,102.87,102.87,0,0,1-13.57,22.15,134.86,134.86,0,0,1-17.11,17.68,230.07,230.07,0,0,1-18.48,14.31c-5.82,4.11-11.77,8-17.65,12A163.42,163.42,0,0,0,81.5,261.77c-3.61,3.11-7.11,6.6-9.4,10.82-1.79,3.3-2.67,7.08-3.62,10.69C67,289,65.64,294.81,64.39,300.62c-.22,1.06-.45,2.11-.67,3.17-.72-3.86-1.53-7.69-2.4-11.51-1.28-5.69-2.5-11.63-4.76-17-1.67-4-4.67-7.24-7.85-10.07a110.29,110.29,0,0,0-13.23-9.69c-5.52-3.6-11.14-7-16.68-10.63-6.18-4-12.26-8.2-18-12.76a139.06,139.06,0,0,1-17.3-16,107,107,0,0,1-14.69-20.7,105.72,105.72,0,0,1-9.95-26.54,134.6,134.6,0,0,1-3.18-33.61,208.73,208.73,0,0,1,5.6-41.69q1.35-5.88,3-11.68A181.12,181.12,0,0,0-20.4,129,136.25,136.25,0,0,0,1.19,160.45a153.15,153.15,0,0,0,23.09,20.22c6.59,4.76,13.51,9,20.21,13.64,4.59,3.15,9.64,6.6,12.62,11.45a15.11,15.11,0,0,1,.81,1.47c.17-5.64.21-11.3.07-16.95a86.24,86.24,0,0,0-.74-10.89,9.29,9.29,0,0,0-.81-3.11,8.64,8.64,0,0,0-1.89-1.93c-7.25-6.5-16.07-11.18-24.22-16.42C20.38,151.54,10.72,144.48,3,135.48a72.28,72.28,0,0,1-16.8-36.94c-2.94-20.1,1.38-40.73,7.72-59.76q1.55-4.65,3.28-9.22c4.93,17.69,11.58,35.87,23.71,50a91.69,91.69,0,0,0,12,11.36c3.69,3,7.51,5.83,11,9.11a45.48,45.48,0,0,1,9.94,13.71,167.2,167.2,0,0,0-3-17.49A122.93,122.93,0,0,0,42.1,69.7,49.79,49.79,0,0,0,33.86,57Zm248.67,56.21a232,232,0,0,0-7.2-55.2A208,208,0,0,0,254.26,6.17a203.13,203.13,0,0,0-33.71-43.58,206.34,206.34,0,0,0-46.37-34.33,184.67,184.67,0,0,0-50.55-19q-3.64-.76-7.34-1.33c20.88,12.69,40.85,27.57,57.88,45.17a247.69,247.69,0,0,1,23.29,27.14,254.06,254.06,0,0,1,19.43,31.35,210.44,210.44,0,0,1,21.47,69.26,240.83,240.83,0,0,1,1.4,53.6A162.48,162.48,0,0,1,219.4,200q-2.28,4-4.78,7.88a205.46,205.46,0,0,0,13.09-57.41A196.53,196.53,0,0,0,225.3,97,171.49,171.49,0,0,0,207.15,46.3,237.08,237.08,0,0,0,174.52,1c-12.74-14-26.6-26.74-40.86-39.17l-5.82-5.08c5.77,13.21,13.32,25.64,20.4,38.18s14.16,25.26,20.34,38.33a256.77,256.77,0,0,1,15.55,40.13,178.44,178.44,0,0,1,6.33,42.6c.93,28.54-3.16,57.4-13.9,83.94A183.79,183.79,0,0,1,157.09,236a170.83,170.83,0,0,1-12.51,15.88c-4.56,5.12-10.2,9.41-15.75,13.39a169.83,169.83,0,0,1-14.67,9.33c-5.68,3.26-11.55,6.14-17.16,9.54-11.08,6.74-22.84,14.78-29.54,26.21a31.25,31.25,0,0,0-3.74,9.6c-2.7-13.46-14.55-23.3-25.31-30.68a208.46,208.46,0,0,0-18.15-10.94c-4.45-2.42-8.91-4.73-13.2-7.45a158,158,0,0,1-17.21-12.43A96.61,96.61,0,0,1-24,243.63a180.12,180.12,0,0,1-21.21-34.8,186.37,186.37,0,0,1-13.54-40.72,227.33,227.33,0,0,1-4.33-43.55A183.09,183.09,0,0,1-58.9,82.09c3.19-14,8.22-27.49,14-40.63C-39.19,28.55-32.54,16.1-25.73,3.75c7-12.62,14.49-25,21-37.85,1.52-3,3-6.06,4.36-9.16C-14.84-30.58-29.19-17.95-42.48-4c-13,13.57-24.92,28.76-34.23,45.08A181.63,181.63,0,0,0-96.53,90.6a190.68,190.68,0,0,0-4.24,52.79,210.14,210.14,0,0,0,11,57.37c.82,2.38,1.7,4.75,2.62,7.09a161.1,161.1,0,0,1-24.23-65.34c-2.37-17.25-2.19-35-.59-52.3,2.23-24.22,8.27-48.51,18.64-70.56A244.72,244.72,0,0,1-75.44-12.11,245.37,245.37,0,0,1-53.06-40.25c16.39-18.19,35.84-33.59,56.33-46.9,2.6-1.69,5.24-3.33,7.89-4.94C-8.92-89-28.33-81.66-46.16-72A207.56,207.56,0,0,0-96.3-34.19,200.31,200.31,0,0,0-132,15.76a215.91,215.91,0,0,0-19.29,57.68A243,243,0,0,0-154.44,135a180,180,0,0,0,14.76,59,177.87,177.87,0,0,0,33.27,49.93,200.61,200.61,0,0,0,46.16,36.24A216.78,216.78,0,0,0-.94,303.13c8.84,2.06,17.72,3.95,26.5,6.24,10.21,2.66,21.29,5.53,30.1,11.57,3.79,2.6,7.18,6.23,8.06,10.9,1-5.4,5.3-9.29,9.79-12A76.63,76.63,0,0,1,89.38,313c11.53-3.77,23.41-6.22,35.2-9a279.38,279.38,0,0,0,27.11-7.45,203.57,203.57,0,0,0,32.93-14.65,201.51,201.51,0,0,0,50.9-39.76,179.28,179.28,0,0,0,34.67-55.49c8.17-20.8,11.72-42.73,12.33-65C282.6,118.87,282.56,116.06,282.53,113.25Z" style="fill:#c7b299"/><path d="M303.61,23.77a9.6,9.6,0,0,1-2.48-4.68,13.53,13.53,0,0,1,1.09-7.7,32.86,32.86,0,0,1,3.4-6.07A40.23,40.23,0,0,0,306.71,12c.47,2.12,1,4.24,1.54,6.34l.35,1.28c.5-1.15.93-2.33,1.34-3.51A34.64,34.64,0,0,0,311.69,9a10.63,10.63,0,0,0-.1-3.69,14.79,14.79,0,0,1,3.75,5.26,13.64,13.64,0,0,1,1,5.28,14,14,0,0,1-.85,4.63,9.84,9.84,0,0,1-1.84,3.22,15.67,15.67,0,0,0-3,5.26c-.15.41-.28.82-.4,1.24a5.42,5.42,0,0,0-.21,1,3.69,3.69,0,0,0,.14,1.1c0,.11.13.65.32.64s.23-.35.28-.44.21-.32.32-.47a9.48,9.48,0,0,1,.8-.88c.68-.69,1.39-1.34,2-2.06a20.88,20.88,0,0,0,4.26-8.83c.16-.61.3-1.24.43-1.86,1.77,3.07,3.17,6.57,3,10.18a12.55,12.55,0,0,1-2.53,7,26.21,26.21,0,0,1-4.89,4.81c-.78.62-1.57,1.23-2.34,1.86-.33.28-.66.55-1,.85a2,2,0,0,0-.61.7,6.6,6.6,0,0,0-.21,1.32c-.07.64-.12,1.29-.16,1.93-.07,1.07-.12,2.13-.15,3.2v.19a6.17,6.17,0,0,1,1.68-2.94,26.51,26.51,0,0,1,3-2.4A30.16,30.16,0,0,0,318,42a21.78,21.78,0,0,0,3.58-5,33.26,33.26,0,0,0,2.85-8c.1-.43.19-.85.27-1.28a34.68,34.68,0,0,1,1.71,7,22.06,22.06,0,0,1,0,5.74,16.51,16.51,0,0,1-3.57,8.32,22.16,22.16,0,0,1-2.85,3c-1,.85-2,1.64-3.09,2.38s-2,1.34-2.94,2a25.67,25.67,0,0,0-2.44,1.81A6.47,6.47,0,0,0,310,59.75a8,8,0,0,0-.61,1.78c-.25,1-.47,1.93-.68,2.9,0,.17-.08.35-.11.53-.12-.65-.26-1.29-.4-1.93a17.35,17.35,0,0,0-.8-2.84,4.88,4.88,0,0,0-1.31-1.68,18.72,18.72,0,0,0-2.21-1.62c-.92-.6-1.86-1.17-2.78-1.77s-2.05-1.37-3-2.13a22.23,22.23,0,0,1-2.89-2.68,17.63,17.63,0,0,1-4.12-7.88,22.52,22.52,0,0,1-.52-5.61,34,34,0,0,1,.93-7c.15-.66.31-1.31.49-1.95a30.39,30.39,0,0,0,2.58,7.87,22.66,22.66,0,0,0,3.6,5.25A25.69,25.69,0,0,0,302,44.4c1.1.8,2.26,1.51,3.38,2.28a7,7,0,0,1,2.1,1.91,2,2,0,0,1,.14.25c0-.94,0-1.89,0-2.83a13.79,13.79,0,0,0-.12-1.82,1.54,1.54,0,0,0-.14-.52,1.34,1.34,0,0,0-.31-.32A30.94,30.94,0,0,0,303,40.61a20.88,20.88,0,0,1-4.57-3.75,12,12,0,0,1-2.8-6.17,21.9,21.9,0,0,1,1.29-10c.17-.52.35-1,.54-1.54a21.69,21.69,0,0,0,4,8.35,15.58,15.58,0,0,0,2,1.89c.61.5,1.25,1,1.83,1.52a7.81,7.81,0,0,1,1.66,2.29,28.72,28.72,0,0,0-.5-2.92A20.31,20.31,0,0,0,305,25.88,8,8,0,0,0,303.61,23.77Zm41.51,9.38a38.21,38.21,0,0,0-1.2-9.21,34.71,34.71,0,0,0-3.52-8.66A33.71,33.71,0,0,0,334.78,8,34.67,34.67,0,0,0,327,2.27,30.75,30.75,0,0,0,318.6-.9c-.41-.09-.82-.16-1.23-.22A47.68,47.68,0,0,1,327,6.42a39.8,39.8,0,0,1,3.89,4.52,41.5,41.5,0,0,1,3.24,5.24,35,35,0,0,1,3.59,11.56,40,40,0,0,1,.23,9,27.11,27.11,0,0,1-3.4,10.94c-.25.44-.52.88-.79,1.31A34.63,34.63,0,0,0,336,39.36a33,33,0,0,0-.4-8.93,28.64,28.64,0,0,0-3-8.46,39.67,39.67,0,0,0-5.45-7.56,81,81,0,0,0-6.82-6.54l-1-.85a67.29,67.29,0,0,0,3.41,6.38c1.18,2.1,2.36,4.22,3.39,6.4a42.22,42.22,0,0,1,2.6,6.7,29.37,29.37,0,0,1,1.05,7.11,34.19,34.19,0,0,1-2.32,14,30.4,30.4,0,0,1-3.25,6,26.75,26.75,0,0,1-2.09,2.65,16,16,0,0,1-2.62,2.24c-.79.57-1.61,1.07-2.45,1.56s-1.93,1-2.87,1.59a13.75,13.75,0,0,0-4.93,4.37,5.17,5.17,0,0,0-.62,1.61c-.45-2.25-2.43-3.89-4.23-5.12a32.07,32.07,0,0,0-3-1.83c-.74-.4-1.48-.79-2.2-1.24a26.9,26.9,0,0,1-2.87-2.08A15.57,15.57,0,0,1,294,54.91a29.69,29.69,0,0,1-3.54-5.81,30.6,30.6,0,0,1-2.26-6.79,37,37,0,0,1-.72-7.27,30.15,30.15,0,0,1,.7-7.09,37,37,0,0,1,2.34-6.78c.95-2.16,2.06-4.24,3.2-6.3s2.41-4.17,3.5-6.32c.25-.5.5-1,.73-1.53-2.42,2.12-4.81,4.23-7,6.55a39.11,39.11,0,0,0-5.71,7.53,30.21,30.21,0,0,0-3.31,8.27,31.8,31.8,0,0,0-.71,8.81A35.16,35.16,0,0,0,283,47.76c.14.4.29.79.44,1.18a26.78,26.78,0,0,1-4-10.91,38,38,0,0,1-.1-8.73,35.38,35.38,0,0,1,3.11-11.77,41.3,41.3,0,0,1,3-5.31,41.93,41.93,0,0,1,3.73-4.69A47.09,47.09,0,0,1,298.51-.3c.43-.28.87-.56,1.31-.82a29.83,29.83,0,0,0-9.56,3.34,34.47,34.47,0,0,0-8.37,6.32,33.24,33.24,0,0,0-6,8.34,35.86,35.86,0,0,0-3.22,9.62,40.8,40.8,0,0,0-.53,10.29,29.54,29.54,0,0,0,8,18.18,33.36,33.36,0,0,0,7.7,6,36.4,36.4,0,0,0,9.9,3.84c1.48.34,3,.66,4.43,1a15.8,15.8,0,0,1,5,1.93,3,3,0,0,1,1.35,1.82,3.2,3.2,0,0,1,1.63-2,13.24,13.24,0,0,1,2.65-1.14c1.93-.63,3.91-1,5.88-1.5a44.44,44.44,0,0,0,4.52-1.24,34.22,34.22,0,0,0,5.5-2.44,33.59,33.59,0,0,0,8.49-6.64,30,30,0,0,0,5.79-9.26,31.74,31.74,0,0,0,2.06-10.85Q345.14,33.86,345.12,33.15Z" style="fill:#c7b299"/><path d="M329.36,101.75a14.33,14.33,0,0,1-3.68-6.91c-.77-3.85.16-7.82,1.62-11.39a48.42,48.42,0,0,1,5-9,59.58,59.58,0,0,0,1.61,9.93c.69,3.14,1.46,6.26,2.28,9.37l.51,1.9c.74-1.7,1.38-3.45,2-5.2a50.51,50.51,0,0,0,2.59-10.55,15.59,15.59,0,0,0-.14-5.45,21.82,21.82,0,0,1,5.53,7.77,20.08,20.08,0,0,1,1.47,7.81,20.9,20.9,0,0,1-1.26,6.83,14.35,14.35,0,0,1-2.71,4.76,23.25,23.25,0,0,0-4.45,7.79c-.22.6-.42,1.21-.59,1.83a7,7,0,0,0-.31,1.44,5.86,5.86,0,0,0,.19,1.61c.05.17.2,1,.48,1s.34-.51.42-.65.31-.47.48-.69a13.06,13.06,0,0,1,1.17-1.31c1-1,2.06-2,3-3,3.27-3.69,5.11-8.32,6.31-13q.35-1.38.63-2.76c2.61,4.55,4.68,9.72,4.49,15a18.58,18.58,0,0,1-3.74,10.36,38.58,38.58,0,0,1-7.22,7.11c-1.15.92-2.33,1.81-3.47,2.75-.49.4-1,.81-1.43,1.25a2.86,2.86,0,0,0-.89,1,9.23,9.23,0,0,0-.32,1.95c-.11,1-.17,1.9-.23,2.85-.1,1.57-.18,3.15-.23,4.73a2.44,2.44,0,0,1,0,.27,9,9,0,0,1,2.49-4.33,39.38,39.38,0,0,1,4.39-3.55,44.53,44.53,0,0,0,5.32-4.57,32.53,32.53,0,0,0,5.28-7.37,49.25,49.25,0,0,0,4.22-11.91c.14-.62.27-1.25.4-1.88a51.66,51.66,0,0,1,2.53,10.39,33,33,0,0,1,0,8.48,25,25,0,0,1-1.93,6.84,25.66,25.66,0,0,1-3.35,5.46,32.81,32.81,0,0,1-4.22,4.36,55.59,55.59,0,0,1-4.56,3.54c-1.44,1-2.9,2-4.35,3a37.89,37.89,0,0,0-3.61,2.68,9.87,9.87,0,0,0-2.32,2.67,11.73,11.73,0,0,0-.89,2.64c-.38,1.41-.7,2.84-1,4.28-.06.26-.11.52-.17.78-.18-1-.38-1.9-.59-2.84a25.15,25.15,0,0,0-1.18-4.2,7.22,7.22,0,0,0-1.93-2.49,29.32,29.32,0,0,0-3.26-2.39c-1.37-.89-2.75-1.73-4.12-2.62s-3-2-4.45-3.15a33.34,33.34,0,0,1-4.27-4,25.5,25.5,0,0,1-6.08-11.65,33,33,0,0,1-.78-8.29,51,51,0,0,1,1.38-10.29c.22-1,.46-1.92.73-2.88a44.41,44.41,0,0,0,3.8,11.63,33.61,33.61,0,0,0,5.33,7.77,38.1,38.1,0,0,0,5.69,5c1.63,1.17,3.33,2.22,5,3.36a10.37,10.37,0,0,1,3.11,2.82c.07.12.14.24.2.37,0-1.39,0-2.79,0-4.18a22,22,0,0,0-.18-2.69,2.5,2.5,0,0,0-.2-.77,2.1,2.1,0,0,0-.47-.47,44.21,44.21,0,0,0-6-4,30.74,30.74,0,0,1-6.75-5.54,18,18,0,0,1-4.15-9.12c-.72-5,.35-10,1.91-14.74q.38-1.14.81-2.28c1.22,4.37,2.86,8.85,5.85,12.34a22.32,22.32,0,0,0,3,2.8c.91.74,1.85,1.44,2.7,2.25a11.06,11.06,0,0,1,2.45,3.38,41.69,41.69,0,0,0-.73-4.31,30.59,30.59,0,0,0-2.13-6.55A12.41,12.41,0,0,0,329.36,101.75Zm61.34,13.86A57.42,57.42,0,0,0,388.93,102a51.38,51.38,0,0,0-5.2-12.79,50.2,50.2,0,0,0-8.32-10.76A51,51,0,0,0,364,70a46,46,0,0,0-12.47-4.69c-.6-.12-1.2-.23-1.81-.32A71.36,71.36,0,0,1,364,76.1a62,62,0,0,1,5.75,6.69,63.47,63.47,0,0,1,4.79,7.74,52.08,52.08,0,0,1,5.3,17.08,59.73,59.73,0,0,1,.34,13.23,40.15,40.15,0,0,1-5,16.17c-.38.66-.77,1.3-1.18,1.94a51,51,0,0,0,3.23-14.16,48.27,48.27,0,0,0-.6-13.2,42.57,42.57,0,0,0-4.47-12.5,58.28,58.28,0,0,0-8.05-11.17A120.9,120.9,0,0,0,354,78.26L352.54,77a105,105,0,0,0,5,9.42c1.76,3.1,3.5,6.23,5,9.46a62.58,62.58,0,0,1,3.84,9.9A44.36,44.36,0,0,1,368,116.29a50.75,50.75,0,0,1-3.43,20.7,45.27,45.27,0,0,1-4.8,8.91,41.57,41.57,0,0,1-3.09,3.92,23.52,23.52,0,0,1-3.88,3.3,41.66,41.66,0,0,1-3.62,2.3c-1.4.81-2.85,1.52-4.24,2.36-2.73,1.66-5.63,3.64-7.28,6.46a7.56,7.56,0,0,0-.93,2.37c-.66-3.32-3.59-5.75-6.24-7.57-1.44-1-3-1.86-4.48-2.7-1.1-.6-2.2-1.16-3.26-1.83a38.75,38.75,0,0,1-4.24-3.07,23.77,23.77,0,0,1-3.43-3.66,44.82,44.82,0,0,1-5.23-8.59,46.25,46.25,0,0,1-3.34-10,56.22,56.22,0,0,1-1.07-10.75,44.89,44.89,0,0,1,1-10.47,55.31,55.31,0,0,1,3.46-10c1.41-3.18,3-6.26,4.72-9.3s3.58-6.16,5.18-9.34c.38-.74.74-1.49,1.08-2.26-3.57,3.13-7.11,6.25-10.39,9.68a57.4,57.4,0,0,0-8.44,11.12A44.61,44.61,0,0,0,297.19,110a47.17,47.17,0,0,0-1.05,13,52.06,52.06,0,0,0,2.71,14.15c.2.59.42,1.17.65,1.75a39.79,39.79,0,0,1-6-16.12,56.79,56.79,0,0,1-.15-12.9A52.81,52.81,0,0,1,298,92.52a60.38,60.38,0,0,1,4.42-7.84,61.33,61.33,0,0,1,5.52-6.94,70.43,70.43,0,0,1,13.9-11.57c.64-.41,1.29-.82,1.95-1.21a43.87,43.87,0,0,0-14.14,4.94,50.85,50.85,0,0,0-12.37,9.34,49.67,49.67,0,0,0-8.81,12.32,53.36,53.36,0,0,0-4.76,14.23A60,60,0,0,0,282.9,121a44.61,44.61,0,0,0,3.64,14.55,43.86,43.86,0,0,0,8.21,12.32,49.33,49.33,0,0,0,11.39,8.94,53.06,53.06,0,0,0,14.63,5.66c2.18.51,4.37,1,6.54,1.55a23.32,23.32,0,0,1,7.42,2.85,4.36,4.36,0,0,1,2,2.69,4.7,4.7,0,0,1,2.42-3,18.56,18.56,0,0,1,3.91-1.69c2.85-.93,5.78-1.53,8.69-2.21,2.25-.53,4.49-1.09,6.68-1.84a50.1,50.1,0,0,0,8.13-3.62,49.37,49.37,0,0,0,12.55-9.81,44.12,44.12,0,0,0,8.56-13.69,47.19,47.19,0,0,0,3-16C390.72,117,390.71,116.3,390.7,115.61Z" style="fill:#c7b299"/><path d="M394.81,15.41A14.91,14.91,0,0,1,391,8.2c-.8-4,.16-8.17,1.69-11.89a51.25,51.25,0,0,1,5.24-9.37,61.89,61.89,0,0,0,1.69,10.38q1.08,4.91,2.38,9.77c.17.66.35,1.33.53,2,.77-1.78,1.44-3.6,2.06-5.43a53,53,0,0,0,2.71-11,16.24,16.24,0,0,0-.15-5.69,22.79,22.79,0,0,1,5.78,8.12,20.71,20.71,0,0,1,1.53,8.15,21.73,21.73,0,0,1-1.31,7.14,15,15,0,0,1-2.84,5,24.41,24.41,0,0,0-4.64,8.12c-.23.63-.44,1.27-.62,1.91a7.87,7.87,0,0,0-.32,1.5,6,6,0,0,0,.2,1.69c.05.18.21,1,.5,1s.36-.53.44-.68a7.11,7.11,0,0,1,.5-.72,14.27,14.27,0,0,1,1.22-1.36c1.05-1.06,2.16-2.06,3.15-3.18,3.4-3.85,5.33-8.69,6.58-13.62.25-1,.46-1.91.66-2.88,2.73,4.75,4.89,10.15,4.69,15.71a19.45,19.45,0,0,1-3.91,10.83A40.39,40.39,0,0,1,411.19,41c-1.2,1-2.43,1.9-3.62,2.88-.51.42-1,.85-1.49,1.3a2.86,2.86,0,0,0-.93,1.09,9.35,9.35,0,0,0-.34,2c-.11,1-.18,2-.24,3-.1,1.65-.18,3.3-.23,5a2.53,2.53,0,0,0,0,.28A9.4,9.4,0,0,1,406.92,52a40.9,40.9,0,0,1,4.59-3.71,45.71,45.71,0,0,0,5.55-4.76,33.57,33.57,0,0,0,5.51-7.71A51.06,51.06,0,0,0,427,23.42c.15-.66.29-1.32.42-2A54,54,0,0,1,430,32.3a34.13,34.13,0,0,1,0,8.86,26,26,0,0,1-2,7.13A26.48,26.48,0,0,1,424.56,54a35.11,35.11,0,0,1-4.41,4.55,58.71,58.71,0,0,1-4.76,3.69c-1.5,1.06-3,2.07-4.54,3.1a40.09,40.09,0,0,0-3.77,2.81,10.37,10.37,0,0,0-2.42,2.78,12.21,12.21,0,0,0-.93,2.75c-.4,1.48-.74,3-1.06,4.47-.06.27-.11.55-.17.82-.19-1-.4-2-.62-3a25.67,25.67,0,0,0-1.23-4.38,7.32,7.32,0,0,0-2-2.6,28.49,28.49,0,0,0-3.4-2.49c-1.43-.93-2.88-1.82-4.3-2.74-1.59-1-3.16-2.11-4.65-3.29a35.55,35.55,0,0,1-4.46-4.13A27.67,27.67,0,0,1,378,51a27.4,27.4,0,0,1-2.56-6.84,34.49,34.49,0,0,1-.82-8.66A53.45,53.45,0,0,1,376.1,24.8c.23-1,.49-2,.76-3a46.7,46.7,0,0,0,4,12.14,35.17,35.17,0,0,0,5.56,8.11,39.89,39.89,0,0,0,5.95,5.21c1.7,1.22,3.48,2.32,5.21,3.51a10.79,10.79,0,0,1,3.25,2.95c.07.12.14.25.2.38.05-1.46.06-2.91,0-4.37a20.16,20.16,0,0,0-.19-2.8,2.31,2.31,0,0,0-.21-.81,2.47,2.47,0,0,0-.48-.49,47.17,47.17,0,0,0-6.24-4.23,31.71,31.71,0,0,1-7-5.79,18.49,18.49,0,0,1-4.33-9.51c-.76-5.18.36-10.49,2-15.39.26-.8.54-1.59.84-2.38,1.27,4.56,3,9.24,6.11,12.88a23,23,0,0,0,3.08,2.92c.95.78,1.93,1.51,2.82,2.35A11.7,11.7,0,0,1,399.92,30a42.71,42.71,0,0,0-.77-4.5,31.61,31.61,0,0,0-2.22-6.84A12.78,12.78,0,0,0,394.81,15.41Zm64.05,14.48A59.83,59.83,0,0,0,457,15.67a53.73,53.73,0,0,0-5.43-13.36A52.61,52.61,0,0,0,442.9-8.92,53.09,53.09,0,0,0,431-17.76a47.45,47.45,0,0,0-13-4.9c-.63-.13-1.26-.24-1.89-.34A74.68,74.68,0,0,1,431-11.37a65.44,65.44,0,0,1,6,7,65.81,65.81,0,0,1,5,8.08,54,54,0,0,1,5.53,17.84,61.27,61.27,0,0,1,.36,13.8,41.77,41.77,0,0,1-5.24,16.89c-.39.69-.8,1.36-1.23,2a53,53,0,0,0,3.37-14.79,50.92,50.92,0,0,0-.62-13.78,44.13,44.13,0,0,0-4.68-13A61,61,0,0,0,431,1,126.77,126.77,0,0,0,420.52-9.11L419-10.43a107.85,107.85,0,0,0,5.25,9.84c1.83,3.24,3.65,6.51,5.24,9.87a67.62,67.62,0,0,1,4,10.34,46.7,46.7,0,0,1,1.63,11,53.16,53.16,0,0,1-3.59,21.62,46.85,46.85,0,0,1-5,9.3,42.58,42.58,0,0,1-3.22,4.09,24.3,24.3,0,0,1-4.06,3.45,42.33,42.33,0,0,1-3.78,2.4c-1.46.84-3,1.59-4.42,2.46-2.85,1.74-5.88,3.81-7.61,6.75a8.14,8.14,0,0,0-1,2.48c-.7-3.47-3.75-6-6.52-7.9a52.62,52.62,0,0,0-4.67-2.82c-1.15-.63-2.3-1.22-3.4-1.92a40.08,40.08,0,0,1-4.44-3.21,24.38,24.38,0,0,1-3.57-3.82,46.11,46.11,0,0,1-5.47-9A47.85,47.85,0,0,1,371,44a57.85,57.85,0,0,1-1.12-11.22,47.34,47.34,0,0,1,1.08-10.94,57.78,57.78,0,0,1,3.62-10.46c1.46-3.33,3.17-6.53,4.93-9.72s3.73-6.43,5.4-9.74c.4-.78.78-1.57,1.13-2.37-3.73,3.27-7.42,6.53-10.85,10.11a59.92,59.92,0,0,0-8.81,11.61,46.77,46.77,0,0,0-5.11,12.77,49.23,49.23,0,0,0-1.09,13.59A54.32,54.32,0,0,0,363,52.43c.21.61.44,1.22.67,1.83a41.64,41.64,0,0,1-6.24-16.83A59.58,59.58,0,0,1,357.24,24,54.88,54.88,0,0,1,362,5.78a63.78,63.78,0,0,1,4.61-8.18,63.93,63.93,0,0,1,5.77-7.25,72.81,72.81,0,0,1,14.51-12.08c.67-.43,1.35-.86,2-1.27a46,46,0,0,0-14.76,5.16,53.75,53.75,0,0,0-12.92,9.75,52,52,0,0,0-9.19,12.87,55.63,55.63,0,0,0-5,14.85,62.52,62.52,0,0,0-.81,15.87,46.18,46.18,0,0,0,3.8,15.19,45.53,45.53,0,0,0,8.57,12.86,51.48,51.48,0,0,0,11.89,9.34,55.87,55.87,0,0,0,15.27,5.91c2.28.53,4.57,1,6.83,1.61a24.35,24.35,0,0,1,7.75,3,4.58,4.58,0,0,1,2.08,2.81A4.88,4.88,0,0,1,405,83.1a19.5,19.5,0,0,1,4.09-1.76c3-1,6-1.6,9.07-2.31,2.35-.55,4.69-1.14,7-1.92a52.66,52.66,0,0,0,8.48-3.77,52,52,0,0,0,13.11-10.25,46.11,46.11,0,0,0,8.93-14.29,49.13,49.13,0,0,0,3.18-16.74C458.88,31.34,458.87,30.61,458.86,29.89Z" style="fill:#c7b299"/><path d="M346,250.93a33.75,33.75,0,0,1-8.7-16.36c-1.82-9.1.36-18.51,3.83-26.95A114.86,114.86,0,0,1,353,186.38c.37,7.91,2.14,15.81,3.83,23.52,1.63,7.43,3.45,14.81,5.39,22.16.4,1.5.8,3,1.22,4.5,1.74-4,3.26-8.15,4.67-12.3a120.16,120.16,0,0,0,6.14-25,37,37,0,0,0-.35-12.9A51.61,51.61,0,0,1,387,204.78a47.21,47.21,0,0,1,3.47,18.49,49.06,49.06,0,0,1-3,16.17A34.25,34.25,0,0,1,381,250.71a55.13,55.13,0,0,0-10.53,18.42c-.52,1.42-1,2.87-1.4,4.33a17.27,17.27,0,0,0-.73,3.41,13.33,13.33,0,0,0,.46,3.82c.1.41.47,2.3,1.13,2.24.41,0,.81-1.21,1-1.54a18,18,0,0,1,1.12-1.62,31.17,31.17,0,0,1,2.77-3.09c2.39-2.4,4.89-4.68,7.14-7.22,7.72-8.72,12.1-19.7,14.93-30.87.55-2.16,1-4.34,1.49-6.52,6.18,10.76,11.08,23,10.64,35.61a44.07,44.07,0,0,1-8.86,24.54C395.44,298.7,389.36,304,383.11,309c-2.73,2.18-5.51,4.3-8.21,6.52-1.16.95-2.3,1.92-3.39,2.95a6.85,6.85,0,0,0-2.12,2.46,23.33,23.33,0,0,0-.76,4.62c-.24,2.24-.4,4.49-.54,6.74-.24,3.74-.41,7.48-.53,11.21,0,.22,0,.43,0,.64a21.29,21.29,0,0,1,5.88-10.25,90.38,90.38,0,0,1,10.4-8.41,104.42,104.42,0,0,0,12.58-10.81,76.15,76.15,0,0,0,12.5-17.46,115.78,115.78,0,0,0,10-28.18c.34-1.48.66-3,.95-4.47a122,122,0,0,1,6,24.62,77.05,77.05,0,0,1,.07,20.07,59.39,59.39,0,0,1-4.57,16.18,60.61,60.61,0,0,1-7.92,12.94,79.29,79.29,0,0,1-10,10.32,133.94,133.94,0,0,1-10.79,8.36c-3.4,2.4-6.87,4.69-10.31,7a96.35,96.35,0,0,0-8.53,6.36,23.2,23.2,0,0,0-5.49,6.32,27.84,27.84,0,0,0-2.12,6.24c-.89,3.35-1.66,6.74-2.38,10.13-.14.61-.27,1.23-.39,1.84q-.64-3.37-1.41-6.72a60.09,60.09,0,0,0-2.78-9.94,16.86,16.86,0,0,0-4.59-5.88,64,64,0,0,0-7.72-5.66c-3.22-2.1-6.51-4.11-9.74-6.21-3.61-2.34-7.16-4.78-10.54-7.45a80.73,80.73,0,0,1-10.1-9.37,62.49,62.49,0,0,1-8.58-12.09,61.29,61.29,0,0,1-5.81-15.5,78.88,78.88,0,0,1-1.86-19.62,122,122,0,0,1,3.27-24.35c.53-2.29,1.1-4.56,1.73-6.82a105.52,105.52,0,0,0,9,27.53,79.27,79.27,0,0,0,12.61,18.38,89.63,89.63,0,0,0,13.48,11.81c3.85,2.78,7.89,5.28,11.8,8,2.69,1.85,5.63,3.86,7.37,6.69a8,8,0,0,1,.47.86c.1-3.3.13-6.6.05-9.9a48.43,48.43,0,0,0-.44-6.36,5.32,5.32,0,0,0-.47-1.81,4.72,4.72,0,0,0-1.1-1.13c-4.24-3.8-9.39-6.53-14.15-9.59-5.81-3.73-11.45-7.85-16-13.11a42.23,42.23,0,0,1-9.82-21.57c-1.71-11.74.81-23.79,4.51-34.9.6-1.81,1.24-3.6,1.92-5.39,2.88,10.34,6.76,20.95,13.85,29.2a52.67,52.67,0,0,0,7,6.63c2.16,1.75,4.39,3.41,6.4,5.32a26.59,26.59,0,0,1,5.81,8,97.59,97.59,0,0,0-1.74-10.21,72.12,72.12,0,0,0-5-15.51A29.13,29.13,0,0,0,346,250.93Zm145.21,32.82a135.89,135.89,0,0,0-4.2-32.24,121.47,121.47,0,0,0-12.31-30.29A118.6,118.6,0,0,0,455,195.77a120.88,120.88,0,0,0-27.08-20.05,107.86,107.86,0,0,0-29.52-11.11c-1.42-.29-2.85-.55-4.29-.77a168.43,168.43,0,0,1,33.8,26.38,144.53,144.53,0,0,1,13.6,15.84,148.05,148.05,0,0,1,11.35,18.31,122.86,122.86,0,0,1,12.54,40.45,140.55,140.55,0,0,1,.81,31.29,94.82,94.82,0,0,1-11.88,38.28c-.89,1.56-1.83,3.09-2.8,4.6a120.3,120.3,0,0,0,7.65-33.53,115.12,115.12,0,0,0-1.41-31.23,100.18,100.18,0,0,0-10.6-29.58,138.22,138.22,0,0,0-19-26.46,287.87,287.87,0,0,0-23.86-22.87l-3.4-3c3.37,7.72,7.77,15,11.91,22.29S421,229.4,424.63,237a150.75,150.75,0,0,1,9.08,23.43,104.74,104.74,0,0,1,3.7,24.88c.54,16.67-1.85,33.52-8.12,49a107.68,107.68,0,0,1-11.37,21.08,98.91,98.91,0,0,1-7.31,9.27,54.61,54.61,0,0,1-9.2,7.82,100.64,100.64,0,0,1-8.56,5.45c-3.32,1.9-6.75,3.59-10,5.57-6.47,3.94-13.34,8.64-17.25,15.31a18,18,0,0,0-2.18,5.6c-1.58-7.86-8.5-13.6-14.79-17.91A121,121,0,0,0,338,380.16c-2.61-1.42-5.21-2.76-7.71-4.35a92,92,0,0,1-10.06-7.26,56.33,56.33,0,0,1-8.1-8.66,105,105,0,0,1-12.38-20.33,107.84,107.84,0,0,1-7.91-23.78,132.34,132.34,0,0,1-2.53-25.43,106.57,106.57,0,0,1,2.46-24.8A130.93,130.93,0,0,1,300,241.83c3.33-7.54,7.21-14.82,11.19-22,4.06-7.37,8.46-14.58,12.25-22.1.89-1.76,1.75-3.54,2.55-5.35-8.44,7.4-16.82,14.78-24.59,22.91a136.42,136.42,0,0,0-20,26.32,105.9,105.9,0,0,0-11.58,28.94,111.26,111.26,0,0,0-2.47,30.83,122.27,122.27,0,0,0,6.41,33.5q.72,2.08,1.53,4.14a94.09,94.09,0,0,1-14.15-38.16,134.45,134.45,0,0,1-.35-30.54,124.34,124.34,0,0,1,10.89-41.2,133.51,133.51,0,0,1,23.53-35c9.57-10.62,20.93-19.62,32.89-27.39,1.52-1,3.06-1.94,4.61-2.88a104.52,104.52,0,0,0-33.47,11.7A121.32,121.32,0,0,0,270,197.65a116.76,116.76,0,0,0-20.84,29.17,125.92,125.92,0,0,0-11.26,33.68,141.16,141.16,0,0,0-1.85,36,103.39,103.39,0,0,0,28,63.61,117.12,117.12,0,0,0,27,21.16,126.7,126.7,0,0,0,34.63,13.4c5.16,1.2,10.35,2.31,15.48,3.65,6,1.55,12.43,3.22,17.57,6.75a10.43,10.43,0,0,1,4.72,6.37c.59-3.15,3.09-5.43,5.71-7a44.46,44.46,0,0,1,9.27-4c6.73-2.21,13.67-3.64,20.55-5.25a162.43,162.43,0,0,0,15.83-4.35,120.46,120.46,0,0,0,49-31.77A104.66,104.66,0,0,0,484,326.62c4.77-12.15,6.85-24.95,7.2-37.95C491.21,287,491.19,285.39,491.17,283.75Z" style="fill:#c7b299"/><path d="M188.15,316.07a10.94,10.94,0,0,1-2.84-5.35,15.44,15.44,0,0,1,1.25-8.8,37.51,37.51,0,0,1,3.88-6.94,46.52,46.52,0,0,0,1.25,7.69c.53,2.42,1.13,4.83,1.76,7.23.13.5.26,1,.4,1.48.56-1.32,1.06-2.67,1.52-4a39.09,39.09,0,0,0,2-8.16,12.21,12.21,0,0,0-.11-4.22,16.93,16.93,0,0,1,4.28,6,15.43,15.43,0,0,1,1.13,6,16.18,16.18,0,0,1-1,5.29,11.24,11.24,0,0,1-2.1,3.68,18,18,0,0,0-3.44,6c-.17.47-.32.94-.46,1.42a5.34,5.34,0,0,0-.23,1.11,4.36,4.36,0,0,0,.14,1.25c0,.13.16.75.37.73s.27-.39.33-.5a4.6,4.6,0,0,1,.37-.53,9.55,9.55,0,0,1,.9-1c.78-.78,1.6-1.53,2.33-2.36A23.71,23.71,0,0,0,204.8,312c.18-.71.34-1.42.49-2.13,2,3.51,3.62,7.51,3.47,11.63a14.43,14.43,0,0,1-2.89,8,30,30,0,0,1-5.59,5.49c-.89.71-1.8,1.4-2.68,2.13-.37.31-.75.63-1.1,1a2.14,2.14,0,0,0-.69.81,7,7,0,0,0-.25,1.51c-.08.73-.14,1.47-.18,2.2-.08,1.22-.13,2.44-.18,3.66v.21a6.91,6.91,0,0,1,1.92-3.35,30,30,0,0,1,3.4-2.75,33.59,33.59,0,0,0,4.11-3.53,24.71,24.71,0,0,0,4.08-5.7A37.63,37.63,0,0,0,212,322c.11-.49.22-1,.32-1.46a40.14,40.14,0,0,1,2,8,25.2,25.2,0,0,1,0,6.55,19.49,19.49,0,0,1-1.49,5.29,19.85,19.85,0,0,1-2.59,4.22,25.4,25.4,0,0,1-3.26,3.38c-1.13,1-2.31,1.87-3.53,2.73s-2.24,1.53-3.36,2.3a28.36,28.36,0,0,0-2.79,2.07,7.59,7.59,0,0,0-1.8,2.07,9.18,9.18,0,0,0-.69,2c-.29,1.1-.54,2.2-.78,3.31l-.12.61c-.14-.74-.3-1.47-.46-2.2a20.07,20.07,0,0,0-.91-3.25,5.6,5.6,0,0,0-1.5-1.92,21.75,21.75,0,0,0-2.52-1.85c-1.06-.68-2.13-1.34-3.18-2s-2.34-1.56-3.45-2.43a26.53,26.53,0,0,1-3.3-3.06,20.63,20.63,0,0,1-2.8-3.95,20.33,20.33,0,0,1-1.9-5.06,25.58,25.58,0,0,1-.6-6.41,39.58,39.58,0,0,1,1.06-8c.17-.74.36-1.49.57-2.23a34.28,34.28,0,0,0,2.94,9,25.7,25.7,0,0,0,4.12,6,29.4,29.4,0,0,0,4.4,3.86c1.26.91,2.58,1.72,3.86,2.6a7.86,7.86,0,0,1,2.4,2.19,2.54,2.54,0,0,1,.16.28c0-1.08,0-2.16,0-3.24a14.3,14.3,0,0,0-.14-2.07,2,2,0,0,0-.15-.6,2.1,2.1,0,0,0-.36-.37,36.49,36.49,0,0,0-4.63-3.13,23.61,23.61,0,0,1-5.22-4.28,13.81,13.81,0,0,1-3.2-7,25.06,25.06,0,0,1,1.47-11.4c.2-.59.41-1.17.63-1.76.94,3.38,2.21,6.85,4.52,9.54a16.72,16.72,0,0,0,2.28,2.17c.7.57,1.43,1.11,2.09,1.74a8.76,8.76,0,0,1,1.9,2.61c-.13-1.12-.33-2.23-.57-3.34a23,23,0,0,0-1.65-5.06A9.35,9.35,0,0,0,188.15,316.07Zm47.43,10.72a44,44,0,0,0-1.37-10.53,39.82,39.82,0,0,0-4-9.9,38.67,38.67,0,0,0-6.43-8.31,39.37,39.37,0,0,0-8.84-6.55,35.51,35.51,0,0,0-9.65-3.63c-.46-.09-.93-.18-1.4-.25a54.61,54.61,0,0,1,11,8.62,47.57,47.57,0,0,1,4.45,5.17,49.11,49.11,0,0,1,3.7,6,40.14,40.14,0,0,1,4.1,13.21,46.06,46.06,0,0,1,.27,10.23,31,31,0,0,1-3.89,12.5c-.29.51-.59,1-.91,1.51a39.31,39.31,0,0,0,2.5-11,37.51,37.51,0,0,0-.46-10.2A32.57,32.57,0,0,0,221.2,314a44.87,44.87,0,0,0-6.22-8.65,93.14,93.14,0,0,0-7.79-7.47l-1.11-1a82.2,82.2,0,0,0,3.89,7.29c1.35,2.4,2.7,4.81,3.88,7.31a48.59,48.59,0,0,1,3,7.65,33.86,33.86,0,0,1,1.21,8.13,39.23,39.23,0,0,1-2.65,16,35.48,35.48,0,0,1-3.71,6.89,35,35,0,0,1-2.39,3,18.74,18.74,0,0,1-3,2.55,31.5,31.5,0,0,1-2.8,1.78c-1.09.62-2.21,1.17-3.28,1.82-2.11,1.29-4.35,2.82-5.63,5a5.85,5.85,0,0,0-.71,1.83c-.52-2.57-2.78-4.44-4.83-5.85-1.12-.76-2.28-1.44-3.47-2.09-.84-.46-1.7-.9-2.51-1.42a29.5,29.5,0,0,1-3.29-2.37,18.15,18.15,0,0,1-2.64-2.83,34.39,34.39,0,0,1-4.05-6.64,35.45,35.45,0,0,1-2.58-7.77,42.79,42.79,0,0,1-.83-8.3,35,35,0,0,1,.8-8.1,42.64,42.64,0,0,1,2.68-7.76c1.08-2.46,2.35-4.83,3.65-7.19s2.76-4.76,4-7.22c.29-.58.58-1.16.84-1.75-2.76,2.42-5.5,4.83-8,7.49a43.74,43.74,0,0,0-6.53,8.6,34.37,34.37,0,0,0-3.78,9.45,36.24,36.24,0,0,0-.81,10.07,40,40,0,0,0,2.09,10.94c.16.46.32.91.5,1.36a30.76,30.76,0,0,1-4.62-12.47,43.83,43.83,0,0,1-.11-10,40.35,40.35,0,0,1,3.55-13.46,43.51,43.51,0,0,1,7.69-11.42,53.9,53.9,0,0,1,10.74-8.95l1.51-.94a34.11,34.11,0,0,0-10.94,3.82,39.89,39.89,0,0,0-9.56,7.22,38.38,38.38,0,0,0-6.81,9.53,41.19,41.19,0,0,0-3.68,11,46.73,46.73,0,0,0-.6,11.75A34.4,34.4,0,0,0,155,342.19a33.78,33.78,0,0,0,6.35,9.53,38.05,38.05,0,0,0,8.81,6.91A41.29,41.29,0,0,0,181.51,363c1.69.39,3.38.75,5.06,1.19a18.39,18.39,0,0,1,5.74,2.21,3.41,3.41,0,0,1,1.54,2.08,3.64,3.64,0,0,1,1.86-2.29,14.53,14.53,0,0,1,3-1.31c2.2-.72,4.46-1.18,6.71-1.71,1.75-.41,3.48-.84,5.18-1.42a39.13,39.13,0,0,0,6.28-2.79,38.66,38.66,0,0,0,9.71-7.59,34.2,34.2,0,0,0,6.61-10.59,36.17,36.17,0,0,0,2.35-12.39C235.6,327.86,235.59,327.32,235.58,326.79Z" style="fill:#c7b299"/><path d="M243.1,433.85a11.1,11.1,0,0,1-2.84-5.35,15.45,15.45,0,0,1,1.26-8.8,37.47,37.47,0,0,1,3.87-6.94,46.52,46.52,0,0,0,1.25,7.69q.81,3.63,1.77,7.23l.39,1.48c.57-1.32,1.07-2.67,1.53-4a39.7,39.7,0,0,0,2-8.16,12.21,12.21,0,0,0-.11-4.22,16.93,16.93,0,0,1,4.28,6,15.43,15.43,0,0,1,1.13,6,16.17,16.17,0,0,1-1,5.29,11.27,11.27,0,0,1-2.11,3.68,18.16,18.16,0,0,0-3.44,6c-.16.47-.32.94-.45,1.42a5.37,5.37,0,0,0-.24,1.11,4.37,4.37,0,0,0,.15,1.25c0,.13.15.75.37.73s.26-.39.33-.5a6.18,6.18,0,0,1,.36-.53,10.92,10.92,0,0,1,.91-1c.78-.78,1.59-1.53,2.33-2.36a23.82,23.82,0,0,0,4.88-10.08q.27-1.06.48-2.13c2,3.51,3.62,7.51,3.48,11.63a14.36,14.36,0,0,1-2.9,8,29.91,29.91,0,0,1-5.58,5.49c-.89.71-1.8,1.41-2.68,2.13q-.57.46-1.11,1a2.23,2.23,0,0,0-.69.81,7.68,7.68,0,0,0-.25,1.51c-.08.73-.13,1.47-.18,2.2-.07,1.22-.13,2.44-.17,3.66a1.48,1.48,0,0,1,0,.21,7,7,0,0,1,1.93-3.35,31.07,31.07,0,0,1,3.39-2.75,32.16,32.16,0,0,0,4.11-3.53,25.06,25.06,0,0,0,4.09-5.7,38,38,0,0,0,3.26-9.2c.11-.49.21-1,.31-1.46a40.16,40.16,0,0,1,2,8,25.2,25.2,0,0,1,0,6.55,19.49,19.49,0,0,1-1.49,5.29,19.85,19.85,0,0,1-2.59,4.22,26.12,26.12,0,0,1-3.27,3.38c-1.12,1-2.31,1.87-3.52,2.73s-2.25,1.53-3.37,2.3a31,31,0,0,0-2.79,2.07A7.56,7.56,0,0,0,250.4,475a9.18,9.18,0,0,0-.69,2c-.29,1.1-.54,2.2-.78,3.31,0,.2-.09.4-.13.61-.14-.74-.29-1.47-.46-2.2a18.23,18.23,0,0,0-.91-3.25,5.57,5.57,0,0,0-1.49-1.92,21,21,0,0,0-2.53-1.85c-1-.68-2.12-1.34-3.18-2s-2.34-1.57-3.44-2.44a25.85,25.85,0,0,1-3.3-3.06,20.63,20.63,0,0,1-2.8-3.95,20,20,0,0,1-1.9-5.06,25.59,25.59,0,0,1-.61-6.41,40.32,40.32,0,0,1,1.07-8c.17-.74.36-1.49.56-2.23a35,35,0,0,0,2.94,9,26,26,0,0,0,4.12,6,29.47,29.47,0,0,0,4.41,3.86c1.25.91,2.57,1.72,3.85,2.6a7.89,7.89,0,0,1,2.41,2.19,1.51,1.51,0,0,1,.15.28c0-1.08,0-2.16,0-3.24a17.84,17.84,0,0,0-.14-2.07,1.78,1.78,0,0,0-.16-.6,1.58,1.58,0,0,0-.36-.37,35.68,35.68,0,0,0-4.62-3.13,23.38,23.38,0,0,1-5.22-4.28,13.74,13.74,0,0,1-3.21-7.05,25.07,25.07,0,0,1,1.48-11.4c.19-.59.4-1.17.62-1.76.94,3.38,2.21,6.85,4.53,9.54a17.24,17.24,0,0,0,2.27,2.17c.71.57,1.44,1.11,2.1,1.74a8.56,8.56,0,0,1,1.89,2.61,29,29,0,0,0-.57-3.33,23.47,23.47,0,0,0-1.64-5.07A9.65,9.65,0,0,0,243.1,433.85Zm47.44,10.72A44.53,44.53,0,0,0,289.17,434a39.82,39.82,0,0,0-4-9.9,39,39,0,0,0-6.43-8.31,39.42,39.42,0,0,0-8.85-6.55,35.33,35.33,0,0,0-9.64-3.63c-.47-.09-.93-.18-1.4-.25a55.17,55.17,0,0,1,11,8.62,47.48,47.48,0,0,1,4.44,5.17,49.19,49.19,0,0,1,3.71,6,40.38,40.38,0,0,1,4.1,13.21,46.07,46.07,0,0,1,.26,10.23,31,31,0,0,1-3.88,12.5c-.29.51-.6,1-.91,1.51a39.3,39.3,0,0,0,2.49-11,37.11,37.11,0,0,0-.46-10.2,32.55,32.55,0,0,0-3.46-9.66,45.3,45.3,0,0,0-6.22-8.65,93.26,93.26,0,0,0-7.8-7.47l-1.11-1a82.2,82.2,0,0,0,3.89,7.29c1.36,2.4,2.7,4.82,3.88,7.31a47.68,47.68,0,0,1,3,7.65,33.86,33.86,0,0,1,1.21,8.13,39.57,39.57,0,0,1-2.65,16,35,35,0,0,1-3.72,6.89,33,33,0,0,1-2.38,3,18.38,18.38,0,0,1-3,2.55,31.5,31.5,0,0,1-2.8,1.78c-1.08.62-2.2,1.17-3.27,1.82-2.12,1.29-4.36,2.82-5.64,5a6.1,6.1,0,0,0-.71,1.83c-.51-2.57-2.77-4.44-4.83-5.85a40.22,40.22,0,0,0-3.46-2.09c-.85-.46-1.7-.9-2.52-1.42a30.33,30.33,0,0,1-3.28-2.37,18.71,18.71,0,0,1-2.65-2.83,33.85,33.85,0,0,1-4-6.64,35.47,35.47,0,0,1-2.59-7.77,43.58,43.58,0,0,1-.82-8.3,35,35,0,0,1,.8-8.1,43.38,43.38,0,0,1,2.67-7.76c1.09-2.46,2.36-4.83,3.66-7.19s2.76-4.76,4-7.22c.29-.58.57-1.16.83-1.75-2.76,2.42-5.49,4.83-8,7.49a44.53,44.53,0,0,0-6.53,8.6,34.69,34.69,0,0,0-3.78,9.45,36.62,36.62,0,0,0-.81,10.07,40,40,0,0,0,2.1,10.94c.15.46.32.91.5,1.36a30.77,30.77,0,0,1-4.63-12.47,44.41,44.41,0,0,1-.11-10,40.6,40.6,0,0,1,3.56-13.46,43.15,43.15,0,0,1,7.68-11.42,54,54,0,0,1,10.75-9l1.5-.94a34.05,34.05,0,0,0-10.93,3.82,39.7,39.7,0,0,0-9.56,7.22,38.38,38.38,0,0,0-6.81,9.53,41.19,41.19,0,0,0-3.68,11,46.3,46.3,0,0,0-.61,11.75A34.17,34.17,0,0,0,210,460a33.57,33.57,0,0,0,6.35,9.53,38,38,0,0,0,8.8,6.91,41.48,41.48,0,0,0,11.32,4.38c1.68.39,3.38.75,5.05,1.19a18.29,18.29,0,0,1,5.74,2.21,3.37,3.37,0,0,1,1.54,2.08,3.65,3.65,0,0,1,1.87-2.29,14.31,14.31,0,0,1,3-1.31c2.19-.72,4.46-1.18,6.71-1.71,1.75-.41,3.47-.84,5.17-1.42a39.24,39.24,0,0,0,16-10.38,34.23,34.23,0,0,0,6.62-10.59,36.41,36.41,0,0,0,2.35-12.39C290.55,445.64,290.55,445.1,290.54,444.57Z" style="fill:#c7b299"/><path d="M3.2,347.31a14.67,14.67,0,0,1-3.75-7.06c-.79-3.93.16-8,1.65-11.63a49.54,49.54,0,0,1,5.12-9.16,62.43,62.43,0,0,0,1.65,10.15q1.07,4.8,2.33,9.56c.17.64.35,1.29.52,1.94.76-1.74,1.41-3.52,2-5.31A51.38,51.38,0,0,0,15.39,325a16,16,0,0,0-.15-5.57,22.27,22.27,0,0,1,5.66,7.94,20.35,20.35,0,0,1,1.49,8,21,21,0,0,1-1.28,7,14.71,14.71,0,0,1-2.78,4.86,24,24,0,0,0-4.54,8c-.22.61-.43,1.24-.6,1.87a6.63,6.63,0,0,0-.31,1.47,5.44,5.44,0,0,0,.19,1.65c0,.17.2,1,.49,1s.35-.52.43-.66.31-.48.48-.7a15.29,15.29,0,0,1,1.2-1.34c1-1,2.11-2,3.08-3.11,3.33-3.76,5.22-8.5,6.44-13.32.24-.93.45-1.87.64-2.81,2.67,4.64,4.79,9.92,4.59,15.36a19,19,0,0,1-3.82,10.59,39.9,39.9,0,0,1-7.37,7.26c-1.18.94-2.38,1.85-3.54,2.81-.5.41-1,.83-1.47,1.27a3.12,3.12,0,0,0-.91,1.07,9.51,9.51,0,0,0-.33,2c-.1,1-.17,1.94-.23,2.91-.1,1.61-.18,3.22-.23,4.83,0,.09,0,.19,0,.28a9.29,9.29,0,0,1,2.54-4.43,41.29,41.29,0,0,1,4.48-3.63A43.78,43.78,0,0,0,25,374.82a32.69,32.69,0,0,0,5.4-7.53,49.87,49.87,0,0,0,4.3-12.16q.23-1,.42-1.92a53,53,0,0,1,2.58,10.61,33.55,33.55,0,0,1,0,8.67,25.76,25.76,0,0,1-2,7,26.36,26.36,0,0,1-3.42,5.58A34.2,34.2,0,0,1,28,389.5c-1.49,1.29-3,2.47-4.66,3.61s-3,2-4.44,3a39.6,39.6,0,0,0-3.69,2.74,10.3,10.3,0,0,0-2.37,2.73,12,12,0,0,0-.91,2.69c-.38,1.45-.71,2.91-1,4.37-.05.27-.11.53-.17.8-.18-1-.38-1.94-.6-2.9a25.27,25.27,0,0,0-1.2-4.29,7.32,7.32,0,0,0-2-2.54,28.44,28.44,0,0,0-3.33-2.44c-1.39-.91-2.81-1.77-4.2-2.68-1.56-1-3.09-2.06-4.55-3.21a35.5,35.5,0,0,1-4.36-4,27.27,27.27,0,0,1-3.7-5.22,26.61,26.61,0,0,1-2.51-6.69,33.87,33.87,0,0,1-.8-8.46,53.24,53.24,0,0,1,1.41-10.51c.23-1,.48-2,.75-2.94a45.57,45.57,0,0,0,3.88,11.88A34.47,34.47,0,0,0-5,373.36a38.13,38.13,0,0,0,5.82,5.09c1.66,1.2,3.4,2.28,5.09,3.44a10.44,10.44,0,0,1,3.18,2.88l.2.37c0-1.42.05-2.84,0-4.27a20.91,20.91,0,0,0-.19-2.74,2.42,2.42,0,0,0-.2-.79,2,2,0,0,0-.48-.48,46.06,46.06,0,0,0-6.1-4.14,31.3,31.3,0,0,1-6.9-5.65,18.23,18.23,0,0,1-4.23-9.31c-.74-5.06.35-10.26,1.94-15.06.26-.78.54-1.55.83-2.32,1.24,4.46,2.92,9,6,12.6a23.87,23.87,0,0,0,3,2.86c.93.75,1.9,1.47,2.77,2.29a11.43,11.43,0,0,1,2.5,3.46,41,41,0,0,0-.75-4.41,30.77,30.77,0,0,0-2.17-6.69A12.65,12.65,0,0,0,3.2,347.31Zm62.65,14.15A58.25,58.25,0,0,0,64,347.56a52.29,52.29,0,0,0-5.3-13.07,51.16,51.16,0,0,0-8.5-11,52.11,52.11,0,0,0-11.68-8.65,46.43,46.43,0,0,0-12.73-4.79c-.62-.13-1.23-.24-1.85-.34a73.09,73.09,0,0,1,14.58,11.38A63.77,63.77,0,0,1,44.42,328a64.11,64.11,0,0,1,4.89,7.9,53,53,0,0,1,5.41,17.45,60.35,60.35,0,0,1,.35,13.5,40.79,40.79,0,0,1-5.13,16.51c-.38.68-.78,1.34-1.2,2A52.1,52.1,0,0,0,52,370.83a49.86,49.86,0,0,0-.61-13.47,43.19,43.19,0,0,0-4.57-12.76,60.09,60.09,0,0,0-8.22-11.42,124.57,124.57,0,0,0-10.3-9.86L26.88,322A103.15,103.15,0,0,0,32,331.65c1.79,3.17,3.56,6.37,5.12,9.66a64.64,64.64,0,0,1,3.92,10.11,44.82,44.82,0,0,1,1.59,10.73,51.76,51.76,0,0,1-3.5,21.15,46.42,46.42,0,0,1-4.9,9.1,43.36,43.36,0,0,1-3.16,4,24.09,24.09,0,0,1-4,3.37c-1.19.85-2.43,1.62-3.7,2.35-1.43.82-2.91,1.55-4.32,2.4-2.79,1.7-5.76,3.73-7.44,6.61a8.08,8.08,0,0,0-.95,2.41c-.68-3.39-3.66-5.87-6.37-7.72a50.56,50.56,0,0,0-4.58-2.76c-1.12-.61-2.24-1.19-3.32-1.88a39.14,39.14,0,0,1-4.34-3.13,24.25,24.25,0,0,1-3.49-3.74,44.93,44.93,0,0,1-5.35-8.77,46.92,46.92,0,0,1-3.41-10.25,57.72,57.72,0,0,1-1.09-11,46.32,46.32,0,0,1,1.06-10.7,56.85,56.85,0,0,1,3.53-10.24c1.44-3.25,3.11-6.39,4.83-9.5s3.65-6.29,5.28-9.54c.39-.76.76-1.52,1.1-2.31-3.64,3.2-7.25,6.38-10.6,9.89a58.9,58.9,0,0,0-8.63,11.36,45.92,45.92,0,0,0-5,12.48,47.91,47.91,0,0,0-1.07,13.3,53.12,53.12,0,0,0,2.77,14.45c.21.6.43,1.2.66,1.79a40.68,40.68,0,0,1-6.11-16.46,58.1,58.1,0,0,1-.14-13.18,53.56,53.56,0,0,1,4.69-17.78,63.56,63.56,0,0,1,4.51-8,63.1,63.1,0,0,1,5.64-7.09A71.12,71.12,0,0,1-4.51,311c.66-.43,1.32-.84,2-1.25a45.25,45.25,0,0,0-14.44,5,52.3,52.3,0,0,0-12.63,9.54,50.34,50.34,0,0,0-9,12.58,54.53,54.53,0,0,0-4.86,14.53,61.64,61.64,0,0,0-.8,15.52,45.24,45.24,0,0,0,3.72,14.86,44.68,44.68,0,0,0,8.38,12.58,50.44,50.44,0,0,0,11.63,9.13A54.55,54.55,0,0,0-5.57,409.3c2.23.52,4.47,1,6.68,1.58a24.08,24.08,0,0,1,7.58,2.91,4.45,4.45,0,0,1,2,2.75,4.85,4.85,0,0,1,2.47-3,19.16,19.16,0,0,1,4-1.72c2.9-1,5.89-1.57,8.87-2.26,2.3-.54,4.58-1.11,6.83-1.88A51.2,51.2,0,0,0,41.18,404a50.51,50.51,0,0,0,12.82-10,45.11,45.11,0,0,0,8.74-14,48.18,48.18,0,0,0,3.11-16.37Q65.87,362.53,65.85,361.46Z" style="fill:#c7b299"/><path d="M355.6,452.74a19.82,19.82,0,0,1-5.09-9.58c-1.06-5.32.22-10.83,2.25-15.77A67.13,67.13,0,0,1,359.71,415,82.36,82.36,0,0,0,362,428.72c.95,4.35,2,8.67,3.15,13,.24.87.47,1.75.71,2.63,1-2.35,1.91-4.77,2.74-7.2a71,71,0,0,0,3.6-14.62,21.82,21.82,0,0,0-.21-7.56,30.23,30.23,0,0,1,7.68,10.77,27.53,27.53,0,0,1,2,10.83,28.63,28.63,0,0,1-1.73,9.47,19.94,19.94,0,0,1-3.77,6.59A32.29,32.29,0,0,0,370,463.4c-.31.83-.58,1.68-.82,2.53a9.91,9.91,0,0,0-.43,2,8,8,0,0,0,.27,2.23c.06.24.28,1.35.66,1.32s.48-.71.59-.9.42-.65.65-1a19.87,19.87,0,0,1,1.63-1.81c1.39-1.4,2.86-2.73,4.18-4.22,4.52-5.1,7.08-11.53,8.74-18.07.32-1.27.61-2.54.87-3.82,3.62,6.3,6.49,13.46,6.23,20.85a25.8,25.8,0,0,1-5.19,14.36,53.66,53.66,0,0,1-10,9.85c-1.6,1.28-3.22,2.52-4.8,3.82-.68.56-1.35,1.12-2,1.72a4,4,0,0,0-1.23,1.45,13,13,0,0,0-.45,2.7c-.14,1.31-.24,2.63-.32,3.95q-.21,3.27-.31,6.56c0,.13,0,.25,0,.37a12.44,12.44,0,0,1,3.44-6,54.35,54.35,0,0,1,6.09-4.92,61.68,61.68,0,0,0,7.37-6.33,44.43,44.43,0,0,0,7.31-10.22,67.43,67.43,0,0,0,5.85-16.5c.2-.87.39-1.74.56-2.61a71.31,71.31,0,0,1,3.5,14.41,44.45,44.45,0,0,1,0,11.75,34.72,34.72,0,0,1-2.67,9.47,35.2,35.2,0,0,1-4.64,7.57,46.45,46.45,0,0,1-5.85,6.05,76.61,76.61,0,0,1-6.32,4.89c-2,1.4-4,2.75-6,4.12a54.9,54.9,0,0,0-5,3.72,13.69,13.69,0,0,0-3.21,3.7,15.72,15.72,0,0,0-1.24,3.65c-.52,2-1,3.95-1.4,5.93-.07.36-.15.72-.23,1.08-.25-1.31-.52-2.62-.82-3.93a34.43,34.43,0,0,0-1.63-5.82,9.79,9.79,0,0,0-2.68-3.44,37.48,37.48,0,0,0-4.52-3.32c-1.89-1.23-3.81-2.4-5.7-3.63-2.12-1.37-4.19-2.8-6.17-4.36a47.37,47.37,0,0,1-5.92-5.49,36.92,36.92,0,0,1-5-7.08A35.84,35.84,0,0,1,330,491a46.23,46.23,0,0,1-1.09-11.49,71.31,71.31,0,0,1,1.91-14.25c.31-1.34.65-2.67,1-4a62.17,62.17,0,0,0,5.27,16.12,46.45,46.45,0,0,0,7.39,10.76,51.9,51.9,0,0,0,7.89,6.91c2.25,1.63,4.62,3.09,6.91,4.67a14.41,14.41,0,0,1,4.31,3.91,4.16,4.16,0,0,1,.28.51c.06-1.93.07-3.87,0-5.8a28.93,28.93,0,0,0-.25-3.72,3,3,0,0,0-.28-1.07,2.86,2.86,0,0,0-.64-.66c-2.48-2.22-5.5-3.82-8.28-5.61a42,42,0,0,1-9.36-7.68,24.7,24.7,0,0,1-5.75-12.62c-1-6.87.48-13.93,2.64-20.43.35-1.06.73-2.11,1.12-3.16,1.69,6.05,4,12.26,8.11,17.1a31.85,31.85,0,0,0,4.08,3.88c1.27,1,2.57,2,3.75,3.11a15.58,15.58,0,0,1,3.4,4.69,54.9,54.9,0,0,0-1-6,41.83,41.83,0,0,0-2.95-9.07A16.82,16.82,0,0,0,355.6,452.74Zm85,19.21a80.19,80.19,0,0,0-2.46-18.87A71,71,0,0,0,431,435.35a69.7,69.7,0,0,0-11.52-14.9,70.43,70.43,0,0,0-15.86-11.74,63,63,0,0,0-17.27-6.5c-.84-.17-1.68-.33-2.52-.45a98.34,98.34,0,0,1,19.79,15.44,85.8,85.8,0,0,1,8,9.27,88.92,88.92,0,0,1,6.64,10.72,72.19,72.19,0,0,1,7.34,23.68,82,82,0,0,1,.47,18.32A55.52,55.52,0,0,1,419,501.6c-.52.92-1.07,1.81-1.64,2.7a70.43,70.43,0,0,0,4.48-19.63,67.56,67.56,0,0,0-.83-18.29,58.57,58.57,0,0,0-6.2-17.31,81.12,81.12,0,0,0-11.16-15.5,166.59,166.59,0,0,0-14-13.38l-2-1.74c2,4.51,4.56,8.76,7,13.05s4.84,8.64,7,13.11A87.39,87.39,0,0,1,407,458.32a61.39,61.39,0,0,1,2.16,14.57,70.45,70.45,0,0,1-4.75,28.7,63.08,63.08,0,0,1-6.66,12.34,58.56,58.56,0,0,1-4.27,5.43,32.75,32.75,0,0,1-5.39,4.57,55.79,55.79,0,0,1-5,3.19c-1.94,1.12-3.95,2.1-5.87,3.26-3.79,2.31-7.81,5.06-10.1,9a10.83,10.83,0,0,0-1.28,3.29c-.92-4.61-5-8-8.65-10.49a68.44,68.44,0,0,0-6.2-3.74c-1.53-.83-3-1.62-4.52-2.55a54.55,54.55,0,0,1-5.88-4.25,33,33,0,0,1-4.75-5.07,62.06,62.06,0,0,1-7.25-11.9,64.29,64.29,0,0,1-4.63-13.92,78.39,78.39,0,0,1-1.48-14.89,62.72,62.72,0,0,1,1.44-14.52,77.06,77.06,0,0,1,4.79-13.89c1.95-4.41,4.22-8.67,6.55-12.89s4.95-8.54,7.17-12.94c.53-1,1-2.07,1.5-3.13-4.95,4.33-9.85,8.65-14.4,13.41a80.08,80.08,0,0,0-11.7,15.41A62.11,62.11,0,0,0,311,464.21a64.8,64.8,0,0,0-1.45,18.05,71.66,71.66,0,0,0,3.75,19.61c.28.82.58,1.62.9,2.43A55.13,55.13,0,0,1,305.94,482a78.62,78.62,0,0,1-.2-17.88A72.83,72.83,0,0,1,312.11,440a78.47,78.47,0,0,1,13.78-20.48,96.22,96.22,0,0,1,19.26-16c.89-.57,1.79-1.13,2.69-1.68a61.05,61.05,0,0,0-19.59,6.85,70.55,70.55,0,0,0-17.14,12.94,68.38,68.38,0,0,0-12.2,17.07,73.89,73.89,0,0,0-6.6,19.72,83.5,83.5,0,0,0-1.08,21.06,61.63,61.63,0,0,0,5,20.16,60.71,60.71,0,0,0,11.38,17.08A68.62,68.62,0,0,0,323.43,529a73.83,73.83,0,0,0,20.28,7.85c3,.7,6.06,1.35,9.06,2.13,3.49.91,7.28,1.89,10.29,4a6.1,6.1,0,0,1,2.75,3.73,6.51,6.51,0,0,1,3.35-4.11,26,26,0,0,1,5.42-2.34c3.95-1.28,8-2.12,12-3.07,3.13-.73,6.22-1.5,9.27-2.54A70.76,70.76,0,0,0,424.55,516a61.4,61.4,0,0,0,11.85-19,65.07,65.07,0,0,0,4.21-22.21C440.64,473.88,440.63,472.91,440.62,472Z" style="fill:#c7b299"/><path d="M118,404.59a20.54,20.54,0,0,1-5.28-9.92c-1.1-5.52.22-11.23,2.33-16.35a69.19,69.19,0,0,1,7.2-12.88,86.17,86.17,0,0,0,2.32,14.26c1,4.51,2.1,9,3.28,13.45.24.91.48,1.82.73,2.73,1.06-2.44,2-4.95,2.84-7.46a72.85,72.85,0,0,0,3.72-15.16,22.33,22.33,0,0,0-.21-7.82,31.37,31.37,0,0,1,8,11.15,28.63,28.63,0,0,1,2.11,11.23,29.81,29.81,0,0,1-1.8,9.8,20.71,20.71,0,0,1-3.91,6.84,33.44,33.44,0,0,0-6.38,11.18c-.32.86-.61,1.74-.85,2.62a10.61,10.61,0,0,0-.44,2.07,7.57,7.57,0,0,0,.28,2.32c.06.25.28,1.39.68,1.36.25,0,.49-.73.61-.93a10.75,10.75,0,0,1,.67-1,18.76,18.76,0,0,1,1.69-1.87c1.45-1.46,3-2.84,4.33-4.38,4.68-5.29,7.34-11.95,9.06-18.73q.5-2,.9-4c3.75,6.53,6.72,14,6.45,21.61a26.74,26.74,0,0,1-5.37,14.89,56,56,0,0,1-10.37,10.2c-1.66,1.32-3.34,2.61-5,4-.7.57-1.39,1.16-2.06,1.78a4.18,4.18,0,0,0-1.28,1.5,14,14,0,0,0-.46,2.8c-.15,1.36-.25,2.73-.33,4.09-.15,2.27-.25,4.54-.33,6.8,0,.13,0,.26,0,.39a12.89,12.89,0,0,1,3.57-6.22,56.27,56.27,0,0,1,6.31-5.1,62.83,62.83,0,0,0,7.63-6.56,46.15,46.15,0,0,0,7.59-10.59,70.5,70.5,0,0,0,6.06-17.1c.2-.9.4-1.8.58-2.71a75.3,75.3,0,0,1,3.63,14.93,46.85,46.85,0,0,1,0,12.18,36,36,0,0,1-2.77,9.82,36.75,36.75,0,0,1-4.81,7.85,47.81,47.81,0,0,1-6.06,6.26,82.31,82.31,0,0,1-6.55,5.07c-2.06,1.46-4.17,2.85-6.25,4.27a55.69,55.69,0,0,0-5.18,3.86A14,14,0,0,0,131.5,481a16.88,16.88,0,0,0-1.29,3.78c-.53,2-1,4.09-1.44,6.15l-.24,1.12c-.26-1.36-.54-2.72-.85-4.08a37.24,37.24,0,0,0-1.69-6,10.28,10.28,0,0,0-2.78-3.57,40.43,40.43,0,0,0-4.68-3.43c-2-1.28-4-2.49-5.91-3.77-2.19-1.42-4.35-2.9-6.4-4.52a49.18,49.18,0,0,1-6.13-5.68,38.6,38.6,0,0,1-5.21-7.34,37.92,37.92,0,0,1-3.52-9.4,48.13,48.13,0,0,1-1.13-11.91,73.71,73.71,0,0,1,2-14.77c.32-1.38.67-2.76,1-4.14a64.18,64.18,0,0,0,5.46,16.71,48.46,48.46,0,0,0,7.66,11.15,53.62,53.62,0,0,0,8.18,7.16c2.33,1.69,4.78,3.2,7.15,4.83a14.88,14.88,0,0,1,4.48,4.06,5.21,5.21,0,0,1,.28.52c.06-2,.08-4,0-6a31,31,0,0,0-.26-3.86,3.44,3.44,0,0,0-.29-1.1,3.13,3.13,0,0,0-.67-.69c-2.57-2.3-5.69-4-8.58-5.81a43.75,43.75,0,0,1-9.7-8,25.52,25.52,0,0,1-6-13.09c-1-7.12.49-14.42,2.73-21.17.37-1.09.75-2.18,1.16-3.27,1.75,6.27,4.11,12.71,8.41,17.72a32.18,32.18,0,0,0,4.23,4c1.3,1.06,2.66,2.07,3.88,3.23a16,16,0,0,1,3.52,4.86,59,59,0,0,0-1-6.2,43.61,43.61,0,0,0-3.06-9.4A17.78,17.78,0,0,0,118,404.59Zm88.1,19.92A82.18,82.18,0,0,0,203.5,405,73.1,73.1,0,0,0,196,386.57a71.83,71.83,0,0,0-11.94-15.44A73.17,73.17,0,0,0,167.66,359a65.33,65.33,0,0,0-17.9-6.73c-.87-.18-1.74-.34-2.61-.47a101.9,101.9,0,0,1,20.51,16,83.13,83.13,0,0,1,15.13,20.72A74.26,74.26,0,0,1,190.4,413a85.54,85.54,0,0,1,.5,19,57.65,57.65,0,0,1-7.21,23.22c-.54.95-1.11,1.88-1.7,2.79a72.87,72.87,0,0,0,4.64-20.34,69.58,69.58,0,0,0-.86-18.95,60.65,60.65,0,0,0-6.43-17.94,83.4,83.4,0,0,0-11.56-16.06,172.29,172.29,0,0,0-14.47-13.87c-.69-.6-1.38-1.2-2.06-1.81a147.36,147.36,0,0,0,7.22,13.53c2.52,4.46,5,8.95,7.21,13.58a90.9,90.9,0,0,1,5.51,14.22,63.14,63.14,0,0,1,2.24,15.09,73.07,73.07,0,0,1-4.92,29.74,65.21,65.21,0,0,1-6.9,12.79,61.59,61.59,0,0,1-4.43,5.63,34.13,34.13,0,0,1-5.58,4.74c-1.67,1.2-3.42,2.28-5.2,3.31-2,1.15-4.09,2.17-6.08,3.38-3.93,2.38-8.09,5.24-10.47,9.28a11.28,11.28,0,0,0-1.32,3.4c-1-4.77-5.16-8.25-9-10.86a73.62,73.62,0,0,0-6.43-3.88c-1.58-.86-3.16-1.68-4.67-2.64a55.23,55.23,0,0,1-6.1-4.4,34.51,34.51,0,0,1-4.92-5.26,63.41,63.41,0,0,1-7.51-12.33,65.75,65.75,0,0,1-4.8-14.43,80.66,80.66,0,0,1-1.54-15.43,65,65,0,0,1,1.5-15,79.83,79.83,0,0,1,5-14.4c2-4.57,4.37-9,6.79-13.36s5.13-8.85,7.43-13.41c.54-1.07,1.07-2.15,1.55-3.25-5.12,4.5-10.21,9-14.92,13.9a82.67,82.67,0,0,0-12.12,16,64.32,64.32,0,0,0-7,17.55,67.92,67.92,0,0,0-1.5,18.7,74.52,74.52,0,0,0,3.89,20.33c.29.84.6,1.68.93,2.51a57.22,57.22,0,0,1-8.59-23.15,81.44,81.44,0,0,1-.2-18.53,75.38,75.38,0,0,1,6.6-25,87,87,0,0,1,6.34-11.25,88.48,88.48,0,0,1,7.93-10,100,100,0,0,1,20-16.61c.92-.6,1.86-1.18,2.8-1.75a63.34,63.34,0,0,0-20.31,7.1,73.15,73.15,0,0,0-17.76,13.41A70.92,70.92,0,0,0,59.2,390a76.36,76.36,0,0,0-6.84,20.43,85.78,85.78,0,0,0-1.12,21.82,62.83,62.83,0,0,0,17,38.59,71,71,0,0,0,16.36,12.84,76.65,76.65,0,0,0,21,8.13c3.13.73,6.28,1.4,9.39,2.21,3.61.94,7.54,2,10.66,4.1a6.29,6.29,0,0,1,2.86,3.86A6.75,6.75,0,0,1,132,497.7a26.64,26.64,0,0,1,5.62-2.42c4.08-1.34,8.29-2.21,12.47-3.19,3.24-.76,6.45-1.56,9.61-2.64a73,73,0,0,0,29.7-19.27,63.63,63.63,0,0,0,12.28-19.66,67.84,67.84,0,0,0,4.37-23C206.07,426.5,206.06,425.5,206.05,424.51Z" style="fill:#c7b299"/><path d="M237,369.72a7.58,7.58,0,0,1-1.93-3.64,10.49,10.49,0,0,1,.85-6,26,26,0,0,1,2.64-4.72,31.86,31.86,0,0,0,.85,5.23q.56,2.47,1.2,4.93l.27,1c.39-.9.73-1.82,1-2.74a26.65,26.65,0,0,0,1.37-5.55,8.38,8.38,0,0,0-.08-2.87,11.39,11.39,0,0,1,2.91,4.09,10.35,10.35,0,0,1,.77,4.11,10.57,10.57,0,0,1-.66,3.6,7.5,7.5,0,0,1-1.43,2.5,12.39,12.39,0,0,0-2.34,4.1c-.11.31-.22.64-.31,1a4.89,4.89,0,0,0-.16.76,3.09,3.09,0,0,0,.1.85c0,.09.11.51.25.5s.18-.27.23-.35.16-.24.24-.36a6.67,6.67,0,0,1,.62-.68c.53-.54,1.09-1,1.59-1.61a16.26,16.26,0,0,0,3.32-6.86c.12-.48.23-1,.33-1.45a15.18,15.18,0,0,1,2.36,7.92,9.74,9.74,0,0,1-2,5.45,20.09,20.09,0,0,1-3.8,3.74c-.6.49-1.22,1-1.82,1.45q-.39.32-.75.66a1.43,1.43,0,0,0-.47.54,4.52,4.52,0,0,0-.17,1c-.06.5-.09,1-.13,1.5,0,.83-.09,1.66-.11,2.49v.14a4.77,4.77,0,0,1,1.31-2.28,21.94,21.94,0,0,1,2.31-1.87,22.88,22.88,0,0,0,2.8-2.4A16.88,16.88,0,0,0,251,380a25.8,25.8,0,0,0,2.22-6.26c.07-.34.15-.67.21-1a26.62,26.62,0,0,1,1.33,5.47,17.15,17.15,0,0,1,0,4.47,13.34,13.34,0,0,1-1,3.6,13.65,13.65,0,0,1-1.76,2.87,17.24,17.24,0,0,1-2.22,2.3c-.77.66-1.57,1.27-2.4,1.85s-1.53,1.05-2.29,1.57a21.71,21.71,0,0,0-1.9,1.41,5.3,5.3,0,0,0-1.22,1.41,6.08,6.08,0,0,0-.47,1.38c-.2.75-.37,1.5-.53,2.26l-.09.41c-.09-.5-.2-1-.31-1.5a13.92,13.92,0,0,0-.62-2.21,3.94,3.94,0,0,0-1-1.31,13.25,13.25,0,0,0-1.72-1.25c-.71-.47-1.44-.92-2.16-1.38s-1.59-1.07-2.34-1.66a17.07,17.07,0,0,1-2.25-2.08,13.49,13.49,0,0,1-3.2-6.14,17.29,17.29,0,0,1-.41-4.36,27.49,27.49,0,0,1,.72-5.42c.12-.5.25-1,.39-1.51a23.23,23.23,0,0,0,2,6.12,17.87,17.87,0,0,0,2.8,4.09,20.2,20.2,0,0,0,3,2.62c.86.62,1.75,1.17,2.62,1.77A5.32,5.32,0,0,1,240,389a1.18,1.18,0,0,1,.11.19c0-.73,0-1.47,0-2.2a11,11,0,0,0-.1-1.41,1.37,1.37,0,0,0-.1-.41,1.48,1.48,0,0,0-.25-.25,24.75,24.75,0,0,0-3.14-2.13A15.9,15.9,0,0,1,233,379.9a9.4,9.4,0,0,1-2.18-4.79,17.12,17.12,0,0,1,1-7.76c.14-.4.28-.8.43-1.2a16.57,16.57,0,0,0,3.08,6.49,10.85,10.85,0,0,0,1.55,1.48c.48.39,1,.75,1.42,1.18a5.8,5.8,0,0,1,1.29,1.78,19.58,19.58,0,0,0-.39-2.27,16,16,0,0,0-1.12-3.45A6.35,6.35,0,0,0,237,369.72Zm32.29,7.3a30.38,30.38,0,0,0-.93-7.17,26.82,26.82,0,0,0-2.74-6.73A26.76,26.76,0,0,0,255.22,353a24.09,24.09,0,0,0-6.56-2.47c-.32-.07-.63-.12-.95-.17a37.76,37.76,0,0,1,7.51,5.86,31.86,31.86,0,0,1,3,3.53,33.26,33.26,0,0,1,2.52,4.07,27.51,27.51,0,0,1,2.79,9,31.76,31.76,0,0,1,.18,7,21.17,21.17,0,0,1-2.65,8.51c-.19.34-.4.69-.62,1a26.53,26.53,0,0,0,1.7-7.45,25.3,25.3,0,0,0-.31-7,22.15,22.15,0,0,0-2.36-6.58,31,31,0,0,0-4.23-5.88,63.64,63.64,0,0,0-5.31-5.08l-.75-.66a54.57,54.57,0,0,0,2.64,4.95c.93,1.64,1.84,3.28,2.65,5a33.57,33.57,0,0,1,2,5.21,23,23,0,0,1,.83,5.53,26.65,26.65,0,0,1-1.81,10.9A23.84,23.84,0,0,1,253,393a21.59,21.59,0,0,1-1.62,2.06,12.25,12.25,0,0,1-2,1.74c-.61.44-1.25.83-1.9,1.21s-1.5.8-2.23,1.24a10.63,10.63,0,0,0-3.83,3.4,4.07,4.07,0,0,0-.49,1.25c-.35-1.75-1.89-3-3.29-4-.75-.51-1.55-1-2.35-1.42-.58-.31-1.16-.61-1.72-1a21.82,21.82,0,0,1-2.23-1.62,12.6,12.6,0,0,1-1.8-1.92,23.78,23.78,0,0,1-2.76-4.52,24.14,24.14,0,0,1-1.75-5.29,29,29,0,0,1-.57-5.65A23.78,23.78,0,0,1,225,373a28.81,28.81,0,0,1,1.82-5.27c.74-1.68,1.6-3.3,2.49-4.9s1.88-3.24,2.72-4.91c.2-.4.39-.79.57-1.19-1.88,1.64-3.74,3.28-5.47,5.09a30.48,30.48,0,0,0-4.44,5.85,23.45,23.45,0,0,0-2.57,6.44,24.65,24.65,0,0,0-.56,6.85,27.38,27.38,0,0,0,1.43,7.45c.11.31.22.62.34.92a21,21,0,0,1-3.15-8.48,30.23,30.23,0,0,1-.07-6.79,27.43,27.43,0,0,1,2.42-9.16,31,31,0,0,1,2.32-4.13,33,33,0,0,1,2.91-3.65A36.81,36.81,0,0,1,233,351l1-.64a23.28,23.28,0,0,0-7.45,2.6,27.13,27.13,0,0,0-6.5,4.91,26.08,26.08,0,0,0-4.64,6.49,27.87,27.87,0,0,0-2.5,7.49,31.47,31.47,0,0,0-.41,8A23,23,0,0,0,218.79,394a25.81,25.81,0,0,0,6,4.7,27.84,27.84,0,0,0,7.7,3c1.14.27,2.3.51,3.44.81a12.58,12.58,0,0,1,3.9,1.5,2.28,2.28,0,0,1,1,1.42,2.47,2.47,0,0,1,1.27-1.56,9.64,9.64,0,0,1,2.06-.89c1.5-.49,3-.81,4.57-1.16,1.19-.28,2.37-.58,3.52-1a26.66,26.66,0,0,0,10.89-7.07,23.42,23.42,0,0,0,4.5-7.2,24.83,24.83,0,0,0,1.6-8.44C269.3,377.75,269.29,377.38,269.29,377Z" style="fill:#c7b299"/><path d="M396.29,144.28a4.14,4.14,0,0,1-1.1-2.07,6,6,0,0,1,.48-3.41,14.77,14.77,0,0,1,1.5-2.69,17.81,17.81,0,0,0,.49,3c.2.94.44,1.87.68,2.8l.15.57c.22-.51.42-1,.6-1.55a15.18,15.18,0,0,0,.77-3.16,4.75,4.75,0,0,0,0-1.64,6.63,6.63,0,0,1,1.66,2.33,6,6,0,0,1,.44,2.34,6.25,6.25,0,0,1-.38,2.05,4.55,4.55,0,0,1-.81,1.42,7,7,0,0,0-1.34,2.33c-.06.18-.12.37-.17.55a1.65,1.65,0,0,0-.09.43,1.54,1.54,0,0,0,.05.48c0,.06.06.3.15.29s.1-.15.12-.2.09-.14.14-.2a4.4,4.4,0,0,1,.35-.39c.31-.31.62-.59.91-.92a9.28,9.28,0,0,0,1.89-3.9c.07-.27.13-.55.19-.83a8.64,8.64,0,0,1,1.34,4.51,5.53,5.53,0,0,1-1.12,3.1,11.47,11.47,0,0,1-2.16,2.13l-1,.83-.43.37a.89.89,0,0,0-.27.31,2.9,2.9,0,0,0-.09.59c0,.28-.05.56-.07.85,0,.47,0,.94-.07,1.42v.08a2.66,2.66,0,0,1,.74-1.3,11.14,11.14,0,0,1,1.32-1.06,13.83,13.83,0,0,0,1.59-1.37,9.58,9.58,0,0,0,1.58-2.21,14.51,14.51,0,0,0,1.26-3.56c.05-.19.09-.38.13-.57a15.16,15.16,0,0,1,.75,3.11,9.39,9.39,0,0,1,0,2.54,7.63,7.63,0,0,1-.58,2.05,7.42,7.42,0,0,1-1,1.64,11.06,11.06,0,0,1-1.26,1.3,17.28,17.28,0,0,1-1.37,1.06l-1.3.89a12.05,12.05,0,0,0-1.08.8,3,3,0,0,0-.7.8,3.85,3.85,0,0,0-.26.79c-.12.43-.21.86-.31,1.28a2,2,0,0,1-.05.24c-.05-.29-.11-.57-.17-.85a7.88,7.88,0,0,0-.36-1.26,2.08,2.08,0,0,0-.58-.74,7.61,7.61,0,0,0-1-.72l-1.23-.78c-.46-.3-.91-.61-1.34-.95a10.23,10.23,0,0,1-1.28-1.18,8.14,8.14,0,0,1-1.08-1.53,7.75,7.75,0,0,1-.74-2,9.92,9.92,0,0,1-.23-2.49,15.31,15.31,0,0,1,.41-3.08c.07-.29.14-.57.22-.86a13.27,13.27,0,0,0,1.14,3.48,10,10,0,0,0,1.59,2.33,11.49,11.49,0,0,0,1.71,1.49c.49.35,1,.67,1.49,1a3.06,3.06,0,0,1,.94.85.37.37,0,0,1,.05.11c0-.42,0-.84,0-1.26a7.16,7.16,0,0,0-.05-.8,1.55,1.55,0,0,0-.06-.23.92.92,0,0,0-.14-.14,14.48,14.48,0,0,0-1.79-1.22,9,9,0,0,1-2-1.66,5.38,5.38,0,0,1-1.24-2.73,9.77,9.77,0,0,1,.57-4.41c.08-.23.16-.46.25-.68a9.32,9.32,0,0,0,1.75,3.69,5.83,5.83,0,0,0,.88.84c.27.22.56.43.81.67a3.19,3.19,0,0,1,.73,1,9.14,9.14,0,0,0-.22-1.29,9,9,0,0,0-.63-2A3.83,3.83,0,0,0,396.29,144.28Zm18.37,4.15a17.1,17.1,0,0,0-.53-4.08,15.19,15.19,0,0,0-7.48-9.59,13.77,13.77,0,0,0-3.73-1.4l-.54-.1a21.28,21.28,0,0,1,4.27,3.34,17.14,17.14,0,0,1,1.72,2,17.92,17.92,0,0,1,1.44,2.32A15.57,15.57,0,0,1,411.4,146a18.07,18.07,0,0,1,.1,4,12.16,12.16,0,0,1-1.5,4.84c-.12.2-.23.39-.36.58a15,15,0,0,0,1-4.24,14.13,14.13,0,0,0-.18-4,12.4,12.4,0,0,0-1.34-3.74,17.26,17.26,0,0,0-2.41-3.35,35.94,35.94,0,0,0-3-2.9l-.43-.37a31.89,31.89,0,0,0,1.51,2.82c.52.93,1,1.87,1.5,2.83a19.41,19.41,0,0,1,1.15,3,13.32,13.32,0,0,1,.47,3.14,15.32,15.32,0,0,1-1,6.21,13.69,13.69,0,0,1-1.44,2.66,12.9,12.9,0,0,1-.92,1.18,7.33,7.33,0,0,1-1.17,1,11,11,0,0,1-1.08.69c-.42.24-.85.46-1.27.71a6,6,0,0,0-2.18,1.94,2.23,2.23,0,0,0-.28.7,4,4,0,0,0-1.87-2.26,14,14,0,0,0-1.34-.81c-.33-.18-.66-.35-1-.55a10.53,10.53,0,0,1-1.27-.92,6.72,6.72,0,0,1-1-1.1,13.19,13.19,0,0,1-1.57-2.57,14.37,14.37,0,0,1-1-3,16.48,16.48,0,0,1-.32-3.21,13.77,13.77,0,0,1,.31-3.14,16.64,16.64,0,0,1,1-3c.42-1,.91-1.88,1.41-2.79s1.08-1.84,1.56-2.79c.11-.23.22-.45.32-.68-1.07.94-2.13,1.87-3.11,2.9a17.11,17.11,0,0,0-2.53,3.33,13.37,13.37,0,0,0-1.47,3.66,14.16,14.16,0,0,0-.31,3.9,15.68,15.68,0,0,0,.81,4.24c.06.17.13.35.2.52a11.7,11.7,0,0,1-1.79-4.83,16.61,16.61,0,0,1-.05-3.86,15.71,15.71,0,0,1,1.38-5.21,16.57,16.57,0,0,1,3-4.43,20.63,20.63,0,0,1,4.16-3.46l.58-.37a13.24,13.24,0,0,0-4.23,1.48,15.35,15.35,0,0,0-3.71,2.8,14.35,14.35,0,0,0-2.63,3.69,15.73,15.73,0,0,0-1.43,4.26,17.79,17.79,0,0,0-.23,4.55,13.19,13.19,0,0,0,1.09,4.36,13,13,0,0,0,2.45,3.69,14.9,14.9,0,0,0,3.41,2.67,16.06,16.06,0,0,0,4.39,1.7c.65.15,1.31.29,1.95.46a7,7,0,0,1,2.23.86,1.29,1.29,0,0,1,.59.8,1.47,1.47,0,0,1,.73-.89,5.5,5.5,0,0,1,1.17-.5c.85-.28,1.73-.46,2.6-.66.68-.16,1.35-.33,2-.55a15.66,15.66,0,0,0,2.44-1.09,15,15,0,0,0,3.76-2.93,13.54,13.54,0,0,0,2.56-4.1,14.35,14.35,0,0,0,.91-4.81Z" style="fill:#c7b299"/><path d="M80.74,335.79a4.45,4.45,0,0,1-1.17-2.2,6.43,6.43,0,0,1,.51-3.64,15.73,15.73,0,0,1,1.6-2.86,18.88,18.88,0,0,0,.52,3.17c.22,1,.47,2,.73,3,0,.2.11.4.16.61.24-.55.44-1.1.63-1.66a16.28,16.28,0,0,0,.83-3.37,4.85,4.85,0,0,0,0-1.74,6.93,6.93,0,0,1,1.77,2.48,6.44,6.44,0,0,1,.47,2.49,6.68,6.68,0,0,1-.4,2.18,4.6,4.6,0,0,1-.87,1.52,7.53,7.53,0,0,0-1.42,2.49c-.07.19-.13.39-.19.58a2.52,2.52,0,0,0-.1.46,1.55,1.55,0,0,0,.07.52c0,.05.06.31.15.3s.11-.16.13-.21l.15-.22a5,5,0,0,1,.38-.41c.32-.33.66-.63,1-1a9.73,9.73,0,0,0,2-4.16c.08-.29.14-.58.2-.88a9.14,9.14,0,0,1,1.44,4.8,5.87,5.87,0,0,1-1.2,3.31,12.06,12.06,0,0,1-2.3,2.27l-1.11.88-.46.4a.81.81,0,0,0-.28.33,3.34,3.34,0,0,0-.1.62c0,.3-.06.61-.08.91,0,.5,0,1-.07,1.51v.09a2.82,2.82,0,0,1,.79-1.38,13.68,13.68,0,0,1,1.4-1.14,14.78,14.78,0,0,0,1.7-1.45A10.38,10.38,0,0,0,89.23,342a15.9,15.9,0,0,0,1.34-3.8c.05-.2.09-.4.13-.6a15.93,15.93,0,0,1,.81,3.32,10.61,10.61,0,0,1,0,2.7,7.86,7.86,0,0,1-1.69,3.93A10.37,10.37,0,0,1,88.49,349,17.28,17.28,0,0,1,87,350.11l-1.39.95a11.86,11.86,0,0,0-1.15.86,3,3,0,0,0-.74.85,3.61,3.61,0,0,0-.28.84c-.12.45-.23.91-.33,1.36a1.84,1.84,0,0,1,0,.25c-.06-.3-.12-.6-.19-.9a8.55,8.55,0,0,0-.37-1.34,2.3,2.3,0,0,0-.62-.8,9.9,9.9,0,0,0-1-.76l-1.32-.84c-.48-.31-1-.64-1.42-1a11.6,11.6,0,0,1-1.36-1.26,8.26,8.26,0,0,1-1.94-3.72,10.73,10.73,0,0,1-.25-2.65,16.39,16.39,0,0,1,.44-3.28c.07-.31.15-.62.23-.92a14.29,14.29,0,0,0,1.22,3.71,10.5,10.5,0,0,0,1.7,2.48A11.53,11.53,0,0,0,80,345.53c.51.37,1.06.71,1.59,1.07a3.28,3.28,0,0,1,1,.9l.06.12c0-.44,0-.89,0-1.33a8.1,8.1,0,0,0-.06-.86.71.71,0,0,0-.06-.25,1.06,1.06,0,0,0-.15-.15,14.53,14.53,0,0,0-1.91-1.29A9.9,9.9,0,0,1,78.31,342,5.68,5.68,0,0,1,77,339.06a10.32,10.32,0,0,1,.61-4.7c.08-.25.17-.49.26-.73a10.17,10.17,0,0,0,1.87,3.94,6.6,6.6,0,0,0,.94.89c.29.24.59.46.86.72a3.47,3.47,0,0,1,.78,1.08,12.81,12.81,0,0,0-.23-1.38,10.21,10.21,0,0,0-.68-2.09A3.91,3.91,0,0,0,80.74,335.79Zm19.58,4.43a17.72,17.72,0,0,0-.57-4.35,16.15,16.15,0,0,0-4.31-7.51,16.4,16.4,0,0,0-3.65-2.71,14.63,14.63,0,0,0-4-1.5l-.58-.1a22.77,22.77,0,0,1,4.56,3.56,19.57,19.57,0,0,1,1.83,2.13,20.29,20.29,0,0,1,1.53,2.47,16.6,16.6,0,0,1,1.69,5.46,18.61,18.61,0,0,1,.11,4.22,12.9,12.9,0,0,1-1.6,5.16c-.12.21-.25.42-.38.62a16,16,0,0,0,1-4.52,14.84,14.84,0,0,0-.19-4.21,13.14,13.14,0,0,0-1.43-4,18.45,18.45,0,0,0-2.56-3.57,39,39,0,0,0-3.22-3.08l-.46-.41a31,31,0,0,0,1.61,3c.56,1,1.11,2,1.6,3a19.84,19.84,0,0,1,1.22,3.16,14.07,14.07,0,0,1,.5,3.36A16.32,16.32,0,0,1,92,347a14.8,14.8,0,0,1-1.54,2.85,14.55,14.55,0,0,1-1,1.25,7.75,7.75,0,0,1-1.24,1.05,12.67,12.67,0,0,1-1.16.74c-.44.25-.91.48-1.35.75a6.4,6.4,0,0,0-2.32,2.06,2.37,2.37,0,0,0-.3.76,4.24,4.24,0,0,0-2-2.42c-.46-.31-.94-.59-1.43-.86s-.7-.37-1-.59a11.61,11.61,0,0,1-1.36-1,8,8,0,0,1-1.09-1.17,14.24,14.24,0,0,1-1.67-2.74,14.77,14.77,0,0,1-1.07-3.21,18.81,18.81,0,0,1-.34-3.43,15,15,0,0,1,.33-3.34,17.81,17.81,0,0,1,1.11-3.2c.45-1,1-2,1.51-3s1.14-2,1.65-3c.12-.24.24-.48.34-.73-1.14,1-2.27,2-3.31,3.09a19,19,0,0,0-2.7,3.55,14.41,14.41,0,0,0-1.56,3.91,14.84,14.84,0,0,0-.33,4.15,16.59,16.59,0,0,0,.86,4.52l.21.56a12.71,12.71,0,0,1-1.91-5.15,18.22,18.22,0,0,1,0-4.11,17,17,0,0,1,1.47-5.56,18.2,18.2,0,0,1,3.17-4.72,22.75,22.75,0,0,1,4.44-3.69l.62-.39a13.94,13.94,0,0,0-4.51,1.58,16.42,16.42,0,0,0-4,3,15.77,15.77,0,0,0-2.81,3.93,17,17,0,0,0-1.52,4.54,19.25,19.25,0,0,0-.25,4.85,14.38,14.38,0,0,0,1.16,4.65,14.06,14.06,0,0,0,2.62,3.93,15.71,15.71,0,0,0,3.64,2.85A16.71,16.71,0,0,0,78,355.17c.69.16,1.39.31,2.09.49a7.76,7.76,0,0,1,2.37.91,1.47,1.47,0,0,1,.63.86,1.5,1.5,0,0,1,.77-.94,5.76,5.76,0,0,1,1.25-.54c.91-.3,1.84-.49,2.77-.71.72-.17,1.44-.34,2.14-.58a16.66,16.66,0,0,0,2.59-1.16,15.84,15.84,0,0,0,4-3.13A14.1,14.1,0,0,0,99.35,346a15.15,15.15,0,0,0,1-5.12C100.33,340.66,100.32,340.44,100.32,340.22Z" style="fill:#c7b299"/><path d="M280.38,393.32a4.57,4.57,0,0,1-1.17-2.21,6.38,6.38,0,0,1,.51-3.63,15,15,0,0,1,1.61-2.87,17.9,17.9,0,0,0,.51,3.17c.22,1,.47,2,.73,3l.16.61c.24-.54.44-1.1.63-1.66a15.67,15.67,0,0,0,.83-3.37,4.85,4.85,0,0,0-.05-1.74,6.93,6.93,0,0,1,1.77,2.48,6.46,6.46,0,0,1,.47,2.5,6.78,6.78,0,0,1-.4,2.18,4.81,4.81,0,0,1-.87,1.52,7.56,7.56,0,0,0-1.42,2.48c-.07.19-.13.39-.19.58a2.52,2.52,0,0,0-.1.46,1.86,1.86,0,0,0,.07.52c0,.05.06.31.15.3s.11-.16.13-.21l.15-.22c.12-.14.25-.28.38-.41.32-.33.66-.63,1-1a9.82,9.82,0,0,0,2-4.17c.08-.29.14-.58.21-.88a9.22,9.22,0,0,1,1.43,4.8,5.9,5.9,0,0,1-1.19,3.31,12.41,12.41,0,0,1-2.31,2.27l-1.11.88c-.15.13-.31.26-.45.4a.84.84,0,0,0-.29.33,3.34,3.34,0,0,0-.1.62c0,.31-.06.61-.08.91,0,.51-.05,1-.07,1.51v.09a2.91,2.91,0,0,1,.79-1.38,12.78,12.78,0,0,1,1.41-1.14,13.63,13.63,0,0,0,1.69-1.45,10.08,10.08,0,0,0,1.69-2.36,15.5,15.5,0,0,0,1.35-3.8l.12-.6a15.93,15.93,0,0,1,.81,3.32,10.69,10.69,0,0,1,0,2.71,8,8,0,0,1-1.68,3.92,10.44,10.44,0,0,1-1.35,1.39,17.28,17.28,0,0,1-1.46,1.13l-1.39.95a11.86,11.86,0,0,0-1.15.86,3.17,3.17,0,0,0-.74.85,3.61,3.61,0,0,0-.28.84c-.12.45-.23.91-.33,1.37,0,.08,0,.16,0,.25-.06-.31-.12-.61-.19-.91a7.59,7.59,0,0,0-.37-1.34,2.27,2.27,0,0,0-.62-.79,8.74,8.74,0,0,0-1-.77l-1.32-.83c-.48-.32-1-.65-1.42-1a11.54,11.54,0,0,1-1.36-1.26,8.12,8.12,0,0,1-1.94-3.72,10.73,10.73,0,0,1-.25-2.65,16.39,16.39,0,0,1,.44-3.28c.07-.31.15-.62.23-.92a14.29,14.29,0,0,0,1.22,3.71,10.81,10.81,0,0,0,1.7,2.48,12,12,0,0,0,1.82,1.59c.52.38,1.06.71,1.59,1.07a3.19,3.19,0,0,1,1,.91.39.39,0,0,1,.06.11c0-.44,0-.89,0-1.33a6.11,6.11,0,0,0-.06-.86.76.76,0,0,0-.06-.25,1.06,1.06,0,0,0-.15-.15,14.53,14.53,0,0,0-1.91-1.29,9.62,9.62,0,0,1-2.15-1.77,5.64,5.64,0,0,1-1.33-2.91,10.34,10.34,0,0,1,.61-4.7c.08-.25.17-.49.26-.73a10.1,10.1,0,0,0,1.87,3.94,6.6,6.6,0,0,0,.94.89c.29.24.59.46.86.72a3.47,3.47,0,0,1,.78,1.08,13.24,13.24,0,0,0-.23-1.38,9.64,9.64,0,0,0-.68-2.09A3.85,3.85,0,0,0,280.38,393.32ZM300,397.74a18.27,18.27,0,0,0-.56-4.35,16.82,16.82,0,0,0-1.66-4.08,16.09,16.09,0,0,0-2.66-3.43,16.4,16.4,0,0,0-3.65-2.71,14.29,14.29,0,0,0-4-1.49l-.58-.11a22.49,22.49,0,0,1,4.56,3.56,18.77,18.77,0,0,1,1.83,2.14,20.17,20.17,0,0,1,1.53,2.46,16.67,16.67,0,0,1,1.69,5.46,18.61,18.61,0,0,1,.11,4.22,12.7,12.7,0,0,1-1.6,5.16c-.12.21-.24.42-.38.62a16.33,16.33,0,0,0,1-4.52,15.63,15.63,0,0,0-.19-4.21,13.69,13.69,0,0,0-1.43-4,19.26,19.26,0,0,0-2.57-3.57,40.7,40.7,0,0,0-3.22-3.08l-.46-.4a33.19,33.19,0,0,0,1.61,3c.56,1,1.11,2,1.6,3a19.84,19.84,0,0,1,1.22,3.16,13.58,13.58,0,0,1,.5,3.36,16.22,16.22,0,0,1-1.09,6.61,14.72,14.72,0,0,1-1.54,2.84,14.55,14.55,0,0,1-1,1.25,7.33,7.33,0,0,1-1.24,1,12.67,12.67,0,0,1-1.16.74c-.44.26-.91.48-1.35.75a6.4,6.4,0,0,0-2.32,2.06,2.62,2.62,0,0,0-.3.76,4.24,4.24,0,0,0-2-2.42c-.46-.31-.94-.59-1.43-.86s-.7-.37-1-.58a13,13,0,0,1-1.36-1,8,8,0,0,1-1.09-1.17,14.24,14.24,0,0,1-1.67-2.74,15.13,15.13,0,0,1-1.07-3.21,18.73,18.73,0,0,1-.34-3.43,14.41,14.41,0,0,1,.34-3.34,17,17,0,0,1,1.1-3.2c.45-1,1-2,1.51-3s1.14-2,1.65-3c.12-.24.24-.48.34-.72-1.13,1-2.26,2-3.31,3.09a18.38,18.38,0,0,0-2.7,3.55,14.34,14.34,0,0,0-1.56,3.9,14.84,14.84,0,0,0-.33,4.15,16.51,16.51,0,0,0,.86,4.52l.21.56a12.67,12.67,0,0,1-1.91-5.14,18.31,18.31,0,0,1-.05-4.12,17,17,0,0,1,1.47-5.56,17.91,17.91,0,0,1,3.18-4.72A22.4,22.4,0,0,1,278,382l.62-.39a13.94,13.94,0,0,0-4.51,1.58,16.42,16.42,0,0,0-3.95,3,15.77,15.77,0,0,0-2.81,3.93,17,17,0,0,0-1.52,4.55,19.21,19.21,0,0,0-.25,4.85,14.33,14.33,0,0,0,1.16,4.64,14.06,14.06,0,0,0,2.62,3.93,16,16,0,0,0,3.64,2.86,17,17,0,0,0,4.67,1.8c.7.17,1.4.32,2.09.5a7.52,7.52,0,0,1,2.37.91,1.38,1.38,0,0,1,.63.85,1.5,1.5,0,0,1,.77-.94,5.76,5.76,0,0,1,1.25-.54c.91-.3,1.85-.49,2.77-.71a19.89,19.89,0,0,0,2.14-.58,16.25,16.25,0,0,0,2.59-1.16,15.84,15.84,0,0,0,4-3.13,14,14,0,0,0,2.73-4.37,15.14,15.14,0,0,0,1-5.11C300,398.18,300,398,300,397.74Z" style="fill:#c7b299"/><path d="M121.92,324a6.56,6.56,0,0,1-1.7-3.2,9.21,9.21,0,0,1,.75-5.27,22.31,22.31,0,0,1,2.32-4.16,27.41,27.41,0,0,0,.75,4.6c.32,1.46.67,2.9,1,4.34l.24.88c.34-.79.64-1.59.92-2.4a23.76,23.76,0,0,0,1.2-4.89,7.41,7.41,0,0,0-.07-2.53,10.06,10.06,0,0,1,2.56,3.6,9.17,9.17,0,0,1,.68,3.62,9.45,9.45,0,0,1-.58,3.16,6.65,6.65,0,0,1-1.26,2.21,11,11,0,0,0-2.06,3.6c-.1.28-.19.56-.27.85a3.07,3.07,0,0,0-.14.67,2.37,2.37,0,0,0,.09.75c0,.08.09.44.22.43s.15-.23.19-.3l.22-.32a7.7,7.7,0,0,1,.54-.6c.47-.47,1-.91,1.4-1.41a14.24,14.24,0,0,0,2.92-6c.11-.42.21-.85.29-1.28a13.43,13.43,0,0,1,2.09,7,8.7,8.7,0,0,1-1.74,4.8,17.94,17.94,0,0,1-3.34,3.29c-.54.43-1.08.84-1.61,1.28q-.35.27-.66.57a1.41,1.41,0,0,0-.42.49,4.45,4.45,0,0,0-.14.9c0,.44-.08.88-.11,1.32,0,.73-.08,1.46-.11,2.19v.13a4.23,4.23,0,0,1,1.15-2,17.86,17.86,0,0,1,2-1.64,20.68,20.68,0,0,0,2.46-2.12,14.65,14.65,0,0,0,2.44-3.41,23,23,0,0,0,2-5.52c.06-.29.13-.58.19-.87a24.12,24.12,0,0,1,1.17,4.81,15.21,15.21,0,0,1,0,3.93,11.7,11.7,0,0,1-.89,3.17,12.63,12.63,0,0,1-1.55,2.53,16.26,16.26,0,0,1-2,2,25.75,25.75,0,0,1-2.11,1.63c-.67.47-1.35.92-2,1.38a20,20,0,0,0-1.67,1.24,4.69,4.69,0,0,0-1.07,1.24,5.34,5.34,0,0,0-.42,1.22c-.17.66-.32,1.32-.46,2,0,.12,0,.24-.08.36-.08-.44-.18-.87-.27-1.31a12,12,0,0,0-.55-2,3.34,3.34,0,0,0-.9-1.15,11.91,11.91,0,0,0-1.51-1.1c-.63-.42-1.27-.81-1.9-1.22a24.72,24.72,0,0,1-2.06-1.46,14.92,14.92,0,0,1-2-1.83,12,12,0,0,1-2.82-5.4,15.44,15.44,0,0,1-.36-3.84,23.9,23.9,0,0,1,.64-4.76c.1-.45.21-.89.34-1.34a20.51,20.51,0,0,0,1.76,5.39,15.56,15.56,0,0,0,2.47,3.6,17.55,17.55,0,0,0,2.63,2.31c.76.54,1.55,1,2.31,1.56a4.73,4.73,0,0,1,1.44,1.3l.1.17c0-.64,0-1.29,0-1.93a10.36,10.36,0,0,0-.09-1.25,1.06,1.06,0,0,0-.09-.35,1,1,0,0,0-.22-.23,21,21,0,0,0-2.77-1.87,14,14,0,0,1-3.12-2.57,8.21,8.21,0,0,1-1.92-4.22,14.9,14.9,0,0,1,.88-6.83c.12-.35.24-.7.37-1.05a14.84,14.84,0,0,0,2.71,5.71,9.9,9.9,0,0,0,1.37,1.3c.42.34.86.67,1.25,1a5.36,5.36,0,0,1,1.14,1.57c-.08-.67-.2-1.34-.34-2a14,14,0,0,0-1-3A5.82,5.82,0,0,0,121.92,324Zm28.41,6.42a26.81,26.81,0,0,0-.82-6.3,23.91,23.91,0,0,0-2.41-5.93,23,23,0,0,0-3.85-5,23.4,23.4,0,0,0-5.3-3.92,21.11,21.11,0,0,0-5.77-2.18l-.84-.15a33.33,33.33,0,0,1,6.61,5.16,29,29,0,0,1,2.66,3.1,28.19,28.19,0,0,1,2.22,3.59,23.88,23.88,0,0,1,2.45,7.91,27.24,27.24,0,0,1,.16,6.12,18.47,18.47,0,0,1-2.32,7.49c-.18.31-.36.61-.55.9a23.43,23.43,0,0,0,1.5-6.56,22.34,22.34,0,0,0-.28-6.11,19.66,19.66,0,0,0-2.07-5.79,27.51,27.51,0,0,0-3.73-5.17,56.43,56.43,0,0,0-4.67-4.48l-.66-.58a48,48,0,0,0,2.33,4.36c.81,1.44,1.61,2.89,2.32,4.38a30.46,30.46,0,0,1,1.78,4.59,20.47,20.47,0,0,1,.72,4.87,23.45,23.45,0,0,1-1.59,9.59,20.4,20.4,0,0,1-3.65,5.94,11.47,11.47,0,0,1-1.8,1.53c-.54.38-1.1.73-1.68,1.06s-1.32.7-2,1.09a9.36,9.36,0,0,0-3.37,3,3.65,3.65,0,0,0-.43,1.09c-.31-1.53-1.66-2.66-2.89-3.5a22,22,0,0,0-2.08-1.25c-.5-.28-1-.54-1.5-.85a18.59,18.59,0,0,1-2-1.42,11.65,11.65,0,0,1-1.59-1.7,21.33,21.33,0,0,1-4-8.63,25.93,25.93,0,0,1-.49-5,20.88,20.88,0,0,1,.48-4.86,25.45,25.45,0,0,1,1.6-4.64c.65-1.47,1.41-2.9,2.19-4.31s1.65-2.85,2.4-4.32c.17-.35.34-.69.49-1.05-1.65,1.45-3.29,2.89-4.8,4.48a26.85,26.85,0,0,0-3.92,5.15,21.08,21.08,0,0,0-2.26,5.67,21.8,21.8,0,0,0-.48,6,23.59,23.59,0,0,0,1.25,6.55c.09.27.19.55.3.81a18.34,18.34,0,0,1-2.77-7.46,26.57,26.57,0,0,1-.07-6,24.48,24.48,0,0,1,2.13-8.06,26,26,0,0,1,4.61-6.84,32.09,32.09,0,0,1,6.43-5.36l.9-.57a20.31,20.31,0,0,0-6.54,2.29,23.31,23.31,0,0,0-5.73,4.33,22.93,22.93,0,0,0-4.08,5.7,24.47,24.47,0,0,0-2.2,6.59,27.71,27.71,0,0,0-.37,7,20.69,20.69,0,0,0,1.69,6.74,20.41,20.41,0,0,0,3.8,5.71,23.06,23.06,0,0,0,5.28,4.14,24.77,24.77,0,0,0,6.77,2.62c1,.24,2,.45,3,.71a11.06,11.06,0,0,1,3.44,1.32,2.07,2.07,0,0,1,.92,1.25,2.19,2.19,0,0,1,1.12-1.37,8.53,8.53,0,0,1,1.81-.78c1.32-.43,2.68-.71,4-1a30.23,30.23,0,0,0,3.1-.85,23.39,23.39,0,0,0,3.76-1.67,23,23,0,0,0,5.82-4.55,20.39,20.39,0,0,0,4-6.34,21.86,21.86,0,0,0,1.41-7.42C150.34,331,150.33,330.71,150.33,330.39Z" style="fill:#c7b299"/><path d="M418.09,102.22a7.83,7.83,0,0,1-2-3.77,10.92,10.92,0,0,1,.89-6.21,26.33,26.33,0,0,1,2.73-4.89,33.28,33.28,0,0,0,.88,5.42q.57,2.57,1.25,5.11c.09.34.18.69.28,1,.4-.92.75-1.88,1.07-2.83a27.88,27.88,0,0,0,1.42-5.76,8.71,8.71,0,0,0-.08-3,11.93,11.93,0,0,1,3,4.24,10.9,10.9,0,0,1,.8,4.26,11.3,11.3,0,0,1-.69,3.73,7.86,7.86,0,0,1-1.48,2.59,12.85,12.85,0,0,0-2.43,4.25c-.12.33-.22.66-.32,1a4.46,4.46,0,0,0-.17.79,3.27,3.27,0,0,0,.11.88c0,.09.11.53.26.52s.19-.28.23-.36.17-.25.26-.37a5.4,5.4,0,0,1,.64-.71c.55-.56,1.12-1.08,1.64-1.67a16.73,16.73,0,0,0,3.44-7.11c.13-.5.24-1,.35-1.5a15.78,15.78,0,0,1,2.45,8.2,10.29,10.29,0,0,1-2,5.66,21.24,21.24,0,0,1-3.94,3.87c-.63.51-1.27,1-1.89,1.51-.27.21-.53.44-.79.67s-.41.34-.48.57a5.56,5.56,0,0,0-.18,1.07c-.05.51-.09,1-.12,1.55-.06.86-.1,1.72-.13,2.58v.15a4.9,4.9,0,0,1,1.36-2.36,20.25,20.25,0,0,1,2.39-1.94,24.57,24.57,0,0,0,2.9-2.49,17.57,17.57,0,0,0,2.88-4,26.76,26.76,0,0,0,2.3-6.5c.08-.34.15-.68.22-1a27.7,27.7,0,0,1,1.38,5.68,17.43,17.43,0,0,1,0,4.62,13.74,13.74,0,0,1-1.06,3.73,13.37,13.37,0,0,1-1.82,3,18.48,18.48,0,0,1-2.3,2.38,30.56,30.56,0,0,1-2.49,1.92c-.78.56-1.58,1.08-2.38,1.63a23.17,23.17,0,0,0-2,1.46,5.37,5.37,0,0,0-1.27,1.46,6.53,6.53,0,0,0-.49,1.43q-.3,1.17-.54,2.34a3.15,3.15,0,0,0-.09.42c-.1-.51-.21-1-.33-1.55a13.21,13.21,0,0,0-.64-2.29,3.86,3.86,0,0,0-1.06-1.35,16.18,16.18,0,0,0-1.77-1.31c-.75-.48-1.5-.94-2.25-1.43s-1.65-1.1-2.43-1.71a19.05,19.05,0,0,1-2.33-2.16,14.35,14.35,0,0,1-2-2.79,13.87,13.87,0,0,1-1.34-3.57,18.06,18.06,0,0,1-.43-4.52,28.67,28.67,0,0,1,.75-5.61c.12-.53.26-1,.4-1.57a24.43,24.43,0,0,0,2.08,6.34,18.32,18.32,0,0,0,2.9,4.24,21.2,21.2,0,0,0,3.11,2.72c.88.64,1.82,1.21,2.72,1.83a5.83,5.83,0,0,1,1.7,1.54,1.86,1.86,0,0,1,.1.2c0-.76,0-1.52,0-2.28a10.14,10.14,0,0,0-.1-1.46,1.43,1.43,0,0,0-.1-.42.92.92,0,0,0-.26-.26,23.94,23.94,0,0,0-3.26-2.21,16.48,16.48,0,0,1-3.68-3,9.76,9.76,0,0,1-2.26-5,17.56,17.56,0,0,1,1-8c.13-.41.28-.83.44-1.24a17.29,17.29,0,0,0,3.19,6.73,12.86,12.86,0,0,0,1.6,1.53c.5.4,1,.78,1.48,1.23a6.09,6.09,0,0,1,1.34,1.84,23.05,23.05,0,0,0-.4-2.35,16.56,16.56,0,0,0-1.16-3.57A7,7,0,0,0,418.09,102.22Zm33.46,7.57a31,31,0,0,0-1-7.43,27.9,27.9,0,0,0-2.84-7,27.47,27.47,0,0,0-4.53-5.87A28,28,0,0,0,437,84.89a25.19,25.19,0,0,0-6.8-2.56l-1-.17A38.85,38.85,0,0,1,437,88.23a31.56,31.56,0,0,1,5.74,7.87,28.08,28.08,0,0,1,2.89,9.32,31.7,31.7,0,0,1,.19,7.22,21.76,21.76,0,0,1-2.74,8.81c-.2.36-.42.72-.64,1.06a27.59,27.59,0,0,0,1.76-7.72,26.73,26.73,0,0,0-.32-7.2,23,23,0,0,0-2.45-6.81,31.38,31.38,0,0,0-4.39-6.1,66.62,66.62,0,0,0-5.49-5.27l-.79-.68a56.18,56.18,0,0,0,2.75,5.13c.95,1.7,1.9,3.4,2.73,5.16a35.09,35.09,0,0,1,2.1,5.4,24.2,24.2,0,0,1,.85,5.73,27.92,27.92,0,0,1-1.87,11.3,25,25,0,0,1-2.62,4.86,24.56,24.56,0,0,1-1.68,2.13,13,13,0,0,1-2.12,1.8,22.81,22.81,0,0,1-2,1.26c-.76.44-1.55.82-2.31,1.28a11.06,11.06,0,0,0-4,3.53,4,4,0,0,0-.5,1.29c-.37-1.81-2-3.13-3.41-4.13-.79-.53-1.61-1-2.44-1.47-.6-.33-1.2-.64-1.78-1a22.34,22.34,0,0,1-2.32-1.67,13.05,13.05,0,0,1-1.86-2,24.34,24.34,0,0,1-2.86-4.68,25.19,25.19,0,0,1-1.82-5.48,30.4,30.4,0,0,1-.58-5.86,24.47,24.47,0,0,1,.57-5.72,29.12,29.12,0,0,1,1.88-5.46c.77-1.74,1.66-3.42,2.58-5.08S412,91.69,412.89,90c.21-.41.41-.82.59-1.23-2,1.7-3.88,3.4-5.67,5.27a31.61,31.61,0,0,0-4.6,6.07,24.26,24.26,0,0,0-2.67,6.67,25.64,25.64,0,0,0-.57,7.1,28.22,28.22,0,0,0,1.48,7.72c.11.32.23.64.35,1a21.63,21.63,0,0,1-3.26-8.79,31.19,31.19,0,0,1-.08-7,28.5,28.5,0,0,1,2.51-9.5,33.18,33.18,0,0,1,2.41-4.27,32.3,32.3,0,0,1,3-3.79A37.9,37.9,0,0,1,414,82.82c.35-.23.71-.45,1.06-.66a24.08,24.08,0,0,0-7.71,2.69,28.23,28.23,0,0,0-6.75,5.1,27.09,27.09,0,0,0-4.8,6.72,29.06,29.06,0,0,0-2.59,7.76,32.41,32.41,0,0,0-.43,8.29,23.93,23.93,0,0,0,6.46,14.65,26.93,26.93,0,0,0,6.21,4.88,29,29,0,0,0,8,3.08c1.19.28,2.39.54,3.57.85a12.78,12.78,0,0,1,4,1.55,2.42,2.42,0,0,1,1.09,1.47,2.56,2.56,0,0,1,1.31-1.62,10.39,10.39,0,0,1,2.14-.92c1.55-.5,3.15-.83,4.73-1.21a35.14,35.14,0,0,0,3.65-1,26.57,26.57,0,0,0,4.43-2,27.18,27.18,0,0,0,6.85-5.35,24.18,24.18,0,0,0,4.67-7.47,25.82,25.82,0,0,0,1.66-8.74C451.56,110.54,451.55,110.16,451.55,109.79Z" style="fill:#c7b299"/><path d="M445.34,400.46a7.75,7.75,0,0,1-2-3.77,10.9,10.9,0,0,1,.88-6.21,27,27,0,0,1,2.74-4.89,32.23,32.23,0,0,0,.88,5.42c.38,1.71.8,3.41,1.24,5.1.1.35.19.7.28,1,.4-.93.76-1.88,1.08-2.83a28,28,0,0,0,1.42-5.76,8.71,8.71,0,0,0-.08-3,11.93,11.93,0,0,1,3,4.24,11.2,11.2,0,0,1,.11,8,7.81,7.81,0,0,1-1.48,2.6,12.9,12.9,0,0,0-2.43,4.24c-.12.33-.23.67-.32,1a4.28,4.28,0,0,0-.17.79,3.27,3.27,0,0,0,.11.88c0,.09.11.53.26.51s.18-.27.23-.35a3.09,3.09,0,0,1,.26-.37,6.22,6.22,0,0,1,.64-.72c.55-.55,1.12-1.07,1.64-1.66a16.73,16.73,0,0,0,3.44-7.11c.13-.5.24-1,.34-1.5a15.65,15.65,0,0,1,2.46,8.2,10.23,10.23,0,0,1-2.05,5.66,20.88,20.88,0,0,1-3.93,3.87c-.63.5-1.27,1-1.9,1.5-.26.22-.53.45-.78.68s-.41.34-.48.57a4.79,4.79,0,0,0-.18,1.07c-.06.51-.09,1-.13,1.55q-.07,1.29-.12,2.58V422a4.84,4.84,0,0,1,1.35-2.36,21.21,21.21,0,0,1,2.4-1.94,24.57,24.57,0,0,0,2.9-2.49,17.63,17.63,0,0,0,2.88-4,26.69,26.69,0,0,0,2.3-6.49c.08-.34.15-.68.22-1a28.44,28.44,0,0,1,1.38,5.67,17.94,17.94,0,0,1,0,4.63,13.56,13.56,0,0,1-1.05,3.73,14,14,0,0,1-1.82,3,18.54,18.54,0,0,1-2.31,2.38,30.41,30.41,0,0,1-2.48,1.92c-.79.56-1.59,1.08-2.38,1.62a21.77,21.77,0,0,0-2,1.47,5.48,5.48,0,0,0-1.27,1.45,6.8,6.8,0,0,0-.49,1.44c-.2.77-.38,1.55-.55,2.34l-.09.42c-.09-.52-.2-1-.32-1.55a14.17,14.17,0,0,0-.64-2.29,4,4,0,0,0-1.06-1.35,14.31,14.31,0,0,0-1.78-1.31c-.74-.48-1.5-.94-2.24-1.43s-1.65-1.1-2.43-1.71a19.87,19.87,0,0,1-2.33-2.16,14.84,14.84,0,0,1-2-2.79,14.22,14.22,0,0,1-1.33-3.57,17.64,17.64,0,0,1-.43-4.52,27.93,27.93,0,0,1,.75-5.61c.12-.53.26-1.05.4-1.57a24.41,24.41,0,0,0,2.07,6.34,18.09,18.09,0,0,0,2.91,4.23,20.21,20.21,0,0,0,3.11,2.73c.88.64,1.81,1.21,2.71,1.83a5.7,5.7,0,0,1,1.7,1.54,2,2,0,0,1,.11.2c0-.76,0-1.52,0-2.28a10.37,10.37,0,0,0-.1-1.47,1.31,1.31,0,0,0-.11-.42,1.23,1.23,0,0,0-.25-.26,24.82,24.82,0,0,0-3.26-2.2,16.25,16.25,0,0,1-3.68-3,9.7,9.7,0,0,1-2.27-5,17.79,17.79,0,0,1,1-8c.14-.41.29-.83.44-1.24a17.31,17.31,0,0,0,3.2,6.73,12.86,12.86,0,0,0,1.6,1.53c.5.4,1,.78,1.48,1.22a6.14,6.14,0,0,1,1.34,1.85,23.05,23.05,0,0,0-.4-2.35,16.49,16.49,0,0,0-1.17-3.58A6.79,6.79,0,0,0,445.34,400.46ZM478.8,408a32,32,0,0,0-1-7.42,27.75,27.75,0,0,0-2.84-7,27.23,27.23,0,0,0-4.53-5.87,27.66,27.66,0,0,0-6.24-4.62,24.81,24.81,0,0,0-6.81-2.56c-.32-.07-.65-.13-1-.18a38.84,38.84,0,0,1,7.78,6.08,33,33,0,0,1,3.14,3.65,34.46,34.46,0,0,1,2.61,4.22,28,28,0,0,1,2.89,9.32,32.21,32.21,0,0,1,.19,7.21,21.76,21.76,0,0,1-2.74,8.82c-.2.36-.42.72-.64,1.06a27.67,27.67,0,0,0,1.76-7.72,26.33,26.33,0,0,0-.33-7.2,22.81,22.81,0,0,0-2.44-6.82,31.62,31.62,0,0,0-4.39-6.09,63.65,63.65,0,0,0-5.5-5.27L458,387a56.35,56.35,0,0,0,2.75,5.14c.95,1.69,1.9,3.4,2.73,5.16a35.09,35.09,0,0,1,2.1,5.4,24.65,24.65,0,0,1,.85,5.73,28,28,0,0,1-1.87,11.3,25.51,25.51,0,0,1-2.62,4.85,21.76,21.76,0,0,1-1.69,2.14,12.17,12.17,0,0,1-2.12,1.8,21.23,21.23,0,0,1-2,1.26c-.76.44-1.55.82-2.31,1.28a11.06,11.06,0,0,0-4,3.53,4.24,4.24,0,0,0-.51,1.29c-.36-1.81-2-3.14-3.4-4.13a27.69,27.69,0,0,0-2.44-1.47c-.6-.33-1.2-.64-1.78-1a20.13,20.13,0,0,1-2.32-1.68,13,13,0,0,1-1.86-2,24.22,24.22,0,0,1-2.86-4.69,25,25,0,0,1-1.82-5.48,30.22,30.22,0,0,1-.58-5.85,24.41,24.41,0,0,1,.56-5.72,30.24,30.24,0,0,1,1.89-5.47c.77-1.73,1.66-3.41,2.58-5.07s1.95-3.36,2.82-5.09c.2-.41.4-.82.59-1.24-2,1.71-3.88,3.41-5.67,5.28a31.61,31.61,0,0,0-4.6,6.07,24.26,24.26,0,0,0-2.67,6.67,25.64,25.64,0,0,0-.57,7.1,28.22,28.22,0,0,0,1.48,7.72c.11.32.23.64.35.95a21.74,21.74,0,0,1-3.26-8.79,30.69,30.69,0,0,1-.08-7,28.45,28.45,0,0,1,2.51-9.49,30.55,30.55,0,0,1,5.42-8.06,37.62,37.62,0,0,1,7.58-6.31l1.06-.67a24.34,24.34,0,0,0-7.71,2.7,28,28,0,0,0-6.75,5.09,27,27,0,0,0-4.8,6.72,29.27,29.27,0,0,0-2.6,7.77A32.81,32.81,0,0,0,420,411a24.2,24.2,0,0,0,2,7.94,23.93,23.93,0,0,0,4.48,6.72,26.89,26.89,0,0,0,6.21,4.87,29,29,0,0,0,8,3.09c1.19.28,2.39.54,3.57.84a13,13,0,0,1,4,1.56,2.4,2.4,0,0,1,1.08,1.47,2.6,2.6,0,0,1,1.32-1.62,10.16,10.16,0,0,1,2.14-.92c1.55-.51,3.15-.84,4.73-1.21,1.23-.29,2.45-.59,3.65-1a26.57,26.57,0,0,0,4.43-2,27.18,27.18,0,0,0,6.85-5.35,24,24,0,0,0,4.66-7.47,25.62,25.62,0,0,0,1.66-8.74C478.8,408.78,478.8,408.4,478.8,408Z" style="fill:#c7b299"/><path d="M32.62,419.08a4.22,4.22,0,0,1-1.1-2.07A6,6,0,0,1,32,413.6a14.36,14.36,0,0,1,1.5-2.68,17.53,17.53,0,0,0,.49,3c.2.94.44,1.87.68,2.8l.15.57c.22-.51.42-1,.6-1.55a15,15,0,0,0,.77-3.16,4.7,4.7,0,0,0,0-1.63,6.51,6.51,0,0,1,1.66,2.32,6,6,0,0,1,.44,2.34,6.25,6.25,0,0,1-.38,2.05,4.44,4.44,0,0,1-.81,1.42,7,7,0,0,0-1.34,2.33c-.06.18-.12.37-.17.55a1.52,1.52,0,0,0,0,.92s.06.29.15.28.1-.15.12-.19l.14-.21a4.4,4.4,0,0,1,.35-.39c.31-.3.62-.59.91-.91a9.38,9.38,0,0,0,1.89-3.91c.07-.27.13-.55.19-.82a8.58,8.58,0,0,1,1.34,4.5,5.58,5.58,0,0,1-1.12,3.11,11.72,11.72,0,0,1-2.16,2.12l-1,.83-.43.37a.89.89,0,0,0-.27.31,2.9,2.9,0,0,0-.09.59c0,.28-.05.57-.07.85,0,.47-.05.95-.07,1.42v.08a2.7,2.7,0,0,1,.74-1.3,12.25,12.25,0,0,1,1.32-1.06A12.92,12.92,0,0,0,39,427.15a9.37,9.37,0,0,0,1.58-2.21,14.51,14.51,0,0,0,1.26-3.56c0-.19.09-.38.13-.57a15.1,15.1,0,0,1,.75,3.12,9.39,9.39,0,0,1,0,2.54,7.32,7.32,0,0,1-.58,2,7.42,7.42,0,0,1-1,1.64,10.33,10.33,0,0,1-1.26,1.3,17.28,17.28,0,0,1-1.37,1.06c-.43.31-.87.6-1.3.89a12.16,12.16,0,0,0-1.08.81,2.83,2.83,0,0,0-.7.8,3.49,3.49,0,0,0-.26.79c-.12.42-.21.85-.31,1.28,0,.07,0,.15,0,.23,0-.28-.11-.57-.17-.85a7.88,7.88,0,0,0-.36-1.26,2.08,2.08,0,0,0-.58-.74,7.61,7.61,0,0,0-1-.72L31.51,433c-.46-.3-.91-.61-1.34-.95a11,11,0,0,1-1.28-1.18,8.14,8.14,0,0,1-1.08-1.53,7.75,7.75,0,0,1-.74-2,9.84,9.84,0,0,1-.23-2.48,15.21,15.21,0,0,1,.41-3.08c.07-.29.14-.58.22-.87a13.47,13.47,0,0,0,1.14,3.49,10,10,0,0,0,1.59,2.32,11.49,11.49,0,0,0,1.71,1.49c.49.36,1,.67,1.49,1a3.19,3.19,0,0,1,.94.85l.06.11q0-.63,0-1.26a7.31,7.31,0,0,0,0-.8,2,2,0,0,0-.06-.23.92.92,0,0,0-.14-.14,14.48,14.48,0,0,0-1.79-1.22,9.23,9.23,0,0,1-2-1.65,5.46,5.46,0,0,1-1.24-2.73,9.94,9.94,0,0,1,.57-4.42c.08-.23.16-.45.25-.68a9.32,9.32,0,0,0,1.75,3.69,5.83,5.83,0,0,0,.88.84,10.41,10.41,0,0,1,.81.68,3.15,3.15,0,0,1,.73,1,9.4,9.4,0,0,0-.22-1.29,9,9,0,0,0-.63-2A3.71,3.71,0,0,0,32.62,419.08ZM51,423.23a17,17,0,0,0-.53-4.07,15.13,15.13,0,0,0-4.05-7.06A15,15,0,0,0,43,409.57a13.47,13.47,0,0,0-3.73-1.41l-.54-.1A21.28,21.28,0,0,1,43,411.4a17.14,17.14,0,0,1,1.72,2,18.63,18.63,0,0,1,1.44,2.32,15.65,15.65,0,0,1,1.59,5.12,18.08,18.08,0,0,1,.1,4,12.16,12.16,0,0,1-1.5,4.84c-.12.2-.23.39-.36.58a15,15,0,0,0,1-4.24,14.13,14.13,0,0,0-.18-4,12.49,12.49,0,0,0-1.34-3.74A17.26,17.26,0,0,0,43,414.94a35.82,35.82,0,0,0-3-2.89l-.43-.38c.43,1,1,1.89,1.51,2.82s1,1.87,1.5,2.83a19.82,19.82,0,0,1,1.15,3,13.33,13.33,0,0,1,.47,3.15,15.27,15.27,0,0,1-1,6.2,13.69,13.69,0,0,1-1.44,2.66,11.67,11.67,0,0,1-.92,1.18,7.39,7.39,0,0,1-1.17,1c-.34.25-.71.47-1.08.69s-.85.45-1.27.7a6,6,0,0,0-2.18,1.94,2.29,2.29,0,0,0-.28.71A4,4,0,0,0,33,436.24a14,14,0,0,0-1.34-.81c-.33-.18-.66-.35-1-.55a10.53,10.53,0,0,1-1.27-.92,7.08,7.08,0,0,1-1-1.09,13.57,13.57,0,0,1-1.57-2.58,14.48,14.48,0,0,1-1-3,17.4,17.4,0,0,1-.32-3.22,13.77,13.77,0,0,1,.31-3.14,16.64,16.64,0,0,1,1-3c.42-.95.91-1.87,1.42-2.79s1.07-1.84,1.55-2.79c.11-.23.22-.45.32-.68-1.07.94-2.13,1.87-3.11,2.9a17.11,17.11,0,0,0-2.53,3.33A13.37,13.37,0,0,0,23,421.56a14.19,14.19,0,0,0-.31,3.9,15.68,15.68,0,0,0,.81,4.24c.06.17.13.35.2.52a11.65,11.65,0,0,1-1.79-4.83,16.61,16.61,0,0,1-.05-3.86,15.71,15.71,0,0,1,1.38-5.21,16.57,16.57,0,0,1,3-4.43,20.63,20.63,0,0,1,4.16-3.46l.58-.37a13.24,13.24,0,0,0-4.23,1.48,15.61,15.61,0,0,0-3.71,2.8A14.52,14.52,0,0,0,20.37,416a15.73,15.73,0,0,0-1.43,4.26,17.79,17.79,0,0,0-.23,4.55,13.19,13.19,0,0,0,1.09,4.36,13,13,0,0,0,2.45,3.69,15.23,15.23,0,0,0,3.41,2.68,16,16,0,0,0,4.39,1.69c.65.15,1.31.29,1.95.46a7,7,0,0,1,2.23.86,1.29,1.29,0,0,1,.59.8,1.42,1.42,0,0,1,.73-.88,5.53,5.53,0,0,1,1.17-.51c.85-.28,1.73-.46,2.6-.66.68-.16,1.35-.33,2-.55a15.61,15.61,0,0,0,2.44-1.08,15.28,15.28,0,0,0,3.76-2.94,13.54,13.54,0,0,0,2.56-4.1,14.34,14.34,0,0,0,.91-4.8Z" style="fill:#c7b299"/></g></svg>