<svg id="Layer_1" data-name="Layer 1" xmlns="http://www.w3.org/2000/svg" viewBox="0 0 1080 720"><defs><style>.cls-1{fill:#17191c;}.cls-2{fill:#cad1e0;}.cls-3{fill:#5768ff;}</style></defs><rect class="cls-1" width="1080" height="720"/><path class="cls-2" d="M283,337.82a5.49,5.49,0,0,1-3.49,1.79,7,7,0,0,1-3.52-.37,5.54,5.54,0,0,1-2.91-2.94,50.68,50.68,0,0,0-7.1-11.13,19.26,19.26,0,0,0-7.1-5.24,22.06,22.06,0,0,0-8.12-1.42h-7.3v35h7q4.26,0,6.09-1.69c1.22-1.13,2.39-3.38,3.52-6.77a5.27,5.27,0,0,1,1.89-2.84,5,5,0,0,1,2.84-.81,4.45,4.45,0,0,1,4.81,3.72l5.27,21.51a5.27,5.27,0,0,1-.13,3.79,4.63,4.63,0,0,1-2.5,2,5.25,5.25,0,0,1-3.56.1,7,7,0,0,1-3.14-2.54,25.57,25.57,0,0,0-3.69-4.29,9.64,9.64,0,0,0-4-2.13A22.64,22.64,0,0,0,252,363h-8.59v25.5a5.12,5.12,0,0,0,.77,2.88,4,4,0,0,0,2.68,1.59l4,.88A5.31,5.31,0,0,1,254,395.5a5.4,5.4,0,0,1,.94,3.42,4.27,4.27,0,0,1-1.42,3.35,6.5,6.5,0,0,1-4.39,1.25H208.32a6.54,6.54,0,0,1-4.4-1.25,4.27,4.27,0,0,1-1.42-3.35,5,5,0,0,1,3.52-5l2.57-.94a6,6,0,0,0,2.6-1.73,4.16,4.16,0,0,0,.85-2.74V323.85a4.18,4.18,0,0,0-.85-2.74,6,6,0,0,0-2.6-1.72l-2.57-.95a5,5,0,0,1-3.52-5,4.19,4.19,0,0,1,1.42-3.38,6.71,6.71,0,0,1,4.4-1.22h49a22.28,22.28,0,0,0,5.28-.54c1.44-.36,2.77-.71,4-1.05a13.35,13.35,0,0,1,3.55-.5,6.7,6.7,0,0,1,4.87,1.59,12.3,12.3,0,0,1,2.7,5.38l6,20.56A3.6,3.6,0,0,1,283,337.82Zm39,57.6-1.49-.68a2.7,2.7,0,0,1-1.42-1.58,12.68,12.68,0,0,1-.4-3.83V307.48a6.07,6.07,0,0,0-1.63-4.36,6.37,6.37,0,0,0-4.87-1.73,14.65,14.65,0,0,0-3.72.58,49.61,49.61,0,0,0-5.75,2l-15,5.82a9.1,9.1,0,0,0-3.32,1.9,3.61,3.61,0,0,0-.88,2.57,3.68,3.68,0,0,0,.64,2.23,4,4,0,0,0,2.07,1.35l1.49.47a3,3,0,0,1,1.72,1.26,6,6,0,0,1,.58,3.07v66.7a12.69,12.69,0,0,1-.41,3.83,2.67,2.67,0,0,1-1.42,1.58l-1.49.68a5,5,0,0,0-2.23,1.69,4.15,4.15,0,0,0-.68,2.37,3.82,3.82,0,0,0,1.22,3,5.83,5.83,0,0,0,3.92,1.08h30.85a5.83,5.83,0,0,0,3.92-1.08,3.82,3.82,0,0,0,1.22-3,4.15,4.15,0,0,0-.68-2.37A5,5,0,0,0,322,395.42Zm44.08,0-1.49-.68a2.67,2.67,0,0,1-1.42-1.58,12.69,12.69,0,0,1-.41-3.83V342.39A6.15,6.15,0,0,0,361.1,338a6.4,6.4,0,0,0-4.87-1.72,14.64,14.64,0,0,0-3.72.57c-1.4.39-3.32,1-5.75,2l-15,5.82a9.26,9.26,0,0,0-3.31,1.89,3.61,3.61,0,0,0-.88,2.57,3.68,3.68,0,0,0,.64,2.23,4.05,4.05,0,0,0,2.06,1.36l1.49.47a3,3,0,0,1,1.73,1.25,6.16,6.16,0,0,1,.57,3.08v31.79a12.68,12.68,0,0,1-.4,3.83,2.7,2.7,0,0,1-1.42,1.58l-1.49.68a5,5,0,0,0-2.23,1.69,4.15,4.15,0,0,0-.68,2.37,3.74,3.74,0,0,0,1.22,3,5.83,5.83,0,0,0,3.92,1.08h30.85a5.83,5.83,0,0,0,3.92-1.08,3.79,3.79,0,0,0,1.22-3,4.15,4.15,0,0,0-.68-2.37,5,5,0,0,0-2.29-1.67Zm89.57,0-1.48-.68a2.67,2.67,0,0,1-1.42-1.58,12.69,12.69,0,0,1-.41-3.83V358q0-9.67-5.55-15.66t-14.61-6q-5.88,0-12.92,3.62a63.46,63.46,0,0,0-12.11,8.66v-6.19a6.18,6.18,0,0,0-1.59-4.37,6,6,0,0,0-4.63-1.72,15,15,0,0,0-4.16.61,54.53,54.53,0,0,0-5.58,2l-15,5.82a9.26,9.26,0,0,0-3.31,1.89,3.61,3.61,0,0,0-.88,2.57,3.68,3.68,0,0,0,.64,2.23,4,4,0,0,0,2.06,1.36l1.49.47a3,3,0,0,1,1.73,1.25,6.16,6.16,0,0,1,.57,3.08v31.79a12.08,12.08,0,0,1-.41,3.83,2.67,2.67,0,0,1-1.42,1.58l-1.48.68a5,5,0,0,0-2.24,1.69,4.16,4.16,0,0,0-.67,2.37,3.78,3.78,0,0,0,1.21,3,5.86,5.86,0,0,0,3.93,1.08h30c3.47,0,5.21-1.44,5.2-4.33a4.07,4.07,0,0,0-2.23-3.72l-1.35-.75a2.94,2.94,0,0,1-1.42-1.62,12.09,12.09,0,0,1-.41-3.79V356.74a13.31,13.31,0,0,1,4.26-2.52,13.8,13.8,0,0,1,4.67-.87,7.24,7.24,0,0,1,5.58,2.16c1.33,1.44,2,3.61,2,6.49v27.33a12.09,12.09,0,0,1-.41,3.79,2.94,2.94,0,0,1-1.42,1.62l-1.35.75a4.07,4.07,0,0,0-2.23,3.72c0,2.89,1.73,4.34,5.2,4.33h30a5.86,5.86,0,0,0,3.93-1.08,3.78,3.78,0,0,0,1.21-3,4.16,4.16,0,0,0-.67-2.37,5,5,0,0,0-2.36-1.67Zm55.66-14.88a3,3,0,0,0-2.57,1.28,20.16,20.16,0,0,0-1.79,2.95,10.68,10.68,0,0,1-2.23,2.94,5.65,5.65,0,0,1-4,1.29,5.48,5.48,0,0,1-4.87-2.58q-1.69-2.57-1.69-7.5v-31h8.66q5.74,0,8.25-1.75a5.19,5.19,0,0,0,2.5-4.33,3,3,0,0,0-1.25-2.61,5.58,5.58,0,0,0-3.35-.91H494.16V324.66a5.51,5.51,0,0,0-1.12-3.72,3.87,3.87,0,0,0-3.08-1.28,7.57,7.57,0,0,0-3.68,1.08,19.59,19.59,0,0,0-4.16,3.32l-11,11.16a17.1,17.1,0,0,1-2.87,2.43,4.55,4.55,0,0,1-2.41.68h-3.72a5.35,5.35,0,0,0-3.41,1.05,4,4,0,0,0-.58,5.31,5.27,5.27,0,0,0,2.23,1.55l2.17.88a5.85,5.85,0,0,1,2.27,1.56,4.58,4.58,0,0,1,.71,2.84v32.54q0,10.76,6,16.06t17,5.31a30.49,30.49,0,0,0,13.26-2.77,23,23,0,0,0,9.13-7.48,17.7,17.7,0,0,0,3.32-10.45,5,5,0,0,0-.81-3.24,2.73,2.73,0,0,0-2.14-.95Zm57.93-17.62q-6.56-3.48-19.14-5.58a23.64,23.64,0,0,1-6.22-1.76,5.09,5.09,0,0,1-2.51-2.27,6.61,6.61,0,0,1-.54-2.67,5.22,5.22,0,0,1,1.93-4.06c1.28-1.13,3.26-1.69,5.92-1.69a21.86,21.86,0,0,1,10,2.67q5.18,2.67,9.91,9.51a10.93,10.93,0,0,0,3.32,3.28,4,4,0,0,0,3.72,0,3.93,3.93,0,0,0,2.47-2.54,12.18,12.18,0,0,0-.1-5.17l-2.1-11.57a7.36,7.36,0,0,0-1.49-3.72,3.3,3.3,0,0,0-2.5-1.08,4.88,4.88,0,0,0-2.84.84c-.81.57-1.64,1.13-2.47,1.7a5.41,5.41,0,0,1-3.08.84,9.49,9.49,0,0,1-3.82-.84,38.73,38.73,0,0,0-5-1.7,33.13,33.13,0,0,0-8.42-.84A36.27,36.27,0,0,0,531.7,339a24,24,0,0,0-10.08,7.82,19.63,19.63,0,0,0-3.68,11.87,24.15,24.15,0,0,0,2.5,11.26,20.08,20.08,0,0,0,8.29,8.12q5.78,3.28,15.59,5a51.76,51.76,0,0,1,8.49,2.06,8,8,0,0,1,3.72,2.33,5.09,5.09,0,0,1,.91,3.05,5.38,5.38,0,0,1-2.26,4.53c-1.52,1.13-3.78,1.69-6.8,1.69a20.07,20.07,0,0,1-7.61-1.49,24.17,24.17,0,0,1-7-4.46,41.29,41.29,0,0,1-6.46-7.51,8,8,0,0,0-3.11-3,4.84,4.84,0,0,0-3.79.07,3.89,3.89,0,0,0-2.57,2.88,11.68,11.68,0,0,0,.61,5.65l3.52,12a9.58,9.58,0,0,0,1.59,3.48,3.14,3.14,0,0,0,2.53,1,4.51,4.51,0,0,0,2.78-.81L531,403a4.37,4.37,0,0,1,2.71-.81A8.52,8.52,0,0,1,537,403a35.66,35.66,0,0,0,4.94,1.62,33.32,33.32,0,0,0,8.21.81q15,0,22.7-6.25t7.68-17.29a23.41,23.41,0,0,0-2.4-10.75c-1.57-3.14-4.55-5.9-8.93-8.22Zm66.54,17.62a3,3,0,0,0-2.57,1.28,21.13,21.13,0,0,0-1.8,2.95,10.35,10.35,0,0,1-2.23,2.94,5.62,5.62,0,0,1-3.95,1.29,5.48,5.48,0,0,1-4.88-2.58c-1.12-1.71-1.69-4.21-1.69-7.5v-31h8.66c3.83,0,6.59-.58,8.25-1.75a5.2,5.2,0,0,0,2.51-4.33,3,3,0,0,0-1.25-2.61,5.58,5.58,0,0,0-3.35-.91H618.62V324.66a5.54,5.54,0,0,0-1.11-3.72,3.87,3.87,0,0,0-3.08-1.28,7.64,7.64,0,0,0-3.69,1.08,19.91,19.91,0,0,0-4.16,3.32l-11,11.16a17.16,17.16,0,0,1-2.88,2.43,4.52,4.52,0,0,1-2.4.68h-3.72a5.38,5.38,0,0,0-3.42,1.05,4,4,0,0,0-.57,5.31,5.21,5.21,0,0,0,2.23,1.55l2.16.88a5.75,5.75,0,0,1,2.27,1.56,4.58,4.58,0,0,1,.71,2.84v32.54q0,10.76,6,16.06t17,5.31a30.49,30.49,0,0,0,13.26-2.77,23,23,0,0,0,9.13-7.48,17.71,17.71,0,0,0,3.31-10.45,5,5,0,0,0-.81-3.24,2.72,2.72,0,0,0-2.11-.95ZM713,352.87a34.48,34.48,0,0,1,4.77,18.27,31.47,31.47,0,0,1-5,17.38,35.49,35.49,0,0,1-13.83,12.35,44,44,0,0,1-20.47,4.56A43.25,43.25,0,0,1,658.38,401,32.93,32.93,0,0,1,645,388.72a34.14,34.14,0,0,1-4.77-18.12,31.65,31.65,0,0,1,5-17.56,35.06,35.06,0,0,1,13.83-12.24,44.51,44.51,0,0,1,20.47-4.5,43.77,43.77,0,0,1,20.09,4.36A32.44,32.44,0,0,1,713,352.87Zm-23.37,30.51a80.5,80.5,0,0,0-2-14.41,79.2,79.2,0,0,0-4-13.66q-2.21-5.28-4.77-7.58a5.51,5.51,0,0,0-9.27,2c-.9,2-1.29,4.86-1.18,8.63a86.81,86.81,0,0,0,2,14.44,76.91,76.91,0,0,0,4,13.63q2.22,5.31,4.76,7.58a5.47,5.47,0,0,0,9.24-1.93q1.37-3,1.23-8.66Zm114.28,12-1.49-.68a2.67,2.67,0,0,1-1.42-1.58,12.69,12.69,0,0,1-.41-3.83V358q0-9.67-5.55-15.66t-14.61-6q-5.88,0-12.92,3.62a63.46,63.46,0,0,0-12.11,8.66v-6.19a6.18,6.18,0,0,0-1.59-4.37,6,6,0,0,0-4.63-1.72A15,15,0,0,0,745,337a54.53,54.53,0,0,0-5.58,2l-15,5.82a9.26,9.26,0,0,0-3.31,1.89,3.61,3.61,0,0,0-.88,2.57,3.68,3.68,0,0,0,.64,2.23,4.05,4.05,0,0,0,2.06,1.36l1.49.47a3,3,0,0,1,1.73,1.25,6.16,6.16,0,0,1,.57,3.08v31.79a12.68,12.68,0,0,1-.4,3.83,2.68,2.68,0,0,1-1.43,1.58l-1.48.68a5,5,0,0,0-2.24,1.69,4.16,4.16,0,0,0-.67,2.37,3.74,3.74,0,0,0,1.22,3,5.83,5.83,0,0,0,3.92,1.08h30c3.47,0,5.21-1.44,5.2-4.33a4.07,4.07,0,0,0-2.23-3.72l-1.35-.75a2.94,2.94,0,0,1-1.42-1.62,12.09,12.09,0,0,1-.41-3.79V356.74a13.17,13.17,0,0,1,4.27-2.52,13.74,13.74,0,0,1,4.66-.87,7.23,7.23,0,0,1,5.58,2.16c1.33,1.44,2,3.61,2,6.49v27.33a12.09,12.09,0,0,1-.41,3.79,2.94,2.94,0,0,1-1.42,1.62l-1.35.75a4.07,4.07,0,0,0-2.23,3.72c0,2.89,1.73,4.33,5.21,4.33h30a5.86,5.86,0,0,0,3.93-1.08,3.78,3.78,0,0,0,1.21-3,4.16,4.16,0,0,0-.67-2.37,5,5,0,0,0-2.31-1.67Zm72.67-16.17a7.74,7.74,0,0,1,.64,3.32,18,18,0,0,1-4.09,11.26,28.48,28.48,0,0,1-11.37,8.42,42,42,0,0,1-16.94,3.18,41.44,41.44,0,0,1-18.61-4.09,32.61,32.61,0,0,1-13.05-11.43,30.67,30.67,0,0,1-4.8-17.15,40,40,0,0,1,4.39-19.21,30.71,30.71,0,0,1,12.82-12.72q8.43-4.53,20.33-4.53,10.49,0,17.52,3.38A24,24,0,0,1,874,349a25.65,25.65,0,0,1,3.52,13.46c0,3.16-.86,5.6-2.57,7.34s-4.17,2.6-7.37,2.6H834.89a18.33,18.33,0,0,0,4.32,8q5.55,5.72,15.16,5.72a30,30,0,0,0,8.11-1,18.34,18.34,0,0,0,7.17-4.12,23.67,23.67,0,0,1,3-2.37,3.76,3.76,0,0,1,2-.61,2.11,2.11,0,0,1,1.94,1.28Zm-42.92-17c0,1.05,0,2.06.09,3H845.5q3.72,0,3.72-3.52,0-8.52-2-12.17c-1.31-2.44-3-3.66-5.21-3.66a6.12,6.12,0,0,0-4.26,1.76,12.12,12.12,0,0,0-3,5.38,31.91,31.91,0,0,0-1.08,9.28Z"/><polygon class="cls-3" points="354.67 308.03 347.08 294.57 339.49 308.03 326.03 315.62 339.49 323.2 347.08 336.67 354.67 323.2 368.13 315.62 354.67 308.03"/></svg>