<svg id="Layer_1" data-name="Layer 1" xmlns="http://www.w3.org/2000/svg" viewBox="0 0 540 495.01"><defs><style>.cls-1{fill:#678bff;}</style></defs><path class="cls-1" d="M206.19,297.67l95-31.68A70.23,70.23,0,0,1,390,310.39l15.73,47.15a96.72,96.72,0,0,1-61.15,122.35l-24.9,8.3a132,132,0,0,1-167-83.46A84.63,84.63,0,0,1,206.19,297.67Zm98.44-149.28-44.31-32.58a135.83,135.83,0,0,0-189.89,29h0a80.86,80.86,0,0,0-5.83,86.59c52-20.38,115-7,154.34,31.15l73-24.33a99.23,99.23,0,0,1,29.72-5.1A64.15,64.15,0,0,0,304.63,148.39ZM124.91,414a114.06,114.06,0,0,1,61.88-140.17c-28.09-20.46-65.3-27.73-99-19-13.44,2.78-36.92,14.85-49.74,20.31A64.58,64.58,0,0,0,5.72,360.5L28,409.88A136.29,136.29,0,0,0,176,488.06,161.11,161.11,0,0,1,124.91,414ZM483.68,204.19l-31.75-56.33-31.74,56.33-56.33,31.74,56.33,31.75L451.93,324l31.75-56.32L540,235.93ZM411,119.82l56.33-31.75L411,56.33,379.28,0,347.54,56.33,291.21,88.07l56.33,31.75,31.74,56.32Z"/></svg>