<svg id="Layer_1" data-name="Layer 1" xmlns="http://www.w3.org/2000/svg" viewBox="0 0 1920 1080"><defs><style>.cls-1{fill:#0c0e19;}.cls-2{fill:#cad1e0;}.cls-3{fill:#678bff;}</style></defs><rect class="cls-1" x="-2008.88" width="3928.88" height="1080"/><path class="cls-2" d="M464.79,499.54a10.59,10.59,0,0,1-6.71,3.45,13.42,13.42,0,0,1-6.78-.72c-2.26-.82-4.12-2.71-5.6-5.67q-7-14.07-13.69-21.44t-13.68-10.1a42.9,42.9,0,0,0-15.64-2.73H388.62v67.51H402q8.2,0,11.73-3.26t6.78-13a10.11,10.11,0,0,1,3.64-5.48,9.68,9.68,0,0,1,5.48-1.56q7.56,0,9.25,7.17l10.17,41.44q1.17,4.7-.26,7.3a8.87,8.87,0,0,1-4.83,3.91,10.1,10.1,0,0,1-6.84.2,13.45,13.45,0,0,1-6.06-4.89,48.88,48.88,0,0,0-7.1-8.28,18.94,18.94,0,0,0-7.63-4.1,43.34,43.34,0,0,0-11.2-1.18H388.62v49.14a9.86,9.86,0,0,0,1.49,5.54,7.76,7.76,0,0,0,5.15,3.06l7.82,1.69q4.17.91,6,3.2t1.82,6.58a8.16,8.16,0,0,1-2.74,6.45q-2.73,2.41-8.47,2.41H321q-5.73,0-8.47-2.41a8.18,8.18,0,0,1-2.73-6.45q0-7,6.77-9.65l5-1.82a11.7,11.7,0,0,0,5-3.32,8.14,8.14,0,0,0,1.63-5.28V472.62a8.14,8.14,0,0,0-1.63-5.28,11.7,11.7,0,0,0-5-3.32l-5-1.82q-6.77-2.61-6.77-9.65A8.11,8.11,0,0,1,312.5,446q2.75-2.35,8.47-2.35h94.36a42.83,42.83,0,0,0,10.17-1q4.17-1,7.62-2a25.07,25.07,0,0,1,6.84-1q6.26,0,9.39,3.06t5.21,10.36L466,492.69A6.92,6.92,0,0,1,464.79,499.54Zm75.13,111-2.86-1.3a5.15,5.15,0,0,1-2.74-3.07,24,24,0,0,1-.78-7.36V441.08a11.73,11.73,0,0,0-3.13-8.4q-3.13-3.33-9.38-3.33a27.84,27.84,0,0,0-7.17,1.11q-4,1.11-11.08,3.85l-28.93,11.2q-4.69,1.83-6.39,3.65a8.1,8.1,0,0,0-.45,9.26,7.71,7.71,0,0,0,4,2.6l2.87.92a5.61,5.61,0,0,1,3.32,2.41q1.11,1.75,1.11,5.93v128.5a24,24,0,0,1-.78,7.36,5.19,5.19,0,0,1-2.74,3.07l-2.87,1.3a9.59,9.59,0,0,0-4.3,3.26,8,8,0,0,0-1.3,4.56,7.27,7.27,0,0,0,2.34,5.73c1.57,1.4,4.09,2.09,7.56,2.09h59.43c3.48,0,6-.69,7.56-2.09a7.24,7.24,0,0,0,2.35-5.73,8.08,8.08,0,0,0-1.3-4.56A9.62,9.62,0,0,0,539.92,610.51Zm84.92,0-2.86-1.3a5.15,5.15,0,0,1-2.74-3.07,24,24,0,0,1-.78-7.36V508.33a11.78,11.78,0,0,0-3.13-8.4q-3.14-3.33-9.38-3.33a27.41,27.41,0,0,0-7.17,1.11q-4,1.11-11.08,3.85l-28.93,11.2q-4.69,1.83-6.39,3.65a7,7,0,0,0-1.69,5,7.13,7.13,0,0,0,1.23,4.3,7.78,7.78,0,0,0,4,2.6l2.87.92a5.61,5.61,0,0,1,3.32,2.41q1.11,1.75,1.11,5.93v61.25a24,24,0,0,1-.78,7.36,5.22,5.22,0,0,1-2.74,3.07l-2.87,1.3a9.59,9.59,0,0,0-4.3,3.26,8,8,0,0,0-1.3,4.56,7.27,7.27,0,0,0,2.34,5.73c1.57,1.4,4.09,2.09,7.56,2.09h59.43c3.48,0,6-.69,7.56-2.09a7.24,7.24,0,0,0,2.35-5.73,8,8,0,0,0-1.31-4.56A9.53,9.53,0,0,0,624.84,610.51Zm172.58,0-2.87-1.3a5.17,5.17,0,0,1-2.73-3.07,24,24,0,0,1-.78-7.36V538.31q0-18.64-10.69-30.17T752.2,496.6q-11.34,0-24.89,7Q717,508.86,704,520.26V508.33a11.91,11.91,0,0,0-3.07-8.4q-3.06-3.33-8.92-3.33a28.85,28.85,0,0,0-8,1.18q-4.11,1.17-10.75,3.78l-28.93,11.2q-4.69,1.83-6.39,3.65a7,7,0,0,0-1.69,5,7.13,7.13,0,0,0,1.23,4.3,7.74,7.74,0,0,0,4,2.6l2.87.92a5.61,5.61,0,0,1,3.32,2.41q1.11,1.75,1.11,5.93v61.25a24,24,0,0,1-.78,7.36,5.22,5.22,0,0,1-2.74,3.07l-2.87,1.3a9.59,9.59,0,0,0-4.3,3.26,8,8,0,0,0-1.3,4.56,7.27,7.27,0,0,0,2.34,5.73c1.57,1.4,4.09,2.09,7.56,2.09h57.74q10,0,10-8.34a7.83,7.83,0,0,0-4.3-7.17l-2.6-1.43a5.7,5.7,0,0,1-2.74-3.13,23.42,23.42,0,0,1-.78-7.3V536a25.16,25.16,0,0,1,8.21-4.85,26.37,26.37,0,0,1,9-1.69q6.9,0,10.75,4.17t3.85,12.51v52.65q0,5.22-.79,7.3a5.72,5.72,0,0,1-2.73,3.13l-2.61,1.43a7.83,7.83,0,0,0-4.3,7.17q0,8.34,10,8.34h57.73c3.48,0,6-.69,7.56-2.09a7.27,7.27,0,0,0,2.35-5.73,8,8,0,0,0-1.31-4.56A9.59,9.59,0,0,0,797.42,610.51Zm107.23-28.67a5.86,5.86,0,0,0-4.95,2.47,40.36,40.36,0,0,0-3.45,5.67,20.26,20.26,0,0,1-4.3,5.67q-2.69,2.48-7.63,2.48a10.55,10.55,0,0,1-9.38-5q-3.26-4.95-3.26-14.47V519h16.68q11.08,0,15.9-3.39t4.82-8.34a5.85,5.85,0,0,0-2.41-5,10.74,10.74,0,0,0-6.45-1.76H871.68V474.19q0-4.69-2.15-7.17a7.44,7.44,0,0,0-5.93-2.48,14.52,14.52,0,0,0-7.1,2.09,38.44,38.44,0,0,0-8,6.38l-21.24,21.51a32.74,32.74,0,0,1-5.54,4.69,8.76,8.76,0,0,1-4.63,1.3H809.9a10.31,10.31,0,0,0-6.58,2,7.76,7.76,0,0,0-1.11,10.23,10.22,10.22,0,0,0,4.31,3l4.17,1.7a11.43,11.43,0,0,1,4.36,3q1.37,1.69,1.37,5.48v62.68q0,20.73,11.6,31t32.84,10.23a58.59,58.59,0,0,0,25.55-5.35A44.29,44.29,0,0,0,904,610.05a34.11,34.11,0,0,0,6.39-20.13q0-4.42-1.57-6.26A5.23,5.23,0,0,0,904.65,581.84Zm111.61-34q-12.64-6.72-36.88-10.75-8.21-1.44-12-3.39c-2.52-1.31-4.13-2.76-4.82-4.37a12.75,12.75,0,0,1-1.05-5.15,10.06,10.06,0,0,1,3.72-7.82q3.71-3.25,11.4-3.25A42.11,42.11,0,0,1,996,518.3q10,5.16,19.09,18.31a21.16,21.16,0,0,0,6.39,6.33q3.12,1.75,7.16.06a7.57,7.57,0,0,0,4.76-4.89q1-3.32-.19-10l-4-22.28q-.92-5.08-2.87-7.17a6.36,6.36,0,0,0-4.82-2.09,9.42,9.42,0,0,0-5.48,1.63q-2.34,1.63-4.76,3.26a10.29,10.29,0,0,1-5.93,1.63,18.17,18.17,0,0,1-7.36-1.63,73.58,73.58,0,0,0-9.64-3.26q-5.94-1.62-16.23-1.63-15.76,0-28.08,5.35A46.19,46.19,0,0,0,924.58,517a37.66,37.66,0,0,0-7.11,22.87,46.49,46.49,0,0,0,4.83,21.7q4.82,9.31,16,15.64t30,9.71a100.2,100.2,0,0,1,16.36,4q5.4,2,7.17,4.49a9.89,9.89,0,0,1,1.76,5.87,10.34,10.34,0,0,1-4.37,8.73q-4.37,3.25-13.1,3.26a38.82,38.82,0,0,1-14.66-2.87,46.75,46.75,0,0,1-13.55-8.6,78.6,78.6,0,0,1-12.45-14.47q-2.87-4.3-6-5.73a9.2,9.2,0,0,0-7.29.13,7.5,7.5,0,0,0-5,5.54q-.91,4,1.18,10.88l6.77,23.07q1.44,4.81,3.07,6.71a6.08,6.08,0,0,0,4.88,1.89,8.64,8.64,0,0,0,5.35-1.57l4.17-3.12a8.4,8.4,0,0,1,5.21-1.57,16.27,16.27,0,0,1,6.45,1.57,67.66,67.66,0,0,0,9.52,3.12,63.9,63.9,0,0,0,15.83,1.57q28.93,0,43.73-12.06t14.79-33.3a45.25,45.25,0,0,0-4.63-20.72Q1028.91,554.6,1016.26,547.89Zm128.19,34a5.83,5.83,0,0,0-5,2.47A41.34,41.34,0,0,0,1136,590a20.07,20.07,0,0,1-4.3,5.67q-2.67,2.48-7.62,2.48a10.53,10.53,0,0,1-9.38-5q-3.27-4.95-3.26-14.47V519h16.68q11.07,0,15.9-3.39t4.82-8.34a5.85,5.85,0,0,0-2.41-5,10.74,10.74,0,0,0-6.45-1.76h-28.54V474.19q0-4.69-2.15-7.17a7.47,7.47,0,0,0-5.93-2.48,14.58,14.58,0,0,0-7.11,2.09,38.67,38.67,0,0,0-8,6.38L1067,494.52a32.76,32.76,0,0,1-5.53,4.69,8.79,8.79,0,0,1-4.63,1.3h-7.17a10.29,10.29,0,0,0-6.58,2,7,7,0,0,0-2.54,5.8,6.91,6.91,0,0,0,1.43,4.43,10.25,10.25,0,0,0,4.3,3l4.17,1.7a11.4,11.4,0,0,1,4.37,3q1.37,1.69,1.37,5.48v62.68q0,20.73,11.6,31t32.84,10.23a58.52,58.52,0,0,0,25.54-5.35,44.32,44.32,0,0,0,17.6-14.4,34.17,34.17,0,0,0,6.38-20.13q0-4.42-1.56-6.26A5.23,5.23,0,0,0,1144.45,581.84Zm148.87-53.31q9.18,15.12,9.19,35.19a60.6,60.6,0,0,1-9.65,33.5A68.13,68.13,0,0,1,1266.21,621q-17,8.81-39.42,8.8-22.15,0-38.71-8.54a63.29,63.29,0,0,1-25.74-23.65q-9.19-15.12-9.19-34.93a60.94,60.94,0,0,1,9.64-33.82,67.42,67.42,0,0,1,26.66-23.59q17-8.67,39.42-8.67,22.16,0,38.71,8.41A62.58,62.58,0,0,1,1293.32,528.53Zm-45,58.78q-.26-10.95-3.91-27.76-3.39-16.15-7.62-26.32t-9.19-14.6q-5-4.43-10.3-3.13-4.95,1.17-7.56,6.91T1207.43,539q.33,10.88,3.85,27.82a148.09,148.09,0,0,0,7.69,26.26q4.29,10.23,9.19,14.6t10.23,3.19q5-1.17,7.55-6.91T1248.29,587.31Zm220.17,23.2-2.86-1.3a5.15,5.15,0,0,1-2.74-3.07,24,24,0,0,1-.78-7.36V538.31q0-18.64-10.69-30.17t-28.15-11.54q-11.34,0-24.89,7-10.27,5.28-23.33,16.68V508.33a11.9,11.9,0,0,0-3.06-8.4q-3.07-3.33-8.93-3.33a28.85,28.85,0,0,0-8,1.18q-4.1,1.17-10.75,3.78l-28.93,11.2q-4.69,1.83-6.39,3.65a8.1,8.1,0,0,0-.45,9.26,7.71,7.71,0,0,0,4,2.6l2.87.92a5.58,5.58,0,0,1,3.32,2.41q1.11,1.75,1.11,5.93v61.25a24,24,0,0,1-.78,7.36,5.15,5.15,0,0,1-2.74,3.07l-2.87,1.3a9.59,9.59,0,0,0-4.3,3.26,8,8,0,0,0-1.3,4.56,7.24,7.24,0,0,0,2.35,5.73c1.56,1.4,4.08,2.09,7.56,2.09h57.73q10,0,10-8.34a7.83,7.83,0,0,0-4.3-7.17l-2.6-1.43a5.73,5.73,0,0,1-2.74-3.13,23.42,23.42,0,0,1-.78-7.3V536a25.27,25.27,0,0,1,8.21-4.85,26.46,26.46,0,0,1,9-1.69q6.91,0,10.75,4.17t3.85,12.51v52.65a23.42,23.42,0,0,1-.78,7.3,5.73,5.73,0,0,1-2.74,3.13l-2.61,1.43a7.85,7.85,0,0,0-4.3,7.17q0,8.34,10,8.34h57.73c3.48,0,6-.69,7.56-2.09a7.24,7.24,0,0,0,2.35-5.73,8.08,8.08,0,0,0-1.3-4.56A9.62,9.62,0,0,0,1468.46,610.51Zm140-31.15a14.77,14.77,0,0,1,1.24,6.39q0,11.6-7.88,21.7t-21.9,16.22q-14,6.14-32.64,6.13-19.95,0-35.85-7.89a62.56,62.56,0,0,1-25.15-22q-9.26-14.14-9.25-33,0-21.24,8.47-37a59.18,59.18,0,0,1,24.7-24.5q16.21-8.73,39.16-8.74,20.2,0,33.76,6.52T1603.46,521a49.66,49.66,0,0,1,6.77,25.94q0,9.12-5,14.14t-14.2,5h-62.94a35.13,35.13,0,0,0,8.33,15.31q10.68,11,29.19,11a58.48,58.48,0,0,0,15.64-1.95,35.29,35.29,0,0,0,13.82-8,42.65,42.65,0,0,1,5.73-4.56,7.35,7.35,0,0,1,3.78-1.17A4,4,0,0,1,1608.47,579.36Zm-82.69-32.71q0,3,.18,5.86h22.63q7.17,0,7.17-6.77,0-16.43-3.78-23.46t-10-7a11.76,11.76,0,0,0-8.21,3.39q-3.64,3.39-5.8,10.36A61.17,61.17,0,0,0,1525.78,546.65Z"/><polygon class="cls-3" points="602.93 442.14 588.32 416.2 573.7 442.14 547.76 456.76 573.7 471.37 588.32 497.31 602.93 471.37 628.87 456.76 602.93 442.14"/></svg>