<svg id="Layer_1" data-name="Layer 1" xmlns="http://www.w3.org/2000/svg" viewBox="0 0 128 128"><defs><style>.cls-1{fill:#5768ff;}</style></defs><path class="cls-1" d="M6,108.82,40.69,97.24a25.67,25.67,0,0,1,32.48,16.23l5.75,17.23a35.36,35.36,0,0,1-22.35,44.73l-9.11,3a48.27,48.27,0,0,1-61-30.51A30.94,30.94,0,0,1,6,108.82ZM42,54.25,25.76,42.34A49.66,49.66,0,0,0-43.66,52.93h0a29.58,29.58,0,0,0-2.13,31.66c19-7.45,42-2.55,56.42,11.39l26.67-8.9a36.06,36.06,0,0,1,10.87-1.86A23.45,23.45,0,0,0,42,54.25Zm-65.7,97.1A41.71,41.71,0,0,1-1.12,100.1a43.78,43.78,0,0,0-36.19-7c-4.91,1-13.49,5.43-18.18,7.43a23.61,23.61,0,0,0-11.83,31.22l8.14,18.05A49.82,49.82,0,0,0-5,178.42,58.92,58.92,0,0,1-23.75,151.35ZM107.41,74.64,95.81,54.05,84.2,74.64,63.61,86.25,84.2,97.85l11.61,20.59,11.6-20.59L128,86.25ZM80.85,43.8l20.59-11.6L80.85,20.59,69.25,0,57.64,20.59,37.05,32.2,57.64,43.8,69.25,64.39Z"/></svg>