<svg id="Layer_1" data-name="Layer 1" xmlns="http://www.w3.org/2000/svg" viewBox="0 0 1080 720"><defs><style>.cls-1{fill:#0c0e19;}.cls-2{fill:#cad1e0;}.cls-3{fill:#5768ff;}</style></defs><rect class="cls-1" width="1080" height="720"/><path class="cls-2" d="M283,337.82a5.49,5.49,0,0,1-3.49,1.79,7,7,0,0,1-3.52-.37,5.55,5.55,0,0,1-2.91-2.94,50.59,50.59,0,0,0-7.1-11.13,19.18,19.18,0,0,0-7.1-5.24,22.18,22.18,0,0,0-8.12-1.42h-7.3v35h7q4.26,0,6.09-1.69c1.22-1.13,2.39-3.38,3.52-6.77a5.27,5.27,0,0,1,1.89-2.84,5,5,0,0,1,2.84-.81,4.45,4.45,0,0,1,4.81,3.72l5.27,21.51a5.27,5.27,0,0,1-.13,3.79,4.61,4.61,0,0,1-2.5,2,5.27,5.27,0,0,1-3.56.1,7,7,0,0,1-3.14-2.54,25.26,25.26,0,0,0-3.69-4.29,9.66,9.66,0,0,0-4-2.13A22.45,22.45,0,0,0,252,363h-8.59v25.5a5.12,5.12,0,0,0,.77,2.88,4,4,0,0,0,2.68,1.59l4.05.88a5.27,5.27,0,0,1,3.12,1.65,5.38,5.38,0,0,1,.94,3.42,4.24,4.24,0,0,1-1.42,3.35,6.52,6.52,0,0,1-4.39,1.25H208.32a6.55,6.55,0,0,1-4.4-1.25,4.24,4.24,0,0,1-1.42-3.35,5,5,0,0,1,3.52-5l2.57-.94a6,6,0,0,0,2.6-1.73,4.19,4.19,0,0,0,.85-2.74V323.85a4.21,4.21,0,0,0-.85-2.74,6,6,0,0,0-2.6-1.72l-2.57-.95a5,5,0,0,1-3.52-5,4.2,4.2,0,0,1,1.42-3.38,6.66,6.66,0,0,1,4.4-1.22h49a22.11,22.11,0,0,0,5.28-.54q2.16-.54,4-1.05a13.28,13.28,0,0,1,3.55-.5,6.7,6.7,0,0,1,4.87,1.59,12.25,12.25,0,0,1,2.7,5.38l6,20.56A3.61,3.61,0,0,1,283,337.82Zm39,57.6-1.49-.68a2.68,2.68,0,0,1-1.42-1.58,12.61,12.61,0,0,1-.4-3.83V307.48a6.08,6.08,0,0,0-1.63-4.36,6.37,6.37,0,0,0-4.87-1.73,14.47,14.47,0,0,0-3.72.58c-1.4.38-3.31,1-5.75,2l-15,5.82a9.1,9.1,0,0,0-3.32,1.9,3.6,3.6,0,0,0-.88,2.57,3.68,3.68,0,0,0,.64,2.23,4,4,0,0,0,2.07,1.35l1.49.47a3,3,0,0,1,1.72,1.26,6.08,6.08,0,0,1,.58,3.07v66.7a12.53,12.53,0,0,1-.41,3.83,2.65,2.65,0,0,1-1.42,1.58l-1.49.68a5,5,0,0,0-2.23,1.69,4.2,4.2,0,0,0-.68,2.37,3.79,3.79,0,0,0,1.22,3,5.83,5.83,0,0,0,3.92,1.08h30.85a5.83,5.83,0,0,0,3.92-1.08,3.79,3.79,0,0,0,1.22-3,4.2,4.2,0,0,0-.68-2.37A5,5,0,0,0,322,395.42Zm44.08,0-1.49-.68a2.65,2.65,0,0,1-1.42-1.58,12.53,12.53,0,0,1-.41-3.83V342.39A6.14,6.14,0,0,0,361.1,338a6.38,6.38,0,0,0-4.87-1.72,14.41,14.41,0,0,0-3.72.57c-1.4.39-3.32,1.05-5.75,2l-15,5.82a9.2,9.2,0,0,0-3.31,1.89,3.61,3.61,0,0,0-.88,2.57,3.66,3.66,0,0,0,.64,2.23,4.08,4.08,0,0,0,2.06,1.36l1.49.47a3,3,0,0,1,1.73,1.25,6.14,6.14,0,0,1,.57,3.08v31.79a12.61,12.61,0,0,1-.4,3.83,2.68,2.68,0,0,1-1.42,1.58l-1.49.68a5,5,0,0,0-2.23,1.69,4.12,4.12,0,0,0-.68,2.37,3.76,3.76,0,0,0,1.22,3,5.83,5.83,0,0,0,3.92,1.08h30.85a5.83,5.83,0,0,0,3.92-1.08,3.79,3.79,0,0,0,1.22-3,4.2,4.2,0,0,0-.68-2.37A5,5,0,0,0,366,395.42Zm89.57,0-1.48-.68a2.65,2.65,0,0,1-1.42-1.58,12.53,12.53,0,0,1-.41-3.83V358q0-9.68-5.55-15.66t-14.61-6q-5.88,0-12.92,3.62a63.38,63.38,0,0,0-12.11,8.66v-6.19a6.2,6.2,0,0,0-1.59-4.37,6,6,0,0,0-4.63-1.72,15,15,0,0,0-4.16.61c-1.42.4-3.28,1.06-5.58,2l-15,5.82a9.2,9.2,0,0,0-3.31,1.89,3.61,3.61,0,0,0-.88,2.57,3.66,3.66,0,0,0,.64,2.23,4,4,0,0,0,2.06,1.36l1.49.47a3,3,0,0,1,1.73,1.25,6.14,6.14,0,0,1,.57,3.08v31.79a12.22,12.22,0,0,1-.41,3.83,2.65,2.65,0,0,1-1.42,1.58l-1.48.68a5,5,0,0,0-2.24,1.69,4.19,4.19,0,0,0-.67,2.37,3.79,3.79,0,0,0,1.21,3,5.86,5.86,0,0,0,3.93,1.08h30q5.21,0,5.2-4.33a4.07,4.07,0,0,0-2.23-3.72l-1.35-.75a2.9,2.9,0,0,1-1.42-1.62,12.1,12.1,0,0,1-.41-3.79V356.74a13.27,13.27,0,0,1,4.26-2.52,13.9,13.9,0,0,1,4.67-.87,7.22,7.22,0,0,1,5.58,2.16c1.33,1.44,2,3.61,2,6.49v27.33a12.1,12.1,0,0,1-.41,3.79,2.9,2.9,0,0,1-1.42,1.62l-1.35.75a4.07,4.07,0,0,0-2.23,3.72q0,4.34,5.2,4.33h30a5.86,5.86,0,0,0,3.93-1.08,3.79,3.79,0,0,0,1.21-3,4.19,4.19,0,0,0-.67-2.37A5,5,0,0,0,455.61,395.42Zm55.66-14.88a3,3,0,0,0-2.57,1.28,20.94,20.94,0,0,0-1.79,2.95,10.79,10.79,0,0,1-2.23,2.94,5.62,5.62,0,0,1-4,1.29,5.48,5.48,0,0,1-4.87-2.58q-1.69-2.57-1.69-7.5v-31h8.66q5.74,0,8.25-1.75a5.18,5.18,0,0,0,2.5-4.33,3,3,0,0,0-1.25-2.61,5.54,5.54,0,0,0-3.35-.91H494.16V324.66a5.49,5.49,0,0,0-1.12-3.72,3.88,3.88,0,0,0-3.08-1.28,7.53,7.53,0,0,0-3.68,1.08,19.72,19.72,0,0,0-4.16,3.32l-11,11.16a17,17,0,0,1-2.87,2.43,4.6,4.6,0,0,1-2.41.68h-3.72a5.32,5.32,0,0,0-3.41,1.05,4,4,0,0,0-.58,5.31,5.31,5.31,0,0,0,2.23,1.55l2.17.88a5.87,5.87,0,0,1,2.27,1.56,4.53,4.53,0,0,1,.71,2.84v32.54q0,10.76,6,16.06t17,5.31a30.44,30.44,0,0,0,13.26-2.77,23,23,0,0,0,9.13-7.48,17.7,17.7,0,0,0,3.32-10.45,5,5,0,0,0-.81-3.24A2.73,2.73,0,0,0,511.27,380.54Zm57.93-17.62q-6.56-3.48-19.14-5.58a23.35,23.35,0,0,1-6.22-1.76,5.11,5.11,0,0,1-2.51-2.27,6.64,6.64,0,0,1-.54-2.67,5.21,5.21,0,0,1,1.93-4.06c1.28-1.13,3.26-1.69,5.92-1.69a21.86,21.86,0,0,1,10,2.67q5.18,2.67,9.91,9.51a11.06,11.06,0,0,0,3.32,3.28,4,4,0,0,0,3.72,0,3.94,3.94,0,0,0,2.47-2.54,12.21,12.21,0,0,0-.1-5.17l-2.1-11.57a7.39,7.39,0,0,0-1.49-3.72,3.29,3.29,0,0,0-2.5-1.08,4.88,4.88,0,0,0-2.84.84c-.81.57-1.64,1.13-2.47,1.7a5.41,5.41,0,0,1-3.08.84,9.49,9.49,0,0,1-3.82-.84,37.85,37.85,0,0,0-5-1.7,33.33,33.33,0,0,0-8.42-.84,36.28,36.28,0,0,0-14.58,2.77,24,24,0,0,0-10.08,7.82,19.59,19.59,0,0,0-3.68,11.87,24.15,24.15,0,0,0,2.5,11.26,20.1,20.1,0,0,0,8.29,8.12q5.78,3.28,15.59,5a51.55,51.55,0,0,1,8.49,2.06,8,8,0,0,1,3.72,2.33,5.14,5.14,0,0,1,.91,3.05,5.37,5.37,0,0,1-2.26,4.53c-1.52,1.13-3.78,1.69-6.8,1.69a20,20,0,0,1-7.61-1.49,24.29,24.29,0,0,1-7-4.46,41.34,41.34,0,0,1-6.46-7.51,8,8,0,0,0-3.11-3,4.85,4.85,0,0,0-3.79.07,3.89,3.89,0,0,0-2.57,2.88,11.69,11.69,0,0,0,.61,5.65l3.52,12a9.62,9.62,0,0,0,1.59,3.48,3.14,3.14,0,0,0,2.53,1,4.52,4.52,0,0,0,2.78-.81L531,403a4.4,4.4,0,0,1,2.71-.81A8.53,8.53,0,0,1,537,403a34.86,34.86,0,0,0,4.94,1.62,33.42,33.42,0,0,0,8.21.81q15,0,22.7-6.25t7.68-17.29a23.43,23.43,0,0,0-2.4-10.75C576.56,368,573.58,365.24,569.2,362.92Zm66.54,17.62a3,3,0,0,0-2.57,1.28,21.94,21.94,0,0,0-1.8,2.95,10.4,10.4,0,0,1-2.23,2.94,5.58,5.58,0,0,1-3.95,1.29,5.48,5.48,0,0,1-4.88-2.58c-1.12-1.71-1.69-4.21-1.69-7.5v-31h8.66c3.83,0,6.59-.58,8.25-1.75a5.19,5.19,0,0,0,2.51-4.33,3,3,0,0,0-1.25-2.61,5.56,5.56,0,0,0-3.35-.91H618.62V324.66a5.55,5.55,0,0,0-1.11-3.72,3.89,3.89,0,0,0-3.08-1.28,7.59,7.59,0,0,0-3.69,1.08,20,20,0,0,0-4.16,3.32l-11,11.16a17.36,17.36,0,0,1-2.88,2.43,4.54,4.54,0,0,1-2.4.68h-3.72a5.33,5.33,0,0,0-3.42,1.05,4,4,0,0,0-.57,5.31,5.24,5.24,0,0,0,2.23,1.55l2.16.88a5.79,5.79,0,0,1,2.27,1.56,4.53,4.53,0,0,1,.71,2.84v32.54q0,10.76,6,16.06t17,5.31a30.44,30.44,0,0,0,13.26-2.77,23,23,0,0,0,9.13-7.48,17.69,17.69,0,0,0,3.31-10.45,5,5,0,0,0-.81-3.24A2.71,2.71,0,0,0,635.74,380.54ZM713,352.87a34.47,34.47,0,0,1,4.77,18.27,31.41,31.41,0,0,1-5,17.38,35.46,35.46,0,0,1-13.83,12.35,44,44,0,0,1-20.47,4.56A43.21,43.21,0,0,1,658.38,401,32.87,32.87,0,0,1,645,388.72a34.18,34.18,0,0,1-4.77-18.12,31.65,31.65,0,0,1,5-17.56,35.05,35.05,0,0,1,13.83-12.24,44.5,44.5,0,0,1,20.47-4.5,43.82,43.82,0,0,1,20.09,4.36A32.51,32.51,0,0,1,713,352.87Zm-23.37,30.51a80.71,80.71,0,0,0-2-14.41,78.85,78.85,0,0,0-4-13.66q-2.21-5.28-4.77-7.58a5.72,5.72,0,0,0-5.34-1.62,5.78,5.78,0,0,0-3.93,3.58c-.9,2-1.29,4.86-1.18,8.63a87.19,87.19,0,0,0,2,14.44,77.32,77.32,0,0,0,4,13.63q2.22,5.31,4.76,7.58a5.47,5.47,0,0,0,9.24-1.93Q689.77,389.07,689.64,383.38Zm114.28,12-1.49-.68a2.65,2.65,0,0,1-1.42-1.58,12.53,12.53,0,0,1-.41-3.83V358q0-9.68-5.55-15.66t-14.61-6q-5.88,0-12.92,3.62a63.69,63.69,0,0,0-12.11,8.66v-6.19a6.2,6.2,0,0,0-1.59-4.37,6,6,0,0,0-4.63-1.72,15,15,0,0,0-4.16.61c-1.42.4-3.28,1.06-5.58,2l-15,5.82a9.2,9.2,0,0,0-3.31,1.89,3.61,3.61,0,0,0-.88,2.57,3.66,3.66,0,0,0,.64,2.23,4.08,4.08,0,0,0,2.06,1.36l1.49.47a3,3,0,0,1,1.73,1.25,6.14,6.14,0,0,1,.57,3.08v31.79a12.61,12.61,0,0,1-.4,3.83,2.67,2.67,0,0,1-1.43,1.58l-1.48.68a5,5,0,0,0-2.24,1.69,4.19,4.19,0,0,0-.67,2.37,3.76,3.76,0,0,0,1.22,3,5.81,5.81,0,0,0,3.92,1.08h30q5.21,0,5.2-4.33a4.07,4.07,0,0,0-2.23-3.72l-1.35-.75a2.9,2.9,0,0,1-1.42-1.62,12.1,12.1,0,0,1-.41-3.79V356.74a13.21,13.21,0,0,1,4.27-2.52,13.8,13.8,0,0,1,4.66-.87,7.22,7.22,0,0,1,5.58,2.16c1.33,1.44,2,3.61,2,6.49v27.33a12.1,12.1,0,0,1-.41,3.79,2.9,2.9,0,0,1-1.42,1.62l-1.35.75a4.07,4.07,0,0,0-2.23,3.72c0,2.89,1.73,4.33,5.21,4.33h30a5.84,5.84,0,0,0,3.93-1.08,3.79,3.79,0,0,0,1.21-3,4.19,4.19,0,0,0-.67-2.37A5,5,0,0,0,803.92,395.42Zm72.67-16.17a7.71,7.71,0,0,1,.64,3.32,18,18,0,0,1-4.09,11.26,28.53,28.53,0,0,1-11.37,8.42,42,42,0,0,1-16.94,3.18,41.34,41.34,0,0,1-18.61-4.09,32.53,32.53,0,0,1-13.05-11.43,30.62,30.62,0,0,1-4.8-17.15,40,40,0,0,1,4.39-19.21,30.71,30.71,0,0,1,12.82-12.72q8.43-4.53,20.33-4.53,10.49,0,17.52,3.38A24,24,0,0,1,874,349a25.67,25.67,0,0,1,3.52,13.46c0,3.16-.86,5.6-2.57,7.34s-4.17,2.6-7.37,2.6H834.89a18.3,18.3,0,0,0,4.32,7.95q5.55,5.71,15.16,5.72a30.1,30.1,0,0,0,8.11-1,18.22,18.22,0,0,0,7.17-4.12,23,23,0,0,1,3-2.37,3.79,3.79,0,0,1,2-.61A2.11,2.11,0,0,1,876.59,379.25Zm-42.92-17c0,1.05,0,2.06.09,3H845.5q3.72,0,3.72-3.52,0-8.52-2-12.17c-1.31-2.44-3-3.66-5.21-3.66a6.11,6.11,0,0,0-4.26,1.76,12.14,12.14,0,0,0-3,5.38A31.84,31.84,0,0,0,833.67,362.28Z"/><polygon class="cls-3" points="354.67 308.03 347.08 294.57 339.49 308.03 326.03 315.62 339.49 323.2 347.08 336.67 354.67 323.2 368.13 315.62 354.67 308.03"/></svg>