<svg id="Layer_1" data-name="Layer 1" xmlns="http://www.w3.org/2000/svg" viewBox="0 0 1300.47 223.74"><defs><style>.cls-1{fill:#cad1e0;}.cls-2{fill:#678bff;}</style></defs><path class="cls-1" d="M155,83.33a10.63,10.63,0,0,1-6.72,3.46,13.37,13.37,0,0,1-6.77-.72q-3.39-1.23-5.61-5.67-7-14.07-13.68-21.44t-13.69-10.1a42.9,42.9,0,0,0-15.64-2.74H78.85v67.51H92.27q8.22,0,11.73-3.25t6.78-13a10.12,10.12,0,0,1,3.65-5.47,9.64,9.64,0,0,1,5.47-1.56q7.56,0,9.25,7.16l10.17,41.45c.78,3.13.7,5.56-.26,7.3a8.85,8.85,0,0,1-4.82,3.91,10,10,0,0,1-6.84.19,13.42,13.42,0,0,1-6.06-4.88,48.1,48.1,0,0,0-7.11-8.28,19,19,0,0,0-7.62-4.11,44,44,0,0,0-11.21-1.17H78.85V181a9.84,9.84,0,0,0,1.5,5.54,7.69,7.69,0,0,0,5.15,3.07l7.82,1.69q4.16.91,6,3.19c1.22,1.52,1.82,3.72,1.82,6.59a8.18,8.18,0,0,1-2.73,6.45c-1.83,1.6-4.65,2.41-8.47,2.41H11.21c-3.83,0-6.65-.81-8.47-2.41A8.16,8.16,0,0,1,0,201.09q0-7.05,6.78-9.65l5-1.82a11.67,11.67,0,0,0,5-3.33A8.16,8.16,0,0,0,18.38,181V56.42a8.2,8.2,0,0,0-1.63-5.28,11.74,11.74,0,0,0-5-3.32L6.78,46Q0,43.4,0,36.35a8.12,8.12,0,0,1,2.74-6.52q2.73-2.34,8.47-2.34h94.36a42.24,42.24,0,0,0,10.16-1q4.17-1,7.63-2a24.69,24.69,0,0,1,6.84-1q6.26,0,9.38,3.06t5.21,10.36l11.47,39.62A6.9,6.9,0,0,1,155,83.33Zm75.13,111L227.29,193a5.14,5.14,0,0,1-2.74-3.06,24.09,24.09,0,0,1-.78-7.36V24.88a11.77,11.77,0,0,0-3.13-8.41q-3.12-3.31-9.38-3.32a27.41,27.41,0,0,0-7.17,1.11q-4,1.11-11.08,3.84L164.08,29.31q-4.7,1.83-6.38,3.65a7,7,0,0,0-1.7,4.95,7.1,7.1,0,0,0,1.24,4.31,7.77,7.77,0,0,0,4,2.6l2.87.91a5.63,5.63,0,0,1,3.32,2.42c.74,1.17,1.11,3.15,1.11,5.92V182.58a24.09,24.09,0,0,1-.78,7.36A5.11,5.11,0,0,1,165,193l-2.86,1.31a9.46,9.46,0,0,0-4.3,3.26,8,8,0,0,0-1.31,4.56,7.26,7.26,0,0,0,2.35,5.73q2.34,2.08,7.56,2.09h59.43q5.2,0,7.56-2.09a7.28,7.28,0,0,0,2.34-5.73,8,8,0,0,0-1.3-4.56A9.52,9.52,0,0,0,230.16,194.31Zm84.92,0L312.21,193a5.14,5.14,0,0,1-2.74-3.06,24.09,24.09,0,0,1-.78-7.36V92.13a11.77,11.77,0,0,0-3.13-8.41q-3.12-3.31-9.38-3.32A27.41,27.41,0,0,0,289,81.51q-4,1.11-11.08,3.84L249,96.56q-4.69,1.83-6.39,3.65a8.09,8.09,0,0,0-.45,9.25,7.72,7.72,0,0,0,4,2.61L249,113a5.66,5.66,0,0,1,3.32,2.41q1.11,1.77,1.11,5.93v61.26a24.09,24.09,0,0,1-.78,7.36,5.11,5.11,0,0,1-2.74,3.06L247,194.31a9.57,9.57,0,0,0-4.3,3.26,8,8,0,0,0-1.3,4.56,7.26,7.26,0,0,0,2.35,5.73q2.34,2.08,7.56,2.09h59.43q5.21,0,7.55-2.09a7.26,7.26,0,0,0,2.35-5.73,8,8,0,0,0-1.3-4.56A9.57,9.57,0,0,0,315.08,194.31Zm172.58,0L484.79,193a5.11,5.11,0,0,1-2.74-3.06,24.09,24.09,0,0,1-.78-7.36V122.11q0-18.64-10.69-30.17T442.43,80.4q-11.34,0-24.89,7-10.28,5.3-23.33,16.69V92.13a11.94,11.94,0,0,0-3.06-8.41q-3.07-3.31-8.93-3.32a29.2,29.2,0,0,0-8,1.17q-4.09,1.19-10.75,3.78L334.52,96.56q-4.69,1.83-6.39,3.65a8.09,8.09,0,0,0-.45,9.25,7.72,7.72,0,0,0,4,2.61l2.87.91a5.66,5.66,0,0,1,3.32,2.41q1.11,1.77,1.11,5.93v61.26a24.09,24.09,0,0,1-.78,7.36,5.14,5.14,0,0,1-2.74,3.06l-2.87,1.31a9.52,9.52,0,0,0-4.3,3.26,8,8,0,0,0-1.3,4.56,7.26,7.26,0,0,0,2.35,5.73q2.34,2.08,7.55,2.09H394.6q10,0,10-8.34a7.84,7.84,0,0,0-4.31-7.17l-2.6-1.44a5.64,5.64,0,0,1-2.74-3.12,23.46,23.46,0,0,1-.78-7.3v-62.8a25.42,25.42,0,0,1,8.21-4.84,26.48,26.48,0,0,1,9-1.7c4.61,0,8.19,1.4,10.75,4.17s3.85,7,3.85,12.52v52.65a23.46,23.46,0,0,1-.78,7.3,5.68,5.68,0,0,1-2.74,3.12l-2.61,1.44a7.85,7.85,0,0,0-4.3,7.17q0,8.34,10,8.34h57.73q5.22,0,7.56-2.09a7.26,7.26,0,0,0,2.35-5.73,8.08,8.08,0,0,0-1.3-4.56A9.57,9.57,0,0,0,487.66,194.31Zm107.23-28.67a5.84,5.84,0,0,0-5,2.47,41.71,41.71,0,0,0-3.45,5.67,20.26,20.26,0,0,1-4.3,5.67q-2.67,2.48-7.63,2.48a10.54,10.54,0,0,1-9.38-5q-3.25-5-3.26-14.46V102.82h16.68q11.08,0,15.9-3.39t4.83-8.34a5.86,5.86,0,0,0-2.41-5,10.75,10.75,0,0,0-6.46-1.76H561.91V58c0-3.13-.71-5.52-2.15-7.17a7.44,7.44,0,0,0-5.93-2.48,14.55,14.55,0,0,0-7.1,2.09,38.11,38.11,0,0,0-8,6.38L517.47,78.32A32.36,32.36,0,0,1,511.93,83a8.75,8.75,0,0,1-4.62,1.3h-7.17a10.27,10.27,0,0,0-6.58,2,7.73,7.73,0,0,0-1.11,10.23,10.18,10.18,0,0,0,4.3,3l4.17,1.69a11.38,11.38,0,0,1,4.37,3c.91,1.13,1.36,3,1.36,5.47v62.69q0,20.73,11.6,31T551.1,213.6a58.55,58.55,0,0,0,25.54-5.35,44.22,44.22,0,0,0,17.59-14.4,34.13,34.13,0,0,0,6.39-20.13c0-3-.52-5-1.56-6.26A5.22,5.22,0,0,0,594.89,165.64ZM706.5,131.69q-12.64-6.72-36.89-10.76-8.21-1.43-12-3.39t-4.82-4.36a12.78,12.78,0,0,1-1-5.15,10.07,10.07,0,0,1,3.71-7.82Q659.19,97,666.88,97a42.12,42.12,0,0,1,19.35,5.15q10,5.15,19.09,18.31a21.11,21.11,0,0,0,6.39,6.32q3.12,1.77,7.17.07a7.55,7.55,0,0,0,4.75-4.89q1-3.33-.19-10l-4-22.29c-.61-3.38-1.56-5.77-2.87-7.16a6.35,6.35,0,0,0-4.82-2.09A9.42,9.42,0,0,0,706.23,82c-1.56,1.09-3.15,2.17-4.75,3.26a10.34,10.34,0,0,1-5.93,1.63,18.18,18.18,0,0,1-7.37-1.63A72.12,72.12,0,0,0,678.54,82q-5.92-1.62-16.23-1.63-15.76,0-28.08,5.34a46.29,46.29,0,0,0-19.42,15.06,37.65,37.65,0,0,0-7.1,22.87q0,12.39,4.82,21.7t16,15.64q11.14,6.31,30,9.71a101.19,101.19,0,0,1,16.36,4q5.42,2,7.17,4.5a9.89,9.89,0,0,1,1.76,5.87,10.36,10.36,0,0,1-4.37,8.73q-4.37,3.26-13.1,3.25a38.89,38.89,0,0,1-14.66-2.86,46.88,46.88,0,0,1-13.55-8.6,79.71,79.71,0,0,1-12.45-14.47q-2.87-4.31-6-5.73a9.23,9.23,0,0,0-7.3.13,7.47,7.47,0,0,0-4.95,5.53c-.61,2.66-.22,6.28,1.17,10.89L615.4,205q1.43,4.81,3.06,6.71a6.09,6.09,0,0,0,4.89,1.89,8.68,8.68,0,0,0,5.34-1.57l4.17-3.12a8.4,8.4,0,0,1,5.21-1.57,16.27,16.27,0,0,1,6.45,1.57A67.66,67.66,0,0,0,654,212a64.38,64.38,0,0,0,15.83,1.57q28.93,0,43.73-12.06t14.79-33.3a45.1,45.1,0,0,0-4.63-20.72Q719.14,138.4,706.5,131.69Zm128.18,33.95a5.83,5.83,0,0,0-4.95,2.47,39.79,39.79,0,0,0-3.45,5.67,20.26,20.26,0,0,1-4.3,5.67q-2.68,2.48-7.63,2.48a10.54,10.54,0,0,1-9.38-5q-3.26-5-3.26-14.46V102.82h16.68q11.08,0,15.9-3.39t4.82-8.34a5.84,5.84,0,0,0-2.41-5,10.74,10.74,0,0,0-6.45-1.76H801.71V58q0-4.69-2.15-7.17a7.44,7.44,0,0,0-5.93-2.48,14.52,14.52,0,0,0-7.1,2.09,38.11,38.11,0,0,0-8,6.38L757.27,78.32A32.74,32.74,0,0,1,751.73,83a8.79,8.79,0,0,1-4.63,1.3h-7.17a10.31,10.31,0,0,0-6.58,2,7.76,7.76,0,0,0-1.11,10.23,10.22,10.22,0,0,0,4.31,3l4.17,1.69a11.33,11.33,0,0,1,4.36,3c.91,1.13,1.37,3,1.37,5.47v62.69q0,20.73,11.6,31t32.84,10.23a58.59,58.59,0,0,0,25.55-5.35A44.29,44.29,0,0,0,834,193.85a34.13,34.13,0,0,0,6.39-20.13c0-3-.52-5-1.57-6.26A5.19,5.19,0,0,0,834.68,165.64Zm148.87-53.31q9.19,15.12,9.19,35.19A60.56,60.56,0,0,1,983.1,181a68.1,68.1,0,0,1-26.66,23.79q-17,8.79-39.42,8.8-22.15,0-38.71-8.54a63.42,63.42,0,0,1-25.74-23.65q-9.18-15.12-9.19-34.93A60.94,60.94,0,0,1,853,112.66a67.39,67.39,0,0,1,26.65-23.59q17-8.67,39.43-8.67,22.14,0,38.7,8.41A62.39,62.39,0,0,1,983.55,112.33Zm-45,58.78q-.25-11-3.91-27.76A150.82,150.82,0,0,0,927,117q-4.25-10.15-9.19-14.59T907.51,99.3q-5,1.17-7.56,6.91t-2.28,16.61q.32,10.89,3.84,27.83a148.09,148.09,0,0,0,7.69,26.26q4.31,10.23,9.19,14.6c3.26,2.91,6.66,4,10.23,3.19q4.95-1.17,7.56-6.91T938.52,171.11Zm220.18,23.2-2.87-1.31a5.14,5.14,0,0,1-2.74-3.06,24.09,24.09,0,0,1-.78-7.36V122.11q0-18.64-10.68-30.17T1113.47,80.4q-11.33,0-24.89,7-10.27,5.3-23.33,16.69V92.13a11.94,11.94,0,0,0-3.06-8.41q-3.06-3.31-8.93-3.32a29.13,29.13,0,0,0-8,1.17q-4.11,1.19-10.75,3.78l-28.94,11.21q-4.69,1.83-6.38,3.65a8.07,8.07,0,0,0-.46,9.25,7.72,7.72,0,0,0,4,2.61l2.87.91a5.68,5.68,0,0,1,3.33,2.41q1.1,1.77,1.1,5.93v61.26a24.09,24.09,0,0,1-.78,7.36,5.11,5.11,0,0,1-2.74,3.06l-2.86,1.31a9.46,9.46,0,0,0-4.3,3.26,8,8,0,0,0-1.31,4.56,7.29,7.29,0,0,0,2.35,5.73q2.34,2.08,7.56,2.09h57.73q10,0,10-8.34a7.83,7.83,0,0,0-4.3-7.17l-2.61-1.44a5.72,5.72,0,0,1-2.74-3.12,23.46,23.46,0,0,1-.78-7.3v-62.8a25.42,25.42,0,0,1,8.21-4.84,26.49,26.49,0,0,1,9-1.7c4.6,0,8.18,1.4,10.75,4.17s3.84,7,3.84,12.52v52.65a23.46,23.46,0,0,1-.78,7.3,5.64,5.64,0,0,1-2.74,3.12l-2.6,1.44a7.83,7.83,0,0,0-4.3,7.17q0,8.34,10,8.34h57.74q5.2,0,7.56-2.09a7.28,7.28,0,0,0,2.34-5.73,8,8,0,0,0-1.3-4.56A9.52,9.52,0,0,0,1158.7,194.31Zm140-31.15a14.92,14.92,0,0,1,1.24,6.39q0,11.59-7.89,21.7t-21.89,16.22q-14,6.12-32.65,6.13-19.93,0-35.84-7.89a62.66,62.66,0,0,1-25.16-22q-9.26-14.15-9.25-33,0-21.24,8.47-37a59.24,59.24,0,0,1,24.7-24.5q16.23-8.73,39.16-8.73,20.2,0,33.76,6.52t20.33,17.85a49.57,49.57,0,0,1,6.78,25.94q0,9.12-5,14.14t-14.2,5h-62.94a35.19,35.19,0,0,0,8.33,15.31q10.68,11,29.19,11a58.48,58.48,0,0,0,15.64-1.95,35.46,35.46,0,0,0,13.82-8,43.3,43.3,0,0,1,5.73-4.56,7.3,7.3,0,0,1,3.78-1.18A4.06,4.06,0,0,1,1298.71,163.16ZM1216,130.45c0,2,.06,4,.18,5.86h22.63q7.17,0,7.17-6.78,0-16.41-3.78-23.45t-10-7a11.78,11.78,0,0,0-8.22,3.39q-3.64,3.39-5.79,10.36T1216,130.45Z"/><polygon class="cls-2" points="293.17 25.93 278.55 0 263.93 25.93 238 40.55 263.93 55.17 278.55 81.11 293.17 55.17 319.11 40.55 293.17 25.93"/></svg>