<svg id="Layer_1" data-name="Layer 1" xmlns="http://www.w3.org/2000/svg" xmlns:xlink="http://www.w3.org/1999/xlink" viewBox="0 0 216 216"><defs><style>.cls-1,.cls-2{fill:none;}.cls-2{stroke:gray;stroke-miterlimit:10;stroke-width:6px;opacity:0.2;}.cls-3{fill:url(#linear-gradient);}.cls-4{clip-path:url(#clip-path);}.cls-5{fill:url(#linear-gradient-2);}.cls-6{fill:url(#linear-gradient-3);}.cls-7{fill:url(#linear-gradient-4);}.cls-8{fill:url(#linear-gradient-5);}.cls-9{fill:url(#linear-gradient-6);}.cls-10{fill:#4d4d4d;}.cls-11{fill:url(#linear-gradient-7);}.cls-12{fill:#fff;}.cls-13{fill:url(#linear-gradient-8);}.cls-14{clip-path:url(#clip-path-2);}.cls-15{fill:url(#linear-gradient-9);}.cls-16{fill:url(#linear-gradient-10);}</style><linearGradient id="linear-gradient" x1="39.44" y1="137.71" x2="176.56" y2="137.71" gradientUnits="userSpaceOnUse"><stop offset="0" stop-color="#ff0b75"/><stop offset="1" stop-color="#ff4e33"/></linearGradient><clipPath id="clip-path"><path class="cls-1" d="M108,204.49h0a68.55,68.55,0,0,1-68.56-68.56V118.6c0-32.26,31.54-55.44,62.15-45.24l2,.7a104.8,104.8,0,0,0,27.65,5.7A48.51,48.51,0,0,1,176.56,128v7.9A68.55,68.55,0,0,1,108,204.49Z"/></clipPath><linearGradient id="linear-gradient-2" x1="101.92" y1="194.32" x2="134.77" y2="194.32" gradientUnits="userSpaceOnUse"><stop offset="0" stop-opacity="0"/><stop offset="1" stop-opacity="0.3"/></linearGradient><linearGradient id="linear-gradient-3" x1="66.95" y1="123.77" x2="89.51" y2="123.77" xlink:href="#linear-gradient-2"/><linearGradient id="linear-gradient-4" x1="111.05" y1="97.87" x2="127.52" y2="97.87" xlink:href="#linear-gradient-2"/><linearGradient id="linear-gradient-5" x1="37.83" y1="168.52" x2="76.61" y2="168.52" xlink:href="#linear-gradient-2"/><linearGradient id="linear-gradient-6" x1="112.04" y1="144.65" x2="160.13" y2="144.65" xlink:href="#linear-gradient-2"/><linearGradient id="linear-gradient-7" x1="79.7" y1="36.97" x2="163.15" y2="36.97" gradientTransform="translate(-0.64 -0.82)" xlink:href="#linear-gradient"/><linearGradient id="linear-gradient-8" x1="186.33" y1="129.46" x2="207.4" y2="129.46" xlink:href="#linear-gradient"/><clipPath id="clip-path-2"><circle class="cls-1" cx="196.87" cy="129.46" r="10.53"/></clipPath><linearGradient id="linear-gradient-9" x1="188.73" y1="123.07" x2="194.6" y2="123.07" xlink:href="#linear-gradient-2"/><linearGradient id="linear-gradient-10" x1="198.2" y1="128.08" x2="209.78" y2="128.08" xlink:href="#linear-gradient-2"/></defs><path class="cls-2" d="M210.19,137.86c0-8.9-45.75-16.13-102.19-16.13S5.81,129,5.81,137.86"/><path class="cls-3" d="M108,204.49h0a68.55,68.55,0,0,1-68.56-68.56V118.6c0-32.26,31.54-55.44,62.15-45.24l2,.7a104.8,104.8,0,0,0,27.65,5.7A48.51,48.51,0,0,1,176.56,128v7.9A68.55,68.55,0,0,1,108,204.49Z"/><g class="cls-4"><circle class="cls-5" cx="118.34" cy="194.32" r="16.42"/><circle class="cls-6" cx="78.23" cy="123.77" r="11.28"/><circle class="cls-7" cx="119.29" cy="97.87" r="8.24"/><circle class="cls-8" cx="57.22" cy="168.52" r="19.39"/><circle class="cls-9" cx="136.08" cy="144.65" r="24.04"/></g><path class="cls-10" d="M92.78,94.28l-1.12-.72a5.76,5.76,0,0,0-6.54.25h0l-2.86-32.2L91.16,60Z"/><path class="cls-11" d="M162.51,57.05c-26.83,7.87-53.3-2.26-80.13,5.61q-1.66-23.71-3.32-47.42c26.83-7.86,53.3,2.26,80.14-5.6Q160.85,33.34,162.51,57.05Z"/><path class="cls-12" d="M98.91,23.13a10.67,10.67,0,0,1-.29,3.55A7.17,7.17,0,0,1,95,31.34a9.9,9.9,0,0,1-3.14,1c-.3,0-.59.09-.89.11a6.29,6.29,0,0,1-.86,0,6.73,6.73,0,0,1-.8-.05,6.15,6.15,0,0,1-.69-.12,2.77,2.77,0,0,1-.54-.21,1.48,1.48,0,0,1-.48-.45,1.09,1.09,0,0,1-.2-.54L87.2,28.8,87,26.49l-.16-2.32-.16-2.32a42.85,42.85,0,0,1,4.45-.92l-.46,1.28a1.48,1.48,0,0,1,.56.73,4.31,4.31,0,0,1,.17,1l.08,1,.07,1.06.07,1.06.08,1.06.15,0,.14,0,.13,0a2,2,0,0,0,1.16-.63,3.42,3.42,0,0,0,.77-1.55,7.82,7.82,0,0,0,.16-2.52v-.23c0-.17,0-.34,0-.51s0-.33-.06-.48a1.3,1.3,0,0,0-.11-.43,1.57,1.57,0,0,0-.59,0l-.68.05-.84.11a14.87,14.87,0,0,0-1.85.35c-.56.14-1,.29-1.48.44s-.79.28-1.08.4a5.26,5.26,0,0,1-.68.24.34.34,0,0,1-.36-.12,1.48,1.48,0,0,1-.24-.61,8.4,8.4,0,0,1-.14-1.14,12.07,12.07,0,0,1,0-1.32,3.11,3.11,0,0,1,.11-1,4.15,4.15,0,0,1,1.25-.49c.49-.16,1-.32,1.58-.46s1.13-.28,1.71-.4,1.12-.21,1.65-.28a6.74,6.74,0,0,1,2.6.12,4.93,4.93,0,0,1,2,1,5.06,5.06,0,0,1,1.34,1.8,6.94,6.94,0,0,1,.59,2.45Z"/><path class="cls-12" d="M106,20a5.2,5.2,0,0,1,2.41.71,5.51,5.51,0,0,1,1.81,1.72,5.08,5.08,0,0,1,.8,2.43V25a6,6,0,0,1,0,1.46c-.06.31-.15.51-.27.58a.66.66,0,0,1-.41.1c-1.51-.11-2.26-.16-3.76-.23a4.32,4.32,0,0,1-1.26-.22,2.63,2.63,0,0,1-.8-.46l-.38.15-.09-1.3c1.18,0,1.77.06,3,.12a.76.76,0,0,0,0-.21,2.25,2.25,0,0,0,0-.26,3.39,3.39,0,0,0-.1-.52,1.65,1.65,0,0,0-.19-.42l-.37-.08-.41,0a1.39,1.39,0,0,0-1.22.48,2.1,2.1,0,0,0-.34,1.47l.06.87a6.31,6.31,0,0,0,.1.76,2,2,0,0,0,.21.74,2.43,2.43,0,0,0,.79.18,6.91,6.91,0,0,0,.82.08q.92,0,1.62,0a8.32,8.32,0,0,0,1.34-.16,7.59,7.59,0,0,0,1.33-.43h.12a5,5,0,0,1,.2.72q.06.33.09.69a3,3,0,0,1-.15,1.23,1.92,1.92,0,0,1-.64.85,2.77,2.77,0,0,1-.81.38,5.06,5.06,0,0,1-1.18.2,14,14,0,0,1-1.72,0,9,9,0,0,1-2.62-.46,6.31,6.31,0,0,1-2-1.1,4.85,4.85,0,0,1-1.29-1.68,6.14,6.14,0,0,1-.55-2.2v-.2a6.18,6.18,0,0,1,.28-2.46,5.19,5.19,0,0,1,3.08-3.22A6.22,6.22,0,0,1,106,20Z"/><path class="cls-12" d="M117.08,28.66l.82.08.65,0a.79.79,0,0,0,0-.43.56.56,0,0,0-.28-.32,2.29,2.29,0,0,0-.74-.26L116,27.39a8.45,8.45,0,0,1-2.07-.77,2.86,2.86,0,0,1-1.14-1.12,4,4,0,0,1-.43-1.65,2.81,2.81,0,0,1,.25-1.48,2.3,2.3,0,0,1,1-1,4.72,4.72,0,0,1,1.72-.5,11,11,0,0,1,2.42,0,13.22,13.22,0,0,1,1.64.26,4.73,4.73,0,0,1,1,.37,2.7,2.7,0,0,1,.63.46,2.34,2.34,0,0,1,.5.69,3.87,3.87,0,0,1,.28.87c.06.34.11.76.15,1.25,0,.19,0,.39,0,.61s0,.42,0,.64l-.12,0a6,6,0,0,0-.91-.43,8.52,8.52,0,0,0-1.31-.41,13.76,13.76,0,0,0-1.81-.31,4.36,4.36,0,0,0-.78,0,.51.51,0,0,0-.33.13.3.3,0,0,0-.06.23.39.39,0,0,0,.1.22.92.92,0,0,0,.35.2,6,6,0,0,0,.71.21l1.61.37a5.31,5.31,0,0,1,1.84.74,3.12,3.12,0,0,1,1.07,1.16,4,4,0,0,1,.43,1.61,3.33,3.33,0,0,1-.33,1.78,2.41,2.41,0,0,1-1.54,1.11,8.9,8.9,0,0,1-3.31.12,18.55,18.55,0,0,1-1.9-.29,9.53,9.53,0,0,1-1.27-.35,3.87,3.87,0,0,1-.79-.39,3,3,0,0,1-.49-.39,2.52,2.52,0,0,1-.55-.91,5.2,5.2,0,0,1-.24-1.35,7,7,0,0,1,0-.9,4.94,4.94,0,0,1,.12-.77l.13,0c.35.17.68.33,1,.46a9.9,9.9,0,0,0,1,.34,10.58,10.58,0,0,0,1.1.26C116.05,28.54,116.53,28.61,117.08,28.66Z"/><path class="cls-12" d="M124.89,30.73l0-.82-.07-.89-.06-.91-.06-.92-.06-.86h-.13l0,.07s0,0-.05,0l-.06,0h-.07c-.22,0-.44-.3-.67-.83a6.33,6.33,0,0,1-.43-2,7.49,7.49,0,0,1,0-1,6.2,6.2,0,0,1,.11-.77l.26,0h.59l.28,0,.21,0a14.76,14.76,0,0,1,2.75.47,2.65,2.65,0,0,1,1.25.68,1.45,1.45,0,0,1,.35.81l.11,1.48.11,1.58.11,1.61.11,1.57c0,.46.07.9.11,1.33a10.76,10.76,0,0,0,.19,1.2,9.18,9.18,0,0,0,.29,1c-.36,0-.69.06-1,.07a8.87,8.87,0,0,1-1.09-.05,3.4,3.4,0,0,1-2.2-.84A3.12,3.12,0,0,1,124.89,30.73ZM123.08,17l.59,0h.62c.21,0,.41,0,.62,0l.57,0a6.75,6.75,0,0,1,2.24.54,1.51,1.51,0,0,1,1,1.33l.11,1.58-.59.1c-.21,0-.41.06-.62.07s-.4,0-.61,0-.39,0-.57,0a6.62,6.62,0,0,1-2.23-.56,1.54,1.54,0,0,1-1-1.34Z"/><path class="cls-12" d="M132.65,31.93a1.26,1.26,0,0,1,.13-.71,1.19,1.19,0,0,1,.51-.48,2.34,2.34,0,0,1,.83-.21l0-.44,2.18.32a.89.89,0,0,0-.14.25.48.48,0,0,0,0,.27c0,.09.07.16.2.2a2.91,2.91,0,0,0,.69.12l1.66.12a8.33,8.33,0,0,1,2.08.34,2.56,2.56,0,0,1,1.23.79,2.34,2.34,0,0,1,.48,1.33V34a2.82,2.82,0,0,1-.35,1.66,3.36,3.36,0,0,1-1.27,1.27,6.54,6.54,0,0,1-2.11.78,12.07,12.07,0,0,1-2.85.21h-.24a8.85,8.85,0,0,1-2.45-.39,4.39,4.39,0,0,1-1.67-.89,1.91,1.91,0,0,1-.66-1.26l0-.27a1.62,1.62,0,0,1,.22-1,1.6,1.6,0,0,1,.83-.58,4.5,4.5,0,0,1,1.48-.18l0-.28c.9.25,1.35.37,2.26.6a1.76,1.76,0,0,0-.34.25.46.46,0,0,0-.16.23.84.84,0,0,0,0,.29l0,.22a.7.7,0,0,0,.14.41.75.75,0,0,0,.36.25,2.49,2.49,0,0,0,.63.09h.26a7.94,7.94,0,0,0,.85,0,2.41,2.41,0,0,0,.73-.08.31.31,0,0,0,.13-.17.7.7,0,0,0,0-.27v-.17a.29.29,0,0,0-.14-.24.77.77,0,0,0-.35-.1l-2-.19a4.6,4.6,0,0,1-1.54-.42,2.93,2.93,0,0,1-1.08-.8A1.72,1.72,0,0,1,132.65,31.93Zm3.79-6.49c1.05,0,1.57.06,2.61.07l0,.55a2.19,2.19,0,0,1,1,.64,1.54,1.54,0,0,1,.41.95v.12a2.2,2.2,0,0,1-.42,1.57,2.94,2.94,0,0,1-1.45,1,6.72,6.72,0,0,1-2.38.32,9.09,9.09,0,0,1-3.15-.57,4,4,0,0,1-2.7-3.72v-.12a3.19,3.19,0,0,1,.56-2.2,3.72,3.72,0,0,1,2-1.3,9.62,9.62,0,0,1,3.21-.38c1,0,2,.06,3,.12s1.73.13,2.37.22a5.32,5.32,0,0,1,.16.7,7,7,0,0,1,.09.78,3.16,3.16,0,0,1-.15,1.42.77.77,0,0,1-.74.5,5.67,5.67,0,0,1-1-.08c-.41-.07-.94-.14-1.58-.21s-1.42-.12-2.35-.14a1.91,1.91,0,0,0-1.13.21.85.85,0,0,0-.28.83v.13a.79.79,0,0,0,.05.25.77.77,0,0,0,.13.32,1.07,1.07,0,0,0,.38.07l.42,0a1.82,1.82,0,0,0,1.08-.21.87.87,0,0,0,.26-.79v-.12a2.16,2.16,0,0,0-.06-.38,2.19,2.19,0,0,0-.12-.33A1.35,1.35,0,0,0,136.44,25.44Z"/><path class="cls-12" d="M147.94,33.34a2,2,0,0,1-.54.16,4.78,4.78,0,0,1-.57.12l-.59.08a6.4,6.4,0,0,1-1.3,0,1.9,1.9,0,0,1-.87-.26,1.29,1.29,0,0,1-.49-.59,2.46,2.46,0,0,1-.21-.94l-.11-1.51-.11-1.59L143,27.18l-.11-1.69a12.69,12.69,0,0,0-.2-1.56,7.42,7.42,0,0,0-.37-1.25,7.08,7.08,0,0,1,.7-.17l.69-.11.68-.08a4,4,0,0,1,1.57.1,1.74,1.74,0,0,1,.94.68,2.44,2.44,0,0,1,.38,1.26l.21,3,.21,3A13.92,13.92,0,0,1,147.94,33.34ZM154.5,32a10.66,10.66,0,0,1-1,.43,10,10,0,0,1-1.1.31,3.64,3.64,0,0,1-1.66,0,1.7,1.7,0,0,1-1-.69,2.59,2.59,0,0,1-.44-1.37c0-.21,0-.56,0-1s.1-1,.18-1.69.18-1.34.29-2.09a.65.65,0,0,0-.26,0l-.35,0a1.92,1.92,0,0,0-.53.17,2,2,0,0,0-.91.91,3.18,3.18,0,0,0-.26.79c-.19-1.21-.29-1.82-.48-3l.51-.07a5.31,5.31,0,0,1,.76-1.59,4.92,4.92,0,0,1,1.15-1.17,3.46,3.46,0,0,1,1.33-.61,1.39,1.39,0,0,1,1,.17,3.17,3.17,0,0,1,.93.78,4.48,4.48,0,0,1,.71,1.2,4.6,4.6,0,0,1,.34,1.43l.1,1.45.1,1.46.1,1.46a15.07,15.07,0,0,0,.19,1.54A5.71,5.71,0,0,0,154.5,32Z"/><path class="cls-12" d="M92.26,52.85a4.6,4.6,0,0,1-2.07,0,2.62,2.62,0,0,1-1.45-1,3.2,3.2,0,0,1-.62-1.79V50a4.39,4.39,0,0,1,.46-2.36,5.43,5.43,0,0,1,1.68-1.92l0-.44c.93.58,1.4.88,2.34,1.5a2.84,2.84,0,0,0-.6.6,2.31,2.31,0,0,0-.32.7,2.21,2.21,0,0,0-.08.72v.06a.76.76,0,0,0,.38.6,1.07,1.07,0,0,0,.79.15,2,2,0,0,0,.78-.29,3.4,3.4,0,0,0,.72-.59c.66.74,1,1.12,1.64,1.87l-.73.09a2.84,2.84,0,0,1-1,1.33A4.18,4.18,0,0,1,92.26,52.85Zm1-9a6.89,6.89,0,0,0,.4.64l.44.6c.15.19.31.37.47.55s.33.34.51.51.37.34.58.51a4.23,4.23,0,0,0,1.44.79,3.72,3.72,0,0,0,1.41.21,2.6,2.6,0,0,0,.51-.07,1.66,1.66,0,0,0,.37-.16h.12a7.72,7.72,0,0,1,.2.92c0,.29.08.66.11,1.12a3.24,3.24,0,0,1-.3,1.93,1.26,1.26,0,0,1-.9.64h-.21a2.64,2.64,0,0,1-.8-.08,3.83,3.83,0,0,1-1.13-.5,14.35,14.35,0,0,1-1.71-1.24c-.31-.25-.61-.51-.92-.79s-.63-.58-.94-.88-.62-.61-.92-.93-.58-.63-.85-1-.53-.66-.76-1a10.25,10.25,0,0,1-.8-1.26,5.93,5.93,0,0,1-.45-1.08,5.19,5.19,0,0,1-.19-1v-.06A3.05,3.05,0,0,1,89.11,41a4.85,4.85,0,0,1,.81-1.43,5.22,5.22,0,0,1,1.52-1.27,6.32,6.32,0,0,1,2.34-.75,9,9,0,0,1,2-.08A2.16,2.16,0,0,1,96.9,38a2.12,2.12,0,0,1,.62,1,7.76,7.76,0,0,1,.24,1.43,5.88,5.88,0,0,1,0,.84,2.33,2.33,0,0,1-.16.7h-.12a6.56,6.56,0,0,0-1.54-.33,7.94,7.94,0,0,0-1.71.07,4.22,4.22,0,0,0-1,.24,2.17,2.17,0,0,0-.68.39c0,.06,0,.11,0,.15a.4.4,0,0,0,0,.15c.05.12.09.24.14.37s.12.26.2.41Zm2.27-.79a4.74,4.74,0,0,1,.57-.15,5.24,5.24,0,0,1,.61-.09,3.94,3.94,0,0,1,1.92.23c.51.22.78.52.8.9v.14a2.4,2.4,0,0,1-.24,1.18,4.75,4.75,0,0,1-.78,1.2,4,4,0,0,1-1.17.9l.09,1.26c-.79-.79-1.18-1.18-2-1.94a8.28,8.28,0,0,0,.22-1.43,12.36,12.36,0,0,0,0-1.69v-.25Z"/><path class="cls-12" d="M106,37.46l.45-.08a3.57,3.57,0,0,1,.46,0,3.53,3.53,0,0,1,.46,0,6.73,6.73,0,0,1,1.77.27,2,2,0,0,1,1,.61,1.62,1.62,0,0,1,.37,1c.06.86.14,1.68.24,2.45s.2,1.51.33,2.19.28,1.34.44,2,.35,1.19.55,1.73a13.84,13.84,0,0,0,.68,1.56c-.44-.54-.65-.81-1.09-1.34l1.37.11-1.09,1.2a19.21,19.21,0,0,0,.54-2,15.81,15.81,0,0,0,.31-2.16,24.74,24.74,0,0,0,.07-2.5c0-.91-.06-1.93-.14-3.06l.9.08a6.68,6.68,0,0,1,2.49.59,1.57,1.57,0,0,1,.75,1.33c0,.59.11,1.17.19,1.74s.18,1.14.29,1.7.25,1.12.4,1.67.33,1.1.52,1.65.42,1.11.66,1.67l-1.1-1.42,1.4.14-1.14,1.15a13.88,13.88,0,0,0,.5-1.54,12,12,0,0,0,.32-1.74q.12-.94.15-2.1c0-.76,0-1.62,0-2.57s-.38-2.93-.18-3.18c0-.06.4,0,.59,0H120l.58,0a5.55,5.55,0,0,1,1.5.34,2.09,2.09,0,0,1,.9.64,1.72,1.72,0,0,1,.34,1c.07,1,.11,2,.12,2.84s0,1.71-.08,2.48a14.9,14.9,0,0,1-.32,2.13,10.83,10.83,0,0,1-.58,1.85,8.57,8.57,0,0,1-.88,1.6,10.22,10.22,0,0,1-1.18,1.39l-.28.05-.33,0h-.36l-.35,0a2.73,2.73,0,0,1-.85-.22,2,2,0,0,1-.64-.41,4.6,4.6,0,0,1-.59-.82,11,11,0,0,1-.64-1.21c-.21-.48-.45-1-.71-1.69s-.53-1.4-.83-2.24l1.05,1.36-1.11-.1.67-1.2c-.13.64-.27,1.23-.41,1.76s-.27,1-.41,1.43a10.5,10.5,0,0,1-.44,1.12,6.43,6.43,0,0,1-.49.84,4.84,4.84,0,0,1-.55.62,1.58,1.58,0,0,1-.28.08l-.32,0h-.33a7.8,7.8,0,0,1-1-.16,1.65,1.65,0,0,1-.82-.42,11.61,11.61,0,0,1-1.4-1.66,12.39,12.39,0,0,1-1.09-2,16.46,16.46,0,0,1-.84-2.49q-.34-1.39-.6-3.15c-.17-1.17-.32-2.5-.43-4l0-.43Z"/><path class="cls-12" d="M130.57,42.38a5.58,5.58,0,0,1,2.41.75,5.43,5.43,0,0,1,1.81,1.69,4.9,4.9,0,0,1,.8,2.41v.06a6,6,0,0,1,0,1.46.9.9,0,0,1-.27.59.68.68,0,0,1-.41.12c-1.5-.08-2.26-.13-3.76-.25a4.08,4.08,0,0,1-1.26-.27,2.61,2.61,0,0,1-.81-.5l-.38.12-.09-1.29c1.19.11,1.78.16,3,.24a1.12,1.12,0,0,0,0-.21,2.36,2.36,0,0,0,0-.25,2.39,2.39,0,0,0-.1-.52,1.91,1.91,0,0,0-.19-.43l-.37-.08a2.52,2.52,0,0,0-.41-.06,1.38,1.38,0,0,0-1.23.42,2,2,0,0,0-.33,1.44l.06.87c0,.26,0,.52.09.77a2.09,2.09,0,0,0,.22.75,2.52,2.52,0,0,0,.79.22c.26,0,.53.09.82.12.61.05,1.15.06,1.62.06a6.47,6.47,0,0,0,1.34-.16,7.73,7.73,0,0,0,1.33-.45h.13c.08.26.14.5.19.72a6.81,6.81,0,0,1,.09.69,3,3,0,0,1-.15,1.23,1.93,1.93,0,0,1-.64.87,3.06,3.06,0,0,1-.81.4,5.1,5.1,0,0,1-1.18.19,12.87,12.87,0,0,1-1.72,0,8.68,8.68,0,0,1-2.63-.61,6.59,6.59,0,0,1-2-1.27,5.53,5.53,0,0,1-1.3-1.81,6.41,6.41,0,0,1-.55-2.25l0-.2a6,6,0,0,1,.29-2.4,4.56,4.56,0,0,1,1.18-1.81,4.74,4.74,0,0,1,1.92-1.1A6.89,6.89,0,0,1,130.57,42.38Z"/><path class="cls-12" d="M141.12,54.18l-.4.07a3.42,3.42,0,0,1-.45,0h-.46a2.92,2.92,0,0,1-1.14-.24,2.23,2.23,0,0,1-1-.89,4,4,0,0,1-.49-1.86l-.1-1.41-.16-2.24c-.06-.86-.12-1.79-.19-2.77l-.21-3c0-.53-.1-1-.17-1.53a6.22,6.22,0,0,0-.39-1.42l.33-.07.38-.06.4,0h.35a5.38,5.38,0,0,1,2,.35,2.4,2.4,0,0,1,1.2,1.09,5.07,5.07,0,0,1,.51,2.08l.15,2.14c.06.79.11,1.58.17,2.37l.16,2.3.13,1.93c0,.26,0,.51,0,.74s0,.47-.06.68a3.77,3.77,0,0,1-.13.62,4.76,4.76,0,0,1-.19.57A5.48,5.48,0,0,1,141.12,54.18Zm.06-1.77-.13-1.9a1.92,1.92,0,0,0,.59.22,3,3,0,0,0,.81.07.73.73,0,0,0,.47-.17,1.16,1.16,0,0,0,.3-.68,6.55,6.55,0,0,0,0-1.6v-.14c0-.25,0-.49-.07-.71a5.36,5.36,0,0,0-.1-.6.9.9,0,0,0-.22,0h-.27a1.21,1.21,0,0,0-.57.21,2.17,2.17,0,0,0-.57.62,4.71,4.71,0,0,0-.51,1.12l-.25-3.5.79,0a7,7,0,0,1,.76-1.33,3.7,3.7,0,0,1,1-.92,2.65,2.65,0,0,1,1.21-.38,2.53,2.53,0,0,1,1.24.22,3,3,0,0,1,1,.77,4,4,0,0,1,.73,1.22,4.63,4.63,0,0,1,.34,1.51l0,.16a22,22,0,0,1,0,3.65,7.57,7.57,0,0,1-.56,2.35,2.69,2.69,0,0,1-2.42,1.73,2.57,2.57,0,0,1-1.24-.23,3.56,3.56,0,0,1-1-.71,4.52,4.52,0,0,1-.7-.91Z"/><path class="cls-2" d="M210.19,137.86c0,8.91-45.75,16.13-102.19,16.13S5.81,146.77,5.81,137.86"/><circle class="cls-13" cx="196.87" cy="129.46" r="10.53"/><g class="cls-14"><circle class="cls-15" cx="191.67" cy="123.07" r="2.94"/><circle class="cls-16" cx="203.99" cy="128.08" r="5.79"/></g></svg>