<?xml version="1.0" encoding="utf-8"?>
<!-- Generator: Adobe Illustrator 24.3.0, SVG Export Plug-In . SVG Version: 6.00 Build 0)  -->
<svg version="1.1" id="Layer_1" xmlns="http://www.w3.org/2000/svg" xmlns:xlink="http://www.w3.org/1999/xlink" x="0px" y="0px"
	 viewBox="0 0 216 144" style="enable-background:new 0 0 216 144;" xml:space="preserve">
<style type="text/css">
	.st0{fill:#FFFFFF;}
	.st1{fill:#66EDFF;}
	.st2{fill:#5794FF;}
	.st3{fill:#8D00F2;}
	.st4{fill:#303854;}
</style>
<rect class="st0" width="216" height="144"/>
<g>
	<g>
		<polygon class="st1" points="28.2,86 30.2,88 30.2,86 175.8,86 175.8,46 28.2,46 		"/>
		<polygon class="st1" points="175.8,46 175.8,48 177.8,48 		"/>
	</g>
	<polygon class="st1" points="185.8,56 185.8,58 40.2,58 40.2,96 38.2,96 40.2,98 187.8,98 187.8,58 187.8,58 	"/>
	<g>
		<polygon class="st2" points="177.8,48 30.2,48 30.2,88 32.2,90 32.2,88 177.8,88 177.8,50 179.8,50 		"/>
		<polygon class="st2" points="183.8,54 183.8,56 38.2,56 38.2,94 36.2,94 38.2,96 185.8,96 185.8,56 		"/>
	</g>
	<g>
		<polygon class="st3" points="179.8,50 32.2,50 32.2,90 34.2,92 34.2,90 179.8,90 179.8,52 181.8,52 		"/>
		<polygon class="st3" points="181.8,52 181.8,54 36.2,54 36.2,92 34.2,92 36.2,94 183.8,94 183.8,54 		"/>
	</g>
	<rect x="34.2" y="52" class="st0" width="147.6" height="40"/>
</g>
<path class="st4" d="M67.5,63.1h7.4l-7.4,18.8h-6L59,74l-2.6,7.9h-6L43,63.1h7.4l3.4,9.7l2.8-8.4h4.9l2.8,8.5L67.5,63.1z
	 M106.9,81.9h-7.4L96.2,76h-3v5.9h-6.6V63.1h10.7c4.5,0,8.8,0.9,8.8,6.3c0,3.1-1.3,4.8-3.4,5.7L106.9,81.9z M93.2,67.9v3.2H97
	c0.8,0,2.4,0.1,2.4-1.7s-1.6-1.5-2.4-1.5H93.2z M118.8,81.9V63.1h10.5c6.6,0,10.5,3.4,10.5,9.5s-3.8,9.2-10.6,9.2H118.8z
	 M125.6,76.4h2.4c1,0,5.1,0.5,5.1-4c0-4-3.3-3.9-4.6-3.9h-2.9L125.6,76.4z M151.1,76.1l6.4-1.3c0.7,2.2,3.2,2.9,4.9,2.9
	c1.2,0,2.5-0.2,2.5-1.1c0-0.7-0.2-1.1-3.9-1.6c-6.2-0.9-8.6-2.9-8.6-6.2c0-4.2,4.1-6.2,8.7-6.2c3.6-0.1,7,1.1,9.7,3.5l-4.4,3.5
	c-1.4-1.5-3.3-2.3-5.3-2.4c-1.2,0-1.8,0.3-1.8,0.8s0.6,1,3.4,1.4c3.7,0.5,9.1,1.4,9.1,6.4c0,4-2.6,6.7-9,6.7
	C155.8,82.4,152.2,79.8,151.1,76.1z"/>
</svg>
