<svg id="Layer_1" data-name="Layer 1" xmlns="http://www.w3.org/2000/svg" viewBox="0 0 216 144"><defs><style>.cls-1{fill:#828ea0;}.cls-2{fill:#a2abbc;}.cls-3{fill:#c3c9db;}.cls-4{fill:#fff;}.cls-5{fill:#ff1f55;isolation:isolate;}</style></defs><rect class="cls-1" x="40.22" y="57.99" width="147.56" height="40.03"/><rect class="cls-2" x="38.22" y="55.99" width="147.56" height="40.03"/><rect class="cls-1" x="28.21" y="45.98" width="147.56" height="40.03"/><rect class="cls-2" x="30.22" y="47.98" width="147.56" height="40.03"/><rect class="cls-3" x="32.22" y="49.98" width="147.56" height="40.03"/><rect class="cls-3" x="36.22" y="53.99" width="147.56" height="40.03"/><rect class="cls-4" x="34.22" y="51.99" width="147.56" height="40.03"/><path class="cls-5" d="M67.52,63.08h7.41L67.57,81.86h-6L59,74l-2.64,7.9h-6L43,63.08h7.36l3.39,9.65,2.75-8.44h4.91l2.8,8.46Zm39.35,18.78H99.43L96.17,76h-3v5.87H86.58V63.08H97.25c4.53,0,8.79.86,8.79,6.33,0,3.13-1.35,4.82-3.37,5.71ZM93.21,67.93v3.18H97c.75,0,2.37.08,2.37-1.65S97.74,67.93,97,67.93Zm25.61,13.93V63.08h10.51c6.6,0,10.53,3.45,10.53,9.54s-3.77,9.24-10.61,9.24Zm6.73-5.44H128c1,0,5.15.51,5.15-4,0-4-3.34-3.91-4.64-3.91h-2.91Zm25.56-.3,6.36-1.35c.72,2.19,3.23,2.86,4.85,2.86,1.18,0,2.48-.22,2.48-1.13,0-.7-.22-1.08-3.86-1.62-6.2-.92-8.57-2.86-8.57-6.17,0-4.23,4.15-6.22,8.71-6.22A13.65,13.65,0,0,1,170.75,66l-4.45,3.53A7.63,7.63,0,0,0,161,67.15c-1.19,0-1.83.27-1.83.81s.64,1,3.37,1.42c3.66.54,9.05,1.38,9.05,6.36,0,4-2.59,6.71-9,6.71C155.82,82.45,152.21,79.79,151.11,76.12Z"/><polygon class="cls-1" points="30.22 88.01 28.21 86.01 30.22 86.01 30.22 88.01"/><polygon class="cls-2" points="32.22 90.01 30.22 88.01 32.22 88.01 32.22 90.01"/><polygon class="cls-3" points="34.22 92.01 32.22 90.01 34.22 90.01 34.22 92.01"/><polygon class="cls-2" points="38.22 96.02 36.22 94.02 38.22 94.02 38.22 96.02"/><polygon class="cls-3" points="36.22 94.02 34.22 92.01 36.22 92.01 36.22 94.02"/><polygon class="cls-1" points="40.22 98.02 38.22 96.02 40.22 96.02 40.22 98.02"/><polygon class="cls-1" points="175.78 45.98 175.78 47.98 177.78 47.98 175.78 45.98"/><polygon class="cls-2" points="177.78 47.98 177.78 49.98 179.78 49.98 177.78 47.98"/><polygon class="cls-3" points="179.78 49.98 179.78 51.99 181.78 51.99 179.78 49.98"/><polygon class="cls-2" points="183.78 53.99 183.78 55.99 185.78 55.99 183.78 53.99"/><polygon class="cls-3" points="181.78 51.99 181.78 53.99 183.78 53.99 181.78 51.99"/><polygon class="cls-1" points="185.78 55.99 185.78 57.99 187.79 57.99 185.78 55.99"/></svg>