<svg id="Layer_1" data-name="Layer 1" xmlns="http://www.w3.org/2000/svg" viewBox="0 0 143.62 37.91"><defs><style>.cls-1{fill:#a3bed3;}</style></defs><title>logo-squiggle</title><path class="cls-1" d="M.14,19.51a32.07,32.07,0,0,1,5-.59,16.63,16.63,0,0,1,5.33.53A6.87,6.87,0,0,1,13.36,21a5.06,5.06,0,0,1,1.53,3.37,11.15,11.15,0,0,1-.3,2.81,11.75,11.75,0,0,0-.25,2,1.62,1.62,0,0,0,.3,1,2.36,2.36,0,0,0,1.1.65c.13.05.28.08.43.13l.53.12,1.08.21c.74.13,1.5.23,2.27.34a49.45,49.45,0,0,1,9.68,1.95l-1.55,4a39,39,0,0,0-8.73-2.08c-.79-.14-1.58-.28-2.39-.45-.41-.08-.82-.18-1.23-.28l-.62-.16a6.89,6.89,0,0,1-.7-.21,6.12,6.12,0,0,1-2.82-1.86,5.44,5.44,0,0,1-1.14-3.35,13.5,13.5,0,0,1,.26-2.72A8.93,8.93,0,0,0,11,24.68a1.2,1.2,0,0,0-.38-.83,3.32,3.32,0,0,0-1.27-.62C7,22.61,3.78,22.94,1,23.5Z"/></svg>