<svg xmlns="http://www.w3.org/2000/svg" viewBox="0 0 135.94 40.63">
    <defs>
        <style>.cls-1{fill:#f0f0f0}</style>
    </defs>
    <title>squiggle</title>
    <g id="Layer_2" data-name="Layer 2">
        <g id="Layer_1-2" data-name="Layer 1">
            <path class="cls-1" d="M0,25.85c1.29-1.37,2.45-2.5,3.69-3.7s2.48-2.34,3.75-3.47c2.54-2.27,5.17-4.46,7.92-6.54a88.26,88.26,0,0,1,8.7-5.88,52.92,52.92,0,0,1,10-4.67A33,33,0,0,1,40,.21a23.71,23.71,0,0,1,6.67.05,19.16,19.16,0,0,1,6.77,2.47,19.85,19.85,0,0,1,5.25,4.64,29.08,29.08,0,0,1,3.25,5.22c.82,1.63,1.51,3.17,2.17,4.63a45.82,45.82,0,0,0,4,7.54,10.7,10.7,0,0,0,2.17,2.36,6.53,6.53,0,0,0,2.25,1.16,11.51,11.51,0,0,0,6.27-.4c.61-.15,1.24-.4,1.88-.61l2.12-.86c1.41-.59,2.83-1.2,4.25-1.86,2.84-1.3,5.7-2.73,8.57-4.17,11.52-5.77,23.36-12.27,37-16l3.28,13.33a102.32,102.32,0,0,0-17.37,5.79c-5.79,2.44-11.57,5.24-17.47,8.08-3,1.41-5.95,2.83-9.06,4.17-1.54.68-3.12,1.33-4.72,2l-2.43.92c-.89.3-1.79.64-2.75.9a27.43,27.43,0,0,1-6.09,1.09,20.48,20.48,0,0,1-6.86-.71,18.83,18.83,0,0,1-6.36-3.27,24.16,24.16,0,0,1-4.49-4.72A55.44,55.44,0,0,1,53,22.35c-1.39-3-2.7-5.78-3.93-7.21a6.65,6.65,0,0,0-4.36-2.58,14.75,14.75,0,0,0-6.64.94,40.49,40.49,0,0,0-7.56,3.65,78.35,78.35,0,0,0-7.39,5.13c-2.41,1.87-4.77,3.87-7,6-1.14,1-2.27,2.11-3.37,3.19s-2.23,2.23-3.16,3.24Z" />
        </g>
    </g>
</svg>