<?xml version="1.0" encoding="utf-8"?>
<!-- Generator: Adobe Illustrator 23.0.3, SVG Export Plug-In . SVG Version: 6.00 Build 0)  -->
<svg version="1.1" id="Layer_1" xmlns="http://www.w3.org/2000/svg" xmlns:xlink="http://www.w3.org/1999/xlink" x="0px" y="0px"
	 viewBox="0 0 135.9 40.6" style="enable-background:new 0 0 135.9 40.6;" xml:space="preserve">
<style type="text/css">
	.st0{fill:#39434D;}
</style>
<title>squiggle</title>
<g>
	<g id="Layer_1-2">
		<path class="st0" d="M0,25.9c1.3-1.4,2.5-2.5,3.7-3.7s2.5-2.3,3.8-3.5c2.5-2.3,5.2-4.5,7.9-6.5C18.1,10,21,8,24.1,6.3
			c3.2-1.9,6.5-3.5,10-4.7C36,0.9,38,0.5,40,0.2c2.2-0.3,4.5-0.3,6.7,0c2.4,0.4,4.7,1.2,6.8,2.5c2,1.2,3.8,2.8,5.3,4.6
			C60,9,61,10.7,61.9,12.6c0.8,1.6,1.5,3.2,2.2,4.6c1.1,2.6,2.4,5.2,4,7.5c0.6,0.9,1.3,1.7,2.2,2.4c0.7,0.5,1.4,0.9,2.3,1.2
			c2.1,0.5,4.3,0.3,6.3-0.4c0.6-0.1,1.2-0.4,1.9-0.6l2.1-0.9c1.4-0.6,2.8-1.2,4.3-1.9c2.8-1.3,5.7-2.7,8.6-4.2
			c11.5-5.8,23.4-12.3,37-16l3.3,13.3c-6,1.4-11.8,3.3-17.4,5.8c-5.8,2.4-11.6,5.2-17.5,8.1c-3,1.4-5.9,2.8-9.1,4.2
			c-1.5,0.7-3.1,1.3-4.7,2l-2.4,0.9c-0.9,0.3-1.8,0.6-2.8,0.9c-2,0.6-4,1-6.1,1.1c-2.3,0.2-4.6-0.1-6.9-0.7
			c-2.3-0.7-4.5-1.8-6.4-3.3c-1.7-1.4-3.2-3-4.5-4.7c-2.1-3-3.9-6.2-5.3-9.6c-1.4-3-2.7-5.8-3.9-7.2c-1.1-1.4-2.6-2.3-4.4-2.6
			c-2.3-0.2-4.5,0.1-6.6,0.9c-2.6,1-5.2,2.2-7.6,3.6c-2.6,1.6-5,3.3-7.4,5.1c-2.4,1.9-4.8,3.9-7,6c-1.1,1-2.3,2.1-3.4,3.2
			s-2.2,2.2-3.2,3.2L0,25.9z"/>
	</g>
</g>
</svg>
