<svg id="Layer_1" data-name="Layer 1" 
    xmlns="http://www.w3.org/2000/svg" viewBox="0 0 10.99 2.59">
    <defs>
        <style>.cls-1{fill:#b3ad7c;}</style>
    </defs>
    <title>squiggle-pattern copy</title>
    <path class="cls-1" d="M-3.81,2.48a2.4,2.4,0,0,1-2.26-1L-5.22,1c.6,1,3.06.38,5.22-.17C2.53.16,4.91-.45,5.77,1c.6,1,3.06.38,5.22-.17C13.51.16,15.9-.45,16.76,1c.6,1,3,.38,5.22-.17C24.5.16,26.89-.45,27.74,1l-.85.52c-.48-.78-2.7-.21-4.67.28-2.62.66-5.33,1.35-6.32-.28-.47-.78-2.7-.21-4.67.28-2.62.66-5.33,1.35-6.32-.28C4.44.7,2.21,1.27.25,1.76A18.14,18.14,0,0,1-3.81,2.48Z" />
</svg>