<svg viewBox="0 0 324 124">
    <path fill="#a4b0b8" d="M.17,53.35,2.8,51.22,5.24,49.3c1.63-1.25,3.25-2.48,4.88-3.69,3.26-2.44,6.55-4.8,9.88-7.12,6.69-4.59,13.54-9,20.61-13.23A244.2,244.2,0,0,1,62.86,13.55a155.76,155.76,0,0,1,25-9.27,102.35,102.35,0,0,1,14.41-2.77,74.93,74.93,0,0,1,16.33-.17,58.42,58.42,0,0,1,17.93,4.73,53,53,0,0,1,16.12,11.24,60.11,60.11,0,0,1,10.55,14.8c.63,1.27,1.23,2.53,1.77,3.78s1,2.29,1.41,3.4c.85,2.17,1.58,4.24,2.27,6.23,2.66,7.92,4.65,14.73,6.92,20.26a48.91,48.91,0,0,0,3.4,7,17.67,17.67,0,0,0,3.1,3.95,8,8,0,0,0,2.62,1.61,12.77,12.77,0,0,0,4.38.66,34.57,34.57,0,0,0,6.81-.68c1.34-.27,2.54-.51,4.08-1l4.94-1.41c6.59-2,13.22-4.32,20-6.88s13.73-5.37,20.86-8.23S260.33,55,268,52.32s15.62-5.19,23.63-7.37,16.37-3.9,24.69-5.45l6.52,49.67a198.82,198.82,0,0,0-40.13,7.91c-6.79,2-13.64,4.28-20.71,6.75s-14.29,5.12-21.76,7.68-15.32,5-23.36,7.11l-6.07,1.51c-2.13.53-4.61,1.07-7,1.49a75.78,75.78,0,0,1-15.84,1.25A58.38,58.38,0,0,1,170,119.6a51.82,51.82,0,0,1-16.87-9.86A62.37,62.37,0,0,1,141.7,96.3,91.44,91.44,0,0,1,134.77,83c-3.61-8.46-6-16.22-8.3-22.61-.59-1.59-1.16-3.08-1.71-4.44-.27-.64-.57-1.34-.8-1.84s-.45-.92-.67-1.35a14.62,14.62,0,0,0-2.64-3.64,7.74,7.74,0,0,0-2.48-1.63,13.9,13.9,0,0,0-4-.87,42.81,42.81,0,0,0-14.26,1.92,112.07,112.07,0,0,0-17.45,6.81A198.07,198.07,0,0,0,64.59,65.2c-5.91,3.62-11.75,7.56-17.46,11.69Q42.84,80,38.65,83.24L34.54,86.5,32.6,88.09l-1.78,1.49Z"/>
</svg>