<?xml version="1.0" encoding="UTF-8"?>
<svg id="Layer_2" data-name="Layer 2"
  xmlns="http://www.w3.org/2000/svg" viewBox="0 0 149.83 151.34">
  <g id="Layer_1-2" data-name="Layer 1">
    <path d="M100.98,123.03c-.17,.18-.31,.39-.4,.61-.04,.06-.08,.13-.13,.19-1.25,1.37,.37,3.43,1.98,2.57,.34,0,.68-.09,1-.27,13.86-8.06,23.58-21.54,27.08-36.84,2.76-4.03,2.95-9.21,1.41-14.41-.81-27.75-21.42-50.93-48.84-54.95-.36-.3-.73-.58-1.12-.85-5.16-3.44-11.45-2.66-15.88,.89-27.38,4.12-47.93,27.4-48.64,55.15-1.44,5.03-1.23,10.01,1.35,13.93,5.18,23.24,24.51,41.19,48.45,44.31,4.9,1.58,10.38,.98,14.87-1.37,.82-.43,1.22-1.42,.9-2.32-.35-.99-1.44-1.5-2.43-1.15-5.03,1.81-10.99,1.23-15.03-2.33-8.25-6.64-5.76-21.17,4.22-24.62,4.26-1.53,9.49-1.44,12.86,1.69-3.74,2.1-7.45,5.46-7.18,10.13,.39,3.43,3.72,6.54,7.27,5.79,4.04-.93,6.45-4.73,7.42-8.47,.27-1.04,.39-2.11,.37-3.18,1.1-.05,2.19-.02,3.22,.11,2.42,.29,4.73,1.27,6.17,2.73,3.01,2.92,3.26,8.92,1.08,12.67Zm-37.85-58.25c1.45,3.44,3.32,6.69,5.52,9.71-1.51,1.53-3.11,2.97-4.8,4.3-9,6.95-20.64,12.45-32.27,11.05-14.71-2.01-9.13-16.7-1.45-23.92,7.96-7.22,18.61-10.96,29.46-12.71,.83,4,2.05,7.91,3.54,11.57Zm4.4-12.51c2.38-.19,4.75-.31,7.07-.36,2.41,.05,4.88,.18,7.36,.39-1.63,5.23-4.06,10.21-7.16,14.73-3.14-4.53-5.6-9.51-7.27-14.77Zm22.12,.96c10.84,1.75,21.48,5.48,29.45,12.64,7.64,7.09,13.37,21.82-1.2,23.84-11.58,1.41-23.16-4.13-32.13-11.02-1.8-1.41-3.49-2.94-5.09-4.56,4.42-6.22,7.46-13.41,8.97-20.91Zm36.93,11.32c-.87-1.16-1.81-2.28-2.81-3.33-8.91-8.99-20.72-14.16-33.06-16.59,.09-2.18,.06-4.37-.11-6.55-.39-4.39-1.33-9.27-3.61-13.32,19.8,4.67,35.08,20.26,39.59,39.79Zm-42.25-26.23c-.05,1.76-.21,3.51-.45,5.24-3.1-.36-6.22-.58-9.3-.65-3,.07-6.03,.28-9.06,.63-.24-1.69-.41-3.38-.49-5.09-.12-6.64,1.49-16.23,9.5-16.51,8.03,.15,9.84,9.7,9.79,16.37Zm-22.18-13.51s-.01,.02-.02,.03c-3,6.15-4.03,12.98-3.68,19.81-12.34,2.46-24.12,7.67-32.97,16.71-.97,1.03-1.88,2.13-2.72,3.27,4.48-19.49,19.68-35.08,39.39-39.82Zm19.75,90.39c-.85,.18-1.36-.26-1.89-1-1.18-1.92,.85-3.53,2.53-4.55,.85-.48,1.78-.87,2.73-1.18,.26,2.78-.81,5.7-3.38,6.74Zm6.85-14.2c-.74-1.33-1.69-2.54-2.82-3.55-7.93-7.48-21.46-4.16-27.66,3.93-6.01,7.88-5.67,18.8,.11,25.93-15.95-5.14-28.64-17.61-34.08-33.43,1.73,.9,3.77,1.62,6.16,2.11,13.7,2.36,27.63-2.23,38.7-10.22,1.92-1.36,3.71-2.87,5.39-4.48,1.77,1.72,3.66,3.31,5.64,4.76,11.14,7.98,25.16,12.52,38.89,10.02,2.29-.49,4.24-1.2,5.91-2.06-3.35,9.63-9.41,18.2-17.53,24.56,.12-.53,.22-1.07,.3-1.61,1.42-11.48-9.14-17.74-19.01-15.96ZM.53,59.28l-.53-.15,1.03-3.53,.49,.14c.01,.17,.02,.35,.02,.53,0,.18,0,.36-.01,.54l2.32,.68,.9-3.06-2.29-.73-.6,1.02-.53-.15,1.03-3.53,.49,.14c.01,.17,.02,.35,.02,.54,0,.19,0,.39-.03,.59l5.57,1.63,.53-.98,.54,.16-1.03,3.53-.46-.14c-.02-.19-.03-.37-.04-.55,0-.18,0-.35,.02-.51l-2.33-.74-.89,3.04,2.35,.69,.51-.92,.54,.16-1.03,3.53-.47-.14c-.01-.19-.02-.38-.02-.56,0-.19,0-.37,.03-.55l-5.51-1.75-.61,1.07Zm9.45-16.18c.67,.39,1.31,.6,1.93,.65,.62,.04,1.19-.08,1.71-.37,.52-.29,.96-.74,1.31-1.34,.37-.64,.55-1.28,.54-1.92s-.2-1.23-.56-1.79-.89-1.03-1.58-1.43c-.65-.38-1.28-.58-1.9-.62-.62-.04-1.19,.09-1.71,.4-.52,.3-.96,.76-1.32,1.37-.35,.6-.51,1.21-.5,1.84s.2,1.23,.55,1.79c.35,.56,.86,1.04,1.54,1.43Zm-1.05-3.62c.06-.31,.16-.59,.3-.84,.21-.36,.49-.62,.82-.77,.34-.15,.73-.19,1.16-.11,.44,.08,.91,.26,1.42,.56,.53,.31,.93,.64,1.23,.99,.29,.35,.46,.71,.52,1.08,.05,.37-.02,.72-.22,1.07-.2,.34-.47,.58-.81,.73s-.73,.17-1.17,.09c-.44-.08-.92-.27-1.42-.56-.76-.44-1.37-1.03-1.86-1.74,0-.17,0-.34,.03-.5Zm8.07-12.54l-.4-.38,2.56-2.66,.36,.35c-.05,.15-.11,.29-.19,.44-.08,.15-.18,.32-.3,.51l3.11,2.99c.33,.32,.68,.45,1.05,.42,.37-.04,.75-.25,1.12-.65,.25-.26,.43-.54,.54-.81,.1-.28,.14-.57,.1-.87l-3.55-3.52-.98,.6-.4-.38,2.27-2.37,.36,.35c-.06,.16-.14,.33-.22,.5-.08,.17-.19,.34-.31,.5l2.97,2.85c.6,.58,.89,1.22,.85,1.91-.04,.7-.39,1.39-1.05,2.08-.66,.69-1.33,1.07-2.01,1.15-.68,.08-1.3-.15-1.87-.7l-2.98-2.99-1.04,.67Zm14.88-11.49c-.23-.36-.32-.74-.26-1.14,.05-.4,.24-.8,.55-1.2s.75-.78,1.3-1.14c.3-.2,.62-.37,.95-.53s.67-.29,1.01-.4l1.16,1.9-.54,.35-1.07-.86c-.13,.05-.26,.09-.38,.15-.35,.16-.69,.35-1.02,.56-.18,.12-.36,.25-.54,.38-.04,.03-.08,.07-.12,.1-.04,.12-.07,.24-.07,.36,0,.17,.04,.32,.12,.45,.12,.18,.31,.29,.57,.33,.26,.04,.57,.03,.91-.02s.71-.1,1.1-.16,.77-.09,1.14-.1c.38,0,.72,.05,1.04,.16,.31,.12,.57,.33,.78,.64,.24,.37,.33,.76,.26,1.18-.07,.42-.26,.84-.59,1.26-.33,.42-.77,.81-1.33,1.17-.33,.22-.69,.41-1.06,.58-.38,.17-.77,.31-1.18,.43l-1.19-1.94,.54-.35,1.15,.91c.19-.07,.38-.14,.56-.22,.34-.16,.68-.34,1-.55,.2-.13,.39-.26,.57-.4,.08-.06,.15-.13,.23-.19,.01-.04,.03-.07,.04-.11,.02-.12,.03-.25,.02-.39,0-.13-.04-.25-.1-.34-.12-.18-.3-.28-.57-.31-.26-.03-.56-.01-.91,.04-.34,.05-.71,.11-1.09,.17-.38,.06-.77,.09-1.15,.09-.38,0-.73-.06-1.04-.18-.32-.12-.58-.35-.79-.67Zm13.57-9.1l-.19-.52,6.19-2.24,.8,2.22-.55,.2-.91-1.18-2.71,.98,.76,2.1,1.55-.56,.03-.98,.49-.18,.94,2.6-.49,.18-.67-.74-1.54,.56,.81,2.24,2.8-1.01-.11-1.7,.54-.19,.87,2.42-6.28,2.27-.17-.47c.15-.12,.3-.24,.45-.36s.31-.21,.47-.3l-1.84-5.48-1.25,.15Zm29.69,.79c.5,.32,1.1,.49,1.8,.52,.74,.02,1.39-.12,1.95-.43,.56-.31,.99-.76,1.31-1.34,.31-.58,.48-1.28,.51-2.07,.03-.75-.09-1.4-.35-1.97-.26-.56-.65-1-1.16-1.32S78.06,.03,77.36,0c-.69-.02-1.31,.12-1.86,.43-.55,.31-.99,.76-1.32,1.33-.33,.58-.5,1.25-.53,2.03-.03,.77,.09,1.44,.34,2,.26,.57,.64,1.01,1.14,1.33Zm.75-5.77c.15-.09,.3-.16,.46-.21,.3-.1,.59-.14,.88-.13,.42,.01,.77,.13,1.07,.36,.29,.23,.51,.55,.65,.97,.14,.42,.2,.93,.18,1.52-.02,.61-.12,1.12-.29,1.55s-.41,.75-.71,.97c-.3,.22-.65,.33-1.05,.31-.4-.01-.74-.14-1.02-.37-.29-.23-.5-.56-.64-.99-.14-.43-.2-.93-.18-1.52,.03-.88,.25-1.69,.65-2.46Zm17.61,8.7l-3.98-1.06,.13-.48c.19-.02,.38-.03,.57-.03,.19,0,.37,0,.56,.02l1.62-5.54-1.11-.59,.14-.53,6.21,1.66-.62,2.32-.57-.15-.06-1.52-2.63-.7-.64,2.38,1.5,.4,.57-.78,.51,.14-.71,2.66-.51-.14-.11-.99-1.49-.4-.59,2.21,1.34,.6-.15,.54Zm24.75,12.75l-5.37-3.97,.29-.4c.19,.06,.37,.12,.55,.18,.18,.06,.35,.14,.51,.22l3.54-4.57-.81-.96,.33-.44,5.29,3.91-1.41,1.9-.47-.35,.48-1.41-2.32-1.71-1.33,1.8,1.33,.98,.83-.52,.42,.31-1.64,2.22-.42-.31,.25-.97-1.32-.98-1.41,1.91,2.39,1.77,1.35-1.04,.46,.34-1.53,2.07Zm9.1,8.17c-.08-.2-.17-.39-.25-.57-.09-.18-.18-.36-.28-.55l1.34-.53,1.77,2.1-.79,1.27-.88-.61-.39,.33,2.23,2.64,.4-.33c-.04-.12-.08-.25-.14-.37s-.1-.24-.15-.36l3.52-6.12-1.11-1.31-6.55,2.43-.75-.36-.39,.33,2.01,2.37,.39-.33Zm1.64-1.98l3.25-1.29-1.84,2.96-1.41-1.67Zm6.5,14.66c-.13-.39-.23-.8-.31-1.22l2.05-.99,.29,.57-1.03,1.05c.05,.19,.1,.39,.16,.58,.12,.36,.27,.71,.45,1.06,.11,.21,.22,.41,.34,.61,.05,.08,.11,.16,.17,.24,.04,.02,.06,.04,.11,.05,.12,.04,.25,.06,.38,.06,.13,0,.25-.02,.35-.07,.19-.1,.31-.27,.36-.53,.05-.26,.07-.56,.05-.91-.02-.35-.04-.71-.06-1.1s-.01-.77,.02-1.15c.04-.38,.13-.72,.29-1.02s.4-.54,.75-.72c.38-.19,.76-.24,1.16-.15s.78,.32,1.14,.67,.7,.82,1,1.41c.16,.32,.31,.65,.43,1,.12,.35,.22,.69,.29,1.04l-2,.97-.29-.57,.96-.98c-.04-.13-.06-.26-.11-.4-.12-.36-.28-.72-.46-1.08-.1-.2-.21-.39-.32-.57-.03-.04-.06-.08-.09-.13-.12-.05-.24-.09-.35-.1-.17-.02-.32,0-.46,.07-.2,.1-.32,.28-.38,.54-.06,.26-.08,.56-.07,.91s.03,.72,.05,1.11,.01,.77-.02,1.15c-.03,.37-.12,.71-.26,1.01-.15,.3-.38,.54-.72,.71-.39,.2-.79,.25-1.2,.14-.41-.11-.81-.35-1.2-.72s-.73-.85-1.03-1.44c-.18-.35-.34-.72-.47-1.11Zm9.94,12.2l-.14-.58,2.85-.71,1.71,6.83-2.85,.71-.14-.58,1.81-.95-.41-1.66-5.5,1.37,.12,1.47-.54,.14-1.09-4.35,.48-.12c.12,.22,.24,.44,.36,.66s.23,.44,.32,.67l5.49-1.25-.42-1.68h-2.05ZM3.95,88.65c.59-.08,1.09-.25,1.49-.52,.4-.27,.69-.61,.88-1.03,.18-.42,.24-.9,.17-1.45l-.43-3.42-.44,.06-.11,1-4.63,.49c-.05-.17-.11-.32-.17-.45s-.12-.26-.19-.39l-.4,.05,.41,3.22c.07,.57,.26,1.05,.57,1.44s.7,.68,1.19,.85c.49,.17,1.04,.22,1.66,.14Zm-1.7-1.34c-.38-.13-.69-.37-.91-.71l-.2-1.57,4.42-.56,.14,1.1c.02,.19,.01,.39-.03,.59-.05,.2-.14,.38-.29,.55-.15,.17-.36,.31-.63,.43-.28,.12-.63,.21-1.07,.27-.56,.07-1.04,.04-1.42-.09Zm8.18,13.98l-1.8,.62-.15-.44,.96-.72-.76-2.2-1.7,.59,.43,1.26,.79,.04,.14,.39-2.1,.73-.14-.39,.61-.53-.43-1.25-1.81,.63,.78,2.26,1.37-.07,.15,.44-1.96,.68-1.76-5.09,.38-.13c.1,.12,.19,.25,.28,.37,.09,.12,.17,.25,.24,.38l4.43-1.42-.1-1.01,.42-.14,1.73,5.01Zm5.55,11.15l1.36,2.27-.35,.21c-.11-.08-.22-.18-.34-.28-.11-.1-.22-.22-.33-.35l-2.84,1.71c-.58,.35-1.13,.43-1.67,.25-.53-.18-1-.59-1.39-1.25-.4-.66-.55-1.26-.47-1.81,.08-.55,.39-.98,.94-1.31l2.96-1.69-.3-.95,.38-.23,1.53,2.55-.35,.21c-.1-.07-.21-.15-.3-.24-.1-.09-.21-.21-.33-.34l-2.98,1.79c-.31,.19-.5,.43-.54,.73-.05,.3,.04,.63,.27,1.01,.15,.25,.32,.45,.52,.59,.19,.14,.41,.23,.65,.26l3.48-2.02-.26-.89,.38-.23Zm6.21,8.66l3.85,4.17-1.74,1.61-.32-.35,.91-1.38-.93-1.01-3.36,3.1,.65,.99-.33,.31-2.45-2.65,.29-.27c.17,.11,.34,.22,.51,.33,.17,.11,.33,.23,.48,.35l3.4-3.01-.95-1.02-1.44,.8-.33-.35,1.74-1.61Zm9.91,9.55l4.3,3.1-1.12,1.55-.38-.28,.37-1.14-1.89-1.36-1.05,1.46,1.08,.78,.67-.43,.34,.24-1.3,1.8-.34-.24,.19-.78-1.07-.77-1.12,1.55,1.94,1.4,1.08-.85,.37,.27-1.21,1.68-4.37-3.15,.23-.32c.15,.04,.3,.09,.44,.14s.28,.11,.42,.17l2.81-3.71-.66-.76,.26-.36Zm14.94,8.9l-3.15-1.41-.18,.41,.8,.61-1.99,4.21c-.2-.05-.37-.09-.52-.11-.15-.02-.28-.03-.38-.02l-.16,.36,2.77,1.24,.18-.41-.73-.53,.74-1.66,.84,.38c.26,.12,.43,.26,.5,.42s.07,.4-.02,.71l-.43,1.59,1.82,.81,.18-.41-.67-.51,.21-.92c.09-.36,.1-.67,.03-.93s-.23-.49-.48-.69c.42,.06,.79,0,1.14-.17,.34-.17,.59-.43,.74-.77,.19-.42,.16-.82-.06-1.22s-.62-.72-1.18-.97Zm.02,1.89c-.09,.2-.22,.35-.4,.46-.18,.1-.42,.17-.71,.2l-1.23-.55,.82-1.84,.96,.43c.3,.13,.5,.31,.6,.54,.1,.23,.09,.48-.03,.76Zm14.23,2.88c-.36-.33-.82-.55-1.37-.67-.54-.12-1.06-.1-1.54,.07s-.89,.45-1.24,.86c-.34,.41-.58,.92-.72,1.53-.13,.61-.14,1.15-.02,1.64,.12,.49,.36,.89,.71,1.22s.8,.55,1.35,.67c.58,.13,1.12,.11,1.61-.06,.49-.17,.9-.46,1.23-.87s.57-.94,.71-1.57c.13-.59,.13-1.12,0-1.61-.12-.48-.37-.89-.73-1.22Zm-.54,2.65c-.11,.48-.26,.87-.46,1.18s-.43,.53-.7,.66c-.27,.13-.56,.16-.88,.09-.31-.07-.56-.22-.76-.44s-.31-.52-.36-.88c-.05-.36-.02-.77,.08-1.23,.15-.69,.45-1.31,.88-1.85,.13-.05,.26-.08,.39-.1,.25-.03,.49-.02,.72,.03,.33,.07,.59,.22,.79,.44,.2,.22,.32,.51,.37,.86,.05,.35,.02,.76-.08,1.23Zm14.2-1.63l2.67,.04v.41c-.15,.06-.29,.11-.43,.14s-.29,.07-.45,.09l-.1,5.32-1.29-.02-2.84-4.61-.06,3.92,1.04,.2v.45s-2.77-.04-2.77-.04v-.4c.15-.05,.29-.1,.43-.14,.14-.04,.28-.07,.43-.1l.17-4.65-.96-.25v-.44s2.27,.04,2.27,.04l2.81,4.58-.02-3.89-.94-.21v-.44Zm16.23-.6c-.31-.39-.7-.67-1.16-.82-.46-.15-.97-.17-1.53-.06-.54,.11-1,.34-1.38,.69-.37,.35-.63,.78-.78,1.29-.15,.51-.16,1.08-.04,1.69,.12,.61,.34,1.11,.65,1.51,.31,.4,.69,.67,1.14,.83,.45,.16,.96,.18,1.51,.07,.58-.12,1.07-.35,1.45-.7,.38-.35,.64-.78,.77-1.3,.14-.52,.14-1.09,.01-1.72-.12-.59-.33-1.08-.64-1.48Zm-.52,3.09c-.06,.36-.18,.66-.37,.89-.19,.23-.45,.38-.77,.44-.31,.06-.6,.03-.87-.1-.27-.13-.5-.35-.69-.66-.19-.31-.33-.69-.43-1.16-.14-.69-.12-1.37,.05-2.05,.1-.1,.21-.18,.32-.25,.22-.13,.44-.22,.67-.27,.33-.07,.63-.04,.9,.08,.27,.12,.5,.33,.69,.64s.33,.69,.42,1.16c.1,.48,.12,.9,.06,1.27Zm18.34-5.2l.19,.41-2.74,1.23-.16-.36c.1-.1,.21-.21,.33-.31,.12-.1,.24-.19,.36-.28l-1.81-4.1,.35,5.47-.63,.28-3.71-3.79,1.73,3.98,1.01-.25,.19,.41-2.52,1.14-.16-.36c.11-.11,.23-.21,.34-.31s.23-.19,.35-.27l-1.74-4.32-1.02,.21-.18-.4,2.35-1.06,3.12,3.25-.29-4.52,2.35-1.06,.17,.37c-.11,.1-.22,.2-.34,.3s-.25,.2-.39,.3l1.98,4.24,.9-.2Zm11.5-7.51l.27,.36-2.67,2-.24-.32c.11-.15,.22-.29,.32-.42,.11-.13,.22-.26,.35-.39l-.91-1.29-3.29-1.38-.71,.25-.27-.36,2.46-1.84,.24,.32c-.15,.26-.32,.51-.5,.74l2.24,1.03-.32-2.39-.88,.29-.27-.36,2.08-1.56,.24,.32c-.1,.22-.22,.43-.35,.64,0,.01-.02,.02-.03,.04l.35,3.52,.96,1.28,.94-.47Zm16.03-17.21l.35,.25-2.03,2.87-.33-.23c.07-.19,.14-.38,.22-.56,.08-.18,.17-.36,.26-.54l-3.23-2.39-.7,.99-.31-.22,.54-1.67,.39-.56,4.02,2.85,.8-.8Zm6.3-10.45l-.84,1.79h0s-.3,.64-.3,.64h0s-.18,.39-.18,.39l-.6-.28c-.23-.12-.42-.28-.57-.5-.15-.22-.26-.47-.35-.76-.08-.28-.16-.58-.22-.88-.06-.3-.13-.59-.2-.86-.07-.27-.16-.51-.27-.71-.11-.2-.25-.35-.43-.43-.11-.05-.22-.07-.33-.08-.14,.22-.28,.43-.39,.66-.12,.26-.23,.53-.32,.8-.02,.06-.03,.11-.05,.17l.98,.86-.2,.43-1.83-.85c.08-.34,.16-.66,.26-.96,.1-.29,.2-.56,.31-.8,.27-.58,.58-.98,.94-1.21,.35-.23,.73-.25,1.12-.06,.24,.11,.43,.28,.58,.5,.15,.22,.27,.48,.36,.76,.09,.28,.16,.58,.22,.88,.06,.3,.13,.59,.19,.86,.07,.27,.16,.51,.26,.72,.08,.16,.19,.27,.32,.36l.88-2.03-.84-.79,.2-.43,1.78,.83-.48,1.01Zm1.57-11.82c.04,.18,.06,.35,.05,.52-.14,.1-.31,.17-.48,.22-.18,.05-.36,.06-.55,.05-.08-.15-.15-.31-.2-.49-.05-.18-.06-.35-.04-.53,.14-.09,.3-.17,.48-.21,.18-.04,.35-.06,.52-.04,.1,.14,.17,.3,.21,.48Zm2.31,.64c.04,.18,.06,.35,.05,.52-.14,.1-.31,.17-.48,.22-.18,.04-.36,.06-.55,.04-.08-.15-.15-.31-.2-.49-.05-.18-.06-.35-.04-.53,.14-.09,.3-.17,.48-.21,.18-.04,.35-.06,.52-.04,.1,.14,.17,.3,.21,.48Zm-2.52-14.13l4.83,2.81-.11,.99-4.38-2.59-.18,2.19,1.14,.44-.05,.48-2.09-.2,.03-.24h0l.35-3.15h0s.08-.77,.08-.77l.39,.04Z"/>
  </g>
</svg>