<svg width="100" height="100" id="Layer_1" data-name="Layer 1" xmlns="http://www.w3.org/2000/svg" viewBox="0 0 216 216"><defs><style>.cls-1{fill:#fff;}</style></defs><path d="M0,216V0H216V216Zm128.34-37.85a34.39,34.39,0,0,0,13.88,14.93c12.27,6.82,25.17,7.57,38.37,3.26a25.73,25.73,0,0,0,14.85-12,28.58,28.58,0,0,0,3.34-15.63c-.33-8.37-3.56-15.28-10.13-20.57-4.68-3.76-10-6.4-15.45-8.82-3.81-1.69-7.67-3.3-11.4-5.15a21.58,21.58,0,0,1-4.94-3.42c-3.81-3.49-3.83-12.36,3.76-14.61a13.91,13.91,0,0,1,7.3,0c3.39.83,5.75,3,7.67,5.82.52.75,1,1.53,1.54,2.37l15.69-10.07a2.64,2.64,0,0,0-.16-.44c-3.95-6.86-9.33-12-17.1-14.3a39.23,39.23,0,0,0-21-.36c-12.34,3.16-20,12.93-20.19,25.43-.13,10.5,4,18.82,12.81,24.58a93.68,93.68,0,0,0,10.44,5.65c4.46,2.16,9.07,4,13.52,6.18a19.82,19.82,0,0,1,4.74,3.36,8.57,8.57,0,0,1,2.37,8.5c-.78,3.67-3.4,5.78-6.78,6.93a21.55,21.55,0,0,1-15.25-.5c-4.72-1.86-8-5.43-10.68-9.56l-.76-1.13Zm-71.62,2.16a5.09,5.09,0,0,0,.16.5c3.31,6.73,8.15,12,15.08,15.05,8,3.55,16.3,3.85,24.72,2,6.92-1.55,12.55-5.14,16.28-11.33a31.77,31.77,0,0,0,4.32-16.68c.07-23.23,0-46.46.06-69.7,0-.29-.07-.58-.1-.89H97.06v1.57q0,33.2,0,66.4a36.31,36.31,0,0,1-.37,5.32c-.42,2.82-1.4,5.53-4.12,6.85-4.33,2.08-8.73,2.13-12.89-.59a16.63,16.63,0,0,1-4.73-5.47c-.58-1-1.15-1.92-1.76-2.94Z"/><path class="cls-1" d="M128.34,178.15l16.46-9.53.76,1.13c2.71,4.13,6,7.7,10.68,9.56a21.55,21.55,0,0,0,15.25.5c3.38-1.15,6-3.26,6.78-6.93a8.57,8.57,0,0,0-2.37-8.5,19.82,19.82,0,0,0-4.74-3.36c-4.45-2.17-9.06-4-13.52-6.18a93.68,93.68,0,0,1-10.44-5.65c-8.81-5.76-12.94-14.08-12.81-24.58.16-12.5,7.85-22.27,20.19-25.43a39.23,39.23,0,0,1,21,.36c7.77,2.26,13.15,7.44,17.1,14.3a2.64,2.64,0,0,1,.16.44l-15.69,10.07c-.55-.84-1-1.62-1.54-2.37-1.92-2.78-4.28-5-7.67-5.82a13.91,13.91,0,0,0-7.3,0c-7.59,2.25-7.57,11.12-3.76,14.61a21.58,21.58,0,0,0,4.94,3.42c3.73,1.85,7.59,3.46,11.4,5.15,5.44,2.42,10.77,5.06,15.45,8.82,6.57,5.29,9.8,12.2,10.13,20.57a28.58,28.58,0,0,1-3.34,15.63,25.73,25.73,0,0,1-14.85,12c-13.2,4.31-26.1,3.56-38.37-3.26A34.39,34.39,0,0,1,128.34,178.15Zm-71.46,2.66c3.31,6.73,8.15,12,15.08,15.05,8,3.55,16.3,3.85,24.72,2,6.92-1.55,12.55-5.14,16.28-11.33a31.77,31.77,0,0,0,4.32-16.68c.07-23.23,0-46.46.06-69.7,0-.29-.07-.58-.1-.89H97.06v1.57q0,33.2,0,66.4a36.31,36.31,0,0,1-.37,5.32c-.42,2.82-1.4,5.53-4.12,6.85-4.33,2.08-8.73,2.13-12.89-.59a16.63,16.63,0,0,1-4.73-5.47c-.58-1-1.15-1.92-1.76-2.94l-16.45,9.95A5.09,5.09,0,0,0,56.88,180.81Z"/></svg>