<svg id="Layer_1" data-name="Layer 1" xmlns="http://www.w3.org/2000/svg" viewBox="0 0 216 216"><defs><style>.cls-1{fill-rule:evenodd;}</style></defs><path class="cls-1" d="M108,1A108,108,0,0,0,73.86,211.48c5.39,1,7.38-2.34,7.38-5.19,0-2.58-.1-11.09-.15-20.11C51,192.71,44.7,173.44,44.7,173.44c-4.91-12.49-12-15.81-12-15.81-9.8-6.7.74-6.56.74-6.56C44.3,151.83,50,162.2,50,162.2c9.63,16.51,25.26,11.74,31.43,9,1-7,3.76-11.75,6.85-14.45-24-2.73-49.2-12-49.2-53.37a41.83,41.83,0,0,1,11.12-29c-1.12-2.72-4.81-13.7,1-28.58,0,0,9.07-2.9,29.71,11.07a102.56,102.56,0,0,1,54.09,0c20.61-14,29.67-11.07,29.67-11.07,5.87,14.88,2.18,25.86,1.06,28.58a41.73,41.73,0,0,1,11.11,29c0,41.48-25.26,50.61-49.31,53.29,3.87,3.35,7.32,9.92,7.32,20,0,14.45-.12,26.08-.12,29.64,0,2.87,1.94,6.24,7.41,5.18A108,108,0,0,0,108,1Z"/></svg>