<?xml version="1.0" encoding="utf-8"?>
<!-- Generator: Adobe Illustrator 24.3.0, SVG Export Plug-In . SVG Version: 6.00 Build 0)  -->
<svg version="1.1" id="Layer_1" xmlns:sketch="http://www.bohemiancoding.com/sketch/ns"
	 xmlns="http://www.w3.org/2000/svg" xmlns:xlink="http://www.w3.org/1999/xlink" x="0px" y="0px" viewBox="0 0 232 92"
	 style="enable-background:new 0 0 232 92;" xml:space="preserve">
<style type="text/css">
	.st0{fill-rule:evenodd;clip-rule:evenodd;}
</style>
<desc>Created with Sketch.</desc>
<g id="Page-1" sketch:type="MSPage">
	<path id="Passport" sketch:type="MSShapeGroup" class="st0" d="M12.9,43c11.2-0.8,18.5-4.5,18.5-13.1c0-9.8-10.7-11.6-18.5-12v0.8
		c6.2,0.8,9.9,2.9,9.9,11.3c0,7.9-2.6,11.3-9.9,12.2V43z M0.5,62H9V17.9H0.5V62z M40.5,62.6c4.5,0,6.6-2.7,7.8-4.3v-0.6
		c-1.1,0.8-2.2,1.8-4.6,1.8c-3,0-4-2.3-4-5.6c0-3.3,1.1-4.5,2.2-5.4c1.4-0.8,3.9-1.7,6.2-2.5v-0.6c-3.7,0.8-8.3,2-9.9,2.5
		c-2.7,1.1-5.6,2.6-5.6,7.3C32.5,59.1,35.1,62.6,40.5,62.6L40.5,62.6z M49.8,62h7.4V39.5c0-5.9-3.9-8.1-9.8-8.1
		c-3.8,0-7.8,1.4-9.5,2.7v0.6c1.2-0.5,2.9-0.7,4.7-0.7c4.8,0,7.1,1.7,7.1,6.8V62z M37.3,42c1.9,0,3-1.3,3-2.9s-1.1-3-3-3s-3,1.3-3,3
		S35.4,42,37.3,42L37.3,42z M73.1,62.6c6.4-0.4,11-4.2,11-10.2c0-4.1-2.2-6.6-6.4-8.5l-5.5-2.5c-2.5-1.1-3.9-2.5-3.9-5
		c0-2.7,2.2-4.1,4.6-4.4v-0.6c-5.8,0.3-10.1,4.3-10.1,9s3.3,6.9,6.5,8.5l4.5,2c3,1.3,4.8,2.6,4.8,5.5c0,3.4-2.9,5.3-5.5,5.6V62.6z
		 M70.9,61.9c-2.6-0.9-5.3-3.2-8-6v5.4c2.2,0.6,5.4,1,8,1.2V61.9z M82,32.4c-1.9-0.6-4.5-1-7.3-1.1v0.6c2.9,1,5.2,2.7,7.3,5.3V32.4z
		 M98.4,62.6c6.4-0.4,11-4.2,11-10.2c0-4.1-2.2-6.6-6.4-8.5l-5.5-2.5c-2.5-1.1-3.8-2.5-3.8-5c0-2.7,2.2-4.1,4.5-4.4v-0.6
		c-5.8,0.3-10.1,4.3-10.1,9s3.3,6.9,6.5,8.5l4.5,2c3,1.3,4.8,2.6,4.8,5.5c0,3.4-2.9,5.3-5.5,5.6V62.6z M96.2,61.9
		c-2.6-0.9-5.3-3.2-8-6v5.4c2.2,0.6,5.4,1,8,1.2V61.9z M107.4,32.4c-1.9-0.6-4.6-1-7.4-1.1v0.6c2.9,1,5.2,2.7,7.4,5.3V32.4z
		 M114.8,74.5h7.5V61.8c1.6,0.5,3.4,0.7,5.1,0.8v-0.6c-1.5-0.2-3.8-1.2-5.1-2V31.2l-7.5,0.9V74.5z M129.4,62.6
		c10.8-0.6,16.7-6.7,16.7-16.6c0-9.3-4.1-14.6-12.2-14.6c-4.3,0-8.1,2.2-10,4.7v0.6c1.6-1.1,3.6-2.1,6.2-2.1c5.7,0,8.1,3.6,8.1,12.6
		c0,9.6-3.8,14.2-8.9,14.8V62.6z M164.6,61.9c-1.2-0.2-2.2-0.8-3-1.4c-3.1-2.5-4-7.1-4-13.6c0-6.5,0.9-11.1,4-13.6
		c0.8-0.7,1.8-1.2,3-1.5v-0.6c-8.5,0.8-14.8,7.2-14.8,15.6c0,8.3,6.4,14.8,14.8,15.6V61.9z M167.1,62.6c8.4-0.8,14.9-7.3,14.9-15.6
		c0-8.4-6.5-14.8-14.9-15.6v0.6c1.2,0.3,2.2,0.8,3.1,1.5c3.1,2.4,4,7.1,4,13.6c0,6.4-0.9,11.1-4,13.6c-0.8,0.6-1.9,1.2-3.1,1.4V62.6
		z M196.5,40c1.9-1.9,4.5-2.7,7-2.7c1.5,0,2.5,0.1,3.3,0.5v-6.2c-0.5-0.2-1.2-0.3-2.1-0.3c-4.6,0-7.4,3.9-8.2,7.9V40z M187.3,62h7.5
		V31.3l-7.5,0.8V62z M222,62.6c4.8,0,8.1-2.2,9.3-4.1v-0.8c-0.8,0.6-3.2,1.1-5.1,1.1c-4.1,0-5-2.7-5-6.4V34.4h9.2v-2.5h-9.2V21.6
		l-7.4,2.6v7.7h-4.5v2.5h4.5v19C213.7,59.5,216.4,62.6,222,62.6L222,62.6z"/>
</g>
</svg>
