<svg id="Layer_1" data-name="Layer 1" xmlns="http://www.w3.org/2000/svg" viewBox="0 0 216 216"><defs><style>.cls-1{fill:#24223e;}</style></defs><path class="cls-1" d="M42,122.24h-.6v5.63h1.75a3.3,3.3,0,0,0,3.58-3.24h.23v3.45h-9.6v-.21h1.49V116.79H37.32v-.21h9.44v3.14h-.23a3.16,3.16,0,0,0-3.25-2.93H41.36V122H42a2.09,2.09,0,0,0,2-1.73h.24v3.76h-.24A2.17,2.17,0,0,0,42,122.24Zm9,5.84v-.21H52.5V116.79H51v-.21h5.54v.21H55.06v11.08h1.7c2.44,0,3.33-1.29,3.58-3.24h.23v3.45Zm13.5,0v-.21H66V116.79H64.51v-.21h5.3c3.94,0,6.3,2.33,6.3,5.75s-2.52,5.75-6.3,5.75Zm4-11.29v11.08h1.26c2.55,0,3.38-2.52,3.38-5.54s-1-5.54-3.38-5.54Zm16.12,5.45h-.6v5.63h1.76a3.29,3.29,0,0,0,3.57-3.24h.24v3.45H80v-.21h1.49V116.79H80v-.21h9.44v3.14h-.23A3.16,3.16,0,0,0,86,116.79H84.07V122h.6a2.09,2.09,0,0,0,2-1.73h.24v3.76h-.24A2.17,2.17,0,0,0,84.67,122.24Zm10.71,5.63V116.79H93.72v-.21h5.8c2.75,0,4.64.84,4.64,2.84,0,1.77-1.36,2.6-3.71,2.76,3.38,0,3.85,3.43,4.89,5.59a5.32,5.32,0,0,0,4.78,3h0V131h-2.78c-6.11,0-4.24-8.68-8.32-8.68H97.93v5.59h1.66v.21H93.72v-.21Zm2.55-11.08v5.28h1.16c1.59,0,2.42-.83,2.42-2.65s-.83-2.63-2.42-2.63Zm11.31,11.29v-.21h1.49V116.79h-1.49v-.21h5.63c2.75,0,4.47.84,4.47,2.84,0,1.59-1.07,2.48-3.11,2.74,2.09.18,3.61,1,3.61,2.85,0,2.23-1.72,3.07-4.64,3.07Zm4-11.29v5.28h1.26c1.18,0,2.15-.68,2.15-2.5s-1-2.78-2.15-2.78Zm0,5.49v5.59h1.43c1.34,0,2.32-1.19,2.32-3s-1-2.58-2.32-2.58Zm15.12,0h-.59v5.63h1.75a3.3,3.3,0,0,0,3.58-3.24h.23v3.45h-9.61v-.21h1.5V116.79h-1.5v-.21h9.45v3.14H133a3.14,3.14,0,0,0-3.24-2.93h-1.92V122h.59a2.1,2.1,0,0,0,2-1.73h.23v3.76h-.23A2.18,2.18,0,0,0,128.4,122.24Zm10.72,5.63V116.79h-1.66v-.21h5.8c2.75,0,4.64.84,4.64,2.84,0,1.77-1.36,2.6-3.71,2.76,5.46.06,2.17,5.69,4.27,5.69h.6v.21h-1.83c-4.35,0-.39-5.8-4.47-5.8h-1.09v5.59h1.65v.21h-5.86v-.21Zm2.55-11.08v5.28h1.16c1.59,0,2.42-.83,2.42-2.65s-.83-2.63-2.42-2.63Zm13,11.08V116.79H153v-.21h5.8c2.74,0,4.63.84,4.63,2.84,0,1.77-1.36,2.59-3.71,2.76,5.39,0,2.14,5.69,4.18,5.69a2.32,2.32,0,0,0,.86-.19l.06.22a5.41,5.41,0,0,1-2,.3c-4.52,0-.4-5.92-4.48-5.92h-1.15v5.59h1.65v.21H153v-.21Zm2.56-11.08v5.28h1.15c1.59,0,2.42-.83,2.42-2.65s-.83-2.63-2.42-2.63Zm14.44,11.08v-5.31L168,116.79h-1.16v-.21h5.8v.21H171l3.12,5.13,3-5.13H175.2v-.21h3.48v.21h-1.32l-3.15,5.42v5.66h1.66v.21h-5.73v-.21ZM97.63,104h-1.8v-.81h4.61V104h-1.8v4.33h-1Zm10-.81v5.14h-1v-2.2h-2.81v2.2h-1v-5.14h1v2.12h2.81v-2.12Zm7.09,4.34v.8H110.6v-5.14h4v.8h-3v1.34h2.62v.78h-2.62v1.42ZM55.05,137.37l-3,9.14H50.71l-2.44-7.3-2.44,7.3H44.46l-3-9.14h1.32l2.42,7.43,2.52-7.43H48.9l2.47,7.47,2.47-7.47Zm3.7,0H60v9.14H58.75Zm13.81,0v9.14h-1l-5.37-6.82v6.82H64.86v-9.14h1l5.37,6.82v-6.82Zm11.33,8v1.13h-6.5v-9.14h6.32v1.13h-5v2.81h4.49v1.11H78.67v3ZM93,141.94a4.58,4.58,0,0,1,4.75-4.68,4.38,4.38,0,0,1,3.4,1.43l-.83.82a3.29,3.29,0,0,0-2.52-1.08,3.51,3.51,0,1,0,0,7,3.3,3.3,0,0,0,2.52-1.09l.83.82a4.4,4.4,0,0,1-3.41,1.44A4.58,4.58,0,0,1,93,141.94Zm11.2,0a4.76,4.76,0,1,1,4.77,4.68A4.6,4.6,0,0,1,104.15,141.94Zm8.24,0a3.48,3.48,0,1,0-3.47,3.51A3.4,3.4,0,0,0,112.39,141.94Zm13.69,4.57,0-6.66-3.24,5.55h-.58L119,139.89v6.62h-1.23v-9.14h1l3.74,6.42,3.68-6.42h1.05v9.14Zm13.28-5.95c0,2-1.41,3.18-3.74,3.18h-2.21v2.77h-1.28v-9.14h3.49C138,137.37,139.36,138.57,139.36,140.56Zm-1.28,0c0-1.31-.86-2.06-2.5-2.06h-2.17v4.11h2.17C137.22,142.61,138.08,141.86,138.08,140.56Zm10.56,3.67h-4.76l-1,2.28h-1.32l4.06-9.14h1.27l4.07,9.14h-1.35Zm-.45-1-1.93-4.48-1.93,4.48Zm13.95-5.81v9.14h-1l-5.37-6.82v6.82h-1.28v-9.14h1.05l5.37,6.82v-6.82Zm8.26,6v3.16h-1.27v-3.19l-3.56-5.95h1.37l2.87,4.82,2.88-4.82H174Z"/><path class="cls-1" d="M89.15,157.28c11.42,4.53,20.61-3.38,32,4.35C110.67,158.86,97.32,166.09,89.15,157.28Z"/><path class="cls-1" d="M88.18,57.83,84.4,55.65l.23-.4,4.16,2.4A3.8,3.8,0,0,1,88.18,57.83Zm3.17-2.38-4.29-3.6-.29.35,4.31,3.62Zm39.73,12a25.92,25.92,0,1,1-25.92-25.92A25.95,25.95,0,0,1,131.08,67.5Zm-.46,0A25.46,25.46,0,1,0,105.16,93,25.49,25.49,0,0,0,130.62,67.5Zm-1,0a24.5,24.5,0,0,1-22.71,24.36l-.25,0,0-7.14A27.6,27.6,0,0,1,117,71.57l-.52-.75A29.34,29.34,0,0,0,108,79.64l-.74,1.21.32-1.38c.94-4.11,2.66-9.78,5.56-13.61l-.73-.56a32.87,32.87,0,0,0-4.86,10.55L107.25,77l-.12-1.16c-.24-2.18-.63-4.33-1-6.35-.08-.4-.15-.8-.22-1.18l-.9.16c.07.39.14.78.22,1.18a48.3,48.3,0,0,1,1.16,11.06L106,82.56l-.25-1a43.85,43.85,0,0,0-4.08-10.75l-.8.46a41.57,41.57,0,0,1,3.7,9.41l.38,1.42-.8-1.24c-2.38-3.67-6.33-8.74-11.73-12.12l-.48.78c7.42,4.65,12.15,12.81,13.43,15.22l0,.11,0,7.1h-.23A24.42,24.42,0,1,1,129.59,67.5Zm-.47,0A23.81,23.81,0,0,0,126,55.73l-3.72,2.14a4.45,4.45,0,0,0-.45-.27l3.94-2.27a24.55,24.55,0,0,0-2.12-3l-4.47,3.75a1.56,1.56,0,0,1-.31-.33L123.37,52a24.74,24.74,0,0,0-2.61-2.61l-3.56,4.25-.35-.31L120.41,49a24.08,24.08,0,0,0-3-2.13l-2.81,4.89-.42-.21L117,46.68a24.27,24.27,0,0,0-3.34-1.57l-2.09,5.74a3.55,3.55,0,0,0-.47-.06L113.22,45a22.36,22.36,0,0,0-3.57-1l-1.24,7-.49.16,1.28-7.27a24.81,24.81,0,0,0-3.69-.33V52.2l-.46.14V43.55a24.83,24.83,0,0,0-3.69.3l1.28,7.27-.49-.12-1.25-7.06a22.41,22.41,0,0,0-3.58.94l2.15,5.92-.48,0L96.88,45a22.89,22.89,0,0,0-3.37,1.56l2.73,4.73-.45.14-2.68-4.64a23.65,23.65,0,0,0-3,2.11l3.22,3.84-.34.31L89.7,49.23a23.94,23.94,0,0,0,15.23,42.22l0-6.57c-1.32-2.47-6.06-10.58-13.44-15.12l-.2-.12,1-1.57.19.12a39.32,39.32,0,0,1,11.26,11.16,39.09,39.09,0,0,0-3.36-8.08l-.12-.2,1.6-.92.11.2a42.34,42.34,0,0,1,4,10,48.91,48.91,0,0,0-1.17-10.63c-.09-.49-.17-.95-.26-1.41l0-.23,1.81-.33,0,.22c.09.47.17.94.26,1.42.32,1.68.64,3.46.88,5.28a31.15,31.15,0,0,1,4.76-9.83l.14-.18,1.45,1.12-.14.19c-2.63,3.38-4.3,8.33-5.3,12.3a30.56,30.56,0,0,1,8-8l.19-.13,1,1.52-.19.13a27.11,27.11,0,0,0-10.34,13v6.52A24,24,0,0,0,129.12,67.5Zm-43.57.29a1.4,1.4,0,0,1-.41,0,1.52,1.52,0,1,1,1.33-.77A1.54,1.54,0,0,1,85.55,67.79Zm6.8-10.57a1.52,1.52,0,1,1,2.93-.82,1.49,1.49,0,0,1-.14,1.15,1.51,1.51,0,0,1-.92.72,1.4,1.4,0,0,1-.41.06,1.47,1.47,0,0,1-.74-.2A1.49,1.49,0,0,1,92.35,57.22Zm7.59,1.19a1.49,1.49,0,0,1-.14,1.15,1.51,1.51,0,0,1-.92.72,1.4,1.4,0,0,1-.41.06,1.52,1.52,0,1,1,1.47-1.93Zm-10,3.71a1.4,1.4,0,0,1-.41.05A1.49,1.49,0,0,1,88,61.06a1.52,1.52,0,0,1,1-1.87A1.53,1.53,0,0,1,91,60.24a1.51,1.51,0,0,1-.14,1.16A1.54,1.54,0,0,1,89.9,62.12Zm6.66-7a1.52,1.52,0,0,1,1-1.87,1.52,1.52,0,0,1,1.88,1.06,1.52,1.52,0,0,1-1.06,1.87,1.39,1.39,0,0,1-.4.06A1.53,1.53,0,0,1,96.56,55.09ZM109.49,54a1.46,1.46,0,0,1,.9-.73,1.51,1.51,0,0,1,1.16.12,1.48,1.48,0,0,1,.73.91,1.52,1.52,0,0,1-1.46,2,1.59,1.59,0,0,1-.73-.19A1.52,1.52,0,0,1,109.49,54ZM87.43,62a1.52,1.52,0,0,1-1.05,1.87,1.52,1.52,0,0,1-1.74-2.21,1.54,1.54,0,0,1,.92-.72,1.49,1.49,0,0,1,1.15.14A1.51,1.51,0,0,1,87.43,62ZM90.24,66a1.54,1.54,0,0,1,.72.92h0a1.49,1.49,0,0,1-.14,1.15,1.51,1.51,0,0,1-.92.72,1.4,1.4,0,0,1-.41.06A1.52,1.52,0,1,1,90.24,66Zm19.92-3A1.53,1.53,0,0,1,110,64.2a1.51,1.51,0,0,1-.92.72,1.4,1.4,0,0,1-.41.06,1.52,1.52,0,0,1-.41-3h0a1.52,1.52,0,0,1,1.16.14A1.49,1.49,0,0,1,110.16,63.05Zm6.07-.67a1.49,1.49,0,0,1-.13,1.15,1.52,1.52,0,0,1-2.67-1.45,1.5,1.5,0,0,1,.91-.73,1.48,1.48,0,0,1,1.15.12A1.53,1.53,0,0,1,116.23,62.38Zm5.58,4.87a1.53,1.53,0,0,1,2.68,1.46,1.58,1.58,0,0,1-.91.73,1.59,1.59,0,0,1-.43.06,1.47,1.47,0,0,1-.73-.19A1.53,1.53,0,0,1,121.81,67.25ZM107,58.33a1.59,1.59,0,0,1-.73-.19,1.53,1.53,0,0,1-.73-.9,1.56,1.56,0,0,1,.12-1.16,1.52,1.52,0,0,1,2.8.3A1.52,1.52,0,0,1,107,58.33Zm5.72,1.12a1.48,1.48,0,0,1-.12,1.15,1.53,1.53,0,0,1-1.34.8,1.59,1.59,0,0,1-.73-.19,1.51,1.51,0,0,1-.6-2.06,1.46,1.46,0,0,1,.9-.73,1.51,1.51,0,0,1,1.16.12A1.48,1.48,0,0,1,112.67,59.45Zm3.75-2.15a1.52,1.52,0,0,1-1.34.79,1.53,1.53,0,0,1-1.34-2.25,1.58,1.58,0,0,1,.91-.73,1.53,1.53,0,0,1,1.77,2.19Zm1,3.32a1.47,1.47,0,0,1,.12-1.16,1.56,1.56,0,0,1,.9-.73,1.51,1.51,0,0,1,1.16.13,1.52,1.52,0,0,1,.61,2.06,1.52,1.52,0,0,1-1.34.79,1.5,1.5,0,0,1-1.45-1.09Zm9.44,4.44a1.48,1.48,0,0,1-.91.73,1.54,1.54,0,0,1-.43.06A1.5,1.5,0,0,1,124,64.76a1.47,1.47,0,0,1,.12-1.16,1.55,1.55,0,0,1,.91-.73,1.49,1.49,0,0,1,1.15.13A1.52,1.52,0,0,1,126.81,65.06Zm-6.2-1.64a1.5,1.5,0,0,1,.61,2.06,1.46,1.46,0,0,1-.9.73,1.67,1.67,0,0,1-.44.06A1.53,1.53,0,0,1,118.55,64a1.55,1.55,0,0,1,.91-.73A1.49,1.49,0,0,1,120.61,63.42Zm.23,5.34a1.53,1.53,0,0,1-1,1.89,1.65,1.65,0,0,1-.43.06A1.53,1.53,0,0,1,118,68.46a1.58,1.58,0,0,1,.91-.73,1.56,1.56,0,0,1,1.16.12A1.58,1.58,0,0,1,120.84,68.76ZM122,60.21a1.46,1.46,0,0,1,.9-.73,1.52,1.52,0,0,1,1.77,2.18,1.53,1.53,0,0,1-1.34.8,1.59,1.59,0,0,1-.73-.19A1.52,1.52,0,0,1,122,60.21Zm-24.87,6a1.48,1.48,0,0,1-.41,0,1.52,1.52,0,0,1-.75-.19,1.54,1.54,0,0,1-.72-.92A1.49,1.49,0,0,1,95.41,64a1.52,1.52,0,0,1,2.79.33A1.53,1.53,0,0,1,97.15,66.22ZM101,68a1.49,1.49,0,0,1-.14,1.15,1.51,1.51,0,0,1-.92.72,1.4,1.4,0,0,1-.41.06,1.52,1.52,0,1,1,.75-2.85A1.54,1.54,0,0,1,101,68Zm-5.86-6.65a1.51,1.51,0,0,1-.92.72,1.4,1.4,0,0,1-.41.06,1.47,1.47,0,0,1-.74-.2,1.49,1.49,0,0,1-.72-.91,1.52,1.52,0,0,1,2.21-1.74,1.54,1.54,0,0,1,.72.92h0A1.49,1.49,0,0,1,95.14,61.34Zm-2,2.3A1.49,1.49,0,0,1,93,64.79a1.46,1.46,0,0,1-.91.72,1.4,1.4,0,0,1-.41.06,1.54,1.54,0,0,1-1.47-1.11,1.52,1.52,0,0,1,.14-1.16,1.54,1.54,0,0,1,.92-.72A1.52,1.52,0,0,1,93.18,63.64Zm9.47-7a1.92,1.92,0,0,1-.41,0,1.53,1.53,0,0,1-1.47-1.11,1.49,1.49,0,0,1,.14-1.15,1.52,1.52,0,0,1,2.79.33A1.53,1.53,0,0,1,102.65,56.63Zm3.71,3.15a1.52,1.52,0,0,1-.14,1.16,1.5,1.5,0,0,1-.91.72,1.84,1.84,0,0,1-.41.05,1.53,1.53,0,0,1-1.47-1.11,1.49,1.49,0,0,1,.14-1.15,1.52,1.52,0,0,1,2.79.33Zm-3.92,2.62a1.52,1.52,0,0,1-1,1.87,1.52,1.52,0,1,1-.82-2.93h0a1.52,1.52,0,0,1,1.87,1.06ZM106.36,65a1.53,1.53,0,0,1-1,1.88,1.44,1.44,0,0,1-.41,0,1.53,1.53,0,0,1-1.47-1.11,1.49,1.49,0,0,1,.14-1.15,1.53,1.53,0,0,1,2.08-.58A1.47,1.47,0,0,1,106.36,65Zm18.74,8.94.29,0,0,.28c-.93,6.37-6.62,11.5-12.7,11.5h-.37l0-.26A13.66,13.66,0,0,1,125.1,73.92Zm-.26.49a13.21,13.21,0,0,0-12,10.41l8.77-8,.31.34-8.82,8.06C118.72,84.94,123.84,80.24,124.84,74.41Zm-38.59-.49A13.67,13.67,0,0,1,99,85.23l.06,0,0,0v.09l0,.26h-.37c-6.08,0-11.77-5.13-12.71-11.5l0-.28Zm.25.49c1,5.87,6.19,10.59,11.81,10.8L89.21,77l.31-.34,8.92,8A13.19,13.19,0,0,0,86.5,74.41Z"/></svg>