<svg xmlns="http://www.w3.org/2000/svg" xmlns:xlink="http://www.w3.org/1999/xlink" viewBox="0 0 432 432"><defs><clipPath id="a"><rect x="-446.4" width="432" height="432" style="fill:none"/></clipPath></defs><title>fish-stacked</title><rect x="-515.92" y="-135.48" width="2776.7" height="1737.39" style="fill:#fff"/><g style="clip-path:url(#a)"><path d="M140.85,452.88h-607V402.34a35.73,35.73,0,0,0,50.54,0h0a35.73,35.73,0,0,0,50.54,0h0a35.73,35.73,0,0,0,50.54,0h0a35.73,35.73,0,0,0,50.54,0,35.73,35.73,0,0,0,50.54,0h0a35.73,35.73,0,0,0,50.54,0h0a35.73,35.73,0,0,0,50.54,0,35.73,35.73,0,0,0,50.54,0l.51.49v-.49a35.64,35.64,0,0,0,25,10.46,35.6,35.6,0,0,0,25-10.46h0l.26.24.25-.24h0a35.64,35.64,0,0,0,25,10.46,35.6,35.6,0,0,0,25-10.46h0v.49c.17-.17.35-.32.51-.49h0a35.74,35.74,0,0,0,50.55,0h0a35.73,35.73,0,0,0,50.54,0Z" style="fill:#fff"/></g><path d="M182.4,211.17l13.5-14.51-21.78-28.43c-6.52-8.13-9.72-8.13-9.72-8.13v60A28.51,28.51,0,0,0,182.4,211.17Zm93.36-20.89a30.09,30.09,0,0,1-30.09,30.08s-4.58-.45-11.18-8.67l-21.43-28,13.49-14.51a29.11,29.11,0,0,1,15.28-8.47,32.65,32.65,0,0,1,3.84-.54A30.09,30.09,0,0,1,275.76,190.28Z" style="fill:#071e1f"/><path d="M208.85,160.1H210a8.65,8.65,0,0,1,6.34,14.55l-5.62,6-7.33-9.57A6.85,6.85,0,0,1,208.85,160.1Zm-3.31,49.15-7.33-9.57-5.62,6a8.66,8.66,0,0,0,6.34,14.55h1.17A6.85,6.85,0,0,0,205.54,209.25Z" style="fill:#071e1f"/><path d="M253.54,172a8.75,8.75,0,0,0-2.13.26,5.25,5.25,0,1,1-6.62,6.61,9.4,9.4,0,0,0-.25,2.13,9,9,0,1,0,9-9Z" style="fill:#fff"/><path d="M106.67,238.54a4,4,0,0,1,1.19-2.82c.8-.84,1.2-1.45,1.2-1.85a1.23,1.23,0,0,0-.51-1.08,2.59,2.59,0,0,0-1.51-.36c-1.39,0-2.39.81-3,2.42a17.64,17.64,0,0,0-.92,6.15l-.12,6.29h6.78l-1,2.28H103v18.65l.06,2.76a6.9,6.9,0,0,0,.36,2.81q.35.66,2.07.9l2.13.06v1H88.47v-1l1.44-.06q1.74-.18,2.1-.84a7.12,7.12,0,0,0,.36-2.87l.06-2.76V249.57H88.05l1-2.28h3.42c0-.79,0-1.64.09-2.54s.09-1.55.09-1.95A8.69,8.69,0,0,1,96.5,235a18.31,18.31,0,0,1,11.06-3.56,14.68,14.68,0,0,1,7.2,1.71,5.46,5.46,0,0,1,3.11,5.06,4.52,4.52,0,0,1-1.78,3.63,6.15,6.15,0,0,1-7.76.18A4.14,4.14,0,0,1,106.67,238.54Z" style="fill:#071e1f"/><path d="M114.59,251.58a118.54,118.54,0,0,0,14.57-4.27v21.32a26.81,26.81,0,0,0,.21,4,2.62,2.62,0,0,0,1.51,2.14,7.34,7.34,0,0,0,2.33.4v.54H115.32v-.54c1.69-.09,2.8-.49,3.32-1.21a5.36,5.36,0,0,0,.68-2.54c0-.62.05-1.54.05-2.79v-9.08a18.34,18.34,0,0,0-.35-4.27,4.16,4.16,0,0,0-1.73-2.46,5.37,5.37,0,0,0-2.65-.67Zm13.16-16.05a5.69,5.69,0,0,1,1.73,4.22,5.89,5.89,0,0,1-5.86,5.8,5.61,5.61,0,0,1-4.16-1.72,5.67,5.67,0,0,1-1.74-4.17,5.51,5.51,0,0,1,1.74-4.13,5.69,5.69,0,0,1,4.13-1.73A5.62,5.62,0,0,1,127.75,235.53Z" style="fill:#071e1f"/><path d="M157.4,258h-.54a22.84,22.84,0,0,0-3.52-5.81q-3.43-4.15-6.75-4.16a3.82,3.82,0,0,0-2.68,1.05,3.51,3.51,0,0,0-1.19,2.68c0,2.2,1.74,3.86,5.22,5l3.78,1.24a17.48,17.48,0,0,1,6,3.06,6.69,6.69,0,0,1,2.38,5.37,9,9,0,0,1-1.87,5.57,10.31,10.31,0,0,1-4.81,3.41,16,16,0,0,1-5.62,1,30.55,30.55,0,0,1-7.59-1.4c-1.76-.51-3.32-1-4.67-1.52l-.55-11h.55a31.37,31.37,0,0,0,4.81,8q4.35,5.19,8.48,5.19a4,4,0,0,0,3.13-1.27,3.71,3.71,0,0,0,.95-2.7,4,4,0,0,0-1.08-2.92,11.7,11.7,0,0,0-4.11-2.21l-2.73-1a24.61,24.61,0,0,1-7.21-3.7,6.83,6.83,0,0,1-2.62-5.57,7.91,7.91,0,0,1,3.81-6.75,13.88,13.88,0,0,1,8.1-2.3,37.73,37.73,0,0,1,9.79,1.6Z" style="fill:#071e1f"/><path d="M178.62,249.77a12.79,12.79,0,0,1,7.08-2.46,5.57,5.57,0,0,1,4.59,1.89,5.75,5.75,0,0,1,1.19,2.52,18.23,18.23,0,0,1,.27,3.35v14.64c0,1.54.05,2.51.08,2.92a2.45,2.45,0,0,0,1.19,2.06,5.22,5.22,0,0,0,2,.48v.54H179.38v-.54a2.44,2.44,0,0,0,2.26-1.32,14.72,14.72,0,0,0,.33-4.14V256.5a6.74,6.74,0,0,0-.7-3.62,2.88,2.88,0,0,0-2.44-1.22c-1.22,0-2.64.71-4.27,2.11v15.94a15.12,15.12,0,0,0,.33,4.14,2.46,2.46,0,0,0,2.27,1.32v.54H160.35v-.54c1.86-.09,3.06-.49,3.62-1.21a4.89,4.89,0,0,0,.73-2.54c.05-.63.08-1.56.08-2.79V245.91a18.86,18.86,0,0,0-.35-4.27,4.16,4.16,0,0,0-1.73-2.46,5.36,5.36,0,0,0-2.65-.68l-.05-.57A133.52,133.52,0,0,0,174.56,234v18.8Q177,250.86,178.62,249.77Z" style="fill:#071e1f"/><path d="M235.19,258h-.54a22.84,22.84,0,0,0-3.52-5.81c-2.28-2.77-4.54-4.16-6.75-4.16a3.82,3.82,0,0,0-2.68,1.05,3.51,3.51,0,0,0-1.19,2.68c0,2.2,1.74,3.86,5.22,5l3.78,1.24a17.48,17.48,0,0,1,6,3.06,6.69,6.69,0,0,1,2.38,5.37A9.07,9.07,0,0,1,236,272a10.39,10.39,0,0,1-4.82,3.41,16,16,0,0,1-5.61,1A30.53,30.53,0,0,1,218,275c-1.76-.51-3.32-1-4.67-1.52l-.54-11h.54a31.37,31.37,0,0,0,4.81,8q4.35,5.19,8.48,5.19a4,4,0,0,0,3.14-1.27,3.75,3.75,0,0,0,.94-2.7,4,4,0,0,0-1.08-2.92,11.7,11.7,0,0,0-4.11-2.21l-2.72-1a24.56,24.56,0,0,1-7.22-3.7,6.83,6.83,0,0,1-2.62-5.57,7.91,7.91,0,0,1,3.81-6.75,13.92,13.92,0,0,1,8.11-2.3,37.73,37.73,0,0,1,9.78,1.6Z" style="fill:#fc3"/><path d="M255.94,249.69a11.29,11.29,0,0,1,6.91-2.38c2.63,0,4.52.78,5.65,2.33q1.28,1.73,1.27,5.78v14.29c0,1.54.05,2.51.08,2.92a2.35,2.35,0,0,0,1.19,2.06,5.23,5.23,0,0,0,2.06.48v.54H257.4v-.54a2.47,2.47,0,0,0,2.27-1.32,17.3,17.3,0,0,0,.32-4.14V259.26a39.06,39.06,0,0,0-.19-5.17,3,3,0,0,0-1.27-2.1,2.88,2.88,0,0,0-1.62-.49,6.58,6.58,0,0,0-4.16,1.95v16.26a16.75,16.75,0,0,0,.32,4.14,2.46,2.46,0,0,0,2.27,1.32v.54H238.53v-.54c1.86-.09,3.07-.49,3.62-1.21a4.89,4.89,0,0,0,.73-2.54c.06-.63.08-1.56.08-2.79v-9.08a18.34,18.34,0,0,0-.35-4.27,4.16,4.16,0,0,0-1.73-2.46,5.36,5.36,0,0,0-2.64-.67l-.06-.57a140.3,140.3,0,0,0,14.57-4.27v5.27A31.41,31.41,0,0,1,255.94,249.69Z" style="fill:#fc3"/><path d="M307.32,272a35.57,35.57,0,0,1-3.27,2.43,11,11,0,0,1-5.92,2,5.07,5.07,0,0,1-4.35-2.05,8.49,8.49,0,0,1-1.22-3.22,13.82,13.82,0,0,1-3.3,3.38,11.82,11.82,0,0,1-6.64,1.86,8.61,8.61,0,0,1-6.22-2.16,5.18,5.18,0,0,1-1.67-3.89,5.94,5.94,0,0,1,2.48-4.78q3.63-2.92,15.33-6.33v-2.89q0-5.05-.74-6.24a2.79,2.79,0,0,0-2.54-1.41,4.14,4.14,0,0,0-2.83,1,4.59,4.59,0,0,0-1.41,2.54c-.12.56-.3,1.71-.51,3.46a6.81,6.81,0,0,1-1.6,3.81,5.44,5.44,0,0,1-4.21,1.92,3.79,3.79,0,0,1-2.84-1.11,3.83,3.83,0,0,1-1.05-2.78c0-2.24,1.57-4.26,4.73-6.08a35.68,35.68,0,0,1,15.62-4.25,7.68,7.68,0,0,1,5,1.54,5.14,5.14,0,0,1,1.68,2.44,12.71,12.71,0,0,1,.46,3.7v12.73a10.07,10.07,0,0,0,.38,3.51,2,2,0,0,0,2.05,1.16,4.75,4.75,0,0,0,2.21-.75Zm-18.76-10.33q-2.56,1.82-2.57,5.81c0,3.43,1.08,5.14,3.22,5.14a3.08,3.08,0,0,0,2.38-1.08,4.47,4.47,0,0,0,1-3.08v-8.57A15.48,15.48,0,0,0,288.56,261.71Z" style="fill:#fc3"/><path d="M337.57,269.69a33.7,33.7,0,0,0,3.3,4.13,6.72,6.72,0,0,0,3.08,1.35v.54H324.68v-.54c1.62-.48,2.43-1.36,2.43-2.62a4.54,4.54,0,0,0-.59-1.94c-.13-.26-.74-1.18-1.84-2.79l-2.73-4a23.21,23.21,0,0,0-2.22,3.35,10.18,10.18,0,0,0-1.24,4.76,3.4,3.4,0,0,0,1.78,3.24v.54H306.54v-.54a15.08,15.08,0,0,0,4.52-2.19,65.64,65.64,0,0,0,6.24-5.37c1.41-1.36,2.8-2.81,4.19-4.38l-7-9.46a20.78,20.78,0,0,0-3.73-4.08,5.92,5.92,0,0,0-2.7-1.11V248h17.65v.54a1.74,1.74,0,0,0-1.27,1.68c0,.75.66,2.07,2,3.94l2.05,2.89a22.84,22.84,0,0,0,1.81-2.24,6,6,0,0,0,1.19-3.43,3,3,0,0,0-1.57-2.84V248h11.35v.54a20.36,20.36,0,0,0-5.81,3.24,48.49,48.49,0,0,0-6.51,5.9Z" style="fill:#fc3"/></svg>