<svg xmlns="http://www.w3.org/2000/svg" xmlns:xlink="http://www.w3.org/1999/xlink" viewBox="0 0 432 432"><defs><clipPath id="a"><rect width="432" height="432" style="fill:none"/></clipPath><clipPath id="b"><rect x="-446.4" width="432" height="432" style="fill:none"/></clipPath><clipPath id="c"><rect x="-446.4" y="-446.4" width="432" height="432" style="fill:none"/></clipPath><clipPath id="d"><rect y="-446.4" width="432" height="432" style="fill:none"/></clipPath></defs><title>fish-typography</title><rect x="-515.92" y="-1028.28" width="2776.7" height="1737.39" style="fill:#fff"/><path d="M54.08,145.12a35.93,35.93,0,0,1-3.55,2.64,11.85,11.85,0,0,1-6.41,2.17,5.53,5.53,0,0,1-4.72-2.23,9.28,9.28,0,0,1-1.32-3.49,14.91,14.91,0,0,1-3.57,3.67,12.88,12.88,0,0,1-7.21,2,9.28,9.28,0,0,1-6.74-2.35,5.58,5.58,0,0,1-1.81-4.21,6.49,6.49,0,0,1,2.69-5.19q3.93-3.17,16.61-6.86v-3.13q0-5.47-.79-6.77a3,3,0,0,0-2.75-1.52A4.5,4.5,0,0,0,31.43,121a5,5,0,0,0-1.52,2.76c-.14.6-.32,1.85-.56,3.75a7.35,7.35,0,0,1-1.73,4.13,5.94,5.94,0,0,1-4.57,2.08A4.09,4.09,0,0,1,20,132.5a4.17,4.17,0,0,1-1.14-3c0-2.42,1.7-4.62,5.12-6.59a32.92,32.92,0,0,1,7.33-3,33.07,33.07,0,0,1,9.61-1.58A8.27,8.27,0,0,1,46.35,120a5.6,5.6,0,0,1,1.81,2.63,13.74,13.74,0,0,1,.5,4v13.8a11.17,11.17,0,0,0,.41,3.8,2.19,2.19,0,0,0,2.23,1.26,5.12,5.12,0,0,0,2.4-.82ZM33.75,133.93q-2.79,2-2.79,6.3c0,3.71,1.17,5.57,3.49,5.57A3.31,3.31,0,0,0,37,144.62a4.85,4.85,0,0,0,1-3.34V132A16.35,16.35,0,0,0,33.75,133.93Z" style="fill:#fc3"/><path d="M78.51,118.32A10.36,10.36,0,0,1,87,122.53a15.52,15.52,0,0,1,3.16,9.91,17.22,17.22,0,0,1-4.3,12A16.74,16.74,0,0,1,73.5,149.9a20.65,20.65,0,0,1-6.33-1.09l-2.93-1a6.14,6.14,0,0,0-1.79-.38c-1.35,0-2.26.82-2.72,2.46h-.59V116.79a20.46,20.46,0,0,0-.38-4.63,4.51,4.51,0,0,0-1.88-2.66,5.71,5.71,0,0,0-2.87-.73l-.06-.62a137.15,137.15,0,0,0,15.8-4.25v18A13.58,13.58,0,0,1,78.51,118.32ZM69.75,142.6a10.92,10.92,0,0,0,.82,5,3,3,0,0,0,2.81,1.5q5.63,0,5.62-14.42,0-7.47-1.58-10.92a4.16,4.16,0,0,0-4.07-2.61,5.14,5.14,0,0,0-3.6,1.67Z" style="fill:#071e1f"/><path d="M125.12,138.5q-5,11.4-15.08,11.4a14.77,14.77,0,0,1-10.7-4.05A14.58,14.58,0,0,1,96,140.64a16.42,16.42,0,0,1-1.17-6,15.9,15.9,0,0,1,2.73-9,15.63,15.63,0,0,1,6.7-5.71,17.36,17.36,0,0,1,7.39-1.58,13.53,13.53,0,0,1,9.26,3.16,8.85,8.85,0,0,1,3.34,6.74,5.51,5.51,0,0,1-1.24,3.6,4.46,4.46,0,0,1-3.69,1.73,4.72,4.72,0,0,1-3.83-1.73,5.26,5.26,0,0,1-1.21-3.51,11.25,11.25,0,0,1,.59-3,9.68,9.68,0,0,0,.5-2.61,3.4,3.4,0,0,0-1-2.49,3.66,3.66,0,0,0-2.69-1.08q-2.79,0-4.54,3.16a16.35,16.35,0,0,0-1.94,8.06,12.94,12.94,0,0,0,2.61,8.46,9.35,9.35,0,0,0,7.62,3.4,12.14,12.14,0,0,0,9-4.07Z" style="fill:#071e1f"/><path d="M149.29,145.09q-4.24,4.82-9.17,4.81a9.48,9.48,0,0,1-6.62-2.64,13.13,13.13,0,0,1-3.43-5.59,18.5,18.5,0,0,1-.85-5.69,17.5,17.5,0,0,1,5.28-13,15.28,15.28,0,0,1,11-4.65,10.31,10.31,0,0,1,3.75.79v-2.32a20.46,20.46,0,0,0-.38-4.63A4.51,4.51,0,0,0,147,109.5a5.71,5.71,0,0,0-2.87-.73l-.08-.62a135.84,135.84,0,0,0,15.82-4.25v33.55c0,2.75.22,4.59.67,5.5a2.9,2.9,0,0,0,1.93,1.5,9.62,9.62,0,0,0,1.82.26v.59q-7.06,1.94-15,4.6Zm0-22.61a3.26,3.26,0,0,0-1-2.64,3,3,0,0,0-2-.73,3.82,3.82,0,0,0-2.81,1.32q-3,3.13-3,13.85a27.22,27.22,0,0,0,1,8.59c.78,2.16,2.18,3.25,4.19,3.25a3.86,3.86,0,0,0,2.61-1,8.46,8.46,0,0,0,1-1.05Z" style="fill:#071e1f"/><path d="M178.12,131.21q.07,11.22,10,11.22a11,11,0,0,0,6.41-1.85,12.79,12.79,0,0,0,3.14-3.43l.55.27a26.16,26.16,0,0,1-4,7.23,14.05,14.05,0,0,1-11.49,5.25,15.47,15.47,0,0,1-11.57-4.72A14.75,14.75,0,0,1,167,134.49a15.3,15.3,0,0,1,5.57-12.19,16,16,0,0,1,10.75-4,15.35,15.35,0,0,1,8.32,2.31A13.49,13.49,0,0,1,197,127.1a17,17,0,0,1,1,4.11Zm8.81-7.94c-.54-2.74-1.79-4.1-3.75-4.1-2.26,0-3.78,1.83-4.54,5.5a28.89,28.89,0,0,0-.52,5.83h9.22A42.63,42.63,0,0,0,186.93,123.27Z" style="fill:#071e1f"/><path d="M220.25,111.91a4,4,0,0,1,1.19-2.82c.8-.84,1.19-1.46,1.19-1.86a1.23,1.23,0,0,0-.5-1.08,2.62,2.62,0,0,0-1.52-.36q-2.07,0-3,2.43a17.64,17.64,0,0,0-.92,6.15l-.12,6.3h6.78l-1,2.28h-5.76v18.66l.06,2.76a7,7,0,0,0,.36,2.82q.36.66,2.07.9l2.13.06v1H201v-1l1.45-.06c1.15-.12,1.85-.4,2.09-.84a7.21,7.21,0,0,0,.36-2.88l.06-2.76V123h-4.38l1-2.28H205q0-1.2.09-2.55t.09-2q0-4.26,4.89-7.83a18.3,18.3,0,0,1,11.07-3.57,14.76,14.76,0,0,1,7.22,1.71,5.47,5.47,0,0,1,3.1,5.07,4.54,4.54,0,0,1-1.77,3.63,6.18,6.18,0,0,1-7.78.18A4.16,4.16,0,0,1,220.25,111.91Z" style="fill:#fc3"/><path d="M247.35,123.37a5.41,5.41,0,0,1,2-2.4,6,6,0,0,1,3.36-.9,5,5,0,0,1,3.36,1.08,3.67,3.67,0,0,1,1.26,2.94,3.29,3.29,0,0,1-.95,2.4,3.4,3.4,0,0,1-2.51,1,3.66,3.66,0,0,1-2.41-.81,2.88,2.88,0,0,1-1-2.37,2.69,2.69,0,0,1,.55-1.59,2.28,2.28,0,0,0,.55-1.11q0-.24-.48-.24a3.23,3.23,0,0,0-1.72.63,4.54,4.54,0,0,0-1.54,1.89,7.74,7.74,0,0,1,1.69,2.85,10.46,10.46,0,0,1,.61,3.57,8.94,8.94,0,0,1-3.49,7.35,12.74,12.74,0,0,1-8.19,2.79,15.22,15.22,0,0,1-5.65-1.09,4.74,4.74,0,0,0-2.41.41,1.77,1.77,0,0,0-1.14,1.7,1.35,1.35,0,0,0,.9,1.26,3.8,3.8,0,0,0,1.92.48h12.78a10.91,10.91,0,0,1,7.86,2.8,9.31,9.31,0,0,1,2.94,7,8.13,8.13,0,0,1-4.95,7.72,25.66,25.66,0,0,1-11.61,2.48,31.33,31.33,0,0,1-9.57-1.33q-4.11-1.33-4.11-4.65a3,3,0,0,1,1.23-2.5,7.25,7.25,0,0,1,3.09-1.3,13,13,0,0,1-3.75-3.08,6.48,6.48,0,0,1-1.35-4.15,7.1,7.1,0,0,1,2-5.08,8,8,0,0,1,4.74-2.51,10.69,10.69,0,0,1-3.45-3.51,9.79,9.79,0,0,1,2.22-12.21,12.71,12.71,0,0,1,8.31-2.82A12.25,12.25,0,0,1,247.35,123.37ZM230.91,154a4.22,4.22,0,0,0-2.43,1,3,3,0,0,0-.75,2.19q0,2.4,3.51,3.63a24.35,24.35,0,0,0,8.07,1.23,27.56,27.56,0,0,0,9.18-1.26q3.48-1.26,3.48-4a2.15,2.15,0,0,0-1.56-2.22A14.2,14.2,0,0,0,246,154Zm10.38-23.7-.18-4.38a8.68,8.68,0,0,0-.6-3.54,2.13,2.13,0,0,0-2.1-1.32,2.1,2.1,0,0,0-2,1.35,8.35,8.35,0,0,0-.63,3.51l-.18,4.38.18,4.38a7.86,7.86,0,0,0,.66,3.45,2.15,2.15,0,0,0,2,1.35,2.1,2.1,0,0,0,2-1.32,8.14,8.14,0,0,0,.63-3.48Z" style="fill:#071e1f"/><path d="M273.85,125.11a8.84,8.84,0,0,1,3.16-3.72,10.6,10.6,0,0,1,5.79-1.32,12.5,12.5,0,0,1,7.36,2.25,6.81,6.81,0,0,1,3.19,5.79v13.5l.07,2.76a7.5,7.5,0,0,0,.35,2.85c.25.46.94.75,2.11.87l1.32.06v1H278.62v-1l.77-.06c1.07,0,1.73-.24,2-.72a8,8,0,0,0,.36-3l0-2.76V129.37l0-2.46a6,6,0,0,0-.84-3.6,3,3,0,0,0-2.5-1.08,3.2,3.2,0,0,0-2.89,1.32,14.41,14.41,0,0,0-1.39,2.7v15.36l.06,2.76a8.68,8.68,0,0,0,.32,3c.22.46.88.69,2,.69l.77.06v1H258.62v-1l1.38-.06q1.72-.18,2.1-.84a7.21,7.21,0,0,0,.36-2.88l.06-2.76V112l-.06-2.46a3.76,3.76,0,0,0-.51-2.25,3.32,3.32,0,0,0-2.19-.81l-2.28-.12v-1H274.1v14.22c0,1.32,0,2.43-.06,3.33S273.93,124.55,273.85,125.11Z" style="fill:#fc3"/><path d="M319.66,149.11h-19.5v-1l1.44-.06q1.74-.18,2.1-.84a7.21,7.21,0,0,0,.36-2.88l.06-2.76V127.27l-.06-2.46a9.91,9.91,0,0,0-.36-2.16q-.24-.72-2.16-.9l-1.62-.12v-1H315.7v20.94l.06,2.76a7.24,7.24,0,0,0,.36,2.85q.36.69,2.1.87l1.44.06Zm-15.72-38.46a5.31,5.31,0,0,1,1.72-4,5.74,5.74,0,0,1,4.13-1.65A6,6,0,0,1,314,106.6a5.26,5.26,0,0,1,1.72,4.05,5.38,5.38,0,0,1-1.72,4,5.83,5.83,0,0,1-4.19,1.65,5.74,5.74,0,0,1-4.13-1.65A5.38,5.38,0,0,1,303.94,110.65Z" style="fill:#fc3"/><path d="M338.94,145.87q0,1.32-.09,2.79t-.09,1.71q0,4.5-4.73,8.55A16,16,0,0,1,323.34,163a14.64,14.64,0,0,1-7-1.5,5.16,5.16,0,0,1-2.77-4.92,4.65,4.65,0,0,1,1.66-3.63,5.59,5.59,0,0,1,3.83-1.47,5.66,5.66,0,0,1,3.71,1.32,4.25,4.25,0,0,1,1.6,3.42,4.12,4.12,0,0,1-1.11,2.85,3.52,3.52,0,0,0-1.11,1.83.84.84,0,0,0,.45.75,2.68,2.68,0,0,0,1.35.27,2.7,2.7,0,0,0,2.61-2.16,17.79,17.79,0,0,0,.75-5.7l.06-6.3V127.27l-.06-2.46a9.91,9.91,0,0,0-.36-2.16q-.24-.72-2.16-.9l-2.22-.12v-1h16.38Zm-.06-35.22a5.42,5.42,0,0,1-1.72,4,5.84,5.84,0,0,1-4.19,1.65,5.74,5.74,0,0,1-4.13-1.65,5.38,5.38,0,0,1-1.72-4,5.31,5.31,0,0,1,1.72-4A5.74,5.74,0,0,1,333,105a6,6,0,0,1,4.19,1.59A5.3,5.3,0,0,1,338.88,110.65Z" style="fill:#071e1f"/><path d="M358,136.29q3.17-3.22,6.33-6.52c2.11-2.2,3.58-3.79,4.39-4.79A4.38,4.38,0,0,0,370,122.7a.73.73,0,0,0-.4-.68,2.84,2.84,0,0,0-1.1-.27l-2-.12v-1h11.34v1c-.41,0-.8,0-1.18,0a10.82,10.82,0,0,0-1.57.24,5.84,5.84,0,0,0-1.66.59,14.65,14.65,0,0,0-2,1.53c-.87.76-1.61,1.46-2.24,2.1l-1.72,1.79q2.94,4.8,6,9.73c2.05,3.29,3.54,5.65,4.48,7.06a13,13,0,0,0,2.1,2.67,3.94,3.94,0,0,0,1.88.72l1.45.06v1H363v-1l1.19-.06c1,0,1.55-.32,1.55-1a4.81,4.81,0,0,0-.81-2c-.53-.91-1.36-2.25-2.47-4s-2.18-3.43-3.21-5l-1.13,1.2V411.62l.06,2.76a8.65,8.65,0,0,0,.32,3c.22.46.88.69,2,.69l1.13.06v1h-19v-1l1.38-.06q1.72-.18,2.1-.84a7.21,7.21,0,0,0,.36-2.88l.06-2.76V112l-.06-2.46a3.76,3.76,0,0,0-.51-2.25,3.32,3.32,0,0,0-2.19-.81l-2.28-.12v-1h16.62v27Z" style="fill:#071e1f"/><path d="M37.12,213.11H17.6v-1l1.44-.06c1.17-.12,1.87-.4,2.11-.84a7.16,7.16,0,0,0,.37-2.88l.06-2.76V176l-.06-2.46a9.91,9.91,0,0,0-.36-2.16q-.24-.72-2.16-.9l-2-.12v-1h16.2v36.24l.06,2.76a7.24,7.24,0,0,0,.36,2.85q.36.69,2.1.87l1.44.06Z" style="fill:#071e1f"/><path d="M96.09,213.11H78v-1c1.38,0,2.21-.22,2.46-.66a7.57,7.57,0,0,0,.39-3.12l.06-2.76V193.49L80.85,191a8.29,8.29,0,0,0-.62-3.72A2.32,2.32,0,0,0,78,186.17a3.71,3.71,0,0,0-2.29,1c-.82.66-1.36,2-1.64,3.87v14.58l.06,2.76a12.71,12.71,0,0,0,.21,2.76c.14.56.9.9,2.29,1v1h-17v-1c1.34,0,2.16-.22,2.43-.66a7.08,7.08,0,0,0,.42-3.12l.06-2.76V193.49L62.43,191a8.29,8.29,0,0,0-.62-3.72,2.32,2.32,0,0,0-2.23-1.14,2.9,2.9,0,0,0-2.77,1.32,13.25,13.25,0,0,0-1.16,2.7v15.42l.06,2.76a12.71,12.71,0,0,0,.21,2.76c.14.56.9.9,2.29,1v1h-18v-1l1.32-.06q1.74-.18,2.1-.84a7.21,7.21,0,0,0,.36-2.88l.06-2.76V191.27L44,188.81a9.91,9.91,0,0,0-.36-2.16q-.24-.72-2.16-.9l-1.38-.12v-1h15.3v4.5a9.24,9.24,0,0,1,2.13-3.39q1.59-1.71,6.45-1.71a11.67,11.67,0,0,1,5.85,1.41,8.53,8.53,0,0,1,3.69,4.23,17.41,17.41,0,0,1,1.59-3.36q1.29-2.28,7.29-2.28a11.37,11.37,0,0,1,7.08,2.28,7.07,7.07,0,0,1,3,5.88v13.38l.06,2.76a7.53,7.53,0,0,0,.33,2.88q.33.6,2.13.84l1.08.06Z" style="fill:#071e1f"/><path d="M122.32,193.37l-.06-2.46c0-3.12-1.1-4.68-3.28-4.68a3.26,3.26,0,0,0-3,1.32,14.41,14.41,0,0,0-1.39,2.7v15.36l.06,2.76a6.69,6.69,0,0,0,.44,3.12c.3.44,1.18.66,2.65.66v1H99.1v-1l1.44-.06q1.74-.18,2.1-.84a7.21,7.21,0,0,0,.36-2.88l.06-2.76V191.27l-.06-2.46a9.91,9.91,0,0,0-.36-2.16q-.24-.72-2.16-.9l-1.38-.12v-1h15.3v4.5a10.19,10.19,0,0,1,2.37-3.39q1.71-1.71,6.63-1.71a11.75,11.75,0,0,1,7.38,2.4,7,7,0,0,1,3.12,5.64v13.5l.06,2.76a7.24,7.24,0,0,0,.36,2.85q.36.69,2.1.87l1.32.06v1H119.16v-1c1.43,0,2.3-.23,2.62-.69a6.3,6.3,0,0,0,.48-3.09l.06-2.76Z" style="fill:#fc3"/><path d="M171.8,198.89A13.49,13.49,0,0,1,167,209.48a16.7,16.7,0,0,1-11.37,4.23,16.52,16.52,0,0,1-11.55-4.23,14.32,14.32,0,0,1,.06-21.18,17.69,17.69,0,0,1,22.92,0A13.54,13.54,0,0,1,171.8,198.89Zm-11.94-.06q0-.84-.12-3.36t-.12-3a12.54,12.54,0,0,0-1-5.34,3.25,3.25,0,0,0-3.09-2.1,3.2,3.2,0,0,0-2.94,2.19,12.35,12.35,0,0,0-1,5.25q0,1.14-.09,2.79t-.15,3.57q0,.84.12,3.45t.12,3a12.54,12.54,0,0,0,1,5.34,3.2,3.2,0,0,0,6-.06,12.31,12.31,0,0,0,1-5.28q0-1.2.06-2.85T159.86,198.83Z" style="fill:#071e1f"/><path d="M172.74,227v-1l2.1-.12a3.47,3.47,0,0,0,2.22-.75,3.83,3.83,0,0,0,.48-2.31l.06-2.46v-29.1l-.06-2.46a3.67,3.67,0,0,0-.51-2.28,3.49,3.49,0,0,0-2.25-.78l-1.92-.12v-1h16.2v3.54a9.64,9.64,0,0,1,2.12-2.76c1-.92,2.82-1.38,5.54-1.38a11.91,11.91,0,0,1,9.33,4q3.58,4,3.59,10.92,0,6.66-3.6,10.68a12,12,0,0,1-9.36,4c-2.78,0-4.62-.38-5.54-1.14a8,8,0,0,1-2-2.4l.06,3.54v5.7l.12,2.76a4.89,4.89,0,0,0,.8,2.73,4.07,4.07,0,0,0,2.47.93l2.85.18v1Zm16.62-18a3.27,3.27,0,0,0,1.34,2.28,4.17,4.17,0,0,0,2.47.78,3,3,0,0,0,2.77-1.8,11.24,11.24,0,0,0,1.16-4q.24-2.16.33-3.84t.09-3.66v-3.9q-.18-1.74-.39-3.63a9.9,9.9,0,0,0-1.16-3.66,3.12,3.12,0,0,0-2.92-1.77,3.31,3.31,0,0,0-2.29,1.05,4.3,4.3,0,0,0-1.34,2.55q-.12,1.44-.18,3.75t-.06,4.59v6.6Q189.18,207.11,189.36,209Z" style="fill:#071e1f"/><path d="M245.69,184.37l-.12,7.8v28.2l.06,2.46a3.68,3.68,0,0,0,.51,2.25,3.27,3.27,0,0,0,2.19.81L250,226v1H228.53v-1l1.41,0q.81,0,1.92-.15a2.32,2.32,0,0,0,1.59-.69,3.83,3.83,0,0,0,.48-2.31l.06-2.46v-10.2a7.61,7.61,0,0,1-2,2.37q-1.41,1.17-5.55,1.17a12,12,0,0,1-9.33-4.05q-3.63-4-3.63-10.65A13.86,13.86,0,0,1,218,188.15a16.71,16.71,0,0,1,11.58-4.08,12.09,12.09,0,0,1,7,1.71,25.71,25.71,0,0,1,4.14,3.51l4.32-4.92ZM234,198.83v-5.34a7.2,7.2,0,0,1-.12-1,13.13,13.13,0,0,0-.93-5.43,3.26,3.26,0,0,0-6.09.18,12.35,12.35,0,0,0-1,5.25q0,1.14-.09,2.79t-.15,3.57q0,.84.12,3.45t.12,3a10.48,10.48,0,0,0,1,4.89,3.56,3.56,0,0,0,5.76.84,4.27,4.27,0,0,0,1-2.19q.12-1.08.24-5.13T234,198.83Z" style="fill:#071e1f"/><path d="M250.2,423.11v-1l1.62-.06q1.74-.18,2.1-.84a7.21,7.21,0,0,0,.36-2.88l.06-2.76V191.27l-.06-2.46a9.91,9.91,0,0,0-.36-2.16q-.24-.72-2.16-.9l-1.56-.12v-1h15.6v5a20.85,20.85,0,0,1,1.76-3.24q1.37-2.16,6.28-2.16a6.66,6.66,0,0,1,4.89,2,6.52,6.52,0,0,1,2,4.77,6.12,6.12,0,0,1-1.89,4.59,6.43,6.43,0,0,1-4.65,1.83,5.47,5.47,0,0,1-3.93-1.59,4.91,4.91,0,0,1-1.65-3.63,6.93,6.93,0,0,1,.54-2.76q.6-1.14,1.2-2.34-.3-.42-.6-.42a3.24,3.24,0,0,0-2.7,1.86,6.73,6.73,0,0,0-1.14,3.48V416l.06,3a4.32,4.32,0,0,0,.41,2.28,2.92,2.92,0,0,0,2.07.78l1.78.12v1Z" style="fill:#071e1f"/><path d="M284.28,200.69h.78a28.84,28.84,0,0,0,3.12,7.14,11.74,11.74,0,0,0,3.39,3.42,8.29,8.29,0,0,0,4.47,1.14,4.18,4.18,0,0,0,2.58-.81,2.65,2.65,0,0,0,1.08-2.25,3.93,3.93,0,0,0-.84-2.76,11.83,11.83,0,0,0-2.64-1.95q-1.8-1.05-4.17-2.34a29.81,29.81,0,0,1-4-2.52,9.21,9.21,0,0,1-2.46-2.79,7.27,7.27,0,0,1-.87-3.6,8,8,0,0,1,3.36-6.87,13.65,13.65,0,0,1,8.22-2.43,11.23,11.23,0,0,1,4.32.84q2,1,4,2a1.71,1.71,0,0,0,1.44-1,4.65,4.65,0,0,0,.6-2.4h.84v12.06h-.78q-.48-1.44-1.2-3.18a15.78,15.78,0,0,0-2.07-3.51,11.36,11.36,0,0,0-2.85-2.73,7,7,0,0,0-3.84-1,4.34,4.34,0,0,0-2.73.81,2.45,2.45,0,0,0-1,2,3,3,0,0,0,.75,2.16,10.86,10.86,0,0,0,2.19,1.65q1.44.87,3.93,2.22t4.47,2.67a12,12,0,0,1,3.3,3.27,8.5,8.5,0,0,1-2.19,11.43,15,15,0,0,1-8.49,2.34,12.42,12.42,0,0,1-5-1.08q-2.4-1.2-4.74-2.46-.78,0-1.38,1.26a7.72,7.72,0,0,0-.72,2.7h-.84Z" style="fill:#fc3"/><path d="M315.7,187h-4.08v-1.62a14.56,14.56,0,0,0,4.26-2,29.49,29.49,0,0,0,4.25-3.42,29.87,29.87,0,0,0,3.38-3.81,22.45,22.45,0,0,0,2.08-3.36h1.69v11.94h7.8l-.83,2.28h-7v16.32l.12,3.06a5.82,5.82,0,0,0,1.13,3.9,3.86,3.86,0,0,0,6.26-.63,8.93,8.93,0,0,0,1.07-4.35h.84a9.42,9.42,0,0,1-2,5.91c-1.31,1.7-4.14,2.55-8.47,2.55a12.82,12.82,0,0,1-7.36-2.16,6.91,6.91,0,0,1-3.2-6.06Z" style="fill:#071e1f"/><path d="M56.32,417.11H40.54V273.27a9.7,9.7,0,0,1-3.39,3.3,11.31,11.31,0,0,1-5.55,1.14,11.63,11.63,0,0,1-7.32-2.46A7.82,7.82,0,0,1,21,268.59V255.27L21,252.81a3.68,3.68,0,0,0-.51-2.25,3.27,3.27,0,0,0-2.19-.81l-1.68-.12v-1h16v19.62l.06,2.46a6.41,6.41,0,0,0,.86,3.69,3,3,0,0,0,2.59,1.23,3.34,3.34,0,0,0,2.77-1.08,11.57,11.57,0,0,0,1.4-2.22v-16.2l-.12-2.76a4.08,4.08,0,0,0-.66-2.7,4.23,4.23,0,0,0-2.61-1l-1.83-.12v-1h16.8V410.51l.06,2.46a3.68,3.68,0,0,0,.51,2.25,3.27,3.27,0,0,0,2.19.81l1.68.12Z" style="fill:#071e1f"/><path d="M75.74,249.63q-.36,0-.72,0t-1.29.18q-.93.15-.93,1.41a4.75,4.75,0,0,0,.12,1.14,8.82,8.82,0,0,0,.42,1.2l4.56,12.12,4.26-11a11,11,0,0,0,.72-3.3,1.32,1.32,0,0,0-.42-1.14,3.52,3.52,0,0,0-1.32-.48l-1.92-.12v-1H89.3v1l-2.23.24A3,3,0,0,0,85.33,251,11.56,11.56,0,0,0,83.71,254c-.56,1.42-1.66,4.23-3.28,8.43l-3.7,9.6q-1.26,3.3-2,5.28H70.48q-1-2.58-2.52-6.51t-3.79-9.78q-2.28-5.85-3.12-7.89a18.45,18.45,0,0,0-1.24-2.61,1.75,1.75,0,0,0-1.17-.72,10.1,10.1,0,0,0-1.44-.18l-1,0v-1h19.5Z" style="fill:#071e1f"/><path d="M115.81,256.23l-1.26-3.48q-.48-1.2-.9-2a1.82,1.82,0,0,0-1.32-1l-1.32-.12v-1h18.36v1h-.9a6.72,6.72,0,0,0-1.32.18q-.84.18-.84,1.44a5.93,5.93,0,0,0,.06.84,22.1,22.1,0,0,0,.63,2.25q.57,1.83,1.83,5.43t2,5.7l4.14-10.8a12.38,12.38,0,0,0,.78-3.36q0-.9-.42-1.14a3.48,3.48,0,0,0-1.14-.36,11.92,11.92,0,0,0-1.23-.15l-1,0v-1h10.08v1l-2.18.24q-1.83.3-3.4,4.14l-8.88,23.34h-4.32l-7-19.68-7.74,19.68h-4.26q-.9-2.58-1.86-5.28L99,262.32q-2.49-7-3.3-9.15a17.46,17.46,0,0,0-1.17-2.64,1.64,1.64,0,0,0-1.08-.69,8.78,8.78,0,0,0-1.41-.18l-1.29,0v-1h18.9v1h-.42a6.47,6.47,0,0,0-1,.18q-.81.18-.81,1.44a5.93,5.93,0,0,0,.06.84A15.39,15.39,0,0,0,108,254q.48,1.47,1.62,4.83t2.4,6.78Z" style="fill:#071e1f"/><path d="M156.37,265.31l-7.17-12a14,14,0,0,0-2-2.69,3.64,3.64,0,0,0-2-.84l-1.69-.12v-1h20.28v1l-1.62.06a3.45,3.45,0,0,0-1.2.24c-.24.12-.36.4-.36.83a3.11,3.11,0,0,0,.09.69,6.3,6.3,0,0,0,.63,1.35l3,5.21,3.84-4.91a4.76,4.76,0,0,0,1-2.28c0-.75-.5-1.13-1.5-1.13l-1.38-.06v-1h10v1h-.67a10.75,10.75,0,0,0-1.3.12,5.48,5.48,0,0,0-1.67.51,11.26,11.26,0,0,0-2.54,2.36L165,259l8.1,13.53a13.64,13.64,0,0,0,2,2.75A3.71,3.71,0,0,0,177,276l1.26.12v1H158.41v-1l1.62-.06q1.5-.18,1.5-1.2a5.08,5.08,0,0,0-.66-1.92l-3.9-6.7-5,6.4a4.78,4.78,0,0,0-1,2.22q0,1,1.5,1.2l1.62.06v1H143.35v-1l1.87-.06a6.25,6.25,0,0,0,2.53-.84,10.35,10.35,0,0,0,2-1.8c.7-.8,1.7-2,3-3.59Z" style="fill:#fc3"/><path d="M183.53,252.75a14.14,14.14,0,0,0-1.2-2.13,2.14,2.14,0,0,0-1.26-.81l-2.34-.18v-1h19.62v1h-.9a6.53,6.53,0,0,0-1.23.15q-.75.15-.75,1.23a4.23,4.23,0,0,0,.24,1.23c.15.5.32,1,.48,1.47l4.68,11.16q.6-1.44,1.92-4.71t2.1-5.55a12.17,12.17,0,0,0,.78-3.3,1.64,1.64,0,0,0-.27-1.08,2.8,2.8,0,0,0-1.47-.48l-1.92-.12v-1h10.08v1l-.76,0q-.39,0-1.44.21a2.83,2.83,0,0,0-1.77,1.08,33.42,33.42,0,0,0-2.68,5.88q-2,5-4.2,10.56T196.19,279a45.13,45.13,0,0,1-5.23,9,8,8,0,0,1-6.52,3,6.88,6.88,0,0,1-4.42-1.62,5.14,5.14,0,0,1-2-4.2,5.66,5.66,0,0,1,1.62-4.08,5.55,5.55,0,0,1,4.16-1.68,5.33,5.33,0,0,1,4,1.5,4.91,4.91,0,0,1,1.45,3.54,4.77,4.77,0,0,1-1.13,3.3,5,5,0,0,0-1.13,1.5l1.13-.12a6.85,6.85,0,0,0,2.53-2.28,28.78,28.78,0,0,0,2.17-3.48c.64-1.2,1.31-2.62,2-4.26-.88-2.08-2-4.65-3.27-7.71s-2.75-6.43-4.32-10.11S184.45,254.75,183.53,252.75Z" style="fill:#071e1f"/><path d="M230.53,275.91q2.88,0,6.36-4.14a40.1,40.1,0,0,0,5.46-8.22h.79v13.56H212.71v-.54l18.12-26.64-3.23-.12q-3,0-6.46,3.9a36.13,36.13,0,0,0-5.54,8h-.79v-13H244v.54l-18.07,26.64Z" style="fill:#071e1f"/><g style="clip-path:url(#a)"><path d="M607,452H0V401.46a35.73,35.73,0,0,0,50.54,0h0a35.73,35.73,0,0,0,50.54,0h0a35.73,35.73,0,0,0,50.54,0h0a35.73,35.73,0,0,0,50.54,0,35.73,35.73,0,0,0,50.54,0h0a35.73,35.73,0,0,0,50.54,0h0a35.73,35.73,0,0,0,50.54,0,35.74,35.74,0,0,0,50.55,0c.16.17.34.32.51.49v-.49a35.14,35.14,0,0,0,50,0h0l.25.24.26-.24h0a35.14,35.14,0,0,0,50,0h0V402l.51-.49h0a35.73,35.73,0,0,0,50.54,0h0a35.73,35.73,0,0,0,50.54,0Z" style="fill:#071e1f"/></g><g style="clip-path:url(#b)"><path d="M150.42,436h-607V25.46a35.73,35.73,0,0,0,50.54,0h0a35.73,35.73,0,0,0,50.54,0h0a35.73,35.73,0,0,0,50.54,0h0a35.73,35.73,0,0,0,50.54,0,35.73,35.73,0,0,0,50.54,0h0a35.73,35.73,0,0,0,50.54,0h0a35.74,35.74,0,0,0,50.55,0,35.73,35.73,0,0,0,50.54,0c.16.17.34.32.51.49v-.49a35.6,35.6,0,0,0,25,10.46,35.64,35.64,0,0,0,25-10.46h0l.25.24.26-.24h0a35.6,35.6,0,0,0,25,10.46,35.64,35.64,0,0,0,25-10.46h0V26l.51-.49h0a35.73,35.73,0,0,0,50.54,0h0a35.73,35.73,0,0,0,50.54,0Z" style="fill:#fc3"/></g><g style="clip-path:url(#c)"><path d="M160.6,5.6h-607V-44.94a35.73,35.73,0,0,0,50.54,0h0a35.73,35.73,0,0,0,50.54,0h0a35.73,35.73,0,0,0,50.54,0h0a35.73,35.73,0,0,0,50.54,0,35.73,35.73,0,0,0,50.54,0h0a35.73,35.73,0,0,0,50.54,0h0a35.73,35.73,0,0,0,50.54,0,35.74,35.74,0,0,0,50.55,0c.16.17.34.32.51.49v-.49a35.6,35.6,0,0,0,25,10.46,35.64,35.64,0,0,0,25-10.46h0l.25.24L9-44.94H9A35.6,35.6,0,0,0,34-34.48,35.64,35.64,0,0,0,59-44.94h0v.49l.51-.49h0a35.73,35.73,0,0,0,50.54,0h0a35.73,35.73,0,0,0,50.54,0Z" style="fill:#fc3"/></g><g style="clip-path:url(#d)"><path d="M607,5.6H0V-44.94a35.73,35.73,0,0,0,50.54,0h0a35.73,35.73,0,0,0,50.54,0h0a35.73,35.73,0,0,0,50.54,0h0a35.73,35.73,0,0,0,50.54,0,35.73,35.73,0,0,0,50.54,0h0a35.73,35.73,0,0,0,50.54,0h0a35.73,35.73,0,0,0,50.54,0,35.74,35.74,0,0,0,50.55,0c.16.17.34.32.51.49v-.49a35.6,35.6,0,0,0,25,10.46,35.64,35.64,0,0,0,25-10.46h0l.25.24.26-.24h0a35.6,35.6,0,0,0,25,10.46,35.64,35.64,0,0,0,25-10.46h0v.49l.51-.49h0a35.73,35.73,0,0,0,50.54,0h0a35.73,35.73,0,0,0,50.54,0Z" style="fill:#071e1f"/></g></svg>