<svg xmlns="http://www.w3.org/2000/svg" xmlns:xlink="http://www.w3.org/1999/xlink" viewBox="0 0 432 432"><defs><clipPath id="a"><rect width="432" height="432" style="fill:none"/></clipPath><clipPath id="b"><rect y="-446.4" width="432" height="432" style="fill:none"/></clipPath></defs><title>fish-on-yellow</title><rect x="-69.52" y="-1028.28" width="2776.7" height="1737.39" style="fill:#fff"/><g style="clip-path:url(#a)"><path d="M596.82,436h-607V25.46a35.73,35.73,0,0,0,50.54,0h0a35.73,35.73,0,0,0,50.54,0h0a35.73,35.73,0,0,0,50.54,0h0a35.73,35.73,0,0,0,50.54,0,35.73,35.73,0,0,0,50.54,0h0a35.73,35.73,0,0,0,50.54,0h0a35.74,35.74,0,0,0,50.55,0,35.73,35.73,0,0,0,50.54,0c.16.17.34.32.51.49v-.49a35.6,35.6,0,0,0,25,10.46,35.64,35.64,0,0,0,25-10.46h0l.25.24.26-.24h0a35.6,35.6,0,0,0,25,10.46,35.64,35.64,0,0,0,25-10.46h0V26l.51-.49h0a35.73,35.73,0,0,0,50.54,0h0a35.73,35.73,0,0,0,50.54,0Z" style="fill:#fc3"/></g><path d="M167.28,243.08l17.45-18.77-28.16-36.76C148.13,177,144,177,144,177v77.57A36.86,36.86,0,0,0,167.28,243.08Zm120.72-27A38.9,38.9,0,0,1,249.09,255s-5.92-.58-14.46-11.21l-27.71-36.18,17.45-18.77a37.54,37.54,0,0,1,19.75-10.94,41.62,41.62,0,0,1,5-.71A38.91,38.91,0,0,1,288,216.06Z" style="fill:#071e1f"/><path d="M201.48,177H203a11.19,11.19,0,0,1,8.19,18.81l-7.26,7.82-9.48-12.38A8.86,8.86,0,0,1,201.48,177Zm-4.28,63.55-9.48-12.38L180.45,236a11.2,11.2,0,0,0,8.2,18.82h1.52A8.87,8.87,0,0,0,197.2,240.59Z" style="fill:#071e1f"/><path d="M259.27,192.38a11.4,11.4,0,0,0-2.76.33,6.79,6.79,0,1,1-8.55,8.55,11.4,11.4,0,0,0-.33,2.76,11.64,11.64,0,1,0,11.64-11.64Z" style="fill:#fff"/><g style="clip-path:url(#b)"><path d="M607,5.6H0V-44.94a35.73,35.73,0,0,0,50.54,0h0a35.73,35.73,0,0,0,50.54,0h0a35.73,35.73,0,0,0,50.54,0h0a35.73,35.73,0,0,0,50.54,0,35.73,35.73,0,0,0,50.54,0h0a35.73,35.73,0,0,0,50.54,0h0a35.73,35.73,0,0,0,50.54,0,35.74,35.74,0,0,0,50.55,0c.16.17.34.32.51.49v-.49a35.6,35.6,0,0,0,25,10.46,35.64,35.64,0,0,0,25-10.46h0l.25.24.26-.24h0a35.6,35.6,0,0,0,25,10.46,35.64,35.64,0,0,0,25-10.46h0v.49l.51-.49h0a35.73,35.73,0,0,0,50.54,0h0a35.73,35.73,0,0,0,50.54,0Z" style="fill:#fc3"/></g></svg>