<?xml version="1.0" encoding="UTF-8"?>
<svg id="Layer_1" data-name="Layer 1" xmlns="http://www.w3.org/2000/svg" viewBox="0 0 180 180">
  <defs>
    <style>
      .cls-1 {
        fill: #111822;
      }

      .cls-1, .cls-2 {
        stroke-width: 0px;
      }

      .cls-2 {
        fill: #1dff9e;
      }
    </style>
  </defs>
  <rect class="cls-1" width="180" height="180"/>
  <path class="cls-2" d="m130.73,68.94c-4.39-.79-11.88.4-14.44,1.51,1.27-1.81,7.56-4.6,13-5.15-15.01-33.99-63.57-33.97-78.57,0,5.45.54,11.27,2.88,13.04,5.16-2.57-1.12-10.12-2.19-14.49-1.51-4.36.68-7.78,4.58-7.78,9.55,0,11.32,3.02,20.07,8.98,26.14,15.05,16.98,39.52,35.56,39.52,35.56,0,0,23.4-17.52,39.85-35.88.06-.06.11-.13.17-.19.1-.11.2-.22.29-.32,0,0-.01,0-.02.01,5.45-6.03,8.21-14.5,8.21-25.32,0-4.97-3.39-8.76-7.78-9.55Zm-85.29,9.55c0-3.25,2.13-5.74,5.38-5.74,27.62,0,36.07,22.01,36.07,33.14,0,4.7-2.26,4.7-6.1,4.7-11.68,0-35.35-1.42-35.35-32.1Zm50.22,47.29c-5.19,1.84-10.23,1.12-12.78-2.16-2.11-2.72-.94-4.42-.94-4.42,0,0,1.97,1.63,3.75,1.87,4.45.59,12.77.07,13.04,2.08.09.69-1.26,1.99-3.07,2.63Zm3.56-15.19c-3.84,0-6.1,0-6.1-4.7,0-11.13,8.45-33.14,36.07-33.14,3.25,0,5.38,2.49,5.38,5.74,0,30.68-23.67,32.1-35.35,32.1Z"/>
</svg>