<?xml version="1.0" encoding="UTF-8"?>
<svg id="Layer_1" data-name="Layer 1" xmlns="http://www.w3.org/2000/svg" viewBox="0 0 32 32">
  <defs>
    <style>
      .cls-1 {
        fill: #1dff9e;
        stroke-width: 0px;
      }
    </style>
  </defs>
  <path class="cls-1" d="m28.98,9.29c-1.4-.25-3.79.13-4.6.48.4-.58,2.41-1.47,4.14-1.64-4.79-10.83-20.26-10.83-25.05,0,1.74.17,3.59.92,4.16,1.64-.82-.36-3.23-.7-4.62-.48s-2.48,1.46-2.48,3.04c0,3.61.96,6.4,2.86,8.33,4.8,5.41,12.6,11.34,12.6,11.34,0,0,7.46-5.58,12.7-11.44.02-.02.04-.04.05-.06.03-.03.06-.07.09-.1,0,0,0,0,0,0,1.74-1.92,2.62-4.62,2.62-8.07,0-1.58-1.08-2.79-2.48-3.04ZM1.79,12.33c0-1.03.68-1.83,1.71-1.83,8.81,0,11.5,7.02,11.5,10.56,0,1.5-.72,1.5-1.95,1.5-3.72,0-11.27-.45-11.27-10.23Zm16.01,15.07c-1.65.59-3.26.36-4.07-.69-.67-.87-.3-1.41-.3-1.41,0,0,.63.52,1.2.6,1.42.19,4.07.02,4.16.66.03.22-.4.63-.98.84Zm1.13-4.84c-1.22,0-1.95,0-1.95-1.5,0-3.55,2.69-10.56,11.5-10.56,1.03,0,1.71.79,1.71,1.83,0,9.78-7.54,10.23-11.27,10.23Z"/>
</svg>