<svg id="Layer_1" data-name="Layer 1" xmlns="http://www.w3.org/2000/svg" xmlns:xlink="http://www.w3.org/1999/xlink" viewBox="0 0 432 288"><defs><linearGradient id="linear-gradient" y1="146" x2="432" y2="146" gradientTransform="matrix(1, 0, 0, -1, 0, 290)" gradientUnits="userSpaceOnUse"><stop offset="0" stop-color="#f0f"/><stop offset="1" stop-color="blue"/></linearGradient></defs><rect width="432" height="288" fill="url(#linear-gradient)"/><path d="M142.74,158.74h-23a18.89,18.89,0,0,1-4.46-2.31,14.54,14.54,0,0,1-4.55-5.18,17,17,0,0,1,0-14.5,14.54,14.54,0,0,1,4.55-5.18,18.89,18.89,0,0,1,4.46-2.31h23c1,.35,2.1.74,3.13,1.17v7.66a29.52,29.52,0,0,0-2.75-1.41,22.86,22.86,0,0,0-3.18-1.26,26.37,26.37,0,0,0-3.83-.92,28.45,28.45,0,0,0-4.7-.36,23,23,0,0,0-6.66.83,11.65,11.65,0,0,0-4.23,2.2,7.62,7.62,0,0,0-2.22,3.15,10.76,10.76,0,0,0-.64,3.68,11.58,11.58,0,0,0,.27,2.49,8.07,8.07,0,0,0,2.59,4.31,9.73,9.73,0,0,0,2.57,1.58,16.65,16.65,0,0,0,3.59,1,25.88,25.88,0,0,0,4.73.38,30.86,30.86,0,0,0,4.7-.33,27.62,27.62,0,0,0,3.83-.88,24.12,24.12,0,0,0,3.18-1.25c1-.47,1.88-1,2.75-1.44v7.66A29.32,29.32,0,0,1,142.74,158.74Z" fill="#fff"/><polygon points="320.62 135 320.62 129.31 288.73 129.31 288.73 158.79 320.94 158.79 320.94 153 297.47 153 297.47 146.86 319.42 146.86 319.42 140.14 297.47 140.14 297.47 135 320.62 135" fill="#fff"/><path d="M151.25,131.65a18.18,18.18,0,0,1,4.45-2.39h22.4a18.18,18.18,0,0,1,4.42,2.39,14,14,0,0,1,4.26,5.19,17.92,17.92,0,0,1,0,14.32,14,14,0,0,1-4.26,5.19,17.67,17.67,0,0,1-4.42,2.39H155.68a17.85,17.85,0,0,1-4.45-2.39,13.91,13.91,0,0,1-4.31-5.19,17.76,17.76,0,0,1,0-14.32,13.91,13.91,0,0,1,4.31-5.19Zm2.8,12.35a11.74,11.74,0,0,0,.24,2.36,7.88,7.88,0,0,0,2.35,4.28,9.1,9.1,0,0,0,2.38,1.64,13.72,13.72,0,0,0,3.37,1.1,22.1,22.1,0,0,0,4.52.4,19.24,19.24,0,0,0,6.3-.87,10.6,10.6,0,0,0,3.91-2.27,7.55,7.55,0,0,0,2-3.15,11.31,11.31,0,0,0,0-7,7.55,7.55,0,0,0-2-3.15,10.6,10.6,0,0,0-3.91-2.27,19.24,19.24,0,0,0-6.3-.87,22.1,22.1,0,0,0-4.52.4,14,14,0,0,0-3.39,1.1,9.6,9.6,0,0,0-2.38,1.66,8.54,8.54,0,0,0-1.54,2,8.79,8.79,0,0,0-.81,2.27A11.75,11.75,0,0,0,154.05,144Z" fill="#fff"/><polygon points="255.12 158.73 256.87 158.73 255.12 156.63 255.12 158.73" fill="#fff"/><path d="M287.56,147.4a7.94,7.94,0,0,0-1.88-2.43,12.58,12.58,0,0,0-2.78-1.85,25.09,25.09,0,0,0-3.35-1.38c-1.19-.4-2.41-.75-3.67-1.05s-2.48-.57-3.67-.82l-3.36-.74a26.32,26.32,0,0,1-2.77-.75,7,7,0,0,1-1.88-.92,1.47,1.47,0,0,1-.69-1.2,1.44,1.44,0,0,1,.08-.46,1.32,1.32,0,0,1,.36-.51,3.59,3.59,0,0,1,.79-.49,6.84,6.84,0,0,1,1.4-.42,19.86,19.86,0,0,1,2.17-.3c.87-.08,1.91-.12,3.13-.12a29.06,29.06,0,0,1,4.47.34,36.36,36.36,0,0,1,4,.82,32.76,32.76,0,0,1,3.32,1c.8.29,1.59.63,2.36,1v-7.29c-.59-.19-1.22-.37-1.87-.55H260.21a10.19,10.19,0,0,0-2.58,1.57,7.93,7.93,0,0,0-2,2.51,8.18,8.18,0,0,0-.71,3,12.55,12.55,0,0,1,.12,1.84c0,.08,0,.16,0,.24a7,7,0,0,0,.56,1.67,7.78,7.78,0,0,0,1.87,2.36,12.21,12.21,0,0,0,2.78,1.76,26.87,26.87,0,0,0,3.36,1.31c1.18.37,2.4.7,3.65,1s2.47.53,3.66.77,2.3.47,3.36.71a26.46,26.46,0,0,1,2.77.78,6.42,6.42,0,0,1,1.88,1,1.69,1.69,0,0,1,.69,1.32,1.89,1.89,0,0,1-.35,1,3.06,3.06,0,0,1-1.3,1,11.24,11.24,0,0,1-2.67.73,28.38,28.38,0,0,1-4.42.29,36.1,36.1,0,0,1-8.6-1,29.23,29.23,0,0,1-7.17-2.73v5l2.33,2.81.39.48,24.8,0a10.61,10.61,0,0,0,2.66-1.61,8.22,8.22,0,0,0,2.14-2.75,8.57,8.57,0,0,0,.8-3.89A7,7,0,0,0,287.56,147.4Z" fill="#fff"/><path d="M183.05,158.73l15.43-29.48h10.57l15.43,29.48H215l-2.47-5H195l-2.47,5Zm15-11.12h11.51L203.81,136Z" fill="#fff"/><path d="M247.37,147.28a15.23,15.23,0,0,0,2.66-1.22,9.13,9.13,0,0,0,2.21-1.8,7.94,7.94,0,0,0,1.51-2.55,10.09,10.09,0,0,0,.56-3.49,12,12,0,0,0-.67-4.11,7.6,7.6,0,0,0-2.18-3.15,9.7,9.7,0,0,0-3-1.7H220.38v20l4.76,9.1.19.36h3.56V148.13h9.28l8.73,10.61h10Zm-1.92-7.47a2.16,2.16,0,0,1-.84,1,4.12,4.12,0,0,1-1.59.58,13.86,13.86,0,0,1-2.49.19H228.89v-6.76h11.62A14.83,14.83,0,0,1,243,135a4.12,4.12,0,0,1,1.61.69,2.11,2.11,0,0,1,.84,1A5.19,5.19,0,0,1,245.45,139.81Z" fill="#fff"/><polygon points="220.38 158.73 224.48 158.73 220.38 150.9 220.38 158.73" fill="#fff"/></svg>