<svg xmlns="http://www.w3.org/2000/svg" viewBox="0 0 432 432"><title>360-seal</title><rect x="-532.13" y="-68.52" width="1501.85" height="1501.85" style="fill:#fff"/><path d="M216,363.46c-81.31,0-147.46-66.15-147.46-147.46S134.69,68.54,216,68.54,363.46,134.69,363.46,216,297.31,363.46,216,363.46Zm0-293.4C135.53,70.06,70.06,135.53,70.06,216S135.53,361.94,216,361.94,361.94,296.47,361.94,216,296.47,70.06,216,70.06Zm0,284.2c-76.24,0-138.26-62-138.26-138.26S139.76,77.74,216,77.74s138.26,62,138.26,138.26S292.24,354.26,216,354.26Zm0-275C140.6,79.25,79.25,140.6,79.25,216S140.6,352.75,216,352.75,352.75,291.4,352.75,216,291.4,79.25,216,79.25ZM141.84,208.4c11.25,1.31,20.27,7.2,27.08,15.43a44.06,44.06,0,0,1,10.21,29c0,12.8-3.55,23.84-10.64,32s-17.37,11.74-27.75,11.74c-8.79,0-16.94-2.83-22.69-8.5s-8.61-12.16-8.61-19.5a14.56,14.56,0,0,1,3.42-9.84,10.71,10.71,0,0,1,8.44-4A11.92,11.92,0,0,1,130,258a11.25,11.25,0,0,1,3.3,8.38q0,6.86-7.71,11.5Q122,280.07,122,281.3a13.69,13.69,0,0,0,5.07,9.62,20.17,20.17,0,0,0,11.43,3.73c7.13.12,13.17-2.83,16-8.5s4.28-14.84,4.28-28.82c0-30.73-9.25-48.32-27.75-48.32H125v-1.56h3.55c18.18,0,27.27-12,27.27-33.65,0-12.72-1.07-23.2-3.67-29-2.93-6.57-7.83-8.79-13.58-8.87a16.85,16.85,0,0,0-10.33,3.67,13.71,13.71,0,0,0-4.71,9.32c0,.81,1,1.75,3.06,2.81a16.41,16.41,0,0,1,5.51,4.52,11.29,11.29,0,0,1,1.46,6.24,10.61,10.61,0,0,1-3.12,7.94,11.08,11.08,0,0,1-8.13,3.06A10.87,10.87,0,0,1,114,170a12.13,12.13,0,0,1-3.24-8.68q0-10.51,8.68-19c5.79-5.66,14.35-8.74,23.84-8.5,9.25.24,17.71,2.82,23.54,9.54s8.74,15.77,8.74,26q0,14.91-8.55,25.31c-5.71,6.93-14.11,11.06-25.19,13.67Zm64.93,0q8.55-10.26,18.46-10.27c7.83,0,14.68,3.79,20.55,12.47s8.8,20,8.8,32.89c0,15.17-3.3,28.36-9.91,38.46s-14.75,14.61-24.45,14.61c-10.19,0-18.52-5.42-25-17.36s-9.71-28.2-9.71-47.69q0-36.92,14.36-63.09t41.88-34.85v1.81c-21.85,10.76-33.67,36.42-35.46,72.53Zm27.51,68.13V218.8q0-7.47-3.05-12.23a9.54,9.54,0,0,0-8.44-4.77,16,16,0,0,0-12,5.38q-5.07,5.38-5.07,14.06v55.31c0,5.14,1,9,4.4,13.15,3,3.6,6.32,5.44,10.15,5.44s7.09-1.87,10-5.26C233.29,286.22,234.28,281.93,234.28,276.55Zm60.78-142.72c11.09,0,19.54,6.5,25.37,20.61s8.75,34.83,8.75,61.08-2.92,46.81-8.75,60.83-14.28,20.48-25.37,20.48-19.52-6.46-25.31-20.48-8.68-34.67-8.68-60.83,2.89-47,8.68-61.08S284,133.83,295.06,133.83ZM308.88,265.3V165.48q0-30.07-13.82-30.08t-13.82,30.08V265.3q0,30.07,13.82,30.08T308.88,265.3Z" style="fill:#141433"/><path d="M331.72,325.27h-3.39v-1.61H337v1.61h-3.39v8.63h-1.91Z" style="fill:#141433"/><path d="M347.87,333.9l0-6.79-3.36,5.62h-.85l-3.37-5.53v6.7h-1.81V323.66H340l4.07,6.79,4-6.79h1.56l0,10.24Z" style="fill:#141433"/></svg>