<svg xmlns="http://www.w3.org/2000/svg" viewBox="0 0 432 432"><title>360-inline</title><rect x="-71.33" y="-990.12" width="1501.85" height="1501.85" style="fill:#fff"/><path d="M133.82,281.27A65.27,65.27,0,1,1,199.09,216,65.35,65.35,0,0,1,133.82,281.27Zm0-129.88A64.61,64.61,0,1,0,198.43,216,64.69,64.69,0,0,0,133.82,151.39Z" style="fill:#141433"/><path d="M133.82,277.2A61.2,61.2,0,1,1,195,216,61.26,61.26,0,0,1,133.82,277.2Zm0-121.73A60.54,60.54,0,1,0,194.35,216,60.6,60.6,0,0,0,133.82,155.47Z" style="fill:#141433"/><path d="M101,212.64a18.07,18.07,0,0,1,12,6.83,19.52,19.52,0,0,1,4.52,12.82c0,5.67-1.57,10.56-4.71,14.19a15.93,15.93,0,0,1-12.29,5.19,14.1,14.1,0,0,1-10-3.76,11.81,11.81,0,0,1-3.81-8.63,6.43,6.43,0,0,1,1.51-4.36,4.76,4.76,0,0,1,3.74-1.76,5.29,5.29,0,0,1,3.84,1.43,5,5,0,0,1,1.46,3.71q0,3-3.41,5.09c-1.05.65-1.57,1.16-1.57,1.52a6,6,0,0,0,2.25,4.25,8.83,8.83,0,0,0,5.06,1.65c3.15.06,5.83-1.25,7.09-3.76s1.89-6.56,1.89-12.75c0-13.61-4.09-21.39-12.28-21.39H93.52v-.7h1.57c8,0,12.07-5.29,12.07-14.89,0-5.63-.47-10.27-1.62-12.86a6.13,6.13,0,0,0-6-3.92A7.47,7.47,0,0,0,95,182.16a6.07,6.07,0,0,0-2.08,4.13c0,.36.45.77,1.35,1.24a7.29,7.29,0,0,1,2.44,2,5,5,0,0,1,.65,2.76,4.7,4.7,0,0,1-1.38,3.52,4.94,4.94,0,0,1-3.6,1.36,4.8,4.8,0,0,1-3.65-1.52,5.35,5.35,0,0,1-1.44-3.84,11.54,11.54,0,0,1,3.84-8.42,14.43,14.43,0,0,1,10.56-3.76c4.09.1,7.84,1.24,10.42,4.22a17.27,17.27,0,0,1,3.87,11.53,17.06,17.06,0,0,1-3.79,11.2c-2.53,3.07-6.24,4.9-11.15,6.06Z" style="fill:#141433"/><path d="M129.73,212.65q3.79-4.56,8.18-4.55c3.46,0,6.49,1.68,9.09,5.52s3.9,8.86,3.9,14.56c0,6.71-1.46,12.55-4.39,17s-6.53,6.47-10.82,6.47c-4.51,0-8.2-2.4-11.07-7.68s-4.3-12.49-4.3-21.12q0-16.34,6.36-27.92a31.25,31.25,0,0,1,18.54-15.43v.8c-9.68,4.76-14.91,16.12-15.7,32.11Zm12.18,30.15V217.24a9.92,9.92,0,0,0-1.35-5.42,4.24,4.24,0,0,0-3.74-2.11,7.1,7.1,0,0,0-5.33,2.39,8.67,8.67,0,0,0-2.24,6.22V242.8a8.24,8.24,0,0,0,1.95,5.82,5.36,5.36,0,0,0,8.9.08A8.54,8.54,0,0,0,141.91,242.8Z" style="fill:#141433"/><path d="M168.82,179.63c4.9,0,8.65,2.87,11.23,9.12s3.87,15.42,3.87,27-1.29,20.72-3.87,26.92-6.33,9.07-11.23,9.07-8.64-2.86-11.21-9.07-3.84-15.34-3.84-26.92,1.28-20.8,3.84-27S163.91,179.63,168.82,179.63Zm6.11,58.2V193.64q0-13.32-6.11-13.32t-6.12,13.32v44.19q0,13.3,6.12,13.31T174.93,237.83Z" style="fill:#141433"/><path d="M222.08,236h7.41v1.23H208.2V236h5.55V210.08H208.2v-1.23h5.55v-3.21a16.24,16.24,0,0,1,1.87-7.81,14,14,0,0,1,5.23-5.47,14.87,14.87,0,0,1,7.83-2,9.49,9.49,0,0,1,4.57,1,7.69,7.69,0,0,1,2.93,2.64,6.18,6.18,0,0,1,1,3.37,5,5,0,0,1-1.34,3.7,4.58,4.58,0,0,1-3.41,1.35,5.77,5.77,0,0,1-3.43-1.12,3.94,3.94,0,0,1-1.57-3.44,4.54,4.54,0,0,1,1.43-3.52,4.91,4.91,0,0,1,3.38-1.29,5.6,5.6,0,0,1,1.73.37,9.4,9.4,0,0,0-1.76-1.18,6.62,6.62,0,0,0-3.24-.67,5.47,5.47,0,0,0-5.3,3.23c-1.07,2.15-1.61,5.19-1.61,9.1v4.94h12.59a5.19,5.19,0,0,0-1.85,1.23H222.08Zm66.43-21.23a5.6,5.6,0,0,1-1.33,3.72,4.67,4.67,0,0,1-3.79,1.59,5.4,5.4,0,0,1-3.7-1.31,4.62,4.62,0,0,1-1.48-3.63,4.51,4.51,0,0,1,1.69-3.66,6.17,6.17,0,0,1,4.05-1.4,3.22,3.22,0,0,0-1.26-.4,10.93,10.93,0,0,0-1.39-.09,5.43,5.43,0,0,0-3.69,1.29,9.1,9.1,0,0,0-2.37,3.38,19.4,19.4,0,0,0-1.27,4.52,29.47,29.47,0,0,0-.39,4.69V236h4.32v1.23H259.24a14.81,14.81,0,0,1-3.77.62,10.07,10.07,0,0,1-5-1.24,4.42,4.42,0,0,1-2.17-4.19v-.59c-1.53,4-4.73,6-9.63,6a8.66,8.66,0,0,1-6-2.09,7,7,0,0,1-2.34-5.5,7.9,7.9,0,0,1,3.47-6.51q3.48-2.62,10-2.62h4.45v-2.72a17.28,17.28,0,0,0-.51-4.34,6.21,6.21,0,0,0-1.77-3.13,5.15,5.15,0,0,0-3.59-1.16,9.44,9.44,0,0,0-2.59.29,5.45,5.45,0,0,0-1.66.75,6.67,6.67,0,0,1,1.85.46,4.16,4.16,0,0,1,1.7,1.25,3.51,3.51,0,0,1,.7,2.3,3.79,3.79,0,0,1-1.66,3.27,6,6,0,0,1-3.52,1.18,4.9,4.9,0,0,1-3.41-1.21,4,4,0,0,1-1.34-3.11,4.57,4.57,0,0,1,1.6-3.46,10.94,10.94,0,0,1,4.24-2.31,18.91,18.91,0,0,1,5.76-.83,18.61,18.61,0,0,1,7.87,1.34,7.82,7.82,0,0,1,3.87,3.63,11.57,11.57,0,0,1,1.09,5.08v14.87a2.14,2.14,0,0,0,.59,1.54,2.19,2.19,0,0,0,1.7.62,2.85,2.85,0,0,0,2.79-2.68h1.26a3.56,3.56,0,0,1-1.65,3.24H265V210.08h-4.32v-1.23h12.95v6.26a11.54,11.54,0,0,1,2.72-4.93,7.76,7.76,0,0,1,8.62-1.13,6.94,6.94,0,0,1,2.59,2.28A6,6,0,0,1,288.51,214.77Zm-40.25,7.59H246a5.76,5.76,0,0,0-4.56,2,7.18,7.18,0,0,0-1.73,4.86,7.82,7.82,0,0,0,.8,3.68,2.78,2.78,0,0,0,2.65,1.5,4.21,4.21,0,0,0,2.33-.78,5.83,5.83,0,0,0,2-2.61,12.36,12.36,0,0,0,.81-4.94Zm113.86,1a9.91,9.91,0,0,0-3.45-3,23.91,23.91,0,0,0-4.47-1.86c-1.58-.48-3.07-.93-4.47-1.33a14.66,14.66,0,0,1-3.44-1.4,2.37,2.37,0,0,1-1.34-2.11,3.21,3.21,0,0,1,.93-2.43,5.35,5.35,0,0,1,2.21-1.26,8.16,8.16,0,0,1,2.29-.38,8.69,8.69,0,0,1,4.42,1.12,11.79,11.79,0,0,1,3.27,2.8,16.63,16.63,0,0,1,2.12,3.3h1.23v-8.64h-.93l-3.12,2.69a11.21,11.21,0,0,0-3.09-1.9,10.37,10.37,0,0,0-4-.73,10.22,10.22,0,0,0-5.07,1.21,9.19,9.19,0,0,0-3.2,12.6,9.69,9.69,0,0,0,3.34,3A23,23,0,0,0,349.7,227L354,228.3a12.64,12.64,0,0,1,3.33,1.5,2.72,2.72,0,0,1,1.29,2.37,3.24,3.24,0,0,1-1,2.52,6.21,6.21,0,0,1-2.64,1.37,12.56,12.56,0,0,1-3.3.43,9.24,9.24,0,0,1-6-2.3,16.1,16.1,0,0,1-4.38-5.91H340V236h-4.25V217.55a10.83,10.83,0,0,0-2-6.67c-1.32-1.76-3.47-2.65-6.47-2.65q-4.24,0-6.34,2.16a11.66,11.66,0,0,0-2.9,5.15,9.09,9.09,0,0,0-2.25-5.27c-1.25-1.36-3.17-2-5.78-2a8.36,8.36,0,0,0-6.35,2.3,13.12,13.12,0,0,0-3.09,5.45v-7.13h-13v1.23H292V236h-4.32v1.23H303.8V236h-3.21V223.47a23.65,23.65,0,0,1,.76-6.07,13.68,13.68,0,0,1,2.12-4.74,4,4,0,0,1,3.23-1.84,2.23,2.23,0,0,1,2.3,1.76,21.14,21.14,0,0,1,.54,5.65V236h-3.27v1.23h15.17V236h-3.27V223.47a28.45,28.45,0,0,1,.64-6.07,13.24,13.24,0,0,1,1.93-4.74,3.85,3.85,0,0,1,3.23-1.84,2.48,2.48,0,0,1,2.45,1.76,16.45,16.45,0,0,1,.7,5.65V236h-3.21v1.23h17l3.19-2.41a11.43,11.43,0,0,0,3.63,2.23,12.5,12.5,0,0,0,4.53.8,13.52,13.52,0,0,0,5.39-1.09,9.85,9.85,0,0,0,4.17-3.24,8.71,8.71,0,0,0,1.61-5.36A7.92,7.92,0,0,0,362.12,223.41Z" style="fill:#141433"/><path d="M367.69,209.71H365.9v-.85h4.58v.85h-1.79v4.55h-1Z" style="fill:#141433"/><path d="M376.19,214.26v-3.58l-1.77,3H374l-1.77-2.91v3.53h-.95v-5.4h.82l2.14,3.58,2.11-3.58h.82v5.4Z" style="fill:#141433"/></svg>