<svg xmlns="http://www.w3.org/2000/svg" viewBox="0 0 216 216"><title>anti-matter</title><path d="M140,119.69V79.22a6.54,6.54,0,0,1,1.68-4.38h0a6.61,6.61,0,0,0-5-11H79.33a6.61,6.61,0,0,0-5,11h0A6.54,6.54,0,0,1,76,79.22v40.47a6.58,6.58,0,0,1-1.12,3.67L19.14,205.71A6.62,6.62,0,0,0,24.74,216H191.26a6.62,6.62,0,0,0,5.6-10.29l-55.71-82.35A6.58,6.58,0,0,1,140,119.69Z"/><circle cx="93.42" cy="11.99" r="11.99"/><circle cx="115.51" cy="41.37" r="18.55"/><path d="M38.65,158.41a37.81,37.81,0,0,1,5.66-8.35A56.82,56.82,0,0,1,51.69,143a62.79,62.79,0,0,1,18.22-10c1.67-.55,3.35-1.12,5.06-1.54s3.44-.78,5.18-1.14,3.49-.58,5.26-.71,3.52-.28,5.29-.36a82.61,82.61,0,0,1,10.56.48l2.62.33c.87.13,1.73.29,2.59.45,1.77.3,3.36.63,5,1,12.8,2.83,25,6.8,36.89,10.17s23.76,6.06,37,6.08a52.5,52.5,0,0,1-19.09,6.3,92.32,92.32,0,0,1-20.2.39c-13.32-1.14-25.92-4-38.19-6.63-1.54-.32-3.09-.67-4.48-.91l-2.14-.42-2.14-.34c-1.44-.25-2.87-.39-4.3-.59s-2.87-.25-4.31-.34c-2.88-.22-5.76-.17-8.65-.12-1.44.09-2.9.12-4.33.3s-2.89.29-4.35.48a88.74,88.74,0,0,0-17.35,4.36A95.34,95.34,0,0,0,38.65,158.41Z" style="fill:#fff"/><path d="M-6,192.11a71.44,71.44,0,0,1,12.4-9.84,113.51,113.51,0,0,1,13.94-7.66,133.74,133.74,0,0,1,30.5-9.79,147.26,147.26,0,0,1,32.22-2.7,162.25,162.25,0,0,1,32.15,4.09c18.59,4.26,36.81,6.86,55.46,6a241.42,241.42,0,0,0,28.76-3.14l15-2.41c5.08-.79,10.24-1.53,15.51-1.91-4.16,3.26-8.4,6.24-12.74,9.09-2.17,1.45-4.38,2.79-6.61,4.16s-4.51,2.61-6.81,3.89a126.92,126.92,0,0,1-29.93,11.73,122.65,122.65,0,0,1-32.72,3.44A158,158,0,0,1,109,192.79a264.21,264.21,0,0,0-27.74-5c-4.67-.54-9.37-1-14.09-1.3S57.73,186.05,53,186a266.32,266.32,0,0,0-29,1.36A257.31,257.31,0,0,0-6,192.11Z" style="fill:#fff"/></svg>