<svg xmlns="http://www.w3.org/2000/svg" viewBox="0 0 72 72"><title>day</title><path d="M61.9,37.61A25.9,25.9,0,1,1,36,11.71,25.9,25.9,0,0,1,61.9,37.61ZM36,1.61a3.58,3.58,0,1,0,3.58,3.57A3.58,3.58,0,0,0,36,1.61ZM7.85,15.16a3.58,3.58,0,1,0,5-.57A3.59,3.59,0,0,0,7.85,15.16ZM.9,45.62a3.58,3.58,0,1,0,2.69-4.29A3.59,3.59,0,0,0,.9,45.62ZM20.38,70a3.58,3.58,0,1,0-1.67-4.78A3.58,3.58,0,0,0,20.38,70Zm31.24,0a3.58,3.58,0,1,0-4.78-1.67A3.58,3.58,0,0,0,51.62,70ZM71.1,45.62a3.58,3.58,0,1,0-4.29,2.69A3.58,3.58,0,0,0,71.1,45.62ZM64.15,15.16a3.58,3.58,0,1,0-.57,5A3.59,3.59,0,0,0,64.15,15.16Z"/></svg>