<svg id="Layer_1" data-name="Layer 1" xmlns="http://www.w3.org/2000/svg" viewBox="0 0 143.62 37.91"><defs><style>.cls-1{fill:#243847;}</style></defs><title>logo-wordmark</title><path class="cls-1" d="M.57,8.44h9.74c3.45,0,5.83,2,5.83,4.81a4.63,4.63,0,0,1-2.69,4.29A5.41,5.41,0,0,1,17,22.47c0,3.08-2.64,5.21-6.3,5.21H.57Zm8.71,7.75c1.54,0,2.63-.89,2.63-2.12S10.82,12,9.28,12H4.68v4.22Zm.64,8c1.65,0,2.83-1,2.83-2.35s-1.18-2.36-2.83-2.36H4.68v4.71Zm8.44,3.53V12.89H22l.14,2.24a4.39,4.39,0,0,1,1.51-1.81,4,4,0,0,1,2.25-.63,4.11,4.11,0,0,1,.78.07,5.07,5.07,0,0,1,.7.18l-.42,3.87a2.91,2.91,0,0,0-.63-.16c-.21,0-.43,0-.66,0a3.11,3.11,0,0,0-2.49,1,4.13,4.13,0,0,0-.87,2.81v7.26Zm14.31.42a6.17,6.17,0,0,1-2.1-.34,5,5,0,0,1-1.67-1,4.61,4.61,0,0,1-1.1-1.47,4.39,4.39,0,0,1-.4-1.85A4.18,4.18,0,0,1,28.16,21a5.14,5.14,0,0,1,2.13-1.67,7.93,7.93,0,0,1,3.19-.6,8.88,8.88,0,0,1,1.75.17,9.13,9.13,0,0,1,1.62.48v-.87a2.93,2.93,0,0,0-.72-2.05,2.49,2.49,0,0,0-2-.78,3.17,3.17,0,0,0-1.68.46,2.47,2.47,0,0,0-1.06,1.3l-3.5-.7a4.78,4.78,0,0,1,1.22-2.25A6,6,0,0,1,31.38,13a8,8,0,0,1,5.47-.09,5.87,5.87,0,0,1,2,1.29,5.66,5.66,0,0,1,1.31,2,6.59,6.59,0,0,1,.47,2.53v9H37.15L37,25.94a4.4,4.4,0,0,1-1.71,1.56A5.53,5.53,0,0,1,32.67,28.1Zm-1.4-4.82a1.58,1.58,0,0,0,.65,1.29,2.69,2.69,0,0,0,1.7.5,3.48,3.48,0,0,0,1.66-.39,3,3,0,0,0,1.15-1.08,2.89,2.89,0,0,0,.42-1.53v-.14a8.83,8.83,0,0,0-1.32-.4,6.76,6.76,0,0,0-1.4-.16,3.73,3.73,0,0,0-2.09.52A1.61,1.61,0,0,0,31.27,23.28ZM58.19,8.1V27.68H54.1V25.61A6,6,0,0,1,49.22,28c-3.86,0-6.66-3.13-6.66-7.59s2.8-7.56,6.66-7.56a6,6,0,0,1,4.88,2.41V8.1ZM54.1,20.42c0-2.4-1.54-4.11-3.7-4.11a3.83,3.83,0,0,0-3.86,4.11,3.84,3.84,0,0,0,3.86,4.15C52.56,24.57,54.1,22.86,54.1,20.42ZM71,23.11l2.6,2.66A8.82,8.82,0,0,1,67.71,28,7.44,7.44,0,0,1,60,20.4a7.3,7.3,0,0,1,7.45-7.54c4.54,0,7.2,3.45,7.2,8.91H64.24a3.52,3.52,0,0,0,3.45,2.63A5.25,5.25,0,0,0,71,23.11ZM64.3,18.83h6.47a3,3,0,0,0-3.11-2.35A3.49,3.49,0,0,0,64.3,18.83Zm25.94-.37v9.22H86.29V19.33a2.75,2.75,0,0,0-2.74-3,2.88,2.88,0,0,0-3,2.8l0-.09v8.66H76.41V13.2H80.5V15a5.14,5.14,0,0,1,4.37-2.16A5.28,5.28,0,0,1,90.24,18.46Zm5.13-8v6.33h10.45v2.07H95.37v6.7H107v2.07H93.16V8.44H107v2.07ZM113.55,28.1a6,6,0,0,1-2.69-.58A4.46,4.46,0,0,1,109,25.94a4.22,4.22,0,0,1-.65-2.32,4.08,4.08,0,0,1,.74-2.47,4.77,4.77,0,0,1,2.09-1.61,7.94,7.94,0,0,1,3.13-.58,9.61,9.61,0,0,1,2,.23,9.81,9.81,0,0,1,1.85.59V18.71a4.38,4.38,0,0,0-.47-2.06,3.43,3.43,0,0,0-1.27-1.37,3.6,3.6,0,0,0-1.91-.49,4.19,4.19,0,0,0-2.28.62,3.78,3.78,0,0,0-1.44,1.73l-2-.67a5,5,0,0,1,1.22-1.93,5.73,5.73,0,0,1,2-1.26,6.85,6.85,0,0,1,2.5-.45,6.08,6.08,0,0,1,3,.74,5.18,5.18,0,0,1,2,2.08,6.42,6.42,0,0,1,.71,3.12v8.91h-2l-.14-2.24a4.72,4.72,0,0,1-1.86,1.93A5.54,5.54,0,0,1,113.55,28.1Zm-2.91-4.57a2.44,2.44,0,0,0,.41,1.42,2.92,2.92,0,0,0,1.18.94,4.32,4.32,0,0,0,1.74.33,4.27,4.27,0,0,0,2.17-.55,4,4,0,0,0,2.09-3.62v-.54a12.94,12.94,0,0,0-1.87-.57,8.06,8.06,0,0,0-1.78-.21,4.87,4.87,0,0,0-2.9.76A2.37,2.37,0,0,0,110.64,23.53Zm17.54,4.57a6.64,6.64,0,0,1-2.37-.42,5.46,5.46,0,0,1-1.92-1.21,5.17,5.17,0,0,1-1.23-1.85l2-.72a4.36,4.36,0,0,0,1.46,1.65,3.67,3.67,0,0,0,2.05.59,4.1,4.1,0,0,0,1.62-.31,2.56,2.56,0,0,0,1.09-.86,2,2,0,0,0,.4-1.21c0-1.22-.88-2-2.64-2.36l-1.09-.22a6.86,6.86,0,0,1-3.39-1.47,3.39,3.39,0,0,1-1.09-2.59,4,4,0,0,1,.64-2.24,4.2,4.2,0,0,1,1.81-1.53,6.07,6.07,0,0,1,2.65-.55,6.14,6.14,0,0,1,2.26.41,4.77,4.77,0,0,1,1.78,1.19,5.23,5.23,0,0,1,1.14,1.85l-2,.67a3.68,3.68,0,0,0-1.27-1.61,3.29,3.29,0,0,0-1.92-.57,3.54,3.54,0,0,0-1.47.28,2.47,2.47,0,0,0-1,.75,1.81,1.81,0,0,0-.36,1.12,1.72,1.72,0,0,0,.68,1.43,5.35,5.35,0,0,0,2.23.84l1.1.23a6.26,6.26,0,0,1,3.16,1.47,3.54,3.54,0,0,1,1.09,2.67,4.14,4.14,0,0,1-.4,1.84,4.6,4.6,0,0,1-1.12,1.44,5.08,5.08,0,0,1-1.71,1A6.63,6.63,0,0,1,128.18,28.1Zm14.88-1a4.4,4.4,0,0,1-2.69.92,3.47,3.47,0,0,1-3.53-3.69V15.08h-2.27V13.2h2.27v-4h2.1v4h3.56v1.88h-3.56v9.24a1.69,1.69,0,0,0,1.57,1.82,2.07,2.07,0,0,0,1.51-.59Z"/></svg>