<svg xmlns="http://www.w3.org/2000/svg" viewBox="0 0 216 216"><title>meseeks</title><path d="M113.2,37.12c3.8-4.88,9-12.17,7.62-14C118.71,20.41,109.51,30,109.51,30s6.65-13.53,4.4-15S102,24.87,102,24.87s5.68-19.58.37-20.06c-7.7-.7-6.11,24.29-6.11,24.29s-2.63-12.59-5.86-12.59c-2.45,0-.22,14.34,1,21.38a81.78,81.78,0,1,0,21.79-.77ZM81.91,100.57a10,10,0,1,1,10,10A10,10,0,0,1,81.91,100.57Zm25.53,0a10,10,0,1,1,10,10A10,10,0,0,1,107.44,100.57Zm11-38.2c.44.11,10.79,2.73,17.11,6.79l-3.2,5c-5.5-3.54-15.24-6-15.34-6Zm-26.62,0,1.44,5.73c-.1,0-9.86,2.5-15.35,6l-3.19-5C81.06,65.1,91.41,62.48,91.85,62.37ZM134.1,179.93c-1.85-4.19-5.18-9.26-10.29-8.31-4.18.78-4.54,6.4-4.1,11.07-1,.11-2.1.21-3.16.29-1.35-4-3.85-8.3-8.43-8.15-3.67.12-5.08,4.26-5.56,8.41q-1.61,0-3.21,0c-.87-3.85-2.78-7.7-6.93-8.17-3.5-.4-5.46,3.14-6.57,7-1-.17-2-.34-3-.54.52-4.28.1-9.37-4.2-11.19-4-1.68-7.44,3-9.63,7.17-15-6-25.67-16.59-25.67-31.2,0-23.07,10.43-24.1,25-20.75-.85,4-2.67,15,3.3,16.08,6.92,1.29,10.57-8.43,11.7-12.1l1.07.28c-.32,4.77-.64,19.28,7.1,19.53,8.32.27,11.15-11.12,12-16.34l1.38,0c.64,5.67,2.73,16.57,9.33,15.82,8.63-1,9.25-14.05,9.22-18.39l.47-.12c1.82,4.53,5,10.19,9.39,8.73,5.05-1.69,5.4-8,4.93-12.56,16.5-4.33,28.81-5.28,28.81,19.79C167,163.15,152.83,174.65,134.1,179.93Z"/></svg>