<svg xmlns="http://www.w3.org/2000/svg" viewBox="0 0 432 396.79"><title>pattern</title><path d="M156.07-72.46A60.16,60.16,0,0,0,97.5-26,51.36,51.36,0,0,0,51.35-54.84h0A51.35,51.35,0,0,0,0-3.49V24.72s.24,2.78.71,0a51.37,51.37,0,0,1,50.64-42.8h0A51.37,51.37,0,0,1,97.5,10.74a60.16,60.16,0,0,1,118,4.56c.46,3,.7,0,.7,0V-12.3A60.16,60.16,0,0,0,156.07-72.46ZM216.23,54.91V82.55s-.24,3-.7,0A60.16,60.16,0,0,0,97.5,78,51.37,51.37,0,0,0,51.35,49.13h0A51.37,51.37,0,0,0,.71,91.93c-.47,2.78-.71,0-.71,0V63.72A51.35,51.35,0,0,1,51.35,12.37h0A51.36,51.36,0,0,1,97.5,41.18,60.16,60.16,0,0,1,216.23,54.91Zm-60.16,5.36A60.16,60.16,0,0,0,97.5,106.7,51.36,51.36,0,0,0,51.35,77.89h0A51.35,51.35,0,0,0,0,129.24v28.21s.24,2.78.71,0a51.36,51.36,0,0,1,50.64-42.79h0A51.36,51.36,0,0,1,97.5,143.47a60.16,60.16,0,0,1,118,4.56c.46,3,.7,0,.7,0V120.43A60.16,60.16,0,0,0,156.07,60.27Zm60.16,127.37v27.64s-.24,2.95-.7,0a60.16,60.16,0,0,0-118-4.56,51.36,51.36,0,0,0-46.15-28.81h0A51.36,51.36,0,0,0,.71,224.66c-.47,2.78-.71,0-.71,0V196.45A51.35,51.35,0,0,1,51.35,145.1h0A51.36,51.36,0,0,1,97.5,173.91a60.16,60.16,0,0,1,118.73,13.73ZM156.07,193A60.17,60.17,0,0,0,97.5,239.43a51.36,51.36,0,0,0-46.15-28.81h0A51.35,51.35,0,0,0,0,262v28.21s.24,2.78.71,0a51.37,51.37,0,0,1,50.64-42.79h0A51.36,51.36,0,0,1,97.5,276.2a60.16,60.16,0,0,1,118,4.57c.46,3,.7,0,.7,0V253.16A60.17,60.17,0,0,0,156.07,193Zm60.16,127.37V348s-.24,2.95-.7,0a60.16,60.16,0,0,0-118-4.57A51.36,51.36,0,0,0,51.35,314.6h0A51.37,51.37,0,0,0,.71,357.39c-.47,2.79-.71,0-.71,0V329.18a51.35,51.35,0,0,1,51.35-51.35h0A51.36,51.36,0,0,1,97.5,306.64a60.16,60.16,0,0,1,118.73,13.73Zm-60.16,5.36A60.17,60.17,0,0,0,97.5,372.17a51.37,51.37,0,0,0-46.15-28.82h0A51.35,51.35,0,0,0,0,394.7v28.22s.24,2.78.71,0a51.37,51.37,0,0,1,50.64-42.8h0A51.36,51.36,0,0,1,97.5,408.93a60.16,60.16,0,0,1,118,4.57c.46,3,.7,0,.7,0V385.89A60.17,60.17,0,0,0,156.07,325.73ZM216.23,453.1v27.64s-.24,3-.7,0a60.16,60.16,0,0,0-118-4.57,51.36,51.36,0,0,0-46.15-28.81h0A51.37,51.37,0,0,0,.71,490.13c-.47,2.78-.71,0-.71,0V461.91a51.35,51.35,0,0,1,51.35-51.35h0A51.37,51.37,0,0,1,97.5,439.38,60.16,60.16,0,0,1,216.23,453.1ZM432,374.8V347.16s-.24-3-.69,0a60.16,60.16,0,0,1-118,4.56,51.34,51.34,0,0,1-46.15,28.82h0a51.38,51.38,0,0,1-50.64-42.8c-.46-2.78-.71,0-.71,0V366a51.35,51.35,0,0,0,51.35,51.35h0a51.35,51.35,0,0,0,46.15-28.81A60.16,60.16,0,0,0,432,374.8Zm-60.16-5.36A60.16,60.16,0,0,1,313.27,323a51.35,51.35,0,0,1-46.15,28.81h0a51.35,51.35,0,0,1-51.35-51.35V272.26s.25-2.78.71,0a51.37,51.37,0,0,0,50.64,42.79h0a51.35,51.35,0,0,0,46.15-28.81,60.16,60.16,0,0,0,118-4.56c.45-3,.69,0,.69,0v27.64A60.15,60.15,0,0,1,371.84,369.44ZM432,242.07V214.43s-.24-3-.69,0a60.16,60.16,0,0,1-118,4.56,51.35,51.35,0,0,1-46.15,28.81h0a51.37,51.37,0,0,1-50.64-42.79c-.46-2.78-.71,0-.71,0v28.21a51.35,51.35,0,0,0,51.35,51.35h0a51.35,51.35,0,0,0,46.15-28.81A60.16,60.16,0,0,0,432,242.07Zm-60.16-5.36a60.18,60.18,0,0,1-58.57-46.43,51.35,51.35,0,0,1-46.15,28.81h0a51.35,51.35,0,0,1-51.35-51.35V139.53s.25-2.78.71,0a51.37,51.37,0,0,0,50.64,42.79h0a51.35,51.35,0,0,0,46.15-28.81,60.17,60.17,0,0,0,118-4.57c.45-3,.69,0,.69,0v27.64A60.16,60.16,0,0,1,371.84,236.71ZM432,109.34V81.7s-.24-3-.69,0a60.17,60.17,0,0,1-118,4.57,51.35,51.35,0,0,1-46.15,28.81h0a51.37,51.37,0,0,1-50.64-42.79c-.46-2.78-.71,0-.71,0v28.21a51.35,51.35,0,0,0,51.35,51.35h0a51.35,51.35,0,0,0,46.15-28.81A60.16,60.16,0,0,0,432,109.34ZM371.84,104a60.17,60.17,0,0,1-58.57-46.44,51.36,51.36,0,0,1-46.15,28.82h0A51.35,51.35,0,0,1,215.77,35V6.8s.25-2.79.71,0a51.38,51.38,0,0,0,50.64,42.79h0a51.35,51.35,0,0,0,46.15-28.81,60.17,60.17,0,0,0,118-4.57c.45-3,.69,0,.69,0V43.82A60.16,60.16,0,0,1,371.84,104ZM432-23.39V-51s-.24-3-.69,0A60.18,60.18,0,0,1,371.84,0a60.18,60.18,0,0,1-58.57-46.43,51.35,51.35,0,0,1-46.15,28.81h0a51.38,51.38,0,0,1-50.64-42.79c-.46-2.79-.71,0-.71,0V-32.2a51.35,51.35,0,0,0,51.35,51.35h0A51.36,51.36,0,0,0,313.27-9.67a60.17,60.17,0,0,0,58.57,46.44A60.16,60.16,0,0,0,432-23.39Z" style="fill:gray;opacity:0.12"/></svg>