<svg xmlns="http://www.w3.org/2000/svg" viewBox="0 0 216 216"><title>portal</title><path d="M108,10.52a72.22,72.22,0,0,0-27.79,5.57q-2.68,3.73-5.2,7.52A171.45,171.45,0,0,0,59.25,52.89a122.87,122.87,0,0,0-5.2,15.16q-1,3.81-1.7,7.63c-.49,2.53-.85,5.07-1.09,7.59-1,10,0,19.87,3.42,28.31a44.13,44.13,0,0,0,6.85,11.56c.73.87,1.47,1.7,2.27,2.52L65,126.92l1.27,1.19a45.4,45.4,0,0,0,5.3,4.16,31.93,31.93,0,0,0,11.54,4.88,27.42,27.42,0,0,0,12.39-.49c8.27-2.23,16.29-8.58,19.66-17.29a23.49,23.49,0,0,0,.86-14.34A37.72,37.72,0,0,0,108,90.37,32.16,32.16,0,0,1,122.46,102a30.13,30.13,0,0,1,4.13,9.29,32.7,32.7,0,0,1,.77,10.51,37.94,37.94,0,0,1-2.53,10.36,43.51,43.51,0,0,1-5.31,9.3A44.51,44.51,0,0,1,102.66,155a45.13,45.13,0,0,1-22,4,50.1,50.1,0,0,1-21.22-6.61,60.9,60.9,0,0,1-8.82-6.12c-.67-.57-1.35-1.14-2-1.72l-1.91-1.78c-1.27-1.24-2.5-2.55-3.68-3.89a62.71,62.71,0,0,1-11-18.31,68.93,68.93,0,0,1-4.55-20.41A81.61,81.61,0,0,1,28.61,80a91.69,91.69,0,0,1,2.58-10.67,115.56,115.56,0,0,0-7.44,41.14c0,40.44,20.23,75.27,49.33,91l1.67-.61a218.28,218.28,0,0,0,20.41-8.83,141.82,141.82,0,0,0,18.61-10.86c1.48-1,2.85-2.06,4.26-3.1s2.74-2.15,4-3.28a86.48,86.48,0,0,0,7.4-7A70.83,70.83,0,0,0,140.82,152a62.27,62.27,0,0,0,6.35-36.67,80.14,80.14,0,0,0-13.92-35.87c-.93-1.32-1.89-2.61-2.9-3.85-.25-.3-.5-.64-.74-.92l-.7-.82c-.46-.58-1-1.07-1.43-1.6a33.41,33.41,0,0,0-6.12-5.16,23,23,0,0,0-13.79-3.94A25.3,25.3,0,0,0,87.82,74.68a22.87,22.87,0,0,0-1.95,3.66,27.66,27.66,0,0,0-1.26,4,25,25,0,0,0-.28,8.91,33.46,33.46,0,0,0,3,9.46c2.95,6.37,7.81,12.29,13.26,18a54.92,54.92,0,0,1-10.91-4.93,47.32,47.32,0,0,1-9.84-7.63,46.5,46.5,0,0,1-4.22-5,41.06,41.06,0,0,1-3.41-5.85,36.57,36.57,0,0,1-3.45-13.72A38.72,38.72,0,0,1,74,60.31a42.43,42.43,0,0,1,4.27-6.12A44.67,44.67,0,0,1,127.52,41c1.25.41,2.42.95,3.63,1.44s2.35,1.08,3.45,1.72a55.71,55.71,0,0,1,12,8.87c.86.85,1.74,1.69,2.53,2.57l1.21,1.32c.4.44.73.86,1.1,1.29,1.44,1.71,2.8,3.47,4.11,5.26a99.58,99.58,0,0,1,12.58,23.21,96.43,96.43,0,0,1,6.08,25.83,86.4,86.4,0,0,1-1.68,26.89,80.44,80.44,0,0,1-10.27,25,85.13,85.13,0,0,1-7.95,10.71c-1.44,1.67-3,3.25-4.49,4.81s-3.15,3-4.81,4.4a103.91,103.91,0,0,1-21.12,14A139.37,139.37,0,0,1,94.5,209.2a71.84,71.84,0,0,0,13.5,1.28c46.53,0,84.25-44.76,84.25-100S154.53,10.52,108,10.52Z"/></svg>