<svg id="Layer_1" data-name="Layer 1" xmlns="http://www.w3.org/2000/svg" viewBox="0 0 1080 720"><rect width="1080" height="720" fill="#5cffe0"/><path d="M223.89,390.54,242,373.42a42,42,0,0,0,28.34,11.23c11.24,0,16.61-5.37,16.61-9.77,0-2.93-2.93-3.42-14.16-6.35-19-4.89-33.72-8.8-33.72-26.87,0-20.52,18.07-36.14,45.44-36.14,15.15,0,28.82,4.89,38.6,14.17l-16.62,18.57c-8.3-6.84-18.07-9.29-24.42-9.29-9.78,0-14.66,5.38-14.66,9.77,0,3.43,3.42,4.41,14.17,6.85,23,5.37,33.22,10.75,33.22,26.38,0,22-20.52,36.15-46.9,36.15C250.27,408.13,234.14,401.29,223.89,390.54Zm99.67-32.74c0-30.29,29.8-57.65,62.05-57.65,17.12,0,31.27,7.81,39.09,18.07l-23,16.6c-2.93-5.37-9.29-9.28-17.59-9.28-16.61,0-32.24,15.64-32.24,31.76,0,12.7,9.28,20,19,20,7.33,0,17.12-4.41,23-10.76l17.6,19.55c-10.72,9.78-28.32,16.67-43,16.67C344.07,402.26,323.56,382.72,323.56,357.8ZM537.07,257.64l-20.52,99.18H488.7l7.82-38.11H460.37l-7.82,38.11H424.7l20.51-99.18h27.85l-7.32,36.14h36.14l7.33-36.14ZM454,368.06h29.8v57.17l31.27-57.17h30.29l6.84,57.17,24.44-57.17h30.77l-47.87,99.19H531.2l-8.79-57.17-33.22,57.17H460.85ZM571.76,257.64h27.85l-20.52,99.18H551.24Zm78.66,81.1-2.94,14.17h46.9L689,377.83H641.63L634.29,413H606.44L627,313.84h79.64l-5.38,24.91Zm70.39-36.14H691.46l5.38-24.92h86.47l-5.37,24.92H748.63L733,376.86H705.14Zm61.07,77.69-24.46-66.46h25.89l15.15,42,31.27-42H861l-51.79,66.45L801.88,413H774Z" fill="#f4e192"/><path d="M232.18,384.51,249.5,368.1a40.2,40.2,0,0,0,27.17,10.76c10.78,0,15.93-5.15,15.93-9.36,0-2.81-2.82-3.28-13.58-6.09-18.24-4.68-32.33-8.43-32.33-25.76C246.69,318,264,303,290.26,303c14.51,0,27.63,4.68,37,13.58l-15.92,17.79a38.78,38.78,0,0,0-23.43-8.9c-9.36,0-14.05,5.15-14.05,9.37,0,3.27,3.29,4.21,13.59,6.56,22,5.15,31.85,10.3,31.85,25.29,0,21.08-19.68,34.65-45,34.65C257.47,401.35,242,394.79,232.18,384.51Zm95.54-31.91c0-29,28.58-55.27,59.49-55.27,16.41,0,30,7.5,37.47,17.33l-22,15.91c-2.82-5.15-8.9-8.89-16.87-8.89-15.92,0-30.91,15-30.91,30.44,0,12.18,8.9,19.21,18.24,19.21,7,0,16.41-4.22,22-10.31L412,379.76c-10.31,9.37-27.17,15.92-41.22,15.92a43,43,0,0,1-43.07-42.89Zm204.69-95.55-19.67,95.12H486l7.5-36.53H458.88l-7.49,36.53H424.68l19.68-95.08h26.69l-7,34.64h34.65l7-34.64ZM452.78,362.91h28.58V417.7l30-54.79h29l6.56,54.79,23.41-54.79h29.51L554,458H526.79l-8.43-54.8L486.51,458H459.34ZM565.66,257.05h26.69l-19.63,95.12H546Zm75.45,77.79-2.81,13.58h45l-5.15,23.89H632.64l-7,33.73h-26.7L618.59,311H694.9l-5.15,23.89Zm67.47-34.65H680.41l5.15-23.88h82.9l-5.18,23.87H735.21l-15,71.2h-26.7Zm58.54,74.48L743.71,311h24.82l14.52,40.28L813,311h30l-49.63,63.7-7,31.38H759.56Z" fill="#000056"/></svg>