<svg id="Layer_1" data-name="Layer 1" xmlns="http://www.w3.org/2000/svg" xmlns:xlink="http://www.w3.org/1999/xlink" viewBox="0 0 432 288"><defs><linearGradient id="linear-gradient" y1="144" x2="432" y2="144" gradientUnits="userSpaceOnUse"><stop offset="0" stop-color="#f0f"/><stop offset="1" stop-color="blue"/></linearGradient></defs><rect width="432" height="288" fill="url(#linear-gradient)"/><path d="M142.74,158.74h-23a18.79,18.79,0,0,1-4.46-2.31,14.51,14.51,0,0,1-4.55-5.18,16.94,16.94,0,0,1,0-14.5,14.59,14.59,0,0,1,4.55-5.18,18.79,18.79,0,0,1,4.46-2.31h23c1,.35,2.1.74,3.13,1.17v7.66c-.87-.48-1.78-1-2.75-1.41a23.41,23.41,0,0,0-3.18-1.26,27.24,27.24,0,0,0-3.83-.92,27.81,27.81,0,0,0-4.7-.36,22.78,22.78,0,0,0-6.66.83,11.7,11.7,0,0,0-4.23,2.2,7.66,7.66,0,0,0-2.22,3.15,10.72,10.72,0,0,0-.64,3.68,11.58,11.58,0,0,0,.27,2.49,8.09,8.09,0,0,0,.92,2.31,8.51,8.51,0,0,0,1.67,2,9.59,9.59,0,0,0,2.57,1.58,16.81,16.81,0,0,0,3.59,1,26.49,26.49,0,0,0,4.73.38,30.29,30.29,0,0,0,4.7-.33,27.39,27.39,0,0,0,3.83-.88,24.8,24.8,0,0,0,3.18-1.25c1-.47,1.88-.95,2.75-1.44v7.66C144.84,158,143.79,158.39,142.74,158.74ZM320.62,135v-5.69H288.73v29.48h32.21V153H297.47v-6.14h21.95v-6.72H297.47V135ZM220.38,147V129.26h28.08a9.59,9.59,0,0,1,3,1.7,7.57,7.57,0,0,1,2.18,3.15,11.89,11.89,0,0,1,.67,4.11,10,10,0,0,1-.56,3.49,8.05,8.05,0,0,1-1.51,2.55,9.18,9.18,0,0,1-2.21,1.8,14.9,14.9,0,0,1-2.66,1.22l9.5,11.46H246.9l-8.73-10.61h-9.28v10.61h-2.35Zm8.51-5.42h11.64a13.41,13.41,0,0,0,2.49-.19,4.16,4.16,0,0,0,1.59-.58,2.17,2.17,0,0,0,.84-1,5.19,5.19,0,0,0,0-3.12,2.08,2.08,0,0,0-.84-1A4.16,4.16,0,0,0,243,135a14.45,14.45,0,0,0-2.49-.18H228.89Zm-45.84,17.19,15.43-29.48h10.57l15.43,29.48H215l-2.47-5H195l-2.47,5Zm15-11.12h11.51L203.81,136Zm-46.8-16a18.15,18.15,0,0,1,4.45-2.39H178.1a18.13,18.13,0,0,1,4.42,2.39,14,14,0,0,1,4.26,5.19,17.95,17.95,0,0,1,0,14.32,14,14,0,0,1-4.26,5.19,17.79,17.79,0,0,1-4.42,2.39H155.68a17.82,17.82,0,0,1-4.45-2.39,14,14,0,0,1-4.31-5.19,17.73,17.73,0,0,1,0-14.32A14,14,0,0,1,151.23,131.65ZM154.05,144a11.89,11.89,0,0,0,.24,2.36,8.38,8.38,0,0,0,.81,2.28,8.13,8.13,0,0,0,1.54,2,9.09,9.09,0,0,0,2.38,1.64,14,14,0,0,0,3.37,1.1,22.46,22.46,0,0,0,4.52.4,19.28,19.28,0,0,0,6.3-.87,10.57,10.57,0,0,0,3.91-2.27,7.59,7.59,0,0,0,2-3.15,11.34,11.34,0,0,0,0-7,7.59,7.59,0,0,0-2-3.15,10.57,10.57,0,0,0-3.91-2.27,19.28,19.28,0,0,0-6.3-.87,22.46,22.46,0,0,0-4.52.4A14,14,0,0,0,159,135.7a9.38,9.38,0,0,0-2.38,1.66,8.56,8.56,0,0,0-1.54,2,8.69,8.69,0,0,0-.81,2.27A11.74,11.74,0,0,0,154.05,144Zm101.6-10.59a8.17,8.17,0,0,0-.73,3.6,6.72,6.72,0,0,0,.69,3.11,7.69,7.69,0,0,0,1.87,2.36,12.44,12.44,0,0,0,2.78,1.76,26.67,26.67,0,0,0,3.36,1.31c1.18.37,2.4.7,3.65,1s2.47.53,3.66.77,2.3.47,3.36.71a25.9,25.9,0,0,1,2.77.78,6.44,6.44,0,0,1,1.88,1,1.68,1.68,0,0,1,.69,1.32,1.87,1.87,0,0,1-.35,1,3.08,3.08,0,0,1-1.3,1,11.33,11.33,0,0,1-2.67.73,27.71,27.71,0,0,1-4.42.29,35.9,35.9,0,0,1-8.6-1,29.06,29.06,0,0,1-7.17-2.73v3.44l3.94,4.75.16.18h23.42a10.6,10.6,0,0,0,2.66-1.61,8.2,8.2,0,0,0,2.14-2.75,8.63,8.63,0,0,0,.8-3.89,6.88,6.88,0,0,0-.68-3.14,8,8,0,0,0-1.88-2.43,12.69,12.69,0,0,0-2.78-1.85,24.48,24.48,0,0,0-3.35-1.38c-1.19-.4-2.41-.75-3.67-1.05s-2.48-.57-3.67-.82l-3.36-.74a28.23,28.23,0,0,1-2.77-.75,7,7,0,0,1-1.88-.92,1.47,1.47,0,0,1-.69-1.2,1.65,1.65,0,0,1,.08-.46,1.33,1.33,0,0,1,.36-.51,3.39,3.39,0,0,1,.79-.49,6.4,6.4,0,0,1,1.4-.42,20.73,20.73,0,0,1,2.17-.3c.87-.08,1.91-.12,3.13-.12a29.75,29.75,0,0,1,4.47.34,37.86,37.86,0,0,1,4,.82,34.61,34.61,0,0,1,3.32,1.05,25.32,25.32,0,0,1,2.36,1v-7.29c-.59-.19-1.22-.37-1.87-.55H260.21a10.29,10.29,0,0,0-2.58,1.57A7.88,7.88,0,0,0,255.65,133.41Z" fill="#fff"/></svg>