<svg xmlns="http://www.w3.org/2000/svg" viewBox="0 0 99.13 97">
    <defs>
        <style>.cls-1{fill:#b6ced3;}</style>
    </defs>
    <path class="cls-1" d="M26.36,2.47A16.33,16.33,0,0,0,11.54,19.32c.19,6.8-.29,15-2.7,21.91C5.75,50.08,5.71,64.42,6.18,74.6A16.36,16.36,0,0,0,19.23,89.91c7,1.43,15.61,2.23,21.55-.36,6.74-2.93,22.52-1,34.75,1.17A16.38,16.38,0,0,0,94.71,76.23c1-9.33,1-20.38-2.43-28.08-2.69-6.08-3.23-14-2.88-21.4A16.39,16.39,0,0,0,71.61,9.58c-6.41.57-13.28.05-19.1-3C44.26,2.32,34.45,1.81,26.36,2.47Z" />
</svg>