<svg xmlns="http://www.w3.org/2000/svg" 
	xmlns:xlink="http://www.w3.org/1999/xlink" x="0px" y="0px" data-icon="typography" viewBox="0 0 100 100" xml:space="preserve">
	<path fill="currentColor" d="M50,0C22.4,0,0,22.4,0,50c0,27.6,22.4,50,50,50c27.6,0,50-22.4,50-50C100,22.4,77.6,0,50,0z M87.3,38.8
	c-3-3-7.5-4.5-14.2-4.5c-6.4,0-10.9,1.2-15.1,2.9l2.7,9.2c3.3-1.3,6.3-2.1,10.2-2.1c5,0,7.4,2.2,7.4,6.1V51
	c-2.1-0.8-5.5-1.4-8.9-1.4C63,49.5,58.1,51.8,56,56l6.8,16.2c1.4,0.4,2.9,0.6,4.5,0.6c4.9,0,8.4-1.9,10.9-4.7V72h10.8
	C81.5,85.7,66.8,95,50,95s-31.5-9.3-39.2-23h8.7l3.4-8.6h18.6L45,72h14.3L38.8,23.5H26L8,66.1c-1.9-5-3-10.4-3-16.1
	C5,25.2,25.2,5,50,5s45,20.2,45,45c0,6.3-1.3,12.4-3.7,17.8V50.6C91.3,45.4,90.1,41.6,87.3,38.8z M78.6,56.8v1.7
	c0,3.7-2.7,6.1-6.5,6.1c-2.7,0-4.6-1.5-4.6-4.1v-0.1c0-2.8,2.2-4.6,6-4.6C75.4,55.9,77.3,56.3,78.6,56.8z M26.9,53.1l5.4-13.7
	l5.4,13.7H26.9z" />
</svg>