<svg xmlns="http://www.w3.org/2000/svg" viewBox="0 0 432 432"><title>judes-stacked</title><rect x="-139.54" y="-141.11" width="2240.39" height="1814.65" style="fill:#fff"/><path d="M2100.35-140.61V1673H-139V-140.61H2100.35m1-1H-140V1674H2101.35V-141.61Z"/><path d="M132.27,303.79l3-9.06a5.91,5.91,0,0,0,2.85.75c1.51,0,2.63-1.09,2.63-3.63V262h12.06V292c0,8.13-4.89,13.38-12.79,13.38A17.39,17.39,0,0,1,132.27,303.79Z" style="fill:#736357"/><ellipse cx="146.81" cy="253.11" rx="6.81" ry="6.48" style="fill:#736357"/><path d="M188,262v31.55H176.55v-3a11.68,11.68,0,0,1-8.67,3.58c-6.15,0-12.29-4.44-12.29-14.71V262h12.07V277.2c0,4.5,1.51,6,4,6,2.18,0,4.31-1.67,4.31-6.35V262Z" style="fill:#736357"/><path d="M223.38,250.78v42.8H211.93V291c-1.85,2.13-4.59,3.17-8.39,3.17-8,0-14.19-5.57-14.19-16.36,0-10.61,6.18-16.35,14.19-16.35,3.35,0,5.93.87,7.77,2.71V250.78Zm-11.84,27c0-4.1-2.18-6.18-5-6.18s-5.41,1.54-5.41,6.2,2.61,6.21,5.41,6.21S211.54,281.87,211.54,277.78Z" style="fill:#736357"/><path d="M248.6,282.22l6.51,6.86c-3,3.35-7.23,5.08-13.19,5.08-11.09,0-17.35-7.38-17.35-16.36A16.29,16.29,0,0,1,241,261.45c8.78,0,16.39,5.65,16.39,16.15l-20.63,4.16c1,2,2.87,2.76,5.57,2.76A9,9,0,0,0,248.6,282.22Zm-12.69-6.64,9.65-2a4.6,4.6,0,0,0-4.52-3.29C238.23,270.33,236.29,272,235.91,275.58Z" style="fill:#736357"/><path d="M270.2,266.53c0,1.55-.11,3-2,7.27l-2.91,6.51H258l2-7.61a6.54,6.54,0,0,1-3.48-6.17,6.86,6.86,0,1,1,13.71,0Z" style="fill:#736357"/><path d="M270,291l3.47-8.59a21.61,21.61,0,0,0,10.69,2.82c3.08,0,3.92-.57,3.92-1.5,0-3.23-17.63,1.1-17.63-11.53,0-5.94,5.37-10.79,15.67-10.79,4.47,0,9.23.87,12.48,2.6l-3.47,8.59a17.71,17.71,0,0,0-8.84-2.31c-3.25,0-4.14.75-4.14,1.5,0,3.29,17.57-1,17.57,11.66,0,5.71-5.21,10.67-15.84,10.67C278.63,294.16,273.15,292.89,270,291Z" style="fill:#736357"/><path d="M160.87,298.5v6.2H160v-2.77h-3.52v2.77h-.88v-6.2h.88v2.66H160V298.5Z" style="fill:#534741"/><path d="M169.18,303.93v.77h-4.45v-6.2h4.33v.77h-3.45v1.9h3.07v.75h-3.07v2Z" style="fill:#534741"/><path d="M177.71,301.22v3.48h-.87V303H173.3v1.71h-.86v-3.48A2.64,2.64,0,1,1,177.71,301.22Zm-.87,1v-1.08a1.77,1.77,0,1,0-3.54,0v1.08Z" style="fill:#534741"/><path d="M181.52,298.5h.88v5.43h3.32v.77h-4.2Z" style="fill:#534741"/><path d="M189.4,299.27h-2.1v-.77h5.07v.77h-2.1v5.43h-.87Z" style="fill:#534741"/><path d="M200.67,298.5v6.2h-.88v-2.77h-3.52v2.77h-.88v-6.2h.88v2.66h3.52V298.5Z" style="fill:#534741"/><path d="M213.34,304.79l-.81-.82a2.87,2.87,0,0,1-3.77.19c-1.08-1.1.05-2.32,1.06-2.91-1.24-1.25-.61-3.13,1.31-2.77a1.27,1.27,0,0,1,1.13,1.26c0,.78-.69,1.26-1.3,1.62l1.51,1.52a3.88,3.88,0,0,0,.38-1.12l.67.22a4.06,4.06,0,0,1-.53,1.41l.82.84ZM212,303.47l-1.75-1.75c-.64.36-1.58,1.12-.91,1.92S211.42,304.07,212,303.47Zm-2.17-3.65c0,.32.13.55.62,1.06.48-.27,1.47-.86.94-1.55A.91.91,0,0,0,209.86,299.82Z" style="fill:#534741"/><path d="M220.22,303.87l.5-.6c.76,1.09,2.33.94,2.33-.52v-3.48h-2.21v-.77h3.08v4.2a1.87,1.87,0,0,1-1.09,1.93A2.26,2.26,0,0,1,220.22,303.87Z" style="fill:#534741"/><path d="M232.92,301.22v3.48h-.87V303h-3.54v1.71h-.86v-3.48A2.64,2.64,0,1,1,232.92,301.22Zm-.87,1v-1.08a1.77,1.77,0,1,0-3.54,0v1.08Z" style="fill:#534741"/><path d="M241.86,298.5l-2.69,6.2h-.87l-2.69-6.2h.94l2.21,5.09L241,298.5Z" style="fill:#534741"/><path d="M249.81,301.22v3.48h-.87V303H245.4v1.71h-.86v-3.48A2.64,2.64,0,1,1,249.81,301.22Zm-.87,1v-1.08a1.77,1.77,0,1,0-3.54,0v1.08Z" style="fill:#534741"/><path d="M263.22,298.5v6.2h-.87v-2.77h-3.52v2.77H258v-6.2h.88v2.66h3.52V298.5Z" style="fill:#534741"/><path d="M266.64,301.6c0-4.12,6.52-4.13,6.52,0S266.64,305.72,266.64,301.6Zm5.64,0c0-3.11-4.76-3.07-4.76,0S272.28,304.71,272.28,301.6Z" style="fill:#534741"/><path d="M276.51,302V298.5h.88V302a1.74,1.74,0,1,0,3.46,0V298.5h.85V302A2.6,2.6,0,1,1,276.51,302Z" style="fill:#534741"/><path d="M285,304l.32-.69c.65.59,4,1.33,3.51-.43-.22-.84-1.67-.86-2.33-1.09a1.65,1.65,0,0,1-1.2-2.3c.69-1.42,3.07-1.27,4.16-.5l-.29.71c-.67-.44-3.85-.92-3.1.78.34.77,1.77.76,2.45,1a1.58,1.58,0,0,1,.94,2.38C288.54,305.22,286,305,285,304Z" style="fill:#534741"/><path d="M297.49,303.93v.77H293v-6.2h4.33v.77h-3.45v1.9H297v.75h-3.07v2Z" style="fill:#534741"/><text transform="translate(299.72 269.36)" style="font-size:10.508919715881348px;fill:#736357;font-family:Montserrat-Bold, Montserrat;font-weight:700">™</text><path d="M208.36,157.72a18.21,18.21,0,0,1-4.7-8.81c-1-4.94.18-10,2.06-14.63a62.12,62.12,0,0,1,6.43-11.51,76.87,76.87,0,0,0,2.06,12.68c.88,4,1.87,8,2.92,12,.22.84.44,1.67.67,2.5a73.26,73.26,0,0,0,5.84-20.05,20.28,20.28,0,0,0-.17-7.12,26.59,26.59,0,0,1,9,20c-.07,5.22-1.6,11-5.15,14.93a30.49,30.49,0,0,0-5.68,10,15.55,15.55,0,0,0-1.11,4.11c0,.44.15,3.29.85,3.26.27,0,1-1.45,1.16-1.71a17.9,17.9,0,0,1,1.48-1.66c1.3-1.3,2.66-2.53,3.88-3.91,5-5.64,7.41-13,8.9-20.26,3.34,5.82,6,12.43,5.76,19.24a23.83,23.83,0,0,1-4.81,13.34,49.29,49.29,0,0,1-9.29,9.13c-1.45,1.17-2.93,2.3-4.37,3.48-.95.78-2.57,1.8-3,3a11.35,11.35,0,0,0-.44,2.83c-.14,1.4-.23,2.8-.31,4.2-.11,1.83-.19,3.67-.25,5.51,1.06-4.68,5.23-7.41,8.83-10.11a45.84,45.84,0,0,0,13.54-15.24,65.67,65.67,0,0,0,6-17.74c2.66,7.7,4.39,16,3.28,24.19a32.33,32.33,0,0,1-6.76,15.77,53.35,53.35,0,0,1-11.25,10.11c-3.4,2.4-7,4.53-10.21,7.25a12,12,0,0,0-3.19,3.86,27.12,27.12,0,0,0-1.45,5c-.35,1.47-.68,3-1,4.43-.81-4.27-1.3-9.11-4.69-12.16-2.83-2.54-6.28-4.38-9.45-6.43A55.1,55.1,0,0,1,192.44,208a33.54,33.54,0,0,1-7.81-14.93c-2.11-9.08-.75-18.67,1.69-27.54,1.74,9.11,5.34,17.94,11.67,24.83,4,4.35,8.88,7.41,13.7,10.72,1.58,1.09,3.42,2.32,4.27,4.11q.09-2.68,0-5.37c0-1.59.22-3.85-1.06-5-2.3-2.07-5.1-3.55-7.69-5.21a39.34,39.34,0,0,1-8.65-7.09,22.91,22.91,0,0,1-5.31-11.6c-1.11-7.4.87-15,3.47-21.91,1.55,5.57,3.64,11.3,7.45,15.76,2.14,2.5,4.89,4.25,7.26,6.5a14.37,14.37,0,0,1,3.17,4.36,53.39,53.39,0,0,0-1.49-7.82C212.19,164.3,210.91,160.45,208.36,157.72ZM287,178.11a70.84,70.84,0,0,0-8.66-36,63.4,63.4,0,0,0-24.72-24.65,59.81,59.81,0,0,0-19.18-6.92c12.62,7.63,23.55,18,30.82,30.87a66.65,66.65,0,0,1,7.2,20.11,72.5,72.5,0,0,1,.89,22,51.56,51.56,0,0,1-7.82,21.86,64.23,64.23,0,0,0,3.38-35.05c-2.21-11.39-8.08-21.46-15.76-30a168.13,168.13,0,0,0-15-14.31c1.86,4.2,4.24,8.14,6.48,12.14,2.33,4.17,4.67,8.36,6.7,12.69a77.41,77.41,0,0,1,4.56,11.86,57.32,57.32,0,0,1,2,13.08,65.72,65.72,0,0,1-3.67,25.34c-2.85,7.8-7.43,15.9-14,21.12-3.95,3.13-8.48,5.18-12.72,7.86-4,2.52-8.69,5.9-9.65,10.85-.85-4.38-4.71-7.54-8.21-9.91-3.71-2.51-7.81-4.32-11.51-6.84a35.89,35.89,0,0,1-5.33-4.27,42.87,42.87,0,0,1-4-4.93,58.12,58.12,0,0,1-6.24-11.09,64.79,64.79,0,0,1-4.83-25.1A61.39,61.39,0,0,1,183,153.9a155.44,155.44,0,0,1,7.26-14.27c2.52-4.49,5.22-8.92,7.32-13.63-9,7.81-17.92,16-24,26.37a58.39,58.39,0,0,0-7.79,32.6,65,65,0,0,0,4.31,20.43,51.51,51.51,0,0,1-7.45-19.28,68.59,68.59,0,0,1,.05-21.78,70.36,70.36,0,0,1,18.78-38,94.25,94.25,0,0,1,19.71-15.75c-12.21,1.94-24,8.42-32.77,17.1a65.62,65.62,0,0,0-18.11,33c-2.64,12.63-2.45,26.06,2.27,38.18a59.08,59.08,0,0,0,25,28.88A69.07,69.07,0,0,0,195.23,235c3.4.9,6.87,1.54,10.28,2.42s6.82,1.75,9.66,3.65a5.81,5.81,0,0,1,2.63,3.51c.74-3.37,4.72-4.81,7.61-5.79A106.79,106.79,0,0,1,236.13,236a75.27,75.27,0,0,0,19.15-6.81,60.37,60.37,0,0,0,27.22-29.11A58.56,58.56,0,0,0,287,178.11Z" style="fill:#c7b299"/></svg>