<svg xmlns="http://www.w3.org/2000/svg" xmlns:xlink="http://www.w3.org/1999/xlink" viewBox="0 0 432 432"><defs><clipPath id="a"><rect y="0.15" width="431.85" height="431.85" style="fill:none"/></clipPath></defs><title>judes-pattern-2</title><rect x="-643.54" y="-1149.11" width="2240.39" height="1814.65" style="fill:#fff"/><path d="M1596.35-1148.61V665H-643V-1148.61H1596.35m1-1H-644V666H1597.35V-1149.61Z"/><g style="clip-path:url(#a)"><path d="M30.25,63.31c1.11,3.15,12.39,4.62,8,17.37-1.92-9.61-7.24-8.87-8-12.13a20.55,20.55,0,0,0,.33,3.64c2,2.2,9.17,5.1,4.37,13.45-1.2-5.87-3.54-6.18-4.28-7.7-.14-.29-.34.63-.29,1a9.14,9.14,0,0,0,1.89,3.87,7.2,7.2,0,0,1-1.06,9.84c.62-2.55-1.6-7.65-1.6-7.65A53.86,53.86,0,0,0,28,92.6c-3.76-5.46-2.53-8.27-1.06-9.84,1.28-1.38,1.71-4.53,1.76-5-1.13,2.41-3.37,1.54-5,7.49-3.67-9.71,3.19-11,5.25-13a11.59,11.59,0,0,0,.16-2.8c-.88,1.85-6.71,2.58-8.35,11.17C17.08,67.15,27.83,66.25,29,63.31a20.31,20.31,0,0,0,.62-2.51S30,62.56,30.25,63.31Z" style="fill:#c7b299"/><path d="M144.88,63.31c1.11,3.15,12.39,4.62,8,17.37-1.92-9.61-7.24-8.87-8-12.13a20.63,20.63,0,0,0,.34,3.64c2,2.2,9.17,5.1,4.37,13.45-1.2-5.87-3.54-6.18-4.28-7.7-.14-.29-.34.63-.29,1a9.14,9.14,0,0,0,1.89,3.87,7.21,7.21,0,0,1-1.06,9.84c.62-2.55-1.6-7.65-1.6-7.65a53.86,53.86,0,0,0-1.59,7.65c-3.76-5.46-2.53-8.27-1.07-9.84,1.29-1.38,1.71-4.53,1.77-5-1.13,2.41-3.37,1.54-5,7.49-3.67-9.71,3.19-11,5.25-13a11.59,11.59,0,0,0,.16-2.8c-.88,1.85-6.71,2.58-8.35,11.17-3.68-13.41,7.07-14.31,8.24-17.25a20.31,20.31,0,0,0,.62-2.51S144.61,62.56,144.88,63.31Z" style="fill:#c7b299"/><path d="M259.51,63.31c1.11,3.15,12.39,4.62,8,17.37-1.92-9.61-7.24-8.87-8-12.13a20.63,20.63,0,0,0,.34,3.64c2,2.2,9.17,5.1,4.37,13.45-1.2-5.87-3.54-6.18-4.28-7.7-.14-.29-.34.63-.29,1a9.14,9.14,0,0,0,1.89,3.87,7.21,7.21,0,0,1-1.06,9.84c.62-2.55-1.6-7.65-1.6-7.65a53.86,53.86,0,0,0-1.59,7.65c-3.76-5.46-2.53-8.27-1.07-9.84,1.29-1.38,1.71-4.53,1.77-5-1.13,2.41-3.37,1.54-5,7.49-3.67-9.71,3.18-11,5.25-13a11.59,11.59,0,0,0,.16-2.8c-.88,1.85-6.71,2.58-8.35,11.17-3.68-13.41,7.07-14.31,8.24-17.25a20.31,20.31,0,0,0,.62-2.51S259.24,62.56,259.51,63.31Z" style="fill:#c7b299"/><path d="M374.14,63.31c1.11,3.15,12.39,4.62,8,17.37-1.92-9.61-7.24-8.87-8-12.13a20.63,20.63,0,0,0,.34,3.64c2,2.2,9.16,5.1,4.37,13.45-1.2-5.87-3.55-6.18-4.28-7.7-.14-.29-.35.63-.29,1a9.14,9.14,0,0,0,1.89,3.87,7.21,7.21,0,0,1-1.06,9.84c.62-2.55-1.6-7.65-1.6-7.65a53.86,53.86,0,0,0-1.59,7.65c-3.76-5.46-2.53-8.27-1.07-9.84,1.29-1.38,1.71-4.53,1.77-5-1.13,2.41-3.37,1.54-5,7.49-3.66-9.71,3.19-11,5.26-13a11.59,11.59,0,0,0,.16-2.8c-.88,1.85-6.71,2.58-8.35,11.17-3.68-13.41,7.07-14.31,8.23-17.25a19.11,19.11,0,0,0,.63-2.51S373.87,62.56,374.14,63.31Z" style="fill:#c7b299"/><path d="M87.64,13.43c1.11-3.15,12.38-4.62,8-17.37-1.92,9.61-7.23,8.87-8,12.13A21.54,21.54,0,0,1,88,4.55C90,2.34,97.14-.56,92.35-8.9,91.15-3,88.8-2.72,88.07-1.2c-.14.28-.35-.63-.29-.95A9.18,9.18,0,0,1,89.67-6a7.21,7.21,0,0,0-1.07-9.84C89.23-13.31,87-8.22,87-8.22a52.44,52.44,0,0,1-1.59-7.65C81.66-10.4,82.89-7.59,84.35-6,85.64-4.65,86.06-1.5,86.12-1c-1.13-2.42-3.38-1.54-5-7.49-3.67,9.71,3.19,11,5.25,13a11.52,11.52,0,0,1,.16,2.79c-.88-1.85-6.7-2.58-8.34-11.16-3.69,13.41,7.07,14.31,8.23,17.25A19.11,19.11,0,0,1,87,15.94S87.37,14.18,87.64,13.43Z" style="fill:#c7b299"/><path d="M202.27,13.43c1.11-3.15,12.38-4.62,8-17.37-1.92,9.61-7.24,8.87-8,12.13a21.54,21.54,0,0,1,.33-3.64c2-2.21,9.17-5.11,4.38-13.45-1.2,5.87-3.55,6.18-4.28,7.7-.14.28-.35-.63-.29-.95A9.18,9.18,0,0,1,204.3-6a7.21,7.21,0,0,0-1.07-9.84c.63,2.56-1.59,7.65-1.59,7.65a52.44,52.44,0,0,1-1.59-7.65C196.29-10.4,197.52-7.59,199-6c1.29,1.38,1.71,4.53,1.77,5.05-1.13-2.42-3.38-1.54-5-7.49-3.67,9.71,3.19,11,5.25,13a11.52,11.52,0,0,1,.16,2.79c-.88-1.85-6.7-2.58-8.34-11.16-3.69,13.41,7.06,14.31,8.23,17.25a19.11,19.11,0,0,1,.63,2.51S202,14.18,202.27,13.43Z" style="fill:#c7b299"/><path d="M316.9,13.43c1.11-3.15,12.38-4.62,8-17.37-1.92,9.61-7.24,8.87-8,12.13a21.54,21.54,0,0,1,.33-3.64c2-2.21,9.17-5.11,4.38-13.45-1.2,5.87-3.55,6.18-4.28,7.7-.14.28-.35-.63-.29-.95A9.06,9.06,0,0,1,318.93-6a7.21,7.21,0,0,0-1.07-9.84c.63,2.56-1.59,7.65-1.59,7.65a52.44,52.44,0,0,1-1.59-7.65c-3.76,5.47-2.54,8.28-1.07,9.84,1.29,1.38,1.71,4.53,1.77,5.05-1.13-2.42-3.38-1.54-5-7.49-3.67,9.71,3.19,11,5.25,13a11.52,11.52,0,0,1,.16,2.79c-.88-1.85-6.71-2.58-8.34-11.16-3.69,13.41,7.06,14.31,8.23,17.25a20.94,20.94,0,0,1,.63,2.51S316.63,14.18,316.9,13.43Z" style="fill:#c7b299"/><path d="M431.52,13.43c1.12-3.15,12.39-4.62,8-17.37-1.92,9.61-7.24,8.87-8,12.13a21.54,21.54,0,0,1,.33-3.64c2-2.21,9.17-5.11,4.38-13.45C435-3,432.69-2.72,432-1.2c-.13.28-.34-.63-.28-.95A9.06,9.06,0,0,1,433.56-6a7.21,7.21,0,0,0-1.07-9.84c.63,2.56-1.59,7.65-1.59,7.65a52.44,52.44,0,0,1-1.59-7.65c-3.76,5.47-2.54,8.28-1.07,9.84C429.53-4.65,430-1.5,430-1c-1.13-2.42-3.38-1.54-5-7.49-3.67,9.71,3.19,11,5.25,13a11.52,11.52,0,0,1,.16,2.79c-.88-1.85-6.71-2.58-8.35-11.16-3.68,13.41,7.07,14.31,8.24,17.25a20.94,20.94,0,0,1,.63,2.51S431.26,14.18,431.52,13.43Z" style="fill:#c7b299"/><path d="M30.25,224c1.11,3.15,12.39,4.61,8,17.36-1.92-9.61-7.24-8.86-8-12.13a20.55,20.55,0,0,0,.33,3.64c2,2.21,9.17,5.11,4.37,13.45-1.2-5.86-3.54-6.18-4.28-7.7-.14-.28-.34.64-.29,1a9.18,9.18,0,0,0,1.89,3.88,7.2,7.2,0,0,1-1.06,9.84c.62-2.56-1.6-7.65-1.6-7.65A53.86,53.86,0,0,0,28,253.31c-3.76-5.46-2.53-8.27-1.06-9.84,1.28-1.38,1.71-4.53,1.76-5.05-1.13,2.42-3.37,1.55-5,7.5-3.67-9.72,3.19-11,5.25-13a11.52,11.52,0,0,0,.16-2.79c-.88,1.85-6.71,2.58-8.35,11.16C17.08,227.85,27.83,227,29,224a20.78,20.78,0,0,0,.62-2.52S30,223.26,30.25,224Z" style="fill:#c7b299"/><path d="M144.88,224c1.11,3.15,12.39,4.61,8,17.36-1.92-9.61-7.24-8.86-8-12.13a20.63,20.63,0,0,0,.34,3.64c2,2.21,9.17,5.11,4.37,13.45-1.2-5.86-3.54-6.18-4.28-7.7-.14-.28-.34.64-.29,1a9.18,9.18,0,0,0,1.89,3.88,7.21,7.21,0,0,1-1.06,9.84c.62-2.56-1.6-7.65-1.6-7.65a53.86,53.86,0,0,0-1.59,7.65c-3.76-5.46-2.53-8.27-1.07-9.84,1.29-1.38,1.71-4.53,1.77-5.05-1.13,2.42-3.37,1.55-5,7.5-3.67-9.72,3.19-11,5.25-13a11.52,11.52,0,0,0,.16-2.79c-.88,1.85-6.71,2.58-8.35,11.16-3.68-13.41,7.07-14.3,8.24-17.24a20.78,20.78,0,0,0,.62-2.52S144.61,223.26,144.88,224Z" style="fill:#c7b299"/><path d="M259.51,224c1.11,3.15,12.39,4.61,8,17.36-1.92-9.61-7.24-8.86-8-12.13a20.63,20.63,0,0,0,.34,3.64c2,2.21,9.17,5.11,4.37,13.45-1.2-5.86-3.54-6.18-4.28-7.7-.14-.28-.34.64-.29,1a9.18,9.18,0,0,0,1.89,3.88,7.21,7.21,0,0,1-1.06,9.84c.62-2.56-1.6-7.65-1.6-7.65a53.86,53.86,0,0,0-1.59,7.65c-3.76-5.46-2.53-8.27-1.07-9.84,1.29-1.38,1.71-4.53,1.77-5.05-1.13,2.42-3.37,1.55-5,7.5-3.67-9.72,3.18-11,5.25-13a11.52,11.52,0,0,0,.16-2.79c-.88,1.85-6.71,2.58-8.35,11.16-3.68-13.41,7.07-14.3,8.24-17.24a20.78,20.78,0,0,0,.62-2.52S259.24,223.26,259.51,224Z" style="fill:#c7b299"/><path d="M374.14,224c1.11,3.15,12.39,4.61,8,17.36-1.92-9.61-7.24-8.86-8-12.13a20.63,20.63,0,0,0,.34,3.64c2,2.21,9.16,5.11,4.37,13.45-1.2-5.86-3.55-6.18-4.28-7.7-.14-.28-.35.64-.29,1a9.18,9.18,0,0,0,1.89,3.88,7.21,7.21,0,0,1-1.06,9.84c.62-2.56-1.6-7.65-1.6-7.65a53.86,53.86,0,0,0-1.59,7.65c-3.76-5.46-2.53-8.27-1.07-9.84,1.29-1.38,1.71-4.53,1.77-5.05-1.13,2.42-3.37,1.55-5,7.5-3.66-9.72,3.19-11,5.26-13a11.52,11.52,0,0,0,.16-2.79c-.88,1.85-6.71,2.58-8.35,11.16C361,227.85,371.72,227,372.88,224a19.53,19.53,0,0,0,.63-2.52S373.87,223.26,374.14,224Z" style="fill:#c7b299"/><path d="M87.64,174.13c1.11-3.15,12.38-4.61,8-17.36-1.92,9.61-7.23,8.86-8,12.13a21.54,21.54,0,0,1,.33-3.64c2-2.21,9.17-5.11,4.38-13.46-1.2,5.87-3.55,6.19-4.28,7.71-.14.28-.35-.64-.29-.95a9.18,9.18,0,0,1,1.89-3.88,7.21,7.21,0,0,0-1.07-9.84c.63,2.56-1.59,7.65-1.59,7.65a52.44,52.44,0,0,1-1.59-7.65c-3.76,5.46-2.53,8.27-1.07,9.84,1.29,1.38,1.71,4.53,1.77,5-1.13-2.42-3.38-1.55-5-7.5-3.67,9.72,3.19,11,5.25,13a11.49,11.49,0,0,1,.16,2.79c-.88-1.85-6.7-2.58-8.34-11.16-3.69,13.41,7.07,14.3,8.23,17.24a19.53,19.53,0,0,1,.63,2.52S87.37,174.89,87.64,174.13Z" style="fill:#c7b299"/><path d="M202.27,174.13c1.11-3.15,12.38-4.61,8-17.36-1.92,9.61-7.24,8.86-8,12.13a21.54,21.54,0,0,1,.33-3.64c2-2.21,9.17-5.11,4.38-13.46-1.2,5.87-3.55,6.19-4.28,7.71-.14.28-.35-.64-.29-.95a9.18,9.18,0,0,1,1.89-3.88,7.21,7.21,0,0,0-1.07-9.84c.63,2.56-1.59,7.65-1.59,7.65a52.44,52.44,0,0,1-1.59-7.65c-3.76,5.46-2.53,8.27-1.07,9.84,1.29,1.38,1.71,4.53,1.77,5-1.13-2.42-3.38-1.55-5-7.5-3.67,9.72,3.19,11,5.25,13a11.49,11.49,0,0,1,.16,2.79c-.88-1.85-6.7-2.58-8.34-11.16-3.69,13.41,7.06,14.3,8.23,17.24a19.53,19.53,0,0,1,.63,2.52S202,174.89,202.27,174.13Z" style="fill:#c7b299"/><path d="M316.9,174.13c1.11-3.15,12.38-4.61,8-17.36-1.92,9.61-7.24,8.86-8,12.13a21.54,21.54,0,0,1,.33-3.64c2-2.21,9.17-5.11,4.38-13.46-1.2,5.87-3.55,6.19-4.28,7.71-.14.28-.35-.64-.29-.95a9.06,9.06,0,0,1,1.89-3.88,7.21,7.21,0,0,0-1.07-9.84c.63,2.56-1.59,7.65-1.59,7.65a52.44,52.44,0,0,1-1.59-7.65c-3.76,5.46-2.54,8.27-1.07,9.84,1.29,1.38,1.71,4.53,1.77,5-1.13-2.42-3.38-1.55-5-7.5-3.67,9.72,3.19,11,5.25,13a11.49,11.49,0,0,1,.16,2.79c-.88-1.85-6.71-2.58-8.34-11.16-3.69,13.41,7.06,14.3,8.23,17.24a21.44,21.44,0,0,1,.63,2.52S316.63,174.89,316.9,174.13Z" style="fill:#c7b299"/><path d="M431.52,174.13c1.12-3.15,12.39-4.61,8-17.36-1.92,9.61-7.24,8.86-8,12.13a21.54,21.54,0,0,1,.33-3.64c2-2.21,9.17-5.11,4.38-13.46-1.2,5.87-3.55,6.19-4.29,7.71-.13.28-.34-.64-.28-.95a9.06,9.06,0,0,1,1.89-3.88,7.21,7.21,0,0,0-1.07-9.84c.63,2.56-1.59,7.65-1.59,7.65a52.44,52.44,0,0,1-1.59-7.65c-3.76,5.46-2.54,8.27-1.07,9.84,1.29,1.38,1.71,4.53,1.77,5-1.13-2.42-3.38-1.55-5-7.5-3.67,9.72,3.19,11,5.25,13a11.49,11.49,0,0,1,.16,2.79c-.88-1.85-6.71-2.58-8.35-11.16-3.68,13.41,7.07,14.3,8.24,17.24a21.44,21.44,0,0,1,.63,2.52S431.26,174.89,431.52,174.13Z" style="fill:#c7b299"/><path d="M30.25,384.72c1.11,3.15,12.39,4.62,8,17.37-1.92-9.61-7.24-8.87-8-12.13a20.55,20.55,0,0,0,.33,3.64c2,2.21,9.17,5.11,4.37,13.45-1.2-5.87-3.54-6.18-4.28-7.7-.14-.28-.34.63-.29.95a9.18,9.18,0,0,0,1.89,3.88A7.2,7.2,0,0,1,31.22,414c.62-2.56-1.6-7.65-1.6-7.65A53.86,53.86,0,0,0,28,414c-3.76-5.47-2.53-8.28-1.06-9.84,1.28-1.38,1.71-4.53,1.76-5.05-1.13,2.42-3.37,1.54-5,7.49-3.67-9.71,3.19-11,5.25-13a11.52,11.52,0,0,0,.16-2.79c-.88,1.85-6.71,2.58-8.35,11.16-3.68-13.41,7.07-14.31,8.24-17.25a20.31,20.31,0,0,0,.62-2.51S30,384,30.25,384.72Z" style="fill:#c7b299"/><path d="M144.88,384.72c1.11,3.15,12.39,4.62,8,17.37-1.92-9.61-7.24-8.87-8-12.13a20.63,20.63,0,0,0,.34,3.64c2,2.21,9.17,5.11,4.37,13.45-1.2-5.87-3.54-6.18-4.28-7.7-.14-.28-.34.63-.29.95a9.18,9.18,0,0,0,1.89,3.88,7.21,7.21,0,0,1-1.06,9.84c.62-2.56-1.6-7.65-1.6-7.65a53.86,53.86,0,0,0-1.59,7.65c-3.76-5.47-2.53-8.28-1.07-9.84,1.29-1.38,1.71-4.53,1.77-5.05-1.13,2.42-3.37,1.54-5,7.49-3.67-9.71,3.19-11,5.25-13a11.52,11.52,0,0,0,.16-2.79c-.88,1.85-6.71,2.58-8.35,11.16-3.68-13.41,7.07-14.31,8.24-17.25a20.31,20.31,0,0,0,.62-2.51S144.61,384,144.88,384.72Z" style="fill:#c7b299"/><path d="M259.51,384.72c1.11,3.15,12.39,4.62,8,17.37-1.92-9.61-7.24-8.87-8-12.13a20.63,20.63,0,0,0,.34,3.64c2,2.21,9.17,5.11,4.37,13.45-1.2-5.87-3.54-6.18-4.28-7.7-.14-.28-.34.63-.29.95a9.18,9.18,0,0,0,1.89,3.88,7.21,7.21,0,0,1-1.06,9.84c.62-2.56-1.6-7.65-1.6-7.65a53.86,53.86,0,0,0-1.59,7.65c-3.76-5.47-2.53-8.28-1.07-9.84,1.29-1.38,1.71-4.53,1.77-5.05-1.13,2.42-3.37,1.54-5,7.49-3.67-9.71,3.18-11,5.25-13a11.52,11.52,0,0,0,.16-2.79c-.88,1.85-6.71,2.58-8.35,11.16-3.68-13.41,7.07-14.31,8.24-17.25a20.31,20.31,0,0,0,.62-2.51S259.24,384,259.51,384.72Z" style="fill:#c7b299"/><path d="M374.14,384.72c1.11,3.15,12.39,4.62,8,17.37-1.92-9.61-7.24-8.87-8-12.13a20.63,20.63,0,0,0,.34,3.64c2,2.21,9.16,5.11,4.37,13.45-1.2-5.87-3.55-6.18-4.28-7.7-.14-.28-.35.63-.29.95a9.18,9.18,0,0,0,1.89,3.88,7.21,7.21,0,0,1-1.06,9.84c.62-2.56-1.6-7.65-1.6-7.65a53.86,53.86,0,0,0-1.59,7.65c-3.76-5.47-2.53-8.28-1.07-9.84,1.29-1.38,1.71-4.53,1.77-5.05-1.13,2.42-3.37,1.54-5,7.49-3.66-9.71,3.19-11,5.26-13a11.52,11.52,0,0,0,.16-2.79c-.88,1.85-6.71,2.58-8.35,11.16-3.68-13.41,7.07-14.31,8.23-17.25a19.11,19.11,0,0,0,.63-2.51S373.87,384,374.14,384.72Z" style="fill:#c7b299"/><path d="M87.64,334.84c1.11-3.15,12.38-4.62,8-17.37-1.92,9.61-7.23,8.87-8,12.13A21.54,21.54,0,0,1,88,326c2-2.2,9.17-5.1,4.38-13.45-1.2,5.87-3.55,6.18-4.28,7.7-.14.29-.35-.63-.29-.95a9.14,9.14,0,0,1,1.89-3.87,7.21,7.21,0,0,0-1.07-9.84c.63,2.55-1.59,7.65-1.59,7.65a52.44,52.44,0,0,1-1.59-7.65c-3.76,5.46-2.53,8.27-1.07,9.84,1.29,1.37,1.71,4.53,1.77,5-1.13-2.41-3.38-1.54-5-7.49-3.67,9.71,3.19,11,5.25,13a11.59,11.59,0,0,1,.16,2.8c-.88-1.85-6.7-2.58-8.34-11.17-3.69,13.41,7.07,14.31,8.23,17.25a19.11,19.11,0,0,1,.63,2.51S87.37,335.59,87.64,334.84Z" style="fill:#c7b299"/><path d="M202.27,334.84c1.11-3.15,12.38-4.62,8-17.37-1.92,9.61-7.24,8.87-8,12.13a21.54,21.54,0,0,1,.33-3.64c2-2.2,9.17-5.1,4.38-13.45-1.2,5.87-3.55,6.18-4.28,7.7-.14.29-.35-.63-.29-.95a9.14,9.14,0,0,1,1.89-3.87,7.21,7.21,0,0,0-1.07-9.84c.63,2.55-1.59,7.65-1.59,7.65a52.44,52.44,0,0,1-1.59-7.65c-3.76,5.46-2.53,8.27-1.07,9.84,1.29,1.37,1.71,4.53,1.77,5-1.13-2.41-3.38-1.54-5-7.49-3.67,9.71,3.19,11,5.25,13a11.59,11.59,0,0,1,.16,2.8c-.88-1.85-6.7-2.58-8.34-11.17-3.69,13.41,7.06,14.31,8.23,17.25a19.11,19.11,0,0,1,.63,2.51S202,335.59,202.27,334.84Z" style="fill:#c7b299"/><path d="M316.9,334.84c1.11-3.15,12.38-4.62,8-17.37-1.92,9.61-7.24,8.87-8,12.13a21.54,21.54,0,0,1,.33-3.64c2-2.2,9.17-5.1,4.38-13.45-1.2,5.87-3.55,6.18-4.28,7.7-.14.29-.35-.63-.29-.95a9,9,0,0,1,1.89-3.87,7.21,7.21,0,0,0-1.07-9.84c.63,2.55-1.59,7.65-1.59,7.65a52.44,52.44,0,0,1-1.59-7.65c-3.76,5.46-2.54,8.27-1.07,9.84,1.29,1.37,1.71,4.53,1.77,5-1.13-2.41-3.38-1.54-5-7.49-3.67,9.71,3.19,11,5.25,13a11.59,11.59,0,0,1,.16,2.8c-.88-1.85-6.71-2.58-8.34-11.17-3.69,13.41,7.06,14.31,8.23,17.25a20.94,20.94,0,0,1,.63,2.51S316.63,335.59,316.9,334.84Z" style="fill:#c7b299"/><path d="M431.52,334.84c1.12-3.15,12.39-4.62,8-17.37-1.92,9.61-7.24,8.87-8,12.13a21.54,21.54,0,0,1,.33-3.64c2-2.2,9.17-5.1,4.38-13.45-1.2,5.87-3.55,6.18-4.29,7.7-.13.29-.34-.63-.28-.95a9,9,0,0,1,1.89-3.87,7.21,7.21,0,0,0-1.07-9.84c.63,2.55-1.59,7.65-1.59,7.65a52.44,52.44,0,0,1-1.59-7.65c-3.76,5.46-2.54,8.27-1.07,9.84,1.29,1.37,1.71,4.53,1.77,5-1.13-2.41-3.38-1.54-5-7.49-3.67,9.71,3.19,11,5.25,13a11.59,11.59,0,0,1,.16,2.8c-.88-1.85-6.71-2.58-8.35-11.17-3.68,13.41,7.07,14.31,8.24,17.25a20.94,20.94,0,0,1,.63,2.51S431.26,335.59,431.52,334.84Z" style="fill:#c7b299"/></g></svg>