<svg id="Layer_1" data-name="Layer 1" xmlns="http://www.w3.org/2000/svg" viewBox="0 0 100 100"><path d="M87.93,28.32H78.09a28.09,28.09,0,0,0-56.18,0H12.07A8.06,8.06,0,0,0,4,36.38V91.93A8.07,8.07,0,0,0,12.07,100H87.93A8.07,8.07,0,0,0,96,91.93V36.38A8.06,8.06,0,0,0,87.93,28.32ZM50,8.23A20.09,20.09,0,0,1,70.09,28.32H29.91A20.09,20.09,0,0,1,50,8.23ZM87.93,92H54V82.16H46V92H12.07a.07.07,0,0,1-.07-.07V68.16H34v-8H12V36.38a.07.07,0,0,1,.07-.06H46v9.84h8V36.32H87.93a.07.07,0,0,1,.07.06V60.16H66v8H88V91.93A.07.07,0,0,1,87.93,92ZM53.72,50.29H46.28a8.06,8.06,0,0,0-8.05,8.05V70a8.06,8.06,0,0,0,8.05,8h7.44a8.06,8.06,0,0,0,8.05-8V58.34A8.06,8.06,0,0,0,53.72,50.29ZM53.77,70a0,0,0,0,1-.05,0H46.28a0,0,0,0,1-.05,0V58.34a0,0,0,0,1,.05-.05h7.44a0,0,0,0,1,.05.05Z"/></svg>